/* XPM */
static char *sprite_472_back[] = {
/* columns rows colors chars-per-pixel */
"96 96 10 1 ",
"  c #101010",
". c #293162",
"X c #414152",
"o c #6A6A7B",
"O c #5A62A4",
"+ c #737BC5",
"@ c #9C8BEE",
"# c #B4A4FF",
"$ c white",
"% c None",
/* pixels */
"%%%%%%%%%%%%%%%%%%%%%%%%%%%%%%%%%%%%%%%%%%%%%%%%%%%%%%%%%%%%%%%%%%%%%%%%%%%%%%%%%%%%%%%%%%%%%%%%",
"%%%%%%%%%%%%%%%%%%%%%%%%%%%%%%%%%%%%%%%%%%%%%%%%%%%%%%%%%%%%%%%%%%%%%%%%%%%%%%%%%%%%%%%%%%%%%%%%",
"%%%%%%%%%%%%%%%%%%%%%%%%%%%%%%%%%%%%%%%%%%%%%%%%%%%%%%%%%%%%%%%%%%%%%%%%%%%%%%%%%%%%%%%%%%%%%%%%",
"%%%%%%%%%%%%%%%%%%%%%%%%%%%%%%%%%%%%%%%%%%%%%%%%%%%%%%%%%%%%%%%%%%%%%%%%%%%%%%%%%%%%%%%%%%%%%%%%",
"%%%%%%%%%%%%%%%%%%%%%%%%%%%%%%%%%%%%%%%%%%%%%%%%%%%%%%%%%%%%%%%%%%%%%%%%%%%%%%%%%%%%%%%%%%%%%%%%",
"%%%%%%%%%%%%%%%%%%%%%%%%%%%%%%%%%%%%%%%%%%%%%%%%%%%%%%%%%%%%%%%%%%%%%%%%%%%%%%%%%%%%%%%%%%%%%%%%",
"%%%%%%%%%%%%%%%%%%%%%%%%%%%%%%%%%%%%%%%%%%%%%%%%%%%%%%%%%%%%%%%%%%%%%%%%%%%%%%%%%%%%%%%%%%%%%%%%",
"%%%%%%%%%%%%%%%%%%%%%%%%%%%%%%%%%%%%%%%%%%%%%%%%%%%%%%%%%%%%%%%%%%%%%%%%%%%%%%%%%%%%%%%%%%%%%%%%",
"%%%%%%%%%%%%%%%%%%%%%%%%%%%%%%%%%%%%%%%%%%%%%%%%%%%%%%%%%%%%%%%%%%%%%%%%%%%%%%%%%%%%%%%%%%%%%%%%",
"%%%%%%%%%%%%%%%%%%%%%%%%%%%%%%%%%%%%%%%%%%%%%%%%%%%%%%%%%%%%%%%%%%%%%%%%%%%%%%%%%%%%%%%%%%%%%%%%",
"%%%%%%%%%%%%%%%%%%%%%%%%%%%%%%%%%%%%%%%%%%%%%%%%%%%%%%%%%%%%%%%%%%%%%%%%%%%%%%%%%%%%%%%%%%%%%%%%",
"%%%%%%%%%%%%%%%%%%%%%%%%%%%%%%%%%%%%%%%%%%%%%%%%%%%%%%%%%%%%%%%%%%%%%%%%%%%%%%%%%%%%%%%%%%%%%%%%",
"%%%%%%%%%%%%%%%%%%%%%%%%%%%%%%%%%%%%%%%%%%%%%%%%%%%%%%%%%%%%%%%%%%%%%%%%%%%%%%%%%%%%%%%%%%%%%%%%",
"%%%%%%%%%%%%%%%%%%%%%%%%%%%%%%%%%%%%%%%%%%%%%%%%%%%%%%%%%%%%%%%%%%%%%%%%%%%%%%%%%%%%%%%%%%%%%%%%",
"%%%%%%%%%%%%%%%%%%%%%%%%%%%%%%%%%%%%%%%%%%%%%%%%%%%%%%%%%%%%%%%%%%%%%%%%%%%%%%%%%%%%%%%%%%%%%%%%",
"%%%%%%%%%%%%%%%%%%%%%%%%%%%%%%%%%%%%%%%%%%%%%%%%%%%%%%%%%%%%%%%%%%%%%%%%%%%%%%%%%%%%%%%%%%%%%%%%",
"%%%%%%%%%%%%%%%%%%%%%%%%%%%%%%%%%%%%%%%%%%%%%%%%%%%%%%%%%%%%%%%%%%%%%%%%%%%%%%%%%%%%%%%%%%%%%%%%",
"%%%%%%%%%%%%%%%%%%%%OO.%%%%%%%%%%%%%%%%%%%%%%%%%%%%%%%%%%%%%%%%%%%%%%%%%%%%%%%%%%%%%%%%%%%%%%%%%",
"%%%%%%%%%%%%%%%%%%%O@#O.%%%%%%%%%%%%%%%%%%%%%%%%%%%%%%%%%%%%%%%%%%%%%%%%%%%%%%%%%%%%%%%%%%%%%%%%",
"%%%%%%%%%%%%%%%%%%O##+O.%%%%%%%%%%%%%%%%%%%%%%%%%%%%%%%%%%%%%%%%%%%%%%%%%%%%%%%%%%%%%%%%%%%%%%%%",
"%%%%%%%%%%%%%%%%%O$#OOOO.%%%%%%%%%%%%%%%%%%%%%%%%%%%%%%%%%%%%%%%%%%%%%%%%%%%%%%%%%%%%%%%%%%%%%%%",
"%%%%%%%%%%%%%%%%O$#OOOOO.%%%%%%%%%%%%%%%%%%%%%%%%%%%%%%%%%%%%%%%%%%%%%%%%%%%%%%%%%%%%%%%%%%%%%%%",
"%%%%%%%%%%%%%%%O+#+O.   O.%%%%%%%%%%%%%%%%%%%%%%%%%%%%%%%%%%%%%%%%%%%%%%%%%%%%%%%%%%%%%%%%%%%%%%",
"%%%%%%%%%%%%%%%O@@O .OOO.O.%%%%%++%%%%%%%%%%%%%%%%%%%%%%%%%%%%%%%%%%%%%%%%%%%%%%%%%%%%%%%%%%%%%%",
"%%%%%%%%%%%%%%O@@O.+@+OOO..%%%%.@@++%%%%%%%%%%%%%%%%%%%%%%%%%%%%%%%%%%%%%%%%OO%%%%%%%%%%%%%%%%%%",
"%%%%%%%%%%%%%%.@@.+@@@OOOO..%%% +@@@OO%%%%%%%%%%%%%%%%%%OO..%%%%%%%%%%%%%%%O#@O%%%%%%%%%%%%%%%%%",
"%%%%%%%%%%%%%%.@O.@@@@+OOOO %%% O@@@@@OO%%%%%%%%%%%%%OOO###@.%%%%%%%%%%%%%%O##@O%%%%%%%%%%%%%%%%",
"%%%%%%%%%%%%%.O@.+@@@@@OOOO %%%%.+@@@@@@O%%%%%%%%%%OO+####@O.%%%%%%%%%%%%%OOO#@@O%%%%%%%%%%%%%%%",
"%%%%%%%%%%%%%.O+.@@@@@@OOOOO %%% O+@@@@@@O.....%%OO@@###@@+.%%%%%%%%%%%%%O..OO@@O%%%%%%%%%%%%%%%",
"%%%%%%%%%%%%%.OO.+@@@+OOOOOO %%% OO+@@@@OO@@@@+..@@##@@@@+O %%%%%%%%%%%OO@+O.O+@@.%%%%%%%%%%%%%%",
"%%%%%%%%%%%%%.O..OOOOOOOOOOO %%%%.OOO+@@@@@@@@@@++@@@@@+OO.%%%%%%%%%%%.$#@@O.OO++.%%%%%%%%%%%%%%",
"%%%%%%%%%%%%%.O.OOOOOOOOOOOO %%%% OOOOO+@@@@@@@@@@@@+OOOOO %%%%%%%%%%.$$#@@O..OO++.%%%%%%%%%%%%%",
"%%%%%%%%%%%%%%.O.OOOOOOOOOOO.%%%% OOOOOOOO+@@@@@+OOOOOOOO.%%%%%%%%%%.@##@@+OO.OOO+.%%%%%%%%%%%%%",
"%%%%%%%%%%%%%%.O.OOOOOOOOOOO.%%%%% OOOO  ....OOOOOOOOOOOO %%%%%%%%%%.@@@@+OOO.OOO+.%%%%%%%%%%%%%",
"%%%%%%%%%%%%%%..OO      OOO.%%%%%  ... OO@@@@..OOOOOOOOO %%%%%%%%%% +@@@+OOOO.OOOO.%%%%%%%%%%%%%",
"%%%%%%%%%%%%%%%..O ooooo    %%%. @@@+ OOO@@@@@O...OOOOO %%%%%%%%%%% O++OOOOO.OOOOO.%%%%%%%%%%%%%",
"%%%%%%%%%%%%%%% O.O oooooooo   .@@@+OOOOO+@@@+O.OO...O.%%%%%%%%%%% OOOOOOOO..OOOOO %%%%%%%%%%%%%",
"%%%%%%%%%%%%%%%% .O Xooooooooo O+++OOOOOOO@@+OOO+@@@@  %%%%%%%%%%% OOOOOOOO.OOOOOO %%%%%%%%%%%%%",
"%%%%%%%%%%%%%%%%%.OO Xoooooooo OOOOOOOOOOO++OOOOO+@@@@@        %%%.OOOOOOOOO.OOOOO %%%%%%%%%%%%%",
"%%%%%%%%%%%%%%%%%%.. XXXoooooX OOOOOOOOOOOOOOOOOOO++@@@ XXXXXoX        OOOOOO.OOO.%%%%%%%%%%%%%%",
"%%%%%%%%%%%%%%%%%%.OO XXXXXXXXX OOOOOOOOOOOOOOOOOOOO++@ XXXXoXooooooooo       OOO.%%%%%%%%%%%%%%",
"%%%%%%%%%%%%%%%%%% OO XXXXXXXXX OOOOOOOOOOOOOOOOOOOOOO XXXXXXoXooooooooooooooo O.%%%%%%%%%%%%%%%",
"%%%%%%%%%%%%%%%%%%%   XXXXXXXXXX OOOOOOOOOOOOOOOOOOOOO XXXXXXXoXooooooooooooo OO.%%%%%%%%%%%%%%%",
"%%%%%%%%%%%%%%%%%%%%% XXXXXXXXXX OOOOOOOOOOOOOOOOOO.O XXXXXXXXXXoooooooooooo OO.%%%%%%%%%%%%%%%%",
"%%%%%%%%%%%%%%%%%%%% XXXXX  XXX OOOOOOOOOOOOOOOOOOO .XXXXXXXXXXXXoooooooooo OO.%%%%%%%%%%%%%%%%%",
"%%%%%%%%%%%%%%%%%%%% XX   XXXX OOO OOOOOOOOOOOOOOOOO XXXXXXXXXXXXXoooooooo ...%%%%%%%%%%%%%%%%%%",
"%%%%%%%%%%%%%%%%%%%%   XXXXXXX   .. OOOOOOOOOOOOOOOO XXXXXXXXXXXXXXXoooooo .%%%%%%%%%%%%%%%%%%%%",
"%%%%%%%%%%%%%%%%%%% XXXXXXXXXXXXXXXX  OOOOO OOO. OOOO XXXXXXXXXXXXXXXXooo %%%%%%%%%%%%%%%%%%%%%%",
"%%%%%%%%%%%%%%%%%%%  XXXXXXXXXXXXXXXX OOOOO.   .X  OO XXXXXXX  XXXXXXXXXo %%%%%%%%%%%%%%%%%%%%%%",
"%%%%%%%%%%%%%%%%%%%%% XXXXXXXXXXXXXXX OOOO XXXXXXXX  XXXXXXXXXX  XXXXXXXX %%%%%%%%%%%%%%%%%%%%%%",
"%%%%%%%%%%%%%%%%%%%%%% XXXXXXXXXXXXXX OOOO XXXXXXXXXXXXXXXXXXXXXX  XXXXX %%%%%%%%%%%%%%%%%%%%%%%",
"%%%%%%%%%%%%%%%%%%%%%% XXXXXXXXXXXXXX OOO XXXXXXXXXXXXXXXXXXXXXXXXX  XXX %%%%%%%%%%%%%%%%%%%%%%%",
"%%%%%%%%%%%%%%%%%%%%%%% XXXXX XXXXXXXX.OO XXXXXXXXXXXXXXXXXXXXXXXXXXX  X %%%%%%%%%%%%%%%%%%%%%%%",
"%%%%%%%%%%%%%%%%%%%%%%% XXXX XXXXXXXXX O XXXXXXXXXXXXXXXXXXXXXXXXXXXXXX  %%%%%%%%%%%%%%%%%%%%%%%",
"%%%%%%%%%%%%%%%%%%%%%%%% XXX XXXXXXXXX O XXXXXXXXXXXXXXXXXXXXXXXXXXXXX   %%%%%%%%%%%%%%%%%%%%%%%",
"%%%%%%%%%%%%%%%%%%%%%%%% XX XXXXXXXXXXX XXXXXXXXXXXXXXXXXXXXXXXXXXXX  %%%%%%%%%%%%%%%%%%%%%%%%%%",
"%%%%%%%%%%%%%%%%%%%%%%%% XX XXXXXXXXXXXXXXXXXXXXXXXXXXXXX XXXXXXXX  %%%%%%%%%%%%%%%%%%%%%%%%%%%%",
"%%%%%%%%%%%%%%%%%%%%%%%% X XXXXXXXXXXXXXXXXXXXXXXXXXXXXXXX XXXXXX %%%%%%%%%%%%%%%%%%%%%%%%%%%%%%",
"%%%%%%%%%%%%%%%%%%%%%%%% X XXXXXXXXXXXXXXXXXXXXXXXXXXXXXXX XXXXX %%%%%%%%%%%%%%%%%%%%%%%%%%%%%%%",
"%%%%%%%%%%%%%%%%%%%%%%%%  XXXXXXXXXXXX XXXXXXXXXXXXXXXXXXXX XXX %%%%%%%%%%%%%%%%%%%%%%%%%%%%%%%%",
"%%%%%%%%%%%%%%%%%%%%%%%%    XXXXXXXXXX XXXXXXXXXXXXXXXXXXXX XXX %%%%%%%%%%%%%%%%%%%%%%%%%%%%%%%%",
"%%%%%%%%%%%%%%%%%%%%%%%%%%%%    XXXXXX XXXXXXXXXXXXXXXXXXXXX X %%%%%%%%%%%%%%%%%%%%%%%%%%%%%%%%%",
"%%%%%%%%%%%%%%%%%%%%%%%%%%%%%%%%  XXXX XXXXXXXXXXXXXXXXXXXXX X %%%%%%%%%%%%%%%%%%%%%%%%%%%%%%%%%",
"%%%%%%%%%%%%%%%%%%%%%%%%%%%%%%%%%% XX XXXXXXXXXXXX       XXXX %%OO%%%%%%%%%%%%%%%%%%%%%%%%%%%%%%",
"%%%%%%%%%%%%%%%%%%%%%%%%%%%%%%%%%%% X XXXXXXXX    .%%%%%%     %O@#O%%%%%%%%%%%%%%%%%%%%%%%%%%%%%",
"%%%%%%%%%%%%%%%%%%%%%%%%%%%%%%%%%%% X XXXXX   OO@@.%%%%%%%%%%%%O#OOOO%%%O.%%%%%%%%%%%%%%%%%%%%%%",
"%%%%%%%%%%%%%%%%%%%%%%%%%%%%%%%%%%%%  XXX  .OOOO@+.O%%%%%%%%%%%O@#$#+O%%.#.%%%%%%%%%%%%%%%%%%%%%",
"%%%%%%%%%%%%%%%%%%%%%%%%%%%%%%%%%%%%% X  ..OOOOO+.@O.%%%%%%%%%.+#####@O.@#.%%%%%%%%%%%%%%%%%%%%%",
"%%%%%%%%%%%%%%%%%%%%%%%%%%%%%%%%%%%%%  %%% .OOO. O@@O.%%%%%%%.+OOOO+@@@+@@.%%%%%%%%%%%%%%%%%%%%%",
"%%%%%%%%%%%%%%%%%%%%%%%%%%%%%%%%%%%%%%%%%%%     OOO+@...%%%%%.OOOOOOO+@O@+ %%%%%%%%%%%%%%%%%%%%%",
"%%%%%%%%%%%%%%%%%%%%%%%%%%%%%%%%%%%%%%%%%%%%%.OOOOOOO.@@O.%%....OOOOOO+O+O %%%%%%%%%%%%%%%%%%%%%",
"%%%%%%%%%%%%%%%%%%%%%%%%%%%%%%%%%%%%%%%%%%%%% OOOOOOO O+@O..+@@+.OOOOO+.O.%%%%%%%%%%%%%%%%%%%%%%",
"%%%%%%%%%%%%%%%%%%%%%%%%%%%%%%%%%%%%%%%%%%%%% OOOOOOO OO+@.OOO+@O.OOOOO .%%%%%%%%%%%%%%%%%%%%%%%",
"%%%%%%%%%%%%%%%%%%%%%%%%%%%%%%%%%%%%%%%%%%%%%% OOOOO OOOOO OOOO+@.OOOO. %%%%%%%%%%%%%%%%%%%%%%%%",
"%%%%%%%%%%%%%%%%%%%%%%%%%%%%%%%%%%%%%%%%%%%%%%%     OOOOOO OOOOO@.OO.. %%%%%%%%%%%%%%%%%%%%%%%%%",
"%%%%%%%%%%%%%%%%%%%%%%%%%%%%%%%%%%%%%%%%%%%%%%%%%% OOOOOO. OOOOOO.   %%%%%%%%%%%%%%%%%%%%%%%%%%%",
"%%%%%%%%%%%%%%%%%%%%%%%%%%%%%%%%%%%%%%%%%%%%%%%%%%% OOOOO OOOOOOO %%%%%%%%%%%%%%%%%%%%%%%%%%%%%%",
"%%%%%%%%%%%%%%%%%%%%%%%%%%%%%%%%%%%%%%%%%%%%%%%%%%%%     % OOOO. %%%%%%%%%%%%%%%%%%%%%%%%%%%%%%%",
"%%%%%%%%%%%%%%%%%%%%%%%%%%%%%%%%%%%%%%%%%%%%%%%%%%%%%%%%%%%.    %%%%%%%%%%%%%%%%%%%%%%%%%%%%%%%%",
"%%%%%%%%%%%%%%%%%%%%%%%%%%%%%%%%%%%%%%%%%%%%%%%%%%%%%%%%%%%%%%%%%%%%%%%%%%%%%%%%%%%%%%%%%%%%%%%%",
"%%%%%%%%%%%%%%%%%%%%%%%%%%%%%%%%%%%%%%%%%%%%%%%%%%%%%%%%%%%%%%%%%%%%%%%%%%%%%%%%%%%%%%%%%%%%%%%%",
"%%%%%%%%%%%%%%%%%%%%%%%%%%%%%%%%%%%%%%%%%%%%%%%%%%%%%%%%%%%%%%%%%%%%%%%%%%%%%%%%%%%%%%%%%%%%%%%%",
"%%%%%%%%%%%%%%%%%%%%%%%%%%%%%%%%%%%%%%%%%%%%%%%%%%%%%%%%%%%%%%%%%%%%%%%%%%%%%%%%%%%%%%%%%%%%%%%%",
"%%%%%%%%%%%%%%%%%%%%%%%%%%%%%%%%%%%%%%%%%%%%%%%%%%%%%%%%%%%%%%%%%%%%%%%%%%%%%%%%%%%%%%%%%%%%%%%%",
"%%%%%%%%%%%%%%%%%%%%%%%%%%%%%%%%%%%%%%%%%%%%%%%%%%%%%%%%%%%%%%%%%%%%%%%%%%%%%%%%%%%%%%%%%%%%%%%%",
"%%%%%%%%%%%%%%%%%%%%%%%%%%%%%%%%%%%%%%%%%%%%%%%%%%%%%%%%%%%%%%%%%%%%%%%%%%%%%%%%%%%%%%%%%%%%%%%%",
"%%%%%%%%%%%%%%%%%%%%%%%%%%%%%%%%%%%%%%%%%%%%%%%%%%%%%%%%%%%%%%%%%%%%%%%%%%%%%%%%%%%%%%%%%%%%%%%%",
"%%%%%%%%%%%%%%%%%%%%%%%%%%%%%%%%%%%%%%%%%%%%%%%%%%%%%%%%%%%%%%%%%%%%%%%%%%%%%%%%%%%%%%%%%%%%%%%%",
"%%%%%%%%%%%%%%%%%%%%%%%%%%%%%%%%%%%%%%%%%%%%%%%%%%%%%%%%%%%%%%%%%%%%%%%%%%%%%%%%%%%%%%%%%%%%%%%%",
"%%%%%%%%%%%%%%%%%%%%%%%%%%%%%%%%%%%%%%%%%%%%%%%%%%%%%%%%%%%%%%%%%%%%%%%%%%%%%%%%%%%%%%%%%%%%%%%%",
"%%%%%%%%%%%%%%%%%%%%%%%%%%%%%%%%%%%%%%%%%%%%%%%%%%%%%%%%%%%%%%%%%%%%%%%%%%%%%%%%%%%%%%%%%%%%%%%%",
"%%%%%%%%%%%%%%%%%%%%%%%%%%%%%%%%%%%%%%%%%%%%%%%%%%%%%%%%%%%%%%%%%%%%%%%%%%%%%%%%%%%%%%%%%%%%%%%%",
"%%%%%%%%%%%%%%%%%%%%%%%%%%%%%%%%%%%%%%%%%%%%%%%%%%%%%%%%%%%%%%%%%%%%%%%%%%%%%%%%%%%%%%%%%%%%%%%%",
"%%%%%%%%%%%%%%%%%%%%%%%%%%%%%%%%%%%%%%%%%%%%%%%%%%%%%%%%%%%%%%%%%%%%%%%%%%%%%%%%%%%%%%%%%%%%%%%%",
"%%%%%%%%%%%%%%%%%%%%%%%%%%%%%%%%%%%%%%%%%%%%%%%%%%%%%%%%%%%%%%%%%%%%%%%%%%%%%%%%%%%%%%%%%%%%%%%%",
"%%%%%%%%%%%%%%%%%%%%%%%%%%%%%%%%%%%%%%%%%%%%%%%%%%%%%%%%%%%%%%%%%%%%%%%%%%%%%%%%%%%%%%%%%%%%%%%%"
};
