/* XPM */
static char *sprite_250_back[] = {
/* columns rows colors chars-per-pixel */
"96 96 15 1 ",
"  c #101010",
". c #6A6A6A",
"X c #940800",
"o c #BD4110",
"O c #9C6200",
"+ c #FF5A10",
"@ c #109410",
"# c #41D552",
"$ c #DEAC00",
"% c #FFDE00",
"& c #B4FFBD",
"* c #FFEE83",
"= c #C5C5C5",
"- c white",
"; c None",
/* pixels */
";;;;;;;;;;;;;;;;;;;;;;;;;;;;;;;;;;;;;;;;;;;;;;;;;;;;;;;;;;;;;;;;;;;;;;;;;;;;;;;;;;;;;;;;;;;;;;;;",
";;;;;;;;;;;;;;;;;;;;;;;;;;;;;;;;;;;;;;;;;;;;;;;;;;;;;;;;;;;;;;;;;;;;;;;;;;;;;;;;;;;;;;;;;;;;;;;;",
";;;;;;;;;;;;;;;;;;;;;;;;;;;;;;;;;;;;;;;;;;;;;;;;;;;;;;;;;;;;;;;;;;;;;;;;;;;;;;;;;;;;;;;;;;;;;;;;",
";;;;;;;;;;;;;;;;;;;;;;;;;;;;;;;;;;;;;;;;;;;;;;;;;;;;;;;;;;;;;;;;;;;;;;;;;;;;;;;;;;;;;;;;;;;;;;;;",
";;;;;;;;;;;;;;;;;;;;;;;;;;;;;;;;;;;;;;;;;;;;;;;;;;;;;;;;;;;;;;;;;;;;;;;;;;;;;;;;;;;;;;;;;;;;;;;;",
";;;;;;;;;;;;;;;;;;;;;;;;;;;;;@@;;;;;;;;;;;;;;;;;;;;;;;;;;;;;;;;;;;;;;;;;;;;;;;;;;;;;;;;;;;;;;;;;",
";;;;;;;;;;;;;;;;;;;;;;;;;@@;@##@;;;;;;;;;;;;;;;;;;;;;;;;;;;;;;;;;;;;;;;;;;;;;;;;;;;;;;;;;;;;;;;;",
";;;;;;;;;;;;;;;;;;;;;;;;@##@@##@;;;XX;;;;;;;;;;;;;;;;;;;;;;;;;;;;;;;;;;;;@@;;;;;;;;;;;;;;;;;;;;;",
";;;;;;;;;;;;;;;;;;;;;;;; ###@&&#@;X++X;;;;;;;;;;;;;;;;;;;;;;;X ;;;;;;;;;@## ;;;;;;;;;;;;;;;;;;;;",
";;;;;;;;;;;;;;;;;;;;;@@; #&&XX&#@ +++X;;;;;;;;;;;;;;;;;;;;;;X++ ;;;;XX;@### ;@@;;;;;;;;;;;;;;;;;",
";;;;;;;;;;;;;;;;;;;; ##@ #&X++X#X+++X;;;;;;;;;;;;;;;;;;;;;;;X+++ ;;X++ #### @## ;;;;;;;;;;;;;;;;",
";;;;;;;;;;;;;;;;;;;; ##&# &X++XXo++X;;;;;;;;;;;;;;;;;;;;;;;;;X+++X;X++ ### @### ;;;;;;;;;;;;;;;;",
";;;;;;;;;;;;;;;;; @@ #&&&XXX+++X++oX;;;;;;;;;;;;;;;;;;;;;;;;;X+++X;X++o &#@#### ;;;;;;;;;;;;;;;;",
";;;;;;;;;;;;;;;; ### #&&X++X+++o+oX;;;;;;;;;;;;;;;;;;;;;;;;;;;X+++XX+++ &@#### ;;;;;;;;;;;;;;;;;",
";;;;;;;;;;;;;;;; #### #&X++X+++oooX;;;;;;;;;;;;;;;;;;;;;;;;;;;X+++oX+++ &&&### ;;@@@;;;;;;;;;;;;",
";;;;;;;;;;;;;;;; ###&@XXX+++X+oooX;;;;;;;;;;;;;;;;;;;;;;;;;;;;;X+++X+++ X &&## @@###@;;;;;;;;;;;",
";;;;;;;;;;;;;;;; ##&&X++X+++oooooX;;;;;;;;;;;;;;;;;;;;;;;;;;;;;X+++o+++X++ &# @##### ;;;;;;;;;;;",
";;;;;;;;;;;;;;@@; #&&X+++X++oooooX;;;;;;;;;;;;;;;;;;;;;;;;;;;;;X++++++Xo++ &&@###### ;;;;;;;;;;;",
";;;;;;;;;;;;;@##@ ##&X+++X+oooooX;;;;;;;;;;;;;;;;;;;;;;;;;;;;;;;X+++++X+++ &@&&#### ;;;;;;;;;;;;",
";;;;;;;;;;;;; ####@# Xo+++ooooooX;;;;;;;;;;;;;;;;;;;;;;;;;;;;;;;X+++++X+++ &&&&&## ;@@;;;;;;;;;;",
";;;;;;;;;;;;; ###&# ++X+++ooooooX;;;;;;;;;;;;;;;;;;;;;;;;;;;;;;;X++++X+++ XX&&&&## @##@;;;;;;;;;",
";;;;;;;;;;;;; ##&&& +++X+ooooooX;;;;;;;;;;;;;;;;;;;;;;;;;;;;;;;;Xo+++++++ ++ &&&# #### ;;;;;;;;;",
";;;;;;;;;;;;;; #&&& +++ooooooooX;;;;;;;;;;;;;;;;;;;;;;;;;OO ;;;OOX++++++ +++ &&@@##### ;;;;;;;;;",
";;;;;;;;;;;;;; #&&X +++ooooooooX;;;;;;;;;;;;;;;;;;;;;;;;O%%% OO%%X+++++X++++ &#&&#### ;;;;;;;;;;",
";;;;;;;;;;;;  ; #X++ +oooooooooX;;;;;;;;;;;;;;;;;;;;;;;O%%$$$ %%$X++++o++++ &&&&&&### ;;;;;;;;;;",
";;;;;;;;;;; ##  @ ++XoooooooooX;;;;;;;;;;;;;;;;;;;;;;;;O%$$$$ $$$X+++++++++ XX&&&&## @@;;;;;;;;;",
";;;;;;;;;;; ####@ +++XooooooooX;;;;;;;;;;;;;;;;;;;;;;;;O$$$$$ $$$Xo+++++++ X++X&&&@ ### ;;;;;;;;",
";;;;;;;;;;; ###&& o++oooooooooX;;;;;;;;;;;;;;;;;;;;;;;;;O$$O $$$O$X++++++X++++ &#@##### ;;;;;;;;",
";;;;;;;;;;; ##&&&&X++oooooooooX;;;;;;;;;;;;;;;;;;;;;;;;;O$$$O$$$OOX+++++X+++++ #&&&### ;;;;;;;;;",
";;;;;;;;;;;; #&&&XXoooooooooooX;;;;;;;;;;;;;;;;;;;;;;;;;O$$$O$$O$$X++++X+++++ &&&&&### ;;;;;;;;;",
";;;;;;;;;;;; #&&X++XooooooooooX;;;;;;;;;;;;;;;;;;;;;;;;;;O$$O$$O$$X+++++++++ &&&&&&&# ;;;;;;;;;;",
";;;;;;;;;;  ; #&X++oXoooooooooX;;;;;;;;;;;;;;;;;;;;;;;;;; $$O$ $$$X++++++++ &&XX&&&# ;;;;;;;;;;;",
";;;;;;;;; ##   #Xo++ooooooooooX;;;;;;;;;;;;;;;;;;;;;;;;;; $O$$ $$O +++++++ &XX++X&# @@@@;;;;;;;;",
";;;;;;;;; ####@@#XoooooooooooooX;;;;;;;;;;;;;;;;;;;;;;;XX+ O$ $$ $ ++++++XXX++++X@@@#### ;;;;;;;",
";;;;;;;;; ####&&@@oooooooooooooX;;;;;;;;;;;;;;;;;;;;;;X++++oO O $  ++++oXo++++++ &&##### ;;;;;;;",
";;;;;;;;;; ##&&&&XXooooooooooooX;;;;;;;;;;;;;;;;;;;;;X+++++oooo  ; ++++++++++++ @&&&### ;;;;;;;;",
";;;;;;;;;;; #&&&XooXooooooooooo ;;;;;;;;;;;;;;;;;;;; o++++ooooooX; +++++++++++o &&&&## ;;;;;;;;;",
";;;;;;;;;;   @&&XoooXXooooooooO* ;;;;;;;; ;;;;;;;;;; ++ooooooo Xo o++++++++++X &&&&&  @;;;;;;;;;",
";;;;;;;;; ###  & oooooooooooO O* ;;;;; ; * ;;;;;;;; o+ooooooo   o +++++++++o  X#&#@@###@;;;;;;;;",
";;;;;;;;; #####@@ oooooooooo * ** ;;;O* ** ;;;;;;;; ++ooooooo  =  +++++++XXX+++ ######## ;;;;;;;",
";;;;;;;;; #####&&@ ooooooooo **%* ;;; **** ;;;;;;; o+oooooooo  - o++++oXX++++++ &&&##### ;;;;;;;",
";;;;;;;;;; ###&&&&X Xooooooo %%%% X;; *%** ;;;;;; +++ooooooooX   +++++++++++++ &&&&#### ;;;;;;;;",
";;;;;;;;;;; ##&&& oooXXooooo %$%% oXO%%%%% ;;;;  +++ooooooooooX o+++++++++++XX&&&&&##  ;;;;;;;;;",
";;;;;;;;;;;;  @&& ooOOoooooo $$$%Ooo %$$$%    X##@@ooooooooooX$ +++++++++XXX##&&&#@@@@;;;;;;;;;;",
";;;;;;;;;;; ##  && o *Oooooo $$$$$Oo $$$$$ ++++XX##@@oo   ooo$ +++++++XXX+++ &#@@@@###@;;;;;;;;;",
";;;;;;;;;;; ####@@# ***Oooooo $$$$Oo $$$$ +++++++XX@@@ ;;;Xoo ++++++++++++++ &&&&&##### ;;;;;;;;",
";;;;;;;;;;; ###&&&& %%**Ooooo $$$$Oo $$$$ ++++oo  oX@ ;;;;;X ++++++++++++++ &&&&&&##### ;;;;;;;;",
";;;;;;;;;;;; ##&&&& %%$%*Oooo $$$$Oo $$$$ oooooO** oX;;;;;  ++++++++++++++ &&&&&&####@ ;;;;;;;;;",
";;;;;;;;;;;;;  #&&&  $$$%% o o $$$O $$$$ ooO oO*** oXX;;  o++++++++XX+++  @@&&&###   ;;;;;;;;;;;",
";;;;;;;;;;;;;  OO#&& $$$$%  $  $$$O $$$$ oO% O%%% oooX  o++++++++++++   X&&&@     ### ;;;;;;;;;;",
";;;;;;;;;;;;  ***OO@@ $$$$% $% $$$$ $$$$ O%% $%%% ooXXo++++++++++++++++++ &&&&&###### ;;;;;;;;;;",
";;;;;;;;;;;;O%%%**%OO $$$$% $$%O$$$ $$$$ %% $%%% oooOOO++++++++++++++++++ &&&&###### ;;;;;;;;;;;",
";;;;;;;;;;;;; %%%$$$$O $$$$$ $% $$$ $$$ $$%O$%% oOOO** +++++++++++X  +++X@@@######  ;;;;;;;;;;;;",
";;;;;;;;;;;;;; %$$$$$$O $$$$ $$ $$$ $$$ $$O$%% OO%***** ++++++++++++X   &&&&@     ;;;;;;;;;;;;;;",
";;;;;;;;;;;;;;; $$$$$$$O $$$$ $$O$$ $$O$$$O$%OO$%%%%%* +++++++++++++++X&&&&&&&#### ;;;;;;;;;;;;;",
";;;;;;;;;;;;OOOO  $$$$$$$ $$$O$$O$$O$$O$$O$%O$$$%%%%$ +++++++++oX++++++X&&&&&&##### ;;;;;;;;;;;;",
";;;;;;;;;;  O**%OO  $$$$$$ $$$O$$O$O$$O$O$$O$$$$$%$  o+++++++++++  ++++ @@&&&###### ;;;;;;;;;;;;",
";;;;;;;;;; **%%$$$$OOO$$$$$ $$O$$O$$$O$O$$O$$$$$$  oooo++++++++++++    &&&    ###  ;;;;;;;;;;;;;",
";;;;;;;;;;; %%$$$$$$$$OOO$$$ $$O$$$$$O$$$O$$$$$  ooOOO  ++++++o+++++X&&&&&&###   ;;;;;;;;;;;;;;;",
";;;;;;;;;;OO  $$$$$$$$$$$OOO$$$O$$$$$$$$$$$$$  OOOO%**** +o++++X++++ &&&&&&##### ;;;;;;;;;;;;;;;",
";;;;;;;; O%%%%   $$$$$$$$$$$OO$$O$$$$$$$$$$ OOO%%%***** O++o++++XXXX&   &&###### ;;;;;;;;;;;;;;;",
";;;;;;  **%%$$$$$     $$$$$$$$$$$$$$$$$$OOO$$$$$%%******* ++X+++X@&&&&&&        ;;;;;;;;;;;;;;;;",
";;;;;; **%%$$$$$$$$$$$      $$$$$$$$$$OO$$$$$$$$%%*****O +++XXXX&&#&&&&&#### ;;;;;;;;;;;;;;;;;;;",
";;;;;;; %%$$$$$$$$$$$$$$$$$$OOOO$$$$$$$$OOOOOO$%%**%$  #&XXX&X&&&&& &&&##### ;;;;;;;;;;;;;;;;;;;",
";;;;;;;;OOO$$$$$$$$$$$$$OOOO$$$$$$$$$$OO$$$$$$OOOOOOO@&#&&@&&& &&&&#  ####  ;;;;;;;;;;;;;;;;;;;;",
";;;;;;;;;;;OOOOOOOOOO  O$$$$$$$$$$$$$$$$OO$$%%%%%%%$$OOOO&# &&#@&&####    ;;;;;;;;;;;;;;;;;;;;;;",
";;;;;;;;;; O%%%$$$$  $$$$$$$$OO$$$$$$$O$$$OOO%%%%%******* O# @##@ ##### ;;;;;;;;;;;;;;;;;;;;;;;;",
";;;;;;;;; %%%$$$$$ $$$$$$$OOO$$$$$$$O$$O$$$%$  %%%******** ###@###  ## ;;;;;;;;;;;;;;;;;;;;;;;;;",
";;;;;;;;;;  $$$$$$$ $$$OOO$O$$$$$$O$O$$$OO%%%**  OO%****O   ###  ###  ;;;;;;;;;;;;;;;;;;;;;;;;;;",
";;;;;;;;;; %$$$$$$O   O$$$O$$$$$$$O$$O$$O%O%***** $   **** ;   ;;   ;;;;;;;;;;;;;;;;;;;;;;;;;;;;",
";;;;;;;;;;O    OOO$$$$$$OO$$O$$O$$O$$ $$$O%OO%**  %%%$    ;;;;;;;;;;;;;;;;;;;;;;;;;;;;;;;;;;;;;;",
";;;;;;;;;;;;; O$$$$$$$$O$$$O$$O$$$O$$ $%% $%%O  $%%%***$O;;;;;;;;;;;;;;;;;;;;;;;;;;;;;;;;;;;;;;;",
";;;;;;;;;;;OO%$$$$$$$$O$$$ $$O$$O$O$$$O%%%O%%%%O$%%******O;;;;;;;;;;;;;;;;;;;;;;;;;;;;;;;;;;;;;;",
";;;;;;;;;;O*%$$$$$$$O $%%$ %$O$%O%O$$% $%% $%%%*OO******** ;;;;;;;;;;;;;;;;;;;;;;;;;;;;;;;;;;;;;",
";;;;;;;;;O*%$$$$$$O O$%%$ %%O$%%O%O%%% $%%% %%*** OO***    ;;;;;;;;;;;;;;;;;;;;;;;;;;;;;;;;;;;;;",
";;;;;;;;;O %%$$OOO $%%%$ %%%O%%O$%O%%%%O%%%% %**** .  **O;;;;;;;;;;;;;;;;;;;;;;;;;;;;;;;;;;;;;;;",
";;;;;;;;;;   OO;; *%%%% $%% %%%O%%O%%%% %%%% O***** ;;   ;;;;;;;;;;;;;;;;;;;;;;;;;;;;;;;;;;;;;;;",
";;;;;;;;;;;;;;;;O***%%* *% $%%%O**O%%%% %%%** ***** ;;;   ;;;;;;;;;;;;;;;;;;;;;;;;;;;;;;;;;;;;;;",
";;;;;;;;;;;;;;;O****** **O **%O%** %%%%$ **** O***** ; ... ;;;;;;;;;;;;;;;;;;;;;;;;;;;;;;;;;;;;;",
";;;;;;;;;;;;;;O****** O*$ **** %** %***$ ***** O****  ...   ;;;;;;;;;;;;;;;;;;;;;;;;;;;;;;;;;;;;",
";;;;;;;;;;;;;;O***** ;O* O**** *** $**** $**** ;O* * ..  .. ;;;;;;;;;;;;;;;;;;;;;;;;;;;;;;;;;;;;",
";;;;;;;;;;;;;O*O*** ;;OOO**** O*** $****OO***** ;O;  ......= ;;;;;;;;;;;;;;;;;;;;;;;;;;;;;;;;;;;",
";;;;;;;;;;;;;  *** ;;;;;O**** O*O*OO****O ***** ;  ...    =-.;;;;;;;;;;;;;;;;;;;;;;;;;;;;;;;;;;;",
";;;;;;;;;;;;;; *O ;;;;;;O*** ;;O;O; ****O;O***** ...  ;;;; -.;;;;;;;;;;;;;;;;;;;;;;;;;;;;;;;;;;;",
";;;;;;;;;;;;;;  ;;;;;;;O**** ;;;;;; * **O; ***** .. ;;;;;;;.;;;;;;;;;;;;;;;;;;;;;;;;;;;;;;;;;;;;",
";;;;;;;;;;;;;;;;;;;;;;;O*** ;;;;;;; * **O;;O**** .= ;;;;;;;;;;;;;;;;;;;;;;;;;;;;;;;;;;;;;;;;;;;;",
";;;;;;;;;;;;;;;;;;;;;;;O*O* ;;;;;;;; ; *O;; ***** --.;;;;;;;;;;;;;;;;;;;;;;;;;;;;;;;;;;;;;;;;;;;",
";;;;;;;;;;;;;;;;;;;;;;;OO; ;;;;;;;;;;;; ;;;;O*O**  .;;;;;;;;;;;;;;;;;;;;;;;;;;;;;;;;;;;;;;;;;;;;",
";;;;;;;;;;;;;;;;;;;;;;;;;;;;;;;;;;;;;;;;;;;; *OO* ;;;;;;;;;;;;;;;;;;;;;;;;;;;;;;;;;;;;;;;;;;;;;;",
";;;;;;;;;;;;;;;;;;;;;;;;;;;;;;;;;;;;;;;;;;;;; O; ;;;;;;;;;;;;;;;;;;;;;;;;;;;;;;;;;;;;;;;;;;;;;;;",
";;;;;;;;;;;;;;;;;;;;;;;;;;;;;;;;;;;;;;;;;;;;;;;;;;;;;;;;;;;;;;;;;;;;;;;;;;;;;;;;;;;;;;;;;;;;;;;;",
";;;;;;;;;;;;;;;;;;;;;;;;;;;;;;;;;;;;;;;;;;;;;;;;;;;;;;;;;;;;;;;;;;;;;;;;;;;;;;;;;;;;;;;;;;;;;;;;",
";;;;;;;;;;;;;;;;;;;;;;;;;;;;;;;;;;;;;;;;;;;;;;;;;;;;;;;;;;;;;;;;;;;;;;;;;;;;;;;;;;;;;;;;;;;;;;;;",
";;;;;;;;;;;;;;;;;;;;;;;;;;;;;;;;;;;;;;;;;;;;;;;;;;;;;;;;;;;;;;;;;;;;;;;;;;;;;;;;;;;;;;;;;;;;;;;;",
";;;;;;;;;;;;;;;;;;;;;;;;;;;;;;;;;;;;;;;;;;;;;;;;;;;;;;;;;;;;;;;;;;;;;;;;;;;;;;;;;;;;;;;;;;;;;;;;",
";;;;;;;;;;;;;;;;;;;;;;;;;;;;;;;;;;;;;;;;;;;;;;;;;;;;;;;;;;;;;;;;;;;;;;;;;;;;;;;;;;;;;;;;;;;;;;;;"
};
