/* XPM */
static char *sprite_078_back[] = {
/* columns rows colors chars-per-pixel */
"96 96 15 1 ",
"  c black",
". c #733131",
"X c #414A52",
"o c #DE1010",
"O c #8B5231",
"+ c #E66229",
"@ c #FF9C18",
"# c #C5946A",
"$ c #FFDE52",
"% c #737B83",
"& c #EEC58B",
"* c #C5C5C5",
"= c #FFE6C5",
"- c white",
"; c None",
/* pixels */
";;;;;;;;;;;;;;;;;;;;;;;;;;;;;;;;;;;;;;;;;;;;;;;;;;;;;;;;;;;;;;;;;;;;;;;;;;;;;;;;;;;;;;;;;;;;;;;;",
";;;;;;;;;;;;;;;;;;;;;;;;;;;;;;;;;;;;;;;;;;;;;;;;;;;;;;;;;;;;;;;;;;;;;;;;;;;;;;;;;;;;;;;;;;;;;;;;",
";;;;;;;;;;;;;;;;;;;;;;;;;;;;;;;;;;;;;;;;;;;;;;;;;;;;;;;;;;;;;;;;;;;;;;;;;;;;;;;;;;;;;;;;;;;;;;;;",
";;;;;;;;;;;;;;;;;;;;;;;;;;;;;;;;;;;;;;;;;;;;;;;;;;;;;;;;;;;;;;;;;;;;;;;;;;;;;;;;;;;;;;;;;;;;;;;;",
";;;;;;;;;;;;;;;;;;;;;;;;;;;;;;;;;;;;;;;;;;;;;;;;;;;;;;;;;;;;;;;;;;;;;;;;;;;;;;;;;;;;;;;;;;;;;;;;",
";;;;;;;;;;;;;;;;;;;;;;;;;;;;;;;;;;;;;;;;;;;;;;;;;;;;;;;;;;;;;;;;;;;;;;;;;;;;;;;;;;;;;;;;;;;;;;;;",
";;;;;;;;;;;;;;;;;;;;;;;;;;;;;;;;;;;;;;;;;;;;;;;;;;;;;;;;;;;;;;;;;;;;;;;;;;;;;;;;;;;;;;;;;;;;;;;;",
";;;;;;;;;;;;;;;;;;;;;;;;;;;;;;;;;;;;;;;;;;;;;;;;;;;;;;;;;;;;;;;;;;;;;;;;;;;;;;;;;;;;;;;;;;;;;;;;",
";;;;;;;;;;;;;;;;;;;;;;;;;;;;;;;;;;;;;;;;;;;;;;;;;;;;;;;;;;;;;;;;;;;;;;;;;;;;;;;;;;;;;;;;;;;;;;;;",
";;;;;;;;;;;;;;;;;;;;;;;;;;;;;;;;;;;;;;;;;;;;;;;;;;;;;;;;;;;;;;;;;;;;;;;;;;;;;;;;;;;;;;;;;;;;;;;;",
";;;;;;;;;;;;;;;;;;;;;;;;;;;;;;;;;;;;;;;;;;;;;;;;;;;;;@;;;;;;;;;;;;;;;;;;;;;;;;;;;;;;;;;;;;;;;;;;",
";;;;;;;;;;;;;;;;;;;;;;;;;;;;;;;;;;;;;;;;;;;;;;;;;;;;;@@@@@;;;;;;;;;;;;;;;;;;;;;;;;;;;;;;;;;;;;;;",
";;;;;;;;;;;;;;;;;;;;;;;;;;;;;;;;;;;;;;;;;;;;;;;;;;;;;;++@@@;;@@;;;;;;;;;;;;;;;;;;;;;;;;;;;;;;;;;",
";;;;;;;;;;;;;;;;;;;;;;;;;;;;;;;;;;;;;;;;;;;;;;;;;;;;;;;+++@@@@@@;;;;;;;;;;;;;;;;;;;;;;;;;;;;;;;;",
";;;;;;;;;;;;;;;;;;;;;;;;;;;;;;;;;;;;;;;;;;;;;;;;;;;;;;;;+++@@@$@;;;;;;;;;;;;;;;;;;;;;;;;;;;;;;;;",
";;;;;;;;;;;;;;;;;;;;;;;;;;;;;;;;;;;;;;;;;;;;;;;;;;+++;;;++++@@@$@$;;@@@;;;;;;;;;;;;;;;;;;;;;;;;;",
";;;;;;;;;;;;;;;;;;;;;;;;;;;;;;;;;;;;;;;;;;@@;;;;;+++++++++++@@@$$@@@$$$@;;;;;;;;;;;;;;;;;;;;;;;;",
";;;;;;;;;;;;;;;;;;;;;;;;;;;;;;;;;;;;;;;;;;;@@;;;;++++++++++@@@@@$$$$$$$$@;;;;;;;;;;;;;;;;;;;;;;;",
";;;;;;;;;;;;;;;;;;;;;;;;;;;;;;;;;+++++;;;;;;;;;;;;+++++++++@@@@@@@$$$$$$@;;;;;;;;;;;;;;;;;;;;;;;",
";;;;;;;;;;;;;;;;;;;;;;;;;;;;;;;++@@@@$+;;+++;;;;;;@++++++++@@@$$@@@$$$$$@;;;;;;;;;;;;;;;;;;;;;;;",
";;;;;;;;;;;;;;;;;;;;;;;;;;;;;++@@@@@$$$++$$$++;;;+@@++++++++@$$$$@@$$$$$@;OO;;;;;;;;;;;;;;;;;;;;",
";;;;;;;;;;;;;;;;;;;;;;;;;++;++@@+++@@@@$$$$$$@+;;;++;;++++++@@$$$$@$$$$+;O=.;;;;;;;;;;;;;;;;;;;;",
";;;;;;;;;;;;;;;;;;;+++;;+++oo+++++++++@@$$$$$$+;;;;;;;;+++++++@$$$@$$$+.O=.;  ;;;;;;;;;;;;;;;;;;",
";;;;;;;;;;;;;;;;;++++++;;++++oo++++++@@@$$$$$$+;;;;++;;++++++++$$@@@$@@+=#  = ;;;;;;;;;;;;;;;;;;",
";;;;;;;;;;;;;;;;++++;+++oooooo;;;+++@@@@@@$$$@@+;;+@@++@@++++++@@++@@@@+# ==o ;;;;;;;;;;;;;;;;;;",
";;;;;;;;;;;;;;;;;++;;;o+oooooo;;o+++++@@@@@@@@@@++@@@@@@@@@@++++++++@@+# ==o.;;;;;;;;;;;;;;;;;;;",
";;;;;;;;;;;;;;;;;;;;;;oooooo+;;ooo+++++@@@@@@@@@@@@@@@@@@@@@@@++++++@+& &&oo ;;;;;;;;;;;;;;;;;;;",
";;;;;;;;;;;;;;;;;;;;;;;;ooo;;;;;;oooo++++++@@@@@@@@@@@@@@@@@@@@@++++++&&&oo ;;;;;;;;;;;;;;;;;;;;",
";;;;;;;;;;;;;;;;;;;;;;;;;;;;;;;;ooooo+++oo+++@@@@@@@@@@@@++++@@+++++++&&== ;;;;;;;;;;;;;;;;;;;;;",
";;;;;;;;;;;;;;;;;;;;;;;;;;;;;;oooooooo++ooo++++@@@@@@++oooo++++++++++&&&==.;;;;;;;;;;;;;;;;;;;;;",
";;;;;;;;;;;;;;;;;;;;;;;;;;;;;;;ooooooooooooooo++++++++++oooo+++++ooo&&&&&.=.;;;;;;;;;;;;;;;;;;;;",
";;;;;;;;;;;;;;;;;;;;;;;;;;;;;;;;;oooooooooooooooooo+++++oooo+++ooo&&&&&&&#..;;;;;;;;;;;;;;;;;;;;",
";;;;;;;;;;;;;;;;;;;;;;;;;;;;;;;;;;;oooooo;;;ooooooooooooooooo+ooo&&&&&&&&-. ;;;;;;;;;;;;;;;;;;;;",
";;;;;;;;;;;;;;;;;;;;;;;;;;;;;;;;;;;;;ooo;;;;;;oooo;oooooooooooo+o&&&&&&&&*o ;;;;;;;;;;;;;;;;;;;;",
";;;;;;;;;;;;;;;;;;;;;;;;;;;;;;;;;;;;;;;;;;;;;;;;;;oooooo++;o+@++&&&&&&&&&&==O;;;;;;;;;;;;;;;;;;;",
";;;;;;;;;;;;;;;;;;;;;;;;;;;;;;;;;;;;;;;;;;;;;;;;;;;oooo;;;ooo@@+&&&&&&#&&&&=O;;;;;;;;;;;;;;;;;;;",
";;;;;;;;;;;;;;;;;;;;;;;;;;;;;;;;;;;;;;;;;;;;;;;;;;;;;;;;;;oo+@@+&&&&&###&&&==O;;;;;;;;;;;;;;;;;;",
";;;;;;;;;;;;;;;;;;;;;;;;;;;;;;;;;;;;;;;;;;;;;;;;;;;;;;;;;oo+@@@@+&&&&.##&&&===O;;;;;;;;;;;;;;;;;",
";;;;;;;;;;;;;;;;;;;;;;;;;;;;;;;;;;;;;;;@@@;;;;;;;;;;;;;++oo+@@@@@+&&& ###&&&#=O;;;;;;;;;;;;;;;;;",
";;;;;;;;;;;;;;;;;;;;;;;;;;;@@@;;;;;;;;+@$$@@;;;;;;++;;+$$@+o+@@@@+&&& .###&&#.;;;;;;;;;;;;;;;;;;",
";;;;;;;;;;;;;;;;;;;++++;;;+$$$@;;;;;++@@$$$$@;;;;+@@+++@$$@@++@@+&&&& ;..##&&.;;;;;;;;;;;;;;;;;;",
";;;;;;;;;;;;;;;;;++@$$$+++@@$$$@@;;+++@@@$$$$@@;++@@@@@@@@@@@+++#&&&.;;;;    ;;;;;;;;;;;;;;;;;;;",
";;;;;;;;;;;;;;;;+@@$$$$$$+++@@@@@@;++++@@@$$@@@+@@+@@@@+@@@@@@++&&&& ;;;;;;;;;;;;;;;;;;;;;;;;;;;",
";;;;;;;+++;;;;;++@@@@@$$@@++@@@@@+;+++++@@@@@@@@@@@@ooo++@@@++&&&&&& ;;;;;;;;;;;;;;;;;;;;;;;;;;;",
";;;;;++++++;+++@@@@@@@@@@@@@@@oo@@+++++@@@@@@@@@@@@@@ooo+++++#&&&&&& ;;;;;;;;;;;;;;;;;;;;;;;;;;;",
";;;;;;++++++++@@@@@@@@@@@@@@@o++o+@@+++@@@@@@++++@@+ooo+&&++&&&&&&&.;;;;;;;;;;;;;;;;;;;;;;;;;;;;",
";;;;;;;+++++++++@@@@@@@+++@@@+++oo+@@+++@@@++oo+++ooo++&&&&&&&&&&&&.;;;;;;;;;;;;;;;;;;;;;;;;;;;;",
";;;;;;;;;++;;++++++@@@++++++++++ooo++oo+@@++oooooooo#&&&&&&&&&&&&&=.;;;;;;;;;;;;;;;;;;;;;;;;;;;;",
";;;;;;;;;;;;;;++++++oo++++++++oooooooooo++oo&&&oo#&&&&&&&&&&&&&&&&=.;;;;;;;;;;;;;;;;;;;;;;;;;;;;",
";;;;;;;;;;;;;;;;ooo;;;o++++++oooooooooooooo#&&&&&&&&&&&&&&&&&&&&&==.;;;;;;;;;;;;;;;;;;;;;;;;;;;;",
";;;;;;;;;;;;;;;;;;;;;;oooo+++ooooooooooooooo&&&&&&&&&&&&&&&&&&&&&==O;;;;;;;;;;;;;;;;;;;;;;;;;;;;",
";;;;;;;;;;;;;;;;;;;;;;;oooooooooooo&&#oooo&&&&&&&&&&&&&&&&&&&&&&&===O;;;;;;;;;;;;;;;;;;;;;;;;;;;",
";;;;;;;;;;;;;;;;;;;;;;;oooooooooo&&&&&&&&&&&&&&&&&&&&&&&&&&&&&&&&===O;;;;;;;;;;;;;;;;;;;;;;;;;;;",
";;;;;;;;;;;;;;;;;;;;;;;;;oooo; #&&&&&&&&&&&&&&&&&&&&&&&&&&&&&&&&&===O;;;;;;;;;;;;;;;;;;;;;;;;;;;",
";;;;;;;;;;;;;;;;;;;;;;;;;;;;;; #&&&#&&&&&&&&&&&&&&&&&&&&&&&&&&&&&&==O;;;;;;;;;;;;;;;;;;;;;;;;;;;",
";;;;;;;;;;;;;;;;;;;;;;;;;;;;;; ##&&.&&&&&&&&&&&&&#&&&&&&&&&&&&&&&&===O;;;;;;;;;;;;;;;;;;;;;;;;;;",
";;;;;;;;;;;;;;;;;;;;;;;;;;;;;; ###&.&&&&&&&&&&&&&.&&&&&&&&&&&&&&@@&===O;;;;;;;;;;;;;;;;;;;;;;;;;",
";;;;;;;;;;;;;;;;;;;;;;;;;;;;;;; ####.&&&&&&&&&&&&.&&&&&&&&&O&&@@$$@&==O;;;;;;;;;;;;;;;;;;;;;;;;;",
";;;;;;;;;;;;;;;;;;;;;;;;;;;;;;; #### &&&&&&&&&&&&.&&&&&&&&  O&&&@$$@@==O;;;;;;;;;;;;;;;;;;;;;;;;",
";;;;;;;;;;;;;;;;;;;;;;;;;;;;;;; ##### &&&&&&&&&&.  &&&&&  ###  #&@@$$+&=O;;;;;;;;;;;;;;;;;;;;;;;",
";;;;;;;;;;;;;;;;;;;;;;;;;;;;;;; ###### &&&&&&&&& ;;     #####.;  #@$$$+&O;;;;;;;;;;;;;;;;;;;;;;;",
";;;;;;;;;;;;;;;;;;;;;;;;;;;;;; ####### &&&&&&&& ;;;;;;.######.;;; @@$@+&=.;;;;;;;;;;;;;;;;;;;;;;",
";;;;;;;;;;;;;;;;;;;;;;;;@@;;;; ####### &&&&&&&& ;;;;;;.######.;@@;#$$@@+&&.;;;;;;;;;;;;;;;;;;;;;",
";;;;;;;;;;;;;;;;;;;;;;;;@$@++;.###### ; &&&&&&# ;;;;;;;.####.;oo++@@++@++&.;;;;;;;;;;;;;;;;;;;;;",
";;;;;;;;;;;;;;;;;;;@@@;;+@$$@+####### ; &&&&&& ;;;;;;;;.####.;;oo+oo++oo+&.;;;;;;;;;;;;;;;;;;;;;",
";;;;;;;;;;;;;;;;;;;;@$@@;++$$+###### ;; &&&&&& ;;;;;;;;.###.;;;;+oooooooo.;;;;;;;;;;;;;;;;;;;;;;",
";;;;;;;;;;;;;;;;;;;;;@$+;;+@@@+#### ;;; &&&&&# ;;;;++;;.###.;;;;ooo; ooo&.;;;;;;;;;;;;;;;;;;;;;;",
";;;;;;;;;;;;;;;;+++;++$$+++++@+#### ;;; &&&&& ;;;++@@+;;.##.;;;oo;;; ++oo;;;;;;;;;;;;;;;;;;;;;;;",
";;;;;;;;;;;;;;;;;o++$$$$@@+o+++##@@;;; &&&&& ;;;;+@@@@+;.##.;;;;;;;+++oooo;;;;;;;;;;;;;;;;;;;;;;",
";;;;;;;;;;;;;;;;;;ooo$$@@@@+oo+##@@@++++&&& ;;;;;;++@+@+.###.;;;;;oooooooo;;;;;;;;;;;;;;;;;;;;;;",
";;;;;;;;;;;;;;;;;;;;oo@@@@++oo## ;@$$$$@+&& ;;;;;;++++@@+###.;;;;; oo# oo;;;;;;;;;;;;;;;;;;;;;;;",
";;;;;;;;;;;;;;;;;;;;;oo++++ooo# ;;;@$$@@@+ ;;;;;;;;++++@+###.;;;; XXO# ;;;;;;;;;;;;;;;;;;;;;;;;;",
";;;;;;;;;;;;;;;;;;;;;oooo++ooo# ;;;++++@@+ ;;;;;;;;;;;++++##.;;;; XXXO ;;;;;;;;;;;;;;;;;;;;;;;;;",
";;;;;;;;;;;;;;;;;;;;;;ooooooo# ;;oo++oo+++#;;;;;;;;;;oo+++###.;;; XXX ;;;;;;;;;;;;;;;;;;;;;;;;;;",
";;;;;;;;;;;;;;;;;;;;;;;;ooo ## ;;;o+oooo++# ;;;;;;;;;oooo+###.;;;; XX ;;;;;;;;;;;;;;;;;;;;;;;;;;",
";;;;;;;;;;;;;;;;;;;;;;;;;;; ### ;;;oooooooo ;;;;;;;;;;oooooOO ;;;;;  ;;;;;;;;;;;;;;;;;;;;;;;;;;;",
";;;;;;;;;;;;;;;;;;;;;;;;;;; OOO ;;;oooooooo.;;;;;;;;;;;;;; XX% ;;;;;;;;;;;;;;;;;;;;;;;;;;;;;;;;;",
";;;;;;;;;;;;;;;;;;;;;;;;;;; XXX% ;;;;;;oooo# ;;;;;;;;;;;;; XX% ;;;;;;;;;;;;;;;;;;;;;;;;;;;;;;;;;",
";;;;;;;;;;;;;;;;;;;;;;;;;;; XXXX% ;;;;;; OOO ;;;;;;;;;;;;;;    ;;;;;;;;;;;;;;;;;;;;;;;;;;;;;;;;;",
";;;;;;;;;;;;;;;;;;;;;;;;;;;; XXX% ;;;;;; XXX% ;;;;;;;;;;;;;;;;;;;;;;;;;;;;;;;;;;;;;;;;;;;;;;;;;;",
";;;;;;;;;;;;;;;;;;;;;;;;;;;;      ;;;;;; XXXX* ;;;;;;;;;;;;;;;;;;;;;;;;;;;;;;;;;;;;;;;;;;;;;;;;;",
";;;;;;;;;;;;;;;;;;;;;;;;;;;;;;;;;;;;;;;;; XXX% ;;;;;;;;;;;;;;;;;;;;;;;;;;;;;;;;;;;;;;;;;;;;;;;;;",
";;;;;;;;;;;;;;;;;;;;;;;;;;;;;;;;;;;;;;;;;      ;;;;;;;;;;;;;;;;;;;;;;;;;;;;;;;;;;;;;;;;;;;;;;;;;",
";;;;;;;;;;;;;;;;;;;;;;;;;;;;;;;;;;;;;;;;;;;;;;;;;;;;;;;;;;;;;;;;;;;;;;;;;;;;;;;;;;;;;;;;;;;;;;;;",
";;;;;;;;;;;;;;;;;;;;;;;;;;;;;;;;;;;;;;;;;;;;;;;;;;;;;;;;;;;;;;;;;;;;;;;;;;;;;;;;;;;;;;;;;;;;;;;;",
";;;;;;;;;;;;;;;;;;;;;;;;;;;;;;;;;;;;;;;;;;;;;;;;;;;;;;;;;;;;;;;;;;;;;;;;;;;;;;;;;;;;;;;;;;;;;;;;",
";;;;;;;;;;;;;;;;;;;;;;;;;;;;;;;;;;;;;;;;;;;;;;;;;;;;;;;;;;;;;;;;;;;;;;;;;;;;;;;;;;;;;;;;;;;;;;;;",
";;;;;;;;;;;;;;;;;;;;;;;;;;;;;;;;;;;;;;;;;;;;;;;;;;;;;;;;;;;;;;;;;;;;;;;;;;;;;;;;;;;;;;;;;;;;;;;;",
";;;;;;;;;;;;;;;;;;;;;;;;;;;;;;;;;;;;;;;;;;;;;;;;;;;;;;;;;;;;;;;;;;;;;;;;;;;;;;;;;;;;;;;;;;;;;;;;",
";;;;;;;;;;;;;;;;;;;;;;;;;;;;;;;;;;;;;;;;;;;;;;;;;;;;;;;;;;;;;;;;;;;;;;;;;;;;;;;;;;;;;;;;;;;;;;;;",
";;;;;;;;;;;;;;;;;;;;;;;;;;;;;;;;;;;;;;;;;;;;;;;;;;;;;;;;;;;;;;;;;;;;;;;;;;;;;;;;;;;;;;;;;;;;;;;;",
";;;;;;;;;;;;;;;;;;;;;;;;;;;;;;;;;;;;;;;;;;;;;;;;;;;;;;;;;;;;;;;;;;;;;;;;;;;;;;;;;;;;;;;;;;;;;;;;",
";;;;;;;;;;;;;;;;;;;;;;;;;;;;;;;;;;;;;;;;;;;;;;;;;;;;;;;;;;;;;;;;;;;;;;;;;;;;;;;;;;;;;;;;;;;;;;;;",
";;;;;;;;;;;;;;;;;;;;;;;;;;;;;;;;;;;;;;;;;;;;;;;;;;;;;;;;;;;;;;;;;;;;;;;;;;;;;;;;;;;;;;;;;;;;;;;;",
";;;;;;;;;;;;;;;;;;;;;;;;;;;;;;;;;;;;;;;;;;;;;;;;;;;;;;;;;;;;;;;;;;;;;;;;;;;;;;;;;;;;;;;;;;;;;;;;",
";;;;;;;;;;;;;;;;;;;;;;;;;;;;;;;;;;;;;;;;;;;;;;;;;;;;;;;;;;;;;;;;;;;;;;;;;;;;;;;;;;;;;;;;;;;;;;;;"
};
