/* XPM */
static char *sprite_473_back[] = {
/* columns rows colors chars-per-pixel */
"96 96 14 1 ",
"  c #101010",
". c #393131",
"X c #5A3939",
"o c #734A41",
"O c #5A5262",
"+ c #9C6A4A",
"@ c #A4627B",
"# c #8B8B94",
"$ c #B4A483",
"% c #E694BD",
"& c #E6DEAC",
"* c #BDBDC5",
"= c #EEF6F6",
"- c None",
/* pixels */
"------------------------------------------------------------------------------------------------",
"------------------------------------------------------------------------------------------------",
"------------------------------------------------------------------------------------------------",
"------------------------------------------------------------------------------------------------",
"------------------------------------------------------------------------------------------------",
"------------------------------------------------------------------------------------------------",
"------------------------------------------------------------------------------------------------",
"------------------------------------------------------------------------------------------------",
"------------------------------------------------------------------------------------------------",
"------------------------------------------------------------------------------------------------",
"------------------------------------------------------------------------------------------------",
"------------------------------------------------------------------------------------------------",
"------------------------------------------------------------------------------------------------",
"----------------------------------------oooooooooo----------------------------------------------",
"------------------------------------...o++++++++++oooo------------------------------------------",
"---------------------------------...++++++++++++++++++oo----------------------------------------",
"-------------------------------..+++++++++++++++++++++++o---------------------------------------",
"-----------------------------o.++++++++++++++++++++++++++o--------------------------------------",
"----------------------------.+++++++++++++++++++++++++++++o-------------------------------------",
"---------------------------.+++++++++++++++++++++++++++++++oO#----------------------------------",
"--------------------------.++++++++++++++++++++++++++++++++O*=#---------------------------------",
"-------------------------.+++++++++++++++++++++++++++++++++.===#--------------------------------",
"------------------------.+++++++++++++++++++++ooooo++++++++.====#-------------------------------",
"-----------------------.+++++++++++++++++++++ooooooooo++++++o===#-------------------------------",
"----------------------o+++++++++++++++++++++oooooooooooo++++.**==#------------------------------",
"----------------------.++++++++++++++++++++o+ooooooooooooo+++.**==O-----------------------------",
"---------------------.++++++++++++++++o+o+o+ooooooooooooooo+++.***=O----------------------------",
"--------------------- +++++++++++++++o+o+o+ooooooooooooooooo+++.***=O---------------------------",
"--------------------.+++++++++++++++ooooooooooooooooooooooooo+++.**==O--------------------------",
"-------------------- +++++++++++++oooooooooooooooooooooooooooo++.***=O--------------------------",
"-------------------.++++++++++++ooooooooooooooooooooooooooooooo++.**==O-------------------------",
"------------------- +o++++++++ooooooooooooooooooooooooooooooooo++.***=OX------------------------",
"------------------.+o+o+++o+oooooooooooooooooooooooooooooooooooo++.**O%X------------------------",
"------------------ o+o+o+o+ooooooooooooooooooooooooooooooooooooo++.**O%%X-----------------------",
"------------------ oooo+o+ooooooooooooooooooooooooooooooooooooooo++.O&@%X-----------------------",
"----------------- oooooo+ooooooooooooooooooooooooooooooooooooooooo++.&@oX++---------------------",
"----------------- oooooooooooooooooooooooooooooooooooooooooooooooo++.&&@X&&+--------------------",
"----------------- ooooooooooooooooooooooooooooooooooooooooooooooooo+.&&X&&+---------------------",
"---------------- oooooooooooooooooooooooooooooooooooooooooooooooooo+.$&$$$$o--------------------",
"---------------- ooooooooooooooooooooooooooooooooooooooooooooooooooo+.&$$$o-----##--------------",
"---------------- ooooooooooooooooooooooooooooooooooooooooooooooooooo+.$$$o------ =#-------------",
"--------------- oooooooooooooooooooooooooooooooooooooooooooooooooooo+.$$$$.----- =#-------------",
"--------------- oooooooooooooooooooooooooooooooooooooooooooooooooooooo$$o$$.---- ==#------------",
"--------------- oooooooooooooooooooooooooooooooooooooooooooooooooooooo.$$...---- ==#------------",
"-------------- ooooooooooooooooooooooooooooooooooooooooooooooooooooooo..$.------ ==#------------",
"-------------- ooooooooooooooooooooooooooooooooooooooooooooooooooooooo.o..------ ==#------------",
"--------------.ooooooooooooooooooooooooooooooooooooooooooooooooooooooo.o-------- ===#-----------",
"--------------.oooooo.oooooooooooooooooooooooooooooooooooooooooooooooo.o------- ====#-----------",
"-------------.ooooo..++o+oooooooooooooooooooooooooooooooooooooooooooo.++.------ ====#-----------",
"-------------.o....o++++o+ooooooooooooooooooooooooooooooooooooooooooo.+++.----- ====#-----------",
"-------------.o +++++++++oooooooooooooooooooooooooooooooooooooooooooo.+++.----- =====#----------",
"------------.ooo  +++++++oooooooooooooooooooooooooooooooooooooooooooo.++++.---- =====#----------",
"------------.ooooo  o+++ooooooooooooooooooooooooooooooooooooooooooooo+++++.--- ======#----------",
"------------.ooooo.++++oooooooooooooooooooooooooooo+o+.ooooooooooooooo++++.--- ======#----------",
"------------.oooo o++ooo.ooooooooooooooooooooooooo+o+o.oooooooooooooooo+++O--- ======#----------",
"----------- .oooo. ooo .ooooooooooooooooooooooooo+o+++.oooooooooooooooo++..-- ====*==#----------",
"----------- ooooooo  .oooooooooooooooooooooooooooo+++++.oooooooooooooooo+.=  #====*==#----------",
"-----------.ooooooooooooooooooooooooooooooooooooo++++++.oooooooooooooooo.*========*==#----------",
"---------- ooooooooooooooooooooooooooooooooooooooo++++++.ooooooooooooooo.========**==#----------",
"---------- oooooooooooooooooooooooooooooooooooooooo+++++.ooooooooooooo..*========**=O-----------",
"----------.oooooooooooooooooooooooooo.oooooooooooooo++++.ooooooooooo..o ========***= -----------",
"----------.oooooooooXoooooooooooooooo.oooooooooooooo+++++.ooooooooooooo =======****= -----------",
"---------.ooooooooooooooooooooooooooo.ooooooooooooooo++++.oooooooooXooo *====*****=O------------",
"---------.oooooooXoo.ooooooooooooooo.oooooooXoooooooo++++.ooooooooooooo **********= ------------",
"--------- oooooooXoo.Xoooooooooooooo.oooooooXooooooooo+++ oooooooooooooo ********=O-------------",
"--------- ooXoooooooo.oooooooooooooo ooXoooooooooooooo+++ oooooooooooXoo ********* -------------",
"--------- ooXooooooooo.ooooooooooooo ooXoooooooooooooX+++ oooo.ooooooooo ******** --------------",
"--------- ooooXoooooooo ooo+o+oooooo ooooooooooooooooX+++ ooo.oooooooXoo ******* ---------------",
"--------- ooooXooooooooo  oo+o+o+ooo oooooooooooooooooo+ oo..ooooooooooo  ****  ----------------",
"----------.oooooooooXooooo  o+o+o+oo oooXoooooooooooooo+ ..oooooooooXooo -    ------------------",
"---------- oooooooooXoooooo.  .o+o+o oooXooooooXooooooo+ oooXoooooooXoo ------------------------",
"---------- ooooooooooXooXoo.---     . oooXooooooooooXoo .oooXoooXoooooo ------------------------",
"----------- ooo+ooooooooXoo ------ .. oooXooooooooooXoo - ooooooXooooo -------------------------",
"----------- Xo+++ooooXoooo ------- .. oooooooooXooooooo - oooooooooooo -------------------------",
"------------.X+++++ooooooo -------- .. ooooooooooooooo --- oooXXoooo. --------------------------",
"-----------.+++++++++o++o ---------- . +ooooooo++o++oo --- .oo...o...O--------------------------",
"-----------....++.++..++o. ---------- ++o+++oo+++++++o.---- ......... --------------------------",
"------------  .+...+...+.. --------- ++.++++++o+++oo++o -----        ---------------------------",
"------------- ..........  -----------. .++.o++..++..   -----------------------------------------",
"--------------          -------------- .....+....+... ------------------------------------------",
"---------------------------------------  ..........  -------------------------------------------",
"-----------------------------------------         ----------------------------------------------",
"------------------------------------------------------------------------------------------------",
"------------------------------------------------------------------------------------------------",
"------------------------------------------------------------------------------------------------",
"------------------------------------------------------------------------------------------------",
"------------------------------------------------------------------------------------------------",
"------------------------------------------------------------------------------------------------",
"------------------------------------------------------------------------------------------------",
"------------------------------------------------------------------------------------------------",
"------------------------------------------------------------------------------------------------",
"------------------------------------------------------------------------------------------------",
"------------------------------------------------------------------------------------------------",
"------------------------------------------------------------------------------------------------",
"------------------------------------------------------------------------------------------------",
"------------------------------------------------------------------------------------------------"
};
