/* XPM */
static char *sprite_493_front[] = {
/* columns rows colors chars-per-pixel */
"96 96 16 1 ",
"  c #101010",
". c #394152",
"X c #5A5A62",
"o c #5A6273",
"O c #C50039",
"+ c #837300",
"@ c #009C00",
"# c #00E600",
"$ c #BDA418",
"% c #DEC539",
"& c #FFEE5A",
"* c #7B8394",
"= c #83838B",
"- c #B4B4BD",
"; c #E6E6EE",
": c None",
/* pixels */
"::::::::::::::::::::::::::::::::::::::::::::::::::::::::::::::::::::::::::::::::::::::::::::::::",
"::::::::::::::::::::::::::::::::::::::::::::::::::::::::::::::::::::::::::::::::::::::::::::::::",
"::::::::::::::::::::::::::::::::::::::::::::::::::::::::::::::::::::::::::::::::::::::::::::::::",
"::::::::::::::::::::::::::::::::::::::::::::::::::::::::::::::::::::::::::::::::::::::::::::::::",
"::::::::::::::::::::::::::::::::::::::::::::::::::::::::::::::::::::::::::::::::::::::::::::::::",
"::::::::::::::::::::::::::::::::::::::::::::::::::::::::::::::::::::::::::::::::::::::::::::::::",
"::::::::::::::::::::::::::::::::::::::::::::::::::::::::::::::::::::::::::::::::::::::::::::::::",
"::::::::::::::::::::::::::::::::::::::::::::::::::::::::::::::::::::::::::::::::::::::::::::::::",
"::::::::::::::::::::::::::::::::::::::::::::::::::::::::::::::::::::::::::::::::::::::::::::::::",
"::::::::::::::::::::::::::::::::::::::::::::::::::::::::::::::::::::::::::::::::::::::::::::::::",
"::::::::::::::::::::::::::::::::::::::::::::::::::::::::::::::::::::::::::::::::::::::::::::::::",
":::::::::::::::::::::::==:::::::::::::::::::::::::::::::::::::::::::::::::::::::::::::::::::::::",
"::::::::::::::::::::::=;=:::::::::::::::::::::::::::::::::::::::::::::::::::::::::::::::::::::::",
"::::::::::::::::::::::=;=:::::==::::::::::::::::::::::::::::::::::::::::::::::::::::::::::::::::",
":::::::::::::::::::::=;; :::: ;=::::::::::::::::::::::::::::::::::::::::::::::::::::::::::::::::",
":::::::::::::::::::::=;; :::: ; ::::::::::::::::::::::::::::::::::::::::::::::::::::::::::::::::",
"::::::::::::::::::::=;;;-=== =;  :::::::::::::::::::::::::::::::::::::::::::::::::::::::::::::::",
":::::::::::::::::::=;---;;;;=;; ;-XX::::::::::::======::::::::::::::::::::::::::::::::::::::::::",
"::::::::::::::::::=--;;;;;;=;;; ;;;;-XX:::::===-;;;;;;XXX:::::::::::::::::::::::::::::::::::::::",
":::::::::::::::::-;;;;;;;;=;;;; ;;;;;;;====-;;;;;;;;;;;;;XXX::::::::::::::::::::::::::::::::::::",
"::::::::::::::::-&$;;;;;==;;;;; ;;;;;;;;;;;;;;;;;-----;;;;;;; ::::::::::::::::::::::::::::::::::",
":::::::::::::::=&&$;;;;;;;;;;;; -oooo-;;;;;;;;--oooooo       :::::::::::::::::::::::::::::::::::",
":::::::::::::::-&$;;;;;;;  ;;;;..ooooooooo---ooooo  ::::::::::::::::::::::::::::::::::::::::::::",
"::::::::::::::=&&+;;;;; o ;;;; oo.....oooooooooo  ::::::::::::::::::::::::::::::::::::::::::::::",
"::::::::::::::=&&+;; O##. ;;;; ..oo      ooooo  ::::::::::::::::::::::::::::::::::::::::::::::::",
"::::::::::::::= oooo#O#@o ;;;;ooo; ::::::     ::::::::::::::::::::::::::::::::::::::::::::::::::",
":::::::::::::::: ....@@oo;;;; o-; ::::::::::::::::::::::::::::::::::::::::::::::::::::::::::::::",
"::::::::::::::::: -ooo##.;;;;o-;; ::::::::::::::::::::::::::::::::::::::::::::::::::::::::::::::",
":::::::::::::::::: -..## ;;; -;;X:::::::::::::::::::::::::::::::::::::::::::::::::::::::::::::::",
":::::::::::::::::: - o  ;;;-=;;;X:::::::::::::::::::::::::::::::::::::::::::::::::::::::::::::::",
":::::::::::::::::=---==;;-==;;;;:::::+++:::::++++:::+++:::::::::::::::::::::::::::::::::::::::::",
":::::::::::::::::===      -;;;;;X::::+&+:::++&&& :::+&&+::::::::::::::::::::::::::::::::::::::::",
":::::::::::::::::::::::::: ;;;;;-X:::+%%+:+%&&  :::::+&&+:::::::::++ :::::::::::::::::::::::::::",
":::::::::::::::::::::::::: ;;;;;;-X:::+%%+$%% ::::::::+&&&+::::::+&& :::::::::::::::::::::::::::",
":::::::::::::::::::::::::X-;;;;;;;;-XX+$$$$$ :::::::::: %&&+:::++&$ ::::::::::::::::::::::::::::",
":::::::::::::::::::::::XX-;;;;;;;;;;;; +#@$ :::::::::::: %&&+++&&$ :::::::::::::::::::::::::::::",
"::::::::::::::::::::::X---;;;;;;;;;;-- +##@ ::::::::::::: %%%%%%$ ::::::::::::::::::::::::::::::",
"::::::::::::::::::::::X-=;;;;-;;;;--X :+$#@ :::::::::::::: %##%$ :::::::::::::::::::::::::::::::",
":::::::::::::::::::::::X-;;;;-;;;--X :+$$$$$ :::::::::::::+##@% ::::::::::::::::::::::::::::::::",
":::::::::::::::::::::::=;;;;;;-;;-X- +$$+$$$$ :::::::::::+%#@@% ::::::::::::::::::::::::::::::::",
":::::::::::::::::::::::=;;;;;;-;;---XX$+:+$$$$+++++::::: %%%%%+::::::::::=====::::::::::::::::::",
"::::::::::::::::::::::=o;;;;;;-;;;;;;; ::: $++&&&&&%+:: %%$$$%% :::::::X=;;;;;;-  ::::::::::::::",
":::::::::::::::::::::=-o;;;;;--;;;;;;- :::++&&&&%%%$$++%%$$  %%+::::::X;;;;;**  ::::::::::::::::",
":::::::::::::::::::::=-o;;;;-=-;;;;-- +::+&&&%%%%%%%++%%$ ::: %$ :::XX;;;;**  ::::::::::::::::::",
"::::::::::::::::::::::=--;;--.-;;;-- $+::++++++++%%%%%%$ ::==+%% XXX;;;;*** ::::::::::::::::::::",
":::::::::::::::::::::::=o---.*;;;;- $+:  ;;;;;---++%%%$ :==;;;+%$ ;;;;;*** :::::::::::::::::::::",
"::::::::::::::::::::::::=o-..*;;;;- $+ ;;;;;;;;;;--+%%+==;;;;;+%$ ;;;;o** ::::::::::::::::::::::",
"::::::::::::::::::::::::: .*.*;;;;--XX;;;;;;;;;;;;--+%+;;;;;;;+%$ ;;;ooo* ::::::::::::::::::::::",
"::::::::::::::::::::::::: **.*;;;;;;;XX;;;;;;++++++++%%+;;;;;;+%%$;ooooo :::::::::::::::::::::::",
":::::::::::::::::::::::::**.**o;;;;;;;;;;;;++%&&&&&&%%%$+;;; oo+%$+ooooo :::::::::::::::::::::::",
":::::::::::::::::::::::: **.*oo;;;;;;X;;;;+%&&&&&%%%%$$$ ;;;; o+%$ oooo ::::::::::::::::::::::::",
":::::::::::::::::::::::: **.*oo;;=;;=X;;;;;+   $$$$$$$$$ ;;;;; +%$ oo  :::::::::::::::::::::::::",
"::::::::::::::::::::::== oo.ooo;=;;;;;=;;;;;---++     +$ ;;;;;;+%$   :::::::::::::::::::::::::::",
":::::::::::::::::::::=;; oo.ooo=;;;;;;; ;;;;;;;------+$$ ;;;;;;+%$ :::::::::::::::::::::::::::::",
"::::::::::::::::::::=;;; ooo.oo ;;;;;;;; ;;;;;;;;----+$$ ;;;;;;+%$; ::::::::::::::::::::::::::::",
"::::::::::::::::::::=;;-o oo.o ;;;;;;;;;; -;;;-------+$$ -;;;;;+%+;- :::::::::::::::::::::::::::",
":::::::::::::::::::::X;-o ooo. ;;;;;;---- -----------+$ --;;;;+%%+; ::::::::::::::::::::::::::::",
":::::::::::::::::::::X;-oo oo. ;;;;----  -----------+$$ -o;;;;+%%  :::::::::::::::::::::::::::::",
"::::::::::::::::::::::X--oo o ;;;;--   -------------$$+ o ;;-+$%$ ::::::::::::::::::::::::::::::",
"::::::::::::::::::::::: --o= ;;;;;-- ::XX----------+$$++o ---+%%$ ::::::::::::::::::::::::::::::",
":::::::::::::::::::::::: -==;;;;;-- $ :::XX------ + $$$+o ---+%%+ ::::::::::::::::::::::::::::::",
":::::::::::::::::::::::::==;;;;;;- $$ :::+$      X== $$$ ----+%$+- :::::::::::::::::::::::::::::",
"::::::::::::::::::::::::: ;;;;;;--  $$ :+$$ :::::X=== $$+----+%+;; :::::::::::::::::::::::::::::",
"::::::::::::::::::::::::: ;;;;;;- = $$++$$ :::::X===== %$ --+%% ;; :::::::::::::::::::::::::::::",
":::::::::::::::::::::::: ;;;;;;-==- +$$$$ ::::::X===== %%$ -+%$ =;; ::::::::::::::::::::::::::::",
":::::::::::::::::::::::= ;;;;-==;- :+##$$ ::::::: ===== %%$+%% ;=;; ::::::::::::::::::::::::::::",
"::::::::::::::::::::::=;=;;;;;;;;- :+$##+:::::::::  ==  %##%%% ;=;;;=:::::::::::::::::::::::::::",
"::::::::::::::::::::::=;=;;-;;;;- :+$$$$$ ::::::::X=  = %@##%+--=;;;;=::::::::::::::::::::::::::",
"::::::::::::::::::::::=;;;=;;;;;- +%%  $$ ::::::::X====+%%@@% --=;;;;;=:::::::::::::::::::::::::",
":::::::::::::::::::::::=;;=;;;;- :+% ::+%% :::::::: ==+%%%%%% =--=;;;;;=::::::::::::::::::::::::",
":::::::::::::::::::::::=;;;;;;;X :+ ::::+%% :::::::: +%%%  %% ;=--=;;;;;=:::::::::::::::::::::::",
":::::::::::::::::::::::=;;;;;;X- ::::::::+% ::::::::+%%% == %% ;;--;;;;;=:::::::::::::::::::::::",
":::::::::::::::::::::::=+;;;;X--- ::::::::  :::::::+%%+ === +%% ;;;;;;;;=:::::::::::::::::::::::",
":::::::::::::::::::::::+&+;;;X--- :::::::::::::::::+   +==== %% : ;++;;; :::::::::::::::::::::::",
":::::::::::::::::::::::+&+;;X---- ::::::::::::::::::::: +===  % :: $$+;; :::::::::::::::::::::::",
":::::::::::::::::::::::+&+;;X%-- :::::::::::::::::::::: ++== : :::: $$+; :::::::::::::::::::::::",
"::::::::::::::::::::::+&&+;;X+%- :::::::::::::::::::::: ++= :::::::+$$$+ :::::::::::::::::::::::",
"::::::::::::::::::::::+&%+;X:+% ::::::::::::::::::::::: ++ :::::::::+%$+ :::::::::::::::::::::::",
"::::::::::::::::::::::+&%+;X:+% ::::::::::::::::::::::: ++ :::::::::+%%+ :::::::::::::::::::::::",
":::::::::::::::::::::+%%+;X::++:::::::::::::::::::::::: + ::::::::::+&&+ :::::::::::::::::::::::",
":::::::::::::::::::::+%%+ :::::::::::::::::::::::::::::  ::::::::::::+& ::::::::::::::::::::::::",
":::::::::::::::::::::+%$ ::::::::::::::::::::::::::::::::::::::::::::+& ::::::::::::::::::::::::",
"::::::::::::::::::::+%$ ::::::::::::::::::::::::::::::::::::::::::::: & ::::::::::::::::::::::::",
"::::::::::::::::::::+  ::::::::::::::::::::::::::::::::::::::::::::::  :::::::::::::::::::::::::",
"::::::::::::::::::::::::::::::::::::::::::::::::::::::::::::::::::::::::::::::::::::::::::::::::",
"::::::::::::::::::::::::::::::::::::::::::::::::::::::::::::::::::::::::::::::::::::::::::::::::",
"::::::::::::::::::::::::::::::::::::::::::::::::::::::::::::::::::::::::::::::::::::::::::::::::",
"::::::::::::::::::::::::::::::::::::::::::::::::::::::::::::::::::::::::::::::::::::::::::::::::",
"::::::::::::::::::::::::::::::::::::::::::::::::::::::::::::::::::::::::::::::::::::::::::::::::",
"::::::::::::::::::::::::::::::::::::::::::::::::::::::::::::::::::::::::::::::::::::::::::::::::",
"::::::::::::::::::::::::::::::::::::::::::::::::::::::::::::::::::::::::::::::::::::::::::::::::",
"::::::::::::::::::::::::::::::::::::::::::::::::::::::::::::::::::::::::::::::::::::::::::::::::",
"::::::::::::::::::::::::::::::::::::::::::::::::::::::::::::::::::::::::::::::::::::::::::::::::",
"::::::::::::::::::::::::::::::::::::::::::::::::::::::::::::::::::::::::::::::::::::::::::::::::",
"::::::::::::::::::::::::::::::::::::::::::::::::::::::::::::::::::::::::::::::::::::::::::::::::",
"::::::::::::::::::::::::::::::::::::::::::::::::::::::::::::::::::::::::::::::::::::::::::::::::"
};
