/* XPM */
static char *sprite_210_back[] = {
/* columns rows colors chars-per-pixel */
"96 96 8 1 ",
"  c #101010",
". c #62395A",
"X c #39414A",
"o c #6A7373",
"O c #8B5A83",
"+ c #AC83AC",
"@ c #D5ACD5",
"# c None",
/* pixels */
"################################################################################################",
"################################################################################################",
"################################################################################################",
"################################################################################################",
"################################################################################################",
"################################################################################################",
"################################################################################################",
"################################################################################################",
"################################################################################################",
"################################################################################################",
"################################################################################################",
"################################################################################################",
"################################################################################################",
"################################################################################################",
"################################################################################################",
"################################################################################################",
"################################################################################################",
"################################################################################################",
"################################################################################################",
"################################################################################################",
"################################################################################################",
"###############################....######################.....##################################",
"#############################..@@@@...###############....@@@@@..################################",
"############################.@@@@@@@@@..####OOOOOO#..@@@@@@@@+++ ###############################",
"###########################.++@@@@@@@@@@..OO@@@@@@.@@@@@@@@++..+ ###############################",
"###########################.++++@@@@@@@@@O@@@@@@@+@@@@@@++++.OO.+ ##############################",
"########################## ++++++++++@@@@@@@@@@@@@@@++++++++.OOO+ ##############################",
"########################## ++++++++++++++@@@@@@@+++++++++++.OOOO++ #############################",
"######################### +++++++++++..++++++++++++++++++++.OOOOO+ #############################",
"######################### +++++++++   ++++++++++.+++++++++.    OO+ #############################",
"######################### ++++++   ## +++++++++++..+++++++ ##O@   ##############################",
"######################### +++   #### ++++++++++++++..+++++ ##O@O################################",
"##########################   ####### ++++++++++++++++...++ #O+@O################################",
"#################################### +++++++++++++++++++. @.O+@@O###############################",
"################################### +++++++++++++++++++++@@.++@@O###############################",
"################################### ++++++++++++++++++++++@@.@@@O###############################",
"################################### ++++++++++++++++++++++@@.@@@O###############################",
"################################### +++++++++++++++++++++++@@O@ ################################",
"#################################### +++++++++++++++++++++++@@@ ################################",
"#################################### ++++        ++++++++++++@.#################################",
"##################################### +  oooooooo   ++++++++++ #################################",
"###################################### oo       XXXX  +++++++ ##################################",
"######################################.  @@@@@@@@   XX ++++  ###################################",
"####################################..@@@@@@@@@@@@@++   +. #####################################",
"###################################.+@@@@@@@@@@@@@+++++  #######################################",
"#################################..+.@@@@@@@@@@@+++++++++.####OOO###############################",
"################################.++.++@@@@@@@+++++++++++++.#..@@..O#############################",
"##############################..+++.+++++++++++++++++++++@..@O@O@@O.############################",
"#############################.++++.++++++++++++++++++++++@@.XXX@@@+.############################",
"############################.+++++ +++++++++++++++++.+++@@@@.ooX ++ ############################",
"############################ +++++ ++++++++++++++++++.+++@@@.XXoX + ############################",
"############################ ++++ +++++++++++++++++++ +++@@@@.@XXX #############################",
"############################# +++ ++++++++++++++++++++ +++@@@@@@XX #############################",
"############################## . +++++++++++++++++++++ +++++@@@+XX #############################",
"################################ ++++++++++++++++++++++ ++++++++X ##############################",
"################################ ++++++++++++++++++++++. ++++++  ###############################",
"############################### ++++++++++++++++++++++++. .++  #################################",
"############################## +++++++++++++++++++++++++.#   ###################################",
"##############################.++.+++++++++++++++++++++@@.######################################",
"#############################.+..+++++++++++++++++++++@@@@.#####################################",
"##########################.....@@+++++++++++++++++++++@@@@.#####################################",
"#########################.@@@@@@@@++++++++++++++++++++@@@@@.####################################",
"#########################.@@@@@@@++++++++++++++++++++++@@@@.####################################",
"########################## +@@@+++++++++++++++++++++++++@@@.####################################",
"###########################  ++++++++++++.+++++++++++++++@+.####################################",
"############################.   +++++  ..+++++++++++++++++ #####################################",
"############################.OOO     OOOOOO+++++++++++++++ #####################################",
"#############################.OOOOOOOOOO  ..O++++++++++++ ######################################",
"#############################.+++OOOOO .#####.  +++++++ .#######################################",
"############################.++++++   ########## +++++++.#######################################",
"###########################.++++++.@@O######### .+++++++@.O#####################################",
"###########################.+++++++@@@O######## +++++++@@@@O####################################",
"############################  ++++++   ######## +++++++++@@ ####################################",
"##############################      ############   ++++++++ ####################################",
"###################################################        #####################################",
"################################################################################################",
"################################################################################################",
"################################################################################################",
"################################################################################################",
"################################################################################################",
"################################################################################################",
"################################################################################################",
"################################################################################################",
"################################################################################################",
"################################################################################################",
"################################################################################################",
"################################################################################################",
"################################################################################################",
"################################################################################################",
"################################################################################################",
"################################################################################################",
"################################################################################################",
"################################################################################################",
"################################################################################################",
"################################################################################################",
"################################################################################################"
};
