/* XPM */
static char *sprite_370_front[] = {
/* columns rows colors chars-per-pixel */
"96 96 13 1 ",
"  c black",
". c #733931",
"X c #A46A52",
"o c #314AAC",
"O c #295AF6",
"+ c #C5738B",
"@ c #E6739C",
"# c #F694B4",
"$ c #F683C5",
"% c #E6ACDE",
"& c #FFC5D5",
"* c white",
"= c None",
/* pixels */
"================================================================================================",
"================================================================================================",
"================================================================================================",
"================================================================================================",
"================================================================================================",
"================================================================================================",
"================================================================================================",
"================================================================================================",
"================================================================================================",
"================================================================================================",
"================================================================================================",
"================================================================================================",
"================================================================================================",
"================================================================================================",
"================================================================================================",
"================================================================================================",
"================================================================================================",
"================================================================================================",
"================================================================================================",
"================================================================================================",
"================================================================================================",
"================================================================================================",
"================================================================================================",
"================================================================================================",
"================================================================================================",
"================================================================================================",
"================================================================================================",
"================================================================================================",
"================================================================================================",
"================================================================================================",
"================================================================================================",
"================================================XXXX.===========================================",
"==============================================XX&&&&&  =========================================",
"=============================================X&&&&##### ========================================",
"============================================X&&&##@@@@@# =======================================",
"============================================X&&##@@@@@@@+ ======================================",
"===========================================X&&&#@@@@@@@@@ ======================================",
"===========================================X&&#@@@@@@@@@@ ======================================",
"==========================================X&&&#@@@@@@@@@@@ =====================================",
"==========================================X&&#@@@@@@@@@@@@ =====================================",
"==========================================X&&#@@@@@@@@@@@@ =====================================",
"=========================================X&&#@@@@@@@@@@@@@ =====================================",
"=========================================X&&#@@@@@@@@@@@@@ =====================================",
"=========================================X&#@@@@@@@@@@@@@@ =====================================",
"========================================X&&#@XoX@@@@@@@@@@ =====================================",
"========================================X&&#@o*o@@@@@@@@@ ======================================",
"=======================================X&&#@@O* @@@@@@@@@ ======================================",
"=======================================X&&#@@   @@@@@@@@@ ======================================",
"======================================X**%@@@+ +@%%$@@@@ =======================================",
"=====================================X**%%%@@@@@%%%%@@@@ =======================================",
"=====================================X+++%%%@@@@%%%%@@@## ======================================",
"=====================================.%%%%%%@@@@%%%%@@### ======================================",
"======================================.%%%%@@@@@$%%@@@### ======================================",
"=======================================.%%@@@@@@@@@@@@###@ =====================================",
"========================================.##@@@@@@@@@@@#### =====================================",
"=========================================.##@@@@@@@@@@@### =====================================",
"==========================================.##@@@@@@@@@@### =====================================",
"==========================================..#@@@@@@@@@@@## =====================================",
"=========================================== ##@@@@@@@@@@@@ =====================================",
"============================================ ##@@@@@@@@@@@ =====================================",
"============================================..##@@@@@@@@@ ======================================",
"============================================= @##@@@@@@@@ ======================================",
"==============================================  ##@@@@@@ =======================================",
"================================================  ####  ========================================",
"==================================================    ==========================================",
"================================================================================================",
"================================================================================================",
"================================================================================================",
"================================================================================================",
"================================================================================================",
"================================================================================================",
"================================================================================================",
"================================================================================================",
"================================================================================================",
"================================================================================================",
"================================================================================================",
"================================================================================================",
"================================================================================================",
"================================================================================================",
"================================================================================================",
"================================================================================================",
"================================================================================================",
"================================================================================================",
"================================================================================================",
"================================================================================================",
"================================================================================================",
"================================================================================================",
"================================================================================================",
"================================================================================================",
"================================================================================================",
"================================================================================================",
"================================================================================================",
"================================================================================================",
"================================================================================================",
"================================================================================================",
"================================================================================================"
};
