/* XPM */
static char *sprite_397_back[] = {
/* columns rows colors chars-per-pixel */
"96 96 12 1 ",
"  c #101010",
". c #393139",
"X c #7B4120",
"o c #52394A",
"O c #5A525A",
"+ c #735A62",
"@ c #BD6200",
"# c #FF9429",
"$ c #9C838B",
"% c #B4B4B4",
"& c white",
"* c None",
/* pixels */
"************************************************************************************************",
"************************************************************************************************",
"************************************************************************************************",
"************************************************************************************************",
"************************************************************************************************",
"************************************************************************************************",
"************************************************************************************************",
"************************************************************************************************",
"************************************************************************************************",
"************************************************************************************************",
"************************************************************************************************",
"************************************************************************************************",
"************************************************************************************************",
"************************************************************************************************",
"************************************************************************************************",
"************************************************************************************************",
"************************************************************************************************",
"************************************************************************************************",
"************************************************************************************************",
"************************************************************************************************",
"************************************************************************************************",
"************************************************************************************************",
"************************************************************************************************",
"************************************************.....*******************************************",
"***********************************************.OOOOO.******************************************",
"**********************************************.OOOOOOO.*****************************************",
"**********************************************.OOOO .OO.****************************************",
"*********************************************.OOOO **.O.****************************************",
"*********************************************.OOO *** O.****************************************",
"*********************************************.OOO *** .*****************************************",
"********************************************* OOOO *********************************************",
"********************************************* OOOOO ********************************************",
"********************************************** OOOOO.O******************************************",
"********************************************** OOOOOO$OO****************************************",
"*********************************************.OOOOOOOO$$.***************************************",
"*********************************************.OOOOOOOO%O$.**************************************",
"********************************************.OOOOOOOOO%&OO.*************************************",
"********************************************.OOOOOOOO..&O%.*************************************",
"******************************************** OOOOOOO....& %XX..*********************************",
"******************************************* .OOOOO......%O&X#OO.********************************",
"******************************************* ............O&X##.  ********************************",
"******************************************* ............O%%  X**********************************",
"******************************************* ...........O%%% ************************************",
"****************************OO************* ...........%%O%.************************************",
"***************************O&&O***********. .............OO%.***********************************",
"***************************O&&& ********.. ...............OO.***********************************",
"**************************O%&&&% .*****.O.OOOO.....  .OOOO.O.***********************************",
"*************************.O&&&&&OO..**.O.OOOOOO... .OOOOOOO O.**********************************",
"*************************.O&&&&&OOOO .. OOOOOOO.. OOOOOOOOO ..**********************************",
"************************.OO%&&&&OOOO    OOOOOO.. OO+..OOOOO. .**********************************",
"************************.OO.&&&&%OOO OOO OOOO.. O.+$$.OOOOO.  **********************************",
"***********************  OO.&&&&&OOO OOOO O... .O$$$+.OOOO.. ***********************************",
"***********************  OO.&&&&&OOO.OOOO .... $$$$$.OOOOO.. ***********************************",
"*********************** ..OO.&&&&%OOO OOO ... $$$$$$.OOO.... ***********************************",
"*********************** . OO.&&&&&OOO OOOO .. $$$$$+OO..+... ***********************************",
"*********************** ..OOO.&&&&.OO.OOOO . +$$$$$...$$$.. ************************************",
"************************ . OO.%&&&.OOO OO. . $$$$$$$$$$$+.. ************************************",
"************************ .. OO.&&&%OOO ... . OO$$$$$$$$+++. ************************************",
"************************* ...OO &&&OO.....  ....O$$$$+++++ *************************************",
"************************** ......%%%...     .......++++++ **************************************",
"***************************  .... %%.. .... ........++++ ***************************************",
"***************************** .....%%.. ....  .......++ ****************************************",
"******************************  ....%...  .... ...... o*****************************************",
"********************************   .......  ......   *******************************************",
"***********************************   ......      **********************************************",
"*************************************.      .++o++o*********************************************",
"*************************************.XX.**** .X...*********************************************",
"**************************************.X.**** XX.***********************************************",
"**************************************.XX....* @@.**********************************************",
"************************************* .@@XXX@.. @@.....*****************************************",
"************************************ @@@@@..... @X@@XX#  ***************************************",
"*********************************** ..X.  **** O@@####. O **************************************",
"***********************************   ******* OO.X  .  O. **************************************",
"*********************************************   *******   **************************************",
"************************************************************************************************",
"************************************************************************************************",
"************************************************************************************************",
"************************************************************************************************",
"************************************************************************************************",
"************************************************************************************************",
"************************************************************************************************",
"************************************************************************************************",
"************************************************************************************************",
"************************************************************************************************",
"************************************************************************************************",
"************************************************************************************************",
"************************************************************************************************",
"************************************************************************************************",
"************************************************************************************************",
"************************************************************************************************",
"************************************************************************************************",
"************************************************************************************************",
"************************************************************************************************",
"************************************************************************************************",
"************************************************************************************************",
"************************************************************************************************"
};
