/* XPM */
static char *sprite_192_front[] = {
/* columns rows colors chars-per-pixel */
"96 96 12 1 ",
"  c #101010",
". c #526229",
"X c #DE3900",
"o c #835A10",
"O c #73AC31",
"+ c #DEA418",
"@ c #EECD08",
"# c #FFF610",
"$ c #9CD54A",
"% c #E6DE5A",
"& c #FFFFA4",
"* c None",
/* pixels */
"************************************************************************************************",
"************************************************************************************************",
"************************************************************************************************",
"************************************************************************************************",
"************************************************************************************************",
"************************************************************************************************",
"************************************************************************************************",
"************************************************************************************************",
"************************************************************************************************",
"************************************************************************************************",
"************************************************************************************************",
"************************************************************************************************",
"************************************************************************************************",
"************************************************************************************************",
"************************************************************************************************",
"************************************************************************************************",
"************************************************************************************************",
"************************************************************************************************",
"************************************************************************************************",
"************************************************************************************************",
"************************************************************************************************",
"************************************************************************************************",
"************************************************************************************************",
"************************************************************************************************",
"******************************************oo ***************************************************",
"****************************************oo## **ooo**********************************************",
"***********************************oo**o#### *o++o**********************************************",
"***********************************o+o #####@ +++o**********************************************",
"***********************************o++ ###@@@@oo   *********************************************",
"***********************************o  ###@@@@@o####oo ******************************************",
"*********************************oo## @##@@@@o####### ******************************************",
"******************************** #### @@@@@@@o####### ******************************************",
"******************************** ##@@@ @ooooo##@@#### ******************************************",
"******************************ooo #@@@oo&&&&%oo@@@@@ ooo****************************************",
"******************************o+o @@@o+&&&&&&%%o@@@@ ++o****************************************",
"******************************oo## @o+&&&&&&&%+%o@  o+oo****************************************",
"*******************************o###o& &&&&&  +%%%o###oo*****************************************",
"***************************** o###@o & &&& &+ %%%o####o*****************************************",
"***************************** ###@o&+&o&& &&+%%%o@@@###o ***************************************",
"****************************** ##@o&o&&&&&&o %%%o@@@@@#@ ***************************************",
"******************************* @@o&+  oo   +o%%o@@@@@@ **** ***********************************",
"******************************* @@o%+ XXXXo%+%%%o@@@@@ ****.$ **********************************",
"******************************o+  o%+% XXXX%+%%%% @@@@ ****.$ **********************************",
"******************************o+o#o%+%%ooo%%+%%%%% @@ o***.$O$.*********************************",
"**************************.***oo ##o+%%%%%%%%+%%%    +o***.$.$ *********************************",
"*************************.$.*** @#@o%+%%%%%%%+%oo### ++o* OO.$$.********************************",
"*************************.$.*** @@@@o+%%%%%%%%o@####@ +o OOO$$$.********************************",
"*************************.$$.**   @@@ +%%%%%%o@@##@@@   OOO.$$$ ********************************",
"*************************.$$$...** @@@  %%%%% @@@@@@oOOOOO.$$$$ ********************************",
"*************************.$$O$$$..o   @@oo   @ @@@@@ OO...$$$$.*********************************",
"**************************.$$O$$$$o++ @@@@@@@@o  @@@ ..$$$$$$$ *********************************",
"**************************.$$$..$$ooo ###@@@@@ ++o  .OO$$$$$$ **********************************",
"***************************.$$$$...OOO ##@@@@ ++oOOOOOOO$$$$ ***********************************",
"**************************** $$$$$OOOOO ##@@ oo+oO   OOOOO  ************************************",
"*****************************  $OOOOOOOO  @@ $$oO O *.   .**************************************",
"*******************************.  OOOOO. *  $$$$OOOO *******************************************",
"**********************************.   .****.$$$$$OOO *******************************************",
"******************************************.$$$$$$$OOO ******************************************",
"******************************************.$$$$$$$OOO ******************************************",
"******************************************.$$$$$$$OOO ******************************************",
"******************************************.O$$$$$OOOO ******************************************",
"******************************************* O$$$OOOO *******************************************",
"********************************************  OOOOO. *******************************************",
"**********************************************  .  O  ****...***********************************",
"********************************************** O ** OO   .OOO..*********************************",
"********************************************* .O ** OOOOOOO..OO.********************************",
"**************************************....   OOO *** .OOOOOOO.O.********************************",
"************************************..$$OO$$$OO.******    .OO O ********************************",
"***********************************.$$..OO$$$$O ***********    *********************************",
"*********************************** $ $$$$$.   *************************************************",
"************************************  $$   *****************************************************",
"**************************************  ********************************************************",
"************************************************************************************************",
"************************************************************************************************",
"************************************************************************************************",
"************************************************************************************************",
"************************************************************************************************",
"************************************************************************************************",
"************************************************************************************************",
"************************************************************************************************",
"************************************************************************************************",
"************************************************************************************************",
"************************************************************************************************",
"************************************************************************************************",
"************************************************************************************************",
"************************************************************************************************",
"************************************************************************************************",
"************************************************************************************************",
"************************************************************************************************",
"************************************************************************************************",
"************************************************************************************************",
"************************************************************************************************",
"************************************************************************************************",
"************************************************************************************************",
"************************************************************************************************",
"************************************************************************************************"
};
