/* XPM */
static char *sprite_352_front[] = {
/* columns rows colors chars-per-pixel */
"96 96 15 1 ",
"  c black",
". c #41625A",
"X c #8B7B5A",
"o c #5A9473",
"O c #5ABD73",
"+ c #BDA452",
"@ c #DEC55A",
"# c #C5DE7B",
"$ c #F6EE7B",
"% c #A44183",
"& c #D562AC",
"* c #7BD583",
"= c #A4EE9C",
"- c white",
"; c None",
/* pixels */
";;;;;;;;;;;;;;;;;;;;;;;;;;;;;;;;;;;;;;;;;;;;;;;;;;;;;;;;;;;;;;;;;;;;;;;;;;;;;;;;;;;;;;;;;;;;;;;;",
";;;;;;;;;;;;;;;;;;;;;;;;;;;;;;;;;;;;;;;;;;;;;;;;;;;;;;;;;;;;;;;;;;;;;;;;;;;;;;;;;;;;;;;;;;;;;;;;",
";;;;;;;;;;;;;;;;;;;;;;;;;;;;;;;;;;;;;;;;;;;;;;;;;;;;;;;;;;;;;;;;;;;;;;;;;;;;;;;;;;;;;;;;;;;;;;;;",
";;;;;;;;;;;;;;;;;;;;;;;;;;;;;;;;;;;;;;;;;;;;;;;;;;;;;;;;;;;;;;;;;;;;;;;;;;;;;;;;;;;;;;;;;;;;;;;;",
";;;;;;;;;;;;;;;;;;;;;;;;;;;;;;;;;;;;;;;;;;;;;;;;;;;;;;;;;;;;;;;;;;;;;;;;;;;;;;;;;;;;;;;;;;;;;;;;",
";;;;;;;;;;;;;;;;;;;;;;;;;;;;;;;;;;;;;;;;;;;;;;;;;;;;;;;;;;;;;;;;;;;;;;;;;;;;;;;;;;;;;;;;;;;;;;;;",
";;;;;;;;;;;;;;;;;;;;;;;;;;;;;;;;;;;;;;;;;;;;;;;;;;;;;;;;;;;;;;;;;;;;;;;;;;;;;;;;;;;;;;;;;;;;;;;;",
";;;;;;;;;;;;;;;;;;;;;;;;;;;;;;;;;;;;;;;;;;;;;;;;;;;;;;;;;;;;;;;;;;;;;;;;;;;;;;;;;;;;;;;;;;;;;;;;",
";;;;;;;;;;;;;;;;;;;;;;;;;;;;;;;;;;;;;;;;;;;;;;;;;;;;;;;;;;;;;;;;;;;;;;;;;;;;;;;;;;;;;;;;;;;;;;;;",
";;;;;;;;;;;;;;;;;;;;;;;;;;;;;;;;;;;;;;;;;;;;;;;;;;;;;;;;;;;;;;;;;;;;;;;;;;;;;;;;;;;;;;;;;;;;;;;;",
";;;;;;;;;;;;;;;;;;;;;;;;;;;;;;;;;;;;;;;;;;;;;;;;;;;;;;;;;;;;;;;;;;;;;;;;;;;;;;;;;;;;;;;;;;;;;;;;",
";;;;;;;;;;;;;;;;;;;;;;;;;;;;;;;;;;;;;;;;;;;;;;;;;;;;;;;;;;;;;;;;;;;;;;;;;;;;;;;;;;;;;;;;;;;;;;;;",
";;;;;;;;;;;;;;;;;;;;;;;;;;;;;;;;;;;;;;;;;;;;;;;;;;;;;;;;;;;;;;;;;;;;;;;;;;;;;;;;;;;;;;;;;;;;;;;;",
";;;;;;;;;;;;;;;;;;;;;;;;;;;;;;;;;;;;;;;;;;;;;;;;;;;;;;;;;;;;;;;;;;;;;;;;;;;;;;;;;;;;;;;;;;;;;;;;",
";;;;;;;;;;;;;;;;;;;;;;;;;;;;;;;;;;;;;;;;;;;;;;;;;;;;;;;;;;;;;;;;;;;;;;;;;;;;;;;;;;;;;;;;;;;;;;;;",
";;;;;;;;;;;;;;;;;;;;;;;;;;;;;;;;;;;;;;;;;;;;;;;;;;;;;;;;;;;;;;;;;;;;;;;;;;;;;;;;;;;;;;;;;;;;;;;;",
";;;;;;;;;;;;;;;;;;;;;;;;;;;;;;;;;;;;;;;;;;;;;;;;;;;;;;;;;;;;;;;;;;;;;;;;;;;;;;;;;;;;;;;;;;;;;;;;",
";;;;;;;;;;;;;;;;;;;;;;;;;;;;;;;;;;;;;;;;;;;;;;;;;;;;;;;;;;;;;;;;;;;;;;;;;;;;;;;;;;;;;;;;;;;;;;;;",
";;;;;;;;;;;;;;;;;;;;;;;;;;;;;;;;;;;;;;;;;;;;;;;;;;;;;;;;;;;;;;;;;;;;;;;;;;;;;;;;;;;;;;;;;;;;;;;;",
";;;;;;;;;;;;;;;;;;;;;;;;;;;;;;;;;;;;;;;;;;;;;;;;;;;;;;;;;;;;;;;;;;;;;;;;;;;;;;;;;;;;;;;;;;;;;;;;",
";;;;;;;;;;;;;;;;;;;;;;;;;;;;;;;;;;;;;;;;;;;;;;;;;;;;;;;;;;;;;;;;;;;;;;;;;;;;;;;;;;;;;;;;;;;;;;;;",
";;;;;;;;;;;;;;;;;;;;;;;;;;;;;;;;;;;;;;;;;;;;;XX;;;;;;;;;;;;;;;;;;;;;;;;;;;;;;;;;;;;;;;;;;;;;;;;;",
";;;;;;;;;;;;;;;;;;;;;;;;;;;;;;;;;;;;;. ;;;. ;X$X;;;;++X;;;;;;;;;;;;;;;;;;;;;;;;;;;;;;;;;;;;;;;;;",
";;;;;;;;;;;;;;;;;;;;;;;;;;;;;;;;;;;;;.O ;;.o X$@X;++$@ ;;;;;;;;;;;;;;;;;;;;;;;;;;;;;;;;;;;;;;;;;",
";;;;;;;;;;;;;;;;;;;;;;;;;;;;;;;;;X..;.Oo ;.oX$@@@X$$@@ ;;;;;;;;;;;;;;;;;;;;;;;;;;;;;;;;;;;;;;;;;",
";;;;;;;;;;;;;;;;;;;;;;;;;;;;;;;;;X@O..ooo ooX$@@@@@@@XX;;;;;;;;;;;;;;;;;;;;;;;;;;;;;;;;;;;;;;;;;",
";;;;;;;;;;;;;;;;;;;;;;;;;;;;;;;;;;X@OOOoooooX$@o.@@@@ ++++;;;;;;;;;;;;;;;;;;;;;;;;;;;;;;;;;;;;;;",
";;;;;;;;;;;;;;;;;;;;;;;;;;;;;;;;;;X$@oooooooX$@oO.@@@@$$$ ;;;;;;;;;;;;;;;;;;;;;;;;;;;;;;;;;;;;;;",
";;;;;;;;;;;;;;;;;;;;;;;;;;;;;;;;;;;X$ooooooX$@@oOO.@@@@@@ ;;;;;;;;;;;;;;;;;;;;;;;;;;;;;;;;;;;;;;",
";;;;;;;;;;;;;;;;;;;;;;;;;;;;;;;;;;;X$$oooooX$@@oOOO.@@@@ ;;;;;;;;;;;;;;;;;;;;;;;;;;;;;;;;;;;;;;;",
";;;;;;;;;;;;;;;;;;;;;;;;;;;;;;;;;;;;X$@oo..X$@oOOOO.@@+ XXX ;;;;;;;;;;;;;;;;;;;;;;;;;;;;;;;;;;;;",
";;;;;;;;;;;;;;;;;;;;;;;;;;;;;;;;;;;;X$$.oO#$$@oOOOOO.+++@@@ ;;;;;;;;;;;;;;;;;;;;;;;;;;;;;;;;;;;;",
";;;;;;;;;;;;;;;;;;;;;;;;;;;;;;;;;;;;X$X***#$$@oOOOOO.+++++ ;;;;;;;;;;;;;;;;;;;;;;;;;;;;;;;;;;;;;",
";;;;;;;;;;;;;;;;;;;;;;;;;;;;;;;;;;;X$X@*==#$$@**OOOOO.+++ ;;;;;;;;;;;;;;;;;;;;;;;;;;;;;;;;;;;;;;",
";;;;;;;;;;;;;;;;;;;;;;;;;;;;;;;;;;X$$@===#$$$$$$@*OOO.++++ ;;;;;;;;;;;;;;;;;;;;;;;;;;;;;;;;;;;;;",
";;;;;;;;;;;;;;;;;;;;;;;;;;;;;;;;;;X$@==#$$$$$$@@$@*OO.+++++ ;;;;;;;;;;;;;;;;;;;;;;;;;;;;;;;;;;;;",
";;;;;;;;;;;;;;;;;;;;;;;;;;;;;;;;;X$$=#$$$$#$$@***@@OOO.++  ;;;;;;;;;;;;;;;;;;;;;;;;;;;;;;;;;;;;;",
";;;;;;;;;;;;;;;;;;;;;;;;;;;;;;;;;X$$$$$$===$@=o o*@+OO.+ ;;;;;;;;;;;;;;;;;;;;;;;;;;;;;;;;;;;;;;;",
";;;;;;;;;;;;;;;;;;;;;;;;;;;;;;;;X$$$$$=====$@* - *@+OO. ;;;;;;;;;;;;;;;;;;;;;;;;;;;;;;;;;;;;;;;;",
";;;;;;;;;;;;;;;;;;;;;;;;;;;;;;;;X$$$**====*$@* - O@+OO ;;;;;;;;;;;;;;;;;;;;;;;;;;;;;;;;;;;;;;;;;",
";;;;;;;;;;;;;;;;;;;;;;;;;;;;;;;;X$$#*******@$@O oO@+OO ;;;;;;;;;;;;;;;;;;;;;;;;;;;;;;;;;;;;;;;;;",
";;;;;;;;;;;;;;;;;;;;;;;;;;;;;;;X$$$$$@#*****@$@OO@@+O ;;;;;;;;;;;;;;;;;;;;;;;;;;;;;;;;;;;;;;;;;;",
";;;;;;;;;;;;;;;;;;;;;;;;;;;;;;; XXXXX$$$$$#**@@@@@+OO ;;;;;;;;;;;;;;;;;;;;;;;;;;;;;;;;;;;;;;;;;;",
";;;;;;;;;;;;;;;;;;;;;;;;;;;;;;; +++++XXXXX@@@*O+++OO ;;;;;;;;;;;;;;;;;;;;;;;;;;;;;;;;;;;;;;;;;;;",
";;;;;;;;;;;;;;;;;;;;;;;;;;;;;;;;  ooo+++++XXX@@OOOOo ;;;;;;;;;;;;;;;;;;;;;;;;;;;;;;;;;;;;;;;;;;;",
";;;;;;;;;;;;;;;;;;;;;;;;;;;;;;;;;;  oooooo+++XX+Ooo ;;;;;;;;;;;;;;;;;;;;;;;;;;;;;;;;;;;;;;;;;;;;",
";;;;;;;;;;;;;;;;;;;;;;;;;;;;;;;;;;;;   oooooo++oo. ;;;;;;;;;;;;;;;;;;;;;;;;;;;;;;;;;;;;;;;;;;;;;",
";;;;;;;;;;;;;;;;;;;;;;;;;;;;;;;;;;;;;;;   oooooo. ;;;;;;;;;;;;;;;;;;;;;;;;;;;;;;;;;;;;;;;;;;;;;;",
";;;;;;;;;;;;;;;;;;;;;;;;;;;;;;;;;;;;;;;.ooooooooo..;;;;;;;;;;;;;;;;;;;;;;;;;;;;;;;;;;;;;;;;;;;;;",
";;;;;;;;;;;;;;;;;;;;;;;;;;;;;;;;;;;;;;.Oo.oo.ooooo ;;;;;;;;;;;;;;;;;;;;;;;;;;;;;;;;;;;;;;;;;;;;;",
";;;;;;;;;;;;;;;;;;;;;;;;;; X....o;;;;.**O.O.ooooooo ;;;;;;;;;;;;;;;;;;;;;;;;;;;;;;;;;;;;;;;;;;;;",
";;;;;;;;;;;;;;;;;;;;;;;;;X$X****Oo...**O.O.*Ooooooo ;;;;;;;;;;;;;;;;;;;;;;;;;;;;;;;;;;;;;;;;;;;;",
";;;;;;;;;;;;;;;;;;;;;;;;;  $$X********O...***ooo.o%o ;;;;;;oooooo;;;;;;;;;;;;;;;;;;;;;;;;;;;;;;;",
";;;;;;;;;;;;;;;;;;;;;;;;;;;    ........O****OOo oo%% ;;;;oo******..;;;;;;;;;;;;;;;;;;;;;;;;;;;;;",
";;;;;;;;;;;;;;;;;;;;;;;;;;;;;;.XXO*********OO. %o%%%% ;;o**********.;;;;;;;;;;;;;;;;;;;;;;;;;;;;",
";;;;;;;;;;;;;;;;;;;;;;;;;;;;;; @$XXO*****OOO .%%%%%%% ;.***oooo*****.;;;;;;;;;;;;;;;;;;;;;;;;;;;",
";;;;;;;;;;;;;;;;;;;;;;;;;;;;;;; @   .OOOO.  %%%%%%%o%% **ooOOOO..****.;;;;;;;;;;;;;;;;;;;;;;;;;;",
";;;;;;;;;;;;;;;;;;;;;;;;;;;;;;;; ;;;;.   %%%%%o%%%ooo% *oOOOOOOOO.**O.;;;;;;;;;;;;;;;;;;;;;;;;;;",
";;;;;;;;;;;;;;;;;;;;;;;;;;;;;;;;;;;;;;;.&%&%%ooo%o. Xoo oOOO..oOO.OOOO.;;;;;;;;;;;;;;;;;;;;;;;;;",
";;;;;;;;;;;;;;;;;;;;;;;;;;;;;;;;;;;;;;;.&o&%%oo . $+$Xo OOOooOo.OO.OOO.;;;;;;;;;;;;;;;;;;;;;;;;;",
";;;;;;;;;;;;;;;;;;;;;;;;;;;;;;;;;;;;;;;.&OO&Ooo $+$X$ oo OO.OOO.OO.OOO.;;;;;;;;;;;;;;;;;;;;;;;;;",
";;;;;;;;;;;;;;;;;;;;;;;;;;;;;;;;;;;;;;;.oOOOOOOo $XXX oo OOo.OO.OO.OOO.;;;;;;;;;;;;;;;;;;;;;;;;;",
";;;;;;;;;;;;;;;;;;;;;;;;;;;;;;;;;;;;;;.OoOOOOOO.o XXX oo .OOOO.OOO.OOO ;;;;;;;;;;;;;;;;;;;;;;;;;",
";;;;;;;;;;;;;;;;;;;;;;;;;;;;;;;;;;;;;; OOOoOOOo.oo.XX oo o....OOO.OOOO ;;;;;;;;;;;;;;;;;;;;;;;;;",
";;;;;;;;;;;;;;;;;;;;;;;;;;;;;;;;;;;;;; OOOO.oooo.o.  oo .ooooooOo.OOO ;;;;;;;;;;;;;;;;;;;;;;;;;;",
";;;;;;;;;;;;;;;;;;;;;;;;;;;;;;;;;;;;;; OOOOo.  oo oooo. o..oooo..oOOO ;;;;;;;;;;;;;;;;;;;;;;;;;;",
";;;;;;;;;;;;;;;;;;;;;;;;;;;;;;;;;;;;;;; OOoooo.    ..  oooo....ooooO ;;;;;;;;;;;;;;;;;;;;;;;;;;;",
";;;;;;;;;;;;;;;;;;;;;;;;;;;;;;;;;;;;;;;.ooooooo ;;;  oooooooooooooo ;;;;;;;;;;;;;;;;;;;;;;;;;;;;",
";;;;;;;;;;;;;;;;;;;;;;;;;;;;;;;;;;;;;;;;. ooooo ;;;;; ooooooooooo  ;;;;;;;;;;;;;;;;;;;;;;;;;;;;;",
";;;;;;;;;;;;;;;;;;;;;;;;;;;;;;;;;;;;;;;;;; oooo ;;;;;;   ooooo   ;;;;;;;;;;;;;;;;;;;;;;;;;;;;;;;",
";;;;;;;;;;;;;;;;;;;;;;;;;;;;;;;;;;;;;;;;  .ooo ;;;;;;;;;;     ;;;;;;;;;;;;;;;;;;;;;;;;;;;;;;;;;;",
";;;;;;;;;;;;;;;;;;;;;;;;;;;;;;;;;;;;;;; XX.ooo ;;;;;;;;;;;;;;;;;;;;;;;;;;;;;;;;;;;;;;;;;;;;;;;;;",
";;;;;;;;;;;;;;;;;;;;;;;;;;;;;;;;;;;;;;; X$X.. ;;;;;;;;;;;;;;;;;;;;;;;;;;;;;;;;;;;;;;;;;;;;;;;;;;",
";;;;;;;;;;;;;;;;;;;;;;;;;;;;;;;;;;;;;;;; $ $ ;;;;;;;;;;;;;;;;;;;;;;;;;;;;;;;;;;;;;;;;;;;;;;;;;;;",
";;;;;;;;;;;;;;;;;;;;;;;;;;;;;;;;;;;;;;;;; ; ;;;;;;;;;;;;;;;;;;;;;;;;;;;;;;;;;;;;;;;;;;;;;;;;;;;;",
";;;;;;;;;;;;;;;;;;;;;;;;;;;;;;;;;;;;;;;;;;;;;;;;;;;;;;;;;;;;;;;;;;;;;;;;;;;;;;;;;;;;;;;;;;;;;;;;",
";;;;;;;;;;;;;;;;;;;;;;;;;;;;;;;;;;;;;;;;;;;;;;;;;;;;;;;;;;;;;;;;;;;;;;;;;;;;;;;;;;;;;;;;;;;;;;;;",
";;;;;;;;;;;;;;;;;;;;;;;;;;;;;;;;;;;;;;;;;;;;;;;;;;;;;;;;;;;;;;;;;;;;;;;;;;;;;;;;;;;;;;;;;;;;;;;;",
";;;;;;;;;;;;;;;;;;;;;;;;;;;;;;;;;;;;;;;;;;;;;;;;;;;;;;;;;;;;;;;;;;;;;;;;;;;;;;;;;;;;;;;;;;;;;;;;",
";;;;;;;;;;;;;;;;;;;;;;;;;;;;;;;;;;;;;;;;;;;;;;;;;;;;;;;;;;;;;;;;;;;;;;;;;;;;;;;;;;;;;;;;;;;;;;;;",
";;;;;;;;;;;;;;;;;;;;;;;;;;;;;;;;;;;;;;;;;;;;;;;;;;;;;;;;;;;;;;;;;;;;;;;;;;;;;;;;;;;;;;;;;;;;;;;;",
";;;;;;;;;;;;;;;;;;;;;;;;;;;;;;;;;;;;;;;;;;;;;;;;;;;;;;;;;;;;;;;;;;;;;;;;;;;;;;;;;;;;;;;;;;;;;;;;",
";;;;;;;;;;;;;;;;;;;;;;;;;;;;;;;;;;;;;;;;;;;;;;;;;;;;;;;;;;;;;;;;;;;;;;;;;;;;;;;;;;;;;;;;;;;;;;;;",
";;;;;;;;;;;;;;;;;;;;;;;;;;;;;;;;;;;;;;;;;;;;;;;;;;;;;;;;;;;;;;;;;;;;;;;;;;;;;;;;;;;;;;;;;;;;;;;;",
";;;;;;;;;;;;;;;;;;;;;;;;;;;;;;;;;;;;;;;;;;;;;;;;;;;;;;;;;;;;;;;;;;;;;;;;;;;;;;;;;;;;;;;;;;;;;;;;",
";;;;;;;;;;;;;;;;;;;;;;;;;;;;;;;;;;;;;;;;;;;;;;;;;;;;;;;;;;;;;;;;;;;;;;;;;;;;;;;;;;;;;;;;;;;;;;;;",
";;;;;;;;;;;;;;;;;;;;;;;;;;;;;;;;;;;;;;;;;;;;;;;;;;;;;;;;;;;;;;;;;;;;;;;;;;;;;;;;;;;;;;;;;;;;;;;;",
";;;;;;;;;;;;;;;;;;;;;;;;;;;;;;;;;;;;;;;;;;;;;;;;;;;;;;;;;;;;;;;;;;;;;;;;;;;;;;;;;;;;;;;;;;;;;;;;",
";;;;;;;;;;;;;;;;;;;;;;;;;;;;;;;;;;;;;;;;;;;;;;;;;;;;;;;;;;;;;;;;;;;;;;;;;;;;;;;;;;;;;;;;;;;;;;;;",
";;;;;;;;;;;;;;;;;;;;;;;;;;;;;;;;;;;;;;;;;;;;;;;;;;;;;;;;;;;;;;;;;;;;;;;;;;;;;;;;;;;;;;;;;;;;;;;;",
";;;;;;;;;;;;;;;;;;;;;;;;;;;;;;;;;;;;;;;;;;;;;;;;;;;;;;;;;;;;;;;;;;;;;;;;;;;;;;;;;;;;;;;;;;;;;;;;",
";;;;;;;;;;;;;;;;;;;;;;;;;;;;;;;;;;;;;;;;;;;;;;;;;;;;;;;;;;;;;;;;;;;;;;;;;;;;;;;;;;;;;;;;;;;;;;;;",
";;;;;;;;;;;;;;;;;;;;;;;;;;;;;;;;;;;;;;;;;;;;;;;;;;;;;;;;;;;;;;;;;;;;;;;;;;;;;;;;;;;;;;;;;;;;;;;;",
";;;;;;;;;;;;;;;;;;;;;;;;;;;;;;;;;;;;;;;;;;;;;;;;;;;;;;;;;;;;;;;;;;;;;;;;;;;;;;;;;;;;;;;;;;;;;;;;",
";;;;;;;;;;;;;;;;;;;;;;;;;;;;;;;;;;;;;;;;;;;;;;;;;;;;;;;;;;;;;;;;;;;;;;;;;;;;;;;;;;;;;;;;;;;;;;;;",
";;;;;;;;;;;;;;;;;;;;;;;;;;;;;;;;;;;;;;;;;;;;;;;;;;;;;;;;;;;;;;;;;;;;;;;;;;;;;;;;;;;;;;;;;;;;;;;;"
};
