/* XPM */
static char *sprite_212_front[] = {
/* columns rows colors chars-per-pixel */
"96 96 12 1 ",
"  c #101010",
". c #622929",
"X c #39394A",
"o c #A42929",
"O c #D53939",
"+ c #9C6A20",
"@ c #F66A6A",
"# c #DEC510",
"$ c #9494A4",
"% c #B4B4CD",
"& c white",
"* c None",
/* pixels */
"************************************************************************************************",
"************************************************************************************************",
"************************************************************************************************",
"************************************************************************************************",
"************************************************************************************************",
"************************************************************************************************",
"************************************************************************************************",
"************************************************************************************************",
"************************************************************************************************",
"************************************************************************************************",
"************************************************************************************************",
"************************************************************************************************",
"************************************************************************************************",
"************************************************************************************************",
"*******************************************..***************************************************",
"******************************************.@@ *************************XXX**********************",
"******************************************.@@ **XX*******************XX&&&X*********************",
"******************************************.@O **X%X*****************X&&&$$X*********************",
"*****************************************.@Oo **X%X****************X&&$$&&X*********************",
"*****************************************.@Ooo *X%X**   **********X&&$&$&&X*********************",
"************************************. ***.OOoo *X%X* @@ ********..&&$&&$&&X*********************",
"***********************************.OO * OOOoo *X%  @@@ *******.OO.$$&&$&&X*********************",
"***********************************.Oo * OOOooo X @@OO *******.OOO.&$&&$&&X*********************",
"***********************************.Ooo..OOOooo  @@OO *******.OOOo&&$&&$&&X*********************",
"*********************************** Ooo .OOOo  o@OOOo ******.OOOo.&&$&&$&%**********************",
"*********************************** OOo OOOOOOOOOOOo ******.oOOoo&&&$&&$&X**********************",
"*********************************** OOo.OOOOOOOOOOoo ******.OOoo.&&$&&$&&X**********************",
"************************************ OOOOOOOOOOOOoo .*****.oOooo%&&$&&$&&X**********************",
"************************************ OOOOOOOOOOOOoo .*****.oooo.%&%&&%&&X***********************",
"************************************ @OOOOOOOOOOoo o.*****ooooo%%&$&&$&&X***********************",
"************************************.@OOOOOOOOOooo. o.***.oooo.%%%%&%&&X************************",
"************************************.@OOOOOOOOo.ooo o.***.oooo%%%$%&$&%*************************",
"************************************.@OOOOOOOO.&ooo o.***oooo.%%$%%$&&X*************************",
"************************************.@OOOOOOO.#&ooo    *.ooo.%%$%%$%%X**************************",
"*************************************.@OOOOO. #&oo  OOO .oo     %$%%X***************************",
"*************************************.@@@OO.##&&oo   OOOO  OOO@@  %X****************************",
"**************************************.@@OOoo&&oo XX  oOO @@@@@@OO *****************************",
"**************************************. o@@oooo   XXX.OO O@@@@Oooo *****************************",
"*************************************.oo  ooo OO $XXXOOO OOOooooo ******************************",
"*************************************.oooo   .OOX$$$.OOO OOoooooo ******************************",
"************************     *********.o oooo OOX$$XOOOoo ooo.ooO $$$***************************",
"*********************   @@@@@  ******** OO.o. OOO $ OOoooo oo. oOO &&$$*************************",
"*******************..@@@@@OOOOO   ..** .O ..*$ oOO oOoooo       oOO &&&$************************",
"******************.@@@@@@OOXXXOO OOO..OO ****$ ooooooooo. &$&&$&  O  &&$************************",
"***************** OOOOOoooXX+XXOO.oOO.  ****$&$ .oooooo  $&&$&&$%  OO $*************************",
"**************** OOOoOooooX+#+Xoooooo ******$&$%  oooo ***$&&$&&&$ oOO  **    ******************",
"**************** oOoOoooooX###Xooooo ********$%%$ oooo ****$&&$%%%%.o oo  @@@@. ****************",
"*************** oooOoOooooX+#+Xooooo ********$%$% ooooo ****$&&&$$%..oo @@@@@@@o ***************",
"*************** ooooooooooXX+XXoooo *****....*$$ OOOoXX *****$%%%%$$ o.@@@@@@@@o ***************",
"*************** oooooooooooXXXoooo *****.@@@O.. $OO$XXX  *****$$%%%$ o.@oXX@@@Ooo.**************",
"*************** ooooooo...ooo  ooo *****.o@@@O X$$$$   X *******$$$** @@X#XX@oooo.**************",
"**************** oooo..***.oo o o ******.oooO $X$$  XXXXX   ********* @X##XXooooo.**************",
"**************** ooo ***** o  o.  *******.oo X$$X XXXX   @@O..******* @X#+XXoooooo *************",
"***************** oo ****    .oo ********.o OX$$$XXXX o @@@@@O.***** OOX#XXXoooooo *************",
"******************  ****     ooo ******* oo OX$$$X   oo @@@@@OO **** OOoXXXooooooo *************",
"**********************     oooo.******* Oo O.$XXX XX.o OOO@@ooo **** OOOXXoooooooo *************",
"********************** ooooooo.******* OOo O.$$$$$X oo OOOOooo ***** O Oooooooooo **************",
"***********************  ooo..********.OO. O.$$$$$ oooo ooooo. ***** O  ooooooooo **************",
"*************************   *********.OOo. OO$$$$.oooooo oooo ******  o oo oooooo **************",
"*************************************.OO.* OO.$$.Ooooooo  ooo ****** Oo o.  oooo ***************",
"************************************ oo ***.OO..OOoooooo *.ooo ***** Oo     oooo ***************",
"***********************************. o ****.@@OOOoooooo **.ooo ******.o     ooo ****************",
"***********************************.. .****.@@OOoooooo.**** oo ****** oo  o oo *****************",
"**********************************.OOo.*****.@OOooooo.***** ooo ****** oooo   ******************",
"**********************************.OOoo***** @@@@oo..******* oo *******    *********************",
"**********************************.OOoo.***** @@O  ********** o  *******************************",
"**********************************.OOoo.******   ************   o ******************************",
"*********************************.OOOoo.********************* oooo *****************************",
"*********************************.OOOoo.********************* ooooo ****************************",
"*********************************.OOooo.********************* ooOoo. ***************************",
"*********************************.OOoooo ******************** oOOOoo ***************************",
"********************************.OOOoooo *********************.OOOooo **************************",
"********************************.OOOoooo *********************.OOOOoo **************************",
"********************************.OOooooo ********************* OOOOooo.*************************",
"******************************** OOoooo.X********************* OOOOooo.*************************",
"******************************** oooooo %X*********************.OOOOooo*************************",
"******************************** X%.oo.  X********************* OOOOooo.************************",
"******************************** %%% o ************************ OOOOooo.************************",
"******************************* %%%%  ************************** OOOooo.************************",
"******************************* %%  **************************** OOOooo.************************",
"*******************************   ****************************** .Ooooo.************************",
"***************************************************************** .  o.*************************",
"***************************************************************** X%% .*************************",
"****************************************************************** %%% *************************",
"****************************************************************** %%% *************************",
"******************************************************************* %% *************************",
"********************************************************************  X*************************",
"************************************************************************************************",
"************************************************************************************************",
"************************************************************************************************",
"************************************************************************************************",
"************************************************************************************************",
"************************************************************************************************",
"************************************************************************************************",
"************************************************************************************************",
"************************************************************************************************"
};
