/* XPM */
static char *sprite_518_front[] = {
/* columns rows colors chars-per-pixel */
"96 96 13 1 ",
"  c #101010",
". c #6A314A",
"X c gray32",
"o c #4A4A62",
"O c #9C5A62",
"+ c #AC5273",
"@ c #6A62A4",
"# c #BD73AC",
"$ c #DE7BBD",
"% c #947BDE",
"& c #CD9C94",
"* c #FFC5CD",
"= c None",
/* pixels */
"================================================================================================",
"================================================================================================",
"================================================================================================",
"================================================================================================",
"================================================================================================",
"================================================================================================",
"================================================================================================",
"================================================================================================",
"================================================================================================",
"================================================================================================",
"================================================================================================",
"================================================================================================",
"================================================================================================",
"================================================================================================",
"================================================================================================",
"================================================================================================",
"================================================================================================",
"==========================================================++++==================================",
"====================================================+++==+$$$$+++===============================",
"=================================================+++$$$+++$$$$$$$+==============================",
"================================================+$$$$$$$$++$$$++$$+=============================",
"===================================+++++++====++$$$$$$$$$$$+++$$$$+=============================",
"=================================++$$$$$$$++++$$$$$$$$$$++$$$$$$$$+=============================",
"================================+$$$$$$$$$$$$$$$$$$$$$$+==+++$$$++==============================",
"===============================+$$$$$$$$$$$$$$$$$$$$$$+======+++================================",
"===============================+$$$$$$$$$$$$++$$$$$$$$+=========================================",
"================================+$$$$$$$$$++==+$$$$$$$+=========================================",
"================================+$$$$$$$$$+===+$$$$$$$+=========================================",
"================================+$$$$$$$$+=====++$$$++==========================================",
"===============================+$$$$$$$$$+=======+++============================================",
"=============================++$$$$$$$$$$+======================================================",
"============================+$$$$$$$$$$$$+======================================================",
"===========================+$$$$$$$$$$$$$$+=====================================================",
"==========================+$$$$$$$$$$$$$$$+=====================================================",
"==========================+$$$$$$$$$$$$$$$+=====================================================",
"=========================+$$$$$$+++$$$$$$+======================================================",
"=========================+$$$$$+$$$$$$$$$+===========oooooooooo=================================",
"========================+$$$$$$+$$$$$$$$+=========ooo%%%%%%%%%%oooo=============================",
"========================+$$$$$+$$$$$$$$+========oo%%%%%%%%%%%%%%%%%oo===========================",
"========================+$$$$$+$$$$$$$+=======Oo%%%%%%%%%%%%%%%%%%%%%  =========================",
"========================+$$$$$+$$$++++======OO**@%%%%%%%%%%%%%%%%%%%%%% ========================",
"=========================++$$$$+++=========O*****@%%%%%%%%%%%%%%%%%%%%%% =======================",
"===========================+$$$$+=========O******@%%%%%%%%%%%%%%%%%%%%%%% ======================",
"===========================+$$$$+========O*******%@@@@%%%%%%%%%%%%%%%%%%%% =====================",
"===========================+$$++========O*******@@****@%%%%%%%%%%%%%%%%%%%% ====================",
"==========================+$$+=========O***************@%%%%%%%%%%%%%%%%%%%% ===================",
"=======================+++$$$+========O****************@%%%%%%%%%%%%%%%%%%%% ===================",
"=====================++$$$$+++========O****************@%%%%%%%%%%%%%%%%%%%%% ==================",
"====================+$$$$$+$$+=======O****************&@%%%%%%%%%%%%%%%%%%%%% ==================",
"===================+$$$$$+$$$$+======O****************@%%%%%%%%%%%%%%%%%%%%%%% =================",
"==================+$$$$$+$$$$$+=====O****************@@@@%%%%%%%%%%%%%%%%%%%%% =================",
"==================+$$$$$+$$$$$+=====O********************@%%%%%%%%%%%%%%%%%%%% =================",
"=================+$$$$$+$$$$$$+=====O*********************@%%%%%%%%%%%%%%%%%%%% ================",
"=================+$$$$$+$$$$$$+=====O*********************@%%%%%%%%%%%%%%%%%%%% ================",
"=================+$$$$$+$$$$$+=====O**********************@%%%%%%%%%%%%%%%%%%%% ================",
"=================+$$$$$+$$+$$+=====O*************++*******@%%%%%@%%%@%%%%%%%%%% ================",
"================+$$$$$$$++$$+======O*************$$+*****o%%%%%%o%%%@o%%%%%%%%% ================",
"================+$$$$$$$$$$$+======O**************$+*****o%%%%%%@ %%o%%%%%%%%%@ ================",
"================+$$$$$$$$$$+=======O*************X******o%%%%%%%% %o%%%%%%%%%@@ ================",
"================+$$$$$$$$$+========O***********X &******o%%%%%%%@ o@%%%%%%%%@@ =================",
"================+$$$$$$$$+========= ************* XX**** @%%%@@@@ o@@@%%%%@@@@ =================",
"=================+$$$$$$$+==+++==== ************** ***** @@@@@@@+ @@@@@@@@@@@@ =================",
"=================+$$$$$$$$++$$$+==== ************* X**** +@@@+++# @@@@@@@@@@@ ==================",
"==================+$$$$$$$$$$$$$+=== ***************** * #+++### @@@@@@@@@@@@ ==================",
"===================+$$$$$$$$$$$$$+== ***************** * ####### +++@@@@@@@@ ===================",
"===================+$$$$$$$$$$$$$+=== &&************** && ###### ###++@@@@@@ ===================",
"===================+$$$$$$$$$$$$$$+== &&&&++******&&&&& & ##### ######+@@@@ ====================",
"====================+$$+++$$$$$$$$+=== &&+$$+&&&&&&&&&&& X ###  #######+@@ =====================",
"=====================++===+$$$$$$$$+=== +$$$$+&&&&&&&&&&&&&   . #######+@ ======================",
"===========================+++$$$$$$++++$$$$$+&&&&&&&&&&&&& +++ #######  =======================",
"==========================+$$$++$$$$$$$$$$$$$+&&&&&&&&&&&& +++.= ####  =========================",
"==========================+$$$$$+$$$$$$$$$+++&&&&&&&&&&&  =...===    ===========================",
"===========================+$$$$+$$$$$$$$$+=   &&&&&&&  ========================================",
"===========================+$$$$$+$$$$$$$+=====       ==========================================",
"============================+$$$$+$$$$$$+=======================================================",
"=============================++$$$$$$$$$+=======================================================",
"===============================++$$$$$++========================================================",
"=================================+++++==========================================================",
"================================================================================================",
"================================================================================================",
"================================================================================================",
"================================================================================================",
"================================================================================================",
"================================================================================================",
"================================================================================================",
"================================================================================================",
"================================================================================================",
"================================================================================================",
"================================================================================================",
"================================================================================================",
"================================================================================================",
"================================================================================================",
"================================================================================================",
"================================================================================================",
"================================================================================================",
"================================================================================================"
};
