/* XPM */
static char *sprite_045_front[] = {
/* columns rows colors chars-per-pixel */
"96 96 16 1 ",
"  c #101010",
". c #731810",
"X c #18294A",
"o c #394162",
"O c #944A00",
"+ c #CD6218",
"@ c #9C3941",
"# c #DE4A5A",
"$ c #F67373",
"% c #FF8329",
"& c #5A6283",
"* c #7383A4",
"= c #F68B8B",
"- c #F6ACB4",
"; c #FFCDD5",
": c None",
/* pixels */
"::::::::::::::::::::::::::::::::::::::::::::::::::::::::::::::::::::::::::::::::::::::::::::::::",
"::::::::::::::::::::::::::::::::::::::::::::::::::::::::::::::::::::::::::::::::::::::::::::::::",
"::::::::::::::::::::::::::::::::::::::::::::::::::::::::::::::::::::::::::::::::::::::::::::::::",
"::::::::::::::::::::::::::::::::::::::::::::::::::::::::::::::::::::::::::::::::::::::::::::::::",
"::::::::::::::::::::::::::::::::::::::::::::::::::::::::::::::::::::::::::::::::::::::::::::::::",
"::::::::::::::::::::::::::::::::::::::::::::::::::::::::::::::::::::::::::::::::::::::::::::::::",
"::::::::::::::::::::::::::::::::::::::::::::::::::::::::::::::::::::::::::::::::::::::::::::::::",
"::::::::::::::::::::::::::::::::::::::::::::::::::::::::::::::::::::::::::::::::::::::::::::::::",
"::::::::::::::::::::::::::::::::::::::::::::::::::::::::::::::::::::::::::::::::::::::::::::::::",
"::::::::::::::::::::::::::::::::::::::::::::::::::::::::::::::::::::::::::::::::::::::::::::::::",
"::::::::::::::::::::::::::::::::::::::::::::::::::::::::::::::::::::::::::::::::::::::::::::::::",
"::::::::::::::::::::::::::::::::::::::::::::::::::::::::::::::::::::::::::::::::::::::::::::::::",
"::::::::::::::::::::::::::::::::::::::::::::::::::::::::::::::::::::::::::::::::::::::::::::::::",
"::::::::::::::::::::::::::::::::::::::::::::::::::::::::::::::::::::::::::::::::::::::::::::::::",
"::::::::::::::::::::::::::::::::::::::::::::::::::::::::::::::::::::::::::::::::::::::::::::::::",
"::::::::::::::::::::::::::::::::::::::::::::::::::::::::::::::::::::::::::::::::::::::::::::::::",
"::::::::::::::::::::::::::::::::::::::::::::::::::::::::::::::::::::::::::::::::::::::::::::::::",
"::::::::::::::::::::::::::::::::::::::::::::::::::::::::::::::::::::::::::::::::::::::::::::::::",
"::::::::::::::::::::::::::::::::::::::::::::::::::::::::::::::::::::::::::::::::::::::::::::::::",
"::::::::::::::::::::::::::::::::::::::::::::::::::::::::::::::::::::::::::::::::::::::::::::::::",
"::::::::::::::::::::::::::::::::::::::::::::::::::::::::::::::::::::::::::::::::::::::::::::::::",
"::::::::::::::::::::::::::::::::::::::::::::::::::::::::::::::::::::::::::::::::::::::::::::::::",
"::::::::::::::::::::::::::::::::::::::::::::::::::::::::::::::::::::::::::::::::::::::::::::::::",
"::::::::::::::::::::::::::::::::::::::::::::::::::::::::::::::::::::::::::::::::::::::::::::::::",
"::::::::::::::::::::::::::::::::::::::::::::::::::::::::::::::::::::::::::::::::::::::::::::::::",
"::::::::::::::::::::::::::::::::::::::        ::::::..........::::::::::::::::::::::::::::::::::",
":::::::::::::::::::::::::::::::::::...========  ::..=====$$$##   :::::::::::::::::::::::::::::::",
":::::::::::::::::::::::::::::::::..======$-;;===..===-;;;===$####  :::::::::::::::::::::::::::::",
":::::::::::::::::::::::::::::::..===;;-$$#;;-$$.#$$==;;;-====$$#### ::::::::::::::::::::::::::::",
"::::::::::::::::::::::::::::::.====;;;;#######.####$$###$====-;;;### :::::::::::::::::::::::::::",
":::::::::::::::::::::::::::::.====$-;-###OOOOOO  ########$===;;;-###@ ::::::::::::::::::::::::::",
"::::::::::::::::::::::::::::.====$#####OO+%%%%%+O ########$=====$###@ ::::::::::::::::::::::::::",
"::::::::::::::::::::::::::::.===$#####O+%%oooX%%%O #######......$###@@ :::::::::::::::::::::::::",
"::::::::::::::::::::::::::........###O+%XooooXX%%+O #.....$=====...##@ :::::::::::::::::::::::::",
":::::::::::::::::::::::...====$###...O%XXo++++O%%OO..#####$======$#..@ :::::::::::::::::::::::::",
":::::::::::::::::::::..$$=;;-$###### %%XX+++OO%%+O.######$=======$###.::::::::::::::::::::::::::",
"::::::::::::::::::::.#$===-;;$###### +%%OOOO%%%+O.########$=====$##### :::::::::::::::::::::::::",
":::::::::::::::::::.#$========$##### O+%%%%%%+OO.##;-###$$=====$###### :::::::::::::::::::::::::",
"::::::::::::::::::.##$=========$#### OOOOOOOOOO.##;;;##$===;-==$##;-##@ ::::::::::::::::::::::::",
":::::::::::::::::.##$========;-$###........OOOO.##-;##$===;;;===$;;;##@ ::::::::::::::::::::::::",
":::::::::::::::::.##-;;-=====;;$#..########....######$====-;==$$#-;###@ ::::::::::::::::::::::::",
":::::::::::::::::.##-;;;=======..#############.######$=======$#######@@ ::::::::::::::::::::::::",
"::::::::::::::::.####-;-=====..$#########-;;###.##$$$=======$########@@ ::::::::::::::::::::::::",
"::::::::::::::::.######$===..$=-;;$#$###-;;;-##$.$==========$#######@@ :::::::::::::::::::::::::",
":::::::::::::::: @####$===.$===;;-=$=$#$=;;;=$$=.=======-;-$#######@@@ :::::::::::::::::::::::::",
":::::::::::::::: @####$==.===========$$===$======.===$-;;;-#######@@@ ::::::::::::::::::::::::::",
":::::::::::::::: @@###$$.=========;;;============.==$#-;;-######@@@@ :::::::::::::::::::::::::::",
"::::::::::::::::: @@####.$-;-====-;;;-======$$$$##.$##########@@@@@ ::::::::::::::::::::::::::::",
"::::::::::::::::: @@@##.##;;;;====;;;=====--;-###@.########@@@@@@  :::::::::::::::::::::::::::::",
":::::::::::::::::: @@@@.###-;-$====$===$==;;;;###@ @@@@@@@@@@@@  :::::::::::::::::::::::::::::::",
":::::::::::::::::::  @@.@#####$==$$#$=$#$=-;-###@@ @@@@@@@@@   :::::::::::::::::::::::::::::::::",
":::::::::::::::::::::  .@######$$####$#########@@@          ::::::::::::::::::::::::::::::::::::",
":::::::::::::::::::::::.@@@##################@@@@ ooooooo ::::::::::::::::::::::::::::::::::::::",
":::::::::::::::::::::::: @@@@############@@@@@@  oooooooo ::::::::::::::::::::::::::::::::::::::",
":::::::::::::::::::::::::  @@@@@@@@@@@@@@@@@@  ooooXoooooo :::::::::::::::::::::::::::::::::::::",
":::::::::::::::::::::::::::   @@@@@@@@@@@    oooooX#Xooooo :::::::::::::::::::::::::::::::::::::",
"::::::::::::::::::::::::::::::           #XooooooooXooooo& :::::::::::::::::::::::::::::::::::::",
"::::::::::::::::::::::::::::::::::::: oooXoooooooooooooo&&& ::::::::::::::::::::::::::::::::::::",
"::::::::::::::::::::::::::::::::::::: ooooooXooooXoooo&&&oo ::::::::::::::::::::::::::::::::::::",
"::::::::::::::::::::::::::::::::::::X oooooooXXXXooo&&&&&&&oooo:::::::::::::::::::::::::::::::::",
"::::::::::::::::::::::::::::::::::XXo &&ooooooooo&&&&&&& &&&&*&o::::::::::::::::::::::::::::::::",
":::::::::::::::::::::::::::::::XXXooo &&&&&&&&&&&&&&&&&&o  &&&&o::::::::::::::::::::::::::::::::",
"::::::::::::::::::::::::::::::X&ooooX:X&&&&&&&&&&&&&&&&oooX    :::::::::::::::::::::::::::::::::",
"::::::::::::::::::::::::::::::XoooXX::Xo&&&&&&&&&&&&&ooooX::::::::::::::::::::::::::::::::::::::",
":::::::::::::::::::::::::::::::XXX:::::Xooo&&&&&&&ooooooX:::::::::::::::::::::::::::::::::::::::",
"::::::::::::::::::::::::::::::::::::::::XXoooooooooooooX::::::::::::::::::::::::::::::::::::::::",
"::::::::::::::::::::::::::::::::::::::::::XXXoooooooXXX ::::::::::::::::::::::::::::::::::::::::",
"::::::::::::::::::::::::::::::::::::::::::: o XXXXXX:Xoo :::::::::::::::::::::::::::::::::::::::",
":::::::::::::::::::::::::::::::::::::::::: oo ::::::::Xoo  :::::::::::::::::::::::::::::::::::::",
":::::::::::::::::::::::::::::::::::::::XXXoo :::::::::Xooo&  :::::::::::::::::::::::::::::::::::",
"::::::::::::::::::::::::::::::::::::XXXooooo ::::::::::Xo&&&&  :::::::::::::::::::::::::::::::::",
"::::::::::::::::::::::::::::::::::: &*&oooo ::::::::::::X&&&&*& ::::::::::::::::::::::::::::::::",
"::::::::::::::::::::::::::::::::::: &&&&o  ::::::::::::::XX&&&& ::::::::::::::::::::::::::::::::",
"::::::::::::::::::::::::::::::::::::     ::::::::::::::::::X   :::::::::::::::::::::::::::::::::",
"::::::::::::::::::::::::::::::::::::::::::::::::::::::::::::::::::::::::::::::::::::::::::::::::",
"::::::::::::::::::::::::::::::::::::::::::::::::::::::::::::::::::::::::::::::::::::::::::::::::",
"::::::::::::::::::::::::::::::::::::::::::::::::::::::::::::::::::::::::::::::::::::::::::::::::",
"::::::::::::::::::::::::::::::::::::::::::::::::::::::::::::::::::::::::::::::::::::::::::::::::",
"::::::::::::::::::::::::::::::::::::::::::::::::::::::::::::::::::::::::::::::::::::::::::::::::",
"::::::::::::::::::::::::::::::::::::::::::::::::::::::::::::::::::::::::::::::::::::::::::::::::",
"::::::::::::::::::::::::::::::::::::::::::::::::::::::::::::::::::::::::::::::::::::::::::::::::",
"::::::::::::::::::::::::::::::::::::::::::::::::::::::::::::::::::::::::::::::::::::::::::::::::",
"::::::::::::::::::::::::::::::::::::::::::::::::::::::::::::::::::::::::::::::::::::::::::::::::",
"::::::::::::::::::::::::::::::::::::::::::::::::::::::::::::::::::::::::::::::::::::::::::::::::",
"::::::::::::::::::::::::::::::::::::::::::::::::::::::::::::::::::::::::::::::::::::::::::::::::",
"::::::::::::::::::::::::::::::::::::::::::::::::::::::::::::::::::::::::::::::::::::::::::::::::",
"::::::::::::::::::::::::::::::::::::::::::::::::::::::::::::::::::::::::::::::::::::::::::::::::",
"::::::::::::::::::::::::::::::::::::::::::::::::::::::::::::::::::::::::::::::::::::::::::::::::",
"::::::::::::::::::::::::::::::::::::::::::::::::::::::::::::::::::::::::::::::::::::::::::::::::",
"::::::::::::::::::::::::::::::::::::::::::::::::::::::::::::::::::::::::::::::::::::::::::::::::",
"::::::::::::::::::::::::::::::::::::::::::::::::::::::::::::::::::::::::::::::::::::::::::::::::",
"::::::::::::::::::::::::::::::::::::::::::::::::::::::::::::::::::::::::::::::::::::::::::::::::",
"::::::::::::::::::::::::::::::::::::::::::::::::::::::::::::::::::::::::::::::::::::::::::::::::",
"::::::::::::::::::::::::::::::::::::::::::::::::::::::::::::::::::::::::::::::::::::::::::::::::",
"::::::::::::::::::::::::::::::::::::::::::::::::::::::::::::::::::::::::::::::::::::::::::::::::",
"::::::::::::::::::::::::::::::::::::::::::::::::::::::::::::::::::::::::::::::::::::::::::::::::"
};
