/* XPM */
static char *sprite_541_front[] = {
/* columns rows colors chars-per-pixel */
"96 96 13 1 ",
"  c #101010",
". c #396218",
"X c #104139",
"o c #5A5A39",
"O c #7B7339",
"+ c #18734A",
"@ c #5A9C31",
"# c #299C52",
"$ c #B4A429",
"% c #94CD08",
"& c #FFEE39",
"* c white",
"= c None",
/* pixels */
"================================================================================================",
"================================================================================================",
"================================================================================================",
"================================================================================================",
"================================================================================================",
"================================================================================================",
"================================================================================================",
"================================================================================================",
"================================================================================================",
"================================================================================================",
"================================================================================================",
"================================================================================================",
"================================================================================================",
"================================================================================================",
"================================================================================================",
"================================================================================================",
"================================================================================================",
"================================================================================================",
"================================================================================================",
"================================================================================================",
"================================================================================================",
"================================================================================================",
"================================================================================================",
"================================================================================================",
"================================================================================================",
"================================================= ==============================================",
"=======================================. =======.% =============================================",
"======================================.% =======.% =============================================",
"======================================.%% =====.%%% ============================================",
"=====================================.%%% =====.%%% ============================================",
"=====================================.%%% ====.%%%% ============================================",
"=====================================.%%%% ===.%%%% ============================================",
"=====================================.%%%% ==.%%%%% ============================================",
"=====================================.%%%% ==.%%%% =============================================",
"======================================.%%%% .%%%%% =============================================",
"======================================.%%%% .%%%% ==============================================",
"======================================= %%% %%%..%  ============================================",
"========================================  %%%..%%%%%  ==========================================",
"======================================@@%%%@%%%%%%%%%% =========================================",
"=====================================@%%%%@%%%%%%%%%% X ========================================",
"==================================== %%%%%.%%%%%%%%% +X% =======================================",
"===================================+# %%%%.%%%%%%%% ++X%% ======================================",
"==================================+## %%%@%%%%%%%% +++X%%% =====================================",
"==================================+##X %%@%%%%%%  +++# %%% =====================================",
"=================================+###X %%.%%%%% $X++## %%%% ====================================",
"=================================+##X&& %.%%%  $$$X### %%%% ====================================",
"================================@%##X&&& .%  $$$&&X### %%%%%.===================================",
"================================@%#X&&&&&  &&&&&&&&X# %%%%%% ===================================",
"================================@%#XooOO&&&&Oooooo&X# %%%%%% ===================================",
"===============================@%%#X * &&&&&&&o** &X %%%%%%%%.==================================",
"===============================@%%@& * &&&&&&&O**o&& %%%%%%%%.==================================",
"===============================@%%%.&o$&$O$&&&&  && %%%%%%%%% ==================================",
"===============================@%%%.&&&$&&&Oo&&&&..%%%%%%%%%% ==================================",
"===============================@%%%%.&&&&&&&&&...%%%%%%%%%%%% ==================================",
"===============================@%%%%%..&&  ...%%%%%%%%%%%%%%% ==================================",
"================================ %%%%%%. %%%%%%%%%%%%%%%%%%%% ==================================",
"================================ %%%%%%% %%%%%%%%%%%%%%%%%%%@. =================================",
"================================ %%%%%%%% %%%%%%%%%%%%%%%%%@@@@ ================================",
"==============================XX= @%%%%%% %%%%%%%%%%%%%%%@@@@@@ XXX=============================",
"============================XX++X @@@@%%%% %%%%%%%%%%%%@@@@@@@@ +++ ============================",
"=========================XXX++++ @ @@@@@@. %%%%%%%%@@@@@@@@@@@ ++++ XX==========================",
"========================X+++++++ @@ @@@@ $$ @@@@@@@@@@@@@@@@@ ++++++##XX========================",
"========================X++++++++ @@@@@ $$$$.@@@@@@@@@@@@@@@ ++++++#####X=======================",
"=========================XX +++  X @@@    $$$..@@@@@@@@@@@@ X++++X  ####X=======================",
"============================   ====   ====     ..@@@@@@@@  ==XXXX===X  X========================",
"=================================================...    ========================================",
"================================================================================================",
"================================================================================================",
"================================================================================================",
"================================================================================================",
"================================================================================================",
"================================================================================================",
"================================================================================================",
"================================================================================================",
"================================================================================================",
"================================================================================================",
"================================================================================================",
"================================================================================================",
"================================================================================================",
"================================================================================================",
"================================================================================================",
"================================================================================================",
"================================================================================================",
"================================================================================================",
"================================================================================================",
"================================================================================================",
"================================================================================================",
"================================================================================================",
"================================================================================================",
"================================================================================================",
"================================================================================================",
"================================================================================================",
"================================================================================================",
"================================================================================================",
"================================================================================================",
"================================================================================================"
};
