/* XPM */
static char *sprite_596_front[] = {
/* columns rows colors chars-per-pixel */
"96 96 13 1 ",
"  c #101010",
". c #6A5239",
"X c #182941",
"o c #393941",
"O c #29397B",
"+ c #736A6A",
"@ c #9C8318",
"# c #CDAC00",
"$ c #FFDE52",
"% c #3952B4",
"& c #9C839C",
"* c white",
"= c None",
/* pixels */
"================================================================================================",
"================================================================================================",
"================================================================================================",
"================================================================================================",
"================================================================================================",
"================================================================================================",
"================================================================================================",
"================================================================================================",
"================================================================================================",
"================================================================================================",
"================================================================================================",
"================================================================================================",
"================================================================================================",
"================================================================================================",
"================================================================================================",
"================================================================================================",
"================================================================================================",
"================================================================================================",
"================================================================================================",
"==========================================OO====================================================",
"==========================================X%O===================================================",
"==========================================X%X===================================================",
"==========================================X%%X======================XX==========================",
"==========================================X%%OX====================X%X==========================",
"==========================================X%%%X==XX================X%X==========================",
"=======================================XX=X%%%%X % ===============X%%X==========================",
"=======================================X%XX%%%%%X% =========== ==XO%%X==========================",
"=======================================X%%X%%%%%%%X========== % =X%%%X==========================",
"========================================X%%%%%%Ooooooo======= %%X%%%%X==========================",
"========================================X%%%%oo#$$$$$#ooo==== %%%%%%%XX  =======================",
"=========================================X%oo#$$$$$$$$$#&oo= OO%%%%%  %% =======================",
"=========================================oo&#$$$$$$$$&&&&$$ XOOO%%%%%%% ========================",
"========================================o&&&$$$$$$$#&&&$$$$$ OOOOO%%%%% ========================",
"=======================================o$&&$$$$$$$&&&$$$$$$$$ OO OO%%% =========================",
"======================================o$#&#$$$$$$&&&$$$$$$$$$# XO OO%% =========================",
"================================..====o$&&$#$$#$#&&$$$$$$$#&&& XOXOOO ==========================",
"================================.@.==o#&&&&&$$&$&&&&$$$#&&&&&++OOOOO ===========================",
"===========================..==.@@..=o&..&&&#&&&&&&$$#&&&&&&++XOOOO ============================",
"========================== $.=..@@@.= .$.&&&&&..&&&&&&&&&XX++X OOOOO X==========================",
"=========================.$$.   @@OX $$$.&&&..#$.&&&&&&++X$X+XO OOOOOO =========================",
"========================.$$$#$$ @OO $$@@  &.#$$$ +++ ++++X$$ XOOOOOO  ==========================",
"========================.$$$$$ @@  #$$$$$$  $$$# .. $ ++XX@$$ OOOOO ============================",
"=======================.$$$$#$ @ $$$$$$$$$$$$$.#### $$ XX$#$$# OOOX=============================",
"=======================.$$$#%X@ $$$$$$$$$$$$$$$##..$$$# OX$$$$ OOOO ============================",
"======================.$$$$ %X@ $$$$$$$$$$$$$$$## $$$$$.OX#$$$$ OO =============================",
"===================== #$$$$ %% $$$*%$*%$$$$$$$#### $$$$$ OX$$$$$ X==============================",
"====================.#$$$$#. %X#$$%O$%O$$$$$#####X%.$$$$$ OX$$$$$ ==============================",
"==================== ##$$$.=XX*%$$$$$$$$$#OOO####X% $$$$$ X.#$$$$# =============================",
"=================== #####.=.@X %#*%$*%$$#O**%X#.X%%X#$$$$# =.$$$###.============================",
"================= .###### =.@O  #%O$%O##X%X %X.+X%XX $$$$$ ==.######.===========================",
"=============== .#######.=.@@@X@#######.X% XOX+XOO O #$$$$$ =.######@..=========================",
"============== ######### =.@@@@ +@###..+XOOOX+XOO +o= $$$$$$ =.######@#@@=======================",
"============== ######### =.@@@@@ +...++++XXX++oX +o== #$$$$$#  ##########@======================",
"=============.###########.=.@@@@@  +++++++++++++oo==== $$$$$$$$ .########.======================",
"=============.###########.=    XX@@  ++++  +++oo====== .$$$$$$$$#.########.=====================",
"=============..##########  $$$$ %XXXO  o $$ooo========.$$$$$$$$$$ ####### .=====================",
"============= #########  $$$$$$$ %OO  == $$.XX=======.#$$$$$#$#$$# #######  ====================",
"============ ######### $$$$$$$$#    === $$$$X======== ##$$$#$#$### #########.===================",
"============  .## ### $$$$$$$$# ======= $$$$.======== ####$$#$###@.### ## .  ===================",
"============== # O.#  #$$$$##.# ======= $$$$.========= ##########.# # O #X======================",
"==============  OO. ####### #. =======.$$$$$$.======== ############ . OO.X======================",
"================OOO  ##### = =========.$$$$$$.=======.#######.###.  =X%%X=======================",
"================ OO=.##.#.============.$$$$$# =======  .### #  ## ====X%X=======================",
"=================  = ## # ============ #$$$## ========= ##.X OOX# ====  ========================",
"==================== # = ============= ###### ========== # XOOOO  ==============================",
"====================. ================= ##### ==========  ==X%%% ===============================",
"======================================= ##### ==============X%% ================================",
"======================================.####.# ===============X%X================================",
"======================================.# ##  ================  =================================",
"======================================.  .# ====================================================",
"=========================================   ====================================================",
"================================================================================================",
"================================================================================================",
"================================================================================================",
"================================================================================================",
"================================================================================================",
"================================================================================================",
"================================================================================================",
"================================================================================================",
"================================================================================================",
"================================================================================================",
"================================================================================================",
"================================================================================================",
"================================================================================================",
"================================================================================================",
"================================================================================================",
"================================================================================================",
"================================================================================================",
"================================================================================================",
"================================================================================================",
"================================================================================================",
"================================================================================================",
"================================================================================================",
"================================================================================================",
"================================================================================================",
"================================================================================================"
};
