/* XPM */
static char *sprite_529_front[] = {
/* columns rows colors chars-per-pixel */
"96 96 14 1 ",
"  c #101010",
". c #313131",
"X c gray26",
"o c #4A4A5A",
"O c #5A5A5A",
"+ c gray39",
"@ c #983D4A",
"# c #CE7B6B",
"$ c #636B84",
"% c #A5A5A5",
"& c #EF9C8C",
"* c gray84",
"= c white",
"- c None",
/* pixels */
"------------------------------------------------------------------------------------------------",
"------------------------------------------------------------------------------------------------",
"------------------------------------------------------------------------------------------------",
"------------------------------------------------------------------------------------------------",
"------------------------------------------------------------------------------------------------",
"------------------------------------------------------------------------------------------------",
"------------------------------------------------------------------------------------------------",
"------------------------------------------------------------------------------------------------",
"------------------------------------------------------------------------------------------------",
"------------------------------------------------------------------------------------------------",
"------------------------------------------------------------------------------------------------",
"------------------------------------------------------------------------------------------------",
"------------------------------------------------------------------------------------------------",
"------------------------------------------------------------------------------------------------",
"------------------------------------------------------------------------------------------------",
"------------------------------------------------------------------------------------------------",
"------------------------------------------------------------------------------------------------",
"------------------------------------------------------------------------------------------------",
"------------------------------------------------------------------------------------------------",
"------------------------------------------------------------------------------------------------",
"------------------------------------------------------------------------------------------------",
"------------------------------------------------------------------------------------------------",
"------------------------------------------------------------------------------------------------",
"-----------------------+.----------------------------------------- -----------------------------",
"----------------------+=.+---------------------------------------+% ----------------------------",
"----------------------+*.%+--------------------------------------+%% ---------------------------",
"---------------------+=%+%%+------------------------------------+=%%= --------------------------",
"---------------------+=+%+%%+-----------------------------------+=%=% --------------------------",
"---------------------+=.%+%%%+---------------------------------+==%=%= -------------------------",
"---------------------+=.%%+%%%+--------------------------------+==%=%= -------------------------",
"--------------------+*=.%%+%%%+-------------------------------+===%==%* ------------------------",
"--------------------+==.%%+%%%%+-----------------------------+====%==%* ------------------------",
"--------------------+==.+%%+%%%%+---------------------------+=====%=*%* ------------------------",
"--------------------+==.+%%+%%%%%   -----------------------+=====%==*%** -----------------------",
"--------------------+==.+%%%+%%%  &&  -------.....--------- =====%=**%** -----------------------",
"--------------------+*=%.%%%%+%% #&&&&   --..XXXXX  ------+**===*%***%** -----------------------",
"--------------------+***.+%%%+%% ##&&&=*%  XXXXXXXXX ----- ******%***%** -----------------------",
"--------------------+***.+%%%%+% ####&=====*%XXXXXXXX --- ******%****%** -----------------------",
"--------------------+***.%+%%%+.. ###*=======*%X+=*XX -- o******%****%*% -----------------------",
"--------------------- **%.+%%.... *****========%===%XX - o******%***%** ------------------------",
"--------------------- ***.%+%.... %*******=====%= ==XXX $$.****%****%*. ------------------------",
"--------------------- ***.%%...... **********===%===XXX $$.****%****%*X ------------------------",
"---------------------- *** %..oo...%**********==%==*XXX $$$.***%***%* X ------------------------",
"---------------------- *** ..oooo.. *************+*XXX $$$$$..%****  X -------------------------",
"----------------------- *** .oooo... %*********+**XXXX $$$$$$$..   XXX -------------------------",
"----------------------- X** ..oooo...  %****%  @**.XXX $$$$$$$$$.XXXX. -------------------------",
"------------------------ X+* .oooo....      @@@@**.XX X.$$$$$...XXXX. --------------------------",
"------------------------ XXX ..oo..... X *@@@@@%**.XX XX.....XXXXX... --------------------------",
"------------------------- X$$ ........ XX+@@@@@**.XXX XXXXXXXXX..... ---------------------------",
"-------------------------- $$$ ....... XX.*@@@**XXX.. XXXXXX........ ---------------------------",
"---------------------------  $$ ..... XXXX.%**%.X..$ $.XXX......... ----------------------------",
"----------------------------- oo .... XXXXXXXXX..$$$ $$..........o -----------------------------",
"------------------------------  $o... XXXXXXXX..$$$$.$$$o.....ooo ------------------------------",
"--------------------------------  $o XXXXXXXX.$$$$$$$.$oooooooo  -------------------------------",
"----------------------------------   XXXXXXXXX.$$$$$$$$oooooo  ---------------------------------",
"------------------------------------ XXXXXXXX.$$$$$$$$$$ooo  -----------------------------------",
"------------------------------------.XXXX..X.$$$$$$$$$..   -------------------------------------",
"-----------------------------------.XXXX.$$.$$$$$$$$$.XXX --------------------------------------",
"-----------------------------------.XXX.$$$$$$$$$$...XXXX --------------------------------------",
"----------------------------------.XXX.$$$$$$$$$$.XXXXXX. --------------------------------------",
"---------------------------------- .X.$$$$$$$$$..XXXXXX.$$ -------------------------------------",
"---------------------------------- ..o$$$$$$$..XXXXXXX.$$o -------------------------------------",
"---------------------------------- .ooooo$$$.XXXXXXX..$ooo -------------------------------------",
"---------------------------------- .oooooooo........oooooo -------------------------------------",
"----------------------------------- oooooooooo....oooooooo -------------------------------------",
"----------------------------------- ooooooooooooooooooooo --------------------------------------",
"------------------------------------  ooooo.   .ooooooooo --------------------------------------",
"--------------------------------------     -----  ooooo  ---------------------------------------",
"-----------------------------------...X.... ------     ....-------------------------------------",
"---------------------------------- XO.OX... ------- .. XX.O.------------------------------------",
"---------------------------------- .X OX   -------- .XO O X ------------------------------------",
"-----------------------------------     ------------  X X  -------------------------------------",
"------------------------------------------------------   ---------------------------------------",
"------------------------------------------------------------------------------------------------",
"------------------------------------------------------------------------------------------------",
"------------------------------------------------------------------------------------------------",
"------------------------------------------------------------------------------------------------",
"------------------------------------------------------------------------------------------------",
"------------------------------------------------------------------------------------------------",
"------------------------------------------------------------------------------------------------",
"------------------------------------------------------------------------------------------------",
"------------------------------------------------------------------------------------------------",
"------------------------------------------------------------------------------------------------",
"------------------------------------------------------------------------------------------------",
"------------------------------------------------------------------------------------------------",
"------------------------------------------------------------------------------------------------",
"------------------------------------------------------------------------------------------------",
"------------------------------------------------------------------------------------------------",
"------------------------------------------------------------------------------------------------",
"------------------------------------------------------------------------------------------------",
"------------------------------------------------------------------------------------------------",
"------------------------------------------------------------------------------------------------",
"------------------------------------------------------------------------------------------------",
"------------------------------------------------------------------------------------------------",
"------------------------------------------------------------------------------------------------",
"------------------------------------------------------------------------------------------------"
};
