/* XPM */
static char *sprite_010_front[] = {
/* columns rows colors chars-per-pixel */
"96 96 16 1 ",
"  c black",
". c #7B3A4A",
"X c #195A42",
"o c #217B4A",
"O c #52634A",
"+ c #FF4242",
"@ c #FF7B42",
"# c #4AC529",
"$ c #6BD631",
"% c #31AD42",
"& c #7B844A",
"* c #FFB53A",
"= c #ADF742",
"- c #E6CE94",
"; c #F7EF8C",
": c None",
/* pixels */
"::::::::::::::::::::::::::::::::::::::::::::::::::::::::::::::::::::::::::::::::::::::::::::::::",
"::::::::::::::::::::::::::::::::::::::::::::::::::::::::::::::::::::::::::::::::::::::::::::::::",
"::::::::::::::::::::::::::::::::::::::::::::::::::::::::::::::::::::::::::::::::::::::::::::::::",
"::::::::::::::::::::::::::::::::::::::::::::::::::::::::::::::::::::::::::::::::::::::::::::::::",
"::::::::::::::::::::::::::::::::::::::::::::::::::::::::::::::::::::::::::::::::::::::::::::::::",
"::::::::::::::::::::::::::::::::::::::::::::::::::::::::::::::::::::::::::::::::::::::::::::::::",
"::::::::::::::::::::::::::::::::::::::::::::::::::::::::::::::::::::::::::::::::::::::::::::::::",
"::::::::::::::::::::::::::::::::::::::::::::::::::::::::::::::::::::::::::::::::::::::::::::::::",
"::::::::::::::::::::::::::::::::::::::::::::::::::::::::::::::::::::::::::::::::::::::::::::::::",
"::::::::::::::::::::::::::::::::::::::::::::::::::::::::::::::::::::::::::::::::::::::::::::::::",
"::::::::::::::::::::::::::::::::::::::::::::::::::::::::::::::::::::::::::::::::::::::::::::::::",
"::::::::::::::::::::::::::::::::::::::::::::::::::::::::::::::::::::::::::::::::::::::::::::::::",
"::::::::::::::::::::::::::::::::::::::::::::::::::::::::::::::::::::::::::::::::::::::::::::::::",
"::::::::::::::::::::::::::::::::::::::::::::::::::::::::::::::::::::::::::::::::::::::::::::::::",
"::::::::::::::::::::::::::::::::::::::::::::::::::::::::::::::::::::::::::::::::::::::::::::::::",
"::::::::::::::::::::::::::::::::::::::::::::::::::::::::::::::::::::::::::::::::::::::::::::::::",
"::::::::::::::::::::::::::::::::::::::::::::::::::::::::::::::::::::::::::::::::::::::::::::::::",
"::::::::::::::::::::::::::::::::::::::::::::::::::::::::::::::::::::::::::::::::::::::::::::::::",
"::::::::::::::::::::::::::::::::::::::::::::::::::::::::::::::::::::::::::::::::::::::::::::::::",
"::::::::::::::::::::::::::::::::::::::::::::::::::::::::::::::::::::::::::::::::::::::::::::::::",
"::::::::::::::::::::::::::::::::::::::::::::::::::::::::::::::::::::::::::::::::::::::::::::::::",
"::::::::::::::::::::::::::::::::::::::::::::::::::::::::::::::::::::::::::::::::::::::::::::::::",
"::::::::::::::::::::::::::::::::::::::::::::::::::::::::::::::::::::::::::::::::::::::::::::::::",
"::::::::::::::::::::::::::::::::::::::::::::::::::::::::::::::::::::::::::::::::::::::::::::::::",
"::::::::::::::::::::::::::::::::::::::::::::::::::::::::::::::::::::::::::::::::::::::::::::::::",
"::::::::::::::::::::::::::::::::::::::::::::::::::::::::::::::::::::::::::::::::::::::::::::::::",
"::::::::::::::::::::::::::::::::::::::::::::::::::::::::::::::::::::::::::::::::::::::::::::::::",
"::::::::::::::::::::::::::::::::::::::::::::::::::::::::::::::::::::::::::::::::::::::::::::::::",
"::::::::::::::::::::::::::::::::::::::::::::::::::::::::::::::::::::::::::::::::::::::::::::::::",
":::::::::::::::::::::::::::::::...:::::::::...::::::::::::::::::::::::::::::::::::::::::::::::::",
"::::::::::::::::::::::::::::::..**.::::::..**+.:::::::::::::::::::::::::::::::::::::::::::::::::",
"::::::::::::::::::::::::::::::.+**@.::XXX+**@+ :::::::::::::::::::::::::::::::::::::::::::::::::",
"::::::::::::::::::::::::::::::.++@@.XX$..*@+++ :::::::::::::::::::::::::::::::::::::::::::::::::",
":::::::::::::::::::::::::::::::.++@@...+@++++ XX::::::::::::::::::::::::::::::::::::::::::::::::",
":::::::::::::::::::::::::::::::: .++++++++.  $$%o:::::::::::::::::::::::::::::::::::::::::::::::",
"::::::::::::::::::::::::::::::::: .+++++.  $$$$$$o::::::::::::::::::::::::::::::::::::::::::::::",
"::::::::::::::::::::::::::::::::X$ +++.  $$$####$#o:::::::::::::::::::::::::::::::::::::::::::::",
"::::::::::::::::::::::::::::::::X= ...$$$$$#;;;;#%X:::::::::::::::::::::::::::::::::::::::::::::",
":::::::::::::::::::::::::::::::X$==..$===$#;-O -;%% ::::::::::::::::::::::::::::::::::::::::::::",
":::::::::::::::::::::::::::::::X#$=====$$$#;OO  ;%% ::::::::::::::::::::::::::::::::::::::::::::",
":::::::::::::::::::::::::::::::X#%%%%#$$$$#;    -%% ::::::::::::::::::::::::::::::::::::::::::::",
"::::::::::::::::::::::::::::::::o===$%o$$$#-&  &-%% ::::::::::::::::::::::::::::::::::::::::::::",
":::::::::::::::::::::::::::::::o$===$$$o$$$%----%%X:::::::::::::::::::::::::::::::::::::::::::::",
":::::::::::::::::::::::::::::::o$%XXo$#%o$#%%%%%%% :::::::::::::::::::::::::::::::::::::::::::::",
":::::::::::::::::::::::::::::::oX%$$%o%%X%%%%%%%% oX::::::::::::::::::::::::::::::::::::::::::::",
":::::::::::::::::::::::::::::::: $$$$X%%Xo%%%%%% %%X::::::&&::::::::::::::::::::::::::::::::::::",
"::::::::::::::::::::::::::::::::: oXX%%X  o%%% X%%$$X::::&;-&:::::::::::::::::::::::::::::::::::",
":::::::::::::::::::::::::::::::::::    &o     %%%;;$X:::&;;;&:::::::::::::::::::::::::::::::::::",
"::::::::::::::::::::::::::::::::::O&-------- %%%-$$; :::O;;;O:::::::::::::::::::::::::::::::::::",
":::::::::::::::::::::::::::::::::O;;&-------o%%%-$$- :::O-;-O:::::::::::::::::::::::::::::::::::",
":::::::::::::::::::::::::::::::::O;-&;----&O&%%%%-- ::::O--O::::::::::::::::::::::::::::::::::::",
"::::::::::::::::::::::::::::::::: --&;;;-&;-O%%%%%% ::::O--O::::::::::::::::::::::::::::::::::::",
"::::::::::::::::::::::::::::::::::  &&;;O;;- %%%%% :::::O-O:::::::::::::::::::::::::::::::::::::",
"::::::::::::::::::::::::::::::::::: ;;&&O--- o%%  ::::::&O::::::::::::::::::::::::::::::::::::::",
"::::::::::::::::::::::::::::::::::::O;;;;   -%  - :::::o-O::::::::::::::::::::::::::::::::::::::",
":::::::::::::::::::::::::::::::::::O;&;;;----%%-%-::::o%%o::::::::::::::::::::::::::::::::::::::",
"::::::::::::::::::::::::::::::::::: ;&-----OOO%%- %oXo%%-o::::::::::::::::::::::::::::::::::::::",
"::::::::::::::::::::::::::::::::::: --&---O-;;O% oo%-X%-o:::::::::::::::::::::::::::::::::::::::",
"::::::::::::::::::::::::::::::::::::   &&& ;;- X-X%-%-X%o:::::::::::::::::::::::::::::::::::::::",
":::::::::::::::::::::::::::::::::::::: ;;;;   o%%%X%-%X ::::::::::::::::::::::::::::::::::::::::",
"::::::::::::::::::::::::::::::::::::::: ;----Oo%%%X%%-o:::::::::::::::::::::::::::::::::::::::::",
":::::::::::::::::::::::::::::::::::::::: O--O--%%%X-- ::::::::::::::::::::::::::::::::::::::::::",
"::::::::::::::::::::::::::::::::::::::::::OO-----X-o :::::::::::::::::::::::::::::::::::::::::::",
"::::::::::::::::::::::::::::::::::::::::::::oOOOXXo:::::::::::::::::::::::::::::::::::::::::::::",
"::::::::::::::::::::::::::::::::::::::::::::::::::::::::::::::::::::::::::::::::::::::::::::::::",
"::::::::::::::::::::::::::::::::::::::::::::::::::::::::::::::::::::::::::::::::::::::::::::::::",
"::::::::::::::::::::::::::::::::::::::::::::::::::::::::::::::::::::::::::::::::::::::::::::::::",
"::::::::::::::::::::::::::::::::::::::::::::::::::::::::::::::::::::::::::::::::::::::::::::::::",
"::::::::::::::::::::::::::::::::::::::::::::::::::::::::::::::::::::::::::::::::::::::::::::::::",
"::::::::::::::::::::::::::::::::::::::::::::::::::::::::::::::::::::::::::::::::::::::::::::::::",
"::::::::::::::::::::::::::::::::::::::::::::::::::::::::::::::::::::::::::::::::::::::::::::::::",
"::::::::::::::::::::::::::::::::::::::::::::::::::::::::::::::::::::::::::::::::::::::::::::::::",
"::::::::::::::::::::::::::::::::::::::::::::::::::::::::::::::::::::::::::::::::::::::::::::::::",
"::::::::::::::::::::::::::::::::::::::::::::::::::::::::::::::::::::::::::::::::::::::::::::::::",
"::::::::::::::::::::::::::::::::::::::::::::::::::::::::::::::::::::::::::::::::::::::::::::::::",
"::::::::::::::::::::::::::::::::::::::::::::::::::::::::::::::::::::::::::::::::::::::::::::::::",
"::::::::::::::::::::::::::::::::::::::::::::::::::::::::::::::::::::::::::::::::::::::::::::::::",
"::::::::::::::::::::::::::::::::::::::::::::::::::::::::::::::::::::::::::::::::::::::::::::::::",
"::::::::::::::::::::::::::::::::::::::::::::::::::::::::::::::::::::::::::::::::::::::::::::::::",
"::::::::::::::::::::::::::::::::::::::::::::::::::::::::::::::::::::::::::::::::::::::::::::::::",
"::::::::::::::::::::::::::::::::::::::::::::::::::::::::::::::::::::::::::::::::::::::::::::::::",
"::::::::::::::::::::::::::::::::::::::::::::::::::::::::::::::::::::::::::::::::::::::::::::::::",
"::::::::::::::::::::::::::::::::::::::::::::::::::::::::::::::::::::::::::::::::::::::::::::::::",
"::::::::::::::::::::::::::::::::::::::::::::::::::::::::::::::::::::::::::::::::::::::::::::::::",
"::::::::::::::::::::::::::::::::::::::::::::::::::::::::::::::::::::::::::::::::::::::::::::::::",
"::::::::::::::::::::::::::::::::::::::::::::::::::::::::::::::::::::::::::::::::::::::::::::::::",
"::::::::::::::::::::::::::::::::::::::::::::::::::::::::::::::::::::::::::::::::::::::::::::::::",
"::::::::::::::::::::::::::::::::::::::::::::::::::::::::::::::::::::::::::::::::::::::::::::::::",
"::::::::::::::::::::::::::::::::::::::::::::::::::::::::::::::::::::::::::::::::::::::::::::::::",
"::::::::::::::::::::::::::::::::::::::::::::::::::::::::::::::::::::::::::::::::::::::::::::::::",
"::::::::::::::::::::::::::::::::::::::::::::::::::::::::::::::::::::::::::::::::::::::::::::::::",
"::::::::::::::::::::::::::::::::::::::::::::::::::::::::::::::::::::::::::::::::::::::::::::::::",
"::::::::::::::::::::::::::::::::::::::::::::::::::::::::::::::::::::::::::::::::::::::::::::::::",
"::::::::::::::::::::::::::::::::::::::::::::::::::::::::::::::::::::::::::::::::::::::::::::::::",
"::::::::::::::::::::::::::::::::::::::::::::::::::::::::::::::::::::::::::::::::::::::::::::::::",
"::::::::::::::::::::::::::::::::::::::::::::::::::::::::::::::::::::::::::::::::::::::::::::::::"
};
