/* XPM */
static char *sprite_292_back[] = {
/* columns rows colors chars-per-pixel */
"96 96 14 1 ",
"  c #101010",
". c #5A5241",
"X c #736A5A",
"o c #B4945A",
"O c #94837B",
"+ c #DEB473",
"@ c #AC9C8B",
"# c #8394AC",
"$ c #BDB4AC",
"% c #F6D583",
"& c #A4A4CD",
"* c #D5D5E6",
"= c white",
"- c None",
/* pixels */
"------------------------------------------------------------------------------------------------",
"------------------------------------------------------------------------------------------------",
"------------------------------------------------------------------------------------------------",
"------------------------------------------------------------------------------------------------",
"------------------------------------------------------------------------------------------------",
"------------------------------------------------------------------------------------------------",
"------------------------------------------------------------------------------------------------",
"------------------------------------------------------------------------------------------------",
"------------------------------------------------------------------------------------------------",
"------------------------------------------------------------------------------------------------",
"------------------------------------------------------------------------------------------------",
"------------------------------------------------------------------------------------------------",
"------------------------------------------------------------------------------------------------",
"------------------------------------------------------------------------------------------------",
"------------------------------------------------------------------------------------------------",
"------------------------------------------------------------------------------------------------",
"------------------------------------------------------------------------------------------------",
"------------------------------------------------------------------------------------------------",
"------------------------------------------------------------------------------------------------",
"------------------------------------------------------------------------------------------------",
"------------------------------------------------------------------------------------------------",
"------------------------------------------------------------------------------------------------",
"------------------------------------------------------------------------------------------------",
"------------------------------------------------------------------------------------------------",
"-----------------------------------------------&&&&&&&&&&&--------------------------------------",
"---------------------------------------------#&*****=====*&##-----------------------------------",
"--------------------------------------------&**********======&#---------------------------------",
"-------------------------------------------#==**&&&&&&&&*======#--------------------------------",
"-------------------------------------------#==&&&&------&&*====*#-------------------------------",
"-------------------------------------------&==&&----------&====*#-------------------------------",
"-------------------------------------------#*==##--------&&====&#-------------------------------",
"--------------------------------------------##==*#----&&&=====##--------------------------------",
"----------------------------------------------&##---##====*&##----------------------------------",
"------------------------------...---------------------#####-------------------------------------",
"------------------------------.%%..-------------------------------------------------------------",
"------------------------------.+%%%..---------..-------------... -------------------------------",
"------------------------------.++%%%%..--.---.++.---------- .%%% -------------------------------",
"-------------------------------.++++%%o. %.-.o++   ...  -  %%%++ -------------------------------",
"-------------------------------- +++++%% ++ .oo.++++o %% %%%+++ --------------------------------",
"---------------------------------  o++++ooo ooooooo  +%o+++++  ---------------------------------",
"--------------------------....-----  ++ooooo .oooo +++oooo++ -----------------------------------",
"--------------------------.%%%....---.+ooooooo.   +++oooooo .----......-------------------------",
"--------------------------.+++%%%%..   .oooXXXX++++ooooooo o    .%%%%% -------------------------",
"---------------------------..++++%%%%+o oX......Xooooooo   ..+++++oooo -------------------------",
"-----------------------------..+++ooooooo...   ..Xooo...o+++++oooooo  --------------------------",
"------------------------------.++oooooooX..     ..Xoooooooooooooo.  ----------------------------",
"-------------------------------.+oo..ooo..       ..oooooooooooooo ------------------------------",
"--------------------------------   --..o..       ..oooooooooooooo ------------------------------",
"-----------------------------------..ooo..       ..ooooooo  oooo -------------------------------",
"--------------------------------...+ooooX.       ..ooo..  oo    --------------------------------",
"------------------------------..+%%+ooooo..     ..Xoooooo  oo.----------------------------------",
"-----------------------------.%%%++.ooooooX.  ...Xo.oooo+++   ----------------------------------",
"-----------------------------.+++  oooooo oXX XXoooo.ooooo++%%  --------------------------------",
"-----------------------------.+..-.oooo. oooX oooooo  oooooo+%%%..------------------------------",
"-----------------------------..---.oo    ooo ..oo+++   ooooooo+%% ------------------------------",
"----------------------------------.  -.X   .XX..+++ XX   oooooo  -------------------------------",
"------------------------------------- XXXXXXXXX    XXXXX  ooo  ---------------------------------",
"------------------------------------- XOXXXXXXXXXXXXXXO@X    -----------------------------------",
"------------------------------------- OOO.......XXXXO@@@@.++.-----------------------------------",
"------------------------------------- XX.XXXXXXX..XO@$$$.o++.-----------------------------------",
"------------------------------------- .OOXXXXXXXOO..$$$$ oo.------------------------------------",
"------------------------------------- XOOOXXXXXXOOOOO@$. oo ------------------------------------",
"--------------------------------------.OOOXXXXXXXOO$$O@ .o -------------------------------------",
"--------------------------------------.OOX  XXXXXO$$$O.-- --------------------------------------",
"---------------------------------------.X.OO XXXOO$$O ------------------------------------------",
"---------------------------------------. @OOX XXOOOO -------------------------------------------",
"---------------------------------------- $@OX XXOO .--------------------------------------------",
"----------------------------------------.$$@X. .  ----------------------------------------------",
"-----------------------------------------.@XXX  ------------------------------------------------",
"------------------------------------------    --------------------------------------------------",
"------------------------------------------------------------------------------------------------",
"------------------------------------------------------------------------------------------------",
"------------------------------------------------------------------------------------------------",
"------------------------------------------------------------------------------------------------",
"------------------------------------------------------------------------------------------------",
"------------------------------------------------------------------------------------------------",
"------------------------------------------------------------------------------------------------",
"------------------------------------------------------------------------------------------------",
"------------------------------------------------------------------------------------------------",
"------------------------------------------------------------------------------------------------",
"------------------------------------------------------------------------------------------------",
"------------------------------------------------------------------------------------------------",
"------------------------------------------------------------------------------------------------",
"------------------------------------------------------------------------------------------------",
"------------------------------------------------------------------------------------------------",
"------------------------------------------------------------------------------------------------",
"------------------------------------------------------------------------------------------------",
"------------------------------------------------------------------------------------------------",
"------------------------------------------------------------------------------------------------",
"------------------------------------------------------------------------------------------------",
"------------------------------------------------------------------------------------------------",
"------------------------------------------------------------------------------------------------",
"------------------------------------------------------------------------------------------------",
"------------------------------------------------------------------------------------------------",
"------------------------------------------------------------------------------------------------",
"------------------------------------------------------------------------------------------------"
};
