/* XPM */
static char *sprite_223_front[] = {
/* columns rows colors chars-per-pixel */
"96 96 12 1 ",
"  c #101010",
". c #7B2929",
"X c #295A83",
"o c #7B7B83",
"O c #628BA4",
"+ c #8BACBD",
"@ c #ACACB4",
"# c #83C5B4",
"$ c #B4DED5",
"% c #D5F6F6",
"& c white",
"* c None",
/* pixels */
"************************************************************************************************",
"************************************************************************************************",
"************************************************************************************************",
"************************************************************************************************",
"************************************************************************************************",
"************************************************************************************************",
"************************************************************************************************",
"************************************************************************************************",
"************************************************************************************************",
"************************************************************************************************",
"************************************************************************************************",
"************************************************************************************************",
"************************************************************************************************",
"************************************************************************************************",
"************************************************************************************************",
"************************************************************************************************",
"************************************************************************************************",
"************************************************************************************************",
"************************************************************************************************",
"************************************************************************************************",
"************************************************************************************************",
"************************************************************************************************",
"************************************************************************************************",
"************************************************************************************************",
"************************************************************************************************",
"************************************************************************************************",
"************************************************************************************************",
"************************************************************************************************",
"************************************************************************************************",
"************************************************************************************************",
"**************************************************************OOO*******************************",
"***********************************OX************************O##X*******************************",
"**********************************X%X***********************O#XX********************************",
"**********************************X%#X*********************O#X$O********************************",
"**********************************X$$XXXX*****OOXXX********O#X$O********************************",
"**********************************X$%%%%$   O#$$$$#XX*****O#O$O*********************************",
"********************************OO$%%%%%%%$$  $$$$$$#X****O#O%O*********************************",
"*******************************O%%%%%%%OO$$$$$O$$$+OOX **O#O%%%O********************************",
"******************************O$%%%%%%O&&O$$$$$$$$OOOXX O##O%%#X********************************",
"******************************X+..X%$+&@o&O$$$$$$$$#OOXX #O%##O*********************************",
"****************************** &..& ++& &&O$$$$$$$$$$$++ ###$$X*********************************",
"******************************* .... O&o &O++$$$$$$$+OXXX O$$O**********************************",
"******************************** ... +%&&&O$$+++XXX$OOXXX XO$X**********************************",
"******************************** ... $+&&O$$$$XX%% $$OOXXX *XX**********************************",
"*******************************  ...X$$+O$$$OX$%% $$$$#++X *************************************",
"******************************* &.&X$$$$$$$O#$$# $++$#++++ *************************************",
"******************************** $$$$$$$$$$$$OX $$$$OO++++ *************************************",
"*********************************   $$$$$$$$$$$$$$$$##OOO+ *************************************",
"************************************ XX#$$$$$$$$$$$##++++ **************************************",
"***************************************XX#OO$$$$$$###++++ ***OOOOO******************************",
"*****************************************XX#X$$$####++++X**OO$%%%O******************************",
"****************************************** #X######++++XOOO$%%%%O*******************************",
"****************************************** $#XXX+++++OOO#$$$%%%O********************************",
"****************************************** $#X**XX  XX##OOO$$%#O********************************",
"****************************************** $#$X*******X#$$$OO#%O********************************",
"******************************************* #$ ********X$O$%$###O*******************************",
"******************************************* $# ********X#$O%%%%%$O******************************",
"********************************************  **********X$O$%%%%%O******************************",
"********************************************************X$$O%%%%%O******************************",
"*********************************************************X$$O#%%#*******************************",
"*********************************************************X#$$$##O*******************************",
"**********************************************************X$$$$$O*******************************",
"***********************************************************XX$$$$O******************************",
"*************************************************************XX$$O******************************",
"***************************************************************X$O******************************",
"****************************************************************XX******************************",
"************************************************************************************************",
"************************************************************************************************",
"************************************************************************************************",
"************************************************************************************************",
"************************************************************************************************",
"************************************************************************************************",
"************************************************************************************************",
"************************************************************************************************",
"************************************************************************************************",
"************************************************************************************************",
"************************************************************************************************",
"************************************************************************************************",
"************************************************************************************************",
"************************************************************************************************",
"************************************************************************************************",
"************************************************************************************************",
"************************************************************************************************",
"************************************************************************************************",
"************************************************************************************************",
"************************************************************************************************",
"************************************************************************************************",
"************************************************************************************************",
"************************************************************************************************",
"************************************************************************************************",
"************************************************************************************************",
"************************************************************************************************",
"************************************************************************************************",
"************************************************************************************************",
"************************************************************************************************",
"************************************************************************************************"
};
