/* XPM */
static char *sprite_137_back[] = {
/* columns rows colors chars-per-pixel */
"96 96 14 1 ",
"  c black",
". c #7B2941",
"X c #085A73",
"o c #C5395A",
"O c #FF6262",
"+ c #0883A4",
"@ c #08ACD5",
"# c #5ABDE6",
"$ c #EEAC9C",
"% c #8BD5EE",
"& c #C5C5C5",
"* c #F6D5C5",
"= c white",
"- c None",
/* pixels */
"------------------------------------------------------------------------------------------------",
"------------------------------------------------------------------------------------------------",
"------------------------------------------------------------------------------------------------",
"------------------------------------------------------------------------------------------------",
"------------------------------------------------------------------------------------------------",
"------------------------------------------------------------------------------------------------",
"------------------------------------------------------------------------------------------------",
"------------------------------------------------------------------------------------------------",
"------------------------------------------------------------------------------------------------",
"------------------------------------------------------------------------------------------------",
"------------------------------------------------------------------------------------------------",
"------------------------------------------------------------------------------------------------",
"------------------------------------------------------------------------------------------------",
"------------------------------------------------------------------------------------------------",
"------------------------------------------------------------------------------------------------",
"------------------------------------------------------------------------------------------------",
"------------------------------------------------------------------------------------------------",
"------------------------------------------------------------------------------------------------",
"------------------------------------------------------------------------------------------------",
"------------------------------------------------------------------------------------------------",
"------------------------------------------------------------------------------------------------",
"------------------------------------------------------------------------------------------------",
"------------------------------------------------------------------------------------------------",
"------------------------------------------------------------------------------------------------",
"------------------------------------------------------------------------------------------------",
"------------------------------------------------------------------------------------------------",
"------------------------------------------------------------------------------------------------",
"------------------------------------------------------------------------------------------------",
"------------------------------------------------------------------------------------------------",
"------------------------------------------------------------------------------------------------",
"--------------------------------------------------oooooooooo------------------------------------",
"----------------------------------------------oooo**********oo++--------------------------------",
"---------------------------------------------.************==***%++XX----------------------------",
"--------------------------------------------.........OOOO====OO@@@@@X---------------------------",
"-------------------------------------------.ooooooooo.OOO=====OO@@++X---------------------------",
"-------------------------------------------.ooooooooooOOOO== =OO++++X---------------------------",
"------------------------------------------.ooooooooooo.OOO====Oo+++X----------------------------",
"------------------------------------------.ooooooooooooOOOO==&oo++X-----------------------------",
"-----------------------------------------.ooooooooooooo.OO.o&ooo+X------------------------------",
"-----------------------------------------.oooooooooooooo..ooooooX-------------------------------",
"------------------------------------------.ooooooooooooo.oooooo.--------------------------------",
"----------------------------+X------------ oooooooooooo.ooooo..---------------------------------",
"---------------------------+%%X------------.ooooooooooo.ooo. -----------------------------------",
"---------------------------X#++X----------- oooooooooo.oo. -------------------------------------",
"---------------------------X#+++X-----------            .---------------------------------------",
"----------------------------X@+++X-------------.ooooo.oo++--------------------------------------",
"----------------------------X#++++X----------.o$$ooo.ooO+#+-------------------------------------",
"-----------------------------X@++++X--------o$$$$$$OoOOOO@#+------------------------------------",
"-----------------------------X#+++++X-----.o$$$$$$$oOOOOO+##+-----------------------------------",
"------------------------------X#+++++X---o$$$$$$$$OoOOOOO++##+----------------------------------",
"------------------------------X#@+++++ -o$$$$$$$$$oOOOOOOOO@+#+---------------------------------",
"-------------------------------X#@+++++ ..$$$$$$$oOOOOOOOOOOO..---------------------------------",
"------------------------------- ##X+++++ o..$$$$OoOOOOOOOOO..o.---------------------------------",
"--------------------------------X##X+++++ oo..$$.OOOOOOOO..ooo.---------------------------------",
"-------------------------------- ##X++++++ ooo. OOOOOOO.   Xo.----------------------------------",
"---------------------------------X##X++++++ ooo.OOOOO.. @X@@XXX---------------------------------",
"--------------------------------- ###X++++++ ooo.OO..o @@@X@@@%++-------------------------------",
"----------------------------------X##X++++++ ooo ..oo @@@@@X@@@%%++-----------------------------",
"---------------------------------- ###X+++++ ooo ooo @@@@@@@X@@@%%%++---------------------------",
"-----------------------------------X###X++++ ooo.oo @@@@@@@@  XX@%%%%+--------------------------",
"----------------------------------- ###X++++ oo.oooXX@@@@@@X++++XXXXX --------------------------",
"------------------------------------ ###X++ ooo.oooX+XX@@@X++++++++++ --------------------------",
"------------------------------------- X#X+ ..oo.o. X+++XX +++++++++X ---------------------------",
"---------------------------------------   ---..  --X+++++ +++++++X -----------------------------",
"--------------------------------------------------- +++++ +++++X -------------------------------",
"----------------------------------------------------  +++ +++X ---------------------------------",
"------------------------------------------------------  + +X -----------------------------------",
"--------------------------------------------------------   -------------------------------------",
"------------------------------------------------------------------------------------------------",
"------------------------------------------------------------------------------------------------",
"------------------------------------------------------------------------------------------------",
"------------------------------------------------------------------------------------------------",
"------------------------------------------------------------------------------------------------",
"------------------------------------------------------------------------------------------------",
"------------------------------------------------------------------------------------------------",
"------------------------------------------------------------------------------------------------",
"------------------------------------------------------------------------------------------------",
"------------------------------------------------------------------------------------------------",
"------------------------------------------------------------------------------------------------",
"------------------------------------------------------------------------------------------------",
"------------------------------------------------------------------------------------------------",
"------------------------------------------------------------------------------------------------",
"------------------------------------------------------------------------------------------------",
"------------------------------------------------------------------------------------------------",
"------------------------------------------------------------------------------------------------",
"------------------------------------------------------------------------------------------------",
"------------------------------------------------------------------------------------------------",
"------------------------------------------------------------------------------------------------",
"------------------------------------------------------------------------------------------------",
"------------------------------------------------------------------------------------------------",
"------------------------------------------------------------------------------------------------",
"------------------------------------------------------------------------------------------------",
"------------------------------------------------------------------------------------------------",
"------------------------------------------------------------------------------------------------",
"------------------------------------------------------------------------------------------------",
"------------------------------------------------------------------------------------------------"
};
