/* XPM */
static char *sprite_479_front[] = {
/* columns rows colors chars-per-pixel */
"96 96 13 1 ",
"  c #101010",
". c #7B3921",
"X c #C64A18",
"o c #EF7329",
"O c #0842AD",
"+ c #317BEF",
"@ c #29ADBD",
"# c #5AC6BD",
"$ c gray74",
"% c #FFAD84",
"& c #BDF7EF",
"* c white",
"= c None",
/* pixels */
"================================================================================================",
"================================================================================================",
"================================================================================================",
"================================================================================================",
"================================================================================================",
"================================================================================================",
"================================================================================================",
"================================================================================================",
"================================================================================================",
"================================================================================================",
"================================================================================================",
"================================================================================================",
"================================================================================================",
"================================================================================================",
"================================================================================================",
"================================================================================================",
"================================================================================================",
"================================================================================================",
"================================================================================================",
"================================================================================================",
"================================================================================================",
"================================================================================================",
"================================================================================================",
"================================================================================================",
"========================================================#=======================================",
"========================================================#=======================================",
"=======================================================##=======================================",
"======================================================#&#=======================================",
"=====================================================#&&#=======================================",
"=====================================================#&&&#======================================",
"=====================================================#X&&#======================================",
"====================================================#&X.&#======================================",
"====================================================#&X.&#======================================",
"====================================================#&X.&#======================================",
"===================================================#&Xo.&#======================================",
"===================================================#&Xo.&#======================================",
"===================================================#&Xo.&#======================================",
"=================================================#&&XoX&#=======================================",
"=================================================#&Xooo&#=======================================",
"================================================##&.ooo&&#======================================",
"==============================================##&&&.oooX&#======================================",
"============================================##&&&XXooooX&&#=====================================",
"============================================&&&XXooooooX.&&#====================================",
"===========================================#&&X%*%ooooooo.&&#===================================",
"===========================================&&X%**%oooXoooo &&#==================================",
"==========================================#&&$X%%oooo$$*Xoo &#==================================",
"=========================================#&O+*oooooX*O+$ooo.&&#=================================",
"=========================================#&+O Xoooo OOO*ooo.&#==================================",
"=========================================#&*O*ooooo*OOO*ooo &#==================================",
"=========================================#&.+$ooooo*OOO XoX &#==================================",
"==========================================#&*ooooooo*O$.XXX &#==================================",
"==========================================##.X.ooo X.$.XXXX &#==================================",
"=========================================@@# XX.  XXX.XXXX.&#===================================",
"=================================@@@=@@@@#### XXXXXXXXXXXX @#===================================",
"================================@@#@###&##@@@& .XXXXXXXXX ###===================================",
"=================================@#&***&@@===##&. XXXXX. @@@@===================================",
"==================================##&&#@======#&&.XX. &&#==@#@@=================================",
"==================================@##@@======#&&.XXXX&&#====###@@===============================",
"===================================@@#@======#&&.XXXX.&&#===@#&*#===============================",
"=====================================##@======#&&.XXX &&#====@#**@@=============================",
"====================================@#&#@======#&&&&.&&#======@#&&#@@===========================",
"==================================@@#***#@@=====#&&&&##========@#**&@@==========================",
"=================================@##&***&##=====#&&&&#==========#*&##@==========================",
"================================@#&*****###@=====#&&#=========@####@@===========================",
"==============================@@#&#**####@@======#&##=======@@#&##@=============================",
"============================@@@#**####@@@=======##&#======@@##***@==============================",
"============================###*&##@@@===========#========@##***##@=============================",
"===========================@@##@@@@========================##&***##=============================",
"=============================@@============================@###***#@============================",
"============================================================@@##**##============================",
"==============================================================@#&###@===========================",
"===============================================================###**#===========================",
"===============================================================@@@#*#===========================",
"=================================================================@@##@==========================",
"===================================================================@&#@=========================",
"====================================================================##@=========================",
"====================================================================@##@========================",
"=====================================================================@@=========================",
"================================================================================================",
"================================================================================================",
"================================================================================================",
"================================================================================================",
"================================================================================================",
"================================================================================================",
"================================================================================================",
"================================================================================================",
"================================================================================================",
"================================================================================================",
"================================================================================================",
"================================================================================================",
"================================================================================================",
"================================================================================================",
"================================================================================================",
"================================================================================================",
"================================================================================================",
"================================================================================================"
};
