/* XPM */
static char *sprite_244_back[] = {
/* columns rows colors chars-per-pixel */
"96 96 14 1 ",
"  c #101010",
". c #522900",
"X c #6A6A6A",
"o c #E62900",
"O c #FF7B29",
"+ c #83524A",
"@ c #C59400",
"# c #FFCD00",
"$ c #B4834A",
"% c #CDA462",
"& c #ACACAC",
"* c #D5D5D5",
"= c white",
"- c None",
/* pixels */
"------------------------------------------------------------------------------------------------",
"------------------------------------------------------------------------------------------------",
"------------------------------------------------------------------------------------------------",
"------------------------------------------------------------------------------------------------",
"------------------------------------------------------------------------------------------------",
"------------------------------------------------------------------------------------------------",
"------------------------------------------------------------------------------------------------",
"------------------------------------------------------------------------------------------------",
"------------------------------------------------------------------------------------------------",
"------------------------------------------------------------------------------------------------",
"------------------------------------------------------------------------------------------------",
"------------------------------------------------------------------------------------------------",
"------------------------------------------------------------------------------------------------",
"----------------------------------------------------------.++++---------------------------------",
"-----------------------------------------------------------.%%%+++----+-------------------------",
"------------------------------------------------------------.$%%%%+--+%.------------------------",
"----------------------------------------------------++---++++.$$%%%.+%%.------------------------",
"----------------------------------------------------.%+++%%%%%$$$$%$%%$.--..--------------------",
"----------------------------------------------------- %%%%%%$$$$$$$%+  $..# --------------------",
"------------------------------------------------------  $$$..$$$$%%%%%% .#@ --------------------",
"-------------------------------------------------------$  .$$$$$+$%%%%%% @ ---------------------",
"-----------------------------------------------------$$%$$$$$$$$$++%%$$%% ....------------------",
"---------------------------------------------------++%%$$$$$$$$$$$$+%%%.% OOO.------------------",
"--------------------------------------------------.%%%$$$$+$$$$$$$%.$%%$.%   -------------------",
"---------------------------------------------------  .$$$..+$$$$$%%%.%%%.$%%.-------------------",
"----------------------------------------------------.$$. **&.$$$$%%%.$%%$.$.--------------------",
"-----------------------------------------------XXXXX   *****&.$$$$%%%.$$$...--------------------",
"---------------------------------------------XX*====XX*******..$$$%%%.$$$ .O..------------------",
"-------------------------------------------- *========&******.+.$$$%$ $$$ oOOO..----------------",
"------------------------------------------- ===========&&*****.+.$$$$ $$ ooooOOo.---------------",
"------------------------------------------ *==========******** +.$$$.++$.oooo    ---------------",
"--------------------------------- X------- **=======*********** +.$$ +++.oo  -------------------",
"--------------------------------- *XX---- ****====*************.+.$.+++++oo --------------------",
"---------------------- XXXX------X***XX-- *********************.++.++++++.o --------------------",
"---------------------- &***XXXXX-X   **  *&*******=*=*********&.+++++++++.o --------------------",
"----------------------- &*******  *== XX********==*=*=********&& ++++++++.o.--------------------",
"------------------------ &***** *======*******=====*=********&&& ++++++++$.---------------------",
"------------------------X&&***X*========*****=======********&&& +.+++++$%%.---------------------",
"------------------------- &&**X=========****========*****&&&&&& +.+++$%%%%%+--------------------",
"-----------------------XXX && **=======*****========****X&&&&&& +.$$$$%%%%%+--------------------",
"--------------------XXXXX&& & ****===*******=======****X&&&&&&&& .$$$$%%%%%+--------------------",
"-------------------- &&**X  X ***************====******X&&&&&&&& +.$$$%%%%%%+-------------------",
"--------------------- &&***&&& *************************X&&&&&&& +.$$$%%%%%%.-------------------",
"---------------------- &&&**** **************************X&&&&& ++.$$$%%%%%%%+------------------",
"-------------------XXXX  &**** **X***********************  &&& XX   $$%%%%%+%.------------------",
"------------------- &&&&X &** &XX************************ &   ****** $$%%%%%..------------------",
"-------------------- X&&&    XX************************** &&&****&X $$$%%%%%.-------------------",
"----------------------X  ==***************************** &&&  &&X .$$$$%%%%%.-------------------",
"---------------------- ======***************&*********  &*====  +.$$$$$%%%%.--------------------",
"--------------------- &=======*************&&&******& &&&&XX*===   $$$.$%%%.--------------------",
"--------------------- *=======***********&&&&&&&***& &&&&&&&&&XX*== $. $%%$.--------------------",
"--------------------- =======**********&&&&&&X&&&&&& &&&&&&&&&&&&  $$.$.$%$.--------------------",
"---------------------X*=====************&&&&&X&&&&& &&&&&&&&&    .$$.$$.$$.---------------------",
"---------------------X&*==**************&&&&X&&&   &&&&&&    XX  $.$ $$ $$ ---------------------",
"----------------------X*****************&&X     &&&&&&   XXXXXXXX $ $$$ $ ----------------------",
"---------------------- *********&******&&X + &&&&&&&&&& XXXXX    $$$$$$$ -----------------------",
"-------------XXX------ ********&&&****&&& + X  X&&&&&&&& X   +$$$$$$$$$$ -----------------------",
"------------X===X----- *&*****&&&&&&&&&& ++ XXXX   &&&&&& +++++$$$$$$$$ ------------------------",
"-----------X=====X -- &X******&&&&&&&&&& +++  XXXXX    &&& ..++$$$$$$$$ ------------------------",
"----------X*==****X  XX*******&&&&&&&&& $$$+++  XXXX XX    - ..+$$$$$$..X-----------------------",
"----&X----X**&&X*************&&&&&&&&& $$$$$$+++  XXX XXXXX - X       X&*X----------------------",
"---&=X----- &&X*************&&&&&&&&  $$$$$$$$++++  XX XXXX - XXXXX&&&&XX ----------------------",
"--X=X------ &&X  **********  &&&&   .$$$$$$$$$$++ ++   XXX  - XXXXXXXXXXX ----------------------",
"--X=X----- &&& -- *******  XX    +++.$$$$$$$$$$++ +++++    --.XXXXXXXXXXX ----------------------",
"-- ** --  &&&&& - ****** XXXXXXXX +..    $$$$$$$+ +++++++$.---  XXXXXX  .-----------------------",
"--- &&  &&&&&&& --  X** .   XXXXXX &&&&&X  $$$$$ ++++++++$+----.      $$$.----------------------",
"----  &&  &&&  -----   +++++  XXX &&&&&&&&X $$$$ ++++++++$$.---.$$$$$$$$%.----------------------",
"------  --   --------.++++++++ XX &&XXX&&&&X $  .+++++++++$. --.$$$$$$$%%%.---------------------",
"--------------------- +++++++++.X X     X&&& .-.++++++++++$$ --.$$$$$$$$%%%..-------------------",
"--------------------.++++++++++. - $$$$$  X&X - ++++++.++++..X--.$$$$$$$%%%%% ------------------",
"-------------------- +++++++++++.- $$$$$$$ XX --   ++ && +.==X-- $$$$$$$$%%% =X-----------------",
"-------------------- ++++++++++ - $$$$$$$$+X  -- &&  &&&&&*== --.$$$$$$$$ $%%.= ----------------",
"-------------------.+++++++++++ - $$$$$$$$$  ----  &&&&&&&&  -- $$$$$$$$$$  .== ----------------",
"------------------.+++++++++++++. $$$$$$$$$$ ------        ----.$$$. $.$$$.&&&* ----------------",
"------------------  +++ ++++++++ $$$$$$$$$$$ -------------------. &&& & ..&&&& -----------------",
"--------------------.+ .+.+++ +  $$$$$$$$$$$$ --------------------  &&&&&&&   ------------------",
"-------------------- &&&. ++. .& $$$$$$$$$$$$.X---------------------       ---------------------",
"--------------------- &&&&  &&&& $$$$$$$$$$$.=X-------------------------------------------------",
"----------------------  &&&&&&   $$$$$.$$$$  *= ------------------------------------------------",
"------------------------      -- $.$$ .$$ .&&&= ------------------------------------------------",
"---------------------------------    &&  &&&&& -------------------------------------------------",
"----------------------------------- &&&&&&&&  --------------------------------------------------",
"------------------------------------        ----------------------------------------------------",
"------------------------------------------------------------------------------------------------",
"------------------------------------------------------------------------------------------------",
"------------------------------------------------------------------------------------------------",
"------------------------------------------------------------------------------------------------",
"------------------------------------------------------------------------------------------------",
"------------------------------------------------------------------------------------------------",
"------------------------------------------------------------------------------------------------",
"------------------------------------------------------------------------------------------------",
"------------------------------------------------------------------------------------------------",
"------------------------------------------------------------------------------------------------",
"------------------------------------------------------------------------------------------------",
"------------------------------------------------------------------------------------------------",
"------------------------------------------------------------------------------------------------"
};
