/* XPM */
static char *sprite_459_front[] = {
/* columns rows colors chars-per-pixel */
"96 96 13 1 ",
"  c #202029",
". c #295A5A",
"X c #39737B",
"o c #5A4A41",
"O c #735A4A",
"+ c #8B7352",
"@ c #6A7B83",
"# c #4A9C8B",
"$ c #94A4AC",
"% c #8BD5AC",
"& c #CDDEDE",
"* c white",
"= c None",
/* pixels */
"================================================================================================",
"================================================================================================",
"================================================================================================",
"================================================================================================",
"================================================================================================",
"================================================================================================",
"================================================================================================",
"================================================================================================",
"================================================================================================",
"================================================================================================",
"================================================================================================",
"================================================================================================",
"================================================================================================",
"================================================================================================",
"================================================================================================",
"================================================================================================",
"================================================================================================",
"================================================================================================",
"================================================================================================",
"================================================================================================",
"================================================================================================",
"================================================================================================",
"================================================================================================",
"==================================================$@============================================",
"=================================================$**@===========================================",
"============================================$@==$*** ===========================================",
"===========================================$**@=@***& =$@=======================================",
"===========================================$*&&@****& @*&@======================================",
"==========================================$**&&@****&@**& ======================================",
"==========================================$**&@****&&@**& ======================================",
"=========================================$***&@****&$***&& =====================================",
"========================================$***&&$****&$***&& =====================================",
"=======================================$****&$****&$****&& =====================================",
"======================================$*****&$****&$****&&& ====================================",
"=====================================$**&***************&&& ====================================",
"====================================$***$***&**********&&&&& ===================================",
"===================================$***$****$**&***&***&$&&& ===================================",
"==================================$****$***$***$***$***&$&&&& ==================================",
"================================= ****$****$***$***$***&&$&&& ==================================",
"================================= &&**$***$****$***$**&&&$&&&& =================================",
"================================== &&$&***$****$***&$&&&&&$&&& =================================",
"===================================  $&&&$&***$****&@&&&&&@&&$$ ================================",
"===================================== @&&$&&&&$&*&&&@&&&&&$@$$$ ================================",
"===================================..@$   @&&&$&&&&$$@$$$$$@$@ =================================",
"=================================..*@$$@&X @   @$$$$$@$$@     ==================================",
"==============================...***@*&@*# $$$$@ X       $$ ====================================",
"============================..*****@&**@**@$$$$$ X* $$$$$$$$ .==================================",
"=========================..@******&@&***@@***$$$@**@$$$$$&&&&&..================================",
"======================..@*******&&@&*************@@$$$&&&&&&&&&$..==============================",
"================......##******&&&&o&******************&&&$&&&&&&&&..============================",
"================.############&&&&@o&*******************&&&@&&&&&&&&&..==========================",
"=================.##########&&&& o*****+O**************&&&& &&&&&&&&&&..========================",
"=================.#####.###&&&& =oo***o+O***************&&&& &****&&&&&#.=======================",
"==================.###.###&&&& =o++o*o+++O******OO******oo&&& ******%####..=====================",
"=================.###.##XXXXX ==o+++o+++++o****o++O****oOOo&&& *****#######...==================",
"================.###.#XX  XX === +++++++++o***o++++&**oOOOOo&o  %***##########...===============",
"===============.###X    XXX ==== ++++++++++o*o+++++o*oOOOOOOoO = #%%######.#XXXX ===============",
"===============.XXXXXXXXXX ===== +++++++++++o+++++++oOOOOOOOOO == ########.XXXX ================",
"================     XXXX ====== +++++++++++++++++++OOOOOOOOOO == ########.XX  =================",
"==================== XXXX ====== O++++oo+++++++++++OOOOOOOOOOO === ###XX##X X ==================",
"==================== XXX ======== O++o++o++++++++OOOOOOOOOOOOO === ###.XXXX X ==================",
"===================== XX ======== OOo++++o++++++oOOOOOOOooOOOO ==== ###  XX XX =================",
"===================== X ========= OoOOO+++o++OOO+oOOOOOo+OoOO ===== ##XXX  XXX =================",
"=====================  =========== OOOOOOOOoOOOoOOoOOOo+OOOoO  ==== ##.XXXXXXX =================",
"================================== oOOOOOOOOoOoOOOOoOoOOOOOOo X === #XX   XXXX =================",
"=================================== OOOOOOOOOoOOOOOOoOOOOOOO X. .== #X ===    ==================",
"===================================o OOOOOOOOOOOOOOOOOoo  OO X.XX..   ==========================",
"==================================o++ OOOOOOOOOOOOOOo OOOO oXXX.XXX.============================",
"=================================oOO++  OOOOOOOOOOoo OO++++ XXX.XXX ============================",
"================================ +++o+OO  OOOOOOooo oO+++OOo X.XX  =============================",
"================================ ++OoOOooo   oooooo oO++O+++ X   ===============================",
"=================================o     ======         Oo+++++ ==================================",
"======================================================  O+++O ==================================",
"========================================================     ===================================",
"================================================================================================",
"================================================================================================",
"================================================================================================",
"================================================================================================",
"================================================================================================",
"================================================================================================",
"================================================================================================",
"================================================================================================",
"================================================================================================",
"================================================================================================",
"================================================================================================",
"================================================================================================",
"================================================================================================",
"================================================================================================",
"================================================================================================",
"================================================================================================",
"================================================================================================",
"================================================================================================",
"================================================================================================",
"================================================================================================",
"================================================================================================",
"================================================================================================"
};
