/* XPM */
static char *sprite_451_front[] = {
/* columns rows colors chars-per-pixel */
"96 96 13 1 ",
"  c #101010",
". c #292931",
"X c #295A62",
"o c #4A416A",
"O c #414173",
"+ c #625AA4",
"@ c #6A6AB4",
"# c #1894B4",
"$ c #B4B4D5",
"% c #949CEE",
"& c #D5CDE6",
"* c #DEEEF6",
"= c None",
/* pixels */
"================================================================================================",
"================================================================================================",
"================================================================================================",
"================================================================================================",
"================================================================================================",
"================================================================================================",
"================================================================================================",
"================================================================================================",
"================================================================================================",
"================================================================================================",
"================================================================================================",
"================================================================================================",
"================================================================================================",
"================================================================================================",
"================================================================================================",
"================================================================================================",
"================================================================================================",
"================================================================================================",
"================================================================================================",
"================================================================================================",
"================================================================================================",
"================================================================================================",
"================================================================================================",
"================================================================================================",
"================================================================================================",
"=============================================================XXX================================",
"=============================================================X**  ==============================",
"==============================================================X**& =============================",
"===================================================XX=====OOO==X**& ============================",
"==================================================X*X===OO@@@  X**&X ===========================",
"=================================================X*X===O@@@@@@X***&$ ===========================",
"================================================X**X==O@%%@@@X$&&&$$ ===========================",
"================================================X**X==O@%%@@@$$$$$$ ============================",
"=============================================== &**&X.@@@@@@@$$$$$X ============================",
"=============================================== $&&$$.@@@@@@@ $$$  =============================",
"=============================================== $$$$$.O@@@@OOO    ==============================",
"================================================ $$$$$.OOOOOOOOO ===============================",
"================================================= X$$X.OOOOOOOOO OOO============================",
"===================================================    .OOOOOOO.@@%%OOO=========================",
"========================================================..OOO..@@%%%%%%O========================",
"==========================================================   @@@@%%%O@@O========================",
"===========================================================O@@@@%@OO@@ =========================",
"===========================================================O@@@OOO@@@ ==========================",
"====================== XX==OOO================= XX==OOO====O@OO@@@@@ ===========================",
"====================== **XX%%%OO=============== **XX%%%OO=== @@@@@..O..=========================",
"======================  *** %%%%O==============  *** %%%%O===  ...OO+++..=======================",
"======================= &*&$ %%%% ============== &*&$ %%%% ===.OOOO+++++O.======================",
"=======================O &$$ %%X%O==========XX==O &$$ %%%% ==.OOOO+++..OO.======================",
"======================O% $$ @%X#X@ ========X#X= % $$ @%%%%% =.OOOO...OOO.=======================",
"====================== %%  @%%X#X@ =ooooooX##X= %%  @%%%%%% =.   .OOOOO.========================",
"====================== @%%%%%%X##X oo%@%%%X##Xo @%%%%%%%%%@ .%%%%  OOO.=========================",
"=======================O@%%%%@X##Xo%%@%@%X###X%OO@@%%%%%@@ .%%%%%%% ..==========================",
"======================= @@@@@@X##X%%@%%@%X###X%% @@@@@@@@@ %OOO%%%%% ===========================",
"======================== @@@@@X# #X@%%%%@# #X@%%% @@@@@@@  O@@@OOO%%@ ==========================",
"========================= O@@@ X##X%%%%%X###X%%%%%  @@@  =O@@@@@@@OO%O==========================",
"===========================OO @X##X%%%%%X##X%%%%%%@    === ..O@@@@@@O% =========================",
"============================XX%%XXX%%%%%XXX%%%%%%@@ =====.++++ O@@@@@@O=========================",
"===========================X**X%%%%%%%%%%%%%%XXX@@@ ====.O..++++ @@@OO==========================",
"==========================X$&** o%%@oo%%%oo X***X@o ..==.OOO..+++ OO============================",
"========================== $$&** o@o@@o@o@ *****$@ O++.  OOOOO.++.==============================",
"========================== X$$oo@@o@@@@o@ ***&&$$  +O+++..OOOOO.++.=============================",
"===========================  $$ @@@@@@@@@@ooo$$$X +++O+++ OOO+O+O+.=============================",
"=============================    o@@@@@@@@@o$$$  O+..O+..O .+O+O+O.=============================",
"=================================   o@@@@@@o   OOO.@@.O@@  =......==============================",
"==================================O@       OOOOOOO@@@@ @@@O ====================================",
"================================= @@@O OOO+O+OOOOO.@@%@ @%% ====================================",
"================================ O%@  O.O+O+O+OOOOO %%%  %%% ===================================",
"================================ %% =.@@  .O+OOO     %%% O%% ===================================",
"================================ %O =.@..==     ==== O%%   % ===================================",
"=================================  ===..============= %O =  ====================================",
"======================================================  ========================================",
"================================================================================================",
"================================================================================================",
"================================================================================================",
"================================================================================================",
"================================================================================================",
"================================================================================================",
"================================================================================================",
"================================================================================================",
"================================================================================================",
"================================================================================================",
"================================================================================================",
"================================================================================================",
"================================================================================================",
"================================================================================================",
"================================================================================================",
"================================================================================================",
"================================================================================================",
"================================================================================================",
"================================================================================================",
"================================================================================================",
"================================================================================================",
"================================================================================================",
"================================================================================================",
"================================================================================================",
"================================================================================================"
};
