/* XPM */
static char *sprite_086_front[] = {
/* columns rows colors chars-per-pixel */
"96 96 14 1 ",
"  c #101010",
". c #6A5A10",
"X c #8B3120",
"o c #D5735A",
"O c #B49441",
"+ c #DEC573",
"@ c #415283",
"# c #949CB4",
"$ c #FFACAC",
"% c #F6E6BD",
"& c #D5CDEE",
"* c #E6E6F6",
"= c white",
"- c None",
/* pixels */
"------------------------------------------------------------------------------------------------",
"------------------------------------------------------------------------------------------------",
"------------------------------------------------------------------------------------------------",
"------------------------------------------------------------------------------------------------",
"------------------------------------------------------------------------------------------------",
"------------------------------------------------------------------------------------------------",
"------------------------------------------------------------------------------------------------",
"------------------------------------------------------------------------------------------------",
"------------------------------------------------------------------------------------------------",
"------------------------------------------------------------------------------------------------",
"------------------------------------------------------------------------------------------------",
"------------------------------------------------------------------------------------------------",
"------------------------------------------------------------------------------------------------",
"------------------------------------------------------------------------------------------------",
"------------------------------------------------------------------------------------------------",
"------------------------------------------------------------------------------------------------",
"------------------------------------------------------------------------------------------------",
"------------------------------------------------------------------------------------------------",
"------------------------------------------------------------------------------------------------",
"------------------------------------------------------------------------------------------------",
"------------------------------------------------------------------------------------------------",
"------------------------------------------------------------------------------------------------",
"------------------------------------------------------------------------------------------------",
"------------------------------------------------------------------------------------------------",
"------------------------------------------------------------------------------------------------",
"------------------------------------------------------------------------------------------------",
"------------------------------------------@-----------------------------------------------------",
"-----------------------------------------@*@----------------------------------------------------",
"-----------------------------------------#*@----------------------------------------------------",
"----------------------------------------@**& ---------------------------------------------------",
"----------------------------------------@**&@---------------------------------------------------",
"---------------------------------------@#**&&  @------------------------------------------------",
"-------------------------------------@#****&&#&&@@----------------------------------------------",
"------------------------------------@*******&*****@---------------------------------------------",
"-----------------------------------@##************&@--------------------------------------------",
"----------------------------------@#**&******##@**&&@-------------------------------------------",
"----------------------------------@* #******#***@**&@-------------------------------------------",
"----------------------------------#@=@******&  &****& ------------------------------------------",
"---------------------------------#*  #******@=  ****& ------------------------------------------",
"---------------------------------@*#@*******@ @ ****&@--------@@@@------------------------------",
"---------------------------------...#*@#****&@@&****&& ------@##&&#@----------------------------",
"--------------------------------.O%%O   &*#OOOOO***&&& -----#**&##&&@---------------------------",
"-------------------------------@#%%%%+.OO+%%%%%+.**&&& ----#@##**&#&#---------------------------",
"-------------------------------@=@%%%%%%%%%%%##%%.&&&& ---#&***##*&&&@--@@@@--------------------",
"------------------------------- =&@++..O%%%%#=@%++.&&& ---@******&&&& @#****#@------------------",
"------------------------------- && .oooXXX+#== +++.&&&@--- &&*****&&@********&@-----------------",
"-------------------------------- @+X$$X$$o @== +++ &#&& --- #&&&**&#*******&&&&@----------------",
"---------------------------------.X$$$o$$$X &# ++. #&&& ----  @#&***********##&#@---------------",
"----------------------------------X$$$$$$$X @@++O #&&&&@------- @&********##&&#& ---------------",
"----------------------------------X$$$$$$oXOOO.  &&&&&&& -------- **&&&&&&&&#&&@ ---------------",
"-----------------------------------X$$$$oX@@###&&&&&&&&&@--------@&&&&##&&&&&#&& ---------------",
"------------------------------------XXXXX&&&&&&&&&&&&&&&& ------@#&&&   @&&&&@&#@---------------",
"-------------------------------------#&&&&&&&&&&&&&&&&&&&& ----@#&&# ---- &&&@ @----------------",
"------------------------------------@***&&&&&&&&&&&&&&&&&&#@   ##&## -----   -------------------",
"-----------------------------------@*****&&&&&&&&&&&&&&&&&&#####&## ----------------------------",
"-----------------------------------@******&&&&&&&&&&&&&&&&&&####### ----------------------------",
"----------------------------------@*********&&&&&&&&&&&&&&&&####### ----------------------------",
"----------------------------------@***********&&&&&&&&&&&&&&####### ----------------------------",
"----------------------------------@*************&&&&&&&&&&&&####### ----------------------------",
"----------------------------------@*************&&&&&&&&&&&&####### ----------------------------",
"--------------------------------##@*************&&&&&&&&&#&#######@-----------------------------",
"-----------------------------###&&@*************&&&&&&&&&&#@@##### -----------------------------",
"---------------------------##*****#************&&&&&&&&****&#@@@@ ------------------------------",
"--------------------------#***##**&@**********&&&&&&&&**********#@@@----------------------------",
"--------------------------@&##****&#*********&&&&&&#&&**************@---------------------------",
"--------------------------@#****&&&&@&******&&&&&&&&@#&**********@#** --------------------------",
"---------------------------@**&&&&&#  &***&&&&&&&&&&& #&******##**&#& --------------------------",
"---------------------------@&&&&&&# -- &&&&&&&&&&&&&&&@@&&******#&*@& --------------------------",
"----------------------------@&&&@  ----  &&&&&&&&&&&&### &&&*****@&@& --------------------------",
"-----------------------------   ---------   &&&&&&&##   - @&&&&&&@&@ ---------------------------",
"--------------------------------------------         ------ @&&&#@ -----------------------------",
"-------------------------------------------------------------    -------------------------------",
"------------------------------------------------------------------------------------------------",
"------------------------------------------------------------------------------------------------",
"------------------------------------------------------------------------------------------------",
"------------------------------------------------------------------------------------------------",
"------------------------------------------------------------------------------------------------",
"------------------------------------------------------------------------------------------------",
"------------------------------------------------------------------------------------------------",
"------------------------------------------------------------------------------------------------",
"------------------------------------------------------------------------------------------------",
"------------------------------------------------------------------------------------------------",
"------------------------------------------------------------------------------------------------",
"------------------------------------------------------------------------------------------------",
"------------------------------------------------------------------------------------------------",
"------------------------------------------------------------------------------------------------",
"------------------------------------------------------------------------------------------------",
"------------------------------------------------------------------------------------------------",
"------------------------------------------------------------------------------------------------",
"------------------------------------------------------------------------------------------------",
"------------------------------------------------------------------------------------------------",
"------------------------------------------------------------------------------------------------",
"------------------------------------------------------------------------------------------------",
"------------------------------------------------------------------------------------------------",
"------------------------------------------------------------------------------------------------",
"------------------------------------------------------------------------------------------------"
};
