/* XPM */
static char *sprite_110_back[] = {
/* columns rows colors chars-per-pixel */
"96 96 10 1 ",
"  c #101010",
". c #62317B",
"X c #C5B429",
"o c #EED56A",
"O c #8B52AC",
"+ c #A46AB4",
"@ c #F6EE94",
"# c #BD8BCD",
"$ c #D5A4DE",
"% c None",
/* pixels */
"%%%%%%%%%%%%%%%%%%%%%%%%%%%%%%%%%%%%%%%%%%%%%%%%%%%%%%%%%%%%%%%%%%%%%%%%%%%%%%%%%%%%%%%%%%%%%%%%",
"%%%%%%%%%%%%%%%%%%%%%%%%%%%%%%%%%%%%%%%%%%%%%%%%%%%%%%%%%%%%%%%%%%%%%%%%%%%%%%%%%%%%%%%%%%%%%%%%",
"%%%%%%%%%%%%%%%%%%%%%%%%%%%%%%%%%%%%%%%%%%%%%%%%%%%%%%%%%%%%%%%%%%%%%%%%%%%%%%%%%%%%%%%%%%%%%%%%",
"%%%%%%%%%%%%%%%%%%%%%%%%%%%%%%%%%%%%%%%%%%%%%%%%%%%%%%%%%%%%%%%%%%%%%%%%%%%%%%%%%%%%%%%%%%%%%%%%",
"%%%%%%%%%%%%%%%%%%%%%%%%%%%%%%%%%%%%%%%%%%%%%%%%%%%%%%%%%%%%%%%%%%%%%%%%%%%%%%%%%%%%%%%%%%%%%%%%",
"%%%%%%%%%%%%%%%%%%%%%%%%%%%%%%%%%%%%%%%%%%%%%%%%%%%%%%%%%%%%%%%%%%%%%%%%%%%%%%%%%%%%%%%%%%%%%%%%",
"%%%%%%%%%%%%%%%%%%%%%%%%%%%%%%%%%%%%%%%%%%%%%%%%%%%%%%%%%%%%%%%%%%%%%%%%%%%%%%%%%%%%%%%%%%%%%%%%",
"%%%%%%%%%%%%%%%%%%%%%%%%%%%%%%%%%%%%%%%%%%%%%%%%%%%%%%%%%%%%%%%%%%%%%%%%%%%%%%%%%%%%%%%%%%%%%%%%",
"%%%%%%%%%%%%%%%%%%%%%%%%%%%%%%%%%%%%%%%%%%%%%%%%%%%%%%%%%%%%%%%%%%%%%%%%%%%%%%%%%%%%%%%%%%%%%%%%",
"%%%%%%%%%%%%%%%%%%%%%%%%%%%%%%%%%%%%%%%%%%%%%%%%%%%%%%%%%%%%%%%%%%%%%%%%%%%%%%%%%%%%%%%%%%%%%%%%",
"%%%%%%%%%%%%%%%%%%%%%%%%%%%%%%%%%%%%%%%%%%%%%%%%%%%%%%%%%%%%%%%%%%%%%%%%%%%%%%%%%%%%%%%%%%%%%%%%",
"%%%%%%%%%%%%%%%%%%%%%%%%%%%%%%%%%%%%%%%%%%%%%%%%%%%%%%%%%%%%%%%%%%%%%%%%%%%%%%%%%%%%%%%%%%%%%%%%",
"%%%%%%%%%%%%%%%%%%%%%%%%%%Xoooo%%%%%%%%%%%%%%%%%%%%%%%%%%%%%%%%%%%%%%%%%%%%%%%%%%%%%%%%%%%%%%%%%",
"%%%%%%%%%%%%%%%%%%%%%%%%%Xo@@@@o%%%%%%%%ooo%%%%%%%%%%%%%%%%%%%%%%%%%%%%%%%%%%%%%%%%%%%%%%%%%%%%%",
"%%%%%%%%%%%%%%%%%%%%%%XXXo@@@@@@o%%%%%%o@@@o%%%%%%%%%%%%%%%%%%%%%%%%%%%%%%%%%%%%%%%%%%%%%%%%%%%%",
"%%%%%%%%%%%%%%%%%%%%%Xo@@o@@@@@@@o%%%%o@@@@@ooo%%%%%%%%%%%%%%%%%%%%%%%%%%%%%%%%%%%%%%%%%%%%%%%%%",
"%%%%%%%%%%%%%%%%%%%%Xo@@@@@@@@@@@o%%%o@@@@@@@@@o%%%%%%%%%%%%%%%%%%%%%%%%%%%%%%%%%%%%%%%%%%%%%%%%",
"%%%%%%%%%%%%%%%%%%%%Xo@@@@@@@@@@@o%%%o@@@@@@@@@o%%%%%%%%%%%%%%%%%%%%XXooo%%%Xoo%%%%%%%%%%%%%%%%%",
"%%%%%%%%%%%%%%%%%%%%Xoo@@@@@oo@@ooo%%%o@@@o@@@oo%%%%%%%%%%%%%%%%%%%Xoo@@@oXXooooo%%%%%%%%%%%%%%%",
"%%%%%%%%%%%%%%%%%%%%%Xooo@@@oooo@@@o%%XooooooooX%%%%%%%%%%%%%%%%%%Xoo@@@@@oXoo@@@o%%%%%%%%%%%%%%",
"%%%%%%%%%%%%%%%%%%%%%XXo@@@oooo@@@@@o%%XooXXooX%% ..%%%%%%%%%%%%%%Xo@@@@@@ooo@@@@@o%%%%%%%%%%%%%",
"%%%%%%%%%%%%%%%%%%%%Xoo@@@ooooo@@@@@o%%%XX%%XX%% ###.%%%%%%%%%%%%Xoo@@@@@@@o@@@@@@o%%%%%%%%%%%%%",
"%%%%%%%%%%%%%%%%%%%Xoo@@@@@oooo@@@@@o%%%%%%%%%%% +++.%%%%%%%%%%%%Xoo@@@@@@@o@@@@@@o%%%%%%%%%%%%%",
"%%%%%%%%%%%%%%%%%%%Xoo@@@@@ooooo@@@oX%%%%%%%%%% +++##..%OO%%%%%XXoooo@@@@@@@@@@@@@o%%%%%%%%%%%%%",
"%%%%%%%%%%%%%%%%%%%Xooo@@@oooooooooX%%%%%%%%%% #+++++##.##O%%ooooooooo@@@@@@@@@@@@o%%%%%%%%%%%%%",
"%%%%%%%%%%%%%%%%%%%%XoooooooooooooX%%%%%%%%.  #+++++++##.#+.%XXoooooooooo@@@@o@@@oX%%%%%%%%%%%%%",
"%%%%%%%%%%%%%%%%%%%%%XooooooooooooX%%%%%%% ##++++++++++## +.%%%XXXoooooooo@@oooooX%%%%%%%%%%%%%%",
"%%%%%%%%%%%%%%%%%%%%%%XXXoooooXooX%%%%%%%% +++++++OOOO+##..%%%%%%Xoooooo@@@@@ooXX%%%%%%%%%%%%%%%",
"%%%%%%%%%%%%%%%%%%%%%%%%%XXooX%XX%%%%%%%%%% .+++OOOOOOO+## %%%%%%%Xoooo@@@@@@XX%%%%%%%%%%%%%%%%%",
"%%%%%%%%%%%%%%%%%%%%%%%%%%Xo%%%%%%%%%%%%%%%% +++OOOOOOOO## %%%%%%%%XXoo@@@@@@X%%%%%%%%%%%%%%%%%%",
"%%%%%%%%%%%%%%%%%%%%%%%%%%...%%%%%%....%%%%% ++OOO++OOOO++ %%%%%%%%%Xooo@@@@oX%%%%%%%%%%%%%%%%%%",
"%%%%%%%%%%%%%%%%%%%%%%%%%.+##..  ..++++.%%%% ++O.O+++OOO+ %%%%%%%%%%XoooooooX%%%%%%%%%%%%%%%%%%%",
"%%%%%%%%%%%%%%%%%%%%%%%%.++###########+..%% +++O.OO+.OOO+.%%%%%%%%%%%XooooXX%%%%%%%%%%%%%%%%%%%%",
"%%%%%%%%%%%%%%%%%%%%%%%%. ####+++++######  +OO+OO...OOO .O.%%%%%%%%%%%XXXX%%%%%%%%%%%%%%%%%%%%%%",
"%%%%%%%%%%%%%%%%%%%%%%%% ##++++...++++.. ++OO  +OOOOOOO.OO.%%%%%%%%%%%%%%%%%%%%%%%%%%%%%%%%%%%%%",
"%%%%%%%%%%%%%%%%%%%%%%%.##++++.+++.OOOOOOOOO %%  OOOO. %..%%%%%%%%%%%%%%%%%%%%%%%%%%%%%%%%%%%%%%",
"%%%%%%%%%%%%%%%%%%%%%%.#+++++O.O++.OOOOOOO  %%%%% OOO %%%%%%%%%%%%%%%%%%%%%%%%%%%%%%%%%%%%%%%%%%",
"%%%%%%%%%%%%%%%%%%%... ++++OOOOOOOOOOOOOO #.%%%%%% OO .....OO%%%%%%%%%%%%%%%%%%%%%%%%%%%%%%%%%%%",
"%%%%%%%%%%%%%%%%%%.## ++++OOOOOOOOOOOOOOO.+#.%%%.. OO #######..O%%%%%%%%%%%%%%%%%%%%%%%%%%%%%%%%",
"%%%%%%%%%%%%%%%%%%.++.+++OOOOOOOOOOOOOOOOO+#.% .##.OOO++########..%%%%%%%%%%%%%%%oo%%%%%%%%%%%%%",
"%%%%%%%%%%%%%%%%%%.+.++.OOOOOOOOOOOOOOOOOO+# .####OOOOO++++++#####.OOOO%%%%%XX%Xo@@o%%%%%%%%%%%%",
"%%%%%%%%%%%%%%%%%%.O +.++OOOOOOOOOOOOOOOOO+ ####++OOOOOOOO++...####.#$$O%%%XooXo@@@@o%%%%%%%%%%%",
"%%%%%%%%%XX%oooX%%%. +.OOOOOOOOOOOOOOOOOOO ###+++OOOOOOOOOO.###.####.##O%%Xo@@o@@@@@@o%%%%%%%%%%",
"%%%%%%%%oooX@@@oXo%% OO..OOOOOOOOOOOOOOOO ##++....OOOOOOOO.O+###.+###O+#Oooo@@o@@@@@@o%%%%%%%%%%",
"%%%%%%%o@@@o@@@oooX% OOOOOOOOOOOOOOOOOOOO.#++.##++.OOOOOOOOOO++#.+++##O+.XXooooo@@@@@o%%%%%%%%%%",
"%%%%%%o@@@@@@@@@oX%% OOOOOOOOOOOOOOOOOOO ##+.##+++OOOOOOOOOOOOO+OO+++#OO.%%Xooo@@@@@@o%%%%%%%%%%",
"%%%%%%o@@@@@@@@@@oX% OOOOOOOOOOOOOOOO.. ##++.#++OOOOOOOOOOOOOOOOOOO+++#.%%%%Xoo@@o@@o%%%%%%%%%%%",
"%%%%%%Xo@@o@@@@@@oX% OOOOOOOOOOOOOOO.++.#+++.+OOOOOOOOOOOOOOOOOOOOOO++# %%%%XooooooX%%%%%%%%%%%%",
"%%%%%%Xooooo@@@@ooX%%.OOOO.+++OOOOO.++.##+++.OOOOOOOOOOOOOOOOOOOOOOO+++ %%%%%XooooX%%%%%%%%%%%%%",
"%%%%%%%XoooooooooX%%% OOOO.O+++OOOO OO.#++++O.OOOOOOOOOOOOOOOOOOOOOOO+++ %%%%%XXXX%%%%%%%%%%%%%%",
"%%%%%%%%XXooooooX%%%%%.OOO.OO+.OOOO OO.++++OOOOOOOOOOOOOOOOOOOOOOOOOO+++ %%%%%%%%%%%%%%%%%%%%%%%",
"%%%%%%%%%%XooooX%%%%%% OOOO...OOOOO O.+++++OOOOOOOOOOOOOOOOOOOOOOOOOOO++ %%%%%%%%%%%%%%%%%%%%%%%",
"%%%%%%%%%%%XXXX%%%%%%%%.OOOOOOOOOOOO .++++OOOOOOOOOOOOOOOOOOOOOOOOOOOO++. %%%%%%%%%%%%%%%%%%%%%%",
"%%%%%%%%%%%%%%%%%%%%%%%%.OOOOOOOOOOOO ++++OOOOOOOOOOOOOOOOOOOOOOOOOOOOO+##O%%%%%%%%%%%%%%%%%%%%%",
"%%%%%%%%%%%%%%%%%%%%%%%%% .OOOOOOOOOO ++++OOOOOOOOOOOOOOOOOOOOOOOOOOOOO+++#O%%%%%%%%%%%%%%%%%%%%",
"%%%%%%%%%%%%%%%%%%%%%%%%% O..OOOOOOOO +++OOOOOOOOOOOOOOOOOOOOOOOOOOOOOOOO++.%%%%%%%%%%%%%%%%%%%%",
"%%%%%%%%%%%%%%%%%%%%%%%%%% ....     . O+OOOOOOOOOOOOOOOOOOOOOOOOOOOOOOOOOOO.%%%%%%%%%%%%%%%%%%%%",
"%%%%%%%%%%%%%%%%%%%XXoooo%%    %%%%%% OOOOOOO.++OOOOOOOOOOOOOOOOOOOOOOOOOOO.%%%%%%%%%%%%%%%%%%%%",
"%%%%%%%%%%%%%%%%%%Xoo@@@@o%%%%%%%%%%% OOOOOO.++++OOOOOOOOOOOOOOOOO++OOOOOOO.%%%%%%%%%%%%%%%%%%%%",
"%%%%%%%%%%%%%%%%%Xoo@@@@@@o%%%%%%%%%%% OOOOO.OO++OOOOOOOOOOOOOOOO++++OOOOOO.%%%%%%%%%%%%%%%%%%%%",
"%%%%%%%%%%%%%%%%Xooo@@@@@@@%XXXX%%%%%% OOOOO OOOOOOOOOOOOOOOOOOO++OOO OOOO %%%%%%%%%%%%%%%%%%%%%",
"%%%%%%%%%%%%%%%%Xooo@@@@@@@Xo@@oX%%%%% OOOOOO OOO.OOOOOOOOOOOOOOOOOOO OO .%%%%%%%%%%%%%%%%%%%%%%",
"%%%%%%%%%%%%%%%%Xoooo@@@@@o@@@@@oX%%%.+OOOOOOO  .OOOOOOOOOOOOOOO.OOO OOO %%%%%%%%%%%%%%%%%%%%%%%",
"%%%%%%%%%%%%%%%%Xoooooooo@@@@@@@@X%%%.++.OOOOOOOOOOOOOOOOOOOOOOOO.  OOO %%%%%%%%%%%%%%%%%%%%%%%%",
"%%%%%%%%%%%%%%%%%Xooooo@@@@@@@@@@X%%% +OO.OOOOOOOOOOOOOOOOOOOOOOOOOOOOO %%%%%%%%%%%%%%%%%%%%%%%%",
"%%%%%%%%%%%%%%%%%%Xooo@@@@@@@@@@@oX%%%.OOO.OOOOOOOOOOOOOOOOOOOOOOOOOOO %%%%%%%%%%%%%%%%%%%%%%%%%",
"%%%%%%%%%%%%%%%%%%%XXo@@@@o@@@@@oooXX%% OO.OOOOOOOOOOOOO+++OO.OOOOOOOO %%%%%%%%%%%%%%%%%%%%%%%%%",
"%%%%%%%%%%%%%%%%%%%%X@@@@ooo@@@oooooo%%%   OOOOOOOOOOO.+++OOO OOOOOOO %%%%%%%%%%%%%%%%%%%%%%%%%%",
"%%%%%%%%%%%%%%%%%%%Xo@@@oooooooooXXX%%%%%%% OOOOOOOOOOO OOOO OOOOOOO %%%%%%%%%%%%%%%%%%%%%%%%%%%",
"%%%%%%%%%%%%%%%%%%%Xoo@oooooooooX%%%%%%%%%%% .OOOOOOOOOO   .OOOOOO.O %%%%%%%%%%%%%%%%%%%%%%%%%%%",
"%%%%%%%%%%%%%%%%%%%Xo@o@oooooooX%%%%%%%%%%%%%% .OOOOOOOOOOOOOOO...OO %%%%%%%%%%%%%%%%%%%%%%%%%%%",
"%%%%%%%%%%%%%%%%%%%%Xo@ooooooooX%%%%%%%%%%%%%%% ..OOOOOOOOOOO  ..OO %%%%%%%%%%%%%%%%%%%%%%%%%%%%",
"%%%%%%%%%%%%%%%%%%%%%XooooooooX%%%%%%%%%%%%%%%% .......      %%    %%%%%%%%%%%%%%%%%%%%%%%%%%%%%",
"%%%%%%%%%%%%%%%%%%%%%%XXooooXX%%%%%%%%%%%%%%%%%%  ...  %%%%%%%%%%%%%%%%%%%%%%%%%%%%%%%%%%%%%%%%%",
"%%%%%%%%%%%%%%%%%%%%%%%%XXXX%%%%%%%%%%%%%%%%%%%%%%   %%%%%%%%%%%%%%%%%%%%%%%%%%%%%%%%%%%%%%%%%%%",
"%%%%%%%%%%%%%%%%%%%%%%%%%%%%%%%%%%%%%%%%%%%%%%%%%%%%%%%%%%%%%%%%%%%%%%%%%%%%%%%%%%%%%%%%%%%%%%%%",
"%%%%%%%%%%%%%%%%%%%%%%%%%%%%%%%%%%%%%%%%%%%%%%%%%%%%%%%%%%%%%%%%%%%%%%%%%%%%%%%%%%%%%%%%%%%%%%%%",
"%%%%%%%%%%%%%%%%%%%%%%%%%%%%%%%%%%%%%%%%%%%%%%%%%%%%%%%%%%%%%%%%%%%%%%%%%%%%%%%%%%%%%%%%%%%%%%%%",
"%%%%%%%%%%%%%%%%%%%%%%%%%%%%%%%%%%%%%%%%%%%%%%%%%%%%%%%%%%%%%%%%%%%%%%%%%%%%%%%%%%%%%%%%%%%%%%%%",
"%%%%%%%%%%%%%%%%%%%%%%%%%%%%%%%%%%%%%%%%%%%%%%%%%%%%%%%%%%%%%%%%%%%%%%%%%%%%%%%%%%%%%%%%%%%%%%%%",
"%%%%%%%%%%%%%%%%%%%%%%%%%%%%%%%%%%%%%%%%%%%%%%%%%%%%%%%%%%%%%%%%%%%%%%%%%%%%%%%%%%%%%%%%%%%%%%%%",
"%%%%%%%%%%%%%%%%%%%%%%%%%%%%%%%%%%%%%%%%%%%%%%%%%%%%%%%%%%%%%%%%%%%%%%%%%%%%%%%%%%%%%%%%%%%%%%%%",
"%%%%%%%%%%%%%%%%%%%%%%%%%%%%%%%%%%%%%%%%%%%%%%%%%%%%%%%%%%%%%%%%%%%%%%%%%%%%%%%%%%%%%%%%%%%%%%%%",
"%%%%%%%%%%%%%%%%%%%%%%%%%%%%%%%%%%%%%%%%%%%%%%%%%%%%%%%%%%%%%%%%%%%%%%%%%%%%%%%%%%%%%%%%%%%%%%%%",
"%%%%%%%%%%%%%%%%%%%%%%%%%%%%%%%%%%%%%%%%%%%%%%%%%%%%%%%%%%%%%%%%%%%%%%%%%%%%%%%%%%%%%%%%%%%%%%%%",
"%%%%%%%%%%%%%%%%%%%%%%%%%%%%%%%%%%%%%%%%%%%%%%%%%%%%%%%%%%%%%%%%%%%%%%%%%%%%%%%%%%%%%%%%%%%%%%%%",
"%%%%%%%%%%%%%%%%%%%%%%%%%%%%%%%%%%%%%%%%%%%%%%%%%%%%%%%%%%%%%%%%%%%%%%%%%%%%%%%%%%%%%%%%%%%%%%%%",
"%%%%%%%%%%%%%%%%%%%%%%%%%%%%%%%%%%%%%%%%%%%%%%%%%%%%%%%%%%%%%%%%%%%%%%%%%%%%%%%%%%%%%%%%%%%%%%%%",
"%%%%%%%%%%%%%%%%%%%%%%%%%%%%%%%%%%%%%%%%%%%%%%%%%%%%%%%%%%%%%%%%%%%%%%%%%%%%%%%%%%%%%%%%%%%%%%%%",
"%%%%%%%%%%%%%%%%%%%%%%%%%%%%%%%%%%%%%%%%%%%%%%%%%%%%%%%%%%%%%%%%%%%%%%%%%%%%%%%%%%%%%%%%%%%%%%%%",
"%%%%%%%%%%%%%%%%%%%%%%%%%%%%%%%%%%%%%%%%%%%%%%%%%%%%%%%%%%%%%%%%%%%%%%%%%%%%%%%%%%%%%%%%%%%%%%%%",
"%%%%%%%%%%%%%%%%%%%%%%%%%%%%%%%%%%%%%%%%%%%%%%%%%%%%%%%%%%%%%%%%%%%%%%%%%%%%%%%%%%%%%%%%%%%%%%%%",
"%%%%%%%%%%%%%%%%%%%%%%%%%%%%%%%%%%%%%%%%%%%%%%%%%%%%%%%%%%%%%%%%%%%%%%%%%%%%%%%%%%%%%%%%%%%%%%%%",
"%%%%%%%%%%%%%%%%%%%%%%%%%%%%%%%%%%%%%%%%%%%%%%%%%%%%%%%%%%%%%%%%%%%%%%%%%%%%%%%%%%%%%%%%%%%%%%%%",
"%%%%%%%%%%%%%%%%%%%%%%%%%%%%%%%%%%%%%%%%%%%%%%%%%%%%%%%%%%%%%%%%%%%%%%%%%%%%%%%%%%%%%%%%%%%%%%%%",
"%%%%%%%%%%%%%%%%%%%%%%%%%%%%%%%%%%%%%%%%%%%%%%%%%%%%%%%%%%%%%%%%%%%%%%%%%%%%%%%%%%%%%%%%%%%%%%%%"
};
