/* XPM */
static char *sprite_116_front[] = {
/* columns rows colors chars-per-pixel */
"96 96 12 1 ",
"  c #101010",
". c #395262",
"X c #FF7373",
"o c #9C834A",
"O c #DEC54A",
"+ c #6A94B4",
"@ c #FFFFAC",
"# c #A4C5EE",
"$ c #BDDEFF",
"% c #D5D5D5",
"& c white",
"* c None",
/* pixels */
"************************************************************************************************",
"************************************************************************************************",
"************************************************************************************************",
"************************************************************************************************",
"************************************************************************************************",
"************************************************************************************************",
"************************************************************************************************",
"************************************************************************************************",
"************************************************************************************************",
"************************************************************************************************",
"************************************************************************************************",
"************************************************************************************************",
"************************************************************************************************",
"************************************************************************************************",
"************************************************************************************************",
"************************************************************************************************",
"************************************************************************************************",
"************************************************************************************************",
"************************************************************************************************",
"************************************************************************************************",
"************************************************************************************************",
"************************************************************************************************",
"************************************************************************************************",
"************************************************************************************************",
"************************************************************************************************",
"************************************************************************************************",
"************************************************************************************************",
"************************************************************************************************",
"************************************************************************************************",
"************************************************************************************************",
"************************************************************************************************",
"********************************************..**************************************************",
"********************************************.$.*************************************************",
"********************************************.#.*************************************************",
"***************************************.+***.+++..**********************************************",
"***************************************.#.*..$$$##..********************************************",
"****************************************...#$$$$$###.*******************************************",
"****************************************..###$$$#####.***....***********************************",
"****************************************.&###########+...$$$ ***********************************",
"***************************************.XX#####+..+#####$$  ************************************",
"***************************************.X ####++&&++####  **************************************",
"**************************************..X +###.XX&&.#++ ****************************************",
"************************************.....+####. X&&.++..****************************************",
"***********************************..#########. X&%.++++..**************************************",
"*********************************** #$########.XX%%.+++###..************************************",
"*********************************** + ########+.%%.+++++##$$ ***********************************",
"*********************************** +.###+++++++..++++..    .***********************************",
"***********************************..##+.  .++++++++++.*****************************************",
"************************************.  .*..++++++++ ++#.****************************************",
"******************************************* .+++.  * .$$+***************************************",
"*******************************************.OO++.****. $.***************************************",
"*****************************************o.OOOO++.*****  ***************************************",
"****************************************o@@@ooO++ ****oooooo************************************",
"***************************************o@@@@@@o++ **ooOO@@@@o***********************************",
"***************************************oOO@@@@O+++  OOooooOOOo**********************************",
"**************************************o@@@Oo@@O+++ OooO@@@@@@ **********************************",
"************************************   @@@@@oO++++ oOOOOOO@@o***********************************",
"**********************************  ### o@@@Oo++++ OOOO@@@O ************************************",
"********************************* ###### oOO+++++ .  OOOO  *************************************",
"********************************* ##.+## Oo++++++ ***   o***************************************",
"******************************** ##.#### #++++++ ***********************************************",
"******************************** ## ###.#++++++ ************************************************",
"******************************** +##+ .+++++++.*************************************************",
"********************************* ++++++++++ .**************************************************",
"**********************************  ++++.   ****************************************************",
"************************************    .*******************************************************",
"************************************************************************************************",
"************************************************************************************************",
"************************************************************************************************",
"************************************************************************************************",
"************************************************************************************************",
"************************************************************************************************",
"************************************************************************************************",
"************************************************************************************************",
"************************************************************************************************",
"************************************************************************************************",
"************************************************************************************************",
"************************************************************************************************",
"************************************************************************************************",
"************************************************************************************************",
"************************************************************************************************",
"************************************************************************************************",
"************************************************************************************************",
"************************************************************************************************",
"************************************************************************************************",
"************************************************************************************************",
"************************************************************************************************",
"************************************************************************************************",
"************************************************************************************************",
"************************************************************************************************",
"************************************************************************************************",
"************************************************************************************************",
"************************************************************************************************",
"************************************************************************************************",
"************************************************************************************************",
"************************************************************************************************"
};
