/* XPM */
static char *sprite_148_back[] = {
/* columns rows colors chars-per-pixel */
"96 96 13 1 ",
"  c #010101",
". c #18297B",
"X c #183173",
"o c #5A525A",
"O c #4A6AC5",
"+ c #415AFF",
"@ c #5A8BEE",
"# c #7BACFF",
"$ c #7BCDFF",
"% c #A49CA4",
"& c #DED5DE",
"* c white",
"= c None",
/* pixels */
"================================================================================================",
"================================================================================================",
"================================================================================================",
"================================================================================================",
"================================================================================================",
"================================================================================================",
"================================================================================================",
"================================================================================================",
"================================================================================================",
"================================================================================================",
"================================================================================================",
"================================================================================================",
"================================================================================================",
"================================================================================================",
"===================================oo==========o%===============================================",
"==================================o*o=========o*%===============================================",
"==================================o*o=========o*%===============================================",
"==================================o**o========o**%==============================================",
"=================================o*o*o=======o*o*%==============================================",
"=================================o*o&*o======o*o**%=============================================",
"=================================o&*%*o======o**o*%=============================================",
"==================================o&&%*o====o*o*o**o============================================",
"=================================o&o&&&*o=OOo*o**o**o===========================================",
"=================================o&&%&&&oO##o&&o&*%*o%%%%%======================================",
"==================================o&&&&&O####o&&%&***o***o======================================",
"================================== o&&&O####@ %&&oo&*o&& =======================================",
"================================== &%&&O####O &&o&&%&*o ========================================",
"=================================== &&O####@OO &o&&%&&o=========================================",
"==================================== &O@##@OOOO &&%&&&o=========================================",
"===================================== XOOOOOOOO &&&&&o==========================================",
"======================================XOOOOOOOOO &&&oX==========================================",
"======================================XOOOOOOOOOO   OOO=========================================",
"======================================XOOOOOOOOOOOOO@##O========================================",
"======================================XOOOOOOOOOOOOOO@##O=======================================",
"=======================================XOOOOOOOOOOOOOOO@O=======================================",
"=======================================XOOOOOOOOOOOOOOOOX=======================================",
"======================================= OOOOOOOOOOOOOOOOX=======================================",
"========================================XOOOOOO    OOOOX========================================",
"======================================== OOOOO ====    =========================================",
"========================================= OOOO =...=============================================",
"========================================= OOOOO +$*.======XOO===================================",
"========================================== OOOO ++$*.======X#OO=================================",
"========================================== OOOOO +++.=======X# XX===============================",
"=========================================== OOOOO +..======== ++$X==============================",
"=========================================== OOOOO ..========= +++ ..============================",
"============================================ OOOOO ========== .+ +$*X===========================",
"============================================ OOOOOOo==========  ++$$+.==========================",
"============================================= OOOOOo=========== +++++ ==========================",
"============================================= OOOOO&o========== +++.. ==========================",
"============================================= OOOOOO*o========== +.# ===========================",
"============================================== OOOOO&o=========== X##O==========================",
"============================================== OOOOOO*o============X#O==========================",
"============================================== OOOOOO*o============X#O==========================",
"============================================== OOOOOO&*o===========X##O=========================",
"=============================================== OOOOOO*o===========X##O=========================",
"=============================================== OOOOOO**o==========X##O=========================",
"=======================OOOOOO================== OOOOOO&*o=========X###O=========================",
"====================OOO######OOO============== OOOOOOOO*o=========X###O=========================",
"==================OO############OO============ OOOOOOOO*o========X####O=========================",
"=================O################OO========= OOOOOOOOO*o========X###X==========================",
"================X########@OOO@######OXX====X OOOOOOOOOO*o=======X####X==========================",
"===============XO#######@OXXXOOO@####@OXXXXOOOOOOOOOOOO& ======X####@ ==========================",
"===============XO@#########@OXOOOOOOOOOOOOOOOOOOOOOOOOO& =====X####@X===========================",
"==============XOOO@#########@OX OOOOOOOOOOOOOOOOOOOOOO&& ====X####@O ===========================",
"==============XOOOOO@#######@OOOX OOOOOOOOOOOOOOOOOOOO& ===XX####OOX============================",
"==============X#OOOOOO@####@OOOOOO  OOOOOOOOOOOOOOOOOO& =XXOO@#@OOX=============================",
"==============X&OOOOOOOOOOOOOOOOOOOO  OOOOOOOOOOOOOOO&  XOOOOOOOOO =============================",
"==============X&#OOOOOOOOOOOOOOOOOOOOO  XOOOOOOOOOO   OOOOOOOOOOOo==============================",
"==============X&&OOOOOOOOOOOOOOOOOOOOOOOO       XXXOOOOOOOOOOOO#o===============================",
"===============o&&OOOOOOOOOOOOOOOOOOOOOOOOOOOOOOOOOOOOOOOOOOOO&o================================",
"===============o&&&OOOOOOOOOOOOOOOOOOOOOOOOOOOOOOOOOOOOOOOOO#&o=================================",
"================o&&&#OOOOOOOOOOOOOOOOOOOOOOOOOOOOOOOOOOOOO#&&o==================================",
"================= &&&&#OOOOOOOOOOOOOOOOOOOOOOOOOOOOOOOO#&&&  ===================================",
"================== &&&&&&#OOOOOOOOOOOOOOOOOOOOOOOOOO#&&&&& =====================================",
"===================  &&&&&&&&#OOOOOOOOOOOOOOOOOO#&&&&&&&  ======================================",
"=====================  &&&&&&&&&&&#OOOOOOO#&&&&&&&&&&&  ========================================",
"=======================   &&&&&&&&&&&&&&&&&&&&&&&&&   ==========================================",
"==========================   &&&&&&&&&&&&&&&&&&&   =============================================",
"=============================    &&&&&&&&&&     ================================================",
"=================================          =====================================================",
"================================================================================================",
"================================================================================================",
"================================================================================================",
"================================================================================================",
"================================================================================================",
"================================================================================================",
"================================================================================================",
"================================================================================================",
"================================================================================================",
"================================================================================================",
"================================================================================================",
"================================================================================================",
"================================================================================================",
"================================================================================================",
"================================================================================================",
"================================================================================================"
};
