/* XPM */
static char *sprite_006_front[] = {
/* columns rows colors chars-per-pixel */
"96 96 15 1 ",
"  c #010101",
". c #084252",
"X c gray39",
"o c #843119",
"O c #E64210",
"+ c #CE5242",
"@ c #F7A510",
"# c #EF8429",
"$ c #FFD610",
"% c #EFB55A",
"& c #EFDE7B",
"* c #217394",
"= c #CECECE",
"- c white",
"; c #000000",
/* pixels */
";;;;;;;;;;;;;;;;;;;;;;;;;;;;;;;;;;;;;;;;;;;;;;;;;;;;;;;;;;;;;;;;;;;;;;;;;;;;;;;;;;;;;;;;;;;;;;;;",
";;;;;;;;;;;;;;;;;;;;;;;;;;;;;;;;;;;;;;;;;;;;;;;;;;;;;;;;;;;;;;;;;;;;;;;;;;;;;;;;;;;;;;;;;;;;;;;;",
";;;;;;;;;;;;;;;;;;;;;;;;;;;;;;;;;;;;;;;;;;;;;;;;;;;;;;;;;;;;;;;;;;;;;;;;;;;;;;;;;;;;;;;;;;;;;;;;",
";;;;;;;;;;;;;;;;;;;;;;;;;;;;;;;;;;;;;;;;;;;;;;;;;;;;;;;;;;;;;;;;;;;;;;;;;;;;;;;;;;;;;;;;;;;;;;;;",
";;;;;;;;;;;;;;;;;;;;;;;;;;;;;;;;;;;;;;;;;;;;;;;;;;;;;;;;;;;;;;;;;;;;;;;;;;;;;;;;;;;;;;;;;;;;;;;;",
";;;;;;;;;;;;;;;;;;;;;;;;;;;;;;;;;;;;;;;;;;;;;;;;;;;;;;;;;;;;;;;;;;;;;;;;;;;;;;;;;;;;;;;;;;;;;;;;",
";;;;;;;;;;;;;;;;;;;;;;;;;;;;;;;;;;;;;;;;;;;;;;;;;;;;;;;;;;;;;;;;;;;;;;;;;;;;;;;;;;;;;;;;;;;;;;;;",
";;;;;;;;;;;;;;;;;;;;;;;;;;;;;;;;;;;;;;;;;;;;;;;;;;;;;;;;;;;;;;;;;;;;;;;;;;;;;;;;;;;;;;;;;;;;;;;;",
";;;;;;;;;;;;;;;;;;;;;;;;;;;;;;;;;;;;;;;;;;;;;;;;;;;;;;;;;;;;;;;;;;;;;;;;;;;;;;;;;;;;;;;;;;;;;;;;",
";;;;;;;;;;;;;;;;;;;;;;;;;;;;;;;;;;;;;;;;;;;;;;;;;;;;;;;;;;;;;;;;;;;;;;;;;;;;;;;;;;;;;;;;;;;;;;;;",
";;;;;;;;;;;;;;;;;;;;;;;;;;;;;;;;;;;;;;;;;;;;;;;;;;;;;;;;;;;;;;;;;;;;;;;;;;;;;;;;;;;;;;;;;;;;;;;;",
";;;;;;;;;;;;;;;;;;;;;;;;;;;;;;;;;;;;;;;;;;;;;;;;;;;;;;;;;;;;;;;;;;;;;;;;;;;;;;;;;;;;;;;;;;;;;;;;",
";;;;;;;;;;;;;;;;;;;;;;;;;;;;;;;OOO;;;;;;;;;;;;;;;;;;;;;;;;;;;;;;;;;;;;;;;;;;;;;;;;;;;;;;;;;;;;;;",
";;;;;;;;;;;;;;;;;;;;;;;;;;;;;;;;OOOO;;O;;;;;;;;;;;;;;;;;;;;;;;;;;;;;;;;;;;;;;;;;;;;;;;;;;;;;;;;;",
";;;;;;;;;;;;;;;;;;;;;;;;;;;;;;;;;OOOO;O;;;;;;;;;;;;;;;;;;;;;;;;;;;;;;;;;;;;;;;;;;;;;;;;;;;;;;;;;",
";;;;;;;;;;;;;;;;;;;;;;;;;;;;;;;;;OOOO;;;;;;;;;;;;;;;;;;;;;;;;;;;;;;;;;;;;;;;;;;;;;;;;;;;;;;;;;;;",
";;;;;;;;;;;;;;;;;;;;;;;;;;;;;;O;OOO@OO;;;;;;;;;;;;;;;;;;;;;;;;;;;;;;;;;;;;;;;;;;;;;;;;;;;;;;;;;;",
";;;;;;;;;;;;;;;;;;;;;;;;;;;;;;OOOOO@OO;;;;;;;;;;;;;;;;;;;;;;;;;;;;;;;;;;;;;;;;;;;;;;;;;;;;;;;;;;",
";;;;;;;;;;;;;;;;;;;;;;;;;;;;;OOOO@$@OO;;;;;;;;;;;;;;;;;;;;;;;;;;;;;;;;;;;;;;;;;;;;;;;;;;;;;;;;;;",
";;;;;;;;;;;;;;;;;;;;;;;;;;;;OOOOO$$$OO;;;;;;;;oo;;;;;;;;;;;;;;;;;;;;;;;;;;;;;;;;;;;;;;;;;;;;;;;;",
";;;;;;;;;;;;;;;;;;;;;;;;oo;;OOO$$$$$OO;;;;;;;o%%o;;;;;;;;;;;;;;;;;;;;;;;;;;;;;;;;;;;;;;;;;;;;;;;",
";;;;;;;;;;;;;;;;;;;;;;;o%%oOOO$$$$$OO;;;;;;;;o%%++;;;;;;;;;;;;;;;;;;;;;;;;;;;;;;;;;;;;;;;;;;;;;;",
";;;;;;;;;;;;;;;;;;;;;;o+%%oOOO$$$$OOOO;;;;;;; +##o+;;;;oooooo;;;;;;;;;;;;;;;;;;;;;;;;;;;;;;;;;;;",
";;;;;;;;;;;;;;;;;;;;;;o##o;OOO$$$@OO$@OO;;;;;; ####+ooo######oo;;;;;;;;;;;;;;;;;;;;;;;;;;;;;;;;;",
";;;;;;;;;;;;;;;;ooo;;o###o;;OO@$$@@$$$@OOO;;;; +###############++;;;;;;;;;;;;;;;;;;;;;;;;;;;;;;;",
";;;;;;;;;;;;;;;o###oo###+o;;OO@$$$$$$$$OOO;;;;; #######+ooooo+###+++;;;;;;;;;;;;;;;;;;;;;;;;;;;;",
";;;;;;;;;;;;;oo#########o;;;;OOO@$$$$$$OO;;;;;; ####   .......o+####++;;;;;;;;;;;;;;;;;;;;;;;;;;",
";;;;;;;;;;;;o###########o;;;;;OOO@$$$$$OO;;;;;;;o## ......*****..+#%%%+;;;;;;;;;;;;;;;;;;;;;;;;;",
";;;;;;;;;;;o###    +####o;;;;;OOO@$$$$@OO;;;;;;;o# .....*********..+%%%o;;;;;;;;;;;;;;;;;;;;;;;;",
";;;;;;;;;;o##....... +##o;;;;;;O@$$$@$OO;;;;;;;;o# ....************.+##+;;;;;;;;;;;;;;;;;;;;;;;;",
";;;;;;;;oo##......... ##+o;;;;;O@$$$@O;;;;;;;;;;o# ....*************.+#+;;;;;;;;;;;;;;;;;;;;;;;;",
";;;;;;;o###........... ##o;;;;;OO@o#oO;;;;;;;;;;o# ....*************.+##o;;;;;;;;;;;;;;;;;;;;;;;",
";;;;;;;o+#............ ##o;;;;;;OOo#o;;;;;;;;;;;o# .....*************.+#+;;;;;;;;;;;;;;;;;;;;;;;",
";;;;;;;o+.............. #o;;;;;;;;o##o;;;;;;;;;;o# .....*************.+#+;;;;;;;;;;;;;;;;;;;;;;;",
";;;;;;;o+.............. ##o;;;;;;;;o##o;;;;;;;;;o# .....*************..##o;;;;;;;;;;;;;;;;;;;;;;",
";;;;;;o++................#o;;;;;;;;o##+o;;;;;;;o+# ......************..+#+;;;;;;;;;;;;;;;;;;;;;;",
";;;;;;o+.................#o;;;;;;;;;o+++o;;;;;;o## ......************..+#+;;;;;;;;;;;;;;;;;;;;;;",
";;;;;o++.....oo..........##o;;;;;;;;o++++oo;;;;o#+.......************...##o;;;;;;;;;;;;;;;;;;;;;",
";;;;;o++....o++ .....oo...#o;;;;;;;;;o+++++oo; ++.........**********....+#+;;;;;;;;;;;;;;;;;;;;;",
";;;;o++.....o++ ....o## ..++ ;;;;;;;;;o++++++oo++.........**********....+#+;;;;;;;;;;;;;;;;;;;;;",
";;; ++.....o+++ ...o##+ ..o++ ;;;;;;;;;o+++++ ++..........**********.....##o;;;;;;;;;;;;;;;;;;;;",
";;; +......o++   .o### ....o++  ;;;;;;;;oo+  ++............*********.....+#+;;;;;;;;;;;;;;;;;;;;",
";;; +......o++ ;;o###  ......+++o;;;;;;;;  #++.............*********......##o;;;;;;;;;;;;;;;;;;;",
";;; +..... +++ oo###o;; ......+++o;;;;;; ###+ ..*...........*****.........++ ;;;;;;;;;;;;;;;;;;;",
";;; ++.... +oo#+#### ;;; ....    o;;;;;;o##+ ....*..........****.;; .......+ ;;;;;;;;;;;;;;;;;;;",
";;;;o+... +######## ;;;; .   ####   ;;;o+++ ....*.*.........***.;;;; ......+ ;;;;;;;;;;;;;;;;;;;",
";;;;o+... #########  ;;   #########+  ;o+++ .....*...   .....*.;;;;;; .....+ ;;;;;;;;;;;;;;;;;;;",
";;;;;o+. ###########o   +############+  ++ .....*.*..+++   ..*.;;;;;;; ....+ ;;;;;;;;;;;;;;;;;;;",
";;;;;o+ #############o++++#############+ + ......*.;;o+++++ ..o;;;;;;; ....+ ;;;;;;;;;;;;;;;;;;;",
";;;;;; ###############+++++############## ........;;;;o+++++ .+o;;;;;; ....+ ;;;;;;;;;;;;;;;;;;;",
";;;;;; ###+%%##o+#####+++++############### ......;;;;;; ++++++++o;;;;;; ...+ ;;;;;;;;;;;;;;;;;;;",
";;;;; ###+%%#+=o#######+++o  ++++##########    .;;;;;;;; ++++++++o;;;;; ...+ ;;;;;;;;;;;;;;;;;;;",
";;;;; o+++##+ --#######+oo;;;  o+++#######o#### o;;;;;;;; ++++++++o;;;;; ..+ ;;;;;;;;;;;;;;;;;;;",
";;;;;; ++o##* -+#######o;;;oo++oo+++#####+#######o;;;;;;;;o++++++++ ;;;; .++;;;;;;;;;;;;;;;;;;;;",
";;;;;;; o+#ooo+##+o o##o;;o+++++++++##############ooo;;;;;;o+++++++oo;;; .+ ;;;;;;;;;;;;;;;;;;;;",
";;;;;;;;o+#######   +++ooo+++++++####################oo ;;;o++++++++ ;;; ++;;;;;;;;;;;;;;;;;;;;;",
";;;;;;;o########+ O o++o+++++++++######################+ ;;;o++++++++ ;; + ;;;;;;;;;;;;;;;;;;;;;",
";;;;;;o########+ OOO ++o++++o++++###############oo ####+ ;;;o++++++++o;;;+;;;;;;;;;;;;;;;;;;;;;;",
";;;;;;o#######  OOOO ++ ++oo+++################++o;oo+++ ;;;;o++++++++ ;; ;;;;;;;;;;;;;;;;;;;;;;",
";;;;;o####### ;; OOO ++ oo;o+###############+oo+++o;; ++ ;;;;o++++++++o;;;;;;;;;;;;;;;;;;;;;;;;;",
";;;;o###o##+ ;;; OOO + o;;o+##&&&&&#############+++o; +++ ;;;o+++++++++ ;;;;;;;;;;;;;;;;;;;;;;;;",
";;;; ##+##+- ;;; OO o+ ;;; #&&&&&&&&&############+++ ++++ ;;;o+++++++++o;;;;;;;;;;;;;;;;;;;;;;;;",
";;;;; ##++   ;; oO -#oo;; +&&&&&&&&&&&&###########++ ++++ ;;o++++++++++o;;;;;;;;;;;;;;;;;;;;;;;;",
";;;;;;;   ;;oooo-ooo# ;;; #&&&&&&&&&&&&&########## oo#+++ ;;o+##+#+#++++ ;;;;;;;;;;;;;;;;;;;;;;;",
";;;;;;;;;;;o+++ #### ;;; +&&&&&&&&&&&&&&&#######o ######+ ;o#####+#+++++ ;;;;;;;;;;;;;;;;;;;;;;;",
";;;;;;;;;;o+o+++    o;;; #&&&&&&&&&&&&&&&&###### +######++ #######+#++++ ;;;;;;;;;;;;;;;;;;;;;;;",
";;;;;;;;;;  ++++++++ ;;; &&&&&&&&&&&&&&&&&&##### ++o ###++o ########++++ ;;;;;;;;;;;;;;;;;;;;;;;",
";;;;;;;;;;; +++ oo++ ;; #&&&&&&&&&&&&&&&&&&###### = +##++++ #######+++++ ;;;;;;;;;;;;;;;;;;;;;;;",
";;;;;;;;;;;;o++o;;  ;;; #&&&&&&&&&&&&&&&&&&&######+o###o ++ #####++++++% ;;;;;;;;;;;;;;;;;;;;;;;",
";;;;;;;;;;;;;  -o;;;;;o##&&&&&&&&&&&&&&&&&&&########o++oo = ###++++++++ ;;;;;;;;;;;;;;;;;;;;;;;;",
";;;;;;;;;;;;;;o  ;;;;o###&&&&&&&&&&&&&&&&&&&&#######o =o+o  #+++++++++% ;;;;;;;;;;;;;;;;;;;;;;;;",
";;;;;;;;;;;;;;;;;;;;o####+&&&&&&&&&&&&&&&&&&&#+#######  ++o++++++++++% ;;;;;;;;;;;;;;;;;;;;;;;;;",
";;;;;;;;;;;;;;;;;;;;+####o%&&&&&&&&&&&&&&&&&&#+#########++ +++++++++%% ;;;;;;;;;;;;;;;;;;;;;;;;;",
";;;;;;;;;;;;;;;;;;;+#####o%%&&&&&&&&&&&&&&&&&+###########++ +++++++%% ;;;;;;;;;;;;;;;;;;;;;;;;;;",
";;;;;;;;;;;;;;;;;;;+######o%%&&&&&&&&&&&&&&&%o###########++ +++++#%% ;;;;;;;;;;;;;;;;;;;;;;;;;;;",
";;;;;;;;;;;;;;;;;;;+######o%%%%%&&&&&&&&%%%%%o###########++ ++#%%%% ;;;;;;;;;;;;;;;;;;;;;;;;;;;;",
";;;;;;;;;;;;;;;;;;o########o%%%%%%%%%%%%%%%%%o+##########+++ %%%%% ;;;;;;;;;;;;;;;;;;;;;;;;;;;;;",
";;;;;;;;;;;;;;;;;;o########+ %%%%%%%%%%%%%%%% +##########+++ %%%  ;;;;;;;;;;;;;;;;;;;;;;;;;;;;;;",
";;;;;;;;;;;;;;;;;;o#######+++ %%%%%%%%%%%%%%% ++#########+++ %  ;;;;;;;;;;;;;;;;;;;;;;;;;;;;;;;;",
";;;;;;;;;;;;;;;;;;o+####++++++ %%%%%%%%%%%%%% +++#######++++  ;;;;;;;;;;;;;;;;;;;;;;;;;;;;;;;;;;",
";;;;;;;;;;;;;;;;;;o++++++++++++  %%%%%%%%%%%% +++++###++++++ ;;;;;;;;;;;;;;;;;;;;;;;;;;;;;;;;;;;",
";;;;;;;;;;;;;;;;;;;o++++++++++ ;;  %%%%%%%%%oo ++++++++++++++ ;;;;;;;;;;;;;;;;;;;;;;;;;;;;;;;;;;",
";;;;;;;;;;;;;;;;;;;o++++++++++o;;;;   %%%ooo%% ++++++++++++++ ;;;;;;;;;;;;;;;;;;;;;;;;;;;;;;;;;;",
";;;;;;;;;;;;;;;;;;;;o++++++++o;;;;;;;;ooo%%%%%%  ++++++++++++ ;;;;;;;;;;;;;;;;;;;;;;;;;;;;;;;;;;",
";;;;;;;;;;;;;;;;;;;;; ++++++++ ;;;;;;;;;;ooooooo; ++++++++++# ;;;;;;;;;;;;;;;;;;;;;;;;;;;;;;;;;;",
";;;;;;;;;;;;;;;;;;;;;; +++++++ ;;;;;;;;;;;;;;;;;;; ++++++++#+# ;;;;;;;;;;;;;;;;;;;;;;;;;;;;;;;;;",
";;;;;;;;;;;;;;;;;;;;;X= =++++++ ;;;;;;;;;;;;;;;;;;; ++++++++++ ;;;;;;;;;;;;;;;;;;;;;;;;;;;;;;;;;",
";;;;;;;;;;;;;;;;;;;;X-X==X==+++ ;;;;;;;;;;;;;;;;;;; +++++#+#++ ;;;;;;;;;;;;;;;;;;;;;;;;;;;;;;;;;",
";;;;;;;;;;;;;;;;;;;;  -= -=    ;;;;;;;;;;;;;;;;;;;; +++++++++- ;;;;;;;;;;;;;;;;;;;;;;;;;;;;;;;;;",
";;;;;;;;;;;;;;;;;;;;;   ;   ;;;;;;;;;;;;;;;;;;;;;;;  ++=o+=-+-- ;;;;;;;;;;;;;;;;;;;;;;;;;;;;;;;;",
";;;;;;;;;;;;;;;;;;;;;;;;;;;;;;;;;;;;;;;;;;;;;;;;;;;;  --- ---X= ;;;;;;;;;;;;;;;;;;;;;;;;;;;;;;;;",
";;;;;;;;;;;;;;;;;;;;;;;;;;;;;;;;;;;;;;;;;;;;;;;;;;;;;; - ; =-   ;;;;;;;;;;;;;;;;;;;;;;;;;;;;;;;;",
";;;;;;;;;;;;;;;;;;;;;;;;;;;;;;;;;;;;;;;;;;;;;;;;;;;;;;;  ;;  ;;;;;;;;;;;;;;;;;;;;;;;;;;;;;;;;;;;",
";;;;;;;;;;;;;;;;;;;;;;;;;;;;;;;;;;;;;;;;;;;;;;;;;;;;;;;;;;;;;;;;;;;;;;;;;;;;;;;;;;;;;;;;;;;;;;;;",
";;;;;;;;;;;;;;;;;;;;;;;;;;;;;;;;;;;;;;;;;;;;;;;;;;;;;;;;;;;;;;;;;;;;;;;;;;;;;;;;;;;;;;;;;;;;;;;;",
";;;;;;;;;;;;;;;;;;;;;;;;;;;;;;;;;;;;;;;;;;;;;;;;;;;;;;;;;;;;;;;;;;;;;;;;;;;;;;;;;;;;;;;;;;;;;;;;"
};
