/* XPM */
static char *sprite_467_back[] = {
/* columns rows colors chars-per-pixel */
"96 96 14 1 ",
"  c #101010",
". c #6A3129",
"X c #4A4A41",
"o c #D53131",
"O c #836220",
"+ c #E64131",
"@ c #F66231",
"# c #AC3952",
"$ c #C55A6A",
"% c #CDA439",
"& c #FFC539",
"* c #FF94A4",
"= c #CDD5E6",
"- c None",
/* pixels */
"------------------------------------------------------------------------------------------------",
"------------------------------------------------------------------------------------------------",
"------------------------------------------------------------------------------------------------",
"------------------------------------------------------------------------------------------------",
"------------------------------------------------------------------------------------------------",
"------------------------------------------------------------------------------------------------",
"------------------------------------------------------------------------------------------------",
"------------------------------------------------------------------------------------------------",
"------------------------------------------------------------------------------------------------",
"------------------------------------------------------------------------------------------------",
"------------------------------------------------------------------------------------------------",
"------------------------------------------------###---------------------------------------------",
"----------------------------------------------.#@@@O--------------------------------------------",
"--------------------------------------------.#@@@OO---------------------------------------------",
"-------------------------------------------.+@@@#-----------------------------------------------",
"--------------------------o---------------.#+@@@#-----------------------------------------------",
"--------------------------oo--------------.++@@@#-----------------------##----------------------",
"--------------------------o@o-------------#+++@@@###--------------------#@#---------------------",
"-------------------------o@@o------------.+++++@@@@@#-------------------#@#---------------------",
"------------------------o@@o------------ +ooooo+++@@#--------------------o@#--------------------",
"------------------------o@@oo---------- oooooooo+++#---------------------#@#--------------------",
"-----------------------o+@@@@o--------- ooooooooo++##-----------------##-#@@.-------------------",
"-----------------------o++++@o--oo------ ooooooooo+++##-----..##----##@@#@@@.-------------------",
"-----------------------.o++++o..++o---  -.oooooooo+  +@#---.@@@.---#@@@@@@@@.-------------------",
"------------------------..o++++++o---- + .oooooooo o ++@#-.@@@@.---#@@@@@@@.--------------------",
"--------------------------.o+++++o----.++ ooooooo oo# +@@#.#@@@@..#@@@@@@@.---------------------",
"---------------------------.++++++ooo +++#o..oooo.oooo +@#-.@@@@@@@@@@@@@@o.--------------------",
"--------------------------.+++o..+++o ++ooo.*.ooo#oooo.+   @@@@@@@@+oo+@@+o.--------------------",
"-------------------------- ++oo.*.+++ +oooo.*.oooo#ooo  +@@+oo@@@@+oooo++o ---------------------",
"-------------------------- oooo **.+++ oooo.**.oooooo +@+oooooo+@@oooooo  ----------------------",
"--------------------------- ooo ***.+oo ooo.**.ooooo ++ooooooooooooooo  ------------------------",
"---------------------------- .o ***.+oo #X .**$ #oo o+ooooooooooooooo .-------------------------",
"------------------------------.o.***.oo.   .***.XXX +ooooooooooooooooo.-------------------------",
"----------------------------- oo ***$.o Xoo.***.#X oooooooooooooooooooo.------------------------",
"----------------------------- oo ****. oooo.$**$.o oooooooooooooooooooo.------------------------",
"----------------------------- ooo.***$ ooooo.**$.o oooooooooooooooo.  .-------------------------",
"-------------..-------------- ooo ***$$.oooo.*$$.o oooooooooooooooo ----------------------------",
"-------------.@..----.-----..- oo $*$$$...oo.$$$.o ooooooooooooooo. ----------------------------",
"--------------.@+.--.@.---- *.- OO.*$$.o.*.o.$$$.oo oooooooooooooo -----------------------------",
"--------------.@@@.-.@.---- ** OOO $$$.o.**.o.$.ooo oooooooooooooo -----------------------------",
"--------------.+@@..+@@.--- ***.O + $.oo.**.o.$.ooo# oooooooooooo % ----------------------------",
"---------------.+@@ +@@ ---- ***.o++ ooo ***.o.ooooo# oooooooooo && ----------------------------",
"---------------.+@@ @@@ ---- ****.+ooooo ***.oooooooo#  oooooo  &&&& ---------------------------",
"---------------.+@ @@@ ---- X ***$.ooooo ****.ooooooooo#      %%&&&&  --------------------------",
"--------------.++@@@@ ----- X ****$.ooooo.***.ooooooooooooooo O%%&&& X -------------------------",
"--------------.+++@@@ ----O%OO ***$.ooooo.**$$.ooooooooooo%&%o %%&& XX -------------------------",
"--------------.+++++@.----O%%% ***$$.oooo **$$ oooooooooo&&&&% O%%  XXX ------------------------",
"-------------.o+o+++@@.--O%%%%. *$$$.oooo $*$$ ooooooooo%&&&&&     XXXX ------------------------",
"------------- +o+o+o++@..O%%%%. $$$$.ooooo $$$ ooooooooo&&&&&&&   XXXX & -----------------------",
"------------- ooooooo++++ %%%%.o $$.oooooo $$$.ooooooooo&&&&&&&   XXX &&& ----------------------",
"------------- oooooooo++++ %%.ooo.$ oooooo $$.oooooooo%&&&&&&&&      &&&&O ---------------------",
"------------- oooooooo++++ %%.oooo oooooooo $ ooooooo&&&&&&&&&&&   %%%&&&&O---------------------",
"--------------.oooooooo++++ %.ooooooooooooo. ooooooo%&&&&&&&&&..O%%%%%%&&&& --------------------",
"-------------- oooooooo++++ %.ooooo#####oooooooooooo&&&&&&%o.$*$ %%%%%%%&&&O--------------------",
"---------------  .oooooo++++ ##o..##+++++oooooooooo&&&&&%oo.**** %%%%%%%%&&& -------------------",
"------------------ oooooooo++  .+++++++++++.ooooo%&&&&&&oo.******O%%%%%%%%&&O-------------------",
"------------------- ooooooooo+++++++++++++++.ooooo%&&%ooo.******* %%%%%%%%&&& ------------------",
"------------------- ooooooooo++++++++++++++++.oooooooooo.$$$$$*** %%%%%%%%%&& ------------------",
"------------------- oooooooooooo+++++++++++++.oooooooooo.$$$$$$$* %%%%%%%%%&&% -----------------",
"------------------- ooooooooooooooo+++++++++++.oooooooo.$$$$$$$$$$O%%%%%%%%%&& -----------------",
"------------------ ooooooooooooooooo+++++++++o.ooooo###.$$$$$$$$$$ %%%%%%%%O&&% ----------------",
"------------------ ooooooooooooooooooo+o+o+ooo########.$$$$$$$$$$$ %%%%%%%%O%&% ----------------",
"------------------ oooooooooooooooooo+o+o+ooo#########.$$$$$$$$$$$ %%%%%%%%%O%% ----------------",
"-------------------.oooooooooooooooooooooooo##########.$$$$$$$$$$$ %%%%%O%%%O%%% ---------------",
"------------------- oooooooooooooooooooooooo##.######.$$$$$$$$$$$$ O%%%%O%%%O%%% ---------------",
"-------------------- oooooooooooooooooooooo###.###### $$$$$$$$$$$ - %%%%O%%%%O%% ---------------",
"--------------------- oooooooooooooooooooo###..###### $$$$$$$$$$$ - %%%%%O%%%O%O ---------------",
"----------------------  oooo.   .ooooooo#####.####### $$$$$$$$$$ --- %%%%O%%%O  ----------------",
"------------------------       X   ######### ######### $$$$$$$$ ---- %%%%O%   X-----------------",
"----------------------------  XXXX  .#####  ###########  $$$$.  -----XX    ===X-----------------",
"---------------------------- XXXX ---.    #########.   --       ------ =X-X==X------------------",
"--------------------------- #   . --------.       .-------   XX ------- X--X= ------------------",
"---------------------------.#####.------------------------- XXXX ----------X -------------------",
"--------------------------.####### ------------------------ XXXX -------------------------------",
"--------------------------.####### ------------------------ XXXXX .-----------------------------",
"-------------------------- .#####. ------------------------  XXX  o.----------------------------",
"---------------------------       -------------------------.     ooo..--------------------------",
"---------------------------------------------------------- #######oo==X-------------------------",
"---------------------------------------------------------- ##########== ------------------------",
"---------------------------------------------------------- .#######.   -------------------------",
"-----------------------------------------------------------         ----------------------------",
"------------------------------------------------------------------------------------------------",
"------------------------------------------------------------------------------------------------",
"------------------------------------------------------------------------------------------------",
"------------------------------------------------------------------------------------------------",
"------------------------------------------------------------------------------------------------",
"------------------------------------------------------------------------------------------------",
"------------------------------------------------------------------------------------------------",
"------------------------------------------------------------------------------------------------",
"------------------------------------------------------------------------------------------------",
"------------------------------------------------------------------------------------------------",
"------------------------------------------------------------------------------------------------",
"------------------------------------------------------------------------------------------------",
"------------------------------------------------------------------------------------------------",
"------------------------------------------------------------------------------------------------",
"------------------------------------------------------------------------------------------------"
};
