/* XPM */
static char *sprite_492_back[] = {
/* columns rows colors chars-per-pixel */
"96 96 16 1 ",
"  c #101010",
". c #294129",
"X c #316239",
"o c #5A7341",
"O c #625A6A",
"+ c #834A6A",
"@ c #399441",
"# c #8BAC62",
"$ c #ACDE62",
"% c #FFEE7B",
"& c #CD6A8B",
"* c #8B8BAC",
"= c #EE8BA4",
"- c #BDC5D5",
"; c white",
": c #000000",
/* pixels */
"::::::::::::::::::::::::::::::::::::::::::::::::::::::::::::::::::::::::::::::::::::::::::::::::",
"::::::::::::::::::::::::::::::::::::::::::::::::::::::::::::::::::::::::::::::::::::::::::::::::",
"::::::::::::::::::::::::::::::::::::::::::::::::::::::::::::::::::::::::::::::::::::::::::::::::",
"::::::::::::::::::::::::::::::::::::::::::::::::::::::::::::::::::::::::::::::::::::::::::::::::",
"::::::::::::::::::::::::::::::::::::::::::::::::::::::::::::::::::::::::::::::::::::::::::::::::",
"::::::::::::::::::::::::::::::::::::::::::::::::::::::::::::::::::::::::::::::::::::::::::::::::",
"::::::::::::::::::::::::::::::::::::::::::::::::::::::::::::::::::::::::::::::::::::::::::::::::",
"::::::::::::::::::::::::::::::::::::::::::::::::::::::::::::::::::::::::::::::::::::::::::::::::",
"::::::::::::::::::::::::::::::::::::::::::::::::::::::::::::::::::::::::::::::::::::::::::::::::",
"::::::::::::::::::::::::::::::::::::::::::::::::::::::::::::::::::::::::::::::::::::::::::::::::",
"::::::::::::::::::::::::::::::::::::::::::::::::::::::::::::::::::::::::::::::::::::::::::::::::",
"::::::::::::::::::::::::::::::::::::::::::::::::::::::::::::::::::::::::::::::::::::::::::::::::",
"::::::::::::::::::::::::::::::::::::::::::::::::::::::::::::::::::::::::::::::::::::::::::::::::",
"::::::::::::::::::::::::::::::::::::::::::::::::::::::::::::::::::::::::::::::::::::::::::::::::",
"::::::::::::::::::::::::::::::::::::::::::::::::::::::::::::::::::::::::::::::::::::::::::::::::",
"::::::::::::::::::::::::::::::::::::::::::::::::::::::::::::::::::::::::::::::::::::::::::::::::",
"::::::::::::::::::::::::::::::::::::::::::::::::::::::::::::::::::::::::::::::::::::::::::::::::",
"::::::::::::::::::::::::::::::::::::::::::::::::::::::::::::::::::::::::::::::::::::::::::::::::",
"::::::::::::::::::::::::::::::::::::::::::::::::::::::::::::::::::::::::::::::::::::::::::::::::",
"::::::::::::::::::::::::::::::::::::::::::::::::::::::::::::::::::::::::::::::::::::::::::::::::",
"::::::::::::::::::::::::::::::::::::::::::::::::::::::::::::::::::::::::::::::::::::::::::::::::",
"::::::::::::::::::::::::::::::::::::::::::::::::::::::::::::::::::::::::::::::::::::::::::::::::",
"::::::::::::::::::::::::::::::::::::::::::::::::::::::::::::::::::::::::::::::::::::::::::::::::",
"::::::::::::::::::::::::::::::::::::::::::::::::::::::::::::::::::::::::::::::::::::::::::::::::",
"::::::::::::::::::::::::::::::::::::::::::::::::::::::::::::::::::::::::::::::::::::::::::::::::",
"::::::::::::::::::::::::::::::::::::::::::::::::::::::::::::::::::::::::::::::::::::::::::::::::",
"::::::::::::::::::::::::::::::::::::::::::::::::::::::::::::::::::::::::::::::::::::::::::::::::",
"::::::::::::::::::::::::::::::::::::::::::::::::::::::::::::::::::::::::::::::::::::::::::::::::",
"::::::::::::::::::::::::::::::::::::::::::::::::::::::::::::::::::::::::::::::::::::::::::::::::",
"::::::::::::::::::::::::::::::::::::::::::::::::::::::::::::::::::::::::::::::::::::::::::::::::",
"::::::::::::::::::::::::::::::::::::::::::::::::::::::::::::::::::::::::::::::::::::::::::::::::",
"::::::::::::::::::::::::::::::::::::::::::::::::::::::::::::::::::::::::::::::::::::::::::::::::",
"::::::::::::::::::::::::::::::::::::::::::::::::::::::::::::::::::::::::::::::::::::::::::::::::",
"::::::::::::::::::::::::::::::::::::::::::::##::::###:::::::::::::::::::::::::::::::::::::::::::",
":::::::::::::::::::::::::::::::::::::::: o:##$#:##$$$#::::::::::::::::::::::::::::::::::::::::::",
"::::::::::::::::::::::::::::::::::::::: $$#o$$oo$$$$$oo###::::::::::::::::::::::::::::::::::::::",
"::::::::::::::::::::::::::::::::::::::oo $$#$$o$$$$o $$$$$#:::::::::::::::::::::::::::::::::::::",
":::::::::::::::::::::::::::::::::::: o$$#o####$$$#o$$$$$$##:::::::::::::::::::::::::::::::::::::",
"::::::::::::::::::::::::::::::::::: $$$$$########$$$$#oooo::::::::::::::::::::::::::::::::::::::",
"::::::::::::::::::::::::::::::::::: o#$##########%%%$$$$$oo:::::::::::::::::::::::::::::::::::::",
"::::::::::::::::::::::::::::::::::oo##############%%%$$$$$$o::::::::::::::::::::::::::::::::::::",
":::::::::::::::::::::::::::::::::o$$###################$$$$$o:::::::::::::::::::::::::::::::::::",
"::::::::::::::::::::::::::::::::o$$#######%%############+$$$#o::::::::::::::::::::::::::::::::::",
":::::::::::::::::::::::::::::::: ##o######%%###%#######+=+###o::::::::::::::::::::::::::::::::::",
"::::::::::::::::::::::::::::::::o o####################+=&++#oO:::::::::::::::::::::::::::::::::",
":::::::::::::::::::::::::::::::::o################### ++==+=+;O:::::::::::::::::::::::::::::::::",
"::::::::::::::::::::::::::::::::o#################### &+==+=+;;O::::::::::::::::::::::::::::::::",
"::::::::::::::::::::::::::::::: ###################.. &&+==&+;;;O:::::::::::::::::::::::::::::::",
"::::::::::::::::::::::::::::::o##################..@@@ &&=+&---; :::::::::::::::::::::::::::::::",
":::::::::::::::::::::::::::::: ########%%#######.@@@@@@+&&= ---* :::::::::::::::::::::::::::::::",
":::::::::::::::::::::::::::::: ## ####%%#######.@@@@@@+&& &&+-- ::::::::::::::::::::::::::::::::",
":::::::::::::::::::::::::::::::  o############.@@@@@@ &&&&+&&-O:::::::::::::::::::::::::::::::::",
"::::::::::::::::::::::::::::::::o#############.@@@@@@ &+ &&+&O::::::::::::::::::::::::::::::::::",
":::::::::::::::::::::::::::::::: ###o##########..@@@X. . &&++:::::::::::::::::::::::::::::::::::",
":::::::::::::::::::::::::::::::: #o #############....XXX. &+::::::::::::::::::::::::::::::::::::",
":::::::::::::::::::::::::::::::::  ################.@@XX.++:::::::::::::::::::::::::::::::::::::",
"::::::::::::::::::::::::::::::::::.################.@@@X.-O:::::::::::::::::::::::::::::::::::::",
":::::::::::::::::::::::::::::::::: oo############o.@@@@@.O::::::::::::::::::::::::::::::::::::::",
"::::::::::::::::::::::::::::::::::: *oooo#####ooo-.@@@@.-O::::::::::::::::::::::::::::::::::::::",
"::::::::::::::::::::::::::::::::::::  ***OOOOO---O.@@X.-O:::::::::::::::::::::::::::::::::::::::",
"::::::::::::::::::::::::::::::::::::::   O---*  OO...O-- :::::::::::::::::::::::::::::::::::::::",
"::::::::::::::::::::::::::::::::::::::::::O   :::::::   ::::::::::::::::::::::::::::::::::::::::",
"::::::::::::::::::::::::::::::::::::::::::::::::::::::::::::::::::::::::::::::::::::::::::::::::",
"::::::::::::::::::::::::::::::::::::::::::::::::::::::::::::::::::::::::::::::::::::::::::::::::",
"::::::::::::::::::::::::::::::::::::::::::::::::::::::::::::::::::::::::::::::::::::::::::::::::",
"::::::::::::::::::::::::::::::::::::::::::::::::::::::::::::::::::::::::::::::::::::::::::::::::",
"::::::::::::::::::::::::::::::::::::::::::::::::::::::::::::::::::::::::::::::::::::::::::::::::",
"::::::::::::::::::::::::::::::::::::::::::::::::::::::::::::::::::::::::::::::::::::::::::::::::",
"::::::::::::::::::::::::::::::::::::::::::::::::::::::::::::::::::::::::::::::::::::::::::::::::",
"::::::::::::::::::::::::::::::::::::::::::::::::::::::::::::::::::::::::::::::::::::::::::::::::",
"::::::::::::::::::::::::::::::::::::::::::::::::::::::::::::::::::::::::::::::::::::::::::::::::",
"::::::::::::::::::::::::::::::::::::::::::::::::::::::::::::::::::::::::::::::::::::::::::::::::",
"::::::::::::::::::::::::::::::::::::::::::::::::::::::::::::::::::::::::::::::::::::::::::::::::",
"::::::::::::::::::::::::::::::::::::::::::::::::::::::::::::::::::::::::::::::::::::::::::::::::",
"::::::::::::::::::::::::::::::::::::::::::::::::::::::::::::::::::::::::::::::::::::::::::::::::",
"::::::::::::::::::::::::::::::::::::::::::::::::::::::::::::::::::::::::::::::::::::::::::::::::",
"::::::::::::::::::::::::::::::::::::::::::::::::::::::::::::::::::::::::::::::::::::::::::::::::",
"::::::::::::::::::::::::::::::::::::::::::::::::::::::::::::::::::::::::::::::::::::::::::::::::",
"::::::::::::::::::::::::::::::::::::::::::::::::::::::::::::::::::::::::::::::::::::::::::::::::",
"::::::::::::::::::::::::::::::::::::::::::::::::::::::::::::::::::::::::::::::::::::::::::::::::",
"::::::::::::::::::::::::::::::::::::::::::::::::::::::::::::::::::::::::::::::::::::::::::::::::",
"::::::::::::::::::::::::::::::::::::::::::::::::::::::::::::::::::::::::::::::::::::::::::::::::",
"::::::::::::::::::::::::::::::::::::::::::::::::::::::::::::::::::::::::::::::::::::::::::::::::",
"::::::::::::::::::::::::::::::::::::::::::::::::::::::::::::::::::::::::::::::::::::::::::::::::",
"::::::::::::::::::::::::::::::::::::::::::::::::::::::::::::::::::::::::::::::::::::::::::::::::",
"::::::::::::::::::::::::::::::::::::::::::::::::::::::::::::::::::::::::::::::::::::::::::::::::",
"::::::::::::::::::::::::::::::::::::::::::::::::::::::::::::::::::::::::::::::::::::::::::::::::",
"::::::::::::::::::::::::::::::::::::::::::::::::::::::::::::::::::::::::::::::::::::::::::::::::",
"::::::::::::::::::::::::::::::::::::::::::::::::::::::::::::::::::::::::::::::::::::::::::::::::",
"::::::::::::::::::::::::::::::::::::::::::::::::::::::::::::::::::::::::::::::::::::::::::::::::",
"::::::::::::::::::::::::::::::::::::::::::::::::::::::::::::::::::::::::::::::::::::::::::::::::",
"::::::::::::::::::::::::::::::::::::::::::::::::::::::::::::::::::::::::::::::::::::::::::::::::",
"::::::::::::::::::::::::::::::::::::::::::::::::::::::::::::::::::::::::::::::::::::::::::::::::",
"::::::::::::::::::::::::::::::::::::::::::::::::::::::::::::::::::::::::::::::::::::::::::::::::",
"::::::::::::::::::::::::::::::::::::::::::::::::::::::::::::::::::::::::::::::::::::::::::::::::",
"::::::::::::::::::::::::::::::::::::::::::::::::::::::::::::::::::::::::::::::::::::::::::::::::"
};
