/* XPM */
static char *sprite_033_front[] = {
/* columns rows colors chars-per-pixel */
"96 96 14 1 ",
"  c #101010",
". c #5A3A63",
"X c #B51900",
"o c #DE4229",
"O c #845A52",
"+ c #009463",
"@ c #945AB5",
"# c #4ACEA5",
"$ c #848484",
"% c #CE84DE",
"& c #E6ADEF",
"* c #C5C5C5",
"= c white",
"- c #000000",
/* pixels */
"------------------------------------------------------------------------------------------------",
"------------------------------------------------------------------------------------------------",
"------------------------------------------------------------------------------------------------",
"------------------------------------------------------------------------------------------------",
"------------------------------------------------------------------------------------------------",
"------------------------------------------------------------------------------------------------",
"------------------------------------------------------------------------------------------------",
"------------------------------------------------------------------------------------------------",
"------------------------------------------------------------------------------------------------",
"------------------------------------------------------------------------------------------------",
"------------------------------------------------------------------------------------------------",
"------------------------------------------------------------------------------------------------",
"------------------------------------------------------------------------------------------------",
"------------------------------------------------------------------------------------------------",
"------------------------------------------------------------------------------------------------",
"------------------------------------------------------------------------------------------------",
"------------------------------------------------------------------------------------------------",
"------------------------------------------------------------------------------------------------",
"------------------------------------------------------------------------------------------------",
"------------------------------------------------------------------------------------------------",
"------------------------------------------------------------------------------------------------",
"------------------------------------------------------------------------------------------------",
"------------------------------------------------------------------------------------------------",
"------------------------------------------------------------------------------------------------",
"------------------------------------------------------------------------------------------------",
"----------------------------------. -------------------...--------------------------------------",
"---------------------------------.%% -----------------.%%.--------------------------------------",
"---------------------------------.%% ---------------..%%.---------------------------------------",
"---------------------------------.%% --------------.%%%@.---------------------------------------",
"--------------------------------.%%%. ------------.%%%@.----------------------------------------",
"--------------------------------.%%%.@ ---------..%%%@.-----------------------------------------",
"--------------------------------.%%.@@ --------.&%%%%.-...--------------------------------------",
"-------------------------------.%%%.@@ -------.&&%%@@ .@@@ -------------------------------------",
"-------------------------------.%%%@@ -------.&&%% .@@@@@ ..------------------------------------",
"-------------------------------.%%%@@ -----..%%%% +@@@@  .%% -----------------------------------",
"------------------------------.%%%@@@ ----.%%%%  +++@@ -.%%@ -----------------------------------",
"------------------------------.%%%@@@ ---.%%%% +++++@@ -.%% ------------------------------------",
"-----------------------------.%%%@@@@ --.&%%% ++++++@ -.%%@ ------------------------------------",
"-----------------------------.%%%@@@@ --.&%% +++++++@ -.%%@ ----.-------------------------------",
"----------------------------.%%%@@@@@@ .&&% +++++++@@ .%%@ ----.% ------------------------------",
"----------------------------.%%@@@@@@@ .&%% ++++++#@ .%%@@ ---.%% ------------------------------",
"----------------------------.%@@@@@@@@@.%%% +++++##@ .%@@@ --.%% -------------------------------",
"----------------------------.@@@@@@@@@@.%% ++++####@ %@@@@ ..%%% -------------------------------",
"----------------------------.@@@@@@@@@@.%% +++####+% @@@@@@@@%%@ -------------------------------",
"-----------------------------.@@@@@@@@@.%% ++#####@% @@@@@@@@@@ --------------------------------",
"-----------------------------.@@@@@@@@.%% +++#####@% ...@@@@@@@ ---..---------------------------",
"------------------------------.@@@@@  .%% ++++###@%% @@@..@@@@@ -..%% --------------------------",
"------------------------------.@@@  %%.% ++@+++#@%% @@@@@@..@@...%%%@ --------------------------",
"-------------------------------.@ &%%%@% +@%@++@%  @@..@@%%%@@@@@%%@ ---------------------------",
"-------------------------------. &%%%@%% @%%@+@@ @@@....%%%%%%@@@@@ ----------------------------",
"-------------------------------@&&%%%%%%%%%%+@@.@@@@..@@%%%%%%%@@@@ ----------------------------",
"-------------------------------@&%%%%%%%%%%%%@.@@@@@%%@@%%@@@%%@@@@ ----------------------------",
"------------------------------@&&%%%%%%%%%%%%%%@@%%%%%%%%@@@@@%@@@.@....------------------------",
"------------------------------..%%%%%&&%.@%%%%%%%%%%@@%%%@@@@..@@@.@@@@@ -----------------------",
"----------------------------..&&%%%%&&&.*@%%%%@%%%%%@@@%%%@@...@@@@.@@@ ------------------------",
"--------------------------..&&&%%%%%&&% ==@%%%%.%%%%%@@%%%%...@@@@@@@@ -------------------------",
"------------------------..&&&&%%%%%%@& O*%%%%%%.@%%%%%%%%%@@@@@@@@@..@ -------------------------",
"-----------------------.&&&&&%%%%%%%@% .%%%%%%.@@@@%%%%@@@@@@@@@.@@@@ --------------------------",
"------------------------       %%%%%%..%%%%%..@@@@@@@@...@@@@@@@.@@@@@ -------------------------",
"-----------------------------.&@%%%%%%%%%%  @@@.@@@@..@@@..@@@@.@@@@@@ -------------------------",
"-----------------------------.&&%%%%%%%%   .@@ @@@@.&%@@@@@.@@@.@@@@.. -------------------------",
"------------------------------ &&%%%%%% *= .@@ @@@.&&&%@@@@.@@.@@@..@@ -------------------------",
"------------------------------ &&%@%%% X = .@ @@@.&&&&&@@.. @.@@@.@@@@@ ------------------------",
"------------------------------ &&@%%% XXX .@@ @@@.%&&&...@@ @.@@.@@@.@@ ------------------------",
"------------------------------ &&.%@ XXooo.@    .%%%@.@%@@@@ @@@ @@...@ ------------------------",
"------------------------------- &&@@ Xooo.@ -.@@ %%..&&&@..@ .@ @@@...@@ -----------------------",
"-------------------------------- @@ .Xoo.@ -.@@@@ .%%&&&%... -. @@@@.@@@ -----------------------",
"-------------------------------.@  @@...@ --.@@@@@ %%%&&&...@ -- @@@@@@@ -----------------------",
"-------------------------------..@@@@@   ---.@@@..@ %%%&&@..@ --- @@@.@.. ----------------------",
"-------------------------------.*.@.@@..---.*.@.*..- %%%%%@@@ ---- @.*..* ----------------------",
"------------------------------.**..*...----.......-- %%%%%%@@ ----- $*$  -----------------------",
"------------------------------    .* ---------------- %%%%.@. ------   -------------------------",
"----------------------------------. ------------------ .@.=..* ---------------------------------",
"------------------------------------------------------ =.==*   ---------------------------------",
"-------------------------------------------------------   =  -----------------------------------",
"----------------------------------------------------------  ------------------------------------",
"------------------------------------------------------------------------------------------------",
"------------------------------------------------------------------------------------------------",
"------------------------------------------------------------------------------------------------",
"------------------------------------------------------------------------------------------------",
"------------------------------------------------------------------------------------------------",
"------------------------------------------------------------------------------------------------",
"------------------------------------------------------------------------------------------------",
"------------------------------------------------------------------------------------------------",
"------------------------------------------------------------------------------------------------",
"------------------------------------------------------------------------------------------------",
"------------------------------------------------------------------------------------------------",
"------------------------------------------------------------------------------------------------",
"------------------------------------------------------------------------------------------------",
"------------------------------------------------------------------------------------------------",
"------------------------------------------------------------------------------------------------",
"------------------------------------------------------------------------------------------------",
"------------------------------------------------------------------------------------------------",
"------------------------------------------------------------------------------------------------",
"------------------------------------------------------------------------------------------------",
"------------------------------------------------------------------------------------------------"
};
