/* XPM */
static char *sprite_000_front[] = {
/* columns rows colors chars-per-pixel */
"96 96 16 1 ",
"  c #282828",
". c #704830",
"X c #204070",
"o c #901800",
"O c #903017",
"+ c #D03F00",
"@ c #D05828",
"# c #F86820",
"$ c #E8A840",
"% c #6098C8",
"& c #F8C090",
"* c #88D8F0",
"= c #F8F8D0",
"- c #E8E0F8",
"; c #F8F8F8",
": c #000000",
/* pixels */
"::::::::::::::::::::::::::::::::::::::::::::::::::::::::::::::::::::::::::::::::::::::::::::::::",
"::::::::::::::::::::::::::::::::::::::::::::::::::::::::::::::::::::::::::::::::::::::::::::::::",
"::::::::::::::::::::::::::::::::::::::::::::::::::::::::::::::::::::::::::::::::::::::::::::::::",
"::::::::::::::::::::::::::::::::::::::::::::::::::::::::::::::::::::::::::::::::::::::::::::::::",
"::::::::::::::::::::::::::::::::::::::::::::::::::::::::::::::::::::::::::::::::::::::::::::::::",
"::::::::::::::::::::::::::::::::::::::::::::::::::::::::::::::::::::::::::::::::::::::::::::::::",
"::::::::::::::::::::::::::::::::::::::::::::::::::::::::::::::::::::::::::::::::::::::::::::::::",
"::::::::::::::::::::::::::::::::::::::::::::::::::::::::::::::::::::::::::::::::::::::::::::::::",
"::::::::::::::::::::::::::::::::::::::::::::::::::::::::::::::::::::::::::::::::::::::::::::::::",
"::::::::::::::::::::::::::::::::::::::::::::::::::::::::::::::::::::::::::::::::::::::::::::::::",
"::::::::::::::::::::::::::::::::::::::::::::::::::::::::::::::::::::::::::::::::::::::::::::::::",
"::::::::::::::::::::::::::::::::::::::::::::::::::::::::::::::::::::::::::::::::::::::::::::::::",
"::::::::::::::::::::::::::::::::::::::::::::::::::::::::::::::::::::::::::::::::::::::::::::::::",
"::::::::::::::::::::::::::::::::::::::::::::::::::::::::::::::::::::::::::::::::::::::::::::::::",
"::::::::::::::::::::::::::::::::::::::::::::::::::::::::::::::::::::::::::::::::::::::::::::::::",
"::::::::::::::::::::::::::::::::::::::::::::::::::::::::::::::::::::::::::::::::::::::::::::::::",
"::::::::::::::::::::::::::::::::::::::::::::::::::::::::::::::::::::::::::::::::::::::::::::::::",
"::::::::::::::::::::::::::::::::::::::::::::::::::::::::::::::::::::::::::::::::::::::::::::::::",
"::::::::::::::::::::::::::::::::::::::::::::::::::::::::::::::::::::::::::::::::::::::::::::::::",
"::::::::::::::::::::::::::::::::::::::::::::::::::::::::::::::::::::::::::::::::::::::::::::::::",
"::::::::::::::::::::::::::::::::::::::::::::::::::::::::::::::::::::::::::::::::::::::::::::::::",
"::::::::::::::::::::::::::::::::::::::::::::::::::::::::::::::::::::::::::::::::::::::::::::::::",
"::::::::::::::::::::::::::::::::::::::::::::::::::::::::::::::::::::::::::::::::::::::::::::::::",
"::::::::::::::::::::::::::::::::::::::::::::::::::::::::::::::::::::::::::::::::::::::::::::::::",
"::::::::::::::::::::::::::::::::::::::::::::::::::::::::::::::::::::::::::::::::::::::::::::::::",
"::::::::::::::::::::::::::::::::::::::::::::::::::::::::::::::::::::::::::::::::::::::::::::::::",
"::::::::::::::::::::::::::::::::::::::::::::::::::::::::::::::::::::::::::::::::::::::::::::::::",
"::::::::::::::::::::::::::::::::::::::::::::::::::::::::::::::::::::::::::::::::::::::::::::::::",
"::::::::::::::::::::::::::::::::::::::::::::::::::::::::::::::::::::::::::::::::::::::::::::::::",
"::::::::::::::::::::::::::::::::::::::::::::::::::::::::::::::::::::::::::::::::::::::::::::::::",
"::::::::::::::::::::::::::::::::::::::::::::::::::::::::::::::::::::::::::::::::::::::::::::::::",
"::::::::::::::::::::::::::::::::::::::::::::::::      ::::::::::::::::::::::::::::::::::::::::::",
":::::::::::::::::::::::::::::::::::::::::::::::: +##+o :::::::::::::::::::::::::::::::::::::::::",
":::::::::::::::::::::::::::::::::::::::::::::::  o#o#+o ::::::::::::::::::::::::::::::::::::::::",
"::::::::::::::::::::::::::::::::::::::::::::::: o#o&o## ::::::::::::::::::::::::::::::::::::::::",
"::::::::::::::::::::::::::::::::::::::::::::::: +o&.oo+ ::::::::::::::::::::::::::::::::::::::::",
"::::::::::::::::::::::::::::::::::::::::::::::: o&;o&&o ::::::::::::::::::::::::::::::::::::::::",
"::::::::::::::::::::::::::::::::::::::::::::::::.=;=&.o ::::::::::::::::::::::::::::::::::::::::",
"::::::::::::::::::::::::::::::::::::::::::::::XXXXX&XXXX::::::::::::::::::::::::::::::::::::::::",
":::::::::::::::::::::::::::::::::::::::::::::XX%X$X.X$@XX:::::::::::::::::::::::::::::::::::::::",
"::::::::::::::::::::::::::::::::::::::::::::X;*X&.%%%%%*%X::::::::::::::::::::::::::::::::::::::",
":::::::::::::::::::::::::::::::::::::::::::: ;;*XX*--**%%X::::::::::::::::::::::::::::::::::::::",
":::::::::::::::::::::::::::::::::::::::::::X%XXXXOXX%%%%XXX:::::::::::::::::::::::::::::::::::::",
"::::::::::::::::::::::::::::::::::::::::::X%%.=& @$$XXXX&.X:::::::::::::::::::::::::::::::::::::",
":::::::::::::::::::::::::::::::::::::::::X%%.&=& O@@@OOX&.X:::::::::::::::::::::::::::::::::::::",
"::::::::::::::::::::::::::::::::::::::::X%%%.==. ..&&&.&&.%X::::::::::::::::::::::::::::::::::::",
":::::::::::::::::::::::::::::::::::::::X*%%X.=&. ......%**XX::::::::::::::::::::::::::::::::::::",
"::::::::::::::::::::::::::::::::::::::X***%X*-*  @@@@@O %%X%X:::::::::::::::::::::::::::::::::::",
":::::::::::::::::::::::::::::::::::::X****%X%*%  @$@@@@ ***XX:::::::::::::::::::::::::::::::::::",
"::::::::::::::::::::::::::::::::::::X*****XX*-*% @$@@@@ &=*X%X::::::::::::::::::::::::::::::::::",
":::::::::::::::::::::::::::::::::::X******XX***& @$@@@@ &&%X%X::::::::::::::::::::::::::::::::::",
":::::::::::::::::::::::::::::::::::X*****%XX %% *O$@@@@   XX%%X:::::::::::::::::::::::::::::::::",
"::::::::::::::::::::::::::::::::::X******XXXX   ;O$$@@@ XXXX%%X:::::::::::::::::::::::::::::::::",
"::::::::::::::::::::::::::::::::::X=*****XXXXXX*;O$$@@@ XXXXX%X:::::::::::::::::::::::::::::::::",
"::::::::::::::::::::::::::::::::::X=****%XXXXXX-;O$$@@@ XXXXX&%X::::::::::::::::::::::::::::::::",
"::::::::::::::::::::::::::::::::::X=****X   XX ;;O$$@@@ XX   %&X::::::::::::::::::::::::::::::::",
":::::::::::::::::::::::::::::::::::X=*== :::   XXO$$@@$   :: %%X::::::::::::::::::::::::::::::::",
":::::::::::::::::::::::::::::::::::X&=** ::::: %%O;;$$O :::: %&X::::::::::::::::::::::::::::::::",
"::::::::::::::::::::::::::::::::::::X&*% ::::: **OOOOOX :::: &&X::::::::::::::::::::::::::::::::",
"::::::::::::::::::::::::::::::::::::X&&% :::: X%% : XXX :::: &X:::::::::::::::::::::::::::::::::",
"::::::::::::::::::::::::::::::::::::: & ::::: X%% : X%%%     X::::::::::::::::::::::::::::::::::",
"::::::::::::::::::::::::::::::::::::: & :     %%%   X%%%%      :::::::::::::::::::::::::::::::::",
":::::::::::::::::::::::::::::::::::::        %**%    X%%%      :::::::::::::::::::::::::::::::::",
"::::::::::::::::::::::::::::::::::::         *--*           ::::::::::::::::::::::::::::::::::::",
"::::::::::::::::::::::::::::::::::::         *--*      :::::::::::::::::::::::::::::::::::::::::",
"::::::::::::::::::::::::::::::::::::::::          ::::::::::::::::::::::::::::::::::::::::::::::",
"::::::::::::::::::::::::::::::::::::::::::::::::::::::::::::::::::::::::::::::::::::::::::::::::",
"::::::::::::::::::::::::::::::::::::::::::::::::::::::::::::::::::::::::::::::::::::::::::::::::",
"::::::::::::::::::::::::::::::::::::::::::::::::::::::::::::::::::::::::::::::::::::::::::::::::",
"::::::::::::::::::::::::::::::::::::::::::::::::::::::::::::::::::::::::::::::::::::::::::::::::",
"::::::::::::::::::::::::::::::::::::::::::::::::::::::::::::::::::::::::::::::::::::::::::::::::",
"::::::::::::::::::::::::::::::::::::::::::::::::::::::::::::::::::::::::::::::::::::::::::::::::",
"::::::::::::::::::::::::::::::::::::::::::::::::::::::::::::::::::::::::::::::::::::::::::::::::",
"::::::::::::::::::::::::::::::::::::::::::::::::::::::::::::::::::::::::::::::::::::::::::::::::",
"::::::::::::::::::::::::::::::::::::::::::::::::::::::::::::::::::::::::::::::::::::::::::::::::",
"::::::::::::::::::::::::::::::::::::::::::::::::::::::::::::::::::::::::::::::::::::::::::::::::",
"::::::::::::::::::::::::::::::::::::::::::::::::::::::::::::::::::::::::::::::::::::::::::::::::",
"::::::::::::::::::::::::::::::::::::::::::::::::::::::::::::::::::::::::::::::::::::::::::::::::",
"::::::::::::::::::::::::::::::::::::::::::::::::::::::::::::::::::::::::::::::::::::::::::::::::",
"::::::::::::::::::::::::::::::::::::::::::::::::::::::::::::::::::::::::::::::::::::::::::::::::",
"::::::::::::::::::::::::::::::::::::::::::::::::::::::::::::::::::::::::::::::::::::::::::::::::",
"::::::::::::::::::::::::::::::::::::::::::::::::::::::::::::::::::::::::::::::::::::::::::::::::",
"::::::::::::::::::::::::::::::::::::::::::::::::::::::::::::::::::::::::::::::::::::::::::::::::",
"::::::::::::::::::::::::::::::::::::::::::::::::::::::::::::::::::::::::::::::::::::::::::::::::",
"::::::::::::::::::::::::::::::::::::::::::::::::::::::::::::::::::::::::::::::::::::::::::::::::",
"::::::::::::::::::::::::::::::::::::::::::::::::::::::::::::::::::::::::::::::::::::::::::::::::",
"::::::::::::::::::::::::::::::::::::::::::::::::::::::::::::::::::::::::::::::::::::::::::::::::",
"::::::::::::::::::::::::::::::::::::::::::::::::::::::::::::::::::::::::::::::::::::::::::::::::",
"::::::::::::::::::::::::::::::::::::::::::::::::::::::::::::::::::::::::::::::::::::::::::::::::",
"::::::::::::::::::::::::::::::::::::::::::::::::::::::::::::::::::::::::::::::::::::::::::::::::",
"::::::::::::::::::::::::::::::::::::::::::::::::::::::::::::::::::::::::::::::::::::::::::::::::",
"::::::::::::::::::::::::::::::::::::::::::::::::::::::::::::::::::::::::::::::::::::::::::::::::",
"::::::::::::::::::::::::::::::::::::::::::::::::::::::::::::::::::::::::::::::::::::::::::::::::",
"::::::::::::::::::::::::::::::::::::::::::::::::::::::::::::::::::::::::::::::::::::::::::::::::",
"::::::::::::::::::::::::::::::::::::::::::::::::::::::::::::::::::::::::::::::::::::::::::::::::",
"::::::::::::::::::::::::::::::::::::::::::::::::::::::::::::::::::::::::::::::::::::::::::::::::"
};
