/* XPM */
static char *sprite_503_back[] = {
/* columns rows colors chars-per-pixel */
"96 96 12 1 ",
"  c #010101",
". c #203962",
"X c gray29",
"o c #7B6241",
"O c #5A7373",
"+ c #D55262",
"@ c #AC945A",
"# c #D5C57B",
"$ c #205A9C",
"% c #83A4A4",
"& c white",
"* c None",
/* pixels */
"************************************************************************************************",
"************************************************************************************************",
"************************************************************************************************",
"************************************************************************************************",
"************************************************************************************************",
"************************************************************************************************",
"************************************************************************************************",
"************************************************************************************************",
"*****************************************************************************oo*****************",
"***************************************************************************oo# *****************",
"************************************************************************** @# ******************",
"*****************************************************************oo****** ## *******************",
"*****************************************************************o#o**** ##@ *******************",
"*****************************************************************o##o* o### ********************",
"*****************************************************************o### @### *********************",
"*********************************************oo*******************o##o###@o*********************",
"********************************************* #o******************o##### @@o********************",
"****************************************X%*** ##o***************** #### oo@o********************",
"****************************************X&%*** ##o*******oooooo**o@### ***  ********************",
"****************************************X&%*** ### ****oo######oo####o *************************",
"****************************************X&&%*** ### *oo##########o##@ **************************",
"****************************************X%&X*** ##@@    ######@@@#o#o*********X*****************",
"*******************X%********************X&&X*o @@@@@ ##oo##@@@@@@@o*********X&X****************",
"*******************X&%************** o***X&&&X@@ @@@@@#### @@@@@@@@o*********X&X****************",
"********************X&%%************ #oo*X%&&&X@o@@@@@@@### @@@  o@@ *******X&&X****************",
"********************X&&&%%*********** ##o*X&&&&X@o@@@@@@@@@@ @o % $. ******X&&&X****************",
"*********************X&&&&%********** ###oX%&&&&X@@@@@@@@@@@ @ o&+ .******X&&&& ****************",
"**********************X&&&&&%%%******* ####X&&&&&XX@@@@@@@@@@  @ +$.****XX&&&& *****************",
"*********************** &&&&&&&%%%%**** ####X&&&&&&XX@@@@@@@@ o@o.$$.*XX&&&&&& *****************",
"************************ &&&&&&&&&&%%%% ##@@@X&&&&&&&XX@@@@@@ @@@o..XX%%&&&&& ******************",
"************************* &&&&&&&&&&&&&& @@XXXX%&&&&&&%XXX@@@   @o.%%%%%%&&% *******************",
"**************************XX&&&&&&&&&&&&& @X&&&XXX%&&%%%%%XXXX..  .X%%%%%%XX********************",
"*************************   XX&&&&&&&&&&o@ @ &&&&&&%%%%%%%%%%%XXXX%% %%%%%%%X*******************",
"************************* &&&&&&&&&&&&&&o@@@@ &&&%%%%%%%%%%%%%%%%%%%%  %%%  ********************",
"************************** X&&&&&&&&&&&%o@@@@@ %%%%%%%%%%%%%%%%%%%%%X**   **********************",
"****************************  X&&&&&&&X @@@@@@@  %%%%%%%%%%%%%%%%X%% ***************************",
"*******************************      X& @@@@@@@@@   %%%%%X%%%%%X %%%X***************************",
"*************************************XX @@@@@@@@@@@@    X%%%%%  %%%%%X**************************",
"******************oo******************* @@@@@@@@@@@@@@X%%%%X  * %%%%&X**************************",
"*****************o##oo***************** @@@@@@@@@@@@@@      . ** %%&&X**************************",
"*****************o####o**********  ***** @@ooo@@@@@@@@@@@@@  **** %X&&X*************************",
"*****************o#####o*******  $$ **** @o@@@oo@@@@@@@@@@ . *****  X&&X************************",
"**************** #######o***** $$$$ *****  @@@@@o@@@@@@@@@ . *******   *************************",
"**********.....* ######@@o*** $$$$$$ ***** @@@@@o@@@@@@@@ . ************************************",
"********..$$$$$. ####@@@@o*** $$$$.. ***** @@@@@@o@@@@@  .. ************************************",
"******** $$$$$$$ ##@@@@@   * .$..... ***** @@@@@@o@@   ...$.************************************",
"********* $$$$$$$ @@@@@@o%O  ....... ***** @@@@@    .....$$.************************************",
"********** ..$$$$. @@@@@o%%% ....... ***** @@@@ .........$$.************************************",
"*********** .......  @@@@o%%........ ****  @@  ...........$.************************************",
"************ ........  @@oOO........ *** ..  .............$.************************************",
"************* .........   OOX...... $   ..................$$.*****o*****************************",
"**************  ........OOOOX...... $$$$  .................$.****o#o****************************",
"****************  .......OOOX...... $$$$$$ ................$$.***o# ****************************",
"******************  ......XO...... $$$$$$$$ ................$$.**o##o***************************",
"********************  ............ $$$$$$$$$............. ..$$.**o## ***************************",
"**********************   ........ ...$$$$$$.............. ...$$.*o## ***************************",
"************************    ..... ...................... .....$$.o### **************************",
"*********************** ........ ....................... ........ @## o*************************",
"********************** ................................. ....... @@@##o*************************",
"********************** ........................ ........ ...... @@@@@#o*************************",
"********************* .........................  .............. @@@@@##o************************",
"********************* .......................... ............... @@@@@#o************************",
"******************oo .........................    ....... ...... o@@@@@o************************",
"******************o@ .......................  @@@o ...... .......  @@o   ***********************",
"***************** @ ..........XOOOOX....... @@@@@@ ....XOO ........  @##o **********************",
"***************** @ .........XOOOOOOO .... @@@@@@@o XOOOOO ....... o@@@## **********************",
"****************o @ .........OOOOOOOOO ... o@@@@@@@ OOOOOO. ...... @@@@## **********************",
"***************o@  ..........XOOOOOOOO .... @@@@@@@oOOO...** ...... @@@@##o*********************",
"*************** @@ ...........OO      O .... @@@@@@o...****** ..... o@@@##o*********************",
"*************** @ ............  * ....   .... o@     ********* ..... o@@@   ********************",
"*************** @ ........... ** ....... .....  @@@@ ********** .....  @oo##o*******************",
"**************o  ........... *** ........ .... @@@@@o ********** ...... @@@# *******************",
"*************o@@ .........  *** ........  .... o@@@@@ ********** .......o@@##o******************",
"*************o@ ......... ***  ........ * ..... @@@@@ *********** .......o@@#o******************",
"************ @@ ........ *** X........ *** ..... @@@@o************ ....... o@ .*****************",
"************ @ ........ *** XX ....   ***** ..... o@   ************ .......  $$..***************",
"************ @........ *****       ******** ......  @@@ ************ .....$$$$$$  **************",
"************ .......  ********************** .... o@@@@@ ************  .....$   XX *************",
"*********** ....... ************************* .... @@@@@ **************   .. XXX XX ************",
"********** X.....  *************************** .... o@@@@ ****************  XXXXX  X ***********",
"********* XX ..  ******************************  ...  @@o. *****************    XXX  ***********",
"**********     ********************************** ....   $$. *******************   *************",
"**************************************************  .....$$$  **********************************",
"***************************************************  ....   XX *********************************",
"****************************************************   . XXX  X ********************************",
"******************************************************    XXXX  ********************************",
"**********************************************************     *********************************",
"************************************************************************************************",
"************************************************************************************************",
"************************************************************************************************",
"************************************************************************************************",
"************************************************************************************************",
"************************************************************************************************",
"************************************************************************************************",
"************************************************************************************************",
"************************************************************************************************"
};
