/* XPM */
static char *sprite_251_front[] = {
/* columns rows colors chars-per-pixel */
"96 96 14 1 ",
"  c #101010",
". c #4A7320",
"X c #73A431",
"o c #B4C55A",
"O c #A4DE52",
"+ c #0062B4",
"@ c #6A7383",
"# c #528BAC",
"$ c #DEEE94",
"% c #8BB4CD",
"& c #FFFFDE",
"* c #C5DEE6",
"= c white",
"- c #000000",
/* pixels */
"------------------------------------------------------------------------------------------------",
"------------------------------------------------------------------------------------------------",
"------------------------------------------------------------------------------------------------",
"------------------------------------------------------------------------------------------------",
"------------------------------------------------------------------------------------------------",
"------------------------------------------------------------------------------------------------",
"------------------------------------------------------------------------------------------------",
"------------------------------------------------------------------------------------------------",
"------------------------------------------------------------------------------------------------",
"------------------------------------------------------------------------------------------------",
"------------------------------------------------------------------------------------------------",
"------------------------------------------------------------------------------------------------",
"------------------------------------------------------------------------------------------------",
"------------------------------------------------------------------------------------------------",
"------------------------------------------------------------------------------------------------",
"------------------------------------------------------------------------------------------------",
"------------------------------------------------------------------------------------------------",
"------------------------------------------------------------------------------------------------",
"------------------------------------------------------------------------------------------------",
"------------------------------------------------------------------------------------------------",
"------------------------------------------------------------------------------------------------",
"------------------------------------------------------------------------------------------------",
"------------------------------------------------------------------------------------------------",
"------------------------------------------------------------------------------------------------",
"------------------------------------------------------------------------------------------------",
"------------------------------------------------------------------------------------------------",
"------------------------------------------------XX----------------------------------------------",
"------------------------------------------------XOX---------------------------------------------",
"-------------------------------------------------XO --------------------------------------------",
"---------------------------------------------##--XOX -------------------------------------------",
"--------------------------------------------#%+--.OO -------------------------------------------",
"---------------------------------#---------#%+---.XO. ------------------------------------------",
"--------------------------------%+--------#%#---XO.O..------------------------------------------",
"-------------------------------#%+--------#%+---XO.O.O -----------------------------------------",
"------------------------------#%+--------#%#---XOXOO.O -----------------------------------------",
"------------------------------#%+--------#*+--X&&X&XOO.-----------------------------------------",
"------------------------------#%+--------X*.XX&&X&&XOX& ----------------------------------------",
"------------------------------#*X--------X*.&&&o&&o&&X& ----------------------------------------",
"-------------------------------%*X-------X&X&&&&&&o&&o&.----------------------------------------",
"-------------------------------X&&X-----XX&&.&&&&&&&&&&&.---------------------------------------",
"--------------------------------X&&XX---&oo&X&&&&&&&&&&& ---------------------------------------",
"---------------------------------.&&&X-X=&X&&&&&&&&&&&&& ---------------------------------------",
"----------------------------------.X&$.===&X&&&&&&&&&&&$ ---------------------------------------",
"------------------------------------.X.===&&o&&@  @&&&&o ---------------------------------------",
"-------------------------------------.&==&&&&&     @&&oo ---------------------------------------",
"-------------------------------------.&&&&&&&   ==@ &oo.----------------------------------------",
"-------------------------------------.&&&&&&@  +#== ooo ----------------------------------------",
"------------------------------------- &&&&&&@ =+#== oo.-----------------------------------------",
"------------------------------------- o&&&&&  ++## @oo -----------------------------------------",
"--------------------------------------.&&&$o   ++  oo --###-------------------------------------",
"-------------------------------------- .ooooo    @oo -##===+------------------------------------",
"--------------------------------------- .oooooooooX ##**===+------------------------------------",
"-----------------------------------------.X ooooX..o...*==+-------------------------------------",
"--------------------------------------------. .ooo&&&&oXXXXX -----------------------------------",
"-----------------------------------------XXXoXoooooo&&&&&&&&& ----------------------------------",
"-----------------------------------XX--XX&&&X&&&O. .oooX..&&  ----------------------------------",
"-----------------------------------X&  &&&&.O&&XOO -...--- X -----------------------------------",
"----------------------------------.& OO.   .O&XOOO ---------------------------------------------",
"-----------------------------------. OO.--XXOXOOOO ---------------------------------------------",
"------------------------------------ XOO.XOOOOOOO...--------------------------------------------",
"-------------------------------------XOOOX..XOOOXOOX.-------------------------------------------",
"------------------------------------- OOO ---  O.OOO -------------------------------------------",
"--------------------------------------   ------ .OOO -------------------------------------------",
"------------------------------------------------.OOO -------------------------------------------",
"------------------------------------------------.XO --------------------------------------------",
"-------------------------------------------------  ---------------------------------------------",
"------------------------------------------------------------------------------------------------",
"------------------------------------------------------------------------------------------------",
"------------------------------------------------------------------------------------------------",
"------------------------------------------------------------------------------------------------",
"------------------------------------------------------------------------------------------------",
"------------------------------------------------------------------------------------------------",
"------------------------------------------------------------------------------------------------",
"------------------------------------------------------------------------------------------------",
"------------------------------------------------------------------------------------------------",
"------------------------------------------------------------------------------------------------",
"------------------------------------------------------------------------------------------------",
"------------------------------------------------------------------------------------------------",
"------------------------------------------------------------------------------------------------",
"------------------------------------------------------------------------------------------------",
"------------------------------------------------------------------------------------------------",
"------------------------------------------------------------------------------------------------",
"------------------------------------------------------------------------------------------------",
"------------------------------------------------------------------------------------------------",
"------------------------------------------------------------------------------------------------",
"------------------------------------------------------------------------------------------------",
"------------------------------------------------------------------------------------------------",
"------------------------------------------------------------------------------------------------",
"------------------------------------------------------------------------------------------------",
"------------------------------------------------------------------------------------------------",
"------------------------------------------------------------------------------------------------",
"------------------------------------------------------------------------------------------------",
"------------------------------------------------------------------------------------------------",
"------------------------------------------------------------------------------------------------",
"------------------------------------------------------------------------------------------------",
"------------------------------------------------------------------------------------------------"
};
