/* XPM */
static char *sprite_127_back[] = {
/* columns rows colors chars-per-pixel */
"96 96 13 1 ",
"  c #010101",
". c #4A4139",
"X c #5A4131",
"o c #836A52",
"O c #837362",
"+ c #A48B6A",
"@ c #B4A494",
"# c #C5AC8B",
"$ c #D5C5B4",
"% c #E6D5B4",
"& c #EEE6CD",
"* c white",
"= c #000000",
/* pixels */
"================================================================================================",
"================================================================================================",
"================================================================================================",
"================================================================================================",
"================================================================================================",
"================================================================================================",
"================================================================================================",
"================================================================================================",
"================================================================================================",
"================================================================================================",
"================================================================================================",
"================================================================================================",
"================================================================================================",
"================================================================================================",
"================================================================================================",
"================================================================================================",
"================================================================================================",
"================================================================================================",
"======================================@@======@@================================================",
"================================O==@@@&&O====O&&@@==============================================",
"===============================O&OO&&&&&.====.&&&&OO============================================",
"===============================O&@&&&&$.======.&&&&&O===========================================",
"===============================O&&&&$@.========.$$&&&O==========================================",
"==============================O&&&$$@$$O=======.$OO$&&OOO=======================================",
"=============================O&&$$@@@$..========.$O$$$@&&.======================================",
"============================O$$$$@@@@.==========.$$$$$$$ =======================================",
"============================O$$$$@@@@.===========.@@$$$$$.======================================",
"===========================O$$$OO@@@.============ @@@$$$$.======================================",
"===========================O$$$.$O@@.===========. @@@@@$$@.=====================================",
"=========================OOO$$$.$@@@.==========.$O@@@@OO@@.=====================================",
"=========================.$O$@@@.@@@.===========  O@@.$O@@@.====================================",
"==========================.@@@@@@@@@.OO=========== @@$$O@@@.====================================",
"==========================.@.@@@@@@@@$.=========== @@@O@@@@.====================================",
"==========================..$.@@@@@@$.============ @@@@@@@@ ====================================",
"==========================.O$@@@@@@O.@.==========.@@@@@@@@@ ====================================",
"===========================.O@@@@@@@@@@XXXXXXX===.@@@@@@@@OOO===================================",
"===========================.@@@@@@@@@XX%%%%%#oXXX@@@@@@@@@$$.===================================",
"============================ @@@@@@XX%%%%%%%+oooX@@@@@@@@@@.====================================",
"============================ @@@@@X%%%%%%%%#ooooX@@@@@@@@@ =====================================",
"=============================.@@@X%%%%%%%%#ooooooX@@@@@@@@ =====================================",
"==============================.@ #%%%%%%%#oooooooX@@@@@@@ ======================================",
"===============================. #%%%%%%#oooooooooX@@@@@@ ======================================",
"=============================== oo#%%%#+oooooooooooXX@@@ =======================================",
"===========================XXXX oooooooooooooooooooooXX ========================================",
"=========================XX%#o oooooooooooooooooooooooo ========================================",
"========================X%%%#o oooooooooooooooooooooooXXooo=====================================",
"========================X%%#+o ooooooooooooooooooooooXoo#%%o====================================",
"=======================X+##+o  ooooXXXXXXXooooooooooXooo+%%%o===================================",
"=======================Xooooo oXXXXoooooooXXXXXXXooXooooo#%%o===================================",
"======================= ooooo oooooooooooooooooooXX oooooo+++X==================================",
"======================= ooooo ooooooooooooooooooooo oooooooooX==================================",
"======================== oooo ooooooooooooooooooooo oooooooooX==================================",
"===================OO===X ooo ooooooooooooooooooooo ooooooooooX=================================",
"==================O**O= # oo  XooooXXXXXXooooooooooo ooooooooXX=================================",
"=================O*XXX #+o  = oXXXXooooooXXXXXXXooooo ooooooX+#X=============OO=================",
"================OOX%# X+oo == ooooooooooooooooooXXXooo      oo+#XXXX======XXX**O================",
"===============O*X## ooXo ==== ooooooooooooooooooooXXXXX+X==  o+#X##XXXX=X%%# X ================",
"============== $$ #+ ooo ===== oooooooooooooooooooooooo++X==== ooX++####XXXX####O===============",
"==============    +oo   ====== oooooXXXXXXooooooooooooo+X====== Xooooo++####X#++# ==============",
"================== oooo ====== XXXXXooooooXXXXXoooooooo+X=======       ooooo ooo+ O=============",
"===================  X ======== oooooooooooooooXXXXooo++X==============     oooo *O=============",
"==================== $ =======X oooooooooooooooooooXXX+X================= $Xoooo $ =============",
"====================  =======X# ooooooooooooooooooo    X================= $X    =  =============",
"============================X%#o ooooXXXXXooooooo  oooo X=================  ====================",
"===========================X%%+o XXXXoooooXXXXoo ooooooo#X======================================",
"===========================X#+ooo ooooooooooooXX ooooooo#%X=====================================",
"==========================X+Xooooo oooooooooooo oooooooo+%X=====================================",
"==========================XoXoooooo ooooooooooo ooooooooo%XX====================================",
"========================== ooXXooooo  ooooooooo oooooooooX#X====================================",
"========================== ooooXXXXXX   oooooo  ooooooXXX+#X====================================",
"========================== X Xoooooo ===      == XXXXXoooo+X====================================",
"===========================X* Xooooo X========== oooooooooo ====================================",
"==========================O*** XooX $$X========= ooooooooo =====================================",
"==========================O**$  o      ======== oX  oooooo O====================================",
"==========================O**$   ============== X**  Xooo **O===================================",
"==========================O*  ==================X**$  Xo $$**O==================================",
"==========================  ===================O***$    =     ==================================",
"===============================================O**  ============================================",
"===============================================   ==============================================",
"================================================================================================",
"================================================================================================",
"================================================================================================",
"================================================================================================",
"================================================================================================",
"================================================================================================",
"================================================================================================",
"================================================================================================",
"================================================================================================",
"================================================================================================",
"================================================================================================",
"================================================================================================",
"================================================================================================",
"================================================================================================",
"================================================================================================",
"================================================================================================",
"================================================================================================"
};
