/* XPM */
static char *sprite_476_back[] = {
/* columns rows colors chars-per-pixel */
"96 96 14 1 ",
"  c #101010",
". c #5A2920",
"X c #7B3129",
"o c #29394A",
"O c #394A5A",
"+ c #BD3152",
"@ c #E65A62",
"# c #184A83",
"$ c #3962AC",
"% c #5A7BCD",
"& c #EE7B8B",
"* c #739CE6",
"= c #83ACF6",
"- c #000000",
/* pixels */
"------------------------------------------------------------------------------------------------",
"------------------------------------------------------------------------------------------------",
"------------------------------------------------------------------------------------------------",
"------------------------------------------------------------------------------------------------",
"------------------------------------------------------------------------------------------------",
"------------------------------------------------------------------------------------------------",
"------------------------------------------------------------------------------------------------",
"------------------------------------------------------------------------------------------------",
"------------------------------------------------------------------------------------------------",
"------------------------------------------------------------------------------------------------",
"------------------------------------------------------------------------------------------------",
"------------------------------------------------------------------------------------------------",
"------------------------------------------------------------------------------------------------",
"------------------------------------------------------------------------------------------------",
"------------------------------------------------------------------------------------------------",
"------------------------------------------------------------------------------------------------",
"------------------------------------------------------------------------------------------------",
"----------------------------------------    ....XXXXXXXX----------------------------------------",
"--------------------------------------- +++++++++@@@&&&&X---------------------------------------",
"--------------------------------------- ++++++++++++++@@X---------------------------------------",
"-------------------------------------    ................XXXX-----------------------------------",
"-------------------------------     XX@@@@@@&&&&&&&&&&&&&&&&&+XXX-------------------------------",
"------------------------------ ++++++++++++++++++++++++++++++@@@@X------------------------------",
"----------------------------- ++++++++++++++++++++++++++++++@@@@@@X-----------------------------",
"----------------------------- +++++++++++++++++++++++++++++@+@@@@@X-----------------------------",
"----------------------------- ++++++++++++++++++++++++++++++@@@@@@X-----------------------------",
"----------------------------- +++++++++++++++++++++++++++++@+@@@@@X-----------------------------",
"----------------------------- ++++++++++++++++++++++++++++++@@@@@@X-----------------------------",
"----------------------------- +++++++++++++++++++++++++++++@+@@@@@.-----------------------------",
"----------------------------- ++++++++++++++++++++++++++++++@+@@@@.-----------------------------",
"----------------------------- +++++++++++++++++++++++++++++@+@@@@@.-----------------------------",
"----------------------------- X+++++++++++++++++++++++++++++@+@@@@.-----------------------------",
"------------------------------ XXXXXX++++++++++++++++++++++++++++ ------------------------------",
"-------------------------------     oXXXXXXXXXXXXXXXXXXXXXXX     -------------------------------",
"--------------------------------------o                  o--------------------------------------",
"---------------------------------------                  ---------------------------------------",
"------------------------------------- oo                oo--------------------------------------",
"------------------------------------- #$$##oooooooooo##$$#o-------------------------------------",
"------------------------------------ #$##$$$$$$$$$$$$####$ X------------------------------------",
"------------------------------ooooo- $$$$############%===== X-----------------------------------",
"----------------------------- ===== $$$$#$$$$$$$$$$$$#%===% &X----------------------------------",
"----------------------------oo%==== $$$$#$$$$$$$$$$$$$#%=#%% ++---------------------------------",
"---------------------------- %%%%= $$$$$#$$$$$$$$$$$$$$##%%% &&+--------------------------------",
"--------------------------ooooooo% $$$$#$$$$$$$$$$$$$$$$#oooo$&&+-------------------------------",
"------------------------- ******o $$$$$#$$$$$$$$$$$$$$$$#o===%oo$+------------------------------",
"-------------------------o*******o$$$$$#$$$$$$$$$$$$$$$$o=======%oX-----------------------------",
"------------------------ %*******o$$$$#$$$$$$$$$$$$$$$$$o========= -----------------------------",
"-----------------------  #****oo%*o$$$#$$$$$$$$$$$$$$$$o=========* X----------------------------",
"----------------------- $$%***ooo*o$$$#$$$$$$$$$$$$$$$$o=%oo====#  &X---------------------------",
"---------------------- $$$#***o=o**o$#$$$$$$$$$$$$$$$$o==ooo===$%% &&X--------------------------",
"---------------------- $$$#***o=o**o$#$$$$$$$$$$$$$$$$o==o=o===#%% &&&X-------------------------",
"--------------------- $$$$$%**ooo**o$#$$$$$$$$$$$$$$$$o==o=o===#%%% &&&X------------------------",
"--------------------- $$$$$#**%oo***o$$$$$$$$$$$$$$$$o===ooo==$%%%% &&&&X-----------------------",
"-------------------- $$$$$$#********o$$$$$$$$$$$$$$$$o===oo%==#%%%%% &&&&X----------------------",
"-------------------- $$$$$$$%********o$$$$$$$$$$$$$$o=========#%%%%% &&&&&X---------------------",
"-------------------o$$$$$$$$##*******o$$$$$$$$$$$$$$o%%======$%%%%%%% &&&&&X--------------------",
"------------------ #$$$$$$$$$$#***$$o$$$$$$$$$$$$$$$o%%%%==##%%%%%%%% &&&&&X--------------------",
"------------------ #$$$$$$$$#oo$$$$$o$$$$$$$$$$$$$$$$o%%%%%o%%%%%%%%%% &&&&@X-------------------",
"-------------------    oooooo$$$$$$o$$$$$$$$$$$$$$$$$o%%%%%%ooo#%%%%%% &@@&+X-------------------",
"--------------------- $$$$$$$#$$$$$o$$$$$$$$$$$$$$$$$$o%%%%%#%%%#      &XX++ -------------------",
"---------------------- $$$$$$#$$$$o$$$$$$$$$$$$$$$$$$$$o%%%#%%%%%% %% XX+++ --------------------",
"----------------------- o$$$$$#$oo#$$$$$$$$$$$$$$$$$$$$$oo#%%%%%%#%%%% +++ ---------------------",
"------------------------       o$$#$$$$$$$$$$$$$$$$$$$$$$$o     #%%%%%  + ----------------------",
"------------------------ #######$#$$$$$$$$$$$$$$$$$$$$$$$$$$$#%%%%%%%$#  o-oo-------------------",
"----------------------- $####$%%%#%$$$$$$$$$$$$$$$$$$$$$$$$%%#%%%%$###$ ooooo-------------------",
"----------------------- $$$#$##%%#%%%%%%$$$$$$$$$$$$$$$%%%%%%########$$ ooOOoo -----------------",
"------------------------ $#$##########$$%%%%%%%%%%%%%%%$$########$#$#$ ooOOOO  -----------------",
"------------------------oo$#$#####################################$#$ooooOOO -------------------",
"------------------------- $$#$###################################$#$$  o o OO ------------------",
"-------------------------- $$#####################################$$o o o     ------------------",
"--------------------------oo$#####################################$#   o o ---------------------",
"--------------------------- $$###################################$$         --------------------",
"---------------------------- $###################################$          --------------------",
"-----------------------------  #################################        -   --------------------",
"-------------------------------    o#######################o             -----------------------",
"------------------------------------     #############                   -----------------------",
"-----------------------------------------              -     -      -  -------------------------",
"----------------------------------------------------  --   ----    -----------------------------",
"------------------------------------------------------------------------------------------------",
"------------------------------------------------------------------------------------------------",
"------------------------------------------------------------------------------------------------",
"------------------------------------------------------------------------------------------------",
"------------------------------------------------------------------------------------------------",
"------------------------------------------------------------------------------------------------",
"------------------------------------------------------------------------------------------------",
"------------------------------------------------------------------------------------------------",
"------------------------------------------------------------------------------------------------",
"------------------------------------------------------------------------------------------------",
"------------------------------------------------------------------------------------------------",
"------------------------------------------------------------------------------------------------",
"------------------------------------------------------------------------------------------------",
"------------------------------------------------------------------------------------------------",
"------------------------------------------------------------------------------------------------",
"------------------------------------------------------------------------------------------------",
"------------------------------------------------------------------------------------------------",
"------------------------------------------------------------------------------------------------"
};
