/* XPM */
static char *sprite_138_back[] = {
/* columns rows colors chars-per-pixel */
"96 96 12 1 ",
"  c #010101",
". c #625231",
"X c #9C836A",
"o c #C5AC73",
"O c #394183",
"+ c #416AAC",
"@ c #399CCD",
"# c #62BDF6",
"$ c #E6DE83",
"% c #9CE6F6",
"& c #FFEEC5",
"* c #000000",
/* pixels */
"************************************************************************************************",
"************************************************************************************************",
"************************************************************************************************",
"************************************************************************************************",
"************************************************************************************************",
"************************************************************************************************",
"************************************************************************************************",
"************************************************************************************************",
"************************************************************************************************",
"************************************************************************************************",
"************************************************************************************************",
"************************************************************************************************",
"************************************************************************************************",
"************************************************************************************************",
"************************************************************************************************",
"************************************************************************************************",
"************************************************************************************************",
"************************************************************************************************",
"************************************************************************************************",
"************************************************************************************************",
"************************************************************************************************",
"************************************************************************************************",
"************************************************************************************************",
"************************************************************************************************",
"************************************************************************************************",
"************************************************************************************************",
"************************************************************************************************",
"************************************************************************************************",
"************************************************************************************************",
"************************************************************************************************",
"************************************************************************************************",
"****************************************XXXXXXXXX***********************************************",
"*************************************XXX&&&&&&$$$XXX********************************************",
"***********************************XXooooXXXXXo$$$$$..******************************************",
"**********************************X&&&&&&&$$$$XXXoo$$X.*****************************************",
"*********************************X&&&&&$$$$$oooooXooooX.****************************************",
"********************************XooooXXXXXXXooooo.Xooo.o.***************************************",
"*******************************X$$$$$$$$$$oXX.oooo.ooo.o.***************************************",
"*******************************X$$$$$$$$$ooooo.ooo oo.Xoo **************************************",
"******************************X$$$$$$$$$$oooooX o. .X ooo.**************************************",
"******************************XooooXXXX...XXXoo .XXX. Xoo. *************************************",
"*****************************Xo$$$$$$$$oXX..XX.XXXXXXX o.o *************************************",
"*****************************Xoo$$$$$oooXXXX..XXXXXXXX X.o.*************************************",
"*****************************.XooooooooXXXXXX.XXXX..XXX oo.*************************************",
"*****************************..XXXXXXXX..... XXXX.XX.XX Xoo.************************************",
"*****************************.oooooooooXXXXX XXX.XXXX.X..oo.************************************",
"*****************************.XooooooooXXXXX.XXX XXXX.XX oX ************************************",
"*****************************.XooooooooXXX.. XXX XXXX..X o. ************************************",
"******************************..XXXXXX....XXX XXX XXX X. X. .****+******************************",
"****************************** XooooooooXXXXX XXXXXXX XX .o.o.**+%+*****************************",
"****************************** XooooooooXXXX.. XXXXX .XX Xooo.*+%%+*****************************",
"******************************* Xoooooooo...XX. .XXX .XX.Xooo.*+%#+*****************************",
"******************************** ........XXXXXXX.   X.X XXoo.* @##+*****************************",
"******************************** XXXXXXXXXXXXXXX.X.XXX. Xooo O@##O******************************",
"********************************* XXXXXXXXXXXXX.XX.XXX Xooo @@@#@O******************************",
"********************************** XXXXXXXXX...XX.XXX XXoo.+@@@@ *******************************",
"***********************************  .......XXXXX.X. XXXXX ++@@ ********************************",
"************************************* XXXXXXXXXX.  XXXXXX +++O *********************************",
"************************************** .XXXXXX.  XXXXXXX +@O  **********************************",
"************************************. XX      XXXXXXXXX @OO@@+ *********************************",
"***********************************.ooXXXXXXXXXXXXXXXX O+@@O   *********************************",
"***********************************.ooXXXXXXXXXXXXXX  +@O O@@ **********************************",
"************************************.ooXXXXXXXXXXX  ++++@@ + ***********************************",
"*************************************..XXXXXXXX.  **  +++   ************************************",
"***************************************        *******   ***************************************",
"************************************************************************************************",
"************************************************************************************************",
"************************************************************************************************",
"************************************************************************************************",
"************************************************************************************************",
"************************************************************************************************",
"************************************************************************************************",
"************************************************************************************************",
"************************************************************************************************",
"************************************************************************************************",
"************************************************************************************************",
"************************************************************************************************",
"************************************************************************************************",
"************************************************************************************************",
"************************************************************************************************",
"************************************************************************************************",
"************************************************************************************************",
"************************************************************************************************",
"************************************************************************************************",
"************************************************************************************************",
"************************************************************************************************",
"************************************************************************************************",
"************************************************************************************************",
"************************************************************************************************",
"************************************************************************************************",
"************************************************************************************************",
"************************************************************************************************",
"************************************************************************************************",
"************************************************************************************************",
"************************************************************************************************",
"************************************************************************************************"
};
