/* XPM */
static char *sprite_288_back[] = {
/* columns rows colors chars-per-pixel */
"96 96 14 1 ",
"  c #101010",
". c #733131",
"X c #735239",
"o c #414141",
"O c #5A5A52",
"+ c #9C414A",
"@ c #FF4A5A",
"# c #A48362",
"$ c #CD6294",
"% c #838383",
"& c #D5D5D5",
"* c #E6E6E6",
"= c white",
"- c #000000",
/* pixels */
"------------------------------------------------------------------------------------------------",
"------------------------------------------------------------------------------------------------",
"------------------------------------------------------------------------------------------------",
"------------------------------------------------------------------------------------------------",
"------------------------------------------------------------------------------------------------",
"------------------------------------------------------------------------------------------------",
"------------------------------------------------------------------------------------------------",
"------------------------------------------------------------------------------------------------",
"------------------------------------------------------------------------------------------------",
"------------------------------------------------------------------------------------------------",
"------------------------------------------------------------------------------------------------",
"------------------------------------------------------------------------------------------------",
"------------------------------------------------------------------------------------------------",
"------------------------------------------------------------------------------------------------",
"------------------------------------------------------------------------------------------------",
"------------------------------------------------------------------------------------------------",
"------------------------------------------------------------------------------------------------",
"-------------------------------------------------------- .--------------------------------------",
"-------------------------------------------------------- @.-------------------------------------",
"-------------------------------------------------------  @@..-----------------------------------",
"------------------------------------------------------- +.@@@..---------------------------------",
"------------------------------------------------------- +++@@@@.--------------------------------",
"-------------------------------------------------------- ++++@@@.-------------------------------",
"------------------------------------------------------    OO+++@@.------------------------------",
"--------------------------------------------------OOO =====*OO++@.------------------------------",
"------------------------------------------------- ==%*=OO=*&&&o++@.-----------------------------",
"------------------------------------------------- *&*= ==O&&&&#o+@.-----------------------------",
"------------------------------------------------- &&&* *=*O&&#XX++.-----------------------------",
"------------------------------------------------ &&&&&O&&&%&&XX#.+.-----------------------------",
"----------------------------------------------- &&&&&&&&&&&&&X#=X+.-----------------------------",
"----------------------------------------------- &&&&&&&&&&&&&X#= .------------------------------",
"---------------------------------------------- &&&&&&&&&&&&&&XX= .------------------------------",
"---------------------------------------------- &&&&&&&&&&&&&&#X=#+.-----------------------------",
"--------------------------------------------- &&&&&&&&&&&&&XX&#X#+.-----------------------------",
"-------------------------------------------- &&&&&&&&&&&&&X## &&& ------------------------------",
"-----------------------------------------Oo &&&&&&&&&&&&&&X#XX O -------------------------------",
"---------------------------------------OO=&&&&&&&&&&&&&&&X##X-O& -------------------------------",
"-------------------------------------OO==*&&&&&&&&&&&&&&&X#X--- --------------------------------",
"-----------------------------------OO*==*&&&&&&&&&&&%%%&&X#X------------------------------------",
"----------------------------------o*===*%*===*&&&&&&&&&ooX#X------------------------------------",
"---------------------------------o&&**&%======&&&&&&&&&&&oo#O ----------------------------------",
"-------------------------------oo&&&&&o======*&&&&&&&&&*==*o& ----------------------------------",
"------------------------------o&&&&&&o#####==&&&&&&&&&&====&%o----------------------------------",
"-----------------------------o&&&&&&oX########&&&&&&&&&*=====* ---------------------------------",
"-------------------------- -o&&&&&&&o#######XXX#&&&&&&&&*====== --------------------------------",
"------------------------- = &&&&&&&o&=====##XXXX#&&&&&&&&&======o-------------------------------",
"------------------------- = &&&&&&&o=======&&#XXX#&&&&&&&&*======o------------------------------",
"------------------------- == &&&&&o&=====*&&&&&#XX#&&&&&&&&&=====&o-----------------------------",
"------------------------o == &&&&& #####*&&&&&&&&##&&&&&&&&&&=====o-----------------------------",
"------------------------o === &&&& ####XX#&&&&&&&&&&&%&&&&&&&&====&o----------------------------",
"-----------------------o& === &&& X###XXXXX#&&&&&&&&&&oo&&&&&&&*==*o----------------------------",
"-----------------------o&& === &O &&&&&#XXXX#&&&&&&&&&&&o&&&&&&&**&&o---------------------------",
"----------------------o& o ==== - &&&&&&&&#XXX&&&&&&&&&&  &&&&&&&&&&o---------------------------",
"----------------------o& =oo=== - &&&&&&&&&&#XX&&&&&&&& -- &&&&&&&&&&o--------------------------",
"----------------------o& ==&%=== o&&&&&&&&&&&#X&&&&&&&& --- &&&&&&&&&o--------------------------",
"--------------------- &&& =======o&&&&&&&&&&&&&&&&&&&& ---- &&&&&&&&&o--------------------------",
"--------------------- &&&+ =======%&&&&&&&&&&&&&&&&&& ------ &&&&&&&&&o-------------------------",
"--------------------- &&++  %=====%&&&&&&&&&&&&&&&&& ------- %&&&&&&&&o-------------------------",
"--------------------- &&+ &&&%%&==&%&&&&&&&&&&%%%&& --------- &&&&&&&&o-------------------------",
"---------------------o&&%$ &&&&&&&&&%&&&&&&&&&&&&%% --------- &&&&&&&&o-------------------------",
"---------------------oOOO&&  &&&&&&&&&&&&&&&&&&&&&&O---------- &&&&&&&&o------------------------",
"--------------------- %%oO -- o&&&&&&&&&&&&&&&&&&&&*O--------- &&&&&&&&o------------------------",
"--------------------- %% % -o%&ooo%%%&&&&&&&&&&&&&&*=O-------- %&&&&&&&o------------------------",
"---------------------- % % - &&%+++++++%&&&&&&&&&&&*==o-------- &&&&&&&o------------------------",
"---------------------- %OO%o &&&o++++++++%&&&&&&&&&&==o-------- %++&&&& ------------------------",
"----------------------- %  o &&&&oo+++++++&&&&&&&&&&*== ------- ++++&&& ------------------------",
"------------------------  --- &&&&&    ++%&&&&&&%%&&&** -------o++++&&& ------------------------",
"------------------------------O&&&&O---       o%&&&&&&* -------o%++%&&& ------------------------",
"----------------------------  O&&&&&o-------- ***&&&&* ------- o&&&&&&& ------------------------",
"--------------------------- %%%O%&&&o------- &&&&&&&  ------- O%ooo&&& -------------------------",
"---------------------------  %O&&&&&o------ &&&&%o oo-----   %%% %%o&& -------------------------",
"-----------------------------      o------- &&&&&&O%  ---- O%%  %%%o& --------------------------",
"-------------------------------------------  &&&&&%o%O ----  o%%%%O  ---------------------------",
"---------------------------------------------   &&&o%%% -----      -----------------------------",
"------------------------------------------------        ----------------------------------------",
"------------------------------------------------------------------------------------------------",
"------------------------------------------------------------------------------------------------",
"------------------------------------------------------------------------------------------------",
"------------------------------------------------------------------------------------------------",
"------------------------------------------------------------------------------------------------",
"------------------------------------------------------------------------------------------------",
"------------------------------------------------------------------------------------------------",
"------------------------------------------------------------------------------------------------",
"------------------------------------------------------------------------------------------------",
"------------------------------------------------------------------------------------------------",
"------------------------------------------------------------------------------------------------",
"------------------------------------------------------------------------------------------------",
"------------------------------------------------------------------------------------------------",
"------------------------------------------------------------------------------------------------",
"------------------------------------------------------------------------------------------------",
"------------------------------------------------------------------------------------------------",
"------------------------------------------------------------------------------------------------",
"------------------------------------------------------------------------------------------------",
"------------------------------------------------------------------------------------------------",
"------------------------------------------------------------------------------------------------",
"------------------------------------------------------------------------------------------------"
};
