/* XPM */
static char *sprite_065_back[] = {
/* columns rows colors chars-per-pixel */
"96 96 15 1 ",
"  c #101010",
". c #523108",
"X c #6A5208",
"o c #735A08",
"O c #7B5A08",
"+ c #5A5A5A",
"@ c #9C7300",
"# c #B48329",
"$ c #CDB410",
"% c #FFEE18",
"& c #B4B4B4",
"* c #FFF6AC",
"= c gray87",
"- c white",
"; c None",
/* pixels */
";;;;;;;;;;;;;;;;;;;;;;;;;;;;;;;;;;;;;;;;;;;;;;;;;;;;;;;;;;;;;;;;;;;;;;;;;;;;;;;;;;;;;;;;;;;;;;;;",
";;;;;;;;;;;;;;;;;;;;;;;;;;;;;;;;;;;;;;;;;;;;;;;;;;;;;;;;;;;;;;;;;;;;;;;;;;;;;;;;;;;;;;;;;;;;;;;;",
";;;;;;;;;;;;;;;;;;;;;;;;;;;;;;;;;;;;;;;;;;;;;;;;;;;;;;;;;;;;;;;;;;;;;;;;;;;;;;;;;;;;;;;;;;;;;;;;",
";;;;;;;;;;;;;;;;;;;;;;;;;;;;;;;;;;;;;;;;;;;;;;;;;;;;;;;;;;;;;;;;;;;;;;;;;;;;;;;;;;;;;;;;;;;;;;;;",
";;;;;;;;;;;;;;;;;;;;;;;;;;;;;;;;;;;;;;;;;;;;;;;;;;;;;;;;;;;;;;;;;;;;;;;;;;;;;;;;;;;;;;;;;;;;;;;;",
";;;;;;;;;;;;;;;;;;;;;;;;;;;;;;;;;;;;;;;;;;;;;;;;;;;;;;;;;;;;;;;;;;;;;;;;;;;;;;;;;;;;;;;;;;;;;;;;",
";;;;;;;;;;;;;;;;;;;;;;;;;;;;;;;;;;;;;;;;;;;;;;;;;;;;;;;;;;;;;;;;;;;;;;;;;;;;;;;;;;;;;;;;;;;;;;;;",
";;;;;;;;;;;;;;;;;;;;;;;;;;;;;;;;;;;;;;;;;;;;;;;;;;;;;;;;;;;;;;;;;;;;;;;;;;;;;;;;;;;;;;;;;;;;;;;;",
";;;;;;;;;;;;;;;;;;;;;;;;;;;;;;;;;;;;;;;;;;;;;;;;;;;;;;;;;;;;;;;;;;;;;;;;;;;;;;;;;;;;;;;;;;;;;;;;",
";;;;;;;;;;;;;;;;;;;;;;;;;;;;;;;;;;;;;;;;;;;;;;;;;;;;;;;;;;;;;;;;;;;;;;;;;;;;;;;;;;;;;;;;;;;;;;;;",
";;;;;;;;;;;;;;;;;;;;;;;;;;;;;;;;;;;;;;;;;;;;;;;;;;;;;;;;;;;;;;;;;;;;;;;;;;;;;;;;;;;;;;;;;;;;;;;;",
";;;;;;;;;;;;;;;;;;;;;;;;;;;;;;;;;;;;;;;;;;;;;;;;;;;;;;;;;;;;;;;;;;;;;;;;;;;;;;;;;;;;;;;;;;;;;;;;",
";;;;;;;;;;;;;;;;;;;;;;;;;;;;;;;;;;;;;;;;;;;;;;;;;;;;;;;;;;;;;;;;;;;;;;;;;;;;;;;;;;;;;;;;;;;;;;;;",
";;;;;;;;;;;;;;;;;;;;;;;;;;;;;;;;;;;;;;;;;;;;;;;;;;;;;;;;;;;;;;;;;;;;;;;;;;;;;;;;;;;;;;;;;;;;;;;;",
";;;;;;;;;;;;;;;;;;;;;;;+++;;;;;;;;;;;;;;;;;;;;;;;;;;;;;;;;;;;;;;;;;;;;;;;;;;;;;;;;;;;;;;;;;;;;;;",
";;;;;;;;;;;;;;;;;;;;;++===+;;;;;;;;;;;;;;;;;;;;;;;;;;;;;;;;;;;;;;;;;;;;;;;;;;;;;;;;;;;;;;;;;;;;;",
";;;;;;;;;;;;;;;;;;;;+==--==+;;ooo;;;;;;;;;;;;;;;;;;;;;;;;;;;;;oo;;;;;;;;;;;;;;;;;;;;;;;;;;;;;;;;",
";;;;;;;;;;;;;;;;;;;;+==--==+;;o$%oo;;;;;;;;;;;;;;;;;;;;;;;;;;o$o;;;;;;;;;;;;;;;;;;;;;;;;;;;;;;;;",
";;;;;;;;;;;;;;;;;;;+&=-===+;;;;o$%%oo;;;;;;;;;;;;;;;;;;;;;;;o$$ ;;;;;;;;;+++;;;;;;;;;;;;;;;;;;;;",
";;;;;;;;;;;;;;;;;;; &&===&+;;;;o$$$%%o;;;;;;;;;;;;;;;;;;;;oo$$o;;;;;;;;;+===+;;;;;;;;;;;;;;;;;;;",
";;;;;;;;;;;;;;;;ooo &&&&&+;;;;;;o$$$%%o;;;;;;;;;;;;;;;;;;o$%$$ ;;;;;;;;+=--==+;;;;;;;;;;;;;;;;;;",
";;;;;;;;;;;;;;;o%%% &&&& %o;;;;;;o$$$%%oo;;;;;;;;;;;;;;;o%%$$$ ;;;;;;;;+=--==+;;;;;;;;;;;;;;;;;;",
";;;;;;;;;;;;;;o %%%X&+  %%o;;;;;;o$$$$%%$o;;;;;;;;;;;;;o%%%$$ ;;;;;;;;;+======+;;;;;;;;;;;;;;;;;",
";;;;;;;;;;;;;o% %%%%XX%%%o;;;;;;;;o$$$$%%$o;;;;;;;;;;;o%%%$$$ ;;;;;;;;;+&=====+;;;;;;;;;;;;;;;;;",
";;;;;;;;;;;;o%% $%%%%%%%@;;;;;;;;;;o$$$$%%$o;;;;;;;;;X%%%$$$$ ;;;;;;;;;;+&===&+;;;;;;;;;;;;;;;;;",
";;;;;;;;;;;;o%%$ $$%%%%$X;;;;;;;;;;o$$$$%%%$o;;;;;;;X%%%$$$$ ;;;;;;;;;;;+&&&&& ;;;;;;;;;;;;;;;;;",
";;;;;;;;;;;;;o%%$$$$$$$$X;;;;;;;;;;; $$$$%%%$ooooooX%%%$$$$$ ;;;;;;;;;;;; &&&& ;;;;;;;;;;;;;;;;;",
";;;;;;;;;;;;;o%%$$$$$$$$X;;;;;;;;;;;; $$$$%%$%%%%%o%%$$$$$$$ ;;;;;;;;;;;;;+ && ooo;;;;;;;;;;;;;;",
";;;;;;;;;;;++=o$$$$$$$$X;;;;;;;;;;;;; $$$$$%%%%%%%%%$$$$$$$ ;;;;;;;;;;;;;;;; && %%o;;;;;;;;;;;;;",
";;;;;;;;;;+==== $$$$ ...;;;;;;;;;;;;;; $$$$$$%%%%$$$$$$$$$$ ;;;;;;;;;;;;;;;o% o%%%%o;;;;;;;;;;;;",
";;;;;;;;;; ==  ;.$  OOOO.;;;;;;OO..;;; $$$$$$$$$$$$$$$$$$$%o;;;;;;;;;;;;;;o%oo%%%%$o;;;;;;;;;;;;",
";;;;;;;;;;;  ;;;; OOOO##O;;;;OO####. ;X$$$$$$$$$$$$$$$$$$%%o;;;;;;;;;;;;;;o%%%%%$$ ;;;;;;;;;;;;;",
";;;;;;;;;;;;;;;;; OOOO###O;;O#######O $$$$$$$$$$$$$$   ...%%o;;;;;;;;;;;;o$$$$$$$ $oo;;;;;;;;;;;",
";;;;;;;;;;;;;;;; OOOOOO##O;.#######OOO $$$$$$$$$$$. OOOO##..$o;;;;;;;;;;.. $$$$$$o$$$o;;;;;;;;;;",
";;;;;;;;;;;;;;;; OOOOOO### OO####OOOOO $$.....$$$ OOOO######.o;;;;;;;;OO### $$$$$$$$$o;;;;;;;;;;",
";;;;;;;;;;;;;;;; OOOOOOO# OOOOOOOOOOOO ..#####  .OOOOO#######.o;;;;;;O####OO $$$$$$$o;;;;;;;;;;;",
";;;;;;;;;;;;;;;;; OOOOOOO OOOOOOOOOOO.O########O OOOOOO######.o;;;;;O####OOO $$$$$$$ ;;;;;;;;;;;",
";;;;;;;;;;;;;;;;;; OOOOOO OOOOOOOOOO.O#########O OOOOOOOO####O ;;;;;O####OOOO $$$$  ;;;;;;;;;;;;",
";;;;;;;;;;;;;;;;;;; OOOOOO OOOOOOOO.OO########OO OOOOOOOOOOOOO ;;;;O####OOOOO $$  =+;;;;;;;;;;;;",
";;;;;;;;;;;;;;;;;;; OOOOOO OOOOOOOO OOO#####OOOO OOOOOOOOOX OO ;;;;.###OOOOOO   ; ==+;;;;;;;;;;;",
";;;;;;;;;;;;;;;;;;;; OOOO.. OOOOOO.OOOOOOOOOOOOOO.OOOOOOO $$ X;;;;.###OOOOOOO ;;;; =+;;;;;;;;;;;",
";;;;;;;;;;;;;;;;;;;; OO. $$$  OOOO OOOOOOOOOOOOOO OOOOOOX$$$$ @;; ##OOOOOOOOO ;;;;; ;;;;;;;;;;;;",
";;;;;;;;;;;;;;;;;;;;; .$$$$$$$  OO OOOOOOOOOOOOOOO OOOOO $$$$$%@@ OOOOOOOOO  ;;;;;;;;;;;;;;;;;;;",
";;;;;;;;;;;;;;;;;;;;;; $$$$$X ;;   OOOOOOOOOOOOOOOO OOO .  $$%%%%%XOOOOO   ;;;;;;;;;;;;;;;;;;;;;",
";;;;;;;;;;;;;;;;;;;;;;; $$X ;;;;;;; OOOOOOOOOOOOOOOO.  $X;;  %%%%%$XOO  ;;;;;;;;;;;;;;;;;;;;;;;;",
";;;;;;;;;;;;;;;;;;;;;;;;  ;;;;;;;;;; OOOOOOOOOOOOOOOO $$$@;;;  %%$ ...;;;;;;;;;;;;;;;;;;;;;;;;;;",
";;;;;;;;;;;;;;;;;;;;;;;;;;;;;;;;;;;X$.OOOOOOOOOOOOOO  $$$@;;;;;   ;;;;;;;;;;;;;;;;;;;;;;;;;;;;;;",
";;;;;;;;;;;;;;;;;;;;;;;;;;;;;;;;;;X$$ OOOOOOOOOOOO  ;; $$$@;;;;;;;;;;;;;;;;;;;;;;;;;;;;;;;;;;;;;",
";;;;;;;;;;;;;;;;;;;;;$$$$;;;;;;;;X$$$ .OOOOOOOOOO ;;;; $$$@;;;;;;;;;;;;;;;;;;;;;;;;;;;;;;;;;;;;;",
";;;;;;;;;;;;;;;;;;$$$****$$;;;;XX$$$X; OOOOOOOOO ;;;;; $$$$@;;;;;;;;;;;;;;;;;;;;;;;;;;;;;;;;;;;;",
";;;;;;;;;;;;;;;;;;X$*******$XXX%%%$$ ;o  OOOOO  o;;;;; $$$$@;;;;;;;;;;;;;;;;;;;;;;;;;;;;;;;;;;;;",
";;;;;;;;;;;;;;;;;;;  ******%%%%%%%% ;; $$     $$%o;;;;; $$$%@;;;;;;;;;$$$;;;;;;;;;;;;;;;;;;;;;;;",
";;;;;;;;;;;;;;;;;;;;;X*****%%%%%%% ;; $$$$$$$$$$%%o;;;; $$%%%$$;;;;$$$**X;;;;;;;;;;;;;;;;;;;;;;;",
";;;;;;;;;;;;;;;;;;;;XX******%%%%% ;;; $$$$$$$$$$$%o;;;;; %%%%%%$$$$****X;;;;;;;;;;;;;;;;;;;;;;;;",
";;;;;;;;;;;;;;;;;;;; *******%%%X ;;;;X$$$$$$$$$$$oo;;;;; %%%%%%%******X;;;;;;;;;;;;;;;;;;;;;;;;;",
";;;;;;;;;;;;;;;;;;;;; ******%X ;;;;;;X $$$$$$$$  o;;;;;;; $%%%%%******* ;;;;;;;;;;;;;;;;;;;;;;;;",
";;;;;;;;;;;;;;;;;;;;;X***** X;;;;;;;X$ $$$$$$$ o$$o;;;;;;; %%%%******** ;;;;;;;;;;;;;;;;;;;;;;;;",
";;;;;;;;;;;;;;;;;;;;X***XXX;;;;;;;;X$$$ $$$$$ o$$$o;;;;;;;; %%%*******X;;;;;;;;;;;;;;;;;;;;;;;;;",
";;;;;;;;;;;;;;;;;;;;;XXX;;;;;;;OO  $$$$ $$$$$ $$$$%oo;;;;;;;  %*****  X;;;;;;;;;;;;;;;;;;;;;;;;;",
";;;;;;;;;;;;;;;;;;;;;;;;;;;;;OO#X$$$$$XX  $$$o $$$$%%oX;;;;;;; X****X;;;;;;;;;;;;;;;;;;;;;;;;;;;",
";;;;;;;;;;;;;;;;;;;;;;;;;;;;O##OX$$$$ ;;;;ooo;;  $$$%%%XOOO;;;;; X***X;;;;;;;;;;;;;;;;;;;;;;;;;;",
";;;;;;;;;;;;;;;;;;;;;;;;;;;;.##OOX$$ ;;;;;;;;;;;; $$$%%%X##.;;;;;;XXX;;;;;;;;;;;;;;;;;;;;;;;;;;;",
";;;;;;;;;;;;;;;;;;;;;;;;;;;;.#OOOOXXO.;;;;;;;;;;;;  $$XXO##.;;;;;;;;;;;;;;;;;;;;;;;;;;;;;;;;;;;;",
";;;;;;;;;;;;;;;;;;;;;;;;;;;;.#O..OOOO ;;;;;;;;;;;;;;XXOOOO#O.;;;;;;;;;;;;;;;;;;;;;;;;;;;;;;;;;;;",
";;;;;;;;;;;;;;;;;;;;;;;;;;;;;..$$..OO ;;;;;;;;;;;;;.OOOOOOOO ;;;;;;;;;;;;;;;;;;;;;;;;;;;;;;;;;;;",
";;;;;;;;;;;;;;;;;;;;;;;;;;;;;@$$$$$. ;;;;;;;;;;;;;;.OO....OO ;;;;;;;;;;;;;;;;;;;;;;;;;;;;;;;;;;;",
";;;;;;;;;;;;;;;;;;;;;;;;;;;;o$$$$$$ ;;;;;;;;;;;;;;;;..$$$$.O ;;;;;;;;;;;;;;;;;;;;;;;;;;;;;;;;;;;",
";;;;;;;;;;;;;;;;;;;;;;;;;;;;X$$$$$$ ;;;;;;;;;;;;;;;X$$$$$$. ;;;;;;;;;;;;;;;;;;;;;;;;;;;;;;;;;;;;",
";;;;;;;;;;;;;;;;;;;;;;;;;;;;X$$$$$$ ;;;;;;;;;;;;;;o$$$$$$$X;;;;;;;;;;;;;;;;;;;;;;;;;;;;;;;;;;;;;",
";;;;;;;;;;;;;;;;;;;;;;;;;;;;X$$$$$% ;;;;;;;;;;;;;;o$$$$$$$X;;;;;;;;;;;;;;;;;;;;;;;;;;;;;;;;;;;;;",
";;;;;;;;;;;;;;;;;;;;;;;;;;;X$$$$$$%% ;;;;;;;;;;;;;X$$$$$$$X;;;;;;;;;;;;;;;;;;;;;;;;;;;;;;;;;;;;;",
";;;;;;;;;;;;;;;;;;;;;;;;;;;X$$$$$$%% ;;;;;;;;;;;;;X$$$$$$$X;;;;;;;;;;;;;;;;;;;;;;;;;;;;;;;;;;;;;",
";;;;;;;;;;;;;;;;;;;;;;;;;;oX$$$$$$%% ;;;;;;;;;;;; $$$$$$$$@;;;;;;;;;;;;;;;;;;;;;;;;;;;;;;;;;;;;;",
";;;;;;;;;;;;;;;;;;;;;;;;;o%$$$$$$$$% ;;;;;;;;;;;; $$$$$$$$$@@;;;;;;;;;;;;;;;;;;;;;;;;;;;;;;;;;;;",
";;;;;;;;;;;;;;;;;;;;;;;;o%%$$$$$$$$%% ;;;;;;;;;;; $$$$$$$$$%%@oo;;;;;;;;;;;;;;;;;;;;;;;;;;;;;;;;",
";;;;;;;;;;;;;;;;;;;;;;;; $$$$$$$$$+&% ;;;;;;;;;;;++$$$$$$$$$%%%%oo+;;;;;;;;;;;;;;;;;;;;;;;;;;;;;",
";;;;;;;;;;;;;;;;;;;;;;;;;     $$$+--+ ;;;;;;;;;;+&-+$$$$$$$$$$$%%o-+;;;;;;;;;;;;;;;;;;;;;;;;;;;;",
";;;;;;;;;;;;;;;;;;;;;;;;;;;;;;    &- ;;;;;;;;;;;+-- $$$$$$$$$$$$$$  ;;;;;;;;;;;;;;;;;;;;;;;;;;;;",
";;;;;;;;;;;;;;;;;;;;;;;;;;;;;;;;;;  ;;;;;;;;;;;;   ;  $$$$$$$     ;;;;;;;;;;;;;;;;;;;;;;;;;;;;;;",
";;;;;;;;;;;;;;;;;;;;;;;;;;;;;;;;;;;;;;;;;;;;;;;;;;;;;;       ;;;;;;;;;;;;;;;;;;;;;;;;;;;;;;;;;;;",
";;;;;;;;;;;;;;;;;;;;;;;;;;;;;;;;;;;;;;;;;;;;;;;;;;;;;;;;;;;;;;;;;;;;;;;;;;;;;;;;;;;;;;;;;;;;;;;;",
";;;;;;;;;;;;;;;;;;;;;;;;;;;;;;;;;;;;;;;;;;;;;;;;;;;;;;;;;;;;;;;;;;;;;;;;;;;;;;;;;;;;;;;;;;;;;;;;",
";;;;;;;;;;;;;;;;;;;;;;;;;;;;;;;;;;;;;;;;;;;;;;;;;;;;;;;;;;;;;;;;;;;;;;;;;;;;;;;;;;;;;;;;;;;;;;;;",
";;;;;;;;;;;;;;;;;;;;;;;;;;;;;;;;;;;;;;;;;;;;;;;;;;;;;;;;;;;;;;;;;;;;;;;;;;;;;;;;;;;;;;;;;;;;;;;;",
";;;;;;;;;;;;;;;;;;;;;;;;;;;;;;;;;;;;;;;;;;;;;;;;;;;;;;;;;;;;;;;;;;;;;;;;;;;;;;;;;;;;;;;;;;;;;;;;",
";;;;;;;;;;;;;;;;;;;;;;;;;;;;;;;;;;;;;;;;;;;;;;;;;;;;;;;;;;;;;;;;;;;;;;;;;;;;;;;;;;;;;;;;;;;;;;;;",
";;;;;;;;;;;;;;;;;;;;;;;;;;;;;;;;;;;;;;;;;;;;;;;;;;;;;;;;;;;;;;;;;;;;;;;;;;;;;;;;;;;;;;;;;;;;;;;;",
";;;;;;;;;;;;;;;;;;;;;;;;;;;;;;;;;;;;;;;;;;;;;;;;;;;;;;;;;;;;;;;;;;;;;;;;;;;;;;;;;;;;;;;;;;;;;;;;",
";;;;;;;;;;;;;;;;;;;;;;;;;;;;;;;;;;;;;;;;;;;;;;;;;;;;;;;;;;;;;;;;;;;;;;;;;;;;;;;;;;;;;;;;;;;;;;;;",
";;;;;;;;;;;;;;;;;;;;;;;;;;;;;;;;;;;;;;;;;;;;;;;;;;;;;;;;;;;;;;;;;;;;;;;;;;;;;;;;;;;;;;;;;;;;;;;;",
";;;;;;;;;;;;;;;;;;;;;;;;;;;;;;;;;;;;;;;;;;;;;;;;;;;;;;;;;;;;;;;;;;;;;;;;;;;;;;;;;;;;;;;;;;;;;;;;",
";;;;;;;;;;;;;;;;;;;;;;;;;;;;;;;;;;;;;;;;;;;;;;;;;;;;;;;;;;;;;;;;;;;;;;;;;;;;;;;;;;;;;;;;;;;;;;;;",
";;;;;;;;;;;;;;;;;;;;;;;;;;;;;;;;;;;;;;;;;;;;;;;;;;;;;;;;;;;;;;;;;;;;;;;;;;;;;;;;;;;;;;;;;;;;;;;;",
";;;;;;;;;;;;;;;;;;;;;;;;;;;;;;;;;;;;;;;;;;;;;;;;;;;;;;;;;;;;;;;;;;;;;;;;;;;;;;;;;;;;;;;;;;;;;;;;",
";;;;;;;;;;;;;;;;;;;;;;;;;;;;;;;;;;;;;;;;;;;;;;;;;;;;;;;;;;;;;;;;;;;;;;;;;;;;;;;;;;;;;;;;;;;;;;;;",
";;;;;;;;;;;;;;;;;;;;;;;;;;;;;;;;;;;;;;;;;;;;;;;;;;;;;;;;;;;;;;;;;;;;;;;;;;;;;;;;;;;;;;;;;;;;;;;;"
};
