/* XPM */
static char *sprite_555_back[] = {
/* columns rows colors chars-per-pixel */
"96 96 13 1 ",
"  c #010101",
". c #621818",
"X c #523920",
"o c #6A5A10",
"O c #BD0000",
"+ c #AC2018",
"@ c #8B1829",
"# c #EE1010",
"$ c #B47B4A",
"% c #BD9429",
"& c #EECD10",
"* c #EEA46A",
"= c #000000",
/* pixels */
"================================================================================================",
"================================================================================================",
"================================================================================================",
"================================================================================================",
"================================================================================================",
"================================================================================================",
"================================================================================================",
"================================================================================================",
"================================================================================================",
"================================================================================================",
"================================================================================================",
"================================================================================================",
"==================================O=============================================================",
"==================================OO==============================O=============================",
"==================================O#O============================OO=============================",
"===================================O#O==========================OO==============================",
"===================================O#O=========================O#O==============================",
"===================================O##O=======================O##O==============================",
"==================================O=O##O=O=================O=O##O===============================",
"===================================OO##OOO=================OO###O===============================",
"===================================O####O#O===============O#####O===============================",
"====================================O#####o==============o#####O================================",
"====================================O#%###o==============o####O#O===============================",
"====================================O#&%##%o============o&#####O================================",
"=====================================o&&##&o===========o%&%##%#O================================",
"=====================================o&&%#&%o==========o&%##%#O=================================",
"======================================o&&#&&o=========o%&&#%&o==================================",
"======================================o&&&&&o=========o&&#&&%o==================================",
"=======================================o&&&&%o=======o&&&&&&o===================================",
"========================================o........====o&&&&&o====================================",
"======================================...++++++++..=o%&&&&&o====================================",
"====================================.@+++++++++++++..&&&&&o=====================================",
"==================================..+++++++++++++++++.&&&o======================================",
"=================================.++++++++++++++++++++.&o=======================================",
"================================.$$++++++++++++++++++++.========================================",
"===============================.****$++$***$++++++++++++.=======================================",
"==============================.$+$***********++++++++++++.======================================",
"=============================.++++$****$+++$**$++++++++++ ======================================",
"=============================.++++++++++++++++++++++++++++ =====================================",
"============================.$**$+++++++++++++++++++++++++ =====================================",
"============================.*****$++$****$+++++++++++++++@ ====================================",
"============================.++$************+++++++++++++@@ ====================================",
"===========================.++++$*****$+++$**$+++++++++++@@@.===================================",
"===========================.++++++++++++++++++++++++++++@@@@.===================================",
"=========================..+++++++++++++++++++++++++++++@.@@.===================================",
"=======================..++++++++++++++++++++++++++++++@@@.@.===================================",
"====================== +++++++++++++++++++++++++++++++@@@@.@@.==================================",
"===================== @+++++++++++++++++++++++++++++@@@@@@@ @.==================================",
"===================== @@+++++++++++++++++++++++++++@@@@@@@@@ .==================================",
"===================== @@@@+++++++++++++++++++++++@@@@@@@@@@@ .==================================",
"===================== @@@@@@@+++++++++++++++++@@@@@@@@.@@@@@@ ==================================",
"===================== @@@@@@@@@@@@+++++++@@@@@@@@@@@@@ @@@@@@ ==================================",
"====================== @@@@@@@@@@@@@@@@@@@@@@@@@@@@@@@@ @@@@@+ =================================",
"====================== @@@@@@@@@@@@@@@@@@@@@@@@@@@@@@.@ @@@@++ =================================",
"======================= @@@@@@@@@@@@@@@@@@@@@@@@@@@@@@. @@@@+++.================================",
"======================= @@@@@@@@@@@@@@@@@@@@@@@@@@@@@@@@ @@@@+++.===============================",
"======================== @@@@@@@@@@@@@@@@@@@@@@@@@@@@@@@ @@@@++++.==============================",
"========================= @@@@@@@@@@@@@@@@@@@@.@@@@@@@@@@ @@@@++++.=============================",
"=========================. @@@@@@@@@@@@@@@@@@@@ @@@@@@@@. @@@@+++++.============================",
"========================.@@ @@@@@@@@@@@@@@@@@@@..@@@@@@.== @@@@+++++.===========================",
"========================.@@@  @@@@@@@@@@@@@@@@@@ @@@@..=== @@@@@+++++ ==========================",
"====================== .@@@@@@  @@@@@@@@.@@@@@@@ @@..====== @@@@@@+++@ =========================",
"=====================X @@@@@...=....@@@@@ @@@@@@@ .======== @@@@@@@@++ =========================",
"====================X$$ @ @ X====X$$...... @@@@@@ ======== @@@@@@@@@@@@ ========================",
"==================== $$. $ $$X===  $X$X$X= ++@@@@ =======X$  @@@@@@@@@@ ========================",
"===================== $$$$$$$X=====   XX=.++++@  ========X$X @@ @@.@@@@@.=======================",
"======================  $$$  ===========X..++@.=========== $ @.X @ .@  @ =======================",
"========================   ============X$**. @.=========== $$ $$X $X $X ========================",
"======================================= ****$ .============ $X$$X$$X$$$X========================",
"======================================= $**$$XX ============  $$ $$$X$ =========================",
"========================================XX$$$$$$ =============   X$$  ==========================",
"=========================================  $$$$X ================   ============================",
"===========================================    =================================================",
"================================================================================================",
"================================================================================================",
"================================================================================================",
"================================================================================================",
"================================================================================================",
"================================================================================================",
"================================================================================================",
"================================================================================================",
"================================================================================================",
"================================================================================================",
"================================================================================================",
"================================================================================================",
"================================================================================================",
"================================================================================================",
"================================================================================================",
"================================================================================================",
"================================================================================================",
"================================================================================================",
"================================================================================================",
"================================================================================================",
"================================================================================================",
"================================================================================================",
"================================================================================================"
};
