/* XPM */
static char *sprite_644_back[] = {
/* columns rows colors chars-per-pixel */
"96 96 13 1 ",
"  c #010101",
". c #101010",
"X c #181820",
"o c #202029",
"O c #313139",
"+ c #52525A",
"@ c #940000",
"# c #CD0000",
"$ c #006ABD",
"% c #00C5FF",
"& c #6AF6FF",
"* c #DECDCD",
"= c #000000",
/* pixels */
"================================================================================================",
"================================================================================================",
"================================================================================================",
"================================================================================================",
"================================================================================================",
"===================================$$$$$$$XX====================================================",
"===================================$$%%&&%ooXX==================================================",
"=====================================  %% oooOXX================================================",
"==================ooooo================    oooOOX.==============================================",
"==================oOOOOooo================= ooooO+.=============================================",
"==================.OOOOOOOo.================ ooooo.=============================================",
"==================.OOOOOOOOOo.============== ooooo ===  ..oo====================================",
"===================.OOOOOOOOOo..============ .ooooo   ooOO++o===================================",
"====================..OOOOoooooo.============ oooooooooooooo+o===X===========================ooo",
"======================  Xoooooooo.============ oooooooooooooOX  = X========================oo++o",
"====================== .. Xooooooo.XX========== ooX.ooooooooooXX  OX=====================XX++++o",
"===================X   ...  oooooo.OOXX=========  = oX XooooooXXX XO ==================XXOOOOO+o",
"===================XOOOOoX...Xooooo.OOOoX===========   oXooooooOXX XX================XXOOOOOOO+X",
"===================XOOOOooooooooooooXooOOX============= XooooooOOOXXX =============  OOOOOOOOO+X",
"===================XOOOOoooooooooooooXoooOX============ Xo.XXXXXoOOXXX ==========  oOOOOOOOOOOX=",
"==================== XOOOooooooooooooo.   X============ ....XXXXX@# XX ========XXOXOOOOOOOOO  ==",
"=====================    oooooooooooooX ============== .X....XXXXX#* XX =====XXOOXooooOOOOo.====",
"======================= ..  ooooooooooo ============== oooo....oOO OOOX ====XOoo ooooooX...X====",
"======================== ... Xooooooooo ==============.oooooX.OOO OOOOOX =XXooo ooooo...XXXXX===",
"========================= ....Xoooooooo ============= ooooooOOOoXXXXXoOX =     ooooo.     ...oo=",
"=======================.ooooooooooooooo ============= oooooo.o XXXXXXXO ===== ooooXXXooOOOOOO+X=",
"=======================.ooooooooooooooo =========== .XXXoooXo ..XXXXXX =====XooooooooooOOOOOO+X=",
"=======================.oooooooooooooooX ========== OOoXooXoo ...XXXX ======XooooooooooOOOOO+X==",
"========================     Xoooooooooo ========== XoXoooooO .....  ======XoooooooooooOOOOO+X==",
"==============================   Xoooooo...XX======= oXooooooO     ========XooooooooooOOo X  ===",
"=================================   XoooooOOOXX==== X oooooOoO ===========Xooooooooo    XXX=====",
"====================================  o.ooooOO    = oXoooooOXO ===========XooooooX .XXXXX=======",
"====================================== oooooo .Xoo ooXoooooOXO ==========.oooooo  ..   X========",
"====================================== oooooo ..XX ooooooo   .. = XXoo== XooooooooooOOoXXX======",
"======================================= oooXo ....ooXoooo .XXoo. OOO++  OooooooooooOOOOOOX======",
"======================================== Xo.oo .. ooXooo .......ooOOOXooooooooooooOOOOOOX=======",
"=========================================  .ooo  ooooooo ..... oooooooooooooooooOOOOOOOX========",
"=========================================== ooooXooooooXo     ooooooooooooooX          =========",
"=========================================X .ooooooXoooo.oooooooooooooXoooX   ===================",
"========================================XOO.oooXooXoooo.oooooooooooooo.  =======================",
"=======================================XOOoo.oo.ooXooooXoooooooo.oooo  =========================",
"================================.X====XOoooXX.. XoXoooo.Xoooooo.oX.  ===========================",
"================================.OX=== oooXoooo .oXoo....ooooo.XooooXXo=========================",
"================================.o.=== oo.oooo. ......... ooo.oXooooOOOo========================",
"================================.oo.= o .ooooX== . ......    ooXooooOOOOo=======================",
"================================.oo. oooX   X=== . ...... ooooOO    oOOOo=======================",
"================================.ooX oooX ====== . ......ooooOOO ooX oOOOX======================",
"================================.ooo.oooXo ===== . ..... oooOO.. ooo oOOOX======================",
"================================= oo.ooooo ====  . .... ooooOX=== ooo oOO ======================",
"================================= oo.oooooO == o . ...X oooOX=====  o ooo ======================",
"================================== o.oooooO == o.o o..oXXXoO.=======   ooo ...==================",
"===============..================== ooooooOO = XooXoo.oXoOX.==========XXXooooX..================",
"===============.O.================= XooooooOo oXoXoooXoXoOO.=======... ooXXXooOo. ==============",
"===============.O.============       ooooooOo oXoXoooXXooOO.=======.oooX..ooooOOOO.=============",
"==============.Ooo.========  XXXOOOOo.  oooO oXooXooXo.ooO. ======== ooooX.ooooOOOOOo===========",
"==============.Oooo.====    ooooXXOOOOOX. o ooXoXoooXo.oo.oO ========  ooooX.oooOOOOOo==========",
"============== O    .   XXXXXX..ooXOOOOOO. ooXoooooooXoo.OOoO =========  oooo.ooOOOOOOo=========",
"==========      oOOOo.XXXXXXXXXX.ooXoooOOO.XoooooooXo.oo.OOOo ===========    .oooOOOOOOo========",
"=======   XX OOOOOOOOo.XXXXXXXXXX.ooXoooooO.oooXoooXo.o.oOOOOo =========== XooooooOOOOOOo=======",
"===    XXXXXXXOOOOOOOO.XXXXXXXXXXX.oXXXXooo.ooXoooXoXooXoOOOOO.============  ooooooOOOOOOo======",
"=  XXXXXXXXXX OOOo     XXX.........XoXooXXXo.XooooooXoXoooOOOO+X============= oooooooOOOOOo=====",
" ............ oo OOOOOO.............ooXooooX.ooooXoX.oXoooOOOOO+o============= ooooooooOOOO.====",
"  ........... ooo oooX .............ooXoooooX.ooXoXo.oXooooOOOOOOoX============ oooooooooooX====",
"==  ......... XoooX   o ............ooXoooooo.XXoXo oXooooooOOOOOOOo============ ooooooooooo.===",
"====  ....... oXXoooooo ............oo.oooooo ooXoX oXoooooooOOOOOOOOo=========== ooooXooooo.===",
"======  .... XoooXXXooo ........... oo.oooooo XXoX oo.oooooooooOOOOOOOo==========  ooooX.oooo.==",
"========  . XoooooooXX ............ oo.oooooo ooX.ooo.ooooooooooooOOOOOX========= XXoooo  Xoo.==",
"========== ooooooooooo ............ oo.oooooo XX oooo .ooooooooooooooOOO.========= XXoooX  Xoo.=",
"=========== oooooooooo ............ oo.oooooo   ooooo o.ooooooooooooooOOO.========= .Xooo   Xo.=",
"============.oooooooo ............. ooXoooooo . ooooo oo.oooooooooooooooOO.=======.oo oooX   o.=",
"============  .ooooo .............. oXooooooo . oooooXooo.XooooooooooooooO.=======     oooX = .=",
"============ oX..Xo .............. oo.XoooooX oooooooo ooooXXXXXoooooooooOX.==========  ooo ====",
"============ oooo................. oo.oXXooo oooooooooo XoooooooX.ooooooooXo.========== oooX====",
"============ oo    .............. ooXooooXXX ooooooooXXX    Xooooo. oooooo o.==========  ooX====",
"============   ====  ........... ooo.oooooo ..ooooXXXo ====== oooooo ooooo XO.========== X  ====",
"===================== ........  ooo.ooooooo . oXXXoo  ====== .Xoooo. Xooo  Xo.==================",
"====================== .....  oooo.ooooooo . ooooo  ======= oooX..Xoo   Xo Xo.==================",
"====================== o    oXoo..oooooooX o      ======== oooooooooooooo XX ===================",
"=======================.oooooXXoooooooooo   ============= ooooooooooooooo   ====================",
"========================XooXXooXXooooooX . =========== .....ooooooooooo   ======================",
"=========================  oooooo.XXoo  ....========== OOOo.oooooooooo =========================",
"===========================  XooooooX XX... X========== ooo.ooooooooo ==========================",
"==============================       .XXX.. oX=========  o oooooooo  ===========================",
"============================== ........XX.    ========  o .ooooooo.. ===========================",
"============================== .......    ============..oooooooooo.X. ==========================",
"===============================       =============== ....Xooooooo.XX.  ========================",
"===================================================== ......Xoooooo.XXXX o======================",
"===================================================== ........Xooooo..XX Oo=====================",
"===================================================== ..........Xoooo... OOo====================",
"=====================================================  ..........Xooo... oOX====================",
"=======================================================         ..ooo...    ====================",
"================================================================        ========================",
"================================================================================================",
"================================================================================================",
"================================================================================================",
"================================================================================================"
};
