/* XPM */
static char *sprite_057_front[] = {
/* columns rows colors chars-per-pixel */
"96 96 16 1 ",
"  c #010101",
". c #5A3100",
"X c #624A20",
"o c #414141",
"O c #7B7B7B",
"+ c #BD4A31",
"@ c #9C6A6A",
"# c #CD8B5A",
"$ c #FF945A",
"% c #E6B48B",
"& c #E6BD9C",
"* c #FFE6B4",
"= c #C5C5C5",
"- c #FFFFD5",
"; c white",
": c #000000",
/* pixels */
"::::::::::::::::::::::::::::::::::::::::::::::::::::::::::::::::::::::::::::::::::::::::::::::::",
"::::::::::::::::::::::::::::::::::::::::::::::::::::::::::::::::::::::::::::::::::::::::::::::::",
"::::::::::::::::::::::::::::::::::::::::::::::::::::::::::::::::::::::::::::::::::::::::::::::::",
"::::::::::::::::::::::::::::::::::::::::::::::::::::::::::::::::::::::::::::::::::::::::::::::::",
"::::::::::::::::::::::::::::::::::::::::::::::::::::::::::::::::::::::::::::::::::::::::::::::::",
"::::::::::::::::::::::::::::::::::::::::::::::::::::::::::::::::::::::::::::::::::::::::::::::::",
"::::::::::::::::::::::::::::::::::::::::::::::::::::::::::::::::::::::::::::::::::::::::::::::::",
"::::::::::::::::::::::::::::::::::::::::::::::::::::::::::::::::::::::::::::::::::::::::::::::::",
"::::::::::::::::::::::::::::::::::::::::::::::::::::::::::::::::::::::::::::::::::::::::::::::::",
"::::::::::::::::::::::::::::::::::::::::::::::::::::::::::::::::::::::::::::::::::::::::::::::::",
"::::::::::::::::::::::::::::::::::::::::::::::::::::::::::::::::::::::::::::::::::::::::::::::::",
"::::::::::::::::::::::::::::::::::::::::::::::::::::::::::::::::::::::::::::::::::::::::::::::::",
"::::::::::::::::::::::::::::::::::::::::::::::::::::::::::::::::::::::::::::::::::::::::::::::::",
"::::::::::::::::::::::::::::::::::::::::::::::::::::::::::::::::::::::::::::::::::::::::::::::::",
"::::::::::::::::::::::::::::::::::::::::::::::::::::::::::::::::::::::::::::::::::::::::::::::::",
"::::::::::::::::::::::::::::::::::::::::::::::::::::::::::::::::::::::::::::::::::::::::::::::::",
"::::::::::::::::::::::::::::::::::::::::::::::::::::::::::::::::::::::::::::::::::::::::::::::::",
"::::::::::::::::::::::::::::::::::::::::::::::::::::::::::::::::::::::::::::::::::::::::::::::::",
"::::::::::::::::::::::::::::::::::::::::::::::::::::::::::::::::::::::::::::::::::::::::::::::::",
"::::::::::::::::::::::::::::::::::::::::::::::::::::::::::::::::::::::::::::::::::::::::::::::::",
"::::::::::::::::::::::::::::::::::::::::::::::::::::::::::::::::::::::::::::::::::::::::::::::::",
":::::::::::::::::::::::::::::::::::::::::::::::::::@X:::::::::::::::::::::::::::::::::::::::::::",
"::::::::::::::::::::::::::::::::::::::::::::::::X::X-XX:::::::::::::::::::::::::::::::::::::::::",
":::::::::::::::::::::::::::::::@@:XX::::::X::::X-X@--X&X::::::::::::::::::::::::::::::::::::::::",
":::::::::::::::::::::::::::::::@-X-&X::::: X::X-- @-**&X::::::::::::::::::::::::::::::::::::::::",
":::::::::::::::::::::::::::::::@--**&X::::X*X:X-&&@-#**&X:::::::::::::::::::::::::::::::::::::::",
"::::::::::::::::::::::::::::::::#-##*& :: &*&X--&@--#**&X:::::::::::::::::::::::::::::::::::::::",
"::::::::::::::::::::::::::::::::X&*$#*& : **& -*&@-*$#&& ::XXX::::::::::::::::::::::::::::::::::",
"::::::::::::::::::@@..::::::::::X&*$$#&& X******@-*#$#&& XX**X::::::::::::::::::::::::::::::::::",
"::::::::::::::::@@##@@.::::::::::X*$$#&&&&X*****@-*#$$@&& **X:::::::::::::::::::::::::::::::::::",
"::::::::::::::: %%%##@@.:::::::::X**$$+&&&******#**$$$@&& *&XXXX::::::::::::::::::::::::::::::::",
":::::::::::::: %%%%##@@@ ::::::::X&*$$+#*-*********++$@&&X*&&&* ::::::::::::::::::::::::::::::::",
"::::::::::::: ##%%###@@.@  :::::::#*$+*----**********+@&&X****& ::::::::::::::::::::::::::::::::",
"::::::::::::: ######@@.@@ O :::::: **------*-***************** :::::::::::::::::::::::::::::::::",
":::::::::::: ######@@@.@@ O :::XXX *---------*******&*&******&&XXXX:::::::::::::::::::::::::::::",
":::::::::::: ######@@@.@ oo ::: ***----------*******#*#*****&&&&&&&X::::::::::::::::::::::::::::",
":::::::::::: @###@@@@.@ ooo :::: **---------******&#@*@#&**&&&&&&& :::::::::::::::::::::::::::::",
":::::::::::: @@@@@@@@  ooo @ :::. **---------*************&&&&&&& ::::::::::::::::::::::::::::::",
"::::::::::::: @@@@@   oo  @@@   X#****----&*******&#@*@#&&&&&&&&&&...:::::::::::::::::::::::::::",
"::::::::::::::     :::  .@@@@##X*&@*******#*********#*#***&&&&&&..##%..:::::::::::::::::::::::::",
"::::::::::::::::::::::::.@@@@##X**XX***&*#*******X@*&*&**&&&&&& ###%%%#.::::::::::::::::::::::::",
":::::::::::::::::::::::::.@@##X***#=X**#*#*****XX#&*****&&&&& .@###%%%%.::::::::::::::::::::::::",
"::::::::::::::::::::::::::.@#X****#;=X*X&X**@XX=;#*******&&& @.@####%%##.:::::::::::::::::::::::",
":::::::::::::::::::::::::::...X&**#;; X&&XXX==;;;#***&****&& @.@########.:::::::::::::::::::::::",
":::::::::::::::::::::::::::::::X**&;;O;X&&@; ;;;;#****&&***& @@.@#######@.::::::::::::::::::::::",
":::::::::::::::::::::::::::::::X***##+++++;;O;;;;#****&&&&&& @@.@@#####@@.::::::::::::::::::::::",
"::::::::::::::::::::::::::::::X****&+$$$$$+#####&*****&&&&&&&   @@@@@@@@@.::::::::::::::::::::::",
":::::::::::::::::::::::::::::X*****+$+$$+$$+&&*********&&&.@@ o @@@@@@@@@.::::::::::::::::::::::",
"::::::::::::::::::::::::::::: &**** $+$$+$$.&**********&&&&.@ oo @@@@@@@.:::::::::::::::::::::::",
":::::::::::::::::::::::::::::: X***.$$$$$$$.&*******&**&& ..@@ oo  @@@@.::::::::::::::::::::::::",
"::::::::::::::::::::::::::::::X&**&&.$$$$$.&&*******&&*&&& @@@@ ooo    :::::::::::::::::::::::::",
":::::::::::::::::::::::::::::X&&&&&&&.....&&********&&&&&& @@@@@    ::::::::::::::::::::::::::::",
"::::::::::::::::::::::::::::X&&&&#&&&&&&&&&&***&*&**&&&&&&& @@@  :::::::::::::::::::::::::::::::",
"::::::::::::::::::::::::::::XX  #&&&&&&&&&&&&*&&&&&*&&&&&&&&   &&.::::::::::::::::::::::::::::::",
"::::::::::::::::::::::::::::::::.&&&&&&&&&&&&&&&&&&&&&.&&&&&&&&&&&.:::::::::::::::::::::::::::::",
":::::::::::::::::::::::::::::::.&&&&X&&&&&&&&&&&&&&&&&&. & .&&&...::::::::::::::::::::::::::::::",
"::::::::::::::::::::::::::::::.....X&&&&&&&&&&&&&&&&&&.@@ @@ &.:::::::::::::::::::::::::::::::::",
":::::::::::::::::::::::::::::.####@.&&&&&&&&&&&&&&&&&&.@@@@@ &.:::::::::::::::::::::::::::::::::",
":::::::::::::::::::::::::::::.##@#@   &&&&&&&&&&&&&&&&&.@@##@.::::::::::::::::::::::::::::::::::",
":::::::::::::::::::::::::::::.@@## O :X&X&&&&&&& &&&&.&.@###@ ::::::::::::::::::::::::::::::::::",
":::::::::::::::::::::::::::: O @@@ O :X& &&& &&&& .&.: & @###   ::::::::::::::::::::::::::::::::",
":::::::::::::::::::::::::::: O    Ooo :X: &&& &&& :.:::  @##.@ O :::::::::::::::::::::::::::::::",
":::::::::::::::::::::::::::: oOOOOooo :::: & : && ::::::: @@.@@ O ::::::::::::::::::::::::::::::",
":::::::::::::::::::::::::::: ooooooo :::::: ::: & :::::::  @@@@ O ::::::::::::::::::::::::::::::",
"::::::::::::::::::::::::::::: ooooo  ::::::::::: :::::::: O@@@ Ooo :::::::::::::::::::::::::::::",
"::::::::::::::::::::::::::::::     @@ ::::::::::::::::::: O   Oooo :::::::::::::::::::::::::::::",
"::::::::::::::::::::::::::::  @@@@@@@ ::::::::::::::::::: oOOOoooo :::::::::::::::::::::::::::::",
"::::::::::::::::::::::::::  #####@@  ::::::::::::::::::::: oooooo .:::::::::::::::::::::::::::::",
"::::::::::::::::::::::::: #@..##@@ ::::::::::::::::::::::: oooo  @@ ::::::::::::::::::::::::::::",
"::::::::::::::::::::::::: @.@##@@ :::::::::::::::::::::::::    @@@##  ::::::::::::::::::::::::::",
"::::::::::::::::::::::::: @.@@@@@ ::::::::::::::::::::::::::: @@#####@ :::::::::::::::::::::::::",
"::::::::::::::::::::::::::  @@@  ::::::::::::::::::::::::::::: #######@ ::::::::::::::::::::::::",
"::::::::::::::::::::::::::::   :::::::::::::::::::::::::::::::: ##..@@@ ::::::::::::::::::::::::",
"::::::::::::::::::::::::::::::::::::::::::::::::::::::::::::::: ##@@.@@ ::::::::::::::::::::::::",
"::::::::::::::::::::::::::::::::::::::::::::::::::::::::::::::: @@@@ @ :::::::::::::::::::::::::",
"::::::::::::::::::::::::::::::::::::::::::::::::::::::::::::::::      ::::::::::::::::::::::::::",
"::::::::::::::::::::::::::::::::::::::::::::::::::::::::::::::::::::::::::::::::::::::::::::::::",
"::::::::::::::::::::::::::::::::::::::::::::::::::::::::::::::::::::::::::::::::::::::::::::::::",
"::::::::::::::::::::::::::::::::::::::::::::::::::::::::::::::::::::::::::::::::::::::::::::::::",
"::::::::::::::::::::::::::::::::::::::::::::::::::::::::::::::::::::::::::::::::::::::::::::::::",
"::::::::::::::::::::::::::::::::::::::::::::::::::::::::::::::::::::::::::::::::::::::::::::::::",
"::::::::::::::::::::::::::::::::::::::::::::::::::::::::::::::::::::::::::::::::::::::::::::::::",
"::::::::::::::::::::::::::::::::::::::::::::::::::::::::::::::::::::::::::::::::::::::::::::::::",
"::::::::::::::::::::::::::::::::::::::::::::::::::::::::::::::::::::::::::::::::::::::::::::::::",
"::::::::::::::::::::::::::::::::::::::::::::::::::::::::::::::::::::::::::::::::::::::::::::::::",
"::::::::::::::::::::::::::::::::::::::::::::::::::::::::::::::::::::::::::::::::::::::::::::::::",
"::::::::::::::::::::::::::::::::::::::::::::::::::::::::::::::::::::::::::::::::::::::::::::::::",
"::::::::::::::::::::::::::::::::::::::::::::::::::::::::::::::::::::::::::::::::::::::::::::::::",
"::::::::::::::::::::::::::::::::::::::::::::::::::::::::::::::::::::::::::::::::::::::::::::::::",
"::::::::::::::::::::::::::::::::::::::::::::::::::::::::::::::::::::::::::::::::::::::::::::::::",
"::::::::::::::::::::::::::::::::::::::::::::::::::::::::::::::::::::::::::::::::::::::::::::::::",
"::::::::::::::::::::::::::::::::::::::::::::::::::::::::::::::::::::::::::::::::::::::::::::::::",
"::::::::::::::::::::::::::::::::::::::::::::::::::::::::::::::::::::::::::::::::::::::::::::::::",
"::::::::::::::::::::::::::::::::::::::::::::::::::::::::::::::::::::::::::::::::::::::::::::::::",
"::::::::::::::::::::::::::::::::::::::::::::::::::::::::::::::::::::::::::::::::::::::::::::::::",
"::::::::::::::::::::::::::::::::::::::::::::::::::::::::::::::::::::::::::::::::::::::::::::::::"
};
