/* XPM */
static char *sprite_512_back[] = {
/* columns rows colors chars-per-pixel */
"96 96 12 1 ",
"  c black",
". c #184A29",
"X c #087331",
"o c #735220",
"O c gray32",
"+ c #A47B39",
"@ c #18A452",
"# c #CDA45A",
"$ c #FFCD7B",
"% c gray61",
"& c white",
"* c None",
/* pixels */
"************************************************************************************************",
"************************************************************************************************",
"************************************************************************************************",
"************************************************************************************************",
"************************************************************************************************",
"************************************************************************************************",
"************************************************************************************************",
"************************************************************************************************",
"************************************************************************************************",
"************************************************************************************************",
"************************************************************************************************",
"************************************************************************************************",
"************************************************************************************************",
"************************************************************************************************",
"******************************************************..****************************************",
"*****************************************************.@X.***************************************",
"****************************************************.@@@..**************************************",
"***************************************************.@@@@.X.*************************************",
"***************************************************.@@@@.@.*************************************",
"**************************************************.@@@@@X@.*************************************",
"**************************************************.@@@@@@XX.************************************",
"************************************************..@@@@@@XXX ************************************",
"***********************************************.@.@@@@XXXXX ************************************",
"***********************************************.@.@@@XXXXXX ************************************",
"**********************************************.@@X@XXXXXXXX.************************************",
"**********************************************.@@XXXXXXXXX.X ***********************************",
"********************************************* @@XXXXXXXXXXXX ***********************************",
"********************************************* @@XXXXXXXXXXXX ***********************************",
"********************************************* @XXXXXXXXXXXXX ***********************************",
"******************************************** XXXXXXXXXXXXXXX ***********************************",
"******************************************** XXXXXXXXXXXXXXX ***********************************",
"******************************************** XXXXXXXXXXXXXXX ***********************************",
"******************************************* XXXXXXXXXXXXXXX ************************************",
"******************************************* XXXXXXXXXXXXXXX ************************************",
"*******************************...   ****** XXXXXXXXXXXXXXX.************************************",
"******************************.@@@@XX  **** XXXXXXXXXXXXXX.      *******************************",
"*****************************.@@@XXXXXX ** XXXXXXXXXXXXX  XX@@@@@ ******************************",
"***************************** XXXXXXXXXX. @XXXXXXXXXXX..XXXXX@@@XX *****************************",
"***************************** XXXXXXXXXX.@@@@XXXXXXXX.XXXXXXXXXXXX *****************************",
"***************************** XXXXXXXXXX.@@@@@@XXXXXXXXXXXXXXXXXXX *****************************",
"****************************** XXXXXXXX.@@@@@@@XXXXXXXXXXXXXXXXXXX *****************************",
"****************************** XXXXXXXX X@@@@XXXXXXXXXXXXXXXXXXXX ******************************",
"******************************* XXXXXXX XXXXXXXXXXXXXXXXXXXXXXXXX ******************************",
"********************************  XXXXX XXXXXXXXXXXXXXXXXXXXXXXX *******************************",
"**********************************   XXX.XXXXXXXXXXXXXXXXXXXXX  ********************************",
"*************************************    XXXXXXXXXXXXXXXXXXX  **********************************",
"**************************************OO XXXXXXXXXXXXXX     ************************************",
"************************************OOO&% XXXXXXXXXX XXXX **************************************",
"************************************ &&&&  XXXXXXXX & XX ***************************************",
"************************************* &&  XXXXXXXXX &&     *************************************",
"**************************..*.****** && @@@XXXXXXXXO&&O&&& *************************************",
"***********************oo* @.@.***. &&%   @@@XXXXX.&%&&&% %O*oo*********************************",
"********************** $$o.@@@@...@X  O& @@@@@@@XX.&&&&&&& *o##oo*******************************",
"********************** +$$$ @@@@@@XXX && @@.@@X@@ &&&&&   X..o###   ****************************",
"***********************oooo+ X@@XXX . & @@.X@@ @ &&O&O&& XXXXX.#.@@ ****************************",
"*********************** +$+ XXXXX  **   @  @@  @  & &&   XXXXXX.@@ *****************************",
"************************ o XXXXX.******* * @ #  $# * & ** XXXXX@@X...***************************",
"*************************o   XXX ******** # $$$$$$ ** **** XXX@@@@@@ ***************************",
"**************************o+ XX X ******* $$$$$$$$ ******** XX@@@@@ ****************************",
"***************.  *****. **  X *  ****** #$$$$$$$$# ******** XX@@@@@ ***************************",
"**************.@@@ * * @X *** ******** * $.$$$$$$$$ ***  *** XXXX@.@@ **************************",
"************** @@@X @ @@@ *********** @   @.$$.$$ $$ * X ** XXXXXX .. **************************",
"************** X@XXX@ @@@ **********  @@ X@@. @. @ $# XX **   X.X ******************************",
"*************** XXX  @@@@ ********* @@X@.@@@@.@@.@@  XX.  ****  X ******************************",
"************** X X @ @@@@  ********* @@@@@@@@@@@X@@.XXX.XX ***** *******************************",
"************** XXX @@.@@@X ********** @@@@@@@@@@@@XXXXXXX **************************************",
"*************** XX @@.@@.X.********* @@@@@.@@@@@@XXXXXXX ***************************************",
"**************** ..X@X@@..********** XX@@@ @@@.XXXXXXXXX ***************************************",
"*****************   @@@  ********** XXXXX @@@X XXXXXXXXXX **************************************",
"******************** @@@@  ******** XXX  @@@@ ...XXXXXXXX **************************************",
"********************* @@@@@   **** XX  @@@@X ****  .XXXXXX.*************************************",
"**********************  @@@@@@       @@@@X  ******* .XXXXX.*************************************",
"************************  @@@@@@@@@@@@@@  ********** XXXXX.*************************************",
"**************************   @@@@@@@@X  ************ XXXXX.*************************************",
"*****************************         X ************ XXXX.**************************************",
"******************************* XXXXXXX ************.XXXXX..************************************",
"*******************************. XX XXXX ********** XXXXXXXX ***********************************",
"******************************* #X # X  ********** XXX.XX   ************************************",
"******************************* # ### ##o**********  X .X $$oo**********************************",
"******************************** ######+ ********** $ $$  $$$$o*********************************",
"*********************************       *********** $$$$$$$$$$o*********************************",
"**************************************************** +$$$$$$# **********************************",
"*****************************************************        ***********************************",
"************************************************************************************************",
"************************************************************************************************",
"************************************************************************************************",
"************************************************************************************************",
"************************************************************************************************",
"************************************************************************************************",
"************************************************************************************************",
"************************************************************************************************",
"************************************************************************************************",
"************************************************************************************************",
"************************************************************************************************",
"************************************************************************************************",
"************************************************************************************************"
};
