/* XPM */
static char *sprite_579_back[] = {
/* columns rows colors chars-per-pixel */
"96 96 12 1 ",
"  c #101010",
". c #316241",
"X c #A45252",
"o c #DE6262",
"O c #418B5A",
"+ c #4A8B62",
"@ c #5AB47B",
"# c #C5A462",
"$ c #DEBD7B",
"% c #9CBD8B",
"& c #D5EEC5",
"* c #000000",
/* pixels */
"************************************************************************************************",
"************************************************************************************************",
"************************************************************************************************",
"************************************************************************************************",
"************************************************************************************************",
"************************************************************************************************",
"************************************************************************************************",
"************************************************************************************************",
"************************************************************************************************",
"************************************************************************************************",
"************************************************************************************************",
"************************************************************************************************",
"************************************************************************************************",
"************************************************************************************************",
"************************************************************************************************",
"************************************************************************************************",
"************************************************************************************************",
"************************************************************************************************",
"*******************************************************OO***************************************",
"*****************************************************OO@@O**************************************",
"****************************************************O@@@@@.*************************************",
"***************************************************.@@@@@@.*************************************",
"**************************************************.@@@@@@@@.************************************",
"**************************************************.@@++@@@@.************************************",
"***********************OOOOO*********************.@@+&&+@@@.************************************",
"**********************O@@@@@OOO******************.@+&&&%+@@.************************************",
"*********************.@@@@@@@@@..****************.@+&&&&+@@.************************************",
"*********************.@@@@@@@@@@@.*******OOOOO**.@+&&&&&+@@.************************************",
"*********************.@@@@@+++@@@@.****OO@@@@@OO.@+%&&&%+@@.************************************",
"*********************.@@@@+%&&++@@@.*OO@@@@@@@@@.@+%%%%%+@@.************************************",
"**********************.@@@+&&&&&+@@.+@@@@@@@@@@@.@+%%%%+@@.*************************OO**********",
"**********************.@@@+&&&&&%+@@.@@@@@@@@@@@+@@+%%%+@@.***********************OO@@.*********",
"***********************.@@@+&&&%%+@@+@@@@@@@@@@@@@@+%%+@@.***********************.@@@@@.********",
"***********************.@@@+%%%%%%+@@@@@@@@     @@@@++@@.@O****************OOO***.@@@@@.********",
"******************OOO***.@@@+%%%%%+@@@@@   &+&&&+++@@@@@@@@O**************O@@@O*.@@@@@@.********",
"*********.OO*****O@@@O***.@@@++%%%+@@@  &&&+&&&&&&&++@@@@@@@O************O@@@....@@@@@.*********",
"********.O@@O***.O@@@O****.@@@@+++@@@ &&&&+&&&&&&&&&&+@@@@@@@O***********O...@@@@..@@@.*********",
"********.@@@@O**.@@@@O*****..@@@@@@@ &&&&+&&&&&&&&&&&&+@@@@@@@O*********..@@@@@@@@@.@.**********",
"********.@@@@O.....@O********...@@@+&&&&&+&&&&&&&&&&&&&+@@@@@@O********.@@@@@@@@@@@@.***********",
"*********O@@..@@@@@..*********O@@@@+&&&&+&&&&&&&&&&&&&&+@@@@@@@O****** @@@@OOOO@@@@@.***********",
"*********.@@@@@@@@@@@..******O@@@@+&&&&&+&&&&&&&&&&&&&&&+@@@@@@O***** @@@@OOooOO@@@@@.**********",
"**********.@@@@OOOO@@@@.*****O@@@@+&&&&&+&&&&&&&&&&&&&&&+@@@@@@@O*** @@@@.ooooooO@@@@.**********",
"********O.@@@@OOooOO@@@@.****O@@@@+&&&&+&&&&&&&&&&&&&&&&&+@@@@@@O*** @@@OOooooooOO@@@.OOO*******",
"*******O@.@@@.ooooooO@@@O***.@@@@ &&&&&+&&&&&&&&&&&&&&&&&+@@@@@@O** @@@@.XooooooX.@@@.@@@O******",
"******O@.@@@OOooooooOO@@@OO*.@@@@ &&&&&+&&&&&&&&&&&&&&&&& @@@@@@O  O@@@@.XXXoooXX.@@@.@@@.******",
"******O@ @@@.XooooooX.@@@@@O.@@@@ &&&&&+&&&&&&&&&&&&&&&&& @@@@@  @@@@@@@O.XXXXXX.O@@@.@@@ ******",
"******.@ @@@.XXXoooXX.@@@@@@.OO@@ &&&&&+&&&&&&&&&&&&&&&&& @@@@.@@@@@OOO@@.XXXXXX.@@@.@@  *******",
"*******. @@@O.XXXXXX.O...@@.@@@O@@ &&&&&+&&&&&&&&&&&&&&& @@@@@@@@@@O#$$O@@..XX..@@@@.  *********",
"******** @@@@.XXXXXX..#$$O@.@@@@@@ %%%%&+&%%&&&&&&&&&&&% @@@@@@@@@.#$$$$O@@O..O@@@@.************",
"********* @@@@..XX..O#$$$$O.@@@@@@@ %%%%%+%%%%%%%%%%%%% @@@@@OOO@@.##$$#O@@@@@@@@@.*************",
"********* @@@@@O..O@.##$$#O.@OOO@@@@ %%%%+%%%%%%%%%%%% @@@@@O&&%O@@.###.@@@@@@@@@.**************",
"********** @@@@@@@@@@.###.O.O%&&O@@@@ %%%%+%%%%%%%%%  @@@@@.&&&&O@@@...@@@@@@@@..***************",
"*********** @@@@@@@@@@...O@O.&&&&.@OOO  %%%+%%%%%   @@@@OOO.%&&.@@@@@@@@@@.....*****************",
"************  @@@@@@@@@@@@@@..&&%.O&&OO@     %%%%%+++@OO&&O@...@@@@@@@    **********************",
"**************   @@@@@..@@@@.@...@OO&&O +%%%%%%%%&&&& O&&OO@@@@@@@    **************************",
"*****************.....**..@@@.@@@@@OOO@ %%+%%%%&&&&+ @@OO@@@@@    ******************************",
"**************************....OO@@@@@@@@ %+&&&&&&&  @@@@@@@@@@@@.*******************************",
"*****************************.@@@@@@@@@@@O&&&&&&&&&+@@@OO@@@@@@.********************************",
"******************************.@@@@@@@@@@+&&&&&&&&&% @+&+@@@@@@.********************************",
"******************************.@@@@@@@@@@+&&&&&&&&%%%+&&+@@@@@.*********************************",
"*******************************.@@@@@@@@@+%&&&&&%%%%%%&%+@@@@@.*********************************",
"********************************.@@@@@@@@+%%%%%%%%%%%%%+@@@@@.**********************************",
"*********************************.@@@@@@@@+%%%%%%%%%%++@@@@@.***********************************",
"**********************************.@@@@@@@@....%%%+++@@@@@@.************************************",
"***********************************OO@@@@@.O@@@..+@@@@@@@@.*************************************",
"*************************************OO@@@.@@@@@@...@@@...**************************************",
"***************************************OO@@@@@@@@@@@...@O***************************************",
"*****************************************O.@@@@@@@@@@@@O****************************************",
"*******************************************.@@@@@@@@@@@O****************************************",
"********************************************.@@@@@@@@@O*****************************************",
"*********************************************..@@@@@.O******************************************",
"***********************************************.....********************************************",
"************************************************************************************************",
"************************************************************************************************",
"************************************************************************************************",
"************************************************************************************************",
"************************************************************************************************",
"************************************************************************************************",
"************************************************************************************************",
"************************************************************************************************",
"************************************************************************************************",
"************************************************************************************************",
"************************************************************************************************",
"************************************************************************************************",
"************************************************************************************************",
"************************************************************************************************",
"************************************************************************************************",
"************************************************************************************************",
"************************************************************************************************",
"************************************************************************************************",
"************************************************************************************************",
"************************************************************************************************",
"************************************************************************************************",
"************************************************************************************************",
"************************************************************************************************",
"************************************************************************************************"
};
