/* XPM */
static char *sprite_286_front[] = {
/* columns rows colors chars-per-pixel */
"96 96 13 1 ",
"  c #010101",
". c #205231",
"X c #624A39",
"o c #832039",
"O c #BD314A",
"+ c #F6626A",
"@ c #629452",
"# c #B49C7B",
"$ c #83B473",
"% c #DEBD8B",
"& c #F6DEAC",
"* c white",
"= c #000000",
/* pixels */
"================================================================================================",
"================================================================================================",
"================================================================================================",
"================================================================================================",
"================================================================================================",
"================================================================================================",
"================================================================================================",
"================================================================================================",
"================================================================================================",
"================================================================================================",
"================================================================================================",
"================================================================================================",
"================================================================================================",
"================================================================================================",
"================================================================================================",
"================================================================================================",
"================================================================================================",
"====================================......======================================================",
"=================================...$$$$$$...===================================================",
"===============================..$$$$$$$$$$@@..=ooo=============================================",
"==============================.@$$$$$$$$$$$@@@@o+++o============================================",
"=============================.@@@$$$$$$$$$@@@@ ++. Oo===========================================",
"=============================.@@@@     @@@@@@@ O+  O ===========================================",
"============================ @@@  #X###  .@@@@ OOOOO ===========================================",
"============================ @@ ####X####X  .@@ OOO @ ==========================================",
"============================ @.######X###X### .@   @@ ==========================================",
"============================= .XX#### ########X @@@@@@ =========================================",
"============================= .##XX# %%%#####X## @@@@@ =========================================",
"============================== .### &&&&%%####### @@@@@ ========================================",
"============================== .## %&&&&& X#####XX @@@@ ========================================",
"=============================== .# &&&&&X* X#######.@@@ =========...============================",
"================================. %&&&&&    %###### @@@ =====....@$$.===========================",
"================================= &&&&&&X  X%%# XX##.@@ ===XX@@.@$$$@ ==========================",
"=================================X&&&&&&&XX%%%# ##XX @ ===X&#X@   $@@ ==========================",
"=================================X&&&&XX#%%%%% ##### @ === #&% @@@.@@ ==========================",
"=================================X&&  %%#%%%%% X### . ===== % @$$@@.@ ==========================",
"==================================  X%%%%%%%% ##X#... ====.@@.$$$$@. ===========================",
"=====================================X %%%%%   ....  ====.@$@.@$$@@ ============================",
"======================================= %%% ===    ======.$$$.@@@@@ ============================",
"======================================= %%% =============.@$@@ @@@ X============================",
"======================================= %%% ==============.@@@.   ##X===========================",
"====================================XX %%%%% XXX===========...====X# ===========================",
"=================================XXX%%%%%%%%%###XXX=============== ## ==========================",
"===============================XX%%%XX%%%%%%%X ####XX==============X# ==========================",
"==============================X%%% X&&&%%%%%%%%X  ###X============= ## =========================",
"===============================XX &&&&&%%&&%#%%%%% X#X============= #% =========================",
"================================ &&&&% X&&&&X#%%%%%  ============== %% =========================",
"=============================== &&&&# @X&&&&X  #%%%%% =============X%% =========================",
"=============================== #&#  @@X%&&&& @  #%%# ============X%&% =========================",
"==============================oo   @.@@@ &&&& @oo    =============X&&% =========================",
"=============================o+OO@@.@$$$ %&&% ooOOo =============X&&%# =========================",
"============================o+O++o@.$$$$$ %% .++oOOo ============X&&% ==========================",
"============================oO+++o .$$$$$$  $ +++oOo@ ==========X&&%% ==========================",
"===========================o+O++  .$$$$$$$$$$  ++oOo. ========XX&&&%# ==========================",
"===========================oO+o @@.$$$$$$$$$$$ +++o @. ====XXX&&&&%% ===========================",
"============================  =.$$.$$$$$$$$$$$@  +o @@ XXXX#%&&&&%%# ===========================",
"===============================.$$.$$$$$$$$$$@.$$  $$@@ #####%&&%%% ============================",
"==============================.$$$.@$$$$$$$$@@.$$$$$$@@ ######%%%% =============================",
"==============================.$$$@.@@$$$$@@@.$$$$$$$@@ ######%%% ==============================",
"============================== @$@@.@@@@@@@@@.$$$$$$@@@@ ######% ===============================",
"===============================.@@@@ @@@@@@@@.@$$$$@@@@@ #####  ================================",
"=============================== @@@@@ @@@@@@@@.@@@@@@@@@ ##   ==================================",
"================================  @@@@  @@@@@@.@@@@@@@@    =====================================",
"================================== .@@.=   @@@@.@@@@@@@ ========================================",
"===================================.@@@ ===     .@@@@@.=========================================",
"===================================.@@@ =========..@@@.=========================================",
"=================================..$$@@ ===========.@@.=========================================",
"==============================oo.$$$$@ ============.@@@.========================================",
"============================oo++  $$@@ ============.$$@.========================================",
"===========================oO+oo++ @@@ ===========.$$$$@ =======================================",
"==========================o++o++OOO   ==========oo$$$  @ =======================================",
"=========================o++o+OOOOO ===========o+Oo$ ++ .=======================================",
"=========================   +OOO   ============o+Oo@ +OO =======================================",
"===========================     ==============o+OOO ++OOO ======================================",
"==============================================o+OOO +OOOO ======================================",
"==============================================o+OO  +OOO =======================================",
"==============================================oO  = +OOO =======================================",
"==============================================  ====oO  ========================================",
"====================================================  ==========================================",
"================================================================================================",
"================================================================================================",
"================================================================================================",
"================================================================================================",
"================================================================================================",
"================================================================================================",
"================================================================================================",
"================================================================================================",
"================================================================================================",
"================================================================================================",
"================================================================================================",
"================================================================================================",
"================================================================================================",
"================================================================================================",
"================================================================================================",
"================================================================================================",
"================================================================================================"
};
