/* XPM */
static char *sprite_519_back[] = {
/* columns rows colors chars-per-pixel */
"96 96 16 1 ",
"  c #010101",
". c #202029",
"X c gray16",
"o c #6A3139",
"O c gray29",
"+ c #A46A10",
"@ c #BD6262",
"# c #D59418",
"$ c #FFBD29",
"% c #838383",
"& c #A4A4A4",
"* c #FF9C9C",
"= c #C5C5CD",
"- c gray87",
"; c white",
": c #000000",
/* pixels */
"::::::::::::::::::::::::::::::::::::::::::::::::::::::::::::::::::::::::::::::::::::::::::::::::",
"::::::::::::::::::::::::::::::::::::::::::::::::::::::::::::::::::::::::::::::::::::::::::::::::",
"::::::::::::::::::::::::::::::::::::::::::::::::::::::::::::::::::::::::::::::::::::::::::::::::",
"::::::::::::::::::::::::::::::::::::::::::::::::::::::::::::::::::::::::::::::::::::::::::::::::",
"::::::::::::::::::::::::::::::::::::::::::::::::::::::::::::::::::::::::::::::::::::::::::::::::",
"::::::::::::::::::::::::::::::::::::::::::::::::::::::::::::::::::::::::::::::::::::::::::::::::",
"::::::::::::::::::::::::::::::::::::::::::::::::::::::::::::::::::::::::::::::::::::::::::::::::",
"::::::::::::::::::::::::::::::::::::::::::::::::::::::::::::::::::::::::::::::::::::::::::::::::",
"::::::::::::::::::::::::::::::::::::::::::::::::::::::::::::::::::::::::::::::::::::::::::::::::",
"::::::::::::::::::::::::::::::::::::::::::::::::::::::::::::::::::::::::::::::::::::::::::::::::",
"::::::::::::::::::::::::::::::::::::::::::::::::::::::::::::::::::::::::::::::::::::::::::::::::",
"::::::::::::::::::::::::::::::::::::::::::::::::::::::::::::::::::::::::::::::::::::::::::::::::",
"::::::::::::::::::::::::::::::::::::::::::::::::::::::::::::::::::::::::::::::::::::::::::::::::",
"::::::::::::::::::::::::::::::::::::::::::::::::::::::::::::::::::::::::::::::::::::::::::::::::",
"::::::::::::::::::::::::::::::::::::::::::::::::::::::::::::::::::::::::::::::::::::::::::::::::",
"::::::::::::::::::::::::::::::::::::::::::::::::::::::::::::::::::::::::::::::::::::::::::::::::",
"::::::::::::::::::::::::::::::::::::::::::::::::::::::::::::::::::::::::::::::::::::::::::::::::",
"::::::::::::::::::::::::::::::::::::::::::::::::::::::::::::::::::::::::::::::::::::::::::::::::",
"::::::::::::::::::::::::::::::::::::::::::::::::::::::::::::::::::::::::::::::::::::::::::::::::",
"::::::::::::::::::::::::::::::::::::::::::::::::::::::::::::::::::::::::::::::::::::::::::::::::",
"::::::::::::::::::::::::::::::::::::::::::::::::::::::::::::::::::::::::::::::::::::::::::::::::",
"::::::::::::::::::::::::::::::::::::::::::::::::::::::::::::::::::::::::::::::::::::::::::::::::",
"::::::::::::::::::::::::::::::::::::::::::::::::::::::::::::::::::::::::::::::::::::::::::::::::",
"::::::::::::::::::::::::::::::::::::::::::::::::::::::::::::::::::::::::::::::::::::::::::::::::",
"::::::::::::::::::::::::::::::::::::::::::::::::::::::::::::::::::::::::::::::::::::::::::::::::",
"::::::::::::::::::::::::::::::::::::::::::::::::::::::::::::::::::::::::::::::::::::::::::::::::",
"::::::::::::::::::::::::::::::::::::::::::::::::::::::::::::::::::::::::::::::::::::::::::::::::",
"::::::::::::::::::::::::::::::::::::::::::::::::::::::::::::::::::::::::::::::::::::::::::::::::",
"::::::::::::::::::::::::::::::::::::::::::::::::::::::::::::::::::::::::::::::::::::::::::::::::",
"::::::::::::::::::::::::::::::::::::::::::::::::::::::::::::::::::::::::::::::::::::::::::::::::",
":::::::::::::::::::::::::::::::::::::::: OO::OOO%%%:::::::::::::::::::::::::::::::::::::::::::::",
":::::::::::::::::::::::::::::::::::::::: %%OO&&&&&&%%:::::::::::::::::::::::::::::::::::::::::::",
":::::::::::::::::::::::::::::::::::::: OOO%&&&&&&&&&&%::::::::::::::::::::::::::::::::::::::::::",
":::::::::::::::::::::::::::::::::::::: %%%%%%&&&&&+#&o@:::::::::::::::::::::::::::::::::::::::::",
"::::::::::::::::::::::::::::::::::::::: %%%%%%%%%+$;%o*@::::::::::::::::::::::::::::::::::::::::",
"::::::::::::::::::::::::::::::::::::::OO%%%%%%%%%+$+#&@*.:::::::::::::::::::::::::::::::::::::::",
"::::::::::::::::::::::::::::::::::::: %%%%%%%%%%%+$X$%o*O..:::::::::::::::::::::::::::::::::::::",
":::::::::::::::::::::::::::::::::::::: %%%%%%%%%%%#X$%&oOOO.::::::::::::::::::::::::::::::::::::",
":::::::::::::::::::::::::::::::::::::::O%%%%%%%%%%+$#%&   ..::::::::::::::::::::::::::::::::::::",
":::::::::::::::::::::::::::::::::::::::O%%%%%%%%%%%++&&OO ::::::::::::::::::::::::::::::::::::::",
"::::::::::::::::::::::::::::::::::::::::O%%%%%%%%%%%%&&& :::::::::::::::::::::::::::::::::::::::",
"::::::::::::::::::::::::::::::::::::::::O%%%%%%%%%%%%%&&&%::::::::::::::::::::::::::::::::::::::",
":::::::::::::::::::::::::::::::::::::::: %%%%OXXXO%%%%&&=-%:::::::::::::::::::::::::::::::::::::",
":::::::::::::::::::::::::::::::::::::::: XXXXXXXXXO%%%%=---&::::::::::::::::::::::::::::::::::::",
":::::::::::::::::::::::::::::::::::::::: XXXXXXXXXX%%%%&----&:::::::::::::::::::::::::::::::::::",
":::::::::::::::::::::::::::::::::::::::: XXXXXXXXXO  XX&=---&:::::::::::::::::::::::::::::::::::",
"::::::::::::::::::::::::::::::::::::::  XXXXO%&&&  OOOOXX----&::::::::::::::::::::::::::::::::::",
"::::::::::::::::::::::::::::::::::::  %X&&&&&&&& &%OOOOOOX=--&::::::::::::::::::::::::::::::::::",
"::::::::::::::::::::::::::::::::::: %%X&&&&&&&& &&&%OOOOOX&==%::::::::::::::::::::::::::::::::::",
":::::::::::::::::::::::::::::::::: XXX&&&&&&&& &&&&&%OOOOX&&&O::::::::::::::::::::::::::::::::::",
"::::::::::::::::::::::::::::::::: XXX&&&&&&&&& &&&&&&OOOOO &&O::::::::::::::::::::::::::::::::::",
":::::::::::::::::::::::::::::::    X&&&&&&&&& %&&&&&&%OOOX &O:::::::::::::::::::::::::::::::::::",
":::::::::::::::::::::::::::::: XXXX  &&&&&&& OO%&&&&&&OOOX &O:::::::::::::::::::::::::::::::::::",
":::::::::::::::::::::::::::::: %%%OXX &&&&%% OOO&&&&&&OOXX O::::::::::::::::::::::::::::::::::::",
"::::::::::::::::::::::::::::::: %%%%%%      XOOO%&&&&&%XX &O::::::::::::::::::::::::::::::::::::",
"::::::::::::::::::::::::::::::::  %%  XXXXXXXOOOO&&&%%%XX O:::::::::::::::::::::::::::::::::::::",
"::::::::::::::::::::::::::::::::::  XXXXXXXXXXXXX%%%%%%XX ::::::::::::::::::::::::::::::::::::::",
"::::::::::::::::::::::::::::::::::::  XXXXXXXXXXXX%%%%%X :::::::::::::::::::::::::::::::::::::::",
"::::::::::::::::::::::::::::::::::::::   XXXXXXXXX%%%%  ::::::::::::::::::::::::::::::::::::::::",
"::::::::::::::::::::::::::::::::::::::: %     XXXX%%  ::::::::::::::::::::::::::::::::::::::::::",
":::::::::::::::::::::::::::::::::::::::: %% %%      ::::::::::::::::::::::::::::::::::::::::::::",
"::::::::::::::::::::::::::::::::::::::::   : %%%O:::::::::::::::::::::::::::::::::::::::::::::::",
":::::::::::::::::::::::::::::::::::::::: @o:: @o::::::::::::::::::::::::::::::::::::::::::::::::",
":::::::::::::::::::::::::::::::::::::::: @@oo @@oo::::::::::::::::::::::::::::::::::::::::::::::",
"::::::::::::::::::::::::::::::::::::::: Xoo  @@@@@ooo ::::::::::::::::::::::::::::::::::::::::::",
":::::::::::::::::::::::::::::::::::::: X   X@@   @**OOX:::::::::::::::::::::::::::::::::::::::::",
"::::::::::::::::::::::::::::::::::::::  : X   :::   X  :::::::::::::::::::::::::::::::::::::::::",
":::::::::::::::::::::::::::::::::::::::::  :::::::::::::::::::::::::::::::::::::::::::::::::::::",
"::::::::::::::::::::::::::::::::::::::::::::::::::::::::::::::::::::::::::::::::::::::::::::::::",
"::::::::::::::::::::::::::::::::::::::::::::::::::::::::::::::::::::::::::::::::::::::::::::::::",
"::::::::::::::::::::::::::::::::::::::::::::::::::::::::::::::::::::::::::::::::::::::::::::::::",
"::::::::::::::::::::::::::::::::::::::::::::::::::::::::::::::::::::::::::::::::::::::::::::::::",
"::::::::::::::::::::::::::::::::::::::::::::::::::::::::::::::::::::::::::::::::::::::::::::::::",
"::::::::::::::::::::::::::::::::::::::::::::::::::::::::::::::::::::::::::::::::::::::::::::::::",
"::::::::::::::::::::::::::::::::::::::::::::::::::::::::::::::::::::::::::::::::::::::::::::::::",
"::::::::::::::::::::::::::::::::::::::::::::::::::::::::::::::::::::::::::::::::::::::::::::::::",
"::::::::::::::::::::::::::::::::::::::::::::::::::::::::::::::::::::::::::::::::::::::::::::::::",
"::::::::::::::::::::::::::::::::::::::::::::::::::::::::::::::::::::::::::::::::::::::::::::::::",
"::::::::::::::::::::::::::::::::::::::::::::::::::::::::::::::::::::::::::::::::::::::::::::::::",
"::::::::::::::::::::::::::::::::::::::::::::::::::::::::::::::::::::::::::::::::::::::::::::::::",
"::::::::::::::::::::::::::::::::::::::::::::::::::::::::::::::::::::::::::::::::::::::::::::::::",
"::::::::::::::::::::::::::::::::::::::::::::::::::::::::::::::::::::::::::::::::::::::::::::::::",
"::::::::::::::::::::::::::::::::::::::::::::::::::::::::::::::::::::::::::::::::::::::::::::::::",
"::::::::::::::::::::::::::::::::::::::::::::::::::::::::::::::::::::::::::::::::::::::::::::::::",
"::::::::::::::::::::::::::::::::::::::::::::::::::::::::::::::::::::::::::::::::::::::::::::::::",
"::::::::::::::::::::::::::::::::::::::::::::::::::::::::::::::::::::::::::::::::::::::::::::::::",
"::::::::::::::::::::::::::::::::::::::::::::::::::::::::::::::::::::::::::::::::::::::::::::::::",
"::::::::::::::::::::::::::::::::::::::::::::::::::::::::::::::::::::::::::::::::::::::::::::::::",
"::::::::::::::::::::::::::::::::::::::::::::::::::::::::::::::::::::::::::::::::::::::::::::::::",
"::::::::::::::::::::::::::::::::::::::::::::::::::::::::::::::::::::::::::::::::::::::::::::::::",
"::::::::::::::::::::::::::::::::::::::::::::::::::::::::::::::::::::::::::::::::::::::::::::::::",
"::::::::::::::::::::::::::::::::::::::::::::::::::::::::::::::::::::::::::::::::::::::::::::::::",
"::::::::::::::::::::::::::::::::::::::::::::::::::::::::::::::::::::::::::::::::::::::::::::::::",
"::::::::::::::::::::::::::::::::::::::::::::::::::::::::::::::::::::::::::::::::::::::::::::::::",
"::::::::::::::::::::::::::::::::::::::::::::::::::::::::::::::::::::::::::::::::::::::::::::::::",
"::::::::::::::::::::::::::::::::::::::::::::::::::::::::::::::::::::::::::::::::::::::::::::::::"
};
