/* XPM */
static char *sprite_614_front[] = {
/* columns rows colors chars-per-pixel */
"96 96 11 1 ",
"  c #101010",
". c #414141",
"X c #41626A",
"o c #6A7373",
"O c #418BA4",
"+ c #73BDCD",
"@ c #B4C5CD",
"# c #9CE6F6",
"$ c #DEF6FF",
"% c white",
"& c None",
/* pixels */
"&&&&&&&&&&&&&&&&&&&&&&&&&&&&&&&&&&&&&&&&&&&&&&&&&&&&&&&&&&&&&&&&&&&&&&&&&&&&&&&&&&&&&&&&&&&&&&&&",
"&&&&&&&&&&&&&&&&&&&&&&&&&&&&&&&&&&&&&&&&&&&&&&&&&&&&&&&&&&&&&&&&&&&&&&&&&&&&&&&&&&&&&&&&&&&&&&&&",
"&&&&&&&&&&&&&&&&&&&&&&&&&&&&&&&&&&&&&&&&&&&&&&&&&&&&&&&&&&&&&&&&&&&&&&&&&&&&&&&&&&&&&&&&&&&&&&&&",
"&&&&&&&&&&&&&&&&&&&&&&&&&&&&&&&&&&&&&&&&&&&&&&&&&&&&&&&&&&&&&&&&&&&&&&&&&&&&&&&&&&&&&&&&&&&&&&&&",
"&&&&&&&&&&&&&&&&&&&&&&&&&&&&&&&&&&&&&&&&&&&&&&&&&&&&&&&&&&&&&&&&&&&&&&&&&&&&&&&&&&&&&&&&&&&&&&&&",
"&&&&&&&&&&&&&&&&&&&&&&&&&&&&&&&&&&&&&&&&&&&&&&&&&&&&&&&&&&&&&&&&&&&&&&&&&&&&&&&&&&&&&&&&&&&&&&&&",
"&&&&&&&&&&&&&&&&&&&&&&&&&&&&&&&&&&&&&&&&&&&&&&&&&&&&&&&&&&&&&&&&&&&&&&&&&&&&&&&&&&&&&&&&&&&&&&&&",
"&&&&&&&&&&&&&&&&&&&&&&&&&&&&&&&&&&&&&&&&&&&&&&&&&&&&&&&&&&&&&&&&&&&&&&&&&&&&&&&&&&&&&&&&&&&&&&&&",
"&&&&&&&&&&&&&&&&&&&&&&&&&&&&&&&&&&&&&&&&&&&&&&&&&&&&&&&&&&&&&&&&&&&&&&&&&&&&&&&&&&&&&&&&&&&&&&&&",
"&&&&&&&&&&&&&&&&&&&&&&&&&&&&&&&&&&&&&&&&&&&&&&&&&&&&&&&&&&&&&&&&&&&&&&&&&&&&&&&&&&&&&&&&&&&&&&&&",
"&&&&&&&&&&&&&&&&&&&&&&&&&&&&&&&&&&&&&&&&&&&&XX&&&&&&&&&&&&&&&&&&&&&&&&&&&&&&&&&&&&&&&&&&&&&&&&&&",
"&&&&&&&&&&&&&&&&&&&&&&&&&&&&&&&&&&&&&&&&&&XX@$X&&&&&&&&&&&&&&&&&&&&&&&&&&&&&&&&&&&&&&&&&&&&&&&&&",
"&&&&&&&&&&&&&&&&&&&&&&&&&&&&&&&&&&&&&&&&&& $$$@X&&&&&&&&&&&&&&&&&&&&&&&&&&&&&&&&&&&&&&&&&&&&&&&&",
"&&&&&&&&&&&&&&&&&&&&&&&&&&&&&&&&&&&&&&&&&& $$$$ &XX&&&&&&&&&&&&&&&&&&&&&&&&&&&&&&&&&&&&&&&&&&&&&",
"&&&&&&&&&&&&&&&&&&&&&&&&&&&&&&&&&&&&&&&XX $$$$$$X$$ &&&&&&&&&&&&&&&&&&&&&&&&&&&&&&&&&&&&&&&&&&&&",
"&&&&&&&&&&&&&&&&&&&&&&&&&&&&&&&&&&&&&&X$$ $$$$$X@$$$ &&&&&&&&&&&&&&&&&&&&&&&&&&&&&&&&&&&&&&&&&&&",
"&&&&&&&&&&&&&&&&&&&&&&&&&&&&&&&&&&&&&&X$ $$$$$$X$$$$ &&&&&&&&&&&&&&&&&&&&&&&&&&&&&&&&&&&&&&&&&&&",
"&&&&&&&&&&&&&&&&&&&&&&&&&&&&&&&&&&&&&&& $$$$$X$$$$$ &&&&&&&&&&&&&&&&&&&&&&&&&&&&&&&&&&&&&&&&&&&&",
"&&&&&&&&&&&&&&&&&&&&&&&&&&&&&&&&&&&&&& $$$$  X$$$X &&&&&&&&&&&&&&&&&&&&&&&&&&&&&&&&&&&&&&&&&&&&&",
"&&&&&&&&&&&&&&&&&&&&&&&&&&&&&&&&&&&&XX$$$X $ $$$$$X&&&&&&&&&&&&&&&&&&&&&&&&&&&&&&&&&&&&&&&&&&&&&",
"&&&&&&&&&&&&&&&&&&&&&&&&&&&&&&&&&&&X$$$XX@X X$$$$$X&&&&&&&&&&&&&&&&&&&&&&&&&&&&&&&&&&&&&&&&&&&&&",
"&&&&&&&&&&&&&&&&&&&&&&&&&&&&&&&&&& .. $$$$$X$$$$$$$X&&&&&&&&&&&&&&&&&&&&&&&&&&&&&&&&&&&&&&&&&&&&",
"&&&&&&&&&&&&&&&&&&&&&&&&&&&&&&&&&&   #+$$$$$$+OO$$$X&&&&&&&&&&&&&&&&&&&&&&&&&&&&&&&&&&&&&&&&&&&&",
"&&&&&&&&&&&&&&&&&&&&&&&&&&&&&&&&&&&X###++$$$+##++$$$X&&&&&&&&&&&&&&&&&&&&&&&&&&&&&&&&&&&&&&&&&&&",
"&&&&&&&&&&&&&&&&&&&&&&&&&&&&&&&&&&&&XX###+++####O$$$X&&&&&&&&&&&&&&&&&&&&&&&&&&&&&&&&&&&&&&&&&&&",
"&&&&&&&&&&&&&&&&&&&&&&&&&&&&&&&&&&&&&+OXXX######O$$$$X&&&&&&&&&&&&&&&&&&&&&&&XXX&&&&&&&&&&&&&&&&",
"&&&&&&&&&&&&&&&&XXX&&&&&&&&&&&&&&&&&+#O###X######O$$$$X&&&&&&&&&&&&&&&&&&&  X$$$X&&&&&&&&&&&&&&&",
"&&&&&&&&&&&&&&&X$$$  &&&&&&&&&&&&&&&+############O$$$$X&&&&&&&&&&&&&&&&&  .o$$$$$X&&&&&&&&&&&&&&",
"&&&&&&&&&&&&&  @$$... &&&&&&&&&&&&&+##+#####O####O$$$$$X&&&&&&&&&&&&&&& ....$$$$  &&&&&&&&&&&&&&",
"&&&&&&&&&&&XX$$ $$ ... &&&&&&&&&&&&+##+O#####+####O$$$$$X&&&&&&&&&&&&&&&   @@$XX$$ &&&&&&&&&&&&&",
"&&&&&&&&&&X$$o.. @@    &&&&&&&&&&&+####O#####O####O$$$$ X&&&&&&&&&&&&&&&& @@  $$$$$ &&&&&&&&&&&&",
"&&&&&&&&&&X$$ ... @@@ &&&&&&&&&&&&+###+O#####+O###O$$$$$ &&&&&&&&&&&&&&&X @ ..o$$$$ &&&&&&&&&&&&",
"&&&&&&&&&X$$@X    @X &&&&&&&&&&&&+%%+O$$O####+$O##%O$$$$$ &&&&&&&&&&&&&&X$ ... $$$$$X&&&&&&&&&&&",
"&&&&&&&&&X   @@@@ @@ &&&&&&&&&&&&+%OO$$$O####+$$O%%O$$$$$$  &&&&&&&&&&& $$    @$$$$$X&&&&&&&&&&&",
"&&&&&&&&& $$@ @@ ..o XX&&&&&&&&&&OO$$$$$$O###O$$$O%O$$$$$$$$ &&&&&&&&&X $$.. @@@XXX$X&&&&&&&&&&&",
"&&&&&&&&X$$o.. o....@@$XX&&&&&&XX$$$$@$$$O###O$$$$OO$$$$$$$$$XX&&&XXXX$ $$...@  $$$ X&&&&&&&&&&&",
"&&&&&&&& $$ .. ....o@$$$$XXX&& X$$$$$@$$$O###O$$$$$$$$$$$$$$$$$XXX$$$$$$$@... ..o$$$ &&&&&&&&&&&",
"&&&&&&&& $$@   ....@@$$$$$$$XX$$$$$$@$$$O####O$$$$$$$$ $$$$$$$$$$$$$$$$$$@o. ....$$$$ &&&&&&&&&&",
"&&&&&&&& $$$@o....@X$$$$$$$$$$$$$$$$@$$O#####O$$$$$$$@@X$$$$$$$$$$$$$$$$$@@..   $$$$$ &&&&&&&&&&",
"&&&&&&&&& $$@@..@@ $$$$$$$$$$$$$$$$$$$$O####O$$$$$$$$$$@X$$$$$$$$$$$$$$$$@@o.X@@$$$$$ &&&&&&&&&&",
"&&&&&&&&& $$$@@@  $$$$$$$$$$$$$$$$$ $$$$O###O$$$$$$$$$$$$ $$$$$$$$$$$$$$$X@@.o@@$$$$$ &&&&&&&&&&",
"&&&&&&&&&& $$$$$$$$$$$$$$$$$$$$$$$ $$$$$OO%%O$$$$$$$$$$$$$ $$$$$$$$$$$$$$X@@@@@@$$$$ &&&&&&&&&&&",
"&&&&&&&&&&& $$$$$$$$$$$$$$$$$$$$$X $$$$$$O%%O$$$$$$$$$$$$$$ $$$$$$$$$$$$$@X@@@@$$$$$ &&&&&&&&&&&",
"&&&&&&&&&&&&   $$$$$$$$$$$$$$$$XX $$$$$$$$O%O$$$$$$$$$$$$$$$ $$$$$$$$$$$$$X@@@@$$$$ &&&&&&&&&&&&",
"&&&&&&&&&&&&&&&   $$$$$$$$$$ XX&& $$$$$$$$$OO$$$$$$$$$$$$$$$X $$$$$$$$$$$$$$$$$$  &&&&&&&&&&&&&&",
"&&&&&&&&&&&&&&&&&&    $$$$  &&&& $$$$$$$$$$$$$$$$$$$$$$$$$$$X&  $$$$$$$$$       &&&&&&&&&&&&&&&&",
"&&&&&&&&&&&&&&&&&&&&&&    &&&&&& $$$$$$$$$$$$$$$$$$$$$$$$$$$$X&&         &&&&&&&&&&&&&&&&&&&&&&&",
"&&&&&&&&&&&&&&&&&&&&&&&&&&&&&&&X$$$$$$$$$$$$$$$$$$$$$$$$$$$$$X&&&&&&&&&&&&&&&&&&&&&&&&&&&&&&&&&&",
"&&&&&&&&&&&&&&&&&&&&&&&&&&&&&&&X$$$$$$$$$$$$$$$$$$$$$$$$$$$$$X&&&&&&&&&&&&&&&&&&&&&&&&&&&&&&&&&&",
"&&&&&&&&&&&&&&&&&&&&&&&&&&&&&&X$$$$$$$$$$$$$$$$$$$$$$$$$$$$$$$X&&&&&&&&&&&&&&&&&&&&&&&&&&&&&&&&&",
"&&&&&&&&&&&&&&&&&&&&&&&&&&&&&&X$$$$$$$$$$$$$$$$$$$$$$$$$$$$$$$ &&&&&&&&&&&&&&&&&&&&&&&&&&&&&&&&&",
"&&&&&&&&&&&&&&&&&&&&&&&&&&&&&X$$$$$XX$$$$$$$$$$$$$$$$$$$$$$$$$ &&&&&&&&&&&&&&&&&&&&&&&&&&&&&&&&&",
"&&&&&&&&&&&&&&&&&&&&&&&&&&&&&X$$$$$X$X@$$$$$$$$$$$$$$$$$$$$$$$$ &&&&&&&&&&&&&&&&&&&&&&&&&&&&&&&&",
"&&&&&&&&&&&&&&&&&&&&&&&&&&&&X$$$$$$ $$$$$$$$$$$$$$$$$$$$$$$$$$$ &&&&&&&&&&&&&&&&&&&&&&&&&&&&&&&&",
"&&&&&&&&&&&&&&&&&&&&&&&&&&&&X$$$XXX$ $$$$$$$$$$$$$$$$$$$$$$$$$$X&&&&&&&&&&&&&&&&&&&&&&&&&&&&&&&&",
"&&&&&&&&&&&&&&&&&&&&&&&&&&&&X$$$ $@XX$$$$$$$$$$$$$$$$$$$$$$$$$$$ &&&&&&&&&&&&&&&&&&&&&&&&&&&&&&&",
"&&&&&&&&&&&&&&&&&&&&&&&&&&&X$$$$$ $$$$$$$$$$$$$$$$$$$$$$$$$$$$$$ &&&&&&&&&&&&&&&&&&&&&&&&&&&&&&&",
"&&&&&&&&&&&&&&&&&&&&&&&&&&&X$$XXX$ $$$$$$$$$$$$$$$$$$$$$$$$$$$$$ &&&&&&&&&&&&&&&&&&&&&&&&&&&&&&&",
"&&&&&&&&&&&&&&&&&&&&&&&&&&&X$$ $$XXX$$$$$$$$$$$$$$$$$$$$$$$$$$$$X&&&&&&&&&&&&&&&&&&&&&&&&&&&&&&&",
"&&&&&&&&&&&&&&&&&&&&&&&&&&X$$$$ $$$$$$$$$$$$$$$$$$$$$$$$$$$$$$$$$ &&&&&&&&&&&&&&&&&&&&&&&&&&&&&&",
"&&&&&&&&&&&&&&&&&&&&&&&&&&X$$$$$ X$$$$$$$$$$$$$$$$$$$$$$$$$$$$$$$ &&&&&&&&&&&&&&&&&&&&&&&&&&&&&&",
"&&&&&&&&&&&&&&&&&&&&&&&&&&X$$$$$$  $$$$$$$$$$$$$$$$$$$$$$$$$$$$$$ &&&&&&&&&&&&&&&&&&&&&&&&&&&&&&",
"&&&&&&&&&&&&&&&&&&&&&&&&&X$$$$$$$$$X$$$$$$$$$$$$$$$$$$$@@$$$$$$$$ &&&&&&&&&&&&&&&&&&&&&&&&&&&&&&",
"&&&&&&&&&&&&&&&&&&&&&&&&&X$$$$$$$XX$$$$$$$$$$$$$$$$$$$@$$$$$$$$$$ &&&&&&&&&&&&&&&&&&&&&&&&&&&&&&",
"&&&&&&&&&&&&&&&&&&&&&&&&&X$$$$$$ $$$$$$$$$$$$$$$$$$$$$$$$$$$$$$$$X&&&&&&&&&&&&&&&&&&&&&&&&&&&&&&",
"&&&&&&&&&&&&&&&&&&&&&&&&&X$$$$$$$ $$$$$$$$$$$$$$$$$$$$$$$$$$$$$$$$ &&&&&&&&&&&&&&&&&&&&&&&&&&&&&",
"&&&&&&&&&&&&&&&&&&&&&&&&X$$$$$$$$$ @$$$$$$$$$$$$$$$$$$$$$$$$$$$$$$ &&&&&&&&&&&&&&&&&&&&&&&&&&&&&",
"&&&&&&&&&&&&&&&&&&&&&&&&X$$$$$$$$$$ X@@$$$$$$@$$$$@$$$$$$$$$$$$$$$ &&&&&&&&&&&&&&&&&&&&&&&&&&&&&",
"&&&&&&&&&&&&&&&&&&&&&&&& $$$$@$$$$$$$X@@@@@$@@@$$@@@$$$$$$$$$$$$$$ &&&&&&&&&&&&&&&&&&&&&&&&&&&&&",
"&&&&&&&&&&&&&&&&&&&&&&&& $$$$X$$$$$$$$$ @@@@@@@@@@@X$$$$$$$$$$$$$$ &&&&&&&&&&&&&&&&&&&&&&&&&&&&&",
"&&&&&&&&&&&&&&&&&&&&&&&& @$$$X$$$$$$$$X @@@@@@@@@@@@X$$$$$$$$$@$$$ &&&&&&&&&&&&&&&&&&&&&&&&&&&&&",
"&&&&&&&&&&&&&&&&&&&&&&&& @@@$$$$$$@@@X @@XXX@@@@@ X@ $$$$$$$$$X$$$X&&&&&&&&&&&&&&&&&&&&&&&&&&&&&",
"&&&&&&&&&&&&&&&&&&&&&&&&& @@@@@@@@@@@X  X&&X@@ X@ &XX @$$X$$$$X$$@X&&&&&&&&&&&&&&&&&&&&&&&&&&&&&",
"&&&&&&&&&&&&&&&&&&&&&&&&& @@@@@@@@@@X&&&&&&X@ &X &&&& @@@$X$$$@@@@X&&&&&&&&&&&&&&&&&&&&&&&&&&&&&",
"&&&&&&&&&&&&&&&&&&&&&&&&& @@@@@@@@@@X&&&&&&  &&&&&&&&& @@@@@@@@@@@@X&&&&&&&&&&&&&&&&&&&&&&&&&&&&",
"&&&&&&&&&&&&&&&&&&&&&&&&&& @@@@@@@@@ &&&&&&&&&&&&&&&&&& @@@@@@@@@@@X&&&&&&&&&&&&&&&&&&&&&&&&&&&&",
"&&&&&&&&&&&&&&&&&&&&&&&&&& @@@@@@@@@ &&&&&&&&&&&&&&&&&& @@@@@@@@@@@X&&&&&&&&&&&&&&&&&&&&&&&&&&&&",
"&&&&&&&&&&&&&&&&&&&&&&&&&&& @@@@@@@@ &&&&&&&&&&&&&&&&&&& @@@@@@@@@@X&&&&&&&&&&&&&&&&&&&&&&&&&&&&",
"&&&&&&&&&&&&&&&&&&&&&&&&&&X@@@@@@@@@X&&&&&&&&&&&&&&&&&&& @@@@@@@@@@@ &&&&&&&&&&&&&&&&&&&&&&&&&&&",
"&&&&&&&&&&&&&&&&&&&&&&&&&&  X@X@@ X@@X&&&&&&&&&&&&&&&&&&& @@@@@@@@@@X&&&&&&&&&&&&&&&&&&&&&&&&&&&",
"&&&&&&&&&&&&&&&&&&&&&&&&&&&X@@ @ &&   &&&&&&&&&&&&&&&&&&&X@@@@@@@@@@@X&&&&&&&&&&&&&&&&&&&&&&&&&&",
"&&&&&&&&&&&&&&&&&&&&&&&&&&&   & &&&&&&&&&&&&&&&&&&&&&&&&X@ @@@@@ X@X@@X&&&&&&&&&&&&&&&&&&&&&&&&&",
"&&&&&&&&&&&&&&&&&&&&&&&&&&&&&&&&&&&&&&&&&&&&&&&&&&&&&&&&  &@ X@ &  @   &&&&&&&&&&&&&&&&&&&&&&&&&",
"&&&&&&&&&&&&&&&&&&&&&&&&&&&&&&&&&&&&&&&&&&&&&&&&&&&&&&&&&&& &  X&&&  &&&&&&&&&&&&&&&&&&&&&&&&&&&",
"&&&&&&&&&&&&&&&&&&&&&&&&&&&&&&&&&&&&&&&&&&&&&&&&&&&&&&&&&&&&&&&&&&&&&&&&&&&&&&&&&&&&&&&&&&&&&&&&",
"&&&&&&&&&&&&&&&&&&&&&&&&&&&&&&&&&&&&&&&&&&&&&&&&&&&&&&&&&&&&&&&&&&&&&&&&&&&&&&&&&&&&&&&&&&&&&&&&",
"&&&&&&&&&&&&&&&&&&&&&&&&&&&&&&&&&&&&&&&&&&&&&&&&&&&&&&&&&&&&&&&&&&&&&&&&&&&&&&&&&&&&&&&&&&&&&&&&",
"&&&&&&&&&&&&&&&&&&&&&&&&&&&&&&&&&&&&&&&&&&&&&&&&&&&&&&&&&&&&&&&&&&&&&&&&&&&&&&&&&&&&&&&&&&&&&&&&",
"&&&&&&&&&&&&&&&&&&&&&&&&&&&&&&&&&&&&&&&&&&&&&&&&&&&&&&&&&&&&&&&&&&&&&&&&&&&&&&&&&&&&&&&&&&&&&&&&",
"&&&&&&&&&&&&&&&&&&&&&&&&&&&&&&&&&&&&&&&&&&&&&&&&&&&&&&&&&&&&&&&&&&&&&&&&&&&&&&&&&&&&&&&&&&&&&&&&",
"&&&&&&&&&&&&&&&&&&&&&&&&&&&&&&&&&&&&&&&&&&&&&&&&&&&&&&&&&&&&&&&&&&&&&&&&&&&&&&&&&&&&&&&&&&&&&&&&",
"&&&&&&&&&&&&&&&&&&&&&&&&&&&&&&&&&&&&&&&&&&&&&&&&&&&&&&&&&&&&&&&&&&&&&&&&&&&&&&&&&&&&&&&&&&&&&&&&",
"&&&&&&&&&&&&&&&&&&&&&&&&&&&&&&&&&&&&&&&&&&&&&&&&&&&&&&&&&&&&&&&&&&&&&&&&&&&&&&&&&&&&&&&&&&&&&&&&",
"&&&&&&&&&&&&&&&&&&&&&&&&&&&&&&&&&&&&&&&&&&&&&&&&&&&&&&&&&&&&&&&&&&&&&&&&&&&&&&&&&&&&&&&&&&&&&&&&",
"&&&&&&&&&&&&&&&&&&&&&&&&&&&&&&&&&&&&&&&&&&&&&&&&&&&&&&&&&&&&&&&&&&&&&&&&&&&&&&&&&&&&&&&&&&&&&&&&",
"&&&&&&&&&&&&&&&&&&&&&&&&&&&&&&&&&&&&&&&&&&&&&&&&&&&&&&&&&&&&&&&&&&&&&&&&&&&&&&&&&&&&&&&&&&&&&&&&"
};
