/* XPM */
static char *sprite_054_front[] = {
/* columns rows colors chars-per-pixel */
"96 96 12 1 ",
"  c #101010",
". c #7B7B7B",
"X c #835A00",
"o c #945A10",
"O c #DEB452",
"+ c #E6A452",
"@ c #FFD54A",
"# c #F6DE8B",
"$ c #FFE6A4",
"% c #FFEEBD",
"& c white",
"* c #000000",
/* pixels */
"************************************************************************************************",
"************************************************************************************************",
"************************************************************************************************",
"************************************************************************************************",
"************************************************************************************************",
"************************************************************************************************",
"************************************************************************************************",
"************************************************************************************************",
"************************************************************************************************",
"************************************************************************************************",
"************************************************************************************************",
"************************************************************************************************",
"************************************************************************************************",
"************************************************************************************************",
"************************************************************************************************",
"************************************************************************************************",
"************************************************************************************************",
"************************************************************************************************",
"************************************************************************************************",
"************************************************************************************************",
"************************************************************************************************",
"************************************************************************************************",
"************************************************************************************************",
"************************************************************************************************",
"****************************************************. **. **************************************",
"****************************************************. **  **************************************",
"****************************************************  *. ***************************************",
"****************************************************  * ****************************************",
"*****************************************************   .. *************************************",
"***************************************o*o**oooooooo*  *   *************************************",
"**************************************o+o+  @@@@@@@@oo   ***************************************",
"**************************************o+  @@$$$$@@@@@@oo****************************************",
"*************************************o+ @@@$$$$$$@@@@@@@o***************************************",
"************************************o+ @@@@@$$$$@@@@@@@@@o *************************************",
"***********************************o++ OOO@@@@@@@@@@@@@@@o@ o **********************************",
"**********************************o++ O&&&O@@@@@@@OOOO@o @@@@ **********************************",
"**********************************o++ && &&O@@@@@O&&&&Oo@@@@ ***********************************",
"*********************************o+++ &&&&&O@@@@O&& &&&Oo@@@ ***********************************",
"*********************************o+++ O&&&OXXX@@O&&&&&&O @@@@ **********************************",
"*********************************o+++ +OOOX%%%X@@O&&&&O+ @@@@ **********************************",
"*********************************o++++ +XXO%%OOX++OOOO++ @@@@@ *********************************",
"**********************************o+++XX%O%%OXO#XXX+++++ @@@@@ *********************************",
"**********************************o+XX%%%%%OXO#%%#O ++++ @@@@@ *********************************",
"***********************************X%%%%%%%%%%%%%#O +++ @@@@@@@ ********************************",
"**********************************X%%%%%%%%%%%%%#O ++++ @@@@@@@ ********************************",
"**********************************X%%%%%%%%%%%%%O ++ooo @@@@@@@ ********************************",
"********************************** %%%%%%%%%%%%#O oo+++ ++@@@++ ********************************",
"********************************** O%%%%%%%%%%%O ++++++o++++++ *********************************",
"*********************************** OO%%%%%%%#OO ++++++o++++++ *********************************",
"************************************  OOOOOOOO  ++++++++o++++ **********************************",
"************************************o@        ++++++++++++++ ***********************************",
"***********************************o@@@@@@@@@@@@++++++++++o o***********************************",
"***********************************o@@@@@@@@@@@@@@++++++++++o***********************************",
"***********************************o@@@@@@@@@@@@@@@@++++++++o***********************************",
"**********************************o@@@@@@@@@@@@@@@@@@@+++++++o**oo******************************",
"**********************************o@@@@@@@@@@@@@@@@@@@@@+++++ooo++o*****************************",
"**********************************o@@@@@@@@@@@@@@@@@@@@@@++++o++++o*****************************",
"**********************************o@@@@@@@@@@@@@@@@@@@@@+++++o+++o******************************",
"**********************************o@@@@@@@@@@@@@@@@@@@++++++o++++o******************************",
"***********************************o+@@@@@@@@@@@@@@+++++++++ +++o*******************************",
"***********************************o+++@@@@@@@@++++++++++++o++oo********************************",
"************************************ ++++++++++++++++++++++ +o**********************************",
"*************************************  +++++++++++++++++++ oo***********************************",
"**********************************XXXOO  +++++++++++++++  **************************************",
"*********************************X%%%%OOO  ++++++++++   OO  ************************************",
"**********************************  %%%%OOO          OOOOOOO  **********************************",
"************************************X%   O *********XO%%%%%%%O *********************************",
"************************************  *** **********X% X%% XXX**********************************",
"***************************************************** **XX *************************************",
"************************************************************************************************",
"************************************************************************************************",
"************************************************************************************************",
"************************************************************************************************",
"************************************************************************************************",
"************************************************************************************************",
"************************************************************************************************",
"************************************************************************************************",
"************************************************************************************************",
"************************************************************************************************",
"************************************************************************************************",
"************************************************************************************************",
"************************************************************************************************",
"************************************************************************************************",
"************************************************************************************************",
"************************************************************************************************",
"************************************************************************************************",
"************************************************************************************************",
"************************************************************************************************",
"************************************************************************************************",
"************************************************************************************************",
"************************************************************************************************",
"************************************************************************************************",
"************************************************************************************************",
"************************************************************************************************",
"************************************************************************************************",
"************************************************************************************************"
};
