/* XPM */
static char *sprite_594_back[] = {
/* columns rows colors chars-per-pixel */
"96 96 13 1 ",
"  c #010101",
". c #002830",
"X c #603840",
"o c #005060",
"O c #884060",
"+ c #C05878",
"@ c #988810",
"# c #F07080",
"$ c #E08898",
"% c #F888A8",
"& c #F8B8B8",
"* c #F8F8F8",
"= c #000000",
/* pixels */
"================================================================================================",
"================================================================================================",
"================================================================================================",
"================================================================================================",
"================================================================================================",
"================================================================================================",
"================================================================================================",
"================================================================================================",
"====================================OOOO========================================================",
"===================================O&&&+OOO=====================================================",
"==================================O&&&&&+&&OO===================================================",
"==================================O+&&&&&+&&&O==================================================",
"=================================O&&+&&&&&+&&&O=================================================",
"=================================O&&&+&&&&O&&&O=================================================",
"=================================O&&&&O%###O#%&X=OO=============================================",
"=================================O&&%#O####O###%X&&O============================================",
"=================================X&%###O####O###X&&&O===========================================",
"=================================X&####O####O####X&&X===========================================",
"=================================X%#####O####O###X&&&X==========================================",
"==================================X#####O####O####X%&X==========================================",
"==================================X######O####+###X##%X=========================================",
"==================================X######O#########X##X=========================================",
"=================================== ######+########X##X=========================================",
"===================================X###################X========================================",
"==================================== ##################X========================================",
"====================================X##################X========================================",
"===================================== #################X========================================",
"=====================================X##################X=======================================",
"======================================X#################X=======================================",
"=======================================O################X=======================================",
"========================================X##OOOOO++######X=======================================",
"======================================== O+##++&&&+++###X=======================================",
"======================================  +###+&&&&&&&&++##X======================================",
"===================================== ++++#+&&&&&&&&&&&+#X======================================",
"==================================== +++++O$$&&&&&&&&&&&OX======================================",
"=================================== ++++++O$$$$$&&&&&&&&&O======================================",
"================================== ++++++O$$$$$$$$$$$&&&&&O=====================================",
"================================== ++++++O$$$$$$$$$$$+++&&&+====================================",
"================================= ++++++O$$$$$$$$$$$O##O&&&$+===================================",
"================================= ++++++O$$$$$$$$$$O##+O$&&&+===================================",
"================================= ++++++O$$$$$$$$$$O+++O$$$&$+==================================",
"================================= ++++++O$$$$$$$$$X+++O$$$$$$+==================================",
"================================= ++++++O$$$$$$$$$X+++O$$$o$$$+=================================",
"================================= +++++++O$$$$$$$$X+++O$$$o.o.+=================================",
"================================= O++++++O$$$$$$$$X+++O$$$$ooo.=================================",
"================================== ++++++O$$$$$$$$$O++O$$$$.@.o+================================",
"================================== +++++++O$$$$$$$$X++O$$$$.* .+================================",
"=================================== +++++++O$$$$$$$$X+O$$$$+*@.$+===============================",
"=================================== +++++++O$$$$$$$$$X+O$$$$+.+$+===============================",
"==================================== +++++++O$$$$$$$$O+O$$$$$$$$+===============================",
"=====================================O++++++O$$$$$$$X++O$$$$O$$$O===============================",
"===================================== +++++O$$$$$$$$X+++O$$$+O$$O===============================",
"==================================== ++++++O$$$$$$$$XO++O$$$$+$O================================",
"==================================== ++++++O$$$$$$$$$X+++O$$$$O=================================",
"=================================== ++++++O$$$$$$$$$$$OX+O$$$$O=================================",
"=================================== ++++++O$$$$$$$$$$$$$XX$$$$ =================================",
"=================================== ++++++O$$$$$$$$$$$$$$$$$$O==================================",
"=================================== ++++++O$$$$$$$$$$$$$$$$$$ ==================================",
"=================================== O+++++O$$$$$$$$$$$$$$$$$O===================================",
"==================================== ++++++O$$$$$$$$$$$$$$$$ ===================================",
"==================================== ++++++O$$$$$$$$$$$$$$$ ====================================",
"===================================== +++++O$$$$$$$$$$$$$$ =====================================",
"===================================== ++++++O$$$$$$$$$$$$ ======================================",
"====================================== +++++O$$$$$$$$$$  X======================================",
"=======================================  ++++O$$$$$$$O ++X======================================",
"=========================================  +++O$$$OOO++++X======================================",
"===========================================     OO+++++++X======================================",
"===========================================O####+++++++++X======================================",
"==========================================O####++++++++++X======================================",
"==========================================O####+++++++++ =======================================",
"=========================================O####+++++++O++ =======================================",
"========================================O#####+++++++X++ =======================================",
"======================================== +#+#++++++++X++ =======================================",
"======================================= +#+#++++++++X++ ========================================",
"======================================= ++++++++++++X$$ ========================================",
"====================================== +++++++++O+++X$$ ========================================",
"====================================== ++++O++++O++X$$ =========================================",
"====================================== +++O++++O+++X$$ =========================================",
"===================================== $+++O++++O++X$$ ==========================================",
"===================================== $$$O++++O+++   ===========================================",
"===================================== $$$+$+++O+$ ==============================================",
"===================================== $$+$$$$O$$$ ==============================================",
"===================================== $+$$$$+$$$ ===============================================",
"====================================== $$$$+$$$ ================================================",
"====================================== $$$+$$$ =================================================",
"=======================================  +$$  ==================================================",
"=========================================   ====================================================",
"================================================================================================",
"================================================================================================",
"================================================================================================",
"================================================================================================",
"================================================================================================",
"================================================================================================",
"================================================================================================",
"================================================================================================",
"================================================================================================"
};
