/* XPM */
static char *sprite_001_front[] = {
/* columns rows colors chars-per-pixel */
"96 96 16 1 ",
"  c #101010",
". c #526329",
"X c #194A4A",
"o c #317373",
"O c #AD0031",
"+ c #EF213A",
"@ c #FF6B63",
"# c #73AD31",
"$ c #A5D642",
"% c #BDFF73",
"& c #3A9494",
"* c #63D6B5",
"= c #84EFC5",
"- c #CECECE",
"; c white",
": c None",
/* pixels */
"::::::::::::::::::::::::::::::::::::::::::::::::::::::::::::::::::::::::::::::::::::::::::::::::",
"::::::::::::::::::::::::::::::::::::::::::::::::::::::::::::::::::::::::::::::::::::::::::::::::",
"::::::::::::::::::::::::::::::::::::::::::::::::::::::::::::::::::::::::::::::::::::::::::::::::",
"::::::::::::::::::::::::::::::::::::::::::::::::::::::::::::::::::::::::::::::::::::::::::::::::",
"::::::::::::::::::::::::::::::::::::::::::::::::::::::::::::::::::::::::::::::::::::::::::::::::",
"::::::::::::::::::::::::::::::::::::::::::::::::::::::::::::::::::::::::::::::::::::::::::::::::",
"::::::::::::::::::::::::::::::::::::::::::::::::::::::::::::::::::::::::::::::::::::::::::::::::",
"::::::::::::::::::::::::::::::::::::::::::::::::::::::::::::::::::::::::::::::::::::::::::::::::",
"::::::::::::::::::::::::::::::::::::::::::::::::::::::::::::::::::::::::::::::::::::::::::::::::",
"::::::::::::::::::::::::::::::::::::::::::::::::::::::::::::::::::::::::::::::::::::::::::::::::",
"::::::::::::::::::::::::::::::::::::::::::::::::::::::::::::::::::::::::::::::::::::::::::::::::",
"::::::::::::::::::::::::::::::::::::::::::::::::::::::::::::::::::::::::::::::::::::::::::::::::",
"::::::::::::::::::::::::::::::::::::::::::::::::::::::::::::::::::::::::::::::::::::::::::::::::",
"::::::::::::::::::::::::::::::::::::::::::::::::::::::::::::::::::::::::::::::::::::::::::::::::",
"::::::::::::::::::::::::::::::::::::::::::::::::::::::::::::::::::::::::::::::::::::::::::::::::",
"::::::::::::::::::::::::::::::::::::::::::::::::::::::::::::::::::::::::::::::::::::::::::::::::",
"::::::::::::::::::::::::::::::::::::::::::::::::::::::::::::::::::::::::::::::::::::::::::::::::",
"::::::::::::::::::::::::::::::::::::::::::::::::::::::::::::::::::::::::::::::::::::::::::::::::",
"::::::::::::::::::::::::::::::::::::::::::::::::::::::::::::::::::::::::::::::::::::::::::::::::",
"::::::::::::::::::::::::::::::::::::::::::::::::::::::::::::::::::::::::::::::::::::::::::::::::",
"::::::::::::::::::::::::::::::::::::::::::::::::::::::::::::::::::::::::::::::::::::::::::::::::",
"::::::::::::::::::::::::::::::::::::::::::::::::::::::::::::::::::::::::::::::::::::::::::::::::",
"::::::::::::::::::::::::::::::::::::::::::::::::::::::::::::::::::::::::::::::::::::::::::::::::",
"::::::::::::::::::::::::::::::::::::::::::::::::::::::::::::::::::::::::::::::::::::::::::::::::",
"::::::::::::::::::::::::::::::::::::::::::::::::::::::::::::::::::::::::::::::::::::::::::::::::",
"::::::::::::::::::::::::::::::::::::::::::::::::::::::::::::::::::::::::::::::::::::::::::::::::",
"::::::::::::::::::::::::::::::::::::::::::::::::::::::::::::::::::::::::::::::::::::::::::::::::",
"::::::::::::::::::::::::::::::::::::::::::::::::::::::::::::::::::::::::::::::::::::::::::::::::",
"::::::::::::::::::::::::::::::::::::::::::::::::::::::::::::::::::::::::::::::::::::::::::::::::",
"::::::::::::::::::::::::::::::::::::::::::::::::::::::::::::::::::::::::::::::::::::::::::::::::",
"::::::::::::::::::::::::::::::::::::::::::::::::::::::::::::::::::::::::::::::::::::::::::::::::",
"::::::::::::::::::::::::::::::::::::::::::::::::::::::::::::::::::::::::::::::::::::::::::::::::",
"::::::::::::::::::::::::::::::::::::::::::::::::::::::::::::::::::::::::::::::::::::::::::::::::",
"::::::::::::::::::::::::::::::::::::::::::::::::::::::::::::::::::::::::::::::::::::::::::::::::",
"::::::::::::::::::::::::::::::::::::::::::::::::::::::::.:::::::::::::::::::::::::::::::::::::::",
"::::::::::::::::::::::::::::::::::::::::::::::::::::::..$  :::::::::::::::::::::::::::::::::::::",
"::::::::::::::::::::::::::::::::::::::::::::::####....$##.# ::::::::::::::::::::::::::::::::::::",
"::::::::::::::::::::::::::::::::::::::::::::##%%%%%%$$$#$.# ::::::::::::::::::::::::::::::::::::",
":::::::::::::::::::::::::::::::::::::::::::#%%%%%%%%%##$$#. ::::::::::::::::::::::::::::::::::::",
"::::::::::::::::::::::::::::::::XX::::::::#%%%%%X ###%$$$#. ::::::::::::::::::::::::::::::::::::",
":::::::::::::::::::::::::::::::&==XX:oooooooooXX=* %%%%$$$.# :::::::::::::::::::::::::::::::::::",
":::::::::::::::::::::::::::::::&===oo=====***X===* %%%%$$$.## ::::::::::::::::::::::::::::::::::",
":::::::::::::::::::::::::::::::&=&=====&&&=**===** %%%%$$$#.# ::::::::::::::::::::::::::::::::::",
":::::::::::::::::::::::::::::::&o=====&&&&==******& %%%$$$#.## :::::::::::::::::::::::::::::::::",
":::::::::::::::::::::::::::::::o=====&&&&===******& %%$$$$##.# :::::::::::::::::::::::::::::::::",
":::::::::::::::::::::::::::::::o=====&&&====*&&***& %$$$$###.## ::::::::::::::::::::::::::::::::",
"::::::::::::::::::::::::::::::oX=*========*=o--X*&&& $$$####.## ::::::::::::::::::::::::::::::::",
"::::::::::::::::::::::::::::::X+&=*===&&=*=o+O;-X&&& X$#####.## ::::::::::::::::::::::::::::::::",
"::::::::::::::::::::::::::::::X+&=*==&&&=*=o+O;;X&&& X#####.### ::::::::::::::::::::::::::::::::",
":::::::::::::::::::::::::::::o-+;&===&&===&+;OO;-&&&X&X####.### ::::::::::::::::::::::::::::::::",
":::::::::::::::::::::::::::::o;O;&*======*&O;@@;-&&&o&&X##.### :::::::::::::::::::::::::::::::::",
":::::::::::::::::::::::::::::o*OO&********&OO@@-&&&&&&&&XX#### :::::::::::::::::::::::::::::::::",
":::::::::::::::::::::::::::::X ****************&&X&&&&&&&&X## ::::::::::::::::::::::::::::::::::",
":::::::::::::::::::::::::::::X& X**&**o******oX  &&o&&&XX&&X :::::::::::::::::::::::::::::::::::",
"::::::::::::::::::::::::::::::X&;OO*****oX   ;o&&&&X&&&XXX&&X:::::::::::::::::::::::::::::::::::",
":::::::::::::::::::::::::::::::X&&oOOOOOOOOOOo&&&&X&&&&&XX&&&X::::::::::::::::::::::::::::::::::",
"::::::::::::::::::::::::::::::::  &&oO+@@@@o&&&&  &&&&&o&&&&&X::::::::::::::::::::::::::::::::::",
"::::::::::::::::::::::::::::::::::  &&&&&&&&&   &&&o&&X&&&X&&& :::::::::::::::::::::::::::::::::",
"::::::::::::::::::::::::::::::::::X&         &&&&&&X&& &&XXX&& :::::::::::::::::::::::::::::::::",
"::::::::::::::::::::::::::::::::::&***&X&&&&&&X**&&&X &&&XXX&& :::::::::::::::::::::::::::::::::",
":::::::::::::::::::::::::::::::::::o&**&X &&&X&&**&&X &&&XXX&& :::::::::::::::::::::::::::::::::",
":::::::::::::::::::::::::::::::::::o&**&&&   X&&&*&&X &&&&X&& ::::::::::::::::::::::::::::::::::",
":::::::::::::::::::::::::::::::::::&****&& ::&*&&*&&X: o&o&o& ::::::::::::::::::::::::::::::::::",
"::::::::::::::::::::::::::::::::::::X*&*&& ::&****& ::X-X-X-X:::::::::::::::::::::::::::::::::::",
":::::::::::::::::::::::::::::::::::X;X;X; :::o*&*&& :::     ::::::::::::::::::::::::::::::::::::",
"::::::::::::::::::::::::::::::::::::     :::X;X;X& :::::::::::::::::::::::::::::::::::::::::::::",
":::::::::::::::::::::::::::::::::::::::::::::     ::::::::::::::::::::::::::::::::::::::::::::::",
"::::::::::::::::::::::::::::::::::::::::::::::::::::::::::::::::::::::::::::::::::::::::::::::::",
"::::::::::::::::::::::::::::::::::::::::::::::::::::::::::::::::::::::::::::::::::::::::::::::::",
"::::::::::::::::::::::::::::::::::::::::::::::::::::::::::::::::::::::::::::::::::::::::::::::::",
"::::::::::::::::::::::::::::::::::::::::::::::::::::::::::::::::::::::::::::::::::::::::::::::::",
"::::::::::::::::::::::::::::::::::::::::::::::::::::::::::::::::::::::::::::::::::::::::::::::::",
"::::::::::::::::::::::::::::::::::::::::::::::::::::::::::::::::::::::::::::::::::::::::::::::::",
"::::::::::::::::::::::::::::::::::::::::::::::::::::::::::::::::::::::::::::::::::::::::::::::::",
"::::::::::::::::::::::::::::::::::::::::::::::::::::::::::::::::::::::::::::::::::::::::::::::::",
"::::::::::::::::::::::::::::::::::::::::::::::::::::::::::::::::::::::::::::::::::::::::::::::::",
"::::::::::::::::::::::::::::::::::::::::::::::::::::::::::::::::::::::::::::::::::::::::::::::::",
"::::::::::::::::::::::::::::::::::::::::::::::::::::::::::::::::::::::::::::::::::::::::::::::::",
"::::::::::::::::::::::::::::::::::::::::::::::::::::::::::::::::::::::::::::::::::::::::::::::::",
"::::::::::::::::::::::::::::::::::::::::::::::::::::::::::::::::::::::::::::::::::::::::::::::::",
"::::::::::::::::::::::::::::::::::::::::::::::::::::::::::::::::::::::::::::::::::::::::::::::::",
"::::::::::::::::::::::::::::::::::::::::::::::::::::::::::::::::::::::::::::::::::::::::::::::::",
"::::::::::::::::::::::::::::::::::::::::::::::::::::::::::::::::::::::::::::::::::::::::::::::::",
"::::::::::::::::::::::::::::::::::::::::::::::::::::::::::::::::::::::::::::::::::::::::::::::::",
"::::::::::::::::::::::::::::::::::::::::::::::::::::::::::::::::::::::::::::::::::::::::::::::::",
"::::::::::::::::::::::::::::::::::::::::::::::::::::::::::::::::::::::::::::::::::::::::::::::::",
"::::::::::::::::::::::::::::::::::::::::::::::::::::::::::::::::::::::::::::::::::::::::::::::::",
"::::::::::::::::::::::::::::::::::::::::::::::::::::::::::::::::::::::::::::::::::::::::::::::::",
"::::::::::::::::::::::::::::::::::::::::::::::::::::::::::::::::::::::::::::::::::::::::::::::::",
"::::::::::::::::::::::::::::::::::::::::::::::::::::::::::::::::::::::::::::::::::::::::::::::::",
"::::::::::::::::::::::::::::::::::::::::::::::::::::::::::::::::::::::::::::::::::::::::::::::::",
"::::::::::::::::::::::::::::::::::::::::::::::::::::::::::::::::::::::::::::::::::::::::::::::::",
"::::::::::::::::::::::::::::::::::::::::::::::::::::::::::::::::::::::::::::::::::::::::::::::::",
"::::::::::::::::::::::::::::::::::::::::::::::::::::::::::::::::::::::::::::::::::::::::::::::::",
"::::::::::::::::::::::::::::::::::::::::::::::::::::::::::::::::::::::::::::::::::::::::::::::::",
"::::::::::::::::::::::::::::::::::::::::::::::::::::::::::::::::::::::::::::::::::::::::::::::::"
};
