/* XPM */
static char *sprite_324_back[] = {
/* columns rows colors chars-per-pixel */
"96 96 15 1 ",
"  c #010101",
". c #393939",
"X c #5A3139",
"o c #6A2929",
"O c #626262",
"+ c #FF2020",
"@ c #AC5239",
"# c #CD624A",
"$ c #EE8341",
"% c #FFAC6A",
"& c #838383",
"* c #BDACA4",
"= c #D5CDC5",
"- c #EEDED5",
"; c None",
/* pixels */
";;;;;;;;;;;;;;;;;;;;;;;;;;;;;;;;;;;;;;;;;;;;;;;;;;;;;;;;;;;;;;;;;;;;;;;;;;;;;;;;;;;;;;;;;;;;;;;;",
";;;;;;;;;;;;;;;;;;;;;;;;;;;;;;;;;;;;;;;;;;;;;;;;;;;;;;;;;;;;;;;;;;;;;;;;;;;;;;;;;;;;;;;;;;;;;;;;",
";;;;;;;;;;;;;;;;;;;;;;;;;;;;;;;;;;;;;;;;;;;;;;;;;;;;;;;;;;;;;;;;;;;;;;;;;;;;;;;;;;;;;;;;;;;;;;;;",
";;;;;;;;;;;;;;;;;;;;;;;;;;;;;;;;;;;;;;;;;;;;;;;;;;;;;;;;;;;;;;;;;;;;;;;;;;;;;;;;;;;;;;;;;;;;;;;;",
";;;;;;;;;;;;;;;;;;;;;;;;;;;;;;;;;;;;;;;;;;;;;;;;;;;;;;;;;;;;;;;;;;;;;;;;;;;;;;;;;;;;;;;;;;;;;;;;",
";;;;;;;;;;;;;;;;;;;;;;;;;;;;;;;;;;;;;;;;;;;;;;;;;;;;;;;;;;;;;;;;;;;;;;;;;;;;;;;;;;;;;;;;;;;;;;;;",
";;;;;;;;;;;;;;;;;;;;;;;;;;;;;;;;;;;;;;;;;;;;;;;;;;;;;;;;;;;;;;;;;;;;;;;;;;;;;;;;;;;;;;;;;;;;;;;;",
";;;;;;;;;;;;;;;;;;;;;;;;;;;;;;;;;;;;;;;;;;;;;;;;;;;;;;;;;;;;;;;;;;;;;;;;;;;;;;;;;;;;;;;;;;;;;;;;",
";;;;;;;;;;;;;;;;;;;;;;;;;;;;;;;;;;;;;;;;;;;;;;;;;;;;;;;;;;;;;;;;;;;;;;;;;;;;;;;;;;;;;;;;;;;;;;;;",
";;;;;;;;;;;;;;;;;;;;;;;;;;;;;;;;;;;;;;;;;;;;;;;;;;;;;;;;;;;;;;;;;;;;;;;;;;;;;;;;;;;;;;;;;;;;;;;;",
";;;;;;;;;;;;;;;;;;;;;;;;;;;;;;;;;;;;;;;;;;;;;;;;;;;;;;;;;;;;;;;;;;;;;;;;;;;;;;;;;;;;;;;;;;;;;;;;",
";;;;;;;;;;;;;;;;;;;;;;;;;;;;;;;;;;;;;;;;;;;;;;;;;;;;;;;;;;;;;;;;;;;;;;;;;;;;;;;;;;;;;;;;;;;;;;;;",
";;;;;;;;;;;;;;;;;;;;;;;;;;;;;;;;;;;;;;;;;;;;;;;;;;;;;;;;;;;;;;;;;;;;;;;;;;;;;;;;;;;;;;;;;;;;;;;;",
";;;;;;;;;;;;;;;;;;;;;;;;;;;;;;;;;;;;;;;;;;;;;;;;;;;;;;;;;;;;;;;;;;;;;;;;;;;;;;;;;;;;;;;;;;;;;;;;",
";;;;;;;;;;;;;;;;;;;;;;;;;;;;;;;;;;;;;;;;;;;;;;;;;;;;;;;;;;;;;;;;;;;;;;;;;;;;;;;;;;;;;;;;;;;;;;;;",
";;;;;;;;;;;;;;;;;;;;;;;;;;;;;;;;;;;;;;;;;;;;;;;;;;;;;;;;;;;;;;;;;;;;;;;;;;;;;;;;;;;;;;;;;;;;;;;;",
";;;;;;;;;;;;;;;;;;;;;;;;;;;;;;;;;;;;;;;;;;;;;;;;;;;;;;;;;;;;;;;;;;;;;;;;;;;;;;;;;;;;;;;;;;;;;;;;",
";;;;;;;;;;;;;;;;;;;;;;;;;;;;;;;;;;;;;;;;;;;;;;******;;;;;;;;;;;;;;;;;;;;;;;;;;;;;;;;;;;;;;;;;;;;",
";;;;;;;;;;;;;;;;;;;;;;;;;;;;;;;;;;;;;;;;;;;***------***;;;;;;;;;;;;;;;;;;;;;;;;;;;;;;;;;;;;;;;;;",
";;;;;;;;;;;;;;;;;;;;;;;;;;;;;;;;;;;;;;;;;;*------------**;****;;;;;;;;;;;;;;;;;;;;;;;;;;;;;;;;;;",
";;;;;;;;;;;;;;;;;;;;;;;;;;;;;;;;;;;;;*****--------------=*----**;;;;;;;;;;;;;;;;;;;;;;;;;;;;;;;;",
";;;;;;;;;;;;;;;;;;;;;;;;;****;;;;;;**===*-=-=------------*------*;;;;;;;;;;;;;;;;;;;;;;;;;;;;;;;",
";;;;;;;;;;;;;;;;;;;;;;;**----***;;*=======-=-=------------*------*;;;;;;;;;;;;;;;;;;;;;;;;;;;;;;",
";;;;;;;;;;;;;;;;;;;;;;*=------==**==---====-=-------------*------*;;;;;;;;;;;;;;;;;;;;;;;;;;;;;;",
";;;;;;;;;;;;;;;;;;;;;*===----=====-------===--------------*=-----***;;;;;;;;;;;;;;;;;;;;;;;;;;;;",
";;;;;;;;;;;;;;;;;;;;*=*========----------=---------------*=-=-=----=**;;;;;;;;;;;;;;;;;;;;;;;;;;",
";;;;;;;;;;;;;;;;;;;;**========-----------------------------=-=-=------*;;;;;;;;;;;;;;;;;;;;;;;;;",
";;;;;;;;;;;;;;;;;;;**=*=*===*=---------------=*=----------=-=-=--------*;;;;;;;;;;;;;;;;;;;;;;;;",
";;;;;;;;;;;;;;;;;;;*****=*=***=-----------==***==----------=*=-=------=*;;;;;;;;;;;;;;;;;;;;;;;;",
";;;;;;;;;;;;;;;;;;;&*********=*==--------=****=*=*=-------=***=------=-=&;;;;;;;;;;;;;;;;;;;;;;;",
";;;;;;;;;;;;;;;;;;;&********=*=*=*=====********=*=*=*=--=******=--=-=-=-&;;;;;;;;;;;;;;;;;;;;;;;",
";;;;;;;;;;;;;;;;;;;;&********=*=*=**************=*=***************-=-=-&;;;;;;;;;;;;;;;;;;;;;;;;",
";;;;;;;;;;;;;;;;;;&***********=*=***********************************=*=&;;;;;;;;;;;;;;;;;;;;;;;;",
";;;;;;;;;;;;;;;;;&***************************************************&&;;;;;;;;;;;;;;;;;;;;;;;;;",
";;;;;;;;;;;;;;;;;&**************************************************&@@;;;;;;;;;;;;;;;;;;;;;;;;;",
";;;;;;;;;;;;;;;;;&******************************=*****************&&#%%@@;;;;;;;;;;;;;;;;;;;;;;;",
";;;;;;;;;;;;;;;;;;&****&********&&*******&**=*=**&***&*******&&&&&$$%%%$XX;;;;;;;;;;;;;;;;;;;;;;",
";;;;;;;;;;;;;;;;;;;&&&;;&&***&&&;;&&***&&*&=*=*=&***&&&****&&;X$$$$$$$%@$%X;;;;;;;;;;;;;;;;;;;;;",
";;;;;;;;;;;;;;;;;;;;;;;;;;&&&;;;;;;;&&&;;;&*====&&&&;;;&&&&;;X@$$$##@@@#$$#;;;;;;;;;;;;;;;;;;;;;",
";;;;;;;;;;;;;;;;;;;;;;;;;;;;;;;;;;;;;;;;;;;&*==*&;;;;;;;;;;;;X$@@@@@##$@$$X;;;;;;;;;;;;;;;;;;;;;",
";;;;;;;;;;;;;;;;;;;;;;;;;;;;;;;;;;;;;;;;;;;&===&;;;;;;;;;;;;X$$########XX@$X;;;;;;;;;;;;;;;;;;;;",
";;;;;;;;;;;;;;;;;;;;;;;;;;;;;;;;;;;;;;;;;;;&===&;;;;;;;;;;;;X$#########X#$X ;;;;;;;;;;;;;;;;;;;;",
";;;;;;;;;;;;;;;;;;;;;;;;;;;;;;;;;;;;;;    .&*==&.  ;;;;;;;;;X$##########XX#$X;;;;;;;;;;;;;;;;;;;",
";;;;;;;;;;;;;;;;;;;;;;;;;;;;;;;;;;;   &&&OooooooooO  ;;;;;;X###############@X;;;;;;;;;;;;;;;;;;;",
";;;;;;;;;;;;;;;;;;;;;;;;;;;;;;;;;  O&&&&&.&&&&&O..&&&..;;;;X###############= ;;;;;;;;;;;;;;;;;;;",
";;;;;;;;;;;;;;;;;;;;;;;;;;;;;;;  OO&O&&&.&&&&&&&&..&&&O.;;;X###########XX =*&;;;;;;;;;;;;;;;;;;;",
";;;;;;;;;;;;;;;;;;;;;;;;;;;;;; oo OO&O   &&&&&&&&&   &&&.;;X##########X#@@=&;;;;;;;;;;;;;;;;;;;;",
";;;;;;;;;;;;;;;;;;;;;;;;;;;;; ooo OOO ooo &&&&&&&.ooo O&& X##############X=&;;;;;;;;;;;;;;;;;;;;",
";;;;;;;;;;;;;;;;;;;;;;;;;;;; oo++.OO ooooo O&O&O&.oooo.O&O #########@##@@&=&;;;;;;;;;;;;;;;;;;;;",
";;;;;;;;;;;;;;;;;;;;;;;;;;;; o++ OO oo++oo &O&O&O o+ooo......O######XXX;;&=*;;;;;;;;;;;;;;;;;;;;",
";;;;;;;;;;;;;;;;;;;;;;;;;;;  ++ OOO o++++X.O&O&O& +++oo O&. ...&&&&X;;;;&==*;;;;;;;;;;;;;;;;;;;;",
";;;;;;;;;;;;;;;;;;;;;;;;;  O . OOO oo++++ OOOOOOOO.++oo &&&.O======&&&;;*==*;;;;;;;;;;;;;;;;;;;;",
";;;;;;;;;;;;;;;;;;;;;;;; . .OO.OO.O o+++o .OOOOOOO.  o .&&&*=========*&&====*;;;;;;;;;;;;;;;;;;;",
";;;;;;;;;;;;;;;;;;;;;...OO.OO.OO.OO.oo+..& OOOOOOO&.O.. O&*===========*&====*;;;;;;;;;;;;;;;;;;;",
";;;;;;;;;;;;;;;;;;;; &&&& OOO.O.OOO&  .OOO&.OOOOOO& OOO&.O*============*====*;;;;;;;;;;;;;;;;;;;",
";;;;;;;;;;;;;;;;;;;; &&&& OO.OO.OO&.OOOOOO& OOOOO&.OOOO&&.*============**===&;;;;;;;;;;;;;;;;;;;",
";;;;;;;;;;;;;;;;;;;*..OOO OO.O.OOO& OOOOOOO&.OOOO&****OO*******=======******&;;;;;;;;;;;;;;;;;;;",
";;;;;;;;;;;;;;;;;;*-* .OOO O.OOOO&.OOO===OO& OOO**====****=====**==********&;;;;;;;;;;;;;;;;;;;;",
";;;;;;;;;;;;;;;;;&--XX. &O .OOOOO&.OO=----==*OO*------=**=======**********&;;;;;;;;;;;;;;;;;;;;;",
";;;;;;;;;;;;;;;;;XX@$$# &&O .OOOOOOO=------=***=-------**========********==*;;;;;;;;;;;;;;;;;;;;",
";;;;;;;;;;;;;;;;@$$$$$## &OOO .OOOOO=------****=------=**========*******====&;;;;;;;;;;;;;;;;;;;",
";;;;;;;;;;;;;;;;XX$$####.&&OOOOO===*=------=***=------======****==******====&;;;;;;;;;;;;;;;;;;;",
";;;;;;;;;;;;;;;;&=  ###### &&&O=----*=------****=-----====*******=******====*&;;;;;;;;;;;;;;;;;;",
";;;;;;;;;;;;;;;;&===  ##### O&=-----=*=----=**====---====****************==**&;;;;;;;;;;;;;;;;;;",
";;;;;;;;;;;;;;;;;&===*  ####..*-----****===**=====***************************&;;;;;;;;;;;;;;;;;;",
";;;;;;;;;;;;;;;;;;&&**X@ X####*----=*********=====**************************&;;;;;;;;;;;;;;;;;;;",
";;;;;;;;;;;;;;;;;;;&**X.@@  X##*--=***********===***************&OO*********&;;;;;;;;;;;;;;;;;;;",
";;;;;;;;;;;;;;;;;;;;&X....X@@ X@&***&&*************************XO##O&*****&&;;;;;;;;;;;;;;;;;;;;",
";;;;;;;;;;;;;;;;;;;;;X@.... @@@@@&&&##&&******&&**************OX####&O&&&&;;;;;;;;;;;;;;;;;;;;;;",
";;;;;;;;;;;;;;;;;;;;;X@@....  @@@@@@####&****&##&***********&..##&..OO#$X;;;;;;;;;;;;;;;;;;;;;;;",
";;;;;;;;;;;;;;;;;;;; @@@@@....  X@@##### &&&&###$&&*******&.. O....OO$$$X;;;;;;;;;;;;;;;;;;;;;;;",
";;;;;;;;;;;;;;;;;;;; @@@@@@@@@X;;   X##@ ....OOOOO&&&&&...  ;;;X######$$X;;;;;;;;;;;;;;;;;;;;;;;",
";;;;;;;;;;;;;;;;;;;; @@@@@@@@X-.;;;;;XXX ......OO##X...;;;;;;;;X######$$ ;;;;;;;;;;;;;;;;;;;;;;;",
";;;;;;;;;;;;;;;;;;;;  @@@@@@  ..;;;;;;; #O....O#$$#X;;;;;;;;;;;;X#######*O;;;;;;;;;;;;;;;;;;;;;;",
";;;;;;;;;;;;;;;;;;;;;;      ;;;;;;;;;;; #######$$$X;;;;;;;;;;;;; ###### -O;;;;;;;;;;;;;;;;;;;;;;",
";;;;;;;;;;;;;;;;;;;;;;;;;;;;;;;;;;;;;;; #######$$$ ;;;;;;;;;;;;;;  ####O  ;;;;;;;;;;;;;;;;;;;;;;",
";;;;;;;;;;;;;;;;;;;;;;;;;;;;;;;;;;;;;;;X#######$$# ;;;;;;;;;;;;;;;;     ;;;;;;;;;;;;;;;;;;;;;;;;",
";;;;;;;;;;;;;;;;;;;;;;;;;;;;;;;;;;;;;;;X########$O-O;;;;;;;;;;;;;;;;;;;;;;;;;;;;;;;;;;;;;;;;;;;;",
";;;;;;;;;;;;;;;;;;;;;;;;;;;;;;;;;;;;;;;;   ######O* ;;;;;;;;;;;;;;;;;;;;;;;;;;;;;;;;;;;;;;;;;;;;",
";;;;;;;;;;;;;;;;;;;;;;;;;;;;;;;;;;;;;;;;;;;      O  ;;;;;;;;;;;;;;;;;;;;;;;;;;;;;;;;;;;;;;;;;;;;",
";;;;;;;;;;;;;;;;;;;;;;;;;;;;;;;;;;;;;;;;;;;;;;;;;;;;;;;;;;;;;;;;;;;;;;;;;;;;;;;;;;;;;;;;;;;;;;;;",
";;;;;;;;;;;;;;;;;;;;;;;;;;;;;;;;;;;;;;;;;;;;;;;;;;;;;;;;;;;;;;;;;;;;;;;;;;;;;;;;;;;;;;;;;;;;;;;;",
";;;;;;;;;;;;;;;;;;;;;;;;;;;;;;;;;;;;;;;;;;;;;;;;;;;;;;;;;;;;;;;;;;;;;;;;;;;;;;;;;;;;;;;;;;;;;;;;",
";;;;;;;;;;;;;;;;;;;;;;;;;;;;;;;;;;;;;;;;;;;;;;;;;;;;;;;;;;;;;;;;;;;;;;;;;;;;;;;;;;;;;;;;;;;;;;;;",
";;;;;;;;;;;;;;;;;;;;;;;;;;;;;;;;;;;;;;;;;;;;;;;;;;;;;;;;;;;;;;;;;;;;;;;;;;;;;;;;;;;;;;;;;;;;;;;;",
";;;;;;;;;;;;;;;;;;;;;;;;;;;;;;;;;;;;;;;;;;;;;;;;;;;;;;;;;;;;;;;;;;;;;;;;;;;;;;;;;;;;;;;;;;;;;;;;",
";;;;;;;;;;;;;;;;;;;;;;;;;;;;;;;;;;;;;;;;;;;;;;;;;;;;;;;;;;;;;;;;;;;;;;;;;;;;;;;;;;;;;;;;;;;;;;;;",
";;;;;;;;;;;;;;;;;;;;;;;;;;;;;;;;;;;;;;;;;;;;;;;;;;;;;;;;;;;;;;;;;;;;;;;;;;;;;;;;;;;;;;;;;;;;;;;;",
";;;;;;;;;;;;;;;;;;;;;;;;;;;;;;;;;;;;;;;;;;;;;;;;;;;;;;;;;;;;;;;;;;;;;;;;;;;;;;;;;;;;;;;;;;;;;;;;",
";;;;;;;;;;;;;;;;;;;;;;;;;;;;;;;;;;;;;;;;;;;;;;;;;;;;;;;;;;;;;;;;;;;;;;;;;;;;;;;;;;;;;;;;;;;;;;;;",
";;;;;;;;;;;;;;;;;;;;;;;;;;;;;;;;;;;;;;;;;;;;;;;;;;;;;;;;;;;;;;;;;;;;;;;;;;;;;;;;;;;;;;;;;;;;;;;;",
";;;;;;;;;;;;;;;;;;;;;;;;;;;;;;;;;;;;;;;;;;;;;;;;;;;;;;;;;;;;;;;;;;;;;;;;;;;;;;;;;;;;;;;;;;;;;;;;",
";;;;;;;;;;;;;;;;;;;;;;;;;;;;;;;;;;;;;;;;;;;;;;;;;;;;;;;;;;;;;;;;;;;;;;;;;;;;;;;;;;;;;;;;;;;;;;;;",
";;;;;;;;;;;;;;;;;;;;;;;;;;;;;;;;;;;;;;;;;;;;;;;;;;;;;;;;;;;;;;;;;;;;;;;;;;;;;;;;;;;;;;;;;;;;;;;;",
";;;;;;;;;;;;;;;;;;;;;;;;;;;;;;;;;;;;;;;;;;;;;;;;;;;;;;;;;;;;;;;;;;;;;;;;;;;;;;;;;;;;;;;;;;;;;;;;",
";;;;;;;;;;;;;;;;;;;;;;;;;;;;;;;;;;;;;;;;;;;;;;;;;;;;;;;;;;;;;;;;;;;;;;;;;;;;;;;;;;;;;;;;;;;;;;;;"
};
