/* XPM */
static char *sprite_369_back[] = {
/* columns rows colors chars-per-pixel */
"96 96 14 1 ",
"  c #010101",
". c #392929",
"X c #524139",
"o c #524141",
"O c #6A5241",
"+ c #7B6A62",
"@ c #8B734A",
"# c #EE4A73",
"$ c #9C837B",
"% c #B4946A",
"& c #CDB494",
"* c #EECDA4",
"= c #FFEECD",
"- c #000000",
/* pixels */
"------------------------------------------------------------------------------------------------",
"------------------------------------------------------------------------------------------------",
"------------------------------------------------------------------------------------------------",
"------------------------------------------------------------------------------------------------",
"------------------------------------------------------------------------------------------------",
"------------------------------------------------------------------------------------------------",
"------------------------------------------------------------------------------------------------",
"------------------------------------------------------------------------------------------------",
"------------------------------------------------------------------------------------------------",
"------------------------------------------------------------------------------------------------",
"------------------------------------------------------------------------------------------------",
"------------------------------------------------------------------------------------------------",
"------------------------------------------------------------------------------------------------",
"------------------------------------------------------------------------------------------------",
"------------------------------------------------------------------------------------------------",
"------------------------------------------------------------------------------------------------",
"------------------------------------------------------------------------------------------------",
"------------------------------------------------------------------------------------------------",
"------------------------------------------------------------------------------------------------",
"------------------------------------------------------------------------------------------------",
"------------------------------------------------------------------------------------------------",
"------------------------------------------------------------------------------------------------",
"------------------------------------------------------------------------------------------------",
"------------------------------------------------------------------------------------------------",
"---------------------------------OO-------------------------------------------------------------",
"--------------------------------X&*O------------------------------------------------------------",
"--------------------------------OO&*O-------------@@--------------------------------------------",
"-------------------------------X&&@*O-------------@=@@------------------------------------------",
"------------------------------- @&&@*O------------@*==@@----------------------------------------",
"------------------------------- &@&@*O-------------&**==@@--------------------------------------",
"------------------------------- &@&&@&.------------@****==@OOO@---------------------------------",
"------------------------------- &&@&@&.------------@******==@%%OO@------------------------------",
"-------------------------------.$&@&%&$.----------@&*********====@O-----------------------------",
"-------------------------------- +&&&+$.--------oo===**********===*O----------------------------",
"-------------------------------- +oooo+$.------o====***   &&&***===*O---------------------------",
"--------------------------------- ooooo$.----o ===***  +++O&&&&&***@*O--------------------------",
"--------------------------------- ooooo+.--.o$$ ***  +++ooo &&&&&&***=@-------------------------",
"---------------------------------- oooo++..&**$+   ++++ooooo &&&&&&***O-------------------------",
"----------------------------------- oooo+.&***&&$+++++oooooo &&&&&  O**O------------------------",
"------------------------------------ ooo+.**&&&&&++++oooooooo &&&&&&&O*O------------------------",
"------------------------------------ ooooo*&&&$++++ooo+#+oooo &&&&&&&&&*O-----------------------",
"------------------------------------- oooo&&$++++ooooo###ooooo &&&&&&&@*O-----------------------",
"-------------------------..---------- ooooo+++oooooooo###ooooo &&&&&&&&@ -----------------------",
"------------------------.$$..-------.+ooooooooooooooooo#+oooo  &&&&&&%&@ -----------------------",
"------------------------.+$$$..---..++o%%ooooooooo%%oooooooo %%&&&&&&@& &O----------------------",
"------------------------.+oo+$$...$+++%%%oooooooo%%%%ooooooo %%&&&&&&@O &O----------------------",
"-------------------------.oooo+$$$+++&%%%%ooooooo%%%%oooooooo %&&&&&&O&%& ----------------------",
"-------------------------.oooooo+++&&%%%%oooo%%%%%%%%%o%%oooo %%&&&&@O%%& ----------------------",
"------------------------.oooooooo+&&%%%%%%o%%%%%%%%%%%%%%ooooo %&&&& %%% -----------------------",
"----------------------- ++oooooooo%%%%%%%%%%%%%%%%%%%%%%oooooo %%&&& %  ------------------------",
"---------------------- ++%%ooooooo%%%%ooo%%%%%%%%%%%%%%%ooooooo %&&&  --------------------------",
"---------------------- %%%%%ooooooo%%ooooo%%%%%%%%%%%%%%%ooooooo %&& ---------------------------",
"----------------------- %%%%ooooooooooooo%%%%%ooo%%%%%o%%%ooooooo %% ---------------------------",
"----------------------- o%%%ooooooooooooooo%%ooo%%%%%oo%%ooooooo -  ----------------------------",
"------------------------ %%%oooooooooooooooooooo%%%%%oooooo oo  --------------------------------",
"------------------------ %%oooooooooooooooooooooooo%%ooooooo..----------------------------------",
"------------------------ %%ooooooooooooooooooooooooooooo ooo+..---------------------------------",
"------------------------ %oooooooooooooooooooooooo ooo.o oo+++o.--------------------------------",
"----------------------- ooooooooooooooooooooooo   oooo..- o+++++.-------------------------------",
"----------------------- ooooooooooooooo  .o.   -- oooo.-- o+++o+$.------------------------------",
"----------------------- oooooooooooo   .oooo.--- oooo+.--- +o++o+$.-----------------------------",
"------------------------  oooooooo  ---.oooo.--- oo+++.--- o+o++o$.-----------------------------",
"-------------------------- oooooo ----.oooo ---- +++++.---- ++o+..------------------------------",
"--------------------------- oooo ---- ooooo --- ++o+o+.-----   .--------------------------------",
"--------------------------- ooo ---- ooooo ---- +o++o+.-----------------------------------------",
"----------------------------   ---- oooooo ---- +.++ .------------------------------------------",
"---------------------------------- o.oooo ------    --------------------------------------------",
"---------------------------------- .oo.oo ------------------------------------------------------",
"--------------------------------- .oo.oo -------------------------------------------------------",
"--------------------------------- oo.oo --------------------------------------------------------",
"--------------------------------- ..o  ---------------------------------------------------------",
"----------------------------------   -----------------------------------------------------------",
"------------------------------------------------------------------------------------------------",
"------------------------------------------------------------------------------------------------",
"------------------------------------------------------------------------------------------------",
"------------------------------------------------------------------------------------------------",
"------------------------------------------------------------------------------------------------",
"------------------------------------------------------------------------------------------------",
"------------------------------------------------------------------------------------------------",
"------------------------------------------------------------------------------------------------",
"------------------------------------------------------------------------------------------------",
"------------------------------------------------------------------------------------------------",
"------------------------------------------------------------------------------------------------",
"------------------------------------------------------------------------------------------------",
"------------------------------------------------------------------------------------------------",
"------------------------------------------------------------------------------------------------",
"------------------------------------------------------------------------------------------------",
"------------------------------------------------------------------------------------------------",
"------------------------------------------------------------------------------------------------",
"------------------------------------------------------------------------------------------------",
"------------------------------------------------------------------------------------------------",
"------------------------------------------------------------------------------------------------",
"------------------------------------------------------------------------------------------------",
"------------------------------------------------------------------------------------------------",
"------------------------------------------------------------------------------------------------",
"------------------------------------------------------------------------------------------------"
};
