/* XPM */
static char *sprite_491_back[] = {
/* columns rows colors chars-per-pixel */
"96 96 13 1 ",
"  c #101010",
". c #313131",
"X c #520000",
"o c #524A4A",
"O c #E63929",
"+ c #942941",
"@ c #108BAC",
"# c #29E6FF",
"$ c #838383",
"% c #ACB4BD",
"& c #DEE6EE",
"* c white",
"= c None",
/* pixels */
"================================================================================================",
"================================================================================================",
"================================================================================================",
"================================================================================================",
"================================================================================================",
"================================================================================================",
"================================================================================================",
"================================================================================================",
"================================================================================================",
"================================================================================================",
"================================================================================================",
"================================================================================================",
"================================================================================================",
"================================================================================================",
"================================================================================================",
"================================================================================================",
"================================================================================================",
"====================o$$$========================================================================",
"====================o&&&$$$$$===================================================================",
"===================== $&&&&&&$==================================================================",
"====================== &&&&%%%$$$$==============================================================",
"===================== %%$$$%%%&&&&$$$$$$========================================================",
"=====================o o%%%%%%%%&&&&&&&&$=======================================================",
"========================   o%%%%&&&&&%%%$=======================================================",
"============================ %%%%%&&%%%%%$$$====================================================",
"=============================$%%%%%%%%%%%%&&$$$$================================================",
"=============================$%%%%%%%%%%%%%&&&&&o===============================================",
"==============================$%%%%%%%%%%%%%&&&&o===============================================",
"==============================$%%%%%%%%%%%%%%&&&&o==============================================",
"===============================$$$%%%%%$$$%%%&&&&o==============================================",
"==================================   $$=$%%%%&&&&o==============================================",
"=========================================$%%%%&&&& ========================... =================",
"========================================= %%%%&&&&&o$=======================... ================",
"========================================= %%%%&&&&&&&$========================.. ===============",
"============= ...=========================  %%%%&&&&&$=====================..... ===============",
"===============....=========================oo %%%%&&&$=====================....o ==============",
"==============  ......========================= %%%%&&$=====================...oo ==============",
"=================  ....======================= %%%%%%%&o=================== ..oo ===============",
"=================== ....====================XX%%%%%%%%%o=================  ...oo ===============",
"==================  ..oo...==========....==X++X%%%%%%%%&o=============== .....  ================",
"================= .....oooo ======== oooo.X+++OXXX%%%%%&o=============== .....==================",
"================ .......ooo ======== ...ooo  +OX+OX%%.%&& ============== .....==================",
"================ ........o ========= ......oo  ++OOXo#.%& =============== ...o.=================",
"================= ....... ========== ........oo  +OXX@*. ===========     ...oo.=================",
"================= .....  =========== ..........oo  X+X@$o========== ........oo =================",
"==================   ...o  ====   == ............oo ++XXo=...===== ........ooo =================",
"===================== .oooo  = ooo = .............oo +X+  ooo.==== ......o    ==================",
"===================== ..ooooo oooo.. ..............oo   ...ooo.==== ...oo ======================",
"==================== ......  ....oo. ...............oo .....ooo  == ....oo =====================",
"=================== ................. ...............o ......oo..  .....oo =====================",
"=================== ................. ............... ..................oo =====================",
"==================== ................ .............. ..................oo ======================",
"===================== ...... ......... ................................o =======================",
"======================  .... ......... ................................ ========================",
"===========================  .......... ............. .............ooo =========================",
"===============. ============  .... ... ............. ............oooo =========================",
"================. =============  .. .... ............. ... .  ..ooooo ==========================",
"================..  =============   ....  ............  ..  ==   .ooo ==========================",
"=================... ============= ...  =  .......... = ... =====    ===========================",
"================= ...  ==========  .. =====  ......  == ... ====================================",
"================== ....  ======= ... ====== ...... ===== ... ===================================",
"================ ........   ===== .. ===== .......oo == ..... ==================================",
"=================  ......ooo == .... ====== .....oo ====  ... ==================================",
"===================  ...o.ooo == .... ===  .......   ==== .... =================================",
"===================== ...o.oo == .... =  ...........o == ......  ===============================",
"===================== ....o.oo   ..... .............oo ==  ...... ==============================",
"====================== .......oo      .............oooo === ...... =============================",
"======================= .........................oooooo === ......o  ===========================",
"======================= ......................o.oooooooo === ....o.oo ==========================",
"======================== ....................o.o.oooooooo == .....oooo  ========================",
"======================== .....................o.oooooooooo == .....oooo. =======================",
"========================= ...................o.oooooooooooo == .....oooo =======================",
"========================== .................ooooooooooo ======= ....ooooo ======================",
"===========================  ..............oooooooooooo ======== ...o.o.. ======================",
"=============================     ........ooo.oooo o ooo ======== ... ... ======================",
"==================================   ....oo..oooo  o =oo ======== ... .. =======================",
"==================================== .....  oooo ==  ==oo ====== ... .. ========================",
"=================================== ...   ==oo  ==== ===o ===== ....   =========================",
"================================== ..  ====.  ===================   ============================",
"=================================.. ======  ====================================================",
"================================================================================================",
"================================================================================================",
"================================================================================================",
"================================================================================================",
"================================================================================================",
"================================================================================================",
"================================================================================================",
"================================================================================================",
"================================================================================================",
"================================================================================================",
"================================================================================================",
"================================================================================================",
"================================================================================================",
"================================================================================================",
"================================================================================================",
"================================================================================================"
};
