/* XPM */
static char *sprite_111_front[] = {
/* columns rows colors chars-per-pixel */
"96 96 9 1 ",
"  c #101010",
". c #393952",
"X c #5A5A7B",
"o c #AC3929",
"O c #8383AC",
"+ c #BDBDCD",
"@ c #E6E6EE",
"# c white",
"$ c #000000",
/* pixels */
"$$$$$$$$$$$$$$$$$$$$$$$$$$$$$$$$$$$$$$$$$$$$$$$$$$$$$$$$$$$$$$$$$$$$$$$$$$$$$$$$$$$$$$$$$$$$$$$$",
"$$$$$$$$$$$$$$$$$$$$$$$$$$$$$$$$$$$$$$$$$$$$$$$$$$$$$$$$$$$$$$$$$$$$$$$$$$$$$$$$$$$$$$$$$$$$$$$$",
"$$$$$$$$$$$$$$$$$$$$$$$$$$$$$$$$$$$$$$$$$$$$$$$$$$$$$$$$$$$$$$$$$$$$$$$$$$$$$$$$$$$$$$$$$$$$$$$$",
"$$$$$$$$$$$$$$$$$$$$$$$$$$$$$$$$$$$$$$$$$$$$$$$$$$$$$$$$$$$$$$$$$$$$$$$$$$$$$$$$$$$$$$$$$$$$$$$$",
"$$$$$$$$$$$$$$$$$$$$$$$$$$$$$$$$$$$$$$$$$$$$$$$$$$$$$$$$$$$$$$$$$$$$$$$$$$$$$$$$$$$$$$$$$$$$$$$$",
"$$$$$$$$$$$$$$$$$$$$$$$$$$$$$$$$$$$$$$$$$$$$$$$$$$$$$$$$$$$$$$$$$$$$$$$$$$$$$$$$$$$$$$$$$$$$$$$$",
"$$$$$$$$$$$$$$$$$$$$$$$$$$$$$$$$$$$$$$$$$$$$$$$$$$$$$$$$$$$$$$$$$$$$$$$$$$$$$$$$$$$$$$$$$$$$$$$$",
"$$$$$$$$$$$$$$$$$$$$$$$$$$$$$$$$$$$$$$$$$$$$$$$$$$$$$$$$$$$$$$$$$$$$$$$$$$$$$$$$$$$$$$$$$$$$$$$$",
"$$$$$$$$$$$$$$$$$$$$$$$$$$$$$$$$$$$$$$$$$$$$$$$$$$$$$$$$$$$$$$$$$$$$$$$$$$$$$$$$$$$$$$$$$$$$$$$$",
"$$$$$$$$$$$$$$$$$$$$$$$$$$$$$$$$$$$$$$$$$$$$$$$$$$$$$$$$$$$$$$$$$$$$$$$$$$$$$$$$$$$$$$$$$$$$$$$$",
"$$$$$$$$$$$$$$$$$$$$$$$$$$$$$$$$$$$$$$$$$$$$$$$$$$$$$$$$$$$$$$$$$$$$$$$$$$$$$$$$$$$$$$$$$$$$$$$$",
"$$$$$$$$$$$$$$$$$$$$$$$$$$$$$$$$$$$$$$$$$$$$$$$$$$$$$$$$$$$$$$$$$$$$$$$$$$$$$$$$$$$$$$$$$$$$$$$$",
"$$$$$$$$$$$$$$$$$$$$$$$$$$$$$$$$$$$$$$$$$$$$$$$$$$$$$$$$$$$$$$$$$$$$$$$$$$$$$$$$$$$$$$$$$$$$$$$$",
"$$$$$$$$$$$$$$$$$$$$$$$$$$$$$$$$$$$$$$$$$$$$$$$$$$$$$$$$$$$$$$$$$$$$$$$$$$$$$$$$$$$$$$$$$$$$$$$$",
"$$$$$$$$$$$$$$$$$$$$$$$$$$$$$$$$$$$$$$$$$$$$$$$$$$$$$$$$$$$$$$$$$$$$$$$$$$$$$$$$$$$$$$$$$$$$$$$$",
"$$$$$$$$$$$$$$$$$$$$$$$$$$$$$$$$$$$$$$$$$$$$$$$$$$$$$$$$$$$$$$$$$$$$$$$$$$$$$$$$$$$$$$$$$$$$$$$$",
"$$$$$$$$$$$$$$$$$$$$$$$$$$$$$$$$$$$$$$$$$$$$$$$$$$$$$$$$$$$$$$$$$$$$$$$$$$$$$$$$$$$$$$$$$$$$$$$$",
"$$$$$$$$$$$$$$$$$$$$$$$$$$$$$$$$$$$$$$$$$$$$$$$$$$$$$$$$$$$$$$$$$$$$$$$$$$$$$$$$$$$$$$$$$$$$$$$$",
"$$$$$$$$$$$$$$$$$$$$$$$$$$$$$$$$$$$$$$$$$$$$$$$$$$$$$$$$$$$$$$$$$$$$$$$$$$$$$$$$$$$$$$$$$$$$$$$$",
"$$$$$$$$$$$$$$$$$$$$$$$$$$$$$$$$$$$$$$$$$$$$$$$$$$$$$$$$$$$$$$$$$$$$$$$$$$$$$$$$$$$$$$$$$$$$$$$$",
"$$$$$$$$$$$$$$$$$$$$$$$$$$$$$$$$$$$$$$$$$$$$$$$$$$$$$$$$$$$$$$$$$$$$$$$$$$$$$$$$$$$$$$$$$$$$$$$$",
"$$$$$$$$$$$$$$$$$$$$$$$$$$$$$$$$$$$$$$$$$$$$$$$$$$X   $$$$$$$$$$$$$$$$$$$$$$$$$$$$$$$$$$$$$$$$$$",
"$$$$$$$$$$$$$$$$$$$$$$$$$$$$$$$$$$$$$$$$$$$$$$$$$X++X+  $$$$$$$$$$$$$$$$$$$$$$$$$$$$$$$$$$$$$$$$",
"$$$$$$$$$$$$$$$$$$$$$$$$$$$$$$$$$$$$$$$$$$$$$$$$$X+X++++ $$$$$$$$$$$$$$$$$$$$$$$$$$$$$$$$$$$$$$$",
"$$$$$$$$$$$$$$$$$$$$$$$$$$$$$$$$$$$$$$$$$$$$$$$$$X+X+++++ $$$$$$$$$$$$$$$$$$$$$$$$$$$$$$$$$$$$$$",
"$$$$$$$$$$$$$$$$$$$$$$$$$$$$$$$$$$$$$$$XXX $$$$$$X@X+++++ $$$$$$$$$$$$$$$$$$$$$$$$$$$$$$$$$$$$$$",
"$$$$$$$$$$$$$$$$$$$$$$$$$$$$$$$$$$$$$$X++++ $$$$X@@X+++++ $$$$$$$$$$$OO$$$$$$$$$$$$$$$$$$$$$$$$$",
"$$$$$$$$$$$$$$$$$$$$$$$$$$$$$$$$$$$$$X++++O OOOO@@XOOO+++ $$$$$$$$..O++ $$$$$$$$$$$$$$$$$$$$$$$$",
"$$$$$$$$$$$$$$$$$$$$$$$$$$$$$$$$$$$$X+++OOOO  @@@XOOOOOOO ...$$$..OO+++ $$$$$$$$$$$$$$$$$$$$$$$$",
"$$$$$$$$$$$$$$$$$$$$$$$$$$$$$$$$$$$$X@@OOOOOOO   OOOOOOOOO OO...OOOO+++ $$$$$$$$$$$$$$$$$$$$$$$$",
"$$$$$$$$$$$$$$$$$$$$$$$$$$$$$$$$$$$$X@@OOOOOOOOOOOOOOOOOOO OOOOOOOOO++ $$$$$$$$$$$$$$$$$$$$$$$$$",
"$$$$$$$$$$$$$$$$$$$$$$$$$$$$$$$$$$$$X@@OOOOOOOOOOOOOOOOOOOO OOOOOOOO.+ $$$$$$$$$$$$$$$$$$$$$$$$$",
"$$$$$$$$$$$$$$$$$$$$$$$$$$$$$$$$$$$$X@@OOOOOOOOOOOOOOOOOOOOO  OOOOOO.+ $$$$$$$$$$$$$$$$$$$$$$$$$",
"$$$$$$$$$$$$$$$$$$$$$$$$$$$$$$$$$$$$X@@OOOOOOOOOOOOOOOOOOOOOOO   OOOO. $$$$$$$$$$$$$$$$$$$$$$$$$",
"$$$$$$$$$$$$$$$$$$$$$$$$$$$$  $$$$$X@@OOOOOOOOXXX..XXOOOOOOOOOOOO OOOO $$$$$$$$$$$$$$$$$$$$$$$$$",
"$$$$$$$$$$$$$$$$$$$$$$$$$$$.OO $$$$X@@OOOOOOXX@@+..@+XXOOOOX OOOO OOOOO.$$$$$$$$$$$$$$$$$$$$$$$$",
"$$$$$$$$$$$$$$$$$$$$$$$$$$$.OOO  $X@@OOOOOOX@@@@@+.@+++XXOX++ OOO OOOOO.$$$$$$$$$$$$$$$$$$$$$$$$",
"$$$$$$$$$$$$$$$$$$$$$$$$$$$.OOOOOX@@@OX  OX@@@@@@@@@+++++X+++ OO OOOOOOO.$$$$$$$$$$$$$$$$$$$$$$$",
"$$$$$$$$$$$$$$$$$$$$$$XXX  .OOOOX@@@OX@@@  ...@@@@@++++XX+++O O O.OOOOOO.$$$$$$$$$$$$$$$$$$$$$$$",
"$$$$$$$$$$$$$$$$$$$$$X+++XO OOOX@@@.X@@@@@+ OO..XX+++XX++++OO  OOO.OOOOOO.$$$$$$$$$$$$$$$$$$$$$$",
"$$$$$$$$$$$$$$$$$$$$$X+++XOO  @@@@.+X@@OXX++ OO.++XXX+++++OOO OOOOO..OOOO.$$$$$$$$$$$$$$$$$$$$$$",
"$$$$$$$$$$$$$$$$$$$$$X++XOOOO+....+X@@@   X+O OO..++++XXOOOOO OOOOOOO....  $$$$$$$$$$$$$$$$$$$$$",
"$$$$$$$$$$$$$$$$$$$$$X++XOO++++++++X@@@   X+O OOOO..XXOOOOOO OOOOOOOOOOOO++ $$$$$$$$$$$$$$$$$$$$",
"$$$$$$$$$$$$$$$$$$$$$X@XOO++++++++X@@@++++++OO OOOOOOOOOOOO OOOOOOOOOOO++++ $$$$$$$$$$$$$$$$$$$$",
"$$$$$$$$$$$$$$$$$$$$O@@XO+++++++++X@@++++++OOO OOOOOOOOOOOO OOOOOOOOO++++  $$$$$$$$$$$$$$$$$$$$$",
"$$$$$$$$$$$$$$$$$$$$O@XOO++++++++X@@++++ .OOOO OOOOOOOOOOOO OOOOOOO+++++ OO.$$$$$$$$$$$$$$$$$$$$",
"$$$$$$$$$$$$$$$$$$$O@@XO+++++++++X@@++  OOOOO OOOOOOO..OOOO  OOOO++++++ OOO.$$$$$$$$$$$$$$$$$$$$",
"$$$$$$$$$$$$$$$$$$$O@@XO++++++++X@@++ OOOOOO.O OOOOO.++.OOOO  OO++++        $$$$$$$$$$$$$$$$$$$$",
"$$$$$$$$$$$$$$$$$$O@@XOO++++++++X@@+ OOOOO..OO   OO.+++.OOOO   +....+++OOOO+ $$$$$$$$$$$$$$$$$$$",
"$$$$$$$$$$$$$$$$$$O@@XO++++++++X@@+ OOOO..OOOOO   .+++OO OOOO ..OOO+++OOOO++ $$$$$$$$$$$$$$$$$$$",
"$$$$$$$$$$$$$$$$$X@@XOO++++++++X@@+ OO..OOOOOOOO .+++OOO OOO..OOOOOOOOOO++  .$$$$$$$$$$$$$$$$$$$",
"$$$$$$$$$$$$$$$$$X@+XOO+++++++X@@+ O..OOOOOOOOOOO ++OOOO O..OOOOOOOOOOO++ OO.$$$$$$$$$$$$$$$$$$$",
"$$$$$$$$$$$$$$$$$X@+XOO++++++X@@++ .OOOOOOOOOOOOOO OOOOO .OOOOOOOOOOOO+++ OOO.$$$$$$$$$$$$$$$$$$",
"$$$$$$$$$$$$$$$$$X@+XOO+++++X@@++ .OOOOOOOOOOOOOOO OOOOO  OOOOOOOOOOOO++ OOOO.$$$$$$$$$$$$$$$$$$",
"$$$$$$$$$$$$$$ .$$X+XOOO+++X@@+++ OOOOOOOOOOOOOOO OOOOOO   OOOOOOOOOO+++ OOOO.$$$$$$$$$$$$$$$$$$",
"$$$$$$$$$$$$$$ @..X+OXOOOXX@@+++ .OOOOOOOOOOOOOOO OOOOOO   XX..OOOOOO+++ OOOO.$$$$$$$$$$$$$$$$$$",
"$$$$$$$$$$$$$$ @@@..@@XXX@@@+++ .OOOOOOOOOOO+++O OOOOOOO XX+++O.++OOOO++ OOOO.$$$$$$$$$$$$$$$$$$",
"$$$$$$$$$$$$$$$ @@@@..@@@@+++X #OOOOOOOOOO++++++ OOOOOOO ++++OO.+++OOO+++ OOO.$$$$$$$$$$$$$$$$$$",
"$$$$$$$$$$$$$$$ @@@@@@X+++++ +o#OOOOOOOOOO++++++ .  OOOOO  +OOO.++++OOOO++ OO.$$$$$$$$$$$$$$$$$$",
"$$$$$$$$$$$$$$$$ ++@@@@++++ # oOOOOOOOOOO++++++  O.. OOOOOOOOOO.OOOOOOOOOO O.$$$$$$$$$$$$$$$$$$$",
"$$$$$$$$$$$$$$$$$ +++++++++ OOOOOO      O+++++ +OOO.. OOOOOOOO.OOOOO.  .O OO.$$$$$$$$$$$$$$$$$$$",
"$$$$$$$$$$$$$$$$$$ ++.++++ OOOOO  XXXXXX   +++ ++OOO.. OOOOOO.OOOOO.    ...O.$$$$$$$$$$$$$$$$$$$",
"$$$$$$$$$$$$$$$$$$X  ++++ OOOO  +.XXXXXXX O   +++OOO...OOOOO.$  OO.O.  .OOO $$$$$$$$$$$$$$$$$$$$",
"$$$$$$$$$$$$$$$$$$X+++++ OOOO .##.XXXXXX  +++++++OOOO .OOOO.$$$$  OOOOOOOOO $$$$$$$$$$$$$$$$$$$$",
"$$$$$$$$$$$$$$$$$$$X+++.XOOO XX.#.X     . +++++++OOOO .OOOO.$$$$$ O.+.O.+.O $$$$$$$$$$$$$$$$$$$$",
"$$$$$$$$$$$$$$$$$$$X+++ .OOO XXX.  ...... ++++++OOOOO .OOO.$$$$$$ .++  .++ $$$$$$$$$$$$$$$$$$$$$",
"$$$$$$$$$$$$$$$$$$$$ ++++O  XXXX $$$$$.. +XXXX+OOOOO .....$$$$$$$$ +O $.+O $$$$$$$$$$$$$$$$$$$$$",
"$$$$$$$$$$$$$$$$$$$$X     XXXXX $$$$$$$$ X++++...OOO $$$$$$$$$$$$$$  $$$  $$$$$$$$$$$$$$$$$$$$$$",
"$$$$$$$$$$$$$$$$$$$XXOO.XXXXXX.$$$$$$$$ +++++++OO.OO $$$$$$$$$$$$$$$$$$$$$$$$$$$$$$$$$$$$$$$$$$$",
"$$$$$$$$$$$$$$$$$$$ ##OX      $$$$$$$$$ X++++XOOOO. $$$$$$$$$$$$$$$$$$$$$$$$$$$$$$$$$$$$$$$$$$$$",
"$$$$$$$$$$$$$$$$$$ ##XX##XOO.$$$$$$$$$$ @X++X#XOOOO $$$$$$$$$$$$$$$$$$$$$$$$$$$$$$$$$$$$$$$$$$$$",
"$$$$$$$$$$$$$$$$$$$   ##@...$$$$$$$$$$ @@@.O###XOO $$$$$$$$$$$$$$$$$$$$$$$$$$$$$$$$$$$$$$$$$$$$$",
"$$$$$$$$$$$$$$$$$$$$$$   $$$$$$$$$$$$$ @@ . ###   $$$$$$$$$$$$$$$$$$$$$$$$$$$$$$$$$$$$$$$$$$$$$$",
"$$$$$$$$$$$$$$$$$$$$$$$$$$$$$$$$$$$$$$   $$$ # $$$$$$$$$$$$$$$$$$$$$$$$$$$$$$$$$$$$$$$$$$$$$$$$$",
"$$$$$$$$$$$$$$$$$$$$$$$$$$$$$$$$$$$$$$$$$$$$$ $$$$$$$$$$$$$$$$$$$$$$$$$$$$$$$$$$$$$$$$$$$$$$$$$$",
"$$$$$$$$$$$$$$$$$$$$$$$$$$$$$$$$$$$$$$$$$$$$$$$$$$$$$$$$$$$$$$$$$$$$$$$$$$$$$$$$$$$$$$$$$$$$$$$$",
"$$$$$$$$$$$$$$$$$$$$$$$$$$$$$$$$$$$$$$$$$$$$$$$$$$$$$$$$$$$$$$$$$$$$$$$$$$$$$$$$$$$$$$$$$$$$$$$$",
"$$$$$$$$$$$$$$$$$$$$$$$$$$$$$$$$$$$$$$$$$$$$$$$$$$$$$$$$$$$$$$$$$$$$$$$$$$$$$$$$$$$$$$$$$$$$$$$$",
"$$$$$$$$$$$$$$$$$$$$$$$$$$$$$$$$$$$$$$$$$$$$$$$$$$$$$$$$$$$$$$$$$$$$$$$$$$$$$$$$$$$$$$$$$$$$$$$$",
"$$$$$$$$$$$$$$$$$$$$$$$$$$$$$$$$$$$$$$$$$$$$$$$$$$$$$$$$$$$$$$$$$$$$$$$$$$$$$$$$$$$$$$$$$$$$$$$$",
"$$$$$$$$$$$$$$$$$$$$$$$$$$$$$$$$$$$$$$$$$$$$$$$$$$$$$$$$$$$$$$$$$$$$$$$$$$$$$$$$$$$$$$$$$$$$$$$$",
"$$$$$$$$$$$$$$$$$$$$$$$$$$$$$$$$$$$$$$$$$$$$$$$$$$$$$$$$$$$$$$$$$$$$$$$$$$$$$$$$$$$$$$$$$$$$$$$$",
"$$$$$$$$$$$$$$$$$$$$$$$$$$$$$$$$$$$$$$$$$$$$$$$$$$$$$$$$$$$$$$$$$$$$$$$$$$$$$$$$$$$$$$$$$$$$$$$$",
"$$$$$$$$$$$$$$$$$$$$$$$$$$$$$$$$$$$$$$$$$$$$$$$$$$$$$$$$$$$$$$$$$$$$$$$$$$$$$$$$$$$$$$$$$$$$$$$$",
"$$$$$$$$$$$$$$$$$$$$$$$$$$$$$$$$$$$$$$$$$$$$$$$$$$$$$$$$$$$$$$$$$$$$$$$$$$$$$$$$$$$$$$$$$$$$$$$$",
"$$$$$$$$$$$$$$$$$$$$$$$$$$$$$$$$$$$$$$$$$$$$$$$$$$$$$$$$$$$$$$$$$$$$$$$$$$$$$$$$$$$$$$$$$$$$$$$$",
"$$$$$$$$$$$$$$$$$$$$$$$$$$$$$$$$$$$$$$$$$$$$$$$$$$$$$$$$$$$$$$$$$$$$$$$$$$$$$$$$$$$$$$$$$$$$$$$$",
"$$$$$$$$$$$$$$$$$$$$$$$$$$$$$$$$$$$$$$$$$$$$$$$$$$$$$$$$$$$$$$$$$$$$$$$$$$$$$$$$$$$$$$$$$$$$$$$$",
"$$$$$$$$$$$$$$$$$$$$$$$$$$$$$$$$$$$$$$$$$$$$$$$$$$$$$$$$$$$$$$$$$$$$$$$$$$$$$$$$$$$$$$$$$$$$$$$$",
"$$$$$$$$$$$$$$$$$$$$$$$$$$$$$$$$$$$$$$$$$$$$$$$$$$$$$$$$$$$$$$$$$$$$$$$$$$$$$$$$$$$$$$$$$$$$$$$$",
"$$$$$$$$$$$$$$$$$$$$$$$$$$$$$$$$$$$$$$$$$$$$$$$$$$$$$$$$$$$$$$$$$$$$$$$$$$$$$$$$$$$$$$$$$$$$$$$$",
"$$$$$$$$$$$$$$$$$$$$$$$$$$$$$$$$$$$$$$$$$$$$$$$$$$$$$$$$$$$$$$$$$$$$$$$$$$$$$$$$$$$$$$$$$$$$$$$$",
"$$$$$$$$$$$$$$$$$$$$$$$$$$$$$$$$$$$$$$$$$$$$$$$$$$$$$$$$$$$$$$$$$$$$$$$$$$$$$$$$$$$$$$$$$$$$$$$$",
"$$$$$$$$$$$$$$$$$$$$$$$$$$$$$$$$$$$$$$$$$$$$$$$$$$$$$$$$$$$$$$$$$$$$$$$$$$$$$$$$$$$$$$$$$$$$$$$$",
"$$$$$$$$$$$$$$$$$$$$$$$$$$$$$$$$$$$$$$$$$$$$$$$$$$$$$$$$$$$$$$$$$$$$$$$$$$$$$$$$$$$$$$$$$$$$$$$$",
"$$$$$$$$$$$$$$$$$$$$$$$$$$$$$$$$$$$$$$$$$$$$$$$$$$$$$$$$$$$$$$$$$$$$$$$$$$$$$$$$$$$$$$$$$$$$$$$$"
};
