/* XPM */
static char *sprite_532_front[] = {
/* columns rows colors chars-per-pixel */
"96 96 16 1 ",
"  c #101010",
". c #5A3908",
"X c #6A3931",
"o c #7B5208",
"O c #5A4A4A",
"+ c #AC7308",
"@ c #833141",
"# c #94625A",
"$ c #C55A73",
"% c #DEB462",
"& c #EE7B8B",
"* c #9C8B83",
"= c #C5BDAC",
"- c #C5C5C5",
"; c white",
": c #000000",
/* pixels */
"::::::::::::::::::::::::::::::::::::::::::::::::::::::::::::::::::::::::::::::::::::::::::::::::",
"::::::::::::::::::::::::::::::::::::::::::::::::::::::::::::::::::::::::::::::::::::::::::::::::",
"::::::::::::::::::::::::::::::::::::::::::::::::::::::::::::::::::::::::::::::::::::::::::::::::",
"::::::::::::::::::::::::::::::::::::::::::::::::::::::::::::::::::::::::::::::::::::::::::::::::",
"::::::::::::::::::::::::::::::::::::::::::::::::::::::::::::::::::::::::::::::::::::::::::::::::",
"::::::::::::::::::::::::::::::::::::::::::::::::::::::::::::::::::::::::::::::::::::::::::::::::",
"::::::::::::::::::::::::::::::::::::::::::::::::::::::::::::::::::::::::::::::::::::::::::::::::",
"::::::::::::::::::::::::::::::::::::::::::::::::::::::::::::::::::::::::::::::::::::::::::::::::",
"::::::::::::::::::::::::::::::::::::::::::::::::::::::::::::::::::::::::::::::::::::::::::::::::",
"::::::::::::::::::::::::::::::::::::::::::::::::::::::::::::::::::::::::::::::::::::::::::::::::",
"::::::::::::::::::::::::::::::::::::::::::::::::::::::::::::::::::::::::::::::::::::::::::::::::",
"::::::::::::::::::::::::::::::::::::::::::::::::::::::::::::::::::::::::::::::::::::::::::::::::",
"::::::::::::::::::::::::::::::::::::::::::::::::::::::::::::::::::::::::::::::::::::::::::::::::",
"::::::::::::::::::::::::::::::::::::::::::::::::::::::::::::::::::::::::::::::::::::::::::::::::",
"::::::::::::::::::::::::::::::::::::::::::::::::::::::::::::::::::::::::::::::::::::::::::::::::",
"::::::::::::::::::::::::::::::::::::::::::::::::::::::::::::::::::::::::::::::::::::::::::::::::",
"::::::::::::::::::::::::::::::::::::::::::::::::::::::::::::::::::::::::::::::::::::::::::::::::",
"::::::::::::::::::::::::::::::::::::::::::::::::::::::::::::::::::::::::::::::::::::::::::::::::",
"::::::::::::::::::::::::::::::::::::::::::::::::::::::::::::::::::::::::::::::::::::::::::::::::",
"::::::::::::::::::::::::::::::::::::::::::::::::::::::::::::::::::::::::::::::::::::::::::::::::",
"::::::::::::::::::::::::::::::::::::::::::::::::::::::::::::::::::::::::::::::::::::::::::::::::",
"::::::::::::::::::::::::::::::::::::::::::::::::::::::::::::::::::::::::::::::::::::::::::::::::",
"::::::::::::::::::::::::::::::::::::::::::::::::::::::::::::::::::::::::::::::::::::::::::::::::",
"::::::::::::::::::::::::::::::::::::::::::::::::::::::::::::::::::::::::::::::::::::::::::::::::",
"::::::::::::::::::::::::::::::::::::::::::::::::::::::::::::::::::::::::::::::::::::::::::::::::",
"::::::::::::::::::::::::::::::::::::::::::::::::::::::::::::::::::::::::::::::::::::::::::::::::",
"::::::::::::::::::::::::::::::::::::::::::::::::::::::::::::::::::::::::::::::::::::::::::::::::",
":::::::::::::::::::::::::::::::::::::::::::::::OOOOOO:::::::::::::::::::::::::::::::::::::::::::",
":::::::::::::::::::::::::::::::::::::::::::::  ======OOO::::::::::::::::::::::::::::::::::::::::",
"::::::::::::::::::::::::::::::::::::::::::@@ ===========OOO:::::::::::::::::::::::::::::::::::::",
":::::::::::::::::::::::::::::::::::::::::@& ===============**:::::::::::::::::::::::::::::::::::",
"::::::::::::::::::::::::::::::::::::::::@&$@=================**:::::::::::::::::::::::::::::::::",
":::::::::::::::::::::::::::::::::::::::: &@====================O::::::::::::::::::::::::::::::::",
"::::::::::::::::::::::::::::::::::::::: @&$@====================O:::::::::::::::::::::::::::::::",
"::::::::::::::::::::::::::::::::::::::: =@&@========O===========O:::::::::::::::::::::::::::::::",
"::::::::::::::::::::::::::::::::::::::@@@&&&@====O===  =======  ::::::::::::::::::::::::::::::::",
"::::::::::::::::::::::::::::::::::::: &&&&&&&@===* ====       ::::::::::::::::::::::::::::::::::",
":::::::::::::::::::::::::::::::O***:: &@@@@&&&==== ======O::::::::::::::::::::::::::::::::::::::",
":::::::::::::::::::::::::::::::O===OO: @*==@@&== O- =====O::::::::::::::::::::::::::::::::::::::",
"::::::::::::::::::::::::::::::::O===*O ***===== O -O ====O::::::::::::::::::::::::::::::::::::::",
":::::::::::::::::::::::::::::::: ==*** ****===  ; ;O==== :::::::::::::::::::::::::::::::::::::::",
"::::::::::::::::::::::::::::::::: *****O*** ==   ;;O==== :::::::::::::::::::::::::::::::::::::::",
"::::::::::::::::::::::::::::::::::O**** **O ==O ;;O====  :::::::::::::::::::::::::::::::::::::::",
":::::::::::::::::::::::::::::::::::OO*   *O; *=OOO===== ::::::::::::::::::::::::::::::::::::::::",
"::::::::::::::::::::::::::::::::::::: &&@@*; O**======O:::::::::::::::::::::::::::::::::::::::::",
":::::::::::::::::::::::::::::::::::: &&&&&@O;  ***=X#  :::::::::::::::::::::::::::::::::::::::::",
"::::::::::::::::::::::::::::::::::: O*@&&&@****OO*X#### ::::::::::::::::::::::::::::::::::::::::",
":::::::::::::::::::::::::::::::::  =***$&&&@**     X## =O::........:::::::::::::::::::::::::::::",
":::::::::::::::::::::::::::::::OO====**@&&&@****$$*   .....++++o%%%...::::::::::::::::::::::::::",
":::::::::::::::::::::::::::::. ======**@&&@==***@$@oooooo++++++o%%%%+% :::::::::::::::::::::::::",
":::::::::::::::::::::::::...  ======   $$$@===== $@ooooo++++ooo.%%%%+% :::::::::::::::::::::::::",
"::::::::::::::::::::::::.++ =====   o $$$@====== @......oooo+++.%%%%%+ :::::::::::::::::::::::::",
"::::::::::::::::::::::::.ooo O=OO.....@  ======== ooooo+++++++++.%%%%% :::::::::::::::::::::::::",
"::::::::::::::::::::::::.+++++  oooooo ========== oooo++oooooooo%%%%%% :::::::::::::::::::::::::",
":::::::::::::::::::::::::.++++oo.....@@===========  ....++++++o%%%%%% ::::::::::::::::::::::::::",
":::::::::::::::::::::::::.ooo...oooo@&&@@==========@ +++++++ooo%%%%%% ::::::::::::::::::::::::::",
":::::::::::::::::::::::::.+++oooooo &&&$$@========@&& ++++oo++o%%%%%% ::::::::::::::::::::::::::",
"::::::::::::::::::::::::::......... $@@@$$$========&@ +++o++++.%%%%%% ::::::::::::::::::::::::::",
":::::::::::::::::::::::::::::::::: ====*@@===========* ........      :::::::::::::::::::::::::::",
":::::::::::::::::::::::::::::::::: *==***==========*** :::::::::::::::::::::::::::::::::::::::::",
":::::::::::::::::::::::::::::::::: *********====*****O :::::::::::::::::::::::::::::::::::::::::",
":::::::::::::::::::::::::::::::::: ********     ***** ::::::::::::::::::::::::::::::::::::::::::",
":::::::::::::::::::::::::::::::::::O****O  ::::OOO** :::::::::::::::::::::::::::::::::::::::::::",
"::::::::::::::::::::::::::::::::::: **** ::::::: ****O::::::::::::::::::::::::::::::::::::::::::",
":::::::::::::::::::::::::::::::::::O ** :::::::::  =O= :::::::::::::::::::::::::::::::::::::::::",
"::::::::::::::::::::::::::::::::::O***** ::::::::::   ::::::::::::::::::::::::::::::::::::::::::",
"::::::::::::::::::::::::::::::::: =O==  ::::::::::::::::::::::::::::::::::::::::::::::::::::::::",
"::::::::::::::::::::::::::::::::::    ::::::::::::::::::::::::::::::::::::::::::::::::::::::::::",
"::::::::::::::::::::::::::::::::::::::::::::::::::::::::::::::::::::::::::::::::::::::::::::::::",
"::::::::::::::::::::::::::::::::::::::::::::::::::::::::::::::::::::::::::::::::::::::::::::::::",
"::::::::::::::::::::::::::::::::::::::::::::::::::::::::::::::::::::::::::::::::::::::::::::::::",
"::::::::::::::::::::::::::::::::::::::::::::::::::::::::::::::::::::::::::::::::::::::::::::::::",
"::::::::::::::::::::::::::::::::::::::::::::::::::::::::::::::::::::::::::::::::::::::::::::::::",
"::::::::::::::::::::::::::::::::::::::::::::::::::::::::::::::::::::::::::::::::::::::::::::::::",
"::::::::::::::::::::::::::::::::::::::::::::::::::::::::::::::::::::::::::::::::::::::::::::::::",
"::::::::::::::::::::::::::::::::::::::::::::::::::::::::::::::::::::::::::::::::::::::::::::::::",
"::::::::::::::::::::::::::::::::::::::::::::::::::::::::::::::::::::::::::::::::::::::::::::::::",
"::::::::::::::::::::::::::::::::::::::::::::::::::::::::::::::::::::::::::::::::::::::::::::::::",
"::::::::::::::::::::::::::::::::::::::::::::::::::::::::::::::::::::::::::::::::::::::::::::::::",
"::::::::::::::::::::::::::::::::::::::::::::::::::::::::::::::::::::::::::::::::::::::::::::::::",
"::::::::::::::::::::::::::::::::::::::::::::::::::::::::::::::::::::::::::::::::::::::::::::::::",
"::::::::::::::::::::::::::::::::::::::::::::::::::::::::::::::::::::::::::::::::::::::::::::::::",
"::::::::::::::::::::::::::::::::::::::::::::::::::::::::::::::::::::::::::::::::::::::::::::::::",
"::::::::::::::::::::::::::::::::::::::::::::::::::::::::::::::::::::::::::::::::::::::::::::::::",
"::::::::::::::::::::::::::::::::::::::::::::::::::::::::::::::::::::::::::::::::::::::::::::::::",
"::::::::::::::::::::::::::::::::::::::::::::::::::::::::::::::::::::::::::::::::::::::::::::::::",
"::::::::::::::::::::::::::::::::::::::::::::::::::::::::::::::::::::::::::::::::::::::::::::::::",
"::::::::::::::::::::::::::::::::::::::::::::::::::::::::::::::::::::::::::::::::::::::::::::::::",
"::::::::::::::::::::::::::::::::::::::::::::::::::::::::::::::::::::::::::::::::::::::::::::::::",
"::::::::::::::::::::::::::::::::::::::::::::::::::::::::::::::::::::::::::::::::::::::::::::::::",
"::::::::::::::::::::::::::::::::::::::::::::::::::::::::::::::::::::::::::::::::::::::::::::::::",
"::::::::::::::::::::::::::::::::::::::::::::::::::::::::::::::::::::::::::::::::::::::::::::::::",
"::::::::::::::::::::::::::::::::::::::::::::::::::::::::::::::::::::::::::::::::::::::::::::::::",
"::::::::::::::::::::::::::::::::::::::::::::::::::::::::::::::::::::::::::::::::::::::::::::::::",
"::::::::::::::::::::::::::::::::::::::::::::::::::::::::::::::::::::::::::::::::::::::::::::::::",
"::::::::::::::::::::::::::::::::::::::::::::::::::::::::::::::::::::::::::::::::::::::::::::::::"
};
