/* XPM */
static char *sprite_350_front[] = {
/* columns rows colors chars-per-pixel */
"96 96 14 1 ",
"  c #010101",
". c #313131",
"X c #622929",
"o c #7B5252",
"O c #833939",
"+ c #B43952",
"@ c #E65262",
"# c #EE6A7B",
"$ c #087B9C",
"% c #39ACD5",
"& c #DEBD8B",
"* c #FFE6B4",
"= c #FFFFE6",
"- c None",
/* pixels */
"------------------------------------------------------------------------------------------------",
"------------------------------------------------------------------------------------------------",
"------------------------------------------------------------------------------------------------",
"------------------------------------------------------------------------------------------------",
"------------------------------------------------------------------------------------------------",
"------------------------------------------------------------------------------------------------",
"------------------------------------------------------------------------------------------------",
"------------------------------------------------------------------------------------------------",
"------------------------------------------------------------------------------------------------",
"------------------------------------------------------------------------------------------------",
"---------------------+@@@@----------------------------------------------------------------------",
"-------------------+@@....++--------------------------------------------------------------------",
"------------------+@..----..+----------------------@@@++----------------------------------------",
"-----------------+@.--------.+-------------------@@....@++--------------------------------------",
"-----------------+@.----------+-----oo----------@..----..@+-------------------------------------",
"----------------+@.----------------o**.---------.--------.@+------------------------------------",
"----------------+@.----------------o**.------------------.@.------------------------------------",
"----------------+@.----------------o**.------------------.@.------------------------------------",
"----------------+@.---------------o***.------------------.@.------------------------------------",
"----------------+@.---------------o***.-----------------.@.-------------------------------------",
"----------------+@.--------------o***&.-----------------.@.-------------------------------------",
"----------------+@.--------------o***&.----------------.@.--------------------------------------",
"-----------------+@.------------o****&.---------------+@.---------- ----------------------------",
"-----------------+@.------------o****&.-------------++@.----------.% ---------------------------",
"-----------------+@.-----------o****&&.------------+@@.-----------.% ---------------------------",
"------------------+@.---------o*****&&.----------++@..-----------.%%% ---------.. --------------",
"------------------+@.--------o******&&.---------+@@.-------------.%%% -------..%% --------------",
"-------------------+@.------X*==***&&&o--------+@..--------------.%%% ------.%%%% --------------",
"-------------------+@.------X====**&&&&o-----++@.---------------.%%%% ----..%%%% ---------------",
"--------------------+@.----+=====*&&++OO---++@@.----------------.%%%%% --.%%%%%% ---------------",
"---------------------+@.--+#*===**++##++O-+@@..-----------------.%%@%% -.%%%%%%% ---------------",
"---------------------+@@.+##*****+######..@ .-------------------.%@@%% .%%%%%%% ----------------",
"----------------------+&&.##****+####...@@ ---------------------.%@@%% %%%%@%%% ----... --------",
"-----------------------+**o#****+##..@@@  ---------------------.%@@@@% %%@@@%% --...%%% --------",
"-----------------------+***#***+#..&&&  +X---------------------.%@@@@% %@@@@%% ..%%%%%% --------",
"------------------------o******oo***. O++X---------------------.%@@@@% @@@@%% .%%%%%%% ---------",
"------------------------o&********  .&X++ ---------------------.%@@@%% @@@@%% %%%%%%%% ---------",
"-------------------------o******& = .&O++ ---------------------.$@@@% +@@@%% %%%%%%%% ----------",
"-------------------------o******    +&X++ ---------------------.$$++% +@@@% $%%@@@%%% ----------",
"-------------------------o*****..##+.&X++ ---------------------.$$+$$ ++@%$ $@@@@@%% -----------",
"-------------------------o******&...&&X++ ---------------------.$$$$ $++$$ $+@@@@%% .-----------",
"--------------------------.*****&&&&&&X+++ ---------------------.$$$ $$$$ $++@@@%% %%...--------",
"------------------------oo.****&&&&&&&X+++ ---------------------.$$ $$$$ $$+@@%%  @%%%%%..------",
"---------------------ooo&...**&&&&&o&&X+++ ---------------------.$$ $$  $$$$$%  @@@@@%%%% ------",
"-------------------oo&&&.$$$ &&&&  &&&X+++ ..--------------------.$$$ $$$$$   @@@@@@%%%% -------",
"-----------------oo&&&&.$$$$X    $o&&&X++++ $..------------------ $$$$$.   ++@@@@@%%%%  --------",
"---------------oo&&&&&&&..$X+++ $$o&&&&X+++ $$$..---------------- $$$  $$$$$++@%%%%%  ----------",
"--------------o&&&&&&&&&&&.X+++ $$o&&&&X++++ $$$..-------------- $$% --   $$$$%%%   ------------",
"-------------o&&&&&&&&&&&&&X++ $..o&&&&X++++ ....$.------------- $% ------       ---------------",
"------------o&&***&&&&&&&&X+++ .++o&&&&X#+++ ..$$$$.----------- $%% ----------------------------",
"-----------o&******&&&&&&&X+++ &.+o&&&&&X++++ $$$$$$.---------- $. -----------------------------",
"----------o&********&&&&&&X+++ &&.o&&&&&X#+++ $$$$....-------- $.. -----------------------------",
"----------o****=****&&&&&X+++   o.o&&&&&X#++++ $$...$.-------- ..% -----------------------------",
"---------o****=*****&&&  X+++ --o o&&&&&&X#+++ $..$$$$.------- .%% -----------------------------",
"---------o***==*****&  -X++++ ----o&&&&&&X#+++ $..$$$$.------- .%%..----------------------------",
"--------o***==*****& ---X#+#+ ----o***&&&X#++++ .$$$$$$.------- %%% ----------------------------",
"--------o***==***** ----X+#++ ---o&****&&X##++# .$$$$$$.------- %%%% ---------------------------",
"-------o***==****** ---+##+# ----o*****&&&X#+#+# $$$$$$$.------ $%%% ---------------------------",
"-------o***==***** ----+###+ ----o******&&X##+## $$$$$$$$.------ %%%. --------------------------",
"-------o***==***** ----+#### ----o******&&X#####+ .$$$$$$.------ .$%.. -------------------------",
"------o****==***** ---+##### ----o******&&&X#####+ ..$$$$$.------ ...%$ ------------------------",
"------o****==***** ---+##### ----o******&&&X###### .....$..------ $%..%$ -----------------------",
"------o****=******& -+#####+ ---o*******&&&X####### ++......------ %%.%$ -----------------------",
"------o****=******* -+##### ----o********&&&X###### +++++.$$.----- $%.$%$ ----------------------",
"------o************&+###### ----o********&&&X####### ++++..$.------ %%.%$$ ---------------------",
"------o*************+###### ---o**=******&&&&X####### +++..$$.----- %%..$$ ---------------------",
"------o************+####### ---o**=******&&&&&X#######  ++.$$$..--- %%...$. --------------------",
"------ ***********+#######+ --o***=******&&&&&X########+ +.$$$$$.  $%%.+.$. --------------------",
"------ **********+######## --o***==******&&&&&&X######### ..$$$$$..$$$.+...$ -------------------",
"------- ********+######### oo***===******&&&&&&X+######### .$$$$$$..$.+++.$$ -------------------",
"------- *******+##+###### *****===*******&&&&&& X##########  .$$$$$...+++.$$ -------------------",
"------- *******   +###### ****====*******&&&&&& -X#######+### .$$$$.++++++.$ -------------------",
"-------- ********+###+## *=======*******&&&&&&& -X###+####+   ..$$.+++++++.$ -------------------",
"-------- *******+### +## =======********&&&&&&& --X##+####+..$$...++++++++. --------------------",
"--------- ******+#+ *+# **====**********&&&&&&& --X###X  ##+.$$$.+++++++++. --------------------",
"--------- ******  +**  ****************&&&&&&& ----X##X--   .$$$$.+++++++. ---------------------",
"---------- ****************************&&&&&&& -----X#X-----  $$$$..++++. ----------------------",
"----------oo**************************&&&&&&&& ------XX-------   $$..++  -----------------------",
"----------- **************************&&&&&&& -------------------      -------------------------",
"------------ ************************&&&&&&&& --------------------------------------------------",
"------------- **********************&&&&&&&& ---------------------------------------------------",
"--------------  &****************&&&&&&&&&& ----------------------------------------------------",
"----------------  &&*********&&&&&&&&&&&&  -----------------------------------------------------",
"------------------   &&&&&&&&&&&&&&&&&&  -------------------------------------------------------",
"---------------------    &&&&&&&&&&    ---------------------------------------------------------",
"-------------------------          -------------------------------------------------------------",
"------------------------------------------------------------------------------------------------",
"------------------------------------------------------------------------------------------------",
"------------------------------------------------------------------------------------------------",
"------------------------------------------------------------------------------------------------",
"------------------------------------------------------------------------------------------------",
"------------------------------------------------------------------------------------------------",
"------------------------------------------------------------------------------------------------",
"------------------------------------------------------------------------------------------------",
"------------------------------------------------------------------------------------------------",
"------------------------------------------------------------------------------------------------"
};
