/* XPM */
static char *sprite_045_back[] = {
/* columns rows colors chars-per-pixel */
"96 96 16 1 ",
"  c #101010",
". c #731810",
"X c #18294A",
"o c #394162",
"O c #944A00",
"+ c #CD6218",
"@ c #9C3941",
"# c #DE4A5A",
"$ c #F67373",
"% c #FF8329",
"& c #5A6283",
"* c #7383A4",
"= c #F68B8B",
"- c #F6ACB4",
"; c #FFCDD5",
": c #000000",
/* pixels */
"::::::::::::::::::::::::::::::::::::::::::::::::::::::::::::::::::::::::::::::::::::::::::::::::",
"::::::::::::::::::::::::::::::::::::::::::::::::::::::::::::::::::::::::::::::::::::::::::::::::",
"::::::::::::::::::::::::::::::::::::::::::::::::::::::::::::::::::::::::::::::::::::::::::::::::",
"::::::::::::::::::::::::::::::::::::::::::::::::::::::::::::::::::::::::::::::::::::::::::::::::",
"::::::::::::::::::::::::::::::::::::::::::::::::::::::::::::::::::::::::::::::::::::::::::::::::",
"::::::::::::::::::::::::::::::::::::::::::::::::::::::::::::::::::::::::::::::::::::::::::::::::",
"::::::::::::::::::::::::::::::::::::::::::::::::::::::::::::::::::::::::::::::::::::::::::::::::",
"::::::::::::::::::::::::::::::::::::::::::::::::::::::::::::::::::::::::::::::::::::::::::::::::",
"::::::::::::::::::::::::::::::::::::::::::::::::::::::::::::::::::::::::::::::::::::::::::::::::",
"::::::::::::::::::::::::::::::::::::::::::::::::::::::::::::::::::::::::::::::::::::::::::::::::",
"::::::::::::::::::::::::::::::::::::::::::::::::::::::::::::::::::::::::::::::::::::::::::::::::",
"::::::::::::::::::::::::::::::::::::::::::::::::::::::::::::::::::::::::::::::::::::::::::::::::",
"::::::::::::::::::::::::::::::::::::::::::::::::::::::::::::::::::::::::::::::::::::::::::::::::",
"::::::::::::::::::::::::::::::::::::::::::::::::::::::::::::::::::::::::::::::::::::::::::::::::",
"::::::::::::::::::::::::::::::::::::::::::::::::::::::::::::::::::::::::::::::::::::::::::::::::",
"::::::::::::::::::::::::::::::::::::::::::::::::::::::::::::::::::::::::::::::::::::::::::::::::",
"::::::::::::::::::::::::::::::::::::::::::::::::::::::::::::::::::::::::::::::::::::::::::::::::",
"::::::::::::::::::::::::::::::::::::::::::::::::::::::::::::::::::::::::::::::::::::::::::::::::",
"::::::::::::::::::::::::::::::::::::::::::::::::::::::::::::::::::::::::::::::::::::::::::::::::",
"::::::::::::::::::::::::::::::::::::::::::::::::::::::::::::::::::::::::::::::::::::::::::::::::",
"::::::::::::::::::::::::::::::::::::::::::::::::::::::::::::::::::::::::::::::::::::::::::::::::",
"::::::::::::::::::::::::::::::::::::::::::::::::::::::::::::::::::::::::::::::::::::::::::::::::",
"::::::::::::::::::::::::::::::::::::::::::::::::::::::::::::::::::::::::::::::::::::::::::::::::",
"::::::::::::::::::::::::::::::::::::::::::::::::::::::::::::::::::::::::::::::::::::::::::::::::",
"::::::::::::::::::::::::::::::::::::::::::::::::::::::::::::::::::::::::::::::::::::::::::::::::",
":::::::::::::::::::::::::::::::::::::::::::::::...........::::::::::::::::::::::::::::::::::::::",
"::::::::::::::::::::::::::::::::::::::::::::...========;;-...:::::::::::::::::::::::::::::::::::",
"::::::::::::::::::::::::::::::::::::::::::..===;;$===$$$====$..:::::::::::::::::::::::::::::::::",
":::::::::::::::::::::::::::::::::::::::::.=$$$-;;-$$$###;;;===$.::::::::::::::::::::::::::::::::",
":::::::::::::::::::::::::::::::::........$=$###########-;;;==.....::::::::::::::::::::::::::::::",
"::::::::::::::::::::::::::::::...===$;-#..###OOOOOO######....-===-   :::::::::::::::::::::::::::",
":::::::::::::::::::::::::::...-;;-$$;;;###..O%%%%%%O.###..#-;;===;;;$  :::::::::::::::::::::::::",
":::::::::::::::::::::::::..#$-;;=$##-;###.O%+XXXXXX%%O#.####;-$====;-##  :::::::::::::::::::::::",
"::::::::::::::::::::::::.#$$====$#######.O%XXXXXXXXX%+.########$====$#### ::::::::::::::::::::::",
":::::::::::::::::::::::.##$=====$#######.%%oX+++++OX%%.########$===;-$#### :::::::::::::::::::::",
"::::::::::::::::::::::.##$=====;-######.O%%o++++++OX%%O.#######$==;;;$##-# :::::::::::::::::::::",
"::::::::::::::::::::::.##;====;;-######.O+%%OOOOOO%%++O.#####;-===-;$##-;## ::::::::::::::::::::",
":::::::::::::::::::::.##;;$===;;$##.....OO++%%%%%%++OOO.####;;-=====$##;;## ::::::::::::::::::::",
":::::::::::::::::::::.##;;=====....#####..OOOOOOOOO.......##-;$=====$##-### ::::::::::::::::::::",
"::::::::::::::::::::.@##--$$=..==$########..OO.....#######..#$=====;-#####@ ::::::::::::::::::::",
"::::::::::::::::::::.@#####..;-==$##########..#############$..===;;;######@ ::::::::::::::::::::",
":::::::::::::::::::: @####.$;;;===$########.############;-#$==..$-;-#####@@ ::::::::::::::::::::",
":::::::::::::::::::: @@##.#$$;-===$$;;-###.############-;-$=====.########@@ ::::::::::::::::::::",
"::::::::::::::::::::: @#.###$=======$;;#$#.$$####;-###$#$$====-$$.######@@ :::::::::::::::::::::",
"::::::::::::::::::::: @ ####$=========$$=.===$$#;;;#$$=$=====;;-##.###@@@@ :::::::::::::::::::::",
"::::::::::::::::::::::. ####-$===========.=====$-;$$=========;;###.#@@@@@ ::::::::::::::::::::::",
":::::::::::::::::::::: @###-;;$$==-;;====.==================$$#####.@@@  :::::::::::::::::::::::",
":::::::::::::::::::::: @###-;;;-$$$;;;==.====--========;;-$$#######.@  :::::::::::::::::::::::::",
":::::::::::::::::::::: @#####;-#####$$$$.$==-;;;==$$=-;;;-########@. :::::::::::::::::::::::::::",
":::::::::::::::::::::: @@###############.#$$#;;;-$###-;;;#########@ ::::::::::::::::::::::::::::",
"::::::::::::::::::::::: @@##############.#######################@@@ ::::::::::::::::::::::::::::",
"::::::::::::::::::::::: @@@@############.@####################@@@@ :::::::::::::::::::::::::::::",
":::::::::::::::::::::::: @@@@@##########@.@@################@@@@@ ::::::::::::::::::::::::::::::",
":::::::::::::::::::::::::  @@@@@@@####@@@.@@@@@##########@@@@@@  :::::::::::::::::::::::::::::::",
":::::::::::::::::::::::::::   @@@@@@@@@@@  @@@@@@@@@@@@@@@@@   :::::::::::::::::::::::::::::::::",
"::::::::::::::::::::::::::::::   @@@@@@  oo  @@@@@@@@@@@@   ::::::::::::::::::::::::::::::::::::",
":::::::::::::::::::::::::::::::::      oooooo            o :::::::::::::::::::::::::::::::::::::",
":::::::::::::::::::::::::::::::::::: ooooooooooooooooooooo :::::::::::::::::::::::::::::::::::::",
":::::::::::::::::::::::::::::::::::X ooooooooooooooooooooXXo::::::::::::::::::::::::::::::::::::",
"::::::::::::::::::::::::::::::::XXXo ooooooooooooooooooo&&&&oooo::::::::::::::::::::::::::::::::",
":::::::::::::::::::::::::::::::X&&oo &&ooooooooooooooo&&& &&&&&*X:::::::::::::::::::::::::::::::",
":::::::::::::::::::::::::::::::X&ooXXX&&&&oooooooo&&&&&&&&  &&&&X:::::::::::::::::::::::::::::::",
"::::::::::::::::::::::::::::::::XXX::X&&&&&&&&&&&&&&&&&&&o :    ::::::::::::::::::::::::::::::::",
":::::::::::::::::::::::::::::::::::::Xo&&&&&&&&&&&&&&&&ooX::::::::::::::::::::::::::::::::::::::",
"::::::::::::::::::::::::::::::::::::::Xooo&&&&&&&&&&ooooX:::::::::::::::::::::::::::::::::::::::",
":::::::::::::::::::::::::::::::::::::::XXoooooooooooooXX::::::::::::::::::::::::::::::::::::::::",
":::::::::::::::::::::::::::::::::::::::: XXoooooooXXXX::::::::::::::::::::::::::::::::::::::::::",
"::::::::::::::::::::::::::::::::::::::: ooXXXXXXXX oo ::::::::::::::::::::::::::::::::::::::::::",
":::::::::::::::::::::::::::::::::::::  oooX:::::::: ooXXX:::::::::::::::::::::::::::::::::::::::",
":::::::::::::::::::::::::::::::::::: &&ooX::::::::: oooo&XXX::::::::::::::::::::::::::::::::::::",
"::::::::::::::::::::::::::::::::::: &&oooX:::::::::: oooo&&* :::::::::::::::::::::::::::::::::::",
"::::::::::::::::::::::::::::::::::: oooXX::::::::::::  ooo&& :::::::::::::::::::::::::::::::::::",
":::::::::::::::::::::::::::::::::::: XX::::::::::::::::     ::::::::::::::::::::::::::::::::::::",
"::::::::::::::::::::::::::::::::::::::::::::::::::::::::::::::::::::::::::::::::::::::::::::::::",
"::::::::::::::::::::::::::::::::::::::::::::::::::::::::::::::::::::::::::::::::::::::::::::::::",
"::::::::::::::::::::::::::::::::::::::::::::::::::::::::::::::::::::::::::::::::::::::::::::::::",
"::::::::::::::::::::::::::::::::::::::::::::::::::::::::::::::::::::::::::::::::::::::::::::::::",
"::::::::::::::::::::::::::::::::::::::::::::::::::::::::::::::::::::::::::::::::::::::::::::::::",
"::::::::::::::::::::::::::::::::::::::::::::::::::::::::::::::::::::::::::::::::::::::::::::::::",
"::::::::::::::::::::::::::::::::::::::::::::::::::::::::::::::::::::::::::::::::::::::::::::::::",
"::::::::::::::::::::::::::::::::::::::::::::::::::::::::::::::::::::::::::::::::::::::::::::::::",
"::::::::::::::::::::::::::::::::::::::::::::::::::::::::::::::::::::::::::::::::::::::::::::::::",
"::::::::::::::::::::::::::::::::::::::::::::::::::::::::::::::::::::::::::::::::::::::::::::::::",
"::::::::::::::::::::::::::::::::::::::::::::::::::::::::::::::::::::::::::::::::::::::::::::::::",
"::::::::::::::::::::::::::::::::::::::::::::::::::::::::::::::::::::::::::::::::::::::::::::::::",
"::::::::::::::::::::::::::::::::::::::::::::::::::::::::::::::::::::::::::::::::::::::::::::::::",
"::::::::::::::::::::::::::::::::::::::::::::::::::::::::::::::::::::::::::::::::::::::::::::::::",
"::::::::::::::::::::::::::::::::::::::::::::::::::::::::::::::::::::::::::::::::::::::::::::::::",
"::::::::::::::::::::::::::::::::::::::::::::::::::::::::::::::::::::::::::::::::::::::::::::::::",
"::::::::::::::::::::::::::::::::::::::::::::::::::::::::::::::::::::::::::::::::::::::::::::::::",
"::::::::::::::::::::::::::::::::::::::::::::::::::::::::::::::::::::::::::::::::::::::::::::::::",
"::::::::::::::::::::::::::::::::::::::::::::::::::::::::::::::::::::::::::::::::::::::::::::::::",
"::::::::::::::::::::::::::::::::::::::::::::::::::::::::::::::::::::::::::::::::::::::::::::::::",
"::::::::::::::::::::::::::::::::::::::::::::::::::::::::::::::::::::::::::::::::::::::::::::::::",
"::::::::::::::::::::::::::::::::::::::::::::::::::::::::::::::::::::::::::::::::::::::::::::::::",
"::::::::::::::::::::::::::::::::::::::::::::::::::::::::::::::::::::::::::::::::::::::::::::::::"
};
