/* XPM */
static char *sprite_178_front[] = {
/* columns rows colors chars-per-pixel */
"96 96 16 1 ",
"  c #101010",
". c #296A29",
"X c gray32",
"o c #832900",
"O c #B43100",
"+ c #EE3900",
"@ c #8B5A00",
"# c #4A9441",
"$ c #73BD41",
"% c #B48B20",
"& c #FFBD31",
"* c #94D541",
"= c gray58",
"- c #CDCDCD",
"; c white",
": c #000000",
/* pixels */
"::::::::::::::::::::::::::::::::::::::::::::::::::::::::::::::::::::::::::::::::::::::::::::::::",
"::::::::::::::::::::::::::::::::::::::::::::::::::::::::::::::::::::::::::::::::::::::::::::::::",
"::::::::::::::::::::::::::::::::::::::::::::::::::::::::::::::::::::::::::::::::::::::::::::::::",
"::::::::::::::::::::::::::::::::::::::::::::::::::::::::::::::::::::::::::::::::::::::::::::::::",
"::::::::::::::::::::::::::::::::::::::::::::::::::::::::::::::::::::::::::::::::::::::::::::::::",
"::::::::::::::::::::::::::::::::::::::::::::::::::::::::::::::::::::::::::::::::::::::::::::::::",
"::::::::::::::::::::::::::::::::::::::::::::::::::::::::::::::::::::::::::::::::::::::::::::::::",
"::::::::::::::::::::::::::::::::::::::::::::::::::::::::::::::::::::::::::::::::::::::::::::::::",
"::::::::::::::::::::::::::::::::::::::::::::::::::::::::::::::::::::::::::::::::::::::::::::::::",
"::::::::::::::::::::::::::::::::::::::::::::::::::::::::::::::::::::::::::::::::::::::::::::::::",
"::::::::::::::::::::::::::::::::::::::::::::::::::::::::::::::::::::::::::::::::::::::::::::::::",
"::::::::::::::::::::::::::::::::::::::::::::::::::::::::::::::::::::::::::::::::::::::::::::::::",
"::::::::::::::::::::::::::::::::::::::::::::::::::::::::::::::::::::::::::::::::::::::::::::::::",
"::::::::::::::::::::::::::::::::::::::::::::::::::::::::::::::::::::::::::::::::::::::::::::::::",
"::::::::::::::::::::::::::::::::::::::::::::::::::::::::::::::::::::::::::::::::::::::::::::::::",
"::::::::::::::::::::::::::::::::::::::::::::::::::::::::::::::::::::::::::::::::::::::::::::::::",
"::::::::::::::::::::::::::::::::::::::::::::::::::::::::::::::::::::::::::::::::::::::::::::::::",
"::::::::::::::::::::::::::::::::::::::::::::::::::::::::::::::::::::::::::::::::::::::::::::::::",
"::::::::::::::::::::::::::::::::::::::::::::::::::::::::::::::::::::::::::::::::::::::::::::::::",
"::::::::::::::::::::::::::::::::::::::::::::::::::::::::::::::::::::::::::::::::::::::::::::::::",
"::::::::::::::::::::::::::::::::::::::::::::::::::::::::::::::::::::::::::::::::::::::::::::::::",
":::::::::::::::::::::::::::::::::::::::::::######:::::::::::::::::::::::::::::::::::::::::::::::",
":::::::::::::::::::::::::::::::::::::::::##******..:::::::::::::::::::::::::::::::::::::::::::::",
"::::::::::::::::::::::::::::::::::::::::#**********.::::::::::::::::::::::::::::::::::::::::::::",
":::::::::::::::::::::::::::::::::::::::#************.:::::::::::::::::::::::::::::::::::::::::::",
"::::::::::::::::::::::::::::::::::::::#**************.::::::::::::::::::::::::::::::::::::::::::",
":::::::::::::::::::::::::::::::::::::%%%%****#...$***.::::::::::::::::::::::::::::::::::::::::::",
":::::::::::::::::::::::::::::::::::%%&&&&@** ;=X .$***.:::::::::::::::::::::::::::::::::::::::::",
"::::::::::::::::::::::::::::::::::%&&&&&&%@*$.   ; ***.:::::::::::::::::::::::::::::::::::::::::",
":::::::::::::::::::::::::::::::::%&&&&&&%%@***#..#$**$ :::::::::::::::::::::::::::::::::::::::::",
":::::::::::::::::::::::::::::::::@&  @%%%@**********$# :::::::::::::::::::::::::::::::::::::::::",
":::::::::::::::::::::::::::::::::@@::.  @*********$### :::::::::::::::::::::::::::::::::::::::::",
"::::::::::::::::::::::::::::::::::::::.##$$****$##### ::::::::::::::::::::::::::::::::::::::::::",
"::::::::::::::::::::::::::::::::::::::.############## ::::::::::::::::::::::::::::::::::::::::::",
":::::::::::::::::::::::::::::::::::::::.############ o::::::::::::::::::::::::::::::::::::::::::",
"::::::::::::::::::::::::::::::::::::::::.########## OOo:::::::::::::::::::::::::::::::::::::::::",
":::::::::::::::::::::::::::::::::::::::::  .####.  :oOo:::::::::::::::::::::::::::::::::::::::::",
"::::::::::::::::::::::::::::::::::::::::::        :: OOo::::::::::::::::::::::::::::::::::::::::",
":::::::::::::::::::::::::::::::::::::::::          ::oOo::::::::::::::::::::::::::::::::::::::::",
"::::::::::::::::::::::::::::::::::::::::           :: OOo:::::::::::::::::::::::::::::::::::::::",
":::::::::::::::::::::::::::::::::::::::X .   .   X  ::oOo:::::::::::::::::::::::::::::::::::::::",
"::::::::::::::::::::::::::::::::::::::= .$. .#.  -X :: OOo::::::::::::::::::::::::::::::::::::::",
"::::::::::::::::::::::::::::::::::::::= $$$.###. --X ::oOo::::::::::::::::::::::::::::::::::::::",
":::::::::::::::::::::::::::::::::::::=;X+o###o+.;--- :: OOo:::::::::::::::::::::::::::::::::::::",
":::::::::::::::::::::::::::::::::::::=;X+o+#+o+X;OO- :: OOo:::::::::::::::::::::::::::::::::::::",
"::::::::::::::::::::::::::::::::::::=;;;X##$##X;-OOO- ::o++o::::::::::::::::::::::::::::::::::::",
"::::::::::::::::::::::::::::::::::::=;;;X$$$$=;;OO%OO :: ++o::::::::::::::::::::::::::::::::::::",
"::::::::::::::::::::::::::::::::::::=;;;;X$$=;;;OO%%O :: +++o:::::::::::::::::::::::::::::::::::",
":::::::::::::::::::::::::::::::::::=;;;;;;X=;;;;-OO%%O ::o++o:::::::::::::::::::::::::::::::::::",
":::::::::::::::::::::::::::::::::::=;;;;;;=;;;;;--OO%% :: +++o::::::::::::::::::::::::::::::::::",
":::::::::::::::::::::::::::::::::::=;;;;;;=;;;;;---OO% :: +++o::::::::::::::::::::::::::::::::::",
"::::::::::::::::::::::::::::::::::=;;;;;;;=;;;;----OOO ::: +++o:::::::::::::::::::::::::::::::::",
"::::::::::::::::::::::::::::::::::=;;;;;;=;;;;;-----O # :: +++o:::::::::::::::::::::::::::::::::",
"::::::::::::::::::::::::::::::::::=;;;;;;=;;;;------- % :: ++++o::::::::::::::::::::::::::::::::",
"::::::::::::::::::::::::::::::::::=;;;;;;=;;;;------- %.::: +++o::::::::::::::::::::::::::::::::",
"::::::::::::::::::::::::::::::::::=;;;;;;=;;;;------- ## :: +++o::::::::::::::::::::::::::::::::",
"::::::::::::::::::::::::::::::::::=;;;;;;=;;;------- ### :: ++++o:::::::::::::::::::::::::::::::",
":::::::::::::::::::::::::::::::::=;;;;;;;=;;------- ##%% ::: +++o:::::::::::::::::::::::::::::::",
":::::::::::::::::::::::::::::::::X;=;;;;;=;-------- %%%%.::: ++  :::::::::::::::::::::::::::::::",
":::::::::::::::::::::::::::::::::X;X;;=;;=--=---=-- %%%## ::o  :::::::::::::::::::::::::::::::::",
"::::::::::::::::::::::::::::::::: +o;;X;-X--X---X-- ##### ::::::::::::::::::::::::::::::::::::::",
"::::::::::::::::::::::::::::::::: +o++o--X--X---X-- ###%% ::::::::::::::::::::::::::::::::::::::",
"::::::::::::::::::::::::::::::::: +o++o++o++o+++o++ %%%%% ::::::::::::::::::::::::::::::::::::::",
"::::::::::::::::::::::::::::::::: X X+o++o++o+++o++ %%%## ::::::::::::::::::::::::::::::::::::::",
"::::::::::::::::::::::::::::::::: X XX XX XX XXX XX ###  :::::::::::::::::::::::::::::::::::::::",
"::::::::::::::::::::::::::::::::::   X XX XX XXX XX    :::::::::::::::::::::::::::::::::::::::::",
":::::::::::::::::::::::::::::::::::::              :::::::::::::::::::::::::::::::::::::::::::::",
"::::::::::::::::::::::::::::::::::::::::oO ::::: Oo:::::::::::::::::::::::::::::::::::::::::::::",
":::::::::::::::::::::::::::::::::::::ooooO  :::  Oo:::::::::::::::::::::::::::::::::::::::::::::",
"::::::::::::::::::::::::::::::::::Xoo++OOOO- : -OOOooo::::::::::::::::::::::::::::::::::::::::::",
"::::::::::::::::::::::::::::::::XX;-++++O    :   OO+++XX::::::::::::::::::::::::::::::::::::::::",
":::::::::::::::::::::::::::::::X;;;;-    ::::::::   ++;;XX::::::::::::::::::::::::::::::::::::::",
":::::::::::::::::::::::::::::::      :::::::::::::::   -;-X:::::::::::::::::::::::::::::::::::::",
":::::::::::::::::::::::::::::::::::::::::::::::::::::::   X:::::::::::::::::::::::::::::::::::::",
"::::::::::::::::::::::::::::::::::::::::::::::::::::::::::::::::::::::::::::::::::::::::::::::::",
"::::::::::::::::::::::::::::::::::::::::::::::::::::::::::::::::::::::::::::::::::::::::::::::::",
"::::::::::::::::::::::::::::::::::::::::::::::::::::::::::::::::::::::::::::::::::::::::::::::::",
"::::::::::::::::::::::::::::::::::::::::::::::::::::::::::::::::::::::::::::::::::::::::::::::::",
"::::::::::::::::::::::::::::::::::::::::::::::::::::::::::::::::::::::::::::::::::::::::::::::::",
"::::::::::::::::::::::::::::::::::::::::::::::::::::::::::::::::::::::::::::::::::::::::::::::::",
"::::::::::::::::::::::::::::::::::::::::::::::::::::::::::::::::::::::::::::::::::::::::::::::::",
"::::::::::::::::::::::::::::::::::::::::::::::::::::::::::::::::::::::::::::::::::::::::::::::::",
"::::::::::::::::::::::::::::::::::::::::::::::::::::::::::::::::::::::::::::::::::::::::::::::::",
"::::::::::::::::::::::::::::::::::::::::::::::::::::::::::::::::::::::::::::::::::::::::::::::::",
"::::::::::::::::::::::::::::::::::::::::::::::::::::::::::::::::::::::::::::::::::::::::::::::::",
"::::::::::::::::::::::::::::::::::::::::::::::::::::::::::::::::::::::::::::::::::::::::::::::::",
"::::::::::::::::::::::::::::::::::::::::::::::::::::::::::::::::::::::::::::::::::::::::::::::::",
"::::::::::::::::::::::::::::::::::::::::::::::::::::::::::::::::::::::::::::::::::::::::::::::::",
"::::::::::::::::::::::::::::::::::::::::::::::::::::::::::::::::::::::::::::::::::::::::::::::::",
"::::::::::::::::::::::::::::::::::::::::::::::::::::::::::::::::::::::::::::::::::::::::::::::::",
"::::::::::::::::::::::::::::::::::::::::::::::::::::::::::::::::::::::::::::::::::::::::::::::::",
"::::::::::::::::::::::::::::::::::::::::::::::::::::::::::::::::::::::::::::::::::::::::::::::::",
"::::::::::::::::::::::::::::::::::::::::::::::::::::::::::::::::::::::::::::::::::::::::::::::::",
"::::::::::::::::::::::::::::::::::::::::::::::::::::::::::::::::::::::::::::::::::::::::::::::::",
"::::::::::::::::::::::::::::::::::::::::::::::::::::::::::::::::::::::::::::::::::::::::::::::::",
"::::::::::::::::::::::::::::::::::::::::::::::::::::::::::::::::::::::::::::::::::::::::::::::::"
};
