/* XPM */
static char *sprite_019_back[] = {
/* columns rows colors chars-per-pixel */
"96 96 13 1 ",
"  c #101010",
". c #624A08",
"X c #4A2941",
"o c #5A5A5A",
"O c #A47308",
"+ c #E65A73",
"@ c #CDAC62",
"# c #8B4A8B",
"$ c #B473BD",
"% c #EEDEB4",
"& c #D59CD5",
"* c white",
"= c #000000",
/* pixels */
"================================================================================================",
"================================================================================================",
"================================================================================================",
"================================================================================================",
"================================================================================================",
"================================================================================================",
"================================================================================================",
"================================================================================================",
"================================================================================================",
"================================================================================================",
"================================================================================================",
"================================================================================================",
"================================================================================================",
"================================================================================================",
"================================================================================================",
"================================================================================================",
"================================================================================================",
"================================================================================================",
"================================================================================================",
"================================================================================================",
"================================================================================================",
"================================================================================================",
"================================================================================================",
"================================================================================================",
"===============================###==============================================================",
"==============================#&&&#=============================================================",
"=============================#&&&$$#============================================================",
"=============================#$$$$$X============================================================",
"============================#$$$X$##X===========================================================",
"============================#$$X$X##X===========================================================",
"============================#$$X$X## ===========================================================",
"===========================#$$#X###X============================================================",
"===========================#$$ X### ============================================================",
"===========================#$$ =   =============================================================",
"===========================X$# =================================================================",
"===========================X## =================================================================",
"===========================X## ==============##===========##====================================",
"=========================== ## =============#&&#=========#&&#===================================",
"=========================== ## ============#&&$$X=###$$=X&&$$X==================================",
"============================ # ============#$$##X#&&&&&$X&$##X==================================",
"============================ ## ==========#$$##X&&&&&&$X$$####X=================================",
"============================ ## ==========#$##X&&&&&$##X$#####X=================================",
"============================= # ==========X###X$&&$########### =================================",
"============================= ## =========X##X################ X================================",
"============================== # =====##XX=X#X################ #XOOOOO==========================",
"============================== ## ==X#&&&&#XXX###########X### .OO%%%%%.=========================",
"=============================== ## X$&&&&&&$##XXX#########   @@%%%.....=========================",
"================================ ##X#&&&&&&&$############O@@@O....==============================",
"================================= ####$&&&$#############O@@@@@  ================================",
"================================= X#####################O@@@@.* ================================",
"================================= #####################X@@@@.**o================================",
"================================X#######################X@@@ o*o================================",
"===============================XX#XOO##X#################X@ =o =================================",
"=============================XX###X@@OOX######XOOX#######X@ ====================================",
"============================X#####X@@@@X######X@@@X######$X=====================================",
"===========================X#+##### @@X#######X@    #####$$ ====================================",
"==========================.#++###### XX######X  #X==  ####$X..==================================",
"=========================.@####      ######## ###X.=== #####@%.=================================",
"=======================..@%### ==== ######## XX##@@ ===  ##@@. =================================",
"======================= %%.%@ ===== #####   == @@.  ===== @@.%@.================================",
"========================  @@ ===== #+### ======   ========  @.  ================================",
"==========================  ====== #+## ====================  ==================================",
"================================== ###@.========================================================",
"=================================== @@O@.=======================================================",
"====================================  .O.=======================================================",
"======================================   =======================================================",
"================================================================================================",
"================================================================================================",
"================================================================================================",
"================================================================================================",
"================================================================================================",
"================================================================================================",
"================================================================================================",
"================================================================================================",
"================================================================================================",
"================================================================================================",
"================================================================================================",
"================================================================================================",
"================================================================================================",
"================================================================================================",
"================================================================================================",
"================================================================================================",
"================================================================================================",
"================================================================================================",
"================================================================================================",
"================================================================================================",
"================================================================================================",
"================================================================================================",
"================================================================================================",
"================================================================================================",
"================================================================================================",
"================================================================================================",
"================================================================================================",
"================================================================================================",
"================================================================================================",
"================================================================================================"
};
