/* XPM */
static char *sprite_358_back[] = {
/* columns rows colors chars-per-pixel */
"96 96 14 1 ",
"  c #010101",
". c #7B2941",
"X c #414A6A",
"o c #B4415A",
"O c #A47352",
"+ c #F6527B",
"@ c #E6A44A",
"# c #FFD55A",
"$ c #6A94B4",
"% c #FFE694",
"& c #9CC5E6",
"* c #C5E6FF",
"= c white",
"- c #000000",
/* pixels */
"------------------------------------------------------------------------------------------------",
"------------------------------------------------------------------------------------------------",
"------------------------------------------------------------------------------------------------",
"------------------------------------------------------------------------------------------------",
"------------------------------------------------------------------------------------------------",
"------------------------------------------------------------------------------------------------",
"------------------------------------------------------------------------------------------------",
"------------------------------------------------------------------------------------------------",
"------------------------------------------------------------------------------------------------",
"------------------------------------------------------------------------------------------------",
"------------------------------------------------------------------------------------------------",
"------------------------------------------------------------------------------------------------",
"------------------------------------------------------------------------------------------------",
"------------------------------------------------------------------------------------------------",
"------------------------------------------------------------------------------------------------",
"------------------------------------------------------------------------------------------------",
"------------------------------------------------------------------------------------------------",
"------------------------------------------------------------------------------------------------",
"---------------------------------------------OOOO-----------------------------------------------",
"------------------------------------------- O@##%@O---------------------------------------------",
"------------------------------------------ @@@@@#==O--------------------------------------------",
"----------------------------------------- @@@@@@@#=%O-------------------------------------------",
"----------------------------------------- @@@@@@@@#%O-------------------------------------------",
"----------------------------------------- @@@@@@@@@#O-------------------------------------------",
"------------------------------------------ @@@@@@@@ --------------------------------------------",
"------------------------------------------- O@@@@O ---------------------------------------------",
"--------------------------------------------- OO -----------------------------------------------",
"-------------------------------------------XXX@@XXX---------------------------------------------",
"-----------------------------------------  ***OO&&*XX-------------------------------------------",
"---------------------------------------- &***&&&&*==*X------------------------------------------",
"--------------------------------------- &&&&&&&&&&*==*X-----------------------------------------",
"--------------------------------------- &&&&&&&&&&&&*=X-----------------------------------------",
"-------------------------------------- o&&&&&&&&&&&&&*+.----------------------------------------",
"-------------------------------------- oo&&&ooo&&&oo&++.----------------------------------------",
"-------------------------------------- &oooooooo&ooooo+.----------------------------------------",
"-------------------------------------- &oooo&&oooooooo&$X---------------------------------------",
"--------------------------------------- &oo&&&&ooooo&&$&*X--------------------------------------",
"--------------------------------------- $*&&&&&&oo&&&&$**X--------------------------------------",
"----------------------------------------X**&$$&&&&&&&XX  ---------------------------------------",
"----------------------------------------X&& X&&&&&$XX-------------------------------------------",
"-----------------------------------------  -X      ---------------------------------------------",
"----------------------------------------------X&$-----------------------------------------------",
"----------------------------------------------X&$-----------------------------------------------",
"--------------------------------------------XX$&&$$$--------------------------------------------",
"-------------------------------------------X$$$$$&&*$-------------------------------------------",
"-------------------------------------------X$$$$$$$*$-------------------------------------------",
"-------------------------------------------X$$$$$$$*$-------------------------------------------",
"-------------------------------------------X$$$$$$$*$-------------------------------------------",
"-------------------------------------------X$$$$$$$*$-------------------------------------------",
"-------------------------------------------X$$$$$$$&*$------------------------------------------",
"-------------------------------------------X$$$$$$$$*$------------------------------------------",
"--------------------------------------------X$$$$$$$*$------------------------------------------",
"--------------------------------------------X$$$$$$$&X------------------------------------------",
"--------------------------------------------X$$$$$$$&X------------------------------------------",
"--------------------------------------------X$$$$$$$&X------------------------------------------",
"--------------------------------------------X$$$$$$$&&X-----------------------------------------",
"--------------------------------------------X$$$$$$$$&X-----------------------------------------",
"--------------------------------------------X$$$$$$$$&X-----------------------------------------",
"--------------------------------------------.o$$$$$$$&X-----------------------------------------",
"--------------------------------------------.oo$$$$$$&X-----------------------------------------",
"--------------------------------------------.ooo$$$$$&X-----------------------------------------",
"--------------------------------------------.oo$$$$$$&X-----------------------------------------",
"--------------------------------------------.oo$$$$$$&&X----------------------------------------",
"--------------------------------------------.o$$$oo$$$&.----------------------------------------",
"-------------------------------------------.oo$$$oo$$$&.----------------------------------------",
"-------------------------------------------.oooooooo$$+.----------------------------------------",
"-------------------------------------------.oooooooooo+.----------------------------------------",
"-------------------------------------------.oooooooooo++.---------------------------------------",
"-------------------------------------------.ooooooooooo+.---------------------------------------",
"------------------------------------------.oooooooooooo+.---------------------------------------",
"------------------------------------------.oooooooooooo+.---------------------------------------",
"------------------------------------------.ooooooooooooo+.--------------------------------------",
"-----------------------------------------.oooooooooooooo+.--------------------------------------",
"-----------------------------------------.oooooooooooo .o.--------------------------------------",
"------------------------------------------ ooo    oo. --..--------------------------------------",
"-------------------------------------------   ----  .-------------------------------------------",
"------------------------------------------------------------------------------------------------",
"------------------------------------------------------------------------------------------------",
"------------------------------------------------------------------------------------------------",
"------------------------------------------------------------------------------------------------",
"------------------------------------------------------------------------------------------------",
"------------------------------------------------------------------------------------------------",
"------------------------------------------------------------------------------------------------",
"------------------------------------------------------------------------------------------------",
"------------------------------------------------------------------------------------------------",
"------------------------------------------------------------------------------------------------",
"------------------------------------------------------------------------------------------------",
"------------------------------------------------------------------------------------------------",
"------------------------------------------------------------------------------------------------",
"------------------------------------------------------------------------------------------------",
"------------------------------------------------------------------------------------------------",
"------------------------------------------------------------------------------------------------",
"------------------------------------------------------------------------------------------------",
"------------------------------------------------------------------------------------------------",
"------------------------------------------------------------------------------------------------",
"------------------------------------------------------------------------------------------------"
};
