/* XPM */
static char *sprite_031_front[] = {
/* columns rows colors chars-per-pixel */
"96 96 12 1 ",
"  c #101010",
". c #735A29",
"X c #314A4A",
"o c #BDAC5A",
"O c #628BAC",
"+ c #5AB4CD",
"@ c #E6CD8B",
"# c #EEE6A4",
"$ c #9CD5DE",
"% c #D5D5D5",
"& c white",
"* c None",
/* pixels */
"************************************************************************************************",
"************************************************************************************************",
"************************************************************************************************",
"************************************************************************************************",
"************************************************************************************************",
"************************************************************************************************",
"************************************************************************************************",
"************************************************************************************************",
"************************************************************************************************",
"************************************************************************************************",
"************************************************************************************************",
"************************************************************************************************",
"************************************************************************************************",
"*******************************************************OXXXX************************************",
"****************************************************OOO+++++X***********************************",
"******************************************XX**OO**OO+++++++X************************************",
"******************************OO********XO+OXO$X*O++++++++X*************************************",
"******************************X$OX*****X++OOX$+OX++++XXX++X*************************************",
"******************************X+$$XX**XXXXXX+++X+++  oooX++O************************************",
"*******************************X+$$$XX++++++OO+O++ ...oooO+X************************************",
"*******************************X++$$$+++++++++X++ .....ooX+X************************************",
"********************************X++$$$++++++++O+ ......ooX+ ************************************",
"********************************O+$$$$O$++XXO+++X......ooX+ ************************************",
"*******************************O$$$$$O$$OO&%X+++.......ooO+ ************************************",
"*******************************O$$$$$+$X  .&X++++.....ooO+ *************************************",
"******************************O$$$$$$+X.&  &O+++++....XO++ *************************************",
"******************************O$$O$$++++OOOO+++++++   ++O **************************************",
"*****************************O$$O+++++++++++++++++++++++ ***************************************",
"*****************************X++++++++++++++++++++++++  ****************************************",
"*****************************X+++OX   XO+++++++++++O  XX****************************************",
"******************************++XX@@@@@@ XOO...++++OOOOX****************************************",
"******************************X @@@@@@@@@@@@@@@.++OOOOOOX***************************************",
"********************************.@@@@@@@@@@@@@@@.+OOOOOOX***************************************",
"********************************.@@@@@@@@@@@@@@@ OOOOOOOOX**************************************",
"*********************************.@@@@@@@@@@@@@@ OOOOOOOOX**************************************",
"**********************************.@@@@@@@@@@@@.OOOOOOOOOOX*************************************",
"***********************************..@@@@@@@@  OOOOOOOOOOOX*************************************",
"*************************************......  OOOOOOOOOOOOOOX  **********************************",
"************************************XXXOOOOOOOOOOOOOOOOOOOOXOOXX********************************",
"**********************************OO$OOXOOOOOOOOOOOOOOOOOOOOXOOOX*****XXXXXX********************",
"*********************************O$$$+OOXOOOOOOOOOOOOOOOOOOOXOOOXX**XX++++++X ******************",
"********************OOOOXXXX****O+$$+++OOXOOOOOOOOOOOOOOOOOOOXOOO XXOOOO+++++OXXX***************",
"******************OO$$$$$$$$XXX XO+++++OO OOOOOOOOOOOOOOOOOOOXOOO OOXOOOO++++OO%& **************",
"*****************O$$$OO++++++++X +X++++OO O++++++++++OOOOOOOOOXOO OOOXOOOO++OOOX%&**************",
"****************O+$$O%%O+++++++OX++X+++OO +++++++++++++OOOOOOOXOOXOOO OOOOOOOOOX  **************",
"***************X&&O+X&%O+++++++OOX+X++OOOX.+++++++++++++OOOO..XOXOOOO OOOOOOOOO ****************",
"***************X&%XOX&OX+++++OOOOXOOXOOOXoo.+++++++++++++OO.oo.XOOOOOXOOOOOOOOO%X***************",
"***************X& OOX  OXXOOOOOOOXOOOXXXoo@@...++++++++++O.@@oo. OOOOXOOOOOOOOO%& **************",
"**************** OOOOOOOOOOOOOOOOXOOO  oo@#####..+++++++..###@o.* OO OOOOOOOOOO   **************",
"**************** XOOOOOOOOOOOOOOO    O.oo@@######.+++++.#####@oo.*  OOOOOOOOO  *****************",
"****************X%%XOOOOOOOOOOOO * OOO ooo#@#@###@.++++.#####@oo ***  OOOOO  *******************",
"****************X%  OOOOOOOOOO  ** OOO ooo@#@#@##@.+++.@####@ooo *****    **********************",
"****************X **  OOOOOO  ***XOOOO.oooo@@@@@@@.+++.@@@@@oooo *******************************",
"**********************      *****XOOOOO ooooo@@@@@ +++ @@@@@oooo *******************************",
"*********************************XOOO++ oooooooooo +++ ooooooooo *******************************",
"********************************XOXO++++.oooooooo +++++ ooooooo.********************************",
"*****************************XXXXX+++++++. oooo  +++++++. oooo.   ******************************",
"*******************OX*****XXX++X+++++++++++    ++++++++++O   .O OO *****************************",
"******************O$+X*XXX++++X+$$+++++++++++++++++++++++OOOOOO OOOX****************************",
"******************X$++X++++++X+$$$$+++Ooo+++++++++++++++OOOOOO OOOOX****************************",
"******************X$+X+$$++++X$$$$$++OOO@ooo++++++++++++OOOO.. OOOOOX***************************",
"*****************OX+X+$$$$++X+$$$$+++XOOX@##oooo+++++++OO...oo OOOOO ***************************",
"**************OOO$$+X$$$$$++X+$$$+++OXOOO@######ooo......oooo OOOOOO ***************************",
"*********OOOOO$$O$$X+$$$$+++X++++++OXOOOOX@########@@oooooooo XXOOOO X**************************",
"********O$$$$$$O$$+X+$$$++++X+++++OX+OOOOX@@#####@@@oooooooo OOOX   OX**************************",
"********X+$$$$O$+++X+++++++X+XXOOO+++OOOOOX.@@@@@@ooooooooo. OOOOOOOOX**************************",
"********XOO+++O++++X++++++OX++++++++OOOOOO o...oooooooooo.. OOOOOOOOX***************************",
"*********XOOO+X+++X++++++OOX+++++++OOOOOOO oooo..      ..o OOOOOOOOO ***************************",
"**********  OOXOOOXOOOOOOOOXO+++++OOOOOOOO oooooooooooooo X OOOOOOO ****************************",
"************   XOOXOOOOOOOO OOOOOOOOOOOOOO oooooooooooo  OOOXOOOOOX*****************************",
"***************   XOOOOOOOO OOOOOOOOOOOOOX  .ooooooo   OOOOOO XOOX *****************************",
"*******************  OOOOOOXXOOOOOOOX  XO OOO.      * OOOOOOOO   OO ****************************",
"*********************   OOOOXXOOOXXXOOOO  O   ******* OOOOOOOOOOOOOOX***************************",
"************************   XOXXXX+++OOOOO  ********** XOOOOOOOOXXXOO%X**************************",
"**************************XO+++++++++OOOO ************     OOOX&&&XX%% *************************",
"*************************X+++++++++++OOO ******************   %%&&&    *************************",
"*************************OO++OO++++++OOO *********************      ****************************",
"************************O&&XOOO+OO++OOO ********************************************************",
"***********************O&&&XOOOO&&XOO  *********************************************************",
"***********************       O&&%   ***********************************************************",
"******************************X%% **************************************************************",
"******************************   ***************************************************************",
"************************************************************************************************",
"************************************************************************************************",
"************************************************************************************************",
"************************************************************************************************",
"************************************************************************************************",
"************************************************************************************************",
"************************************************************************************************",
"************************************************************************************************",
"************************************************************************************************",
"************************************************************************************************",
"************************************************************************************************",
"************************************************************************************************",
"************************************************************************************************",
"************************************************************************************************"
};
