/* XPM */
static char *sprite_428_front[] = {
/* columns rows colors chars-per-pixel */
"96 96 13 1 ",
"  c #101010",
". c #523939",
"X c #7B3941",
"o c #624A41",
"O c #8B5A41",
"+ c #836A5A",
"@ c #B47B4A",
"# c #EE5A4A",
"$ c #C55A7B",
"% c #C5A47B",
"& c #EEDEA4",
"* c white",
"= c None",
/* pixels */
"================================================================================================",
"================================================================================================",
"================================================================================================",
"================================================================================================",
"================================================================================================",
"================================================================================================",
"================================================================================================",
"================================================================================================",
"================================================================================================",
"================================================================================================",
"================================================================================================",
"================================================================================================",
"================================================================================================",
"================================================================================================",
"================================================================================================",
"================================================================================================",
"================================================================================================",
"================================================================================================",
"===================================+============================================================",
"==================================+& =====...=  ================================================",
"==================================+& ===..@@@.@@ ===============================================",
"==================================+&+==.@@@@.@@@@ ====+++=======================================",
"=================================+&&& .@@O@O@@@@@O =++&& =======================================",
"=================================+&&& @@.@@.@@O@@@++&&&& =======================================",
"================================= &&& @O.@O@@@.@@+&&&&& ========================================",
"================================= &&& OOO@.@@X.O+&&&&&% ========================================",
"================================= &&&+O.@@.@@X$.&&&&&& =========================================",
"================================= &&&&O.@O@@X$ &&&&&& .=========================================",
"=================================.%&&&O.@.@@X$&&&&&& OO.========================================",
"================================.@ &&&O.@.@@$%&&&&% OOOO =======================================",
"================================ @ &&&.O@.@@ &&&&ooOOOOO.=======================================",
"===============================.@.%%&&@@OO@ &&&&%&& OOOOO ======================================",
"=============================== @.&+&&@O@@@ &&&&&& OOOOOO ======================================",
"==============================.@@@.&&O@@@@ &&&&&+ %.OOOOOO =====================================",
"============================== @@@.+&O@@@@ &&&+  %%.OOOOOO +====================================",
"=============================.@@@@O.+@@@@@+++@OOOo%%.OOOOOO +===================================",
"============================= @@@@.*@@@@@@@@@@OOO %%.OOOOOO %+==================================",
"============================= @@@@X @@@@@@@@O*#OO &%%.OOOOO.%%==================================",
"============================ @@@@.X#@@@@@@@O. #OO &&&%OOOOOO %+=================================",
"============================ @@@.%%X@@@@@@@.# #OOo&&&&.OOOOO %%+================================",
"============================ @O.%%&OO@@@@@O. #OOO o&&&&.OOOO.%%%================================",
"===========================+&.O&&&&& ##OOOOOOOO. =o&&&&&.OOOO %%+===============================",
"===========================+&&&&&&&&& XOOO.OO.  == &&&&&&..OO %&&o==============================",
"==========================+&&&&&&&&&&&&.  ... ==== &&&&&&&&.. &&&+==============================",
"==========================+&&&&&&&&&&..+=== O =====o&&&&&&&&&&&&&&o=============================",
"=========================+&&&&&&&&&%.O.&+..&&+ ==== &&&&&&&&&&&&&&o=============================",
"=========================+&&&&&&&&%&O..&&.O.&&& === &&&&&&&&&&&&&&&o============================",
"========================+%&&&&&&&+&&.O.&.O.O.&&%+===o&&&&&&&&&&&&&%o============================",
"========================+&&&&&&&&+%&&&&&..O.&&&% ===o&&&&&&&&&&&&&&%o===========================",
"========================o&&&&&&&&+%%%%&&&&&&&&%% ===o&&&&&&&&&&&&&%&o===========================",
"=======================o%&&&&&&&&& %+%%%%%%%+%% ====oo&&&&&&&&&&&&&%%o==========================",
"=======================o%%&&&&&&&& OOO%%+%%+O..======o&&&&&&&&&&&&%&%o==========================",
"=======================o%%%%&&&&&&% OO..OOOOO. ====== &&&&&&&&&&&%&%%%o=========================",
"======================o%%%%%%%%%&%& .OO.OOOOOO ====== %&&&&&&&&&&&%%%%o=========================",
"====================== %%%%%%%%&%&%%  OO .OO.OO ===   o%&&&&&&&&&%%%%%o=========================",
"====================== %%%%%%%%%&%&%%o  .   OOOO = O@@ %%%&&&&&%%%%%%%% ========================",
"======================o%%%%%%%%%%%%%%o== OOOO@@OO OO@@ %%%%%%%%%%%%%%%%% =======================",
"=====================o%%%%%%%%%%%%%%+ ===.@@@@O@@@ OOO o%%%%%%%%%%%%%%%% =======================",
"====================o%%%%%%%%%%%%%%%%+ =  @@@.@@@@@.OOO %%%%%%%%%%%%%%%% =======================",
"==================== %%%%%%%%%%%%%%%%% =.O.@OO@@@@@ OO  %%%%%%%%%%%%%+% ========================",
"==================== %%%%%%%%%%%%%%%%%  OOO .@@@@@@@..== %%%%%%%%%%%%%+ ========================",
"===================== %%+%%%%%%%%%%%%%  OOOO.@@@@@@@.===o+%%%%%%%%%%%% =========================",
"======================  %%%%%%%%%%+%% = OOOO.@@@@@@@.=== %%%%%%%%%%+%+o=========================",
"======================= %%%%%+%%%%   == OOOO.@@@@@@@.=== %%%%%%%%%%o o==========================",
"========================+%%%+ %%%+ ==== OOOO.@@@@@@.===== %%%+%%%%% ============================",
"=========================   ==    ======.OOO.O@@@@@ ======   o%%%% =============================",
"=======================================. OOOO.@@@@ ===========o   ==============================",
"======================================.% OOO..O@@O& ============================================",
"======================================.%.OOO .O@O&& ============================================",
"======================================.%+OO%%.&.O&%& ===========================================",
"=======================================.%%%%%.&.&&&& ===========================================",
"========================================.%%% .&&&&  ============================================",
"========================================.%%%+&&&&% =============================================",
"======================================== %%++&&%% ==============================================",
"======================================== %%+ %%%% ==============================================",
"======================================== %%  %%%+ ==============================================",
"======================================= %%%  %%% ===============================================",
"======================================= %%+ %%%+ ===============================================",
"========================================    +%% ================================================",
"============================================   =================================================",
"================================================================================================",
"================================================================================================",
"================================================================================================",
"================================================================================================",
"================================================================================================",
"================================================================================================",
"================================================================================================",
"================================================================================================",
"================================================================================================",
"================================================================================================",
"================================================================================================",
"================================================================================================",
"================================================================================================",
"================================================================================================",
"================================================================================================",
"================================================================================================"
};
