/* XPM */
static char *sprite_432_front[] = {
/* columns rows colors chars-per-pixel */
"96 96 16 1 ",
"  c #101010",
". c #52396A",
"X c #414152",
"o c #525A62",
"O c #ACA473",
"+ c #FFE662",
"@ c #6A7383",
"# c #7B5AA4",
"$ c #D5528B",
"% c #FF7B9C",
"& c #8394B4",
"* c #9C9CBD",
"= c #A4ACC5",
"- c #CDCDDE",
"; c #EEFFFF",
": c #000000",
/* pixels */
"::::::::::::::::::::::::::::::::::::::::::::::::::::::::::::::::::::::::::::::::::::::::::::::::",
"::::::::::::::::::::::::::::::::::::::::::::::::::::::::::::::::::::::::::::::::::::::::::::::::",
"::::::::::::::::::::::::::::::::::::::::::::::::::::::::::::::::::::::::::::::::::::::::::::::::",
"::::::::::::::::::::::::::::::::::::::::::::::::::::::::::::::::::::::::::::::::::::::::::::::::",
"::::::::::::::::::::::::::::::::::::::::::::::::::::::::::::::::::::::::::::::::::::::::::::::::",
"::::::::::::::::::::::::::::::::::::::::::::::::::::::::::::::::::::::::::::::::::::::::::::::::",
"::::::::::::::::::::::::::::::::::::::::::::::::::::::::::::::::::::::::::::::::::::::::::::::::",
"::::::::::::::::::::::::::::::::::::::::::::::::::::::::::::::::::::::::::::::::::::::::::::::::",
"::::::::::::::::::::::::::::::::::::::::::::::::::::::::::::::::::::::::::::::::::::::::::::::::",
"::::::::::::::::::::::::::::::::::::::::::::::::::::::::::::::::::::::::::::::::::::::::::::::::",
"::::::::::::::::::::::::::::::::::::::::::::::::::::::::::::::::::::::::::::::::::::::::::::::::",
"::::::::::::::::::::::::::::::::::::::::::::::::::::::::::::::::::::::::::::::::::::::::::::::::",
"::::::::::::::::::::::::::::::::::::::::::::::::::::::::::::::::::::::::::::::::::::::::::::::::",
"::::::::::::::::::::::::::::::::::::::::::::::::::::::::::::::::::::::::::::::::::::::::::::::::",
"::::::::::::::::::::::::::::::::::::::::::::::::::::::::::::::::::::::::::::::::::::::::::::::::",
"::::::::::::::::::::::::::::::::::::::::::::::::::::::::::::::::::::::::::::::::::::::::::::::::",
"::::::::::::::::::::::::::::::::::::::::::::::::::::::::::::::::::::::::::::::::::::::::::::::::",
"::::::::::::::::::::::::::::::::::::::::::::::::::::::::::::::::::::::::::::::::::::::::::::::::",
"::::::::::::::::::::::::::::::::::::::::::::::::::::::::::::::::::::::::::::::::::::::::::::::::",
":::::::::::::::::::::::::::::  :::::::::::::::::::::::::::::::::::::::::::::::::::::::::::::::::",
":::::::::::::::::::::::::::: ##  ::::::::::::::::::::::::::::::   ::::::::::::::::::::::::::::::",
":::::::::::::::::::::::::::: ##.# ::::::::::::::::::::::::::.  .## :::::::::::::::::::::::::::::",
"::::::::::::::::::::::::::: .##.# :::::::::::::::::::::::::.##.### :::::::::::::::::::::::::::::",
":::::::::::::::::::::::::: #.###.# :::::::::::::::::::::::.##.###. :::::::::::::::::::::::::::::",
":::::::::::::::::::::::::: ##.##.# :::::::::::::::::::::::.#.####.# ::::::::::::::::::::::::::::",
":::::::::::::::::::::::::: ##.##### :::::::::::::::::::::.######.## ::::::::::::::::::::::::::::",
":::::::::::::::::::::::::: ###.#### :::::::::::::::::::: ######.## :::::::::::::::::::::::::::::",
":::::::::::::::::::::::::.#.######## :::::::::::::::::: ########## :::::::::::::::::::::::::::::",
":::::::::::::::::::::::::.#.########. :::::::::::::::: &######### ::::::::::::::::::::::::::::::",
":::::::::::::::::::::::::.##.######## ::::::::::::::  &&########  ::::::::::::::::::::::::::::::",
":::::::::::::::::::::::::.######oo###&o:::::::::::  &&&########.## :::::::::::::::::::::::::::::",
"::::::::::::::::::::::::::.####o$oo#&&&oo:::::::  &&&&&##..####### :::::::::::::::::::::::::::::",
":::::::::::::::::::::::::: ####o$$$o&&&&@oo    o@&&&&&&..$$.###### :::::::::::::::::::::::::::::",
":::::::::::::::::::::::::: &###o%$$$o& @======&&@@&&&oo$$$$.##### ::::::::::::::::::::::::::::::",
":::::::::::::::::::::::::::o&&&@@%$$ @=======&=&&&&@oo$$$$$.##### ::::::::::::::::::::::::::::::",
"::::::::::::::::::::::::::: &&&&o%% =&======&=&&&=;=o$$$$%.#####  ::::::::::::::::::::::::::::::",
"::::::::::::::::::::::::::: &&&&o% ;=&&===&&&&&=;;;;;o$%%%.&###& @ :::::::::::::::::::::::::::::",
":::::::::::::::::::::::::::: &&&& ##;&&&&&&&&&;##;;;;=%%%@@&&&& @@@ ::::::::::::::::::::::::::::",
":::::::::::::::::::::::::::: &&&& ##;&&&&&&&&;####;;;;o%%o&&&&@ X@& o:::::::::::::::::::::::::::",
"::::::::::::::::::::::::::::: &&oO.##=&&&&&=;###oo;;;;=%o&&&&@ :X&&& X :::::::::::::::::::::::::",
":::::::::::::::::::::::::::::oo&oO+o ;=&&=;;## o+O;;;;;&&&&&@XX:oX&& && ::::::::::::::::::::::::",
":::::::::::::::::::::::::::::: &oO++ O; ;;;oo+ ++O;;;;;&&&&@@ :o@X&& &&& :::::::::::::::::::::::",
"::::::::::::::::::::::::::::::: o-O++O;;;;;;OO+OO;;;;;&&&@@@ ::o@X&& o&&X:::::::::::::::::::::::",
":::::::::::::::::::::::::::::::: &&;;;;;;;;;;;;;;&&&o;&@@@@ ::o@@X&@ o&&& ::::::::::::::::::::::",
"::::::::::::::::::::::::::::::::  &&;;;  *;;;;;&&&&&&o@@@@o-o:o@oo@@ :o&& ::::::::::::::::::::::",
":::::::::::::::::::XX::::XX:::XX: @@@; --* ;;;&&&@Xo@o@@oo--  @@X@@ ::o&& ::::::::::::::::::::::",
":::::::::::::::::::X:X::X::XXX:::: @@------*-@@@@@@oXX@ ---*--  @@oo::o&@X::::::::::::::::::::::",
"::::::::::::::::::X:::XX::::::::XX:  @-------@@@@X@@@  @@------;  o::o@@X:::::::::::::::::::::::",
"::::::::::::::::::X:::::::::::XX:::o*  @------@@@@ Xoo*XX@----;**; Xo@@@ :::::::::::::::::::::::",
"::::::::::::::::::X:::::::::XX::::o;oooo  ooo    ooX o***XXX;;XX;;; X@@ ::::::::::::::::::::::::",
":::::::::::::::::::::::::::X:::::o;-&&ooooooooooooooo ***&&@XX;;X;;&&oX:::::::::::::::::::::::::",
":::::::::::::::::::::::XX::X::::o;;&&&&&ooooooooooooo* *;&&&@;;;X;XX&&o:::::::::::::::::::::::::",
":::::::::::::::::::::::X:XX::::o-;;&&&&&&&&&ooooooo&&;;X;;&&&@;;XX;&X&&o::::::::::::::::::::::::",
":::::::::::::::::::X:::X:::::::o;-;;;;;;-&&&&&&&&&&&-;;;X;&&&&@;;;;;X&&& :::::::::::::::::::::::",
"::::::::::::::::::::X:X:::::::o;;*;;;-&&&&&&&&&&&&&&;;;; ;&&&&@;;;;-X&&&@ ::::::::::::::::::::::",
":::::::::::::::::::::XX:::::::o;--;;&&&&&&&&-;;;-&&;;;;; ;&  &&@;;-@&&&&& ::::::::::::::::::::::",
":::::::::::::::::::::::::::::o&;*;;;;&&&&&&&&&;;;;;;;;;;;  &&X&@----@&&&&@ :::::::::::::::::::::",
":::::::::::::::::::::::::::::o&;*;;;;;&&&&&&&&&-;;;;;;;;;&&&& &&X ---@&&@& :::::::::::::::::::::",
":::::::::::::::::::::::::::::o&;*;;;;;;;-&&&&&;;;;;;;;;;;&&&&&  X----@&@&@@ ::::::::::::::::::::",
"::::::::::::::::::::::::::::o&&&--;;;;;;;;;;;;;;;;;;;;;;-&&&&&&;@*-- &&&@&@ ::::::::::::::::::::",
"::::::::::::::::::::::::::::o&&&;*;;;;;;;;;;;;;;;;;;;;;;&&&&&&;;;@*oo&&@@@@@ :::::::::::::::::::",
"::::::::::::::::::::::::::::o;&&&*;;;;;;;;;;;;;;;;*;;;;&&&&&&;;;;@- @@@@@@@@ :::::::::::::::::::",
"::::::::::::::::::::::::::::o;&&&&*;;;;;;;;;;;;;;;*;;;&&&&&&;;;-&@ @@@@@@@@@ :::::::::::::::::::",
"::::::::::::::::::::::::::::o;;&&& ;;;;;;;;;;;;;;;o;-&&&&&&;-&&&& @@@@@@@@@@ :::::::::::::::::::",
"::::::::::::::::::::::::::::o-;;&&& ;;;;;;;;;;;;;-o&&&&&&&&&&&&&@ @@@@@@@@@@ :::::::::::::::::::",
"::::::::::::::::::::::::::::: &-;&&&@*;;;;;;;;----@@&&&&&&&&&&&& :X@@@@@@@@@ :::::::::::::::::::",
"::::::::::::::::::::::::::::: &&&&&&& @------------o&&&&&&&&&&@@ :oo@@@@@@@o :::::::::::::::::::",
":::::::::::::::::::::::::::::: @&&&@@@   ---------- @@@&&&&@@@@@ ::X@@@@@@@ ::::::::::::::::::::",
":::::::::::::::::::::::::::::: @@@@**** :  X-----XX o@@@@@@@@@@ ::::X@@@@@o ::::::::::::::::::::",
"::::::::::::::::::::::::::::::: @@@@@*  :::X    X@@@ o@@**@@@@@ ::::: X@@@ :::::::::::::::::::::",
":::::::::::::::::::::::::::::::: @@@@@ ::::::X@@@@@@X ***@@@@@ :::::::  *** ::::::::::::::::::::",
":::::::::::::::::::::::::::::::*;;;@@  :::::::X*@*@X:: *@@@@@o ::::::: ***** :::::::::::::::::::",
":::::::::::::::::::::::::::::: ;;;;;; :::::::::    :::: o@@@  ::::::::: *@*@ :::::::::::::::::::",
"::::::::::::::::::::::::::::::  ;*;  :::::::::::::::::::o ;;& ::::::::::    ::::::::::::::::::::",
":::::::::::::::::::::::::::::::    ::::::::::::::::::::: ;;;;; :::::::::::::::::::::::::::::::::",
"::::::::::::::::::::::::::::::::::::::::::::::::::::::::  ;*;* :::::::::::::::::::::::::::::::::",
":::::::::::::::::::::::::::::::::::::::::::::::::::::::::     ::::::::::::::::::::::::::::::::::",
"::::::::::::::::::::::::::::::::::::::::::::::::::::::::::::::::::::::::::::::::::::::::::::::::",
"::::::::::::::::::::::::::::::::::::::::::::::::::::::::::::::::::::::::::::::::::::::::::::::::",
"::::::::::::::::::::::::::::::::::::::::::::::::::::::::::::::::::::::::::::::::::::::::::::::::",
"::::::::::::::::::::::::::::::::::::::::::::::::::::::::::::::::::::::::::::::::::::::::::::::::",
"::::::::::::::::::::::::::::::::::::::::::::::::::::::::::::::::::::::::::::::::::::::::::::::::",
"::::::::::::::::::::::::::::::::::::::::::::::::::::::::::::::::::::::::::::::::::::::::::::::::",
"::::::::::::::::::::::::::::::::::::::::::::::::::::::::::::::::::::::::::::::::::::::::::::::::",
"::::::::::::::::::::::::::::::::::::::::::::::::::::::::::::::::::::::::::::::::::::::::::::::::",
"::::::::::::::::::::::::::::::::::::::::::::::::::::::::::::::::::::::::::::::::::::::::::::::::",
"::::::::::::::::::::::::::::::::::::::::::::::::::::::::::::::::::::::::::::::::::::::::::::::::",
"::::::::::::::::::::::::::::::::::::::::::::::::::::::::::::::::::::::::::::::::::::::::::::::::",
"::::::::::::::::::::::::::::::::::::::::::::::::::::::::::::::::::::::::::::::::::::::::::::::::",
"::::::::::::::::::::::::::::::::::::::::::::::::::::::::::::::::::::::::::::::::::::::::::::::::",
"::::::::::::::::::::::::::::::::::::::::::::::::::::::::::::::::::::::::::::::::::::::::::::::::",
"::::::::::::::::::::::::::::::::::::::::::::::::::::::::::::::::::::::::::::::::::::::::::::::::",
"::::::::::::::::::::::::::::::::::::::::::::::::::::::::::::::::::::::::::::::::::::::::::::::::",
"::::::::::::::::::::::::::::::::::::::::::::::::::::::::::::::::::::::::::::::::::::::::::::::::",
"::::::::::::::::::::::::::::::::::::::::::::::::::::::::::::::::::::::::::::::::::::::::::::::::",
"::::::::::::::::::::::::::::::::::::::::::::::::::::::::::::::::::::::::::::::::::::::::::::::::"
};
