/* XPM */
static char *sprite_506_front[] = {
/* columns rows colors chars-per-pixel */
"96 96 14 1 ",
"  c #010101",
". c gray16",
"X c #4A3110",
"o c #624A18",
"O c #39414A",
"+ c #525A73",
"@ c #945A41",
"# c #DE5A5A",
"$ c #B48B4A",
"% c #DE945A",
"& c #EECD94",
"* c #CDCDCD",
"= c white",
"- c #000000",
/* pixels */
"------------------------------------------------------------------------------------------------",
"------------------------------------------------------------------------------------------------",
"------------------------------------------------------------------------------------------------",
"------------------------------------------------------------------------------------------------",
"------------------------------------------------------------------------------------------------",
"------------------------------------------------------------------------------------------------",
"------------------------------------------------------------------------------------------------",
"------------------------------------------------------------------------------------------------",
"------------------------------------------------------------------------------------------------",
"------------------------------------------------------------------------------------------------",
"------------------------------------------------------------------------------------------------",
"------------------------------------------------------------------------------------------------",
"------------------------------------------------------------------------------------------------",
"------------------------------------------------------------------------------------------------",
"------------------------------------------------------------------------------------------------",
"------------------------------------------------------------------------------------------------",
"------------------------------------------------------------------------------------------------",
"------------------------------------------------------------------------------------------------",
"------------------------------------------------------------------------------------------------",
"------------------------------------------------------------------------------------------------",
"------------------------------------------------------------------------------------------------",
"------------------------------------------------------------------------------------------------",
"------------------------------------------------------------------------------------------------",
"------------------------------------------------------------------------------------------------",
"------------------------------------------------------------------------------------------------",
"------------------------------------------------------------------------------------------------",
"------------------------------------------------------------------------------------------------",
"----------------------------------@@------------------------------------------------------------",
"---------------------------------@%%@-----------------------------------------------------------",
"---------------------------------@%%%@-------------------@XX------------------------------------",
"---------------------------------@%@%%@----------------@@%%@X-----------------------------------",
"--------------------------------@%%X%%%@-------------@@%%%%% -----------------------------------",
"--------------------------------@%@@X%%@---X--------@%%%%%%% -----------------------------------",
"--------------------------------@%@@X%%%@-@& ------@%%%XXX%% -----------------------------------",
"--------------------------------@%@@@@%%%@&& -----@%%XX@@@%% -----------------------------------",
"--------------------------------@%@@o@%%%@&& -----@%X@@@@@% ------------------------------------",
"---------------------------------@%o&o%%%@&&& ---@%ooo@@@%% ------------------------------------",
"--------------------------------@@%o&&o%@&&&& @@-oo&&o@@@%% ------------------------------------",
"--------------------------------@%@o&&&o@&&&& %oo&&&$o@@@% -------------------------------------",
"---------------------------------@%o&&&o@&&&&@o&&&&&o@@@%% -------------------------------------",
"-------------------------------ooo@%@&&&@&&&$@&&&&&oooo@%%XX -----------------------------------",
"-------------------------------o&&&@@&&&$&&&@&&&&&o$&&&o%@%% -----------------------------------",
"--------------------------------o&&&&$&&&&&&$&&&&$&&&&o%%%% ------------------------------------",
"--------------------------------o$&&&&&&&&&&&&&&&&&&$o%%%X -------------------------------------",
"---------------------------------o&&&$&&&&&&&&&&&&&@o%%X ---------------------------------------",
"----------------------------------@&$*$&&&&&&&&$$&&&&@%X----------------------------------------",
"-----------------------------------@*OO*&&&&&&&+*$&&$@@@X---------------------------------------",
"-----------------------------------$=.=O&&&&&&+=.*$&&&&oX---------------------------------------",
"-----------------------------------$=.*.&&&&&&.=.=$&&&o@X-----@X--------------------------------",
"---------------------------------@$$=...&&&&&&...=$&@o@@X---@@%X--------------------------------",
"--------------------------------@&&$*O.O&&&&&&O.O=@&&&@XX--X%%%X--------------------------------",
"---------------------------------o&&$*OO&###&&OOO*@&&&&&X-X%%%X---------------------------------",
"----------------------------------o$&$$&&$@$&&$O*@&&&&o --X%%@X---------------------------------",
"----------------------------------$&&&&&&&&&&&&&$&&&@ @X-X%%XX----------------------------------",
"---------------------------------$&&&&&&&&&&&&&&&&&$$o@XO@%%%% ---------------------------------",
"---------------------------------$oo$&&&&&&@&&&&&$$$$$X++OX%% ----------------------------------",
"------------------------------------@$$$&&&$&&$$$$$o$$X+O%% X-----------------------------------",
"------------------------------------@$o@$$$$$$$$o$$o  X++O%% -----------------------------------",
"------------------------------------oo-@$$ $$@$$o $o@@O+%%%%% ----------------------------------",
"---------------------------------------o$ @o$ o$o@  @@@O@%%%@ ----------------------------------",
"---------------------------------------- X@@ @@  @@@@@@@@@@@@ ----------------------------------",
"-----------------------------------------X@@@@@@@@@@@@X@X@@@ -----------------------------------",
"------------------------------------------X@@@X@@X@@@@ XX@@@ -----------------------------------",
"------------------------------------------X@@@@XXX@@@@ --X@@@ ----------------------------------",
"-------------------------------------------X@@X--X@@@X--X@@X@ ----------------------------------",
"------------------------------------------@%@@@X--X%%X--XXXX -----------------------------------",
"------------------------------------------X@%XXX-@%%@% -X$@$ -----------------------------------",
"------------------------------------------X&$& --XX%XX --   ------------------------------------",
"-------------------------------------------X  --- &@& ------------------------------------------",
"--------------------------------------------------   -------------------------------------------",
"------------------------------------------------------------------------------------------------",
"------------------------------------------------------------------------------------------------",
"------------------------------------------------------------------------------------------------",
"------------------------------------------------------------------------------------------------",
"------------------------------------------------------------------------------------------------",
"------------------------------------------------------------------------------------------------",
"------------------------------------------------------------------------------------------------",
"------------------------------------------------------------------------------------------------",
"------------------------------------------------------------------------------------------------",
"------------------------------------------------------------------------------------------------",
"------------------------------------------------------------------------------------------------",
"------------------------------------------------------------------------------------------------",
"------------------------------------------------------------------------------------------------",
"------------------------------------------------------------------------------------------------",
"------------------------------------------------------------------------------------------------",
"------------------------------------------------------------------------------------------------",
"------------------------------------------------------------------------------------------------",
"------------------------------------------------------------------------------------------------",
"------------------------------------------------------------------------------------------------",
"------------------------------------------------------------------------------------------------",
"------------------------------------------------------------------------------------------------",
"------------------------------------------------------------------------------------------------",
"------------------------------------------------------------------------------------------------",
"------------------------------------------------------------------------------------------------",
"------------------------------------------------------------------------------------------------",
"------------------------------------------------------------------------------------------------"
};
