/* XPM */
static char *sprite_233_back[] = {
/* columns rows colors chars-per-pixel */
"96 96 12 1 ",
"  c #101010",
". c #313962",
"X c #5A394A",
"o c #6A6A7B",
"O c #94416A",
"+ c #EE5A62",
"@ c #31739C",
"# c #4A9CD5",
"$ c #FF94B4",
"% c #D5D5D5",
"& c white",
"* c #000000",
/* pixels */
"************************************************************************************************",
"************************************************************************************************",
"************************************************************************************************",
"************************************************************************************************",
"************************************************************************************************",
"************************************************************************************************",
"************************************************************************************************",
"************************************************************************************************",
"************************************************************************************************",
"************************************************************************************************",
"************************************************************************************************",
"************************************************************************************************",
"************************************************************************************************",
"************************************************************************************************",
"************************************************************************************************",
"************************************************************************************************",
"************************************************************************************************",
"************************************************************************************************",
"************************************************************************************************",
"************************************************************************************************",
"************************************************************************************************",
"************************************************************************************************",
"************************************************************************************************",
"************************************************************************************************",
"************************************************************************************************",
"************************************************************************************************",
"************************************************************************************************",
"************************************************************************************************",
"************************************************************************************************",
"************************************************************************************************",
"************************************************************************************************",
"************************************************************************************************",
"**************************************************OOOO******************************************",
"***********************************************OOO++++OO****************************************",
"*********************************************OO+$&&$++++OO**************************************",
"********************************************OO+$&&$+++++++O*************************************",
"********************************************O++++++++++OO%%O************************************",
"*******************************************XO++++++++OOO% o+X***********************************",
"*******************************************XOO++++OOOOOO% %OX***********************************",
"*******************************************XOOOOOOOOOOOO%o %OX@@@*******************************",
"******************************************* OOOOOOOOOOOOO%%%OX###@@..***************************",
"******************************************* OOOOOOOOOOOOOOOOOX@#####@.**************************",
"***************************@@@************** OOOOOOOOOOOOOOOOX@@@@    **************************",
"**************************@###@@************ OOOOOOOOOOOOOOX      ******************************",
"**************************.@####@@*********** OOOOOOOOOOOOX ************************************",
"***************************.@@####@***********  OOOOOOOOO  *************************************",
"***************************.@@@@@##@************  OOOOOX ***************************************",
"****************************.@@@@@@.************** OOOO ****************************************",
"*****************************.@@@@@@.************* OOO *****************************************",
"******************************.@@@@@.************  OOO *****************************************",
"*******************************.@@@@@.*********XXOOOOOO ****************************************",
"********************************. @@@.*******OOOOOOOOOOO ***************************************",
"**********************************  @@.****OO+++OOOOOOOO ***************************************",
"************************************ @@.**O++++++OOOOOOOO **************************************",
"************************************* @@.X++++++OOOOOOOOO **************************************",
"************************************** @@ O+++OOOOOOOOOOO **************************************",
"*************************************** @ OOOOOOOOOOOOOOO **************************************",
"**************************************.XOOOOOOOOOOOOO....***************************************",
"*************************************.#XOOOOOOOOOOO..####..*************************************",
"************************************.##.OOOOOOOOO..#######@.************************************",
"************************************ @@@.XOOOOOO.########@@ ************************************",
"************************************* @@.@@OOOO.######@@@@@ ************************************",
"**************************************    @@@@.@@@@@@@@@@@ *************************************",
"******************************************  @@.@@@@@@@@@  **************************************",
"********************************************   .@@@@@@  ****************************************",
"************************************************      ******************************************",
"************************************************************************************************",
"************************************************************************************************",
"************************************************************************************************",
"************************************************************************************************",
"************************************************************************************************",
"************************************************************************************************",
"************************************************************************************************",
"************************************************************************************************",
"************************************************************************************************",
"************************************************************************************************",
"************************************************************************************************",
"************************************************************************************************",
"************************************************************************************************",
"************************************************************************************************",
"************************************************************************************************",
"************************************************************************************************",
"************************************************************************************************",
"************************************************************************************************",
"************************************************************************************************",
"************************************************************************************************",
"************************************************************************************************",
"************************************************************************************************",
"************************************************************************************************",
"************************************************************************************************",
"************************************************************************************************",
"************************************************************************************************",
"************************************************************************************************",
"************************************************************************************************",
"************************************************************************************************",
"************************************************************************************************"
};
