/* XPM */
static char *sprite_142_front[] = {
/* columns rows colors chars-per-pixel */
"96 96 16 1 ",
"  c black",
". c #317329",
"X c #31186A",
"o c #524173",
"O c #832041",
"+ c #CD394A",
"@ c #735294",
"# c #9462CD",
"$ c #9483A4",
"% c #E68B9C",
"& c #AC83DE",
"* c #ACACD5",
"= c #CDCDCD",
"- c #CDCDE6",
"; c white",
": c None",
/* pixels */
"::::::::::::::::::::::::::::::::::::::::::::::::::::::::::::::::::::::::::::::::::::::::::::::::",
"::::::::::::::::::::::::::::::::::::::::::::::::::::::::::::::::::::::::::::::::::::::::::::::::",
"::::::::::::::::::::::::::::::::::::::::::::::::::::::::::::::::::::::::::::::::::::::::::::::::",
"::::::::::::::::::::::::::::::::::::::::::::::::::::::::::::::::::::::::::::::::::::::::::::::::",
"::::::::::::::::::::::::::::::::::::::::::::::::::::::::::::::::::::::::::::::::::::::::::::::::",
"::::::::::::::::::::::::::::::::::::::::::::::::::::::::::::::::::::::::::::::::::::::::::::::::",
"::::::::::::::::::::::::::::::::::::::::::::::::::::::::::::::::::::::::::::::::::::::::::::::::",
"::::::::::::::::::::::::::::::::::::::::::::::::::::::::::::::::::::::::::::::::::::::::::::::::",
"::::::::::::::::::::::::::::::::::::::::::::::::::::::::::::::::::::::::::::::::::::::::::::::::",
"::::::::::::::::::::::::::::::::::::::::::::::::::::::::::::::::::::::::::::::::::::::::::::::::",
"::::::::::::::::::::::::::::::::::::::::::::::::::::::::::::::::::::::::::::::::::::::::::::::::",
"::::::::::::::::::::::::::::::::::::::::::::::::::::::::::::::::::::::::::::::::::::::::::::::::",
"::::::::::::::::::::::::::::::::::::::::::::::::::::::::::::::::::::::::::::::::::::::::::::::::",
"::::::::::::::::::::::::::::::::::::::::::::::::::::::::::::::::::::::::::::::::::::::::::::::::",
"::::::::::::::::::::::::::::::::::::::::::::::::::::::::::::::::::::::::::::::::::::::::::::::::",
"::::::::::::::::::::::::::::::::::::::::::::::::::::::::::::::::::::::::::::::::::::::::::::::::",
"::::::::::::::::::::::::::::::::::::::::::::::::::::::::::::::::::::::::::::::::::::::::::::::::",
":::::::::::::::::::::::::::::::::$$oo:::::::::::::::::::::::::::::::::::::::$$$$$$$$::::::::::::",
"::::::::::::::::::::::::::::::$$$---o::::::::::::::::::::::::::::::::::::$$$********o:::::::::::",
"::::::::::::::::::oo:::::::$$$-----o:::::::::::::::::::::::::::ooo:::::$$****$X    X::::::::::::",
"::::::::::::::::: -- :::::o****$$$ooooo$$$::::::::::::::::::::o--* ::oo**$   @### ::::::::::::::",
"::::::::::::::::: **- :::::  $$***********$$$:::::::::::::::::o-*$ :o***  @@@### :::::::::::::::",
":::::::$$$$$$::oo: $*o::::::: o$$$oooo$******$$::::::::::::::::$o   **$ @@@####X::::::::::::::::",
"::::::o------$o--  $o* ::::::::  $$o:::oo******$:::::::::::::ooo-* **$X@@@#####X::::::::::::::::",
":::::::ooo  *- -$*$o-o ::::::::::o  :::::oo*****$$::::::::::o-* ***o* @@@#####X:::::::::::::::::",
":::::::: @@@o  oo$$o--- :::::::::::::::::::o******$:::::::: --* o**$o@@@######X:::::::::::::::::",
"::::::::: @@@@@@ o$$ -* ::::::::::::::::::::o******o:::::::o-* $$o$$ @@######X::::::::::::::::::",
":::::::::: @@@@@@@ $$  ::::::::::::::::::::::o******o:::::::o o$$o$$ @#######X::::::::::::::::::",
"::::::::::X@@@@@@@@ $* :::::::::::::::::::::::o******o::::::::: $$$ @@#######X::::::::::::::::::",
":::::::::::X@@@@@@@oo*o::::::::::::::::::::::::o******o::::::::o$$ @@#######X:::::::::::::::::::",
"::::::::::::X@@@@@@@ **o:::::::::::::::::::::::o*******o:::::::o$$ @########X:::::::::::::::::::",
"::::::::::::X@@@@@@@ $*o::::::::::::::::::::::::o******$o::::: *$o@@########X:::::::::::::::::::",
":::::::::::::X@@@@@@@o*o:::::::::::::::::::::::: ******$o :::: ** @@########X:::::::::::::::::::",
":::::::::::::X@@@@@@@ **o:::::::::::::::::::::::: *****$$ :::: ** @@########X:::::::::::::::::::",
"::::::::::::::X@@@@@@ **o:::::::::::::::::::::::: ****$$$$ :::o*$ @@#######X::::::::::::::::::::",
"::::::::::::::X@@@@@@@o*o::::::::::::::::::::::::o****$$$$ :: **o@@########X::::::::::::::::::::",
"::::::::::::::X@@@@@@@ **o::::::::::::::::::::::::o**$$$$$$ : ** @@########X::::::::::::::::::::",
":::::::::::::::X@@@@@@ $*o:::::::::::::::::::::::: $$$$$$$$ :o** @@########X::::::::::::::::::::",
":::::::::::::::X@@@@@@@ *$o::::::::::::::::::::::: $$$$$$$$$ ***@@#########X::::::::::::::::::::",
":::::::::::::::X@@@@@## **o:::::::::::::::::::::::o$$$$$$$$$o**o@@&########X::::::::::::::::::::",
":::::::::::::::X@@@##XX $$$o:::::::::::::::::$$::::o$$$$$$$ *** X@&&#######X::::::::::::::::::::",
"::::::::::::::X@@##XX@@@ o$$ :::::::::::::::$--o::: $$$$$$$o**$ @XX@&&#####X::::::::::::::::::::",
"::::::::::::::X##XX@@@@@@@ $$ :::::::  :::::o--o::: $$$$$$o**oX@@@@XX@&&####X:::::::::::::::::::",
":::::::::::::X#XX@@@@@@@@@@ $$ ::::: * ::::$---* :: $$$$$o**o@@@@@@@@@XX&&##X:::::::::::::::::::",
":::::::::::::XX@@@@@@@@@@@@@ $$ :::: * ::::o--**o : $$$$o** @@@@@@@@@@@@XX&&#X::::::::::::::::::",
"::::::::::::XXXXXX@@@@@@@@o o$$$ :: ** ::::o--****ooo$$o**$@@@@@@@@@@@@@@@XX&#X:::::::::::::::::",
"::::::::::::::::::XXXXX@@@o* o $$ o **o::oo$---******ooo*$ @@@@@@@@@@@@@XXXXXXX:::::::::::::::::",
":::::::::::::::::::::::XX@o** @ $$o***$ :o-----******$o** @@@@@@@@@XXXXX::::::::::::::::::::::::",
":::::::::::::::::::::::::X@o*$ @ $ ***$ o-----*******o**$ @@@@@@@XX:::::::::::::::::::::::::::::",
"::::::::::::::::::::::::::Xo$$$oo ****$o-----*******$$** @@@@@@XX:::::::::::::::::::::::::::::::",
":::::::::::::::::::::::::::ooo-o*****$$$ ---********$$*$ @@@@@X:::::::::::::::::::::::::::::::::",
":::::::::::::::::::::::::::o$--****oo$$$* **********$$* @@@@@X :::::::::::::::::::::::::::::::::",
":::::::::::::::::::::::::: *----- o=$$$$$* ********$$$* @@@@X ::::::::::::::::::::::::::::::::::",
":::::::::::::::::::::::::: ----- .=;$$$$$$ ******$$$$$* @@@@X ::::::::::::::::::::::::::::::::::",
"::::::::::::::::::::::::::$o---$ .o;$$$$o$ ***$$$$$$$$$$X@@X$ ::::::::::::::::::::::::::::::::::",
"::::::::::::::::::::::::ooo-****$$$$$$$$ $o$$$$$$$$$$$$$$XXX$ ::::::::::::::::::::::::::::::::::",
":::::::::::::::::::::ooo---***$$$$$$$$ o$$$o$$$$$$$$$$$$$$$  :::::::::::::::::::::::::::::::::::",
"::::::::::::::::::::o-----**$$$$$$$$o O $$$ $$$$$$$$$$$$$$$$ :::::::::::::::::::::::::::::::::::",
":::::::::::::::::::o*---**o$$$$$o   OOO $$$o$$$$$$$$$$$$$$$$ :::::::::::::::::::::::::::::::::::",
":::::::::::::::::::o***** $$$$o OOOOOOO $$o  o$$$$$$$$$$$$$$$o::::::::::::::::::::::::::::::::::",
"::::::::::::::::::: *****o$$$ ooOOOOOO o$$ o$$o$$$$$$$$$$$$**o::::::::::::::::::::::::::::::::::",
":::::::::::::::::::: ***$$$$$o::o+OO++ $$ :$o$$$$$$$$$$$$o****o:::::::::::::::::::::::::::::::::",
"::::::::::::::::::::: **$$$$ :::o+++++o$o::o$oo$$$$$$$$$ *****o:::::::::::::::::::::::::::::::::",
":::::::::::::::::::::: o$$$$ :::o++%%%o$ ::o$$$oo$$$$o  $$$**$ :::::::::::::::::::::::::::::::::",
"::::::::::::::::::::::::    :::o=+%%%;o$ :o$$$$$$    : $$$$$$ $ ::::::::::::::::::::::::::::::::",
":::::::::::::::::::::::::::::::o%%%%%o$$ :o$$$$$$ ::::: $$$$$$$$ :::::::::::::::::::::::::::::::",
"::::::::::::::::::::::::::::::o+%%%%% $o::o$$$$$ :::::::  oo$$$$$o::::::::::::::::::::::::::::::",
"::::::::::::::::::::::::::::::oO%%%%; $ :::o$$$$ :::::::::: $$$$$ ::::::::::::::::::::::::::::::",
":::::::::::::::::::::::::::::o=O%%%%=o$ :::: oo$ :::::::::: $$$$$ ::::::::::::::::::::::::::::::",
":::::::::::::::::::::::::::: *+O+%%O *$ :::: $o$$ :::::::::o$$$$$ ::::::::::::::::::::::::::::::",
":::::::::::::::::::::::::::  =OOOO;oo*$ ::::o$oo$o::::::::::o$o $$ :::::::::::::::::::::::::::::",
"::::::::::::::::::::::::::: * OOOO  *$$o:::::o$ o$ :::::::::o$ :o$ :::::::::::::::::::::::::::::",
"::::::::::::::::::::::::::: **    **$$o:::::::  :  ::::::::: $ : $$ ::::::::::::::::::::::::::::",
":::::::::::::::::::::::::::: *******$$o::::::::::::::::::::: $$ : $$ :::::::::::::::::::::::::::",
"::::::::::::::::::::::::::::: o$$$$$$o::::::::::::::::::::::: $$ :   :::::::::::::::::::::::::::",
":::::::::::::::::::::::::::::::      :::::::::::::::::::::::::o  :::::::::::::::::::::::::::::::",
"::::::::::::::::::::::::::::::::::::::::::::::::::::::::::::::::::::::::::::::::::::::::::::::::",
"::::::::::::::::::::::::::::::::::::::::::::::::::::::::::::::::::::::::::::::::::::::::::::::::",
"::::::::::::::::::::::::::::::::::::::::::::::::::::::::::::::::::::::::::::::::::::::::::::::::",
"::::::::::::::::::::::::::::::::::::::::::::::::::::::::::::::::::::::::::::::::::::::::::::::::",
"::::::::::::::::::::::::::::::::::::::::::::::::::::::::::::::::::::::::::::::::::::::::::::::::",
"::::::::::::::::::::::::::::::::::::::::::::::::::::::::::::::::::::::::::::::::::::::::::::::::",
"::::::::::::::::::::::::::::::::::::::::::::::::::::::::::::::::::::::::::::::::::::::::::::::::",
"::::::::::::::::::::::::::::::::::::::::::::::::::::::::::::::::::::::::::::::::::::::::::::::::",
"::::::::::::::::::::::::::::::::::::::::::::::::::::::::::::::::::::::::::::::::::::::::::::::::",
"::::::::::::::::::::::::::::::::::::::::::::::::::::::::::::::::::::::::::::::::::::::::::::::::",
"::::::::::::::::::::::::::::::::::::::::::::::::::::::::::::::::::::::::::::::::::::::::::::::::",
"::::::::::::::::::::::::::::::::::::::::::::::::::::::::::::::::::::::::::::::::::::::::::::::::",
"::::::::::::::::::::::::::::::::::::::::::::::::::::::::::::::::::::::::::::::::::::::::::::::::",
"::::::::::::::::::::::::::::::::::::::::::::::::::::::::::::::::::::::::::::::::::::::::::::::::",
"::::::::::::::::::::::::::::::::::::::::::::::::::::::::::::::::::::::::::::::::::::::::::::::::",
"::::::::::::::::::::::::::::::::::::::::::::::::::::::::::::::::::::::::::::::::::::::::::::::::",
"::::::::::::::::::::::::::::::::::::::::::::::::::::::::::::::::::::::::::::::::::::::::::::::::",
"::::::::::::::::::::::::::::::::::::::::::::::::::::::::::::::::::::::::::::::::::::::::::::::::",
"::::::::::::::::::::::::::::::::::::::::::::::::::::::::::::::::::::::::::::::::::::::::::::::::",
"::::::::::::::::::::::::::::::::::::::::::::::::::::::::::::::::::::::::::::::::::::::::::::::::"
};
