/* XPM */
static char *sprite_604_front[] = {
/* columns rows colors chars-per-pixel */
"96 96 15 1 ",
"  c #101018",
". c #002031",
"X c #103141",
"o c #206273",
"O c #9C3110",
"+ c #837341",
"@ c #DE7352",
"# c #DEB400",
"$ c #FFD500",
"% c #C5AC7B",
"& c #73B4CD",
"* c #838383",
"= c #EEDEA4",
"- c white",
"; c None",
/* pixels */
";;;;;;;;;;;;;;;;;;;;;;;;;;;;;;;;;;;;;;;;;;;;;;;;;;;;;;;;;;;;;;;;;;;;;;;;;;;;;;;;;;;;;;;;;;;;;;;;",
";;;;;;;;;;;;;;;;;;;;;;;;;;;;;;;;;;;;;;;;;;;;;;;;;;;;;;;;;;;;;;;;;;;;;;;;;;;;;;;;;;;;;;;;;;;;;;;;",
";;;;;;;;;;;;;;;;;;;;;;;;;;;;;;;;;;;;;;;;;;;;;;;;;;;;;;;;;;;;;;;;;;;;;;;;;;;;;;;;;;;;;;;;;;;;;;;;",
";;;;;;;;;;;;;;;;;;;;;;;;;;;;;;;;;;;;;;;;;;;;;;;;;;;;;;;;;;;;;;;;;;;;;;;;;;;;;;;;;;;;;;;;;;;;;;;;",
";;;;;;;;;;;;;;;;;;;;;;;;;;;;;;;;;;;;;;;;;;;;;;;;;;;;;;;;;;;;;;;;;;;;;;;;;;;;;;;;;;;;;;;;;;;;;;;;",
";;;;;;;;;;;;;;;;;;;;;;;;;;;;;;;;;;;;;;;;;;;;;;;;;;;;;;;;;;;;;;;;;;;;;;;;;;;;;;;;;;;;;;;;;;;;;;;;",
";;;;;;;;;;;;;;;;;;;;;;;;;;;;;;;;;;;;;;;;;;;;;;;;;;;;;;;;;;;;;;;;;;;;;;;;;;;;;;;;;;;;;;;;;;;;;;;;",
";;;;;;;;;;;;;;;;;;;;;;;;;;;;;;;;;;;;;;;;;;;;;;;;;;;;;;;;;;;;;;;;;;;;;;;;;;;;;;;;;;;;;;;;;;;;;;;;",
";;;;;;;;;;;;;;;;;;;;;;;;;;;;;;;;;;;;;;;;;;;;;;;;;;;;;;;;;;;;;;;;;;;;;;;;;;;;;;;;;;;;;;;;;;;;;;;;",
";;;;;;;;;;;;;;;;;;;;;;;;;;;;;;;;;;;;;;;;;;;;;;;;;;;;;;;;;;;;;;;;;;;;;;;;;;;;;;;;;;;;;;;;;;;;;;;;",
";;;;;;;;;;;;;;;;;;;;;;;;;;;;;;;;;;;;;;;;;;;;;;;;;;;;;;;;;;;;;;;;;;;;;;;;;;;;;;;;;;;;;;;;;;;;;;;;",
";;;;;;;;;;;;;;;;;;;;;;;;;;;;;;;;;;;;;;;;;;;;;;;;;;;;;;;;;;;;;;;;;;;;;;;;;;;;;;;;;;;;;;;;;;;;;;;;",
";;;;;;;;;;;;;;;;;;;;;;;;;;;;;;;;;;;;;;;;;;;;;;;;;;;;;;;;;;;;;;;;;;;;;;;;;;;;;;;;;;;;;;;;;;;;;;;;",
";;;;;;;;;;;;;;;;;;;;;;;;;;;;;;;;;;;;;;;;;;;;;;;;;;;;;;;;;;;;;;;;;;;;;;;;;;;;;;;;;;;;;;;;;;;;;;;;",
";;;;;;;;;;;;;;;;;;;;;;;;;;;;;;;;;;;;;;;;;;;;;;;;;;;;;;;;;;;;;;;;;;;;;;;;;;;;;;;;;;;;;;;;;;;;;;;;",
";;;;;;;;;;;;;;;;;;;;;;;;;;;;;;;;;;;;;;;;;;;;;;;;;;;;;;;;;;;;;;;;;;;;;;;;;;;;;;;;;;;;;;;;;;;;;;;;",
";;;;;;;;;;;;;;;;;;;;;;;;;;;;;;;;;;;;;;;;;;;;;;;;;;;;;;;;;;;;;;;;;;;;;;;;;;;;;;;;;;;;;;;;;;;;;;;;",
";;;;;;;;;;;;;;;;;;;;;;;;;;;;;;;;;;;;;;;;;;;;;;;;;;;;;;;;;;;;;;;;;;;;;;;;;;;;;;;;;;;;;;;;;;;;;;;;",
";;;;;;;;;;;;;;;;;;;;;;;;;;;;;;;;;;;;;;;;;;;;;;;;;;;;;;;;;;;;;;;;;;;;;;;;;;;;;;;;;;;;;;;;;;;;;;;;",
";;;;;;;;;;;;;;;;;;;;;;;;;;;;;;;;;;;;;;;;;;;;;;;;;;;;;;;;;;;;;;;;;;;;;;;;;;;;;;;;;;;;;;;;;;;;;;;;",
";;;;;;;;;;;;;;;;;;;;;;;;;;;;;;XXXXX....;;;;;;;;;;;;;;;;;;;;;;;;;;;;;;;;;;;;;;;;;;;;;;;;;;;;;;;;;",
";;;;;;;;;;;;;;;;;;;;;;;;;;XXXXooooooooo....;;;;;;;;;;;;;;;;;;;;;;;;;;;;;;;;;;;;;;XXXX;;;;;;;;;;;",
";;;;;;;;;;;;;;;;;;;;;;;;XXooooooooooooooooo..;;;;;;;;;;;;;;;;;;;;;;;;;;;;;;;;;;Xo&&ooX;;;;;;;;;;",
";;;;;;;;;;;;;;;;;;;;;;XXoooooXXXXXXXXXooooooo..;;;;;;;;;;;;;;;;;;;;;;;;;;;;;;Xoo&&oooX.;;;;;;;;;",
";;;;;;;;;;;;;;;;;;;;; XoooXXXoooooooooXXXoooooo. ;;;;;;;;;;;;;;;;;;;;;;;;;;;XoooooooXX.;;;;;;;;;",
";;;;;;;;;;;;;;;;;;;; XooXXoooooooooooooooXXoooooo ;;;;;;;;;;;;;;;;;;;;;;;;;XooooXXXXX ;;;;;;;;;;",
";;;;;;;;;;;;;;;;;;; XoXXoooooooooooooooooooX.ooooo ;;;;;;;;;;;;;;;;;;;;;;;Xoo..XXXX  ;;;;;;;;;;;",
";;;;;;;;;;;;;;;;;; XoXooooooooooooooooooooooo.ooooo ;;;;;;;;;;;;;;;;;;;;;Xoo+%     ;;;;;;;;;;;;;",
";;;;;;;;;;;;;;;;;.oXXooooooooooooooooooooooooo.ooooo ;;;;;;;;;;;;;;;;;;;XooX%+;;;;;;;;;;;;;;;;;;",
";;;;;;;;;;;;;;;;;Xooooooooooo#$$$$#oooooooooooo.Xoooo  ;;;;;;;;;;;;;;;;Xoo+%+;;;;;;;;;;;;;;;;;;;",
";;;;;;;;;;;;;;;;.oooooooooo#$$$$$$$$ooooooooooooXXooooo  ;;;;;;;;;;;;..oo+=+;;;;;;;;;;;;;;;;;;;;",
";;;;;;;;;;;;;;;;X&&oooooo$$$$$$$$$$#ooooooooooooo.XXooooo   ;;;;;;;..ooo+=%;;;;;;;;;;;;;;;;;;;;;",
";;;;;;;;;;;;;;;.o&&ooooo$@@@$$$#ooooooooo$$ooooooo.+XXoooooo    ...oooo+==+;;;;;;;;;;;;;;;;;;;;;",
";;;;;;;;;;;;;;;.&&ooooo$@@@@@$$ooooooooo$$$$oooooo.%%%XXoooooooooooooo+==%;;;;;;;;;;;;;;;;;;;;;;",
";;;;;;;;;;;;;;Oo&&oooo#$@  @@$$ooooooooo$$$$ooooooo.%%%%XXXoooooooo+++===+;;;;;;;;;;;;;;;;;;;;;;",
";;;;;;;;;;;;;O@ooooooo$$@  @@$#oooooooooo$$oooooooo.%%%%%%%++++++++=%===+;;;;;;;;;;;;;;;;;;;;;;;",
";;;;;;;;;;;;O@@Xooooo#$$$@@@$$ooo   oooooooooooooooX.%%%%%%%+=======%===+;;;;;;;;;;;;;;;;;;;;;;;",
";;;;;;;;;;;;O@@Oooooo$$$$$$$#ooo ;;;  ooooooo$$ooooo.++%%====+=======%==+;;;;;;;;;;;;;;;;;;;;;;;",
";;;;;;;;;;;*@@@@Xooo#$$#oooooooX ;;;;; oooooo$$ooooo.;; ======%======%==+;;;;;;;;;;;;;;;;;;;;;;;",
";;;;;;;;;;;*@@@@@OXX$$$ooooooXXO ;;;;;; ooooooooooooo ;; %==============+;;;;;;;;;;;;;;;;;;;;;;;",
";;;;;;;;;;*-@@@@@@@@$$$XXXXXO@OOO ;;;;;; oooooooooooo ;;; +==============+;;;;;;;;;;;;;;;;;;;;;;",
";;;;;;;;;;*-@@@@@@@@@@@@@@@@@O*OO ;;;;;;; ooooooooooX ;;;;; ====+%=======+;;;;;;;;;;;;;;;;;;;;;;",
";;;;;;;;;;*-O@@@@@@@@@@@@@@@@O-OO ;;;;;;;; %+ooooooXXX ;;;;; %==   =======+;;;;;;;..;;;;;;;;;;;;",
";;;;;;;;;;*--O@@@@-@@@@@@@@@@--OO ;;;;;    o%%XXooooXX ;;;;;;   ;;;  ====%+;;;;;;;.X.;;;;;;;;;;;",
";;;;;;;;;;; -  @@---@@@@@@@@O--O ;;;   XXXX o%%X.ooooX ;;;;;;;;;;;;;;    +;;;;;;;; X ;;;;;;;;;;;",
";;;;;;;;;;;; ;;  ---O@@@@@@OO-- ;   XXXXXXX o%%XX.ooooX ;;;;;;;;;;;;;;;;;;;;;;;;;; X ;;;;;;;;;;;",
";;;;;;;;;;;;;;;; ---       ; -   XXXXXXX     %%%XX ooooX ;;;;;;;;;;;;;;;;;;;;;;;; %X ;;;;;;;;;;;",
";;;;;;;;;;;;;;;;;*- ;;;;;;;;; .XXXXXX   ;;;; %%%XXX ooooX ;;;;;;;;;;;;;;;;;;;;;; %XX ;;;;;;;;;;;",
";;;;;;;;;;;;;;;;;*- ;;;;;;;  XXXXXX  ;;;;;;; %%%XXXX ooooo..;;;;;;;;;;;;;;;;+ ;; %XX ;;;;;;;;;;;",
";;;;;;;;;;;;;;;;;; ;;;;;;; XXXXXXX ;;;;;;;;; %%%%XXXX oooooo..;;;;;;;;;;;;;+%% +%XXX ;;;;;;;;;;;",
";;;;;;;;;;;;;;;;;;;;;;;; XoooooXX ;;;;;;;;;; %%%%XXXXX ooooooo..;;;;;;;;;;+%%%+%%XXX ;;;;;;;;;;;",
";;;;;;;;;;;;;;;;;;;;;;  oooooooo ;;;;;;;;;; %%%%%XXXXX  Xooooooo..;;;++;;+%%%%+% XXX ;;;;;;;;;;;",
";;;;;;;;;;;;;;;;;;;;..ooooooooo ;;;;;;;;;;; %%%%%XXXXX ; Xoooooooo..+%%+++%%%%%% XXX ;;;;;;;;;;;",
";;;;;;;;;;;;;;;;;;.Xoooooooooo ;;;;;;;;;;;; %%%%%XXXX ;;;  ooooooooo..%%+%%%%%% XXX ;;;;;;;;;;;;",
";;;;;;;;;;;;;;;;;Xoooooooooooo ;;;;;;;;;;; %%%%%%XXXX ;;;;; oooooooooo.%%%%%%% XXXX ;;;;;;;;;;;;",
";;;;;;;;;;;;;;;;Xoooooooooooo.;;;;;;;;;;;;+%%%%%%XXXo ;;;;;;  oooooooooX %%%% XXXXX ;;;;;;;;;;;;",
";;;;;;;;;;;;;;;Xooooooooooooo.;;;;;;;;;;;+==%%%%oooo ;;;;;;;++  ooooooooo %% XXXXXX ;;;;;;;;;;;;",
";;;;;;;;;;;;;;XoooooooX-Xooo.;;;;;;;;;;;+=======oooo ;;;;;++==+; ooooooooo  XXXXXX ;;;;;;;;;;;;;",
";;;;;;;;;;;;;.oooooooX---Xoo.;;;;;;;;;;;+======%oooo ;;;;+=====+% oooo#$#oo  XXXXX ;;;;;;;;;;;;;",
";;;;;;;;;;;;.oooooooo*---.o.;;;;;;;;;;;+=======oooo ;;;;+====%=+%% ooo$$$oooo XXXX ;;;;;;;;;;;;;",
";;;;;;;;;;;;.oooooo@@*---.o.;;;;;;;;;;;+=======oooo ;;;+=====%==%% ooo#$#ooooo XX ;;;;;;;;;;;;;;",
";;;;;;;;;;;.ooooo@@@@@ -*.o.;;;;;;;;;;+=======%ooooX ++======%=%%%% ooooooooooo X ;;;;;;;;;;;;;;",
";;;;;;;;;;;.oooo@@@@@@ - oo.;;;;;;;;;;+=======oooooo =======+==%%%. oooooooooooo  ;;;;;;;;;;;;;;",
";;;;;;;;;;;Xoooo@@@#$#@ @o ;;;;;;;;;;+=======%ooooooX%======+=%%.XX oooooo#$#oooo ;;;;;;;;;;;;;;",
";;;;;;;;;;*-XXo@@@#$$$@@@o ;;;;;;;;;;+=======ooooooooX+====+%%.XXXX ooooo#$$$$oooo ;;;;;;;;;;;;;",
";;;;;;;;;;*---X@@@$$$$@@@o ;;;;;;;;;;+=======oooooooooXX....XXXXXXX ooooo$$$$$$ooo ;;;;;;;;;;;;;",
";;;;;;;;;;*--- @@@$$$#@@o ;;;;;;;;;;;+=======ooooooooooooXXXXXXXXXX ooooo$$$$$$oooX ;;;;;;;;;;;;",
";;;;;;;;;;; --- @@#$$@@@X ;;;;;;;;;;;+%======oooooooooooXXXXXXXXXXX oooooo$$$$#oooX ;;;;;;;;;;;;",
";;;;;;;;;;;; --- @@@@@@-- ;;;;;;;;;;;;+======%ooooooooXXXXXXXXX  . XXoooooo#$#oooo- ;;;;;;;;;;;;",
";;;;;;;;;;;;;   o@@@@@*--- ;;;;;;;;;;;+%======oooooXXXXXXXXXX  +=% -*Xoooooooooooo- ;;;;;;;;;;;;",
";;;;;;;;;;;;;; XooooooX*-- ;;;;;;;;;;;; %%====%X.XXXXXXXXXXX %=+= ---Xoooooooooooo ;;;;;;;;;;;;;",
";;;;;;;;;;;;;;;;  oooXX    ;;;;;;;;;;;;; %%%%%%%.XXXXXXXXXXX ==+= --*XXooooooooooo ;;;;;;;;;;;;;",
";;;;;;;;;;;;;;;;;;    ;;;;;;;;;;;;;;;;;;  +%%%%%%..XXXXXXXX %==+% -   XXoooooooX  ;;;;;;;;;;;;;;",
";;;;;;;;;;;;;;;;;;;;;;;;;;;;;;;;;;;;;;;; +  %%%%%%%..XXXXXX %%%+%% %%+ XXXoooX-- ;;;;;;;;;;;;;;;",
";;;;;;;;;;;;;;;;;;;;;;;;;;;;;;;;;;;;;;;;; ++  +%%%%%%+  .. %%%+%%%%%++   XXX*--- ;;;;;;;;;;;;;;;",
";;;;;;;;;;;;;;;;;;;;;;;;;;;;;;;;;;;;;;;;;;  ++++       ++ %%%%+%%%%  ;;;;   *-- ;;;;;;;;;;;;;;;;",
";;;;;;;;;;;;;;;;;;;;;;;;;;;;;;;;;;;;;;;;;;;;    ;;;;;;;  %%%++%%   ;;;;;;;; --- ;;;;;;;;;;;;;;;;",
";;;;;;;;;;;;;;;;;;;;;;;;;;;;;;;;;;;;;;;;;;;;;;;;;;;;;;;;;       ;;;;;;;;;;; -- ;;;;;;;;;;;;;;;;;",
";;;;;;;;;;;;;;;;;;;;;;;;;;;;;;;;;;;;;;;;;;;;;;;;;;;;;;;;;;;;;;;;;;;;;;;;;;;   ;;;;;;;;;;;;;;;;;;",
";;;;;;;;;;;;;;;;;;;;;;;;;;;;;;;;;;;;;;;;;;;;;;;;;;;;;;;;;;;;;;;;;;;;;;;;;;;;;;;;;;;;;;;;;;;;;;;;",
";;;;;;;;;;;;;;;;;;;;;;;;;;;;;;;;;;;;;;;;;;;;;;;;;;;;;;;;;;;;;;;;;;;;;;;;;;;;;;;;;;;;;;;;;;;;;;;;",
";;;;;;;;;;;;;;;;;;;;;;;;;;;;;;;;;;;;;;;;;;;;;;;;;;;;;;;;;;;;;;;;;;;;;;;;;;;;;;;;;;;;;;;;;;;;;;;;",
";;;;;;;;;;;;;;;;;;;;;;;;;;;;;;;;;;;;;;;;;;;;;;;;;;;;;;;;;;;;;;;;;;;;;;;;;;;;;;;;;;;;;;;;;;;;;;;;",
";;;;;;;;;;;;;;;;;;;;;;;;;;;;;;;;;;;;;;;;;;;;;;;;;;;;;;;;;;;;;;;;;;;;;;;;;;;;;;;;;;;;;;;;;;;;;;;;",
";;;;;;;;;;;;;;;;;;;;;;;;;;;;;;;;;;;;;;;;;;;;;;;;;;;;;;;;;;;;;;;;;;;;;;;;;;;;;;;;;;;;;;;;;;;;;;;;",
";;;;;;;;;;;;;;;;;;;;;;;;;;;;;;;;;;;;;;;;;;;;;;;;;;;;;;;;;;;;;;;;;;;;;;;;;;;;;;;;;;;;;;;;;;;;;;;;",
";;;;;;;;;;;;;;;;;;;;;;;;;;;;;;;;;;;;;;;;;;;;;;;;;;;;;;;;;;;;;;;;;;;;;;;;;;;;;;;;;;;;;;;;;;;;;;;;",
";;;;;;;;;;;;;;;;;;;;;;;;;;;;;;;;;;;;;;;;;;;;;;;;;;;;;;;;;;;;;;;;;;;;;;;;;;;;;;;;;;;;;;;;;;;;;;;;",
";;;;;;;;;;;;;;;;;;;;;;;;;;;;;;;;;;;;;;;;;;;;;;;;;;;;;;;;;;;;;;;;;;;;;;;;;;;;;;;;;;;;;;;;;;;;;;;;",
";;;;;;;;;;;;;;;;;;;;;;;;;;;;;;;;;;;;;;;;;;;;;;;;;;;;;;;;;;;;;;;;;;;;;;;;;;;;;;;;;;;;;;;;;;;;;;;;",
";;;;;;;;;;;;;;;;;;;;;;;;;;;;;;;;;;;;;;;;;;;;;;;;;;;;;;;;;;;;;;;;;;;;;;;;;;;;;;;;;;;;;;;;;;;;;;;;",
";;;;;;;;;;;;;;;;;;;;;;;;;;;;;;;;;;;;;;;;;;;;;;;;;;;;;;;;;;;;;;;;;;;;;;;;;;;;;;;;;;;;;;;;;;;;;;;;",
";;;;;;;;;;;;;;;;;;;;;;;;;;;;;;;;;;;;;;;;;;;;;;;;;;;;;;;;;;;;;;;;;;;;;;;;;;;;;;;;;;;;;;;;;;;;;;;;",
";;;;;;;;;;;;;;;;;;;;;;;;;;;;;;;;;;;;;;;;;;;;;;;;;;;;;;;;;;;;;;;;;;;;;;;;;;;;;;;;;;;;;;;;;;;;;;;;",
";;;;;;;;;;;;;;;;;;;;;;;;;;;;;;;;;;;;;;;;;;;;;;;;;;;;;;;;;;;;;;;;;;;;;;;;;;;;;;;;;;;;;;;;;;;;;;;;",
";;;;;;;;;;;;;;;;;;;;;;;;;;;;;;;;;;;;;;;;;;;;;;;;;;;;;;;;;;;;;;;;;;;;;;;;;;;;;;;;;;;;;;;;;;;;;;;;"
};
