/* XPM */
static char *sprite_295_back[] = {
/* columns rows colors chars-per-pixel */
"96 96 15 1 ",
"  c #010101",
". c #7B3162",
"X c #A47B20",
"o c #B4417B",
"O c #E6B452",
"+ c #FFE66A",
"@ c #524A8B",
"# c #7B73B4",
"$ c #E6739C",
"% c #8B8B8B",
"& c #A4A4DE",
"* c #BDBDEE",
"= c #BDC5D5",
"- c white",
"; c None",
/* pixels */
";;;;;;;;;;;;;;;;;;;;;;;;;;;;;;;;;;;;;;;;;;;;;;;;;;;;;;;;;;;;;;;;;;;;;;;;;;;;;;;;;;;;;;;;;;;;;;;;",
";;;;;;;;;;;;;;;;;;;;;;;;;;;;;;;;;;;;;;;;;;;;;;;;;;;;;;;;;;;;;;;;;;;;;;;;;;;;;;;;;;;;;;;;;;;;;;;;",
";;;;;;;;;;;;;;;;;;;;;;;;;;;;;;;;;;;;;;;;;;;;;;;;;;;;;;;;;;;;;;;;;;;;;;;;;;;;;;;;;;;;;;;;;;;;;;;;",
";;;;;;;;;;;;;;;;;;;;;;;;;;;;;;;;;;;;;;;;;;;;;;;;;;;;;;;;;;;;;;;;;;;;;;;;;;;;;;;;;;;;;;;;;;;;;;;;",
";;;;;;;;;;;;;;;;;;;;;;;;;;;;;;;;;;;;;;;;;;;;;;;;;;;;;;;;;;;;;;;;;;;;;;;;;;;;;;;;;;;;;;;;;;;;;;;;",
";;;;;;;;;;;;;;;;;;;;;;;;;;;;;;;;;;;;;;;;;;;;;;;;;;;;;;;;;;;;;;;;;;;;;;;;;;;;;;;;;;;;;;;;;;;;;;;;",
";;;;;;;;;;;;;;;;;;;;;;;;;;;;;;;;;;;;;;;;;;;;;;;;;;;;;;;;;;;;;;;;;;;;;;;;;;;;;;;;;;;;;;;;;;;;;;;;",
";;;;;;;;;;;;;;;;;;;;;;;;;;;;;;;;;;;;;;;;;;;;;;;;;;;;;;;;;;;;;;;;;;;;;;;;;;;;;;;;;;;;;;;;;;;;;;;;",
";;;;;;;;;;;;;;;;;;;;;;;;;;;;;;;;;;;;;;;;;;;;;;;;;;;;;;;;;;;;;;;;;;;;;;;;;;;;;;;;;;;;;;;;;;;;;;;;",
";;;;;;;;;;;;;;;;;;;;;;;;;;;;;;;;;;;;;;;;;;;;;;;;;;;;;;;;;;;;;;;;;;;;;;;;;;;;;;;;;;;;;;;;;;;;;;;;",
";;;;;;;;;;;;;;;;;;;;;;;;;;;;;;;;;;;;;;;;;;;;;;;;;;;;;;;;;;;;;;;;;;;;;;;;;;;;;;;;;;;;;;;;;;;;;;;;",
";;;;;;;;;;;;;;;;;;;;;;;;;;;;;;;;;;;;;;;;;;;;;;;;;;;;;;;;;;;;;;;;;;;;;;;;;;;;;;;;;;;;;;;;;;;;;;;;",
";;;;;;;;;;;;;;;;;;;;;;;;;;;;;;;;;;;;;;;;;;;;;;;;;;;;;;;;;;;;;;;;;;;;;;;;;;;;;;;;;;;;;;;;;;;;;;;;",
";;;;;;;;;;;;;;;;;;;;;;;;;;;;;;;;;;;;;;;;;;;;;;;;;;;;;;;   ;;;;;;;;;;;;;;;;;;;;;;;;;;;;;;;;;;;;;;",
";;;;;;;;;;;;;;;;;;;;;;;;;;;;;;;;;;;;;;;;;;;;;;;;;;;;; XO+O ;;;;;;;;;;;;;;;;;;;;;;;;;;;;;;;;;;;;;",
";;;;;;;;;;;;;;;;;;;;;;;;;;;;;;;;;;;;;;;;;;;;;;;;;;;; OO  ++ ;;;  ;;;;;;;;;;;;;;;;;;;;;;;;;;;;;;;",
";;;;;;;;;;;;;;;;;;;;;;;;;;;;;;;;;;;;;;;;;;;;;;;;    OX   +++X  OOX;;;;;;;;;;;;;;;;;;;;;;;;;;;;;;",
";;;;;;;;;;;;;;;;;;;;;;;;;;;;;;;;;;;;;;;;;;;;;;; XOX O   OO+O OO  OX;;;;;;;;;;;;;;;;;;;;;;;;;;;;;",
";;;;;;;;;;;;;;;;;;;;;;;;;;;;;;;;;;;;;;;;;;;;;; XO  XOOOOOOO OX   +OX;;;;;;;;;;;;;;;;;;;;;;;;;;;;",
";;;;;;;;;;;;;;;;;;;;;;;;;;;;;;;;;;;;;;;;;;;;;; O   XXOOOOOO OX  O++OX;;;;;;;;;;;;;;;;;;;;;;;;;;;",
";;;;;;;;;;;;;;;;;;;;;;;;;;;;;;;;;;;;;;;;;;;;;; O XOO OOOOOO XOOOO+++O#;;;;;;;;;;;;;;;;;;;;;;;;;;",
";;;;;;;;;;;;;;;;;;;;;;;;;;;;;;;;;;;;;;;;;;;;;; XOOOO OOOOOOO OOOOO+O*#;;;;;;;;;;;;;;;;;;;;;;;;;;",
";;;;;;;;;;;;;;;;;;;;;;;;;;;;;;;;;;;;;;;;;;;;;;; OOOOO OOOOOO OOOOO#&**#;;;;;;;;;;;;;;;;;;;;;;;;;",
";;;;;;;;;;;;;;;;;;;;;;;;;;;;;;;;;;;;;;;;;;;;;;; XOOOO OOOOOO XOO####&**#;;;;;;;;;;;;;;;;;;;;;;;;",
";;;;;;;;;;;;;;;;;;;;;;;;;;;;;;;;;;;;;;;;;;;;;;;; OOO## OOOOOO #######***@;;;;;;;;;;;;;;;;;;;;;;;",
";;;;;;;;;;;;;;;;;;;;;;;;;;;;;;;;;;;;;;;;;;;;;;;; ##### OOOOOO ########***@;;;;;;;;;;;;;;;;;;;;;;",
";;;;;;;;;;;;;;;;;;;;;;;;;;;;;;;;;;;;;;;;;;;;;;XX #####@@OOOO# #########**@;;;;;;;;;;;;;;;;;;;;;;",
";;;;;;;;;;;;;;;;;;;;;;;;;;;;;;;;;;;;;;;;;;;;;X+++ ##### ######@########&**@;;;;;;;;;;;;;;;;;;;;;",
";;;;;;;;;;;;;;;;;;;;;;;;;;;;;;;;;;;;;;;;;;;; OO+O ##### ######@#########**#@;;;;;;;;;;;;;;;;;;;;",
";;;;;;;;;;;;;;;;;;;;;;;;;;;;;;;;;;;;;;;;;;;; OOX& #####@#########   @####&**@;;;;;;;;;;;;;;;;;;;",
";;;;;;;;;;;;;;;;;;;;;;;;;;;;;;;;;;;;;;;;;;;;; ### ####@######### X++X@@####&*@;;;;;;;;;;;;;;;;;;",
";;;;;;;;;;;;;;;;;;;;;;;;;;;;;;;;;;;;;;;;;;;;;;@ #@############# O++++&######**@;;;;;;;;;;;;;;;;;",
";;;;;;;;;;;;;;;;;;;;;;;;;;;;;;;;;;;;;;;;;;;;;;;; ############# OX  X++&##@@#&* ;;;;;;;;;;;;;;;;;",
";;;;;;;;;;;;;;;;;;;;;;;;;;;;;;;;;;;;;;;;;;;;;;   ############# O    ++&###. #* ;;;;;;;;;;;;;;;;;",
";;;;;;;;;;;;;;;;;;;;;;;;;;;;;;;;;;;;;;;;;;;;; &&# @########### O    +O####.o@&@;;;;;;;;;;;;;;;;;",
";;;;;;;;;;;;;;;;;;;;;;;;;;;;;;;;;;;;;;;;;;;;@#  &##@########## OX  XOO####.- @;;;;;;;;;;;;;;;;;;",
";;;;;;;;;;;;;;;;XXXXX;;;;;;;;;;;;;;;@@@;;;;@#   &@############# OOOOOX####.$ .;;;;;;;;;;;;;;;;;;",
";;;;;;;;;;;;;;XXO++++XX;;;;;XXXXX;;@## ;;@@ #  &#@@##&OO######## OOOX#####o$$.;;;;;;;;;;;;;;;;;;",
";;;;;;;;;;;;;X+++O+++++XX;XX+++O+X  ## @@## @&&#@@@@#OOO#########  @@######o.#@;;;;;;;;;;;;;;;;;",
";;;;;;;;;;;;X++ X+O+++++OX++++++O++X #@### #@@@@@@@##OOO#####################&*@;;;;;;;;;;;;;;;;",
";;;;;;;;;;;;X+XX +O+++++ +++X X+O+++O ### ##@@@@@@##&OO&######################*@;;;;;;;;;;;;;;;;",
";;;;;;;;;;;;X+X  +O++++ O++XXX ++O+++O #  @##@@@###&OOO##########@#####@ @@##@&@;;;;;;;;;;;;;;;;",
";;;;;;;;;;;X+XX  +O++++ ++XXX  ++X++++O ###@@####&OOOO###########@##### ; *@##@@;;;;;;;;;;;;;;;;",
";;;;;;;;;;;X+X   +O+++ ++OXX   ++X+++++ @  &#@##OOOO&###########@XOOX# ;; *-@  ;;;;;;;;;;;;;;;;;",
";;;;;;;;;;;X+X   +X+++ ++XX   X++X+++++#   &#####O&############## OOOX ;; -- ;;;;;;;;;;;;;;;;;;;",
";;;;;;;;;;; +X  X+XO+ O+OXX   ++OX++++O# #&#@@#################### OOO ;; @ ;;;;;;;;;;;;;;;;;;;;",
";;;;;;;;;;; +X  +XOOO ++XX   X++XO++++### #@@@#####################   ;;;;;;;;;;;;;;;;;;;;;;;;;;",
";;;;;;;;;;; +XX +XOOO ++ X   ++OXOO+++### @@@##OO&###################@    ;;;;;;;;;;;;;;;;;;;;;;",
";;;;;;;;;;; +X ++XOOO ++ X  X++XOOO+++### @@##&OO&########################  ;;  ;;;;;;;;;;;;;;;;",
";;;;;;;;;;;; OX+XOOOO ++X  X++XOOOOO+O#### ###OOO###########################@ #&@;;;;;;;;;;;;;;;",
";;;;;;;;;;;; ++OXOOOO O++++++XOOOOOO+##### ##OOO&############################@#*@;;;;;;;;;;;;;;;",
";;;;;;;;;;;;; XXOOOOOO +++OXXOOOOOOOO##### OOOOO##############################&*@;;;;;;;;;;;;;;;",
";;;;;;;;;;;;;;    OOOXX XXXOOOOOOOOO@##### OOO&###############################***@;;;;;;;;;;;;;;",
";;;;;;;;;;;;;;;;;;  X@@@ OOOOOOOOOO@@@####@O&#################################&**@;;;;;;;;;;;;;;",
";;;;;;;;;;;;;;;;;;;; @@@@  OOOOOOO@@@@##### ###################@@  ############*##;;;;;;;;;;;;;;",
";;;;;;;;;;;;;;;;;;;;; @@@@@  OOO@@@@@@@#### ####################@@@    #########&*@;;;;;;;;;;;;;",
";;;;;;;;;;;;;;;;;;;;;; @@@@@@  @@@@@@@@#### ###################@@@@@ ;;  ######***@;;;;;;;;;;;;;",
";;;;;;;;;;;;;;;;;;;;;; @@@@@@@@ @@@@@@@@### ##################@@@@@ ;;;;;  ####&**@;;;;;;;;;;;;;",
";;;;;;;;;;;;;;;;;;;;;;; @@@@@@@@ @@@@@@@#### #################@@@@@ ;;;;;; #####&##;;;;;;;;;;;;;",
";;;;;;;;;;;;;;;;;;;;;;; @@@@@@@@@ @@@@@@#### ##############@ @@@ @@ ;;;;;;@######**@;;;;;;;;;;;;",
";;;;;;;;;;;;;;;;;;;;;;;; @@@@@@@@ @@@@@@#####@##@############ @@ @@ ;;;;;; #####&**@;;;;;;;;;;;;",
";;;;;;;;;;;;;;;;;;;;;;;; @@@@@@@@@ @@@@@@######@#############@ @ @@ ;;;@@; #####&**@;;;;;;;;;;;;",
";;;;;;;;;;;;;;;;;;;;;;;;; @@@@@@@@ @@@@@@##### @############## @ @@ ;;@-* #########@;;;;;;;;;;;;",
";;;;;;;;;;;;;;;;;;;;;;;;;; @@@@@@@ @@@@@@##### @##############@ @@@@  *-- #######&*@;;;;;;;;;;;;",
";;;;;;;;;;;;;;;;;;;;;;;;;;; @@@@@@@ @@@@@@### @@##############@ @@@@@@#*   ######&&@;;;;;;;;;;;;",
";;;;;;;;;;;;;;;;;;;;;;;;;;;;  @@@@@ @@@@@@@## @@@#############@   @@@@@ ##@  ####&&@;;;;;;;;;;;;",
";;;;;;;;;;;;;;;;;;;;;;;;;;;;;   @@@@ @@@@@@@@ @@@############## & @@@@ ## ###  ###& ;;;;;;;;;;;;",
";;;;;;;;;;;;;;;;;;;;;;;;;;;;; @@ @@@@ @@@@@@@ @@@@###############& @@@ # ### ## ### ;;;;;;;;;;;;",
";;;;;;;;;;;;;;;;;;;;;;;;;;;;; @@@@@@@@  @@@@@ @@@@#############@##  @@ # ##@#### ## ;;;;;;;;;;;;",
";;;;;;;;;;;;;;;;;;;;;;;;;;;;;; @@@@@@@@@  @@@@ @@@@@###########@@@ ;   # ## #### # ;;;;;;;;;;;;;",
";;;;;;;;;;;;;;;;;;;;;;;;;;;;;;;  @@@@@@@@@@@@@ @@@@@@@#########@@@ ;;;; @## ### ## ;;;;;;;;;;;;;",
";;;;;;;;;;;;;;;;;;;;;;;;;;;;;;;;;      @@@@@@@@ @@@@@@@@@####@ @@ ;;;;;;  # ###@#  ;;;;;;;;;;;;;",
";;;;;;;;;;;;;;;;;;;;;;;;;;;;;;;;;; @@@@   @@@@@@ @@@@@@@@@@@@    ;;;;;;;;;   ###  ;;;;;;;;;;;;;;",
";;;;;;;;;;;;;;;;;;;;;;;;;;;;;;;;;;  @@@@@@  @@@@@ @@@@@@@@@@@ ;;;;;;;;;;;;;;;   ;;;;;;;;;;;;;;;;",
";;;;;;;;;;;;;;;;;;;;;;;;;;;;;;;;  @ @@@@@@@@  @@@@ @@@@@@@@  ;;;;;;;;;;;;;;;;;;;;;;;;;;;;;;;;;;;",
";;;;;;;;;;;;;;;;;;;;;;;;;;;;;;; @@@@@@@@@@@@@@     @@@@@@@  ;;   ;;;;;;;;;;;;;;;;;;;;;;;;;;;;;;;",
";;;;;;;;;;;;;;;;;;;;;;;;;;;;;;;  %@@@@@@@@@@@@ ;; @@@@@@@@@@  @%%  ;;;;;;;;;;;;;;;;;;;;;;;;;;;;;",
";;;;;;;;;;;;;;;;;;;;;;;;;;;;;;; ==%@@@@@@@@@@@@  @@@@@@@@@@@@#@@ == ;;;;;;;;;;;;;;;;;;;;;;;;;;;;",
";;;;;;;;;;;;;;;;;;;;;;;;;;;;;; === @@@@     ;  @@@@@@@@@@@@@@###@   ;;;;;;;;;;;;;;;;;;;;;;;;;;;;",
";;;;;;;;;;;;;;;;;;;;;;;;;;;;;; ==%     ;;;;; %==@@@@@@@@@@@@@@##@--= ;;;;;;;;;;;;;;;;;;;;;;;;;;;",
";;;;;;;;;;;;;;;;;;;;;;;;;;;;;;    ;;;;;;;;; %=== @@@@@@@@@@@@@@@@---- ;;;;;;;;;;;;;;;;;;;;;;;;;;",
";;;;;;;;;;;;;;;;;;;;;;;;;;;;;;;;;;;;;;;;;;; ==  @    @@@@@@@@@@@@  -- ;;;;;;;;;;;;;;;;;;;;;;;;;;",
";;;;;;;;;;;;;;;;;;;;;;;;;;;;;;;;;;;;;;;;;;;;  ;;;;;;;            ;;   ;;;;;;;;;;;;;;;;;;;;;;;;;;",
";;;;;;;;;;;;;;;;;;;;;;;;;;;;;;;;;;;;;;;;;;;;;;;;;;;;;;;;;;;;;;;;;;;;;;;;;;;;;;;;;;;;;;;;;;;;;;;;",
";;;;;;;;;;;;;;;;;;;;;;;;;;;;;;;;;;;;;;;;;;;;;;;;;;;;;;;;;;;;;;;;;;;;;;;;;;;;;;;;;;;;;;;;;;;;;;;;",
";;;;;;;;;;;;;;;;;;;;;;;;;;;;;;;;;;;;;;;;;;;;;;;;;;;;;;;;;;;;;;;;;;;;;;;;;;;;;;;;;;;;;;;;;;;;;;;;",
";;;;;;;;;;;;;;;;;;;;;;;;;;;;;;;;;;;;;;;;;;;;;;;;;;;;;;;;;;;;;;;;;;;;;;;;;;;;;;;;;;;;;;;;;;;;;;;;",
";;;;;;;;;;;;;;;;;;;;;;;;;;;;;;;;;;;;;;;;;;;;;;;;;;;;;;;;;;;;;;;;;;;;;;;;;;;;;;;;;;;;;;;;;;;;;;;;",
";;;;;;;;;;;;;;;;;;;;;;;;;;;;;;;;;;;;;;;;;;;;;;;;;;;;;;;;;;;;;;;;;;;;;;;;;;;;;;;;;;;;;;;;;;;;;;;;",
";;;;;;;;;;;;;;;;;;;;;;;;;;;;;;;;;;;;;;;;;;;;;;;;;;;;;;;;;;;;;;;;;;;;;;;;;;;;;;;;;;;;;;;;;;;;;;;;",
";;;;;;;;;;;;;;;;;;;;;;;;;;;;;;;;;;;;;;;;;;;;;;;;;;;;;;;;;;;;;;;;;;;;;;;;;;;;;;;;;;;;;;;;;;;;;;;;",
";;;;;;;;;;;;;;;;;;;;;;;;;;;;;;;;;;;;;;;;;;;;;;;;;;;;;;;;;;;;;;;;;;;;;;;;;;;;;;;;;;;;;;;;;;;;;;;;",
";;;;;;;;;;;;;;;;;;;;;;;;;;;;;;;;;;;;;;;;;;;;;;;;;;;;;;;;;;;;;;;;;;;;;;;;;;;;;;;;;;;;;;;;;;;;;;;;",
";;;;;;;;;;;;;;;;;;;;;;;;;;;;;;;;;;;;;;;;;;;;;;;;;;;;;;;;;;;;;;;;;;;;;;;;;;;;;;;;;;;;;;;;;;;;;;;;",
";;;;;;;;;;;;;;;;;;;;;;;;;;;;;;;;;;;;;;;;;;;;;;;;;;;;;;;;;;;;;;;;;;;;;;;;;;;;;;;;;;;;;;;;;;;;;;;;",
";;;;;;;;;;;;;;;;;;;;;;;;;;;;;;;;;;;;;;;;;;;;;;;;;;;;;;;;;;;;;;;;;;;;;;;;;;;;;;;;;;;;;;;;;;;;;;;;"
};
