/* XPM */
static char *sprite_535_front[] = {
/* columns rows colors chars-per-pixel */
"96 96 13 1 ",
"  c #010101",
". c #181818",
"X c gray16",
"o c #414141",
"O c #626262",
"+ c #945A4A",
"@ c #39628B",
"# c #7394C5",
"$ c #6ABDFF",
"% c #C59C83",
"& c #FFDEBD",
"* c white",
"= c #000000",
/* pixels */
"================================================================================================",
"================================================================================================",
"================================================================================================",
"================================================================================================",
"================================================================================================",
"================================================================================================",
"================================================================================================",
"================================================================================================",
"================================================================================================",
"================================================================================================",
"================================================================================================",
"================================================================================================",
"================================================================================================",
"================================================================================================",
"================================================================================================",
"================================================================================================",
"================================================================================================",
"================================================================================================",
"================================================================================================",
"================================================================================================",
"================================================================================================",
"================================================================================================",
"================================================================================================",
"================================================================================================",
"================================================================================================",
"================================================================================================",
"================================================================================================",
"================================================================================================",
"================================================================================================",
"================================================================================================",
"================================================================================================",
"=============================================XXXXXX=============================================",
"===========================================oXooooooXX===========================================",
"=========================================oo**&&&&%ooo X=========================================",
"======================================ooo&&*o &&&&&%ooo ========================================",
"====================================@oOo&&&% o&oo&&&%ooo =======================================",
"===================================@oOo&&OOo&&&+ %&&&%oooX======================================",
"==================================@#OOo&& &&&&&&&ooO&&oooXXo====================================",
"=================================@$oOo&& * &&&&&&& &&&%oXOOOo ==================================",
"================================= $oOo&&   &&&&&& * &&%XOOOOOO =================================",
"================================= #oo.&&o o&&&&&&   &&+oOOOo$# =================================",
"================================= #oo &&&O&&&&&&&o o&&XOOOo$$$# ================================",
"================================== oo &&&&&O&&&&&&O&&&XOOo#$$$# ================================",
"================================== oo &&&&Oo%&& &&&&&+XoOo$$$## ================================",
"=================================== oX%&&&&&o  %O&&&%XXooX##### ================================",
"====================================XXo%&&&&&&&&&&&%%X ooX####@=================================",
"====================================== %%%&&&&&&%%%%OX oooX### =================================",
"======================================= o%%%%%%%%%%OXXX.oooo  ==================================",
"======================================== Xo%%%%%%OXXXXX.    ====================================",
"=========================================  XXXXXXXXXX  =========================================",
"===========================================   XXXX   @==========================================",
"==============================================    X ## =========================================",
"===============================================@## X ## ========================================",
"===============================================@## XX ## =======================================",
"===============================================@## XX ### ======================================",
"===============================================@### .#### ======================================",
"================================================@###@##### =====================================",
"================================================@$$##@#### =====================================",
"================================================@$$$$@$$$$#@====================================",
"=================================================@$$$$@$$$$ ====================================",
"=================================================@#$$$#$$$$ ====================================",
"==================================================@$$$$#$$$ ====================================",
"===================================================@$$$$$$$@====================================",
"====================================================@@$$$$@=====================================",
"======================================================@@@@======================================",
"================================================================================================",
"================================================================================================",
"================================================================================================",
"================================================================================================",
"================================================================================================",
"================================================================================================",
"================================================================================================",
"================================================================================================",
"================================================================================================",
"================================================================================================",
"================================================================================================",
"================================================================================================",
"================================================================================================",
"================================================================================================",
"================================================================================================",
"================================================================================================",
"================================================================================================",
"================================================================================================",
"================================================================================================",
"================================================================================================",
"================================================================================================",
"================================================================================================",
"================================================================================================",
"================================================================================================",
"================================================================================================",
"================================================================================================",
"================================================================================================",
"================================================================================================",
"================================================================================================",
"================================================================================================",
"================================================================================================"
};
