/* XPM */
static char *sprite_584_front[] = {
/* columns rows colors chars-per-pixel */
"96 96 14 1 ",
"  c #010101",
". c #204173",
"X c #414173",
"o c #5A4A7B",
"O c #2962AC",
"+ c #835AAC",
"@ c #7B8BBD",
"# c #7BA4C5",
"$ c #6AA4EE",
"% c #BDBDDE",
"& c #A4DEF6",
"* c #D5D5EE",
"= c white",
"- c #000000",
/* pixels */
"------------------------------------------------------------------------------------------------",
"------------------------------------------------------------------------------------------------",
"------------------------------------------------------------------------------------------------",
"------------------------------------------------------------------------------------------------",
"------------------------------------------------------------------------------------------------",
"------------------------------------------------------------------------------------------------",
"------------------------------------------------------------------------------------------------",
"------------------------------------------------------------------------------------------------",
"------------------------------------------------------------------------------------------------",
"------------------------------------------------------------------------------------------------",
"------------------------------------------------------------------------------------------------",
"------------------------------------------------------------------------------------------------",
"------------------------------------------------------------------------------------------------",
"------------------------------------------------------------------------------------------------",
"------------------------------------------------------------------------------------------------",
"------------------------------------------------------------------------------------------------",
"------------------------------------------------------------------------------------------------",
"------------------------------------------------------------------------------------------------",
"------------------------------------------------------------------------------------------------",
"------------------------------------------------------------------------------------------------",
"-----------------------------------------@@@@@--------------------------------------------------",
"----------------------------------------@=====@-------------------------------------------------",
"-------------------------------------@@@=======@------------------------------------------------",
"-----------------------------------@@==@====%@XX---------@@@@-----------------------------------",
"----------------------------------@%=======@X------------X===@@---------------------------------",
"----------------------------------X======%@=X-------------X====X--------------------------------",
"----------------------------------X==========X-------------@==== -------------------------------",
"----------------------------------@%========= -----------@@X==== -------------------------------",
"---------------------------------@%X========% ---------@@==@===%X-------------------------------",
"-------------------------------@@===X%======X---------@=======@@--------------------------------",
"------------------------------@======@@===@@@---------@=========X-------------------------------",
"-----------------------------@===============@--------X==========X------------------------------",
"----------------------------@=================@-------@X========= -----OOO----------------------",
"---------------------------@==================X------@==@%====== ----OO$O$O---------------------",
"---------------------------@===#&#============X----@%=========@@--- O$&..O$ --------------------",
"--------------------------O===#&&&#============X--@=============@ O$$==O.O$ --------------------",
"-------------------------O&&==#&o&#==###======= -X============= O$==O&&&$$O --------------------",
"------------------$$-----O&$=#&o+&#=#&&&#====== X=============O$=O&&O$$$O  ---------------------",
"-----------------$=&$O--X=$==#&+o&**&#o&#======X==============O$$O$$$O  ------------------------",
"-----------------O=$&&O-X====#&o&#=#&o+&#======@===============O$$O  ---------------------------",
"-----------------O==$&&$======#&&#=#&++&#==&==%=================O X-----------------------------",
"-----------------O&=$OO$O======##==#&o#&%=&&&==&==================X-----------------------------",
"------------------O&=$$$@==o@======#&&&#==%&$=&&&==@XX@============ ----------------------------",
"------------------O&=$$X===o++%=====###====$==%&$=X@==%X=========== ----------------------------",
"------------------@O&$X====@++++@%=============$=======@===%XX@====X----------------------------",
"------------------X%  ===$===o+++++++o@====================@==%X==$O----------------------------",
"------------------X%%%*=$&$====@++++++@========================@==$&O---------------------------",
"------------------X%%%%*&OO========o+=============+@==============%&O---------------------------",
"-------------------X%@%%*.=========+@=============o++%=============X----------------------------",
"--------------------XX%%%*========================%++++%====%+o====X----------------------------",
"--------------------OX%%%%%*============$===========@+++++++++@====X----------------------------",
"--------------------O$X%%%%%%*=========$&$%==$========@++++++@=====*X---------------------------",
"---------------------.$XX%%@%%%*======$&O$$=$&$%===================$$$OO------------------------",
"--------------------- $$$XXX%%%%%%*====$..=$&O$$=================$O&==&$ -----------------------",
"---------------------- $$O$$X%%%%%%%%*==$===$..=============$===$&==&O$& -----------------------",
"-----------------------.$$OO$XX%%%%%X%%%%%%%%$*============O&$=*XOO$$&& ------------------------",
"------------------------..$$$$$XXX  $XX%%%X%%%%%%%*=======*$OO%%X$$O&&$ ------------------------",
"--------------------------O$$$$$$$$$$$$XXX X%%%%%%%%%%%%%%%%O%%%%X$O&$ -------------------------",
"--------------------------O$$$$$$$$$$$$$$$$OX@%%@%%%%%%%%%%%%%%%%%O  OX-------------------------",
"--------------------------O$O$$$$O$$$OOO$O$$$XXX@%%%%%%%%%%%%%%@%%%%%X--------------------------",
"--------------------------O$&O$$ -O$$$$$O$O$$$O$X%%%%%%%%@%%%%%X%%%@ ---------------------------",
"---------------------------O&O$$ -.$$$$O$$O$$$$OOX%%%%%%%X%%%@ $XX  ----------------------------",
"---------------------------O&$$ --.$$$$O$$$$$O$$$$XX%%%X $X  X$$$O------------------------------",
"---------------------------O=$$ --.$&$O$$$$O$$OO$$$$XXX$$$$$$$$  -------------------------------",
"--------------------------- =$ ---O$==O$$$$O$$$O.  $$$$$$$$$$  ---------------------------------",
"--------------------------- &$ ---O&==O$$$$O$$$ --O$$$O$$O  O-----------------------------------",
"---------------------------- O----O&==$O$$O$$$O---O$$O$O ---------------------------------------",
"----------------------------------O&==$O$O$$$$ ---O$$O$O ---------------------------------------",
"----------------------------------O$==$OO$$$$ -----O$O$ ----------------------------------------",
"-----------------------------------$==O$O$$$$ -----O$OO ----------------------------------------",
"-----------------------------------O==O$O$$$ ------O$$.-----------------------------------------",
"-----------------------------------O==&$$O$$ ------O$$ -----------------------------------------",
"-----------------------------------O&=&$$O$.--------O ------------------------------------------",
"-----------------------------------O&=&$O$.-----------------------------------------------------",
"-----------------------------------O&=&O$$ -----------------------------------------------------",
"-----------------------------------O$=O$$O------------------------------------------------------",
"------------------------------------O=$O$ ------------------------------------------------------",
"------------------------------------O&$O.-------------------------------------------------------",
"------------------------------------ &$$ -------------------------------------------------------",
"------------------------------------ O$.--------------------------------------------------------",
"-------------------------------------  ---------------------------------------------------------",
"------------------------------------------------------------------------------------------------",
"------------------------------------------------------------------------------------------------",
"------------------------------------------------------------------------------------------------",
"------------------------------------------------------------------------------------------------",
"------------------------------------------------------------------------------------------------",
"------------------------------------------------------------------------------------------------",
"------------------------------------------------------------------------------------------------",
"------------------------------------------------------------------------------------------------",
"------------------------------------------------------------------------------------------------",
"------------------------------------------------------------------------------------------------",
"------------------------------------------------------------------------------------------------",
"------------------------------------------------------------------------------------------------",
"------------------------------------------------------------------------------------------------",
"------------------------------------------------------------------------------------------------",
"------------------------------------------------------------------------------------------------"
};
