/* XPM */
static char *sprite_526_back[] = {
/* columns rows colors chars-per-pixel */
"96 96 12 1 ",
"  c black",
". c #202029",
"X c #6A2020",
"o c #202941",
"O c #29396A",
"+ c gray29",
"@ c #9C3131",
"# c #E63131",
"$ c #EE7373",
"% c #41528B",
"& c #838383",
"* c None",
/* pixels */
"************************************************************************************************",
"************************************************************************************************",
"************************************************************************************************",
"************************************************************************************************",
"************************************************************************************************",
"************************************************************************************************",
"************************************************************************************************",
"************************************************************************************************",
"************************************************************************************************",
"************************************************************************************************",
"************************************************* **********************************************",
"************************************************ #X*********************************************",
"************************************************ #X*********************************************",
"************************************************X#@X********************************************",
"************************************************X#@X********************************************",
"*********************************************** ##@X********************************************",
"*********************************************** ##@@X*******************************************",
"***********************************************X#@@@X*******************************************",
"***********************************************X#@@@X*******************************************",
"********************************************** ##@@@@ ******************************************",
"********************************************** ##@@@@ ******************************************",
"********************************************** #@@@@@ ******************************************",
"**********************************************X#@@@@@@ *****************************************",
"********************************************* ##@@@  @ *****************************************",
"*************************************XX*****  ##@@ OO .** X*************************************",
"******************************XX***** #X*** % ## OOOOO%.* #X************************************",
"*****************************X$$X**** #X** %% # OOOOOO%%. #X************************************",
"*****************************X$@#X*** ##X* %%. OOOOOOOO%o ##X***********************************",
"**************************** $$@##X** ##X %%%.OOOOOOOOO% ###X***********************************",
"**************************** $#@@##X* #@@ %%O.OOOOOOOOOO ###X***********************************",
"**************************** $@@X###X @@X%%%.OOOOOOOOOOO ###X***********************************",
"***************************** @@@X###X@@ %%%.OOOOOOOOOOO @## ***********************************",
"***************************** @@@@X###X@ %%%.OOOOOOOOOOOXXX# ***********************************",
"****************************** @@@X@### o%%O..OOOOOOOOO @@@X ***********************************",
"****************************** @@@@X#### %    o..OOOOOO @@@@ ***********************************",
"******************************* @@@@X#### O..O.  ...OOO @@@@ ***********************************",
"******************************* @@@@@####@ .OOOO   o... @@@@ ***********************************",
"********************************X@@@@X##@@@ OOOOOO.  oooX@@ ************************************",
"******************************** @@@@@X@@@@ OOOOOOOO. ooX@@ ************************************",
"******************************** @@@@@@X@@@@ OOOOOOO . o @ *************************************",
"********************************* @@@@@@X@@@ OOOOOOO .   @ *************************************",
"********************************* @@@@@@@X@@ OOOOOOOO. X  **************************************",
"********************************** @@@@@@X@@ OOOOOOOO .  ***************************************",
"********************************** @@@@@@@X OOOOOOOOO . ****************************************",
"**********************************. @@@@@@@ OOOOOOOOO . ****XX**********************************",
"****************************** ***O @@@@@@ OOOOOOOOOOo.. *XX##X*********************************",
"***************************** @ *.OO @@@@@ OOOOOOOOOOO . X###@X*********************************",
"************************XX** @@X .OO @@@@ OOOOOOOOOOOO . ###@@X****X****************************",
"**************@@******** @X* @XX@ OOO @@ OOOOOOOOOOOOO . ##X@X**** # ***@@**********************",
"************* ##@******* @@X @X@X# OOO  OOOOOOOOOOOOOOo.. X@@X*** @# ** ## *********************",
"************* @##@****** @@@X @@@X#  OoOOOOOOOOOOOOOOOO.. @@@X*** @## * #@ *********************",
"************* @@##@****** @@@ @@@@X#@ oOOOOOOOOOOOOOOOO . @@X*** #@##  @#@ *********************",
"**************X@###@***** @@@ X@@@X@@@ OOOOOOOOOOOOOOOO . @@X***X##X#  #@# *********************",
"************** @@###@**** @@@@ @@@@X@@@ OOOOOOOOOOOOOOO .. @X**X##X@X X@@# *********************",
"************** @@@###@**** @@@.X@@@@X@@ OOOOOOOOOOOOOOOo.. X**X###X@@ @@@@ *********************",
"***************X@@####@*** @@ o @@@@@@@@ OOOOOOOOOOOOOOO.. X**X##@@@@  @@@ *********************",
"*************** @@@####@    @ OOX@@@@X@@ OOOOOOOOOOOOOOO... *X###@@@@ o @@ *********************",
"*************** @@@####.OO.o oOO @@@@@X@ OOOOOOOOOOOOOOO...  X##X@@@X oo @@ ********************",
"****************X@@@##oOOOoo ooOO @@@@XXoOOOOOOOOOOOOO..oo o ###X@@@ ooo @@ ********************",
"**************** @@@@oOOO.oo oooOO @@@@ OOOOOOOOOOO...ooo oo ##X@@@@ oooo @ ********************",
"**************** @@@oOOOO.oo ooooOO @@ OOOOOOOO....oooooo oo ##X@@@@ oooo @ ********************",
"*****************X@oOOOO.ooo ooooooO  OOOOO....oooooooo  oooo @@@@@@ ooooo  ********************",
"*****************X@OOOOO.oo  oooooooOOOoooooooooooooo +& oooo X@@@@@ ooooOo ********************",
"*****************XoOOOO.oo && oooooooooooooooooooooo +&& ooooo @@@@X ooooOOo.*******************",
"*****************oOOOOO.o ++& ooooooo oooooooooooooo +++ ooooo @@@@Xo ooooOO.*******************",
"*****************oOOOOO.o ++++ oooooo oooooooooooooo +++ oooooo @@@ O ooooOOO *X****************",
"****************oOOOOOO.oo +++  oooooo ooooooooooooo +++ ooooooo @@ Oo oooOOO X#X***************",
"**********X*****oOOOOOO.ooo  ...  oooo oooooooooooooo ++ oooooooo  oOO ooooOO X#X***************",
"*********X# ***oOOOOOO.oooooo ....  ooo oooooooooo       ooooooooo.OOOO oooOO @##X**************",
"*********X#X***oOOOOOo.oooooo ......  oo ooooo    ****** oooooooooooOOO oooOOo@@#X**************",
"*********X#@ * OOOOOoo.oooooo ........        ********* ooooooooooo.OOOO ooOOO @@X**************",
"*********X##X* OOOooo.oooooooo ....... **************** oooooooooooooOOO o ooo @@@ *************",
"*********X##@ OX oooo...oooooo ....... **************** oooooooooooo.OOOO @ oo @@@ *************",
"********X##@@ X# oooo.oo.ooo... ....  **************** ooooooooooooo.OOO @@ oo @@  *************",
"********X#@@@@X# oooo.ooo.o..ooo    ***************** ooooooooooooooooOO @@ oo   ***************",
"********X@@@@X## oooo.oooo..oooo ******************* oooooooooooooooooO @@@ o ******************",
"********X@@@@X## ooo.ooooo.ooooo ******************* ooooooooooooo oooo X@@  *******************",
"********X@@@@X#@@ oo.ooooo.ooooo ******************* oooooooooooo @ oo XXX@X *******************",
"********    X@@@@ oo.ooooo.ooo  ******************** oooooooooooo @ oo XXXXX *******************",
"************X@@@@   .ooooo.  ************************ oooooooooo X@@ oXXXXXX *******************",
"************X@@  ***      **************************** ooooooooo XX@X XXXXXX *******************",
"************   ****************************************   ooooo XXX@XXXXXXXX *******************",
"**********************************************************      XXXXX   XXXX *******************",
"*************************************************************** XXXXX **     *******************",
"****************************************************************  XX ***************************",
"******************************************************************   ***************************",
"************************************************************************************************",
"************************************************************************************************",
"************************************************************************************************",
"************************************************************************************************",
"************************************************************************************************",
"************************************************************************************************",
"************************************************************************************************",
"************************************************************************************************",
"************************************************************************************************",
"************************************************************************************************"
};
