/* XPM */
static char *sprite_297_front[] = {
/* columns rows colors chars-per-pixel */
"96 96 16 1 ",
"  c #010101",
". c #39416A",
"X c #834A31",
"o c #8B6A52",
"O c #AC7B4A",
"+ c #B46A52",
"@ c #D5835A",
"# c #EE9C62",
"$ c #D5A462",
"% c #FFD57B",
"& c #626294",
"* c #D5B483",
"= c #E6D5A4",
"- c #F6E6C5",
"; c white",
": c None",
/* pixels */
"::::::::::::::::::::::::::::::::::::::::::::::::::::::::::::::::::::::::::::::::::::::::::::::::",
"::::::::::::::::::::::::::::::::::::::::::::::::::::::::::::::::::::::::::::::::::::::::::::::::",
"::::::::::::::::::::::::::::::::::::::::::::::::::::::::::::::::::::::::::::::::::::::::::::::::",
"::::::::::::::::::::::::::::::::::::::::::::::::::::::::::::::::::::::::::::::::::::::::::::::::",
"::::::::::::::::::::::::::::::::::::::::::::::::::::::::::::::::::::::::::::::::::::::::::::::::",
"::::::::::::::::::::::::::::::::::::::::::::::::::::::::::::::::::::::::::::::::::::::::::::::::",
"::::::::::::::::::::::::::::::::::::::::::::::::::::::::::::::::::::::::::::::::::::::::::::::::",
"::::::::::::::::::::::::::::::::::::::::::::::::::::::::::::::::::::::::::::::::::::::::::::::::",
"::::::::::::::::::::::::::::::::::::::::::::::::::::::::::::::::::::::::::::::::::::::::::::::::",
"::::::::::::::::::::::::::::::::::::::::::::::::::::::::::::::::::::::::::::::::::::::::::::::::",
"::::::::::::::::::::::     :::::::::::::::::::::::::::::::::::::::::::::::::::::::::::::::::::::",
"::::::::::::::::::::: ##### :::XXX::::::::::::::::::::::::::::::::::::::::::::::::::::::::::::::",
"::::::::::::::::::::: ##### ::X###X ::::::::::::::::::::::::::::::::::::::::::::::::::::::::::::",
":::::::::::::::::::: ###### :X#@++++ :::::::::::::::::::::::::::::::::::::::::::::::::::::::::::",
":::::::::::::::::::: ###### :X#@++++ :::::::::::::::::::::::::::::::::::::::::::::::::::::::::::",
":::::::::::::::::::: ###### :X#+++++ :::::::::::::::::::::::::::::::::::::::::::::::::::::::::::",
":::::::::::::::::::: #####XX:X#+++++ :::::::::::::::::::::::::::::::::::::::::::::::::::::::::::",
"::::::::::::::::::: ###### ::X@+++++ :::::::     :::::::::::::::::::::::::::::::::::::::::::::::",
"::::::::::::::::::: ###### :X@+++++ ::::::  ***** ::::::::::::::::::::::::::::::::::::::::::::::",
":::::::::::::  :::: ###### :X@+++++ ::::: *---=*** :::::::::::::::::::::::::::::::::::::::::::::",
":::::::::::: ## ::: ###### :X@+++++ ::   =-----=*** ::::::::::::::::::::::::::::::::::::::::::::",
"::::::::::: #### :: ######@ ++++++ :  ..=------=*** ::::::::::::::::::::::::::::::::::::::::::::",
":::::::::: ######   ######@@++++++  ...*-------****o  ::::::::::::::::::::::::::::::::::::::::::",
":::::::::: #######+ #######@++++++ &...-------=***o... :::::::::::::::::::::::::::::::::::::::::",
":::::::::: ########+#######@+++++ &...*-------=**...... ::::::::::::::::::::::::::::::::::::::::",
":::::::::::  ##############+++++ &&...*------=*o........ :::::::::::::::::::::::::::::::::::::::",
"::::::::::::: ############@++++ &&....------=o.......oo  :::::::::::::::::::::::::::::::::::::::",
":::::::::::::: ###########+++++ &&...*-----=........o==== ::::::::::::::::::::::::::::::::::::::",
"::::::::::::::: #########++++++ &&...*-----&&&.....o====== :::::::::::::::::::::::::::::::::::::",
"::::::::::::::: #########+++++++ &&..-----&&&&&....*=ooo== :::::::::::::::::::::::::::::::::::::",
":::::::::::::::: ######@++XXXX++ &&..----*&&&&&..  =o   == :::::::::::::::::::::::::::::::::::::",
":::::::::::::::: +@###+++*--**XX &&..----&&&&&.  *o=o   == ::::::::XXX::::::::::::::::::::::::::",
"::::::::::::::::: ++++++*------** .&.*---&&&&. =o*o=o  o= ::::::::X###XXX:::::::::::::::::::::::",
"::::::::::::::::: ++++++--------  .&.*--&&&&. ==o*** oo*  :::::::X#######XX:::::::::::::::::::::",
":::::::::::::::::: ++++X------- - ;.&o--&&&.  ;;*==**** ** ::::::X##@@#####X::::::::::::::::::::",
":::::::::::::::::::  ++X*----- --- .&&-&&&. = ;o===o   **** ::::X##++++@####X:::::::::::::::::::",
":::::::::::::::::::::    ---- ---- o.&o&. oo;*===** ******** :::X#+++++++@## :::::::::::::::::::",
"::::::::::::::::::::::::: --- -----  &&& **=====*  *****oooo :: ##+++++++++@ :::::::::::::::::::",
":::::::::::::::::::::::::: - ------- .&.o***==   *****oo****o : #@+++++++++  :::::::::::::::::::",
":::::::::::::::::::::::::::  --------o.oooo   ****X    ******* ##++++++++++ ::::::::::::::::::::",
"::::::::::::::::::::::XXXXX ---------=**********XX##### ***** ##@+++++++++ :::::::::::::::::::::",
"::::::::::::::::::XXXX%%%%% -----------********X######## **** ##++++++++++ :::XXX:::::::::::::::",
"::::::::::::::::XX%%%%%%%OO ------------******X##@+++++# *** #@@+++++++++ :::X###X::::::::::::::",
":::::::::::::::X%%%%%%OOO%% -------------*****X@+++++++##   X@++++++++++ :::X#####X:::::::::::::",
"::::::::::::::X%%%%%%O%%%%%X-------------*****X+++++++++#X##++++++++++++ :::X#@+@##X::::::::::::",
"::::::::::::::X%%%%%%%%%%%OOX=#####@=----*****X+++++++++#X##++++++++++++ ::X##+++###X:::::::::::",
":::::::::::::XO%%%%%%%%OOO%%X########@----**** +++++++++#X@++++++++++++ :: ##+++++##++::::::::::",
":::::::::::::X%%%%%%%OO%%%%% #########@---***** ++++++++++++++++++++++ :  #@+++++++##X::::::::::",
"::::::::::::: %%%%%%%%%%%%%%% #########@---**** +++++++++++++++++++++   @@++++++++++# ::::::::::",
"::::::::::::: %%%%%%%%%%%%%%% ##########@--****o +++++++++++++++++++++@@++++++++++++@ ::::::::::",
"::::::::::::: %%%%%%%%%%% %%O% #########@-X  oo$$ +++++++++++++++++++++++++++++++++++ ::::::::::",
"::::::::::::: %%%%%%%    %%%O% #####@X    O$$$$O$$ +++++++++++++++++++++++++++++++++ :::::::::::",
"::::::::::::: %%%%   .&& %%O%%% @@X  $$O$$$$$$$O$$$ +++++++++++++++++++++++++++++++ ::::::::::::",
"::::::::::::: %%  ..&&& %%%O%%%%  O$$$O$$$$$$$$$O$$ +++++++++++++++++++++++++++++  :::::::::::::",
"::::::::::::::  : .&&&& %%O%%%%O%%$$$O$$$$$$$$$$O$$$ +++++++++++++++++++++++++   :::::::::::::::",
"::::::::::::::::: .&&& %%%O%%%%O%%%%$O$$$$$$$$$$$O$$ +++++++++++++++++++++++  ::::::::::::::::::",
":::::::::::::::: .&&&& %%O%%%%O%%%%%O$$$$$$$$$$$$O$$$ ++++++++++++++++++++  ::::::::::::::::::::",
":::::::::::::::: .&&& %%%O%%%%O%%%%%O%$$$$$O$$$$$$O$$ +++++++++++++++++++ ::::::::::::::::::::::",
":::::::::::::::: .&&& %%%%%%%O%%%%%O%%%$$$$ $$$$$$O$$$ +++++++++++++++++ $ :::::::::::::::::::::",
":::::::::::::::: .&& %%%%%%%%O%%%%%O%%%$$$ . $$$$$$$$$$ +++++++++++++++ $$$ ::::::::::::::::::::",
":::::::::::::::: .&& %%%%%%%%%%%%%%O%%%$$$ . $$$$$$$$$$$ ++++++++++++  $$$$$ :::::::::::::::::::",
"::::::::::::::::: .& %%%%%%%%%%%%%O%%%%%$$ . $$$$$$$$$$$$  +++++++   $$$$$$$ :::::::::::::::::::",
"::::::::::::::::: .& %%%%%%%%%%%%%O%%%%%$$ .. $$$$$$$$$$$$$       $$$$$$$$$$ :::::::::::::::::::",
"::::::::::::::::: ..& %%%%%%%%%%%%%%%%%%$ ... $$$$$$$$$$$$$$$$ .. $$$$$$$$$ ::::::::::::::::::::",
":::::::::::::::::: ... O%%%%%%%%%%%%%%%%$ ... $$$$$$$$$$$$$$$$ ... $$$$$$$ :::::::::::::::::::::",
":::::::::::::::::: ....  %%%%%%%%%%%%%%%$ .... $$$$$$$$$$$$$$$$ .. $$$$$$ ::::::::::::::::::::::",
"::::::::::::::::::: .....  %%%%%%%%%%%%% ..... $$$$$$$$$$$$$$$$ ... $$$$ :::::::::::::::::::::::",
":::::::::::::::::::: ......  %%%%%%%%%%$ ..... $$$$$$$$$$$$$$$$$ .. $$O ::::::::::::::::::::::::",
"::::::::::::::::::::: .......  %%%%%%%%  ...... $$$$$$$$$$$$$$$$ ...   :::::::::::::::::::::::::",
":::::::::::::::::::::: ........   %%%%% : ..... $$$$$$$$$$$$$$$O ..... :::::::::::::::::::::::::",
"::::::::::::::::::::: X  .........     :: ..... $$$$$$$$$$$O   ....... :::::::::::::::::::::::::",
":::::::::::::::::::: XXXX    ......  ::::: ..... $$$$$O    ........... :::::::::::::::::::::::::",
":::::::::::::::::::: XX ++++X      ::::::: ......     ............... ::::::::::::::::::::::::::",
":::::::::::::::::::::   ++++XX  ::::::::::: ......................... ::::::::::::::::::::::::::",
"::::::::::::::::::::::: +++XX :::::::::::::: ....................... :::::::::::::::::::::::::::",
"::::::::::::::::::::::::     :::::::::::::::: ..................... ::::::::::::::::::::::::::::",
"::::::::::::::::::::::::::::::::::::::::::::::  ................   :::::::::::::::::::::::::::::",
"::::::::::::::::::::::::::::::::::::::::::::::::   .........    X++ ::::::::::::::::::::::::::::",
":::::::::::::::::::::::::::::::::::::::::::::::::::         X++++++X :::::::::::::::::::::::::::",
":::::::::::::::::::::::::::::::::::::::::::::::::::::: +++++++++++@@ :::::::::::::::::::::::::::",
":::::::::::::::::::::::::::::::::::::::::::::::::::::: ++++X++++@@@@X ::::::::::::::::::::::::::",
":::::::::::::::::::::::::::::::::::::::::::::::::::::: X++@@X+@@@@@++ ::::::::::::::::::::::::::",
"::::::::::::::::::::::::::::::::::::::::::::::::::::::: +@@@@ +++++++ ::::::::::::::::::::::::::",
"::::::::::::::::::::::::::::::::::::::::::::::::::::::: +++++ +++++  :::::::::::::::::::::::::::",
":::::::::::::::::::::::::::::::::::::::::::::::::::::::: X++       :::::::::::::::::::::::::::::",
":::::::::::::::::::::::::::::::::::::::::::::::::::::::::   ::::::::::::::::::::::::::::::::::::",
"::::::::::::::::::::::::::::::::::::::::::::::::::::::::::::::::::::::::::::::::::::::::::::::::",
"::::::::::::::::::::::::::::::::::::::::::::::::::::::::::::::::::::::::::::::::::::::::::::::::",
"::::::::::::::::::::::::::::::::::::::::::::::::::::::::::::::::::::::::::::::::::::::::::::::::",
"::::::::::::::::::::::::::::::::::::::::::::::::::::::::::::::::::::::::::::::::::::::::::::::::",
"::::::::::::::::::::::::::::::::::::::::::::::::::::::::::::::::::::::::::::::::::::::::::::::::",
"::::::::::::::::::::::::::::::::::::::::::::::::::::::::::::::::::::::::::::::::::::::::::::::::",
"::::::::::::::::::::::::::::::::::::::::::::::::::::::::::::::::::::::::::::::::::::::::::::::::",
"::::::::::::::::::::::::::::::::::::::::::::::::::::::::::::::::::::::::::::::::::::::::::::::::",
"::::::::::::::::::::::::::::::::::::::::::::::::::::::::::::::::::::::::::::::::::::::::::::::::",
"::::::::::::::::::::::::::::::::::::::::::::::::::::::::::::::::::::::::::::::::::::::::::::::::"
};
