/* XPM */
static char *sprite_447_front[] = {
/* columns rows colors chars-per-pixel */
"96 96 14 1 ",
"  c #101010",
". c #393939",
"X c #104A7B",
"o c #5A5A5A",
"O c #A43131",
"+ c #DE4141",
"@ c #8B8339",
"# c #DEC573",
"$ c #29739C",
"% c #4A9CEE",
"& c #838383",
"* c #B4B4B4",
"= c white",
"- c None",
/* pixels */
"------------------------------------------------------------------------------------------------",
"------------------------------------------------------------------------------------------------",
"------------------------------------------------------------------------------------------------",
"------------------------------------------------------------------------------------------------",
"------------------------------------------------------------------------------------------------",
"------------------------------------------------------------------------------------------------",
"------------------------------------------------------------------------------------------------",
"------------------------------------------------------------------------------------------------",
"------------------------------------------------------------------------------------------------",
"------------------------------------------------------------------------------------------------",
"------------------------------------------------------------------------------------------------",
"------------------------------------------------------------------------------------------------",
"------------------------------------------------------------------------------------------------",
"------------------------------------------------------------------------------------------------",
"------------------------------------------------------------------------------------------------",
"------------------------------------------------------------------------------------------------",
"------------------------------------------------------------------------------------------------",
"------------------------------------------------------------------------------------------------",
"------------------------------------------------------------------------------------------------",
"------------------------------------------------------------------------------------------------",
"------------------------------------------------------------------------------------------------",
"------------------------------------------------------------------------------------------------",
"------------------------------------------------------------------------------------------------",
"------------------------------------------------------------------------------------------------",
"------------------------------------------------------------------------------------------------",
"----------------------------------------------  ------------------------------------------------",
"---------------------------------------------X$  ----  -----------------------------------------",
"-------------------------------------------- $$$ ---X%X ----------------------------------------",
"--------------------------------------------X$$$$XXX%%% ----------------------------------------",
"------------------------------------------- $$%%%%%$%%%$ ---------------------------------------",
"------------------------------------------- %%%%%%%%%%%% ---------------------------------------",
"------------------------------------------ %%%%%%%%%%%%%X---------------------------------------",
"----------------------------------------   $%%%%%%%%%%%%%X--------------------------------------",
"-------------------------------------   . .o%%%%%%%$oo%%%X--------------------------------------",
"-----------------------------------  .... Oo$%%%$oooooo.  --------------------------------------",
"---------------------------------- .o.... +ooooooooo.o.ooo    ----------------------------------",
"---------------------------------- o.o... +ooooooo.+=o ooooooo  --------------------------------",
"---------------------------------- .o...  .ooooo.+ +=oo oooooooo  ------------------------------",
"-----------------------------------  ... .ooooooo+ +=oo oooooooooo -----------------------------",
"-------------------------------------    ooo$%oooO+=oo$$ oooooooooo ----------------------------",
"---------------------------------------- .o%%%%%ooooo$$$  ooooooooo.----------------------------",
"----------------------------------------- X%%%%%%$$$$$$ -- .oooooo. ----------------------------",
"------------------------------------------  %$$$$$$$$X ---- ....... ----------------------------",
"--------------------------------------------  XXX$$X  ------  ...  -----------------------------",
"----------------------------------------------   @@  ---------   -------------------------------",
"--------------------------------------------- XX##  X ------------------------------------------",
"---------------------------------------&&&-- $$X... $$ --&&&------------------------------------",
"--------------------------------------&**XX %$ X...  $$XX***&-----------------------------------",
"-------------------------------------&XX$% %$$ .... -  $$XX**&----------------------------------",
"-------------------------------------X%$%%$X$ - .... -- $$$XXXX---------------------------------",
"------------------------------------X$%%X%$  -- .... --- X$$$$$X--------------------------------",
"------------------------------------X%X%$XX--- $.$.$$ --- X$$X$$X-------------------------------",
"------------------------------------X$$X$ ---.%%.%%%%XX---XX$$X$X-------------------------------",
"-----------------------------XXX-----X   ---.%%%%%%%%$$ ----  XX--------------------------------",
"----------------------------X%%%XX---------- %%%%%%%%$$ ----------------------------------------",
"---------------------------X%%%%%%XXX------ $%%%%%$%$$$$ ---------------------------------------",
"---------------------------X%%%%%%%%%XXXXXX $%%%%$  $$$$ ---------------------------------------",
"--------------------------X%%%%%%%%%$$$$$$$$ $%%$$ $$$$$ ---------------------------------------",
"--------------------------X%% %%%%$$$$$$$$$$ ..   -  $$ ----------------------------------------",
"--------------------------X% XX$$$$$$$$$$$XX .. ---- ..X----------------------------------------",
"--------------------------- ---  X$$$$$  X- ... ---- .. ----------------------------------------",
"----------------------------------    X---- oo ------ .. ---------------------------------------",
"------------------------------------------ ooo ------ ..  --------------------------------------",
"------------------------------------------ ooo ------ ...o -------------------------------------",
"----------------------------------------- oooo ------- .ooo ------------------------------------",
"----------------------------------------- oooo.------- ooooo -----------------------------------",
"-----------------------------------------ooo.o -------- oo.o -----------------------------------",
"---------------------------------------- o.oo. -------- .o.o -----------------------------------",
"---------------------------------------- o.oo ----------    ------------------------------------",
"-----------------------------------------    ---------------------------------------------------",
"------------------------------------------------------------------------------------------------",
"------------------------------------------------------------------------------------------------",
"------------------------------------------------------------------------------------------------",
"------------------------------------------------------------------------------------------------",
"------------------------------------------------------------------------------------------------",
"------------------------------------------------------------------------------------------------",
"------------------------------------------------------------------------------------------------",
"------------------------------------------------------------------------------------------------",
"------------------------------------------------------------------------------------------------",
"------------------------------------------------------------------------------------------------",
"------------------------------------------------------------------------------------------------",
"------------------------------------------------------------------------------------------------",
"------------------------------------------------------------------------------------------------",
"------------------------------------------------------------------------------------------------",
"------------------------------------------------------------------------------------------------",
"------------------------------------------------------------------------------------------------",
"------------------------------------------------------------------------------------------------",
"------------------------------------------------------------------------------------------------",
"------------------------------------------------------------------------------------------------",
"------------------------------------------------------------------------------------------------",
"------------------------------------------------------------------------------------------------",
"------------------------------------------------------------------------------------------------",
"------------------------------------------------------------------------------------------------",
"------------------------------------------------------------------------------------------------",
"------------------------------------------------------------------------------------------------",
"------------------------------------------------------------------------------------------------"
};
