/* XPM */
static char *sprite_552_front[] = {
/* columns rows colors chars-per-pixel */
"96 96 14 1 ",
"  c #101010",
". c #181820",
"X c #292931",
"o c #523910",
"O c #5A5A6A",
"+ c #8B7331",
"@ c #CD737B",
"# c #C59C5A",
"$ c #B4B4BD",
"% c #DEBD83",
"& c #EE94A4",
"* c #C5C5C5",
"= c white",
"- c #000000",
/* pixels */
"------------------------------------------------------------------------------------------------",
"------------------------------------------------------------------------------------------------",
"------------------------------------------------------------------------------------------------",
"------------------------------------------------------------------------------------------------",
"------------------------------------------------------------------------------------------------",
"------------------------------------------------------------------------------------------------",
"------------------------------------------------------------------------------------------------",
"------------------------------------------------------------------------------------------------",
"------------------------------------------------------------------------------------------------",
"------------------------------------------------------------------------------------------------",
"------------------------------------------------------------------------------------------------",
"------------------------------------------------------------------------------------------------",
"------------------------------------------------------------------------------------------------",
"------------------------------------------------------------------------------------------------",
"------------------------------------------------------------------------------------------------",
"------------------------------------------------------------------------------------------------",
"------------------------------------------------------------------------------------------------",
"------------------------------------------------------------------------------------------------",
"------------------------------------------------------------------------------------------------",
"--------------------------------------+++---oo+-------------------------------------------------",
"------------------------------------++#%%+-o++#+------------------------------------------------",
"-----------------------------------+##%%%%o++###+-----------------------------------------------",
"----------------------------------o###o%%#o++###+-----------------------------------------------",
"---------------------------------o###+#####o+o###+----------------------------------------------",
"---------------------------------o###o#####o+o##X+----------------------------------------------",
"--------------------------------o###oXX####oXoX$.Xo---------------------------------------------",
"------------------------------- ####oXX$ XXoXXX .Xo---------------------------------------------",
"------------------------------- ####oXXO XXXXXX.XXo+--------------------------------------------",
"------------------------------ ######oX.XXXXXoooXo#o--------------------------------------------",
"------------------------------ ######oXXXXXo##+.o###o-------------------------------------------",
"------------------------------ ++###o#oXXXo##XXXX ##o-------------------------------------------",
"------------------------------ +++++ #######XXXX..   -------------------------------------------",
"------------------------------- +++++ o  ####X.######  o----------------------------------------",
"--------------------------------  +++o=o+  #######oo####oo--------------------------------------",
"----------------------------------  ++o++++   ###o%%%##%+%o-------------------------------------",
"-----------------------------------o@@   +++++  #o%%oo#### -------------------------------------",
"------------------------------------o@@@@    +++ ######+#+ -------------------------------------",
"------------------------------------o@@@@@@++  ++o+###o+  --------------------------------------",
"------------------------------------o@@@@@@+#o- ++ooo++o= --------------------------------------",
"-----------------------------------oo@@@&&&@# --   *   - ---------------------------------------",
"----------------------------------ooXX&&&&XXX ...--  -------------------------------------------",
"---------------------------------o#oXXXXXXX##+ XX.----------------------------------------------",
"--------------------------------o##   XXXX#### XX.----------------------------------------------",
"------------------------------- #+o### ++ #####X.-----------------------------------------------",
"------------------------------ #+####o++ ###### .-----------------------------------------------",
"------------------------------ X #o###o .###oo# ------------------------.-----------------------",
"----------------------------- XXX  o### X+# @### ----------------------.X.----------------------",
"----------------------------- XXX++ ##+XXX @@### .....----------..-----.XX----------------------",
"----------------------------- XX.    #XXXX @@###X XXX.----------.X..--      --------------------",
"------------------------------   -o&&  XX &&@#XXXX X.-------.---.XX   ##XXX+  ------------------",
"---------------------------------oXX&&&  &@XXXXXXX X.--..--.X.--.  XX####...++ -----------------",
"---------------------------------oXXXXXXXXXXXXXXXX# --.X --.X.-  XXXXX#++.    ------------------",
"--------------------------------@oXXXXXXXXXXXXXXX###  XX -.XXX ###XXX.++  ----------------------",
"-------------------------------+@&XXXXXXXXXXXXX#+%%%## .. .X  XX###...  ------------------------",
"------------------------------+%@&&@XXXXXXX@&@#+%%%%%## X#  XXXXX#+.. --------------------------",
"-----------------------------+%%@&&&&&&&&&&&&&@+%%%%%%## X##+XXXX+++ ---------------------------",
"-----------------------------+%%@&&&&&&&&&&&&&@+%%%%%%## X###+XXX.+ ----------------------------",
"----------------------------+%%%@&&&&&&&&&&&&& ##%%%%#### ####XX..+ ----------------------------",
"----------------------------+%%#o&&&&&&&&&&&&& +XXXX+#### ####.... -----------------------------",
"---------------------------.XX+# &&&&&&&&&&&&& XXXXXXX+### #+++.. ------------------------------",
"---------------------------.XXXXX &&&&&&&&&&&& XXXXXXXXX## ++++.. ------------------------------",
"--------------------------.XXXXXX @&&&&&&&&&&X XXXXXXXXX## ++++. -------------------------------",
"--------------------------.XXXXXX# X@&&&&&@XXX XXXXXXXX+## +++. --------------------------------",
"-------------------------- #++XX## .XXXXXXXXX.X ##+XXXX### +++ ---------------------------------",
"--------------------------- ####### .XXXXX.X.X. +######## +++o----------------------------------",
"--------------------------- +####+++ .......X.X. ++####++ +oo-----------------------------------",
"---------------------------- ++++++++  ........X. +++++++ o-------------------------------------",
"-----------------------------  +++++ --   ........  +++++ --------------------------------------",
"------------------------------- ++. ------      ooo- +++++ -------------------------------------",
"------------------------------- .... ---------------- +++.. ------------------------------------",
"---------------------------    +...+ ----------------- ..... -----------------------------------",
"------------------------OOO+####+++++ ---------------- ....+ -----------------------------------",
"-----------------------O*+==+*+###+++ ---------------O++++++# ----------------------------------",
"----------------------- O==O===###  ----------------O##++++## ----------------------------------",
"------------------------   ==     ------------------O=+####### ---------------------------------",
"--------------------------   ---------------------- =*++=+#+=# ---------------------------------",
"--------------------------------------------------- =   ==+== ----------------------------------",
"---------------------------------------------------  -- *  O* ----------------------------------",
"--------------------------------------------------------  -- -----------------------------------",
"------------------------------------------------------------------------------------------------",
"------------------------------------------------------------------------------------------------",
"------------------------------------------------------------------------------------------------",
"------------------------------------------------------------------------------------------------",
"------------------------------------------------------------------------------------------------",
"------------------------------------------------------------------------------------------------",
"------------------------------------------------------------------------------------------------",
"------------------------------------------------------------------------------------------------",
"------------------------------------------------------------------------------------------------",
"------------------------------------------------------------------------------------------------",
"------------------------------------------------------------------------------------------------",
"------------------------------------------------------------------------------------------------",
"------------------------------------------------------------------------------------------------",
"------------------------------------------------------------------------------------------------",
"------------------------------------------------------------------------------------------------",
"------------------------------------------------------------------------------------------------",
"------------------------------------------------------------------------------------------------"
};
