/* XPM */
static char *sprite_255_front[] = {
/* columns rows colors chars-per-pixel */
"96 96 12 1 ",
"  c #010101",
". c #7B4A18",
"X c #AC4110",
"o c #8B5220",
"O c #E65A20",
"+ c #AC8B00",
"@ c #FF8B31",
"# c #EEBD31",
"$ c #FFAC52",
"% c #F6DE6A",
"& c white",
"* c #000000",
/* pixels */
"************************************************************************************************",
"************************************************************************************************",
"************************************************************************************************",
"************************************************************************************************",
"************************************************************************************************",
"************************************************************************************************",
"************************************************************************************************",
"************************************************************************************************",
"************************************************************************************************",
"************************************************************************************************",
"************************************************************************************************",
"************************************************************************************************",
"************************************************************************************************",
"************************************************************************************************",
"************************************************************************************************",
"************************************************************************************************",
"************************************************************************************************",
"************************************************************************************************",
"************************************************************************************************",
"************************************************************************************************",
"************************************************************************************************",
"************************************************************************************************",
"************************************************************************************************",
"************************************************************************************************",
"************************************************************************************************",
"************************************************************************************************",
"************************************************************************************************",
"******************************************************+++***************************************",
"****************************************************++#% ***************************************",
"***************************************************+%%%% ***************************************",
"**************************************************+#%%%% ***************************************",
"*********************************************+#***+%%%%# ***************************************",
"********************************************+%%#*+%%%%% ****************************************",
"********************************************+%%%#+%%%%% ****************************************",
"********************************************+%%%#%%%%## *+++ ***********************************",
"********************************************+%%%%#X### ++### ***********************************",
"*********************************************+%##X@X#++##### ***********************************",
"*********************************************+##XX@XX###### ************************************",
"*********************************************OOOO@@X@X#### *************************************",
"******************************************OOO@@@@OO@@X##  **************************************",
"****************************************OO@@@@@@@@@@OX  ****************************************",
"***************************************O$$$$@@@@@@@@@@X*****************************************",
"**************************************O$$$$$$@@@@@@@@@@X****************************************",
"*************************************O@$$$$$$@@@@@@@@@@X****************************************",
"*************************************O@@$$$$@@@@@@@@@@@@X***************************************",
"************************************O@@@@@@@@@@@@@@@@@@OX***************************************",
"************************************X.O@@@@@@@@O..O@@@@O ***************************************",
"************************************ & @@@@@@@@ && @@@@O ***************************************",
"************************************ & @@O+O@@@ && @@@OO ***************************************",
"************************************. .@O%%++@@.  .@@@OO ***************************************",
"************************************X.@O%%%%#+@O..O@@OO ****************************************",
"*************************************X@@+++++@@@@@@OOOO ****************************************",
"**************************************X@@@@@@@@@@@OOOO *****************************************",
"***************************************XX@@@@@@@OOOO  ******************************************",
"****************************************+XX@O@OOOX  ********************************************",
"****************************************+#@O@O#%####++******************************************",
"***************************************+%#+@@+%%%#####+*****************************************",
"**************************************+%%%+@@+%%%#%#+ ******************************************",
"***************************************+%#+@@@+%#+%%+X *****************************************",
"***************************************X#+@@@@O#+X+%XX *****************************************",
"****************************************XOO@@OOOOXXXX ******************************************",
"****************************************XOOOOOOOXXXX *******************************************",
"*****************************************XXOOOOXXX  ********************************************",
"*******************************************      o+ ********************************************",
"********************************************o +*o+o*********************************************",
"*****************************************   +ooo++ o+*******************************************",
"**************************************** +++o%%#%#+o *******************************************",
"****************************************  +o+%o%o%  ********************************************",
"*****************************************  **  % % *********************************************",
"*********************************************** * **********************************************",
"************************************************************************************************",
"************************************************************************************************",
"************************************************************************************************",
"************************************************************************************************",
"************************************************************************************************",
"************************************************************************************************",
"************************************************************************************************",
"************************************************************************************************",
"************************************************************************************************",
"************************************************************************************************",
"************************************************************************************************",
"************************************************************************************************",
"************************************************************************************************",
"************************************************************************************************",
"************************************************************************************************",
"************************************************************************************************",
"************************************************************************************************",
"************************************************************************************************",
"************************************************************************************************",
"************************************************************************************************",
"************************************************************************************************",
"************************************************************************************************",
"************************************************************************************************",
"************************************************************************************************",
"************************************************************************************************",
"************************************************************************************************"
};
