/* XPM */
static char *sprite_340_front[] = {
/* columns rows colors chars-per-pixel */
"96 96 15 1 ",
"  c #010101",
". c #29314A",
"X c #6A5A41",
"o c #C5A441",
"O c #F6DE5A",
"+ c #394A9C",
"@ c #4162B4",
"# c #627BCD",
"$ c #6283BD",
"% c #73ACE6",
"& c #7BB4E6",
"* c #ACB483",
"= c #83DEFF",
"- c white",
"; c None",
/* pixels */
";;;;;;;;;;;;;;;;;;;;;;;;;;;;;;;;;;;;;;;;;;;;;;;;;;;;;;;;;;;;;;;;;;;;;;;;;;;;;;;;;;;;;;;;;;;;;;;;",
";;;;;;;;;;;;;;;;;;;;;;;;;;;;;;;;;;;;;;;;;;;;;;;;;;;;;;;;;;;;;;;;;;;;;;;;;;;;;;;;;;;;;;;;;;;;;;;;",
";;;;;;;;;;;;;;;;;;;;;;;;;;;;;;;;;;;;;;;;;;;;;;;;;;;;;;;;;;;;;;;;;;;;;;;;;;;;;;;;;;;;;;;;;;;;;;;;",
";;;;;;;;;;;;;;;;;;;;;;;;;;;;;;;;;;;;;;;;;;;;;;;;;;;;;;;;;;;;;;;;;;;;;;;;;;;;;;;;;;;;;;;;;;;;;;;;",
";;;;;;;;;;;;;;;;;;;;;;;;;;;;;;;;;;;;;;;;;;;;;;;;;;;;;;;;;;;;;;;;;;;;;;;;;;;;;;;;;;;;;;;;;;;;;;;;",
";;;;;;;;;;;;;;;;;;;;;;;;;;;;;;;;;;;;;;;;;;;;;;;;;;;;;;;;;;;;;;;;;;;;;;;;;;;;;;;;;;;;;;;;;;;;;;;;",
";;;;;;;;;;;;;;;;;;;;;;;;;;;;;;;;;;;;;;;;;;;;;;;;;;;;;;;;;;;;;;;;;;;;;;;;;;;;;;;;;;;;;;;;;;;;;;;;",
";;;;;;;;;;;;;;;;;;;;;;;;;;;;;;;;;;;;;;;;;;;;;;;;;;;;;;;;;;;;;;;;;;;;;;;;;;;;;;;;;;;;;;;;;;;;;;;;",
";;;;;;;;;;;;;;;;;;;;;;;;;;;;;;;;;;;;;;;;;;;;;;;;;;;;;;;;;;;;;;;;;;;;;;;;;;;;;;;;;;;;;;;;;;;;;;;;",
";;;;;;;;;;;;;;;;;;;;;;;;;;;;;;;;;;;;;;;;;;;;;;;;;;;;;;;;;;;;;;;;;;;;;;;;;;;;;;;;;;;;;;;;;;;;;;;;",
";;;;;;;;;;;;;;;;;;;;;;;;;;;;;;;;;;;;;;;;;;;;;;;;;;;;;;;;;;;;;;;;;;;;;;;;;;;;;;;;;;;;;;;;;;;;;;;;",
";;;;;;;;;;;;;;;;;;;;;;;;;;;;;;;;;;;;;;;;;;;;;;;;;;;;;;;;;;;;;;;;;;;;;;;;;;;;;;;;;;;;;;;;;;;;;;;;",
";;;;;;;;;;;;;;;;;;;;;;;;;;;;;;;;;;;;;;;;;;;;;;;;;;;;;;;;;;;;;;;;;;;;;;;;;;;;;;;;;;;;;;;;;;;;;;;;",
";;;;;;;;;;;;;;;;;;;;;;;;;;;;;;;;;;;;;;;;;;;;;;;;;;;;;;;;;;;;;;;;;;;;;;;;;;;;;;;;;;;;;;;;;;;;;;;;",
";;;;;;;;;;;;;;;;;;;;;;;;;;;;;;;;;;;;;;;;;;;;;;;;;;;;;;;;;;;;;;;;;;;;;;;;;;;;;;;;;;;;;;;;;;;;;;;;",
";;;;;;;;;;;;;;;;;;;;;;;;;;;;;;;;;;;;;;;;;;;;;;;;;;;;;;;;;;;;;;;;;;;;;;;;;;;;;;;;;;;;;;;;;;;;;;;;",
";;;;;;;;;;;;;;;;;;;;;;;;;;;;;;;;;;;;;;;;;;;;;;;;;;;;;;;;;;;;;;;;;;;;;;;;;;;;;;;;;;;;;;;;;;;;;;;;",
";;;;;;;;;;;;;;;;;;;;;;;;;;;;;;;;;;;;;;;;;;;;;;;;;;;;;;;;;;;;;;;;;;;;;;;;;;;;;;;;;;;;;;;;;;;;;;;;",
";;;;;;;;;;;;;;;;;;;;;;;;;;;;;;;;;;;;;;;;;;;;;;;;;;;;;;;;;;;;;;;;;;;;;;;;;;;;;;;;;;;;;;;;;;;;;;;;",
";;;;;;;;;;;;;;;;;;;;;;;;;;;;;;;;;;;;;;;;;;;;;;;;;;;;;;;;;;;;;;;;;;;;;;;;;;;;;;;;;;;;;;;;;;;;;;;;",
";;;;;;;;;;;;;;;;;;;;;;;;;;;;;;;;;;;;;;;;;;;;;;;;;;;;;;;;;;;;;;;;;;;;;;;;;;;;;;;;;;;;;;;;;;;;;;;;",
";;;;;;;;;;;;;;;;;;;;;;;;;;;;;;;;;;;;;;;;;;;;;;;;;;;;;;;;;;;;;;;;;;;;;;;;;;;;;;;;;;;;;;;;;;;;;;;;",
";;;;;;;;;;;;;;;;;;;;;;;;;;;;;;;;;;;;;ooooo;;;;;;;;;;;;;;;;;;;;;;;;;;;;;;;;;;;;;;;;;;;;;;;;;;;;;;",
";;;;;;;;;;;;;;;;;;;;;;;;;;;;;;;;;ooooOOOOOXX;;;;;;;;;;;;;;;;;;;;;;;;;;;;;;;;;;;;;;;;;;;;;;;;;;;;",
";;;;;;;;;;;;;;;;;;;;;;;;;;;;;;;ooOOXXXXXXoOoX;;;;;;;;;;;;;;;;;;;;;;;;;;;;;;;;;;;;;;;;;;;;;;;;;;;",
";;;;;;;;;;;;;;;;;;;;;;;;;;;;;ooOXXX;;;;;;XXOX;;;;;;;;;;;;...;;;;;;;;;;;;;ooo;;;;;;;;;;;;;;;;;;;;",
";;;;;;;;;;;;;;;;;;;;;;;;;;;ooOXX;;;;;;;XX;;XoX;;;;;;;;;..===..;;;;;;;;;ooOOOXX;;;;;;;;;;;;;;;;;;",
";;;;;;;;;;;;;;;;;;;;;;;;;ooOXX;;;;;;;;XoX;;XoX;;;;;;;;.===%%%% ;;;;;;;XOoXXXOOX;;;;;;;;;;;;;;;;;",
";;;;;;;;;;;;;;;;;;;;;;;ooOXX;;;;;;;;;XoX;;;XoX;;;;;;;.==%%%.+%% ;;;;;XOoX;;;XXOX;;;;;;;;;;;;;;;;",
";;;;;;;;;;;;;;;;;;;;;;oOXX;;;;;;;;;;;XoX;;XoX;;;;;;;;.=%%%...%% ;;;;;XoX;;XX;;XoX;;;;;;;;;;;;;;;",
";;;;;;;;;;;;;;;;;;;;;oOX;;;;;;;;;;;;;XooXXooX;;;;;;;.=%%%%...%% ;;;;;XoX;;XoX;;XoX;;;;;;;;;;;;;;",
";;;;;;;;;;;;;;;;;;;;oOX;;;;;;;;;;;;;;;XoooXX;;;;;;;;.=%%%%+.%%% ;;;;;XooX;;XoX;XoX;;;;;;;;;;;;;;",
";;;;;;;;;;;;;;;;;;;oOX;;;;;;;;;;;;;;;;;XXX;;;;;;;;;;.=%.+%%%%%% ;;;;;;XooXXooX;;XoX;;;;;;;;;;;;;",
";;;;;;;;;;;;;;;;;;oOX;;;;;;;;;;;;;;;;;;;;;;;;;;;;;;.=%...%%.+% ;;;;;;;;XXoooX;;;XoX;;;;;;;;;;;;;",
";;;;;;;;;;;;;;;;;oOX;;;;;;;;;;;;;;;;;;;;;;;;;;;;;;;.=%+.%%...% ;;;;;;;;;;XXX;;;;XoX;;;;;;;;;;;;;",
";;;;;;;;;;;;;;;;oOX;;;;;;;;;;;;;;;;;...........;;;; %%%%%%+.% ;;;;;;;;;;;;;;;;;;XoX;;;;;;;;;;;;;",
";;;;;;;;;;;;;;;;oOX;;;;;;;;;;;;;....##########@.... %%%%%%%% ;;;;;;;;;;;;;;;;;;;XOX;;;;;;;;;;;;;",
";;;;;;;;;;;;;;;oOX;;;;;;;;;;;...*################@+..%%%%%  ;;;;;;;;;;;;;;;;;;;;XOX;;;;;;;;;;;;;",
";;;;;;;;;;;;;;;oOX;;;;;;;;;..+@#*####*############@++..%% ;;;;;;;;;;;;;;;;;;;;;;XOX;;;;;;;;;;;;;",
";;;;;;;;;;;;;;;oOX;;;;;;;;.++@##O###**#######*####@++++. ;;;;;;;;;;;;;;;;;;;;;;;oOX;;;;;;;;;;;;;",
";;;;;;;;;;;;;;oOX;;;;;;;;.+++@#*O*#*OO*####*O*####@++++++ ;;;;;;;;;;;;;;;;;;;;;oOX;;;;;;;;;;;;;;",
";;;;;;;;;;;;;;oOX;;;;;;;.+++++@*OOOOOOO###OO*####@++++++++ ;;;;;;;;;;;;$$@@;;;;oOX;;;;;;;;;;;;;;",
";;;;;;;;;;;;;;XOX;;;;;;.+++++++OOOO**OOOOOO*###@@++++++++++ .;;;;;;;;;@%===@;;oOX;;;;;;;;;;;;;;;",
";;;;;;;;;;;;;;XOX;;;;;;.&&+++++OO**##*OOOO*@@@++++++++++++++. ;;;;;;;@%=====@oOX;;;;;;;;;;;;;;;;",
";;;;;;;;;;;;;;XOX;;;;; &--&++++O*+@@@@*OO*++++++++++++++++++++ ;;;;;;@%=====@OoX@..;;;;;;;;;;;;;",
";;;;;;;;;;;;;;;XOX;;;; ----++++*+++++++*O++++++++++++++++++++++ .;;;;@======OoX====.;;;;;;;;;;;;",
";;;;;;;;;;;;;;;XOX;;; +- --+++++++++++++++++++++&--&++++++++++++. ;;;@=====OoX======.;;;;;;;;;;;",
";;;;;;;;;;;;;;;;XOX;; +&--&++++++++++++++++++++&----&+++++++++++++ ;;;@===OoX=======.;;;;;;;;;;;",
";;;;;;;;;;;;;;;;XoOXX ++&&+++++++++++++++++++++------++++++++++++++  ;@%OoXX======== ;;;;;;;;;;;",
";;;;;;;;;;;;;;;;;XoOO +++++++++++++++++++++++++-- ---++++++++++++++++  OoX.========% ;;;;;;;;;;;",
";;;;;;;;;;;;;;;;;;XX +...++++++++++++++++++++++&----&++++++++++++++++OoXX++.=====%% ;;;;;;;;;;;;",
";;;;;;;;;;;;;;;;;;;; .+==.++++++++++++++++++++++&--&++++++++++++++OOoXX++++.==%%   ;;;;;;;;;;;;;",
";;;;;;;;;;;;;;;;;;;; .%===..++++++++++++++++++++...++++++++++++OOoXXX+++++.    .;;;;;;;;;;;;;;;;",
";;;;;;;;;;;;;;;;;;;; .%%===%...++++++++++++++...%=%.++++++++OOoXXX+++++++. ;;;;;;;;;;;;;;;;;;;;;",
";;;;;;;;;;;;;;;;;;;.. %%@=====%.............%======% +XoooOOXXX+++++++++.++ ;;;;;;;;;;;;;;;;;;;;",
";;;;;;;;;;;;;;;;;..@@@.%%+=======================@=% ++XXXXX++++..+++++.++++ ;;;;;;;;;;;;;;;;;;;",
";;;;;;;;;;;;;;;;.@@+++ #%%+@===================@+%%% X++++.+++++++  ++  .+++ ;;;;;;;;;;;;;;;;;;;",
";;;;;;;;;;;;;;;;.+++++ %@%%%@@%===========%%++@%%%%@ oXX++ ++++@@@@+ .;;.   ;;;;;;;;;;;;;;;;;;;;",
";;;;;;;;;;;;;;;; +++++ % +%%%%@++@@@@@@@@++@%%%%%%  ooooXX +++@@@@@@+ ;;;;;;;;;;;;;;;;;;;;;;;;;;",
";;;;;;;;;;;;;;;; +++. +%+ ++%%%%%%%%%%%%%%%%%%%%%.ooooooooo ++@@@@@@@ ;;;;;;;;;;;;;;;;;;;;;;;;;;",
";;;;;;;;;;;;;;;;;   ; %%%  O++@%%%%%%%%%%%%%.  @%.ooooooooo  ++@@@@@@@ ;;;;;;;;;;;;;;;;;;;;;;;;;",
";;;;;;;;;;;;;;;;;;;; ==%% ; OOO           ..ooo.%.oooooooo ; +++@@@@@@ ;;;;;;;;;;;;;;;;;;;;;;;;;",
";;;;;;;;;;;;;;;;;;;; ==%% ;; OOOOOOOOoooooooooo.%%.ooooo  ;;; ++++@@@+ ;;;;;;;;;;;;;;;;;;;;;;;;;",
";;;;;;;;;;;;;;;;;;;; %%%@ ;;;  OOOOoooooooooooo.%%.ooo  ;;;;;;  +++++ ;;;;;;;;;;;;;;;;;;;;;;;;;;",
";;;;;;;;;;;;;;;;;;;;; %% ;;;;;;  ooooooooooooo@%%%%.  ;;;;;;;;;;     ;;;;;;;;;;;;;;;;;;;;;;;;;;;",
";;;;;;;;;;;;;;;;;;;;;;  ;;;;;;;;;X    oooooooo.%==%.;;;;;;;;;;;;;;;;;;;;;;;;;;;;;;;;;;;;;;;;;;;;",
";;;;;;;;;;;;;;;;;;;;;;;;;;;;;;;;;;;;;;X       .%==%.;;;;;;;;;;;;;;;;;;;;;;;;;;;;;;;;;;;;;;;;;;;;",
";;;;;;;;;;;;;;;;;;;;;;;;;;;;;;;;;;;;;;;;;;;;;;.@%%% ;;;;;;;;;;;;;;;;;;;;;;;;;;;;;;;;;;;;;;;;;;;;",
";;;;;;;;;;;;;;;;;;;;;;;;;;;;;;;;;;;;;;;;;;;;;;; %%@ ;;;;;;;;;;;;;;;;;;;;;;;;;;;;;;;;;;;;;;;;;;;;",
";;;;;;;;;;;;;;;;;;;;;;;;;;;;;;;;;;;;;;;;;;;;;;;;.  ;;;;;;;;;;;;;;;;;;;;;;;;;;;;;;;;;;;;;;;;;;;;;",
";;;;;;;;;;;;;;;;;;;;;;;;;;;;;;;;;;;;;;;;;;;;;;;;;;;;;;;;;;;;;;;;;;;;;;;;;;;;;;;;;;;;;;;;;;;;;;;;",
";;;;;;;;;;;;;;;;;;;;;;;;;;;;;;;;;;;;;;;;;;;;;;;;;;;;;;;;;;;;;;;;;;;;;;;;;;;;;;;;;;;;;;;;;;;;;;;;",
";;;;;;;;;;;;;;;;;;;;;;;;;;;;;;;;;;;;;;;;;;;;;;;;;;;;;;;;;;;;;;;;;;;;;;;;;;;;;;;;;;;;;;;;;;;;;;;;",
";;;;;;;;;;;;;;;;;;;;;;;;;;;;;;;;;;;;;;;;;;;;;;;;;;;;;;;;;;;;;;;;;;;;;;;;;;;;;;;;;;;;;;;;;;;;;;;;",
";;;;;;;;;;;;;;;;;;;;;;;;;;;;;;;;;;;;;;;;;;;;;;;;;;;;;;;;;;;;;;;;;;;;;;;;;;;;;;;;;;;;;;;;;;;;;;;;",
";;;;;;;;;;;;;;;;;;;;;;;;;;;;;;;;;;;;;;;;;;;;;;;;;;;;;;;;;;;;;;;;;;;;;;;;;;;;;;;;;;;;;;;;;;;;;;;;",
";;;;;;;;;;;;;;;;;;;;;;;;;;;;;;;;;;;;;;;;;;;;;;;;;;;;;;;;;;;;;;;;;;;;;;;;;;;;;;;;;;;;;;;;;;;;;;;;",
";;;;;;;;;;;;;;;;;;;;;;;;;;;;;;;;;;;;;;;;;;;;;;;;;;;;;;;;;;;;;;;;;;;;;;;;;;;;;;;;;;;;;;;;;;;;;;;;",
";;;;;;;;;;;;;;;;;;;;;;;;;;;;;;;;;;;;;;;;;;;;;;;;;;;;;;;;;;;;;;;;;;;;;;;;;;;;;;;;;;;;;;;;;;;;;;;;",
";;;;;;;;;;;;;;;;;;;;;;;;;;;;;;;;;;;;;;;;;;;;;;;;;;;;;;;;;;;;;;;;;;;;;;;;;;;;;;;;;;;;;;;;;;;;;;;;",
";;;;;;;;;;;;;;;;;;;;;;;;;;;;;;;;;;;;;;;;;;;;;;;;;;;;;;;;;;;;;;;;;;;;;;;;;;;;;;;;;;;;;;;;;;;;;;;;",
";;;;;;;;;;;;;;;;;;;;;;;;;;;;;;;;;;;;;;;;;;;;;;;;;;;;;;;;;;;;;;;;;;;;;;;;;;;;;;;;;;;;;;;;;;;;;;;;",
";;;;;;;;;;;;;;;;;;;;;;;;;;;;;;;;;;;;;;;;;;;;;;;;;;;;;;;;;;;;;;;;;;;;;;;;;;;;;;;;;;;;;;;;;;;;;;;;",
";;;;;;;;;;;;;;;;;;;;;;;;;;;;;;;;;;;;;;;;;;;;;;;;;;;;;;;;;;;;;;;;;;;;;;;;;;;;;;;;;;;;;;;;;;;;;;;;",
";;;;;;;;;;;;;;;;;;;;;;;;;;;;;;;;;;;;;;;;;;;;;;;;;;;;;;;;;;;;;;;;;;;;;;;;;;;;;;;;;;;;;;;;;;;;;;;;",
";;;;;;;;;;;;;;;;;;;;;;;;;;;;;;;;;;;;;;;;;;;;;;;;;;;;;;;;;;;;;;;;;;;;;;;;;;;;;;;;;;;;;;;;;;;;;;;;",
";;;;;;;;;;;;;;;;;;;;;;;;;;;;;;;;;;;;;;;;;;;;;;;;;;;;;;;;;;;;;;;;;;;;;;;;;;;;;;;;;;;;;;;;;;;;;;;;",
";;;;;;;;;;;;;;;;;;;;;;;;;;;;;;;;;;;;;;;;;;;;;;;;;;;;;;;;;;;;;;;;;;;;;;;;;;;;;;;;;;;;;;;;;;;;;;;;",
";;;;;;;;;;;;;;;;;;;;;;;;;;;;;;;;;;;;;;;;;;;;;;;;;;;;;;;;;;;;;;;;;;;;;;;;;;;;;;;;;;;;;;;;;;;;;;;;",
";;;;;;;;;;;;;;;;;;;;;;;;;;;;;;;;;;;;;;;;;;;;;;;;;;;;;;;;;;;;;;;;;;;;;;;;;;;;;;;;;;;;;;;;;;;;;;;;",
";;;;;;;;;;;;;;;;;;;;;;;;;;;;;;;;;;;;;;;;;;;;;;;;;;;;;;;;;;;;;;;;;;;;;;;;;;;;;;;;;;;;;;;;;;;;;;;;",
";;;;;;;;;;;;;;;;;;;;;;;;;;;;;;;;;;;;;;;;;;;;;;;;;;;;;;;;;;;;;;;;;;;;;;;;;;;;;;;;;;;;;;;;;;;;;;;;",
";;;;;;;;;;;;;;;;;;;;;;;;;;;;;;;;;;;;;;;;;;;;;;;;;;;;;;;;;;;;;;;;;;;;;;;;;;;;;;;;;;;;;;;;;;;;;;;;",
";;;;;;;;;;;;;;;;;;;;;;;;;;;;;;;;;;;;;;;;;;;;;;;;;;;;;;;;;;;;;;;;;;;;;;;;;;;;;;;;;;;;;;;;;;;;;;;;",
";;;;;;;;;;;;;;;;;;;;;;;;;;;;;;;;;;;;;;;;;;;;;;;;;;;;;;;;;;;;;;;;;;;;;;;;;;;;;;;;;;;;;;;;;;;;;;;;",
";;;;;;;;;;;;;;;;;;;;;;;;;;;;;;;;;;;;;;;;;;;;;;;;;;;;;;;;;;;;;;;;;;;;;;;;;;;;;;;;;;;;;;;;;;;;;;;;"
};
