/* XPM */
static char *sprite_242_front[] = {
/* columns rows colors chars-per-pixel */
"96 96 12 1 ",
"  c #101010",
". c #6A6A6A",
"X c #8B3941",
"o c #D54A62",
"O c #C55A62",
"+ c #B4B4B4",
"@ c #DE83A4",
"# c #FFACC5",
"$ c #DED5D5",
"% c #FFC5CD",
"& c white",
"* c #000000",
/* pixels */
"************************************************************************************************",
"************************************************************************************************",
"************************************************************************************************",
"************************************************************************************************",
"************************************************************************************************",
"************************************************************************************************",
"************************************************************************************************",
"************************************************************************************************",
"************************************************************************************************",
"************************************************************************************************",
"************************************************************************************************",
"************************************************************************************************",
"************************************************************************************************",
"************************************************************************************************",
"************************************************************************************************",
"************************************************************************************************",
"************************************************************************************************",
"************************************************************************************************",
"************************************************************************************************",
"************************************************************************************************",
"************************************************************************************************",
"*********************************XXX************************************************************",
"*******************************XO%%%XX   *******************************************************",
"******************************X#%%%%%%X@@  *****************************************************",
"******************************O##%%%%%%X@@@ **OOOOO******XXXXX**********************************",
"*****************************X#####%%###@@@OO@%%%%%@OO*XX%%%%%X ********************************",
"*****************************X OO########OO%%%%%%%%%%#X#%%%%%%%% *******************************",
"***************************** @#########O%%%%%%%%%%%%O###%%%%%%%# ******************************",
"**************************** @#########@%%%%%%%%%%%%#######%%%%## X*****************************",
"****************************X@#######@###&%%%%%%%%###############@ X****************************",
"*************************** @@##XX##@#### %%%&%##################@ #X***************************",
"*************************** @@@X@@X@#####X### ##########@XX#####@@O#X***************************",
"****************************X@@@@@@##########X#############X##@@@@O@@ **************************",
"**************************** @@@@@#######X############XX###@X@@@@@@@@ **************************",
"***************************** @@@X#######@   X#######X##X@@@ @@@@@@@@ **************************",
"******************************  X#########Xoo########X##@@@@ @@@@O@@X***************************",
"*****************************..*X#########@X@########X@@@@@@ @@@@X@@ ***************************",
"**************************** &&X###################### @@@@ @@@@X@@ ****************************",
"**************************** &$X######################@    @@@@X   *****************************",
"****************************.$X########################@@@@X   @ *******************************",
"*************************** $$X#########################@@@@@@@@ *******************************",
"*************************** $X##########################@@...@@@@ ******************************",
"*************************** XX##########################.+&&$ @@@ ******************************",
"**************************XX@X########################.+&&&&& @@@ ******************************",
"*************************X@@@########################.&&&&&& @@@@@ *****************************",
"************************ @@@X#######################+&&&&&& ....@@ *****************************",
"***********************X@@@@X##########...##########&&&&&&+$&&&$ @ *****************************",
"*********************** @@@ X########.+&&&+.#######%&X#%&&&&&&$$ @ *****************************",
"************************   X########.&&&&&&&.######%X###%&&$$$$ @@@ ****************************",
"**************************.X#######.&&&&&&&&&.#####X####@$$$$. @@@@ ****************************",
"*************************.&X#######+&&&&&&&&&+#####X###@@$$.  .@@@@ ****************************",
"************************.&&O######.&&&&&&&&&&$.###X@##@@ $$$$$$ @@@  ***************************",
"***********************.&&&&%#####.&&&&&&&&&&$.###X@@@@ $$$$$$+ @@@.$..*************************",
"**********************.+&&&&&#####.&&&&&&&&&$$.##@ @@@ $$$$$$. @@@#$$$$ ************************",
"**********************.&&&$&+&%###X&&&&&&&&&$$X@@@@   @@.    @@@#$$$$$$$ ***********************",
"*********************.$&&$.&.&&&%X#O&&&&&&&$OX@X@@@@@@@@@@@@#$$$$$$$.$$$$ **********************",
"********************* $$$ .&.&&&&X###OXXXXO@@@@X@@@@@@@#$$$$$$$$$$$$$.$$$ **********************",
"**********************   .&&$.&&&X#########@@@@X$$$$$$$$$$$$$$$$.$$$$$.  ***********************",
"*************************.&&$.$&&&O#######@@@@O$$$$$$+$$$$$+$$$$.$$$$$.*************************",
"************************.$&$$$ $$$X@####@@@@@@X$$$$$$.$$$$$.$$$$$.$$$$$.************************",
"************************ $$$$ *.$$$X@@@@@@@@@X$$$$$$$ $&&&$ .$&&& .$$$$.************************",
"************************ +$$ ** $$$$XO@@@@@OX$$$$$$$$$.&&&$ .&&&& * $$+ ************************",
"*************************   **** $$$$$XXXXX$$$$$$$$$$$ &&&.+.$&&& **   *************************",
"********************************* $$$$$$$$$$$$$$$$$$$$$.&& $$.&&$.******************************",
"********************************** $$$$$$$$$$$$$$$$$$$$$  $$$ ...*******************************",
"*********************************** .$$$$$$$$$$$$$$$$$$$$$$$ ***********************************",
"************************************* $$$$$$$$$$$$$$$$$$$$  ************************************",
"**************************************  $$$$$$$$$$$$$$$$  **************************************",
"***************************************X   $$$$$$$$$$   ****************************************",
"************************************XXOOOOO          OX*****************************************",
"***********************************X@@@@OOOOOX***XOOOOO ****************************************",
"*********************************** O@@@@O   *** OOO@@@O ***************************************",
"************************************      ****** O@@@@@@ ***************************************",
"*************************************************  O@@@ ****************************************",
"***************************************************    *****************************************",
"************************************************************************************************",
"************************************************************************************************",
"************************************************************************************************",
"************************************************************************************************",
"************************************************************************************************",
"************************************************************************************************",
"************************************************************************************************",
"************************************************************************************************",
"************************************************************************************************",
"************************************************************************************************",
"************************************************************************************************",
"************************************************************************************************",
"************************************************************************************************",
"************************************************************************************************",
"************************************************************************************************",
"************************************************************************************************",
"************************************************************************************************",
"************************************************************************************************",
"************************************************************************************************",
"************************************************************************************************",
"************************************************************************************************"
};
