/* XPM */
static char *sprite_373_back[] = {
/* columns rows colors chars-per-pixel */
"96 96 14 1 ",
"  c #181818",
". c #622929",
"X c #29627B",
"o c #A4394A",
"O c #BD526A",
"+ c #41839C",
"@ c #4AA4CD",
"# c #839494",
"$ c #ACACA4",
"% c #DE8394",
"& c #83CDE6",
"* c #EEEEE6",
"= c white",
"- c None",
/* pixels */
"------------------------------------------------------------------------------------------------",
"------------------------------------------------------------------------------------------------",
"------------------------------------------------------------------------------------------------",
"------------------------------------------------------------------------------------------------",
"------------------------------------------------------------------------------------------------",
"------------------------------------------------------------------------------------------------",
"------------------------------------------------------------------------------------------------",
"------------------------------------------------------------------------------------------------",
"------------------------------------------------------------------------------------------------",
"------------------------------------------------------------------------------------------------",
"----------------------------------------------------------------- X-------------XX--------------",
"----------------------------------------------------------------- &X-----------X&X--------------",
"----------------------------------------------------------------- @X-----------X&X--------------",
"----------------------------------------------------------------- @&X---------X&&X--------------",
"------------------------------------------------------------------ @&X-------- &@ --------------",
"------------------------------------------------------------------ @&X-------- &@ --------------",
"------------------------------------------------------------------ @@&X------ &&@ --------------",
"------------------------------------------------------------------- @@&X-.... &&@ --------------",
"-----------------------------------o........----------------------- @@@..OO%% &&@@ -------------",
"------------------------------.....oOOOOOOOO.....------------------ @@.OO@&&. &@@@ -------------",
"---------------------------...OOOOOOOOOOOOOOOOOOO    -------------- @X@+&&.O &&@@@ .------------",
"-------------------------..OOOOOOOOOOOOOOOOOOOOOOOOOO  ------XXXXXXXX@@@@.O% &&@@@ O.-----------",
"-----------------------..OOOOOOOOOOOOOOOOOOOOOOOOOOOOOO ----X&&&&&@@X@@@@...X&&@@@ O%O----------",
"---------------------..OOOOOOOOOOOOOOOOOOOOOOOOOoo..   ------  +++@X@@@@@@@X@&@@@@ .O%O---------",
"-------------------o.OOOOOOOOOOOOOOOOOOOOOOOOOoo .-------------    X@@@@@@@X@@@@@@X=X%%O--------",
"------------------.oOOOOOOOOOOOOOOOOOOOOOOOOOoo ------------------ @@@@@@@@@@XX@@@X&= %O--------",
"----------------- OOOOOOOOOOOOOOOOOOOOOOOOOOOo -----------------X+X@@@@@@@@@&&++XX@@=X&.--------",
"---------------- OOOOOOOOOOOOOOOOOOOOOOOOOOOoo ---------------XX@X@@@@@.....&&&&&+XX@@@@X-------",
"--------------- OOOOOOOOOOOOOOOOOOOOOOOOOOOOo --------------XX@@+X@@  .oooO @X  @&&& @@@X-------",
"-------------- OOOOOOOOOOOOOOOOOOOOOOOOOOOOoo -------------X@@XXX   oooooOO &@++    XX@@@X------",
"------------- OOOOOOOOOOOOOOOOOOOOOOOOOOOOOo --------------  X-  oooooooOO +&&++++ ---X =X------",
"------------..OOOOOOOOOOOOOOOOOOOOOOOOOOOOOo ----------------  ooooooooO% @X&&++++ ----- -------",
"------------ OOOOOOOOOOOOOOOOOOOOOOOOOOOOOO ---------------  oooooooooO% @@@ &@++ $+##----------",
"----------- OOOOOOOOOOOOOOOOOOOOOOOOOOOOOOO -------------. ooooooooooO%o.@@X &&++ $#=+----------",
"----------- OOOOOOOOOOOOOOOOOOOOOOOOOOOOOOO -----------..oooooooooooO%%.@@X$$ &++ $$#X----------",
"---------- OOOOOOOOOOOOOOOOOOOOOOOOOOOOOOOO ---------..ooooooooooooO%%.@@X  $ &+X$$ X-----------",
"---------- OOOOOOOOOOOOOOOOOOOOOOOOOOOOOOOo.-------..oooooooooooooO%%.@@ X--  &@X  -------------",
"---------- OOOOOOOOOOOoooo...  oOOOOOOOOOooo.----- ooooooooooooooO%%.@@ ------ & ---------------",
"--------- OOOOOOOOOOooo  .-----  oOOOOOooooo.---  ooooooooooooooO%%.@@ ------- & ---------------",
"--------- OOOOOOOOooo  ----------  oooooooooo.- oooooooooooooooO%% @@@ --------  ---------------",
"--------- OOOOOOooo  --------------  oooooooo. ooooooooooooooo%%O @@@ --------------------------",
"--------- OOOOOooo ------------------ oooooo oooooooooooooooO%% .@@@@ --------------------------",
"-------- OOOOOoo  -------------------- oooo ooooooooooooooo%%% @@@@@ ---------------------------",
"-------- OOOOoo -----------------------.o. ooooooooooooooO%%  @@@@@@ ---------------------------",
"-------- OOOoo ------------------------- .oooooooooooooO%%  @@@@@@@@ ---------------------------",
"-------- OOoo ----------------------XXX oooooooooooooO%%O .@@@@@@@@X----------------------------",
"-------- OOo --------------------XXX@@ ooooooooooooOO%%  .@@@@@@@@&X----------------------------",
"-------- Oo -------------------XX@@@@ ooooooooooooOOO .oo.@@@@@@@@&X----------------------------",
"-------- Oo -----------------  @@@@@ oooooooooooOOO  ooo.@@@@@@@@&&X----------------------------",
"-------- O ----------------- @&&&&@..oooooooooOOO  ooo.@@@@@@@@@@&&X----------------------------",
"-------- o ---------------  &&&&&&& oooooooooOO  @.oo.@@@@@@@@@@@&&X----------------------------",
"--------- --------------- @&&&&&&& ooooooooOO  @@@@..@@@@@@@@@@@@&&+----------------------------",
"------------------------ &&&&&&&& oooooooOO  @@@@@@@@@@@@@@@@@@@@@&&+---------------------------",
"----------------------- &&&&&&&&& ooooOOO  &@@@@@@@@@@@@@@@@@@@@@@&&+---------------------------",
"----------------------X&&&&&&&&& oooOOO  &&&&@@@@@@@@@@@@@@@@@@@@@&&&+--------------------------",
"---------------------X&&&&&&&&& ooOOO  &&&&&&&@@@@@@@@@@@@@@@@@@@@@&&&+-------------------------",
"--------------------X&&&&&&&&&& OO   &&&&&&&&&@@@@@@@@@@@@@@@@@@@@@&&&+-------------------------",
"------------------XX&&&&&&&&&& O  &&&&&&&&&&&&&@@@@@@@@@@@@@@@@@@@@@&&&+------------------------",
"-----------------X&&&&&&&&&&&&  &&&&&&&&&&&&&&&&@@@@@@@@@@@@@@@@@@@@&&&&+-----------------------",
"---------------XX&&&&&&&&&&&&&&&&&&&&&&&&&&&&&&&&@@@@@@@@@@@@@@@@@@@@&&&@+----------------------",
"--------------X&&&&&&@&&&&&&&&&&&&&&&&&&&&&&&&&&&&&@@@@@@@@@@@@@+@@@@@&&&+----------------------",
"------------- &&&&&&X&&&&&&&&&&&&&&&&&&&&&&&&&&&&&&&@@@@@@@@@@@@+@@@@@@&&&+---------------------",
"------------- &&&&&&X&&&&&&&&&&&@@@&&&&&&&&&&&&&&&&&@@+@@@@@@@@+@@@@@@@@&&+---------------------",
"------------ @@&&&&X&&&&&&&&&&&@@@@@@&&&&&&&&&&&&&&&&@+@@@@@@@@X@@@@@@@@@&+---------------------",
"------------ @@@@@@ &&&&&&&&&&@@@@@@@@@@&&&&&&&&&&&&&@@+@@@@@@+X@@@@@@@@@@+---------------------",
"----------- @@@@@@@ &&&&&&&&&@@@@@@@@@@@@@@@@&&&&&&&@@@+@@@@+$  @@@@@@@@@@@X--------------------",
"----------- @@@@@@ &&&&&&&&&&@@@@@@@@@@@@@@@@@@&&&&@@@@@X@++$ -- @@@@@@@@@@X--------------------",
"----------- @@@@@@ &&&&&&&&&@@@@@X@@@@@@@@@@@@@@@@@@@@@@@ $$ ---- @@@@@@@@@X--------------------",
"---------- @@@@@@@ &&&&&&&&&@@@@X@@@@@@@@@@@@@@@@@@@@@@@@ XX------ @@@@@@@@XX-------------------",
"---------- @@@@@@@ &&&&&&&&&@@@X++@@@@@@@@+@@@@@@@@@@@@@@@ ------- @@@@@@@X*#X------------------",
"---------- @@@@@@@ &&&&&&&&&@@@ #$+++@+++@@X@@@@@@@@@@@@@@ -------- @X @@++X** -----------------",
"--------- +@@@@@@@ &&&&&&&&&&@@ $$$$$X$$$+++X@@@@@@@@@@@@@ -------- @X@ +**#  ------------------",
"-------- *@@@@@@@@X@&&&&&&&&&&@@ $$$$##$$$$$#X@@@@@@@@@@@@ ---------XX@  X  --------------------",
"------- $$+@@@@@@@@ &&&&&&&&&&&@@  X$$+X$$$$$X@@@@@@@@@@@@ --------- @@ ------------------------",
"--------   @@@@@@   &&&&&&&&&&&&&&@  X++XX    X@@@@@@@@@@@ -------- @@@ ------------------------",
"-----------      --- &&&&&&&&&&&&&&&&  ------- @@@@@@@@@@@X------- @@@ -------------------------",
"-------------------- &&&&&&&&&&&&&&&&&&   ----- @@@@@@@@@+* ----  @@@@ -------------------------",
"--------------------- &&&&&&&&&&&&&&&&&&&@   -- @@@@@@@@@*X* -  @@@@o --------------------------",
"---------------------- @&&&&&&&&&&&&&&&&&&@@@     @@@@@@@*#   @@@@@o ---------------------------",
"-----------------------  @&&&&&&&&&&&&&&&&&@@@@@@@         @@@@@@oo ----------------------------",
"-------------------------  O&&&&&&&&&&&&&&@@@@@@@@@@@@@@@@@@@@@ooo -----------------------------",
"---------------------------  OOOO&&&&&&@@@@@@@@@@@@@@@@@@@@@oooo  ------------------------------",
"-----------------------------    OOOOoo@@@@@@@@@@@@@@@@ooooooo  --------------------------------",
"---------------------------------    oooooooooooooooooooooo   ----------------------------------",
"-------------------------------------      oooooooooooo    -------------------------------------",
"-------------------------------------------            -----------------------------------------",
"------------------------------------------------------------------------------------------------",
"------------------------------------------------------------------------------------------------",
"------------------------------------------------------------------------------------------------",
"------------------------------------------------------------------------------------------------",
"------------------------------------------------------------------------------------------------",
"------------------------------------------------------------------------------------------------",
"------------------------------------------------------------------------------------------------",
"------------------------------------------------------------------------------------------------",
"------------------------------------------------------------------------------------------------",
"------------------------------------------------------------------------------------------------"
};
