/* XPM */
static char *sprite_273_front[] = {
/* columns rows colors chars-per-pixel */
"96 96 13 1 ",
"  c #010101",
". c #313129",
"X c #523931",
"o c #52524A",
"O c #7B736A",
"+ c #83625A",
"@ c #AC9473",
"# c #BDAC83",
"$ c #ACACAC",
"% c #DEBD94",
"& c #FFEEBD",
"* c #D5D5D5",
"= c #000000",
/* pixels */
"================================================================================================",
"================================================================================================",
"================================================================================================",
"================================================================================================",
"================================================================================================",
"================================================================================================",
"================================================================================================",
"================================================================================================",
"================================================================================================",
"================================================================================================",
"================================================================================================",
"================================================================================================",
"================================================================================================",
"================================================================================================",
"================================================================================================",
"================================================================================================",
"================================================================================================",
"================================================================================================",
"================================================================================================",
"================================================================================================",
"================================================================================================",
"================================================================================================",
"================================================================================================",
"================================================================================================",
"================================================================================================",
"================================================================================================",
"================================================================================================",
"================================================================================================",
"================================================================================================",
"==================================================oo============================================",
"=================================================oOOo===========================================",
"=================================================oOOO ==========================================",
"================================================oOOOO ==========================================",
"================================================oOOO ===========================================",
"===============================================ooOO ============================================",
"============================================ooo$$$o  ===========================================",
"==========================================ooOOOOOooOO  =========================================",
"=========================================oOO***$$$$oooO ========================================",
"========================================o$$***$$$$$OOOoo =======================================",
"=======================================o$$OOOOOOOOooOOOOo ======================================",
"=======================================oOO$**$$$$$$$oooOO ======================================",
"======================================oO$$$$$$$$$$$$$OOooO =====================================",
"======================================o$ooooooooooooOOOOOo =====================================",
"=====================================ooo$******$$$$$oooOOOo ====================================",
"====================================oO$$$$****$$$$$$$OOooOO ====================================",
"===================================oO$$$OooooooooO$$$OOOOo  ====================================",
"===================================oOOOo.            oOOOOOo ===================================",
"=================================== Oo +#  ##@  ###     OOOOO ==================================",
"====================================   %&..&&#  &&#  @#+  OOO ==================================",
"===================================== .&&..&&#..&&&..@##++ OO ==================================",
"===================================== .&o.@&&&..@&o..&##++ O ===================================",
"===================================== ....&&&&@.....@&#@++  ====================================",
"===================================== %..&&%&&&@...@&&#+++ =====================================",
"====================================== &&&%@%&&&&&&&&&@+++ =====================================",
"====================================== &&%@@@%&&&&&&&@+++ ======================================",
"=======================================+%@@@@@@%&&&%@++++ ======================================",
"=======================================++@@@@@@@@@@@++++ =======================================",
"========================================X+@@@@@@@@++++++ =======================================",
"========================================= ++@@@++++++++ ========================================",
"=========================================+XX+++++++++  =========================================",
"======================================+++#++X +++++  .==========================================",
"=====================================+&&&###++ ++  @++..========================================",
"====================================+&&&&###++   .@+#&&& =======================================",
"==================================== #&&###X  ===.+#&&&&& ======================================",
"=====================================     X======.+##&&&& ======================================",
"==================================================.+##&& =======================================",
"===================================================.    ========================================",
"================================================================================================",
"================================================================================================",
"================================================================================================",
"================================================================================================",
"================================================================================================",
"================================================================================================",
"================================================================================================",
"================================================================================================",
"================================================================================================",
"================================================================================================",
"================================================================================================",
"================================================================================================",
"================================================================================================",
"================================================================================================",
"================================================================================================",
"================================================================================================",
"================================================================================================",
"================================================================================================",
"================================================================================================",
"================================================================================================",
"================================================================================================",
"================================================================================================",
"================================================================================================",
"================================================================================================",
"================================================================================================",
"================================================================================================",
"================================================================================================",
"================================================================================================",
"================================================================================================"
};
