/* XPM */
static char *sprite_277_front[] = {
/* columns rows colors chars-per-pixel */
"96 96 16 1 ",
"  c #101010",
". c #313139",
"X c #622039",
"o c #524120",
"O c #292952",
"+ c #294162",
"@ c #5A5A5A",
"# c #415A7B",
"$ c #945A10",
"% c #9C3152",
"& c #C55A73",
"* c #DEA431",
"= c #E6B462",
"- c #B4B4D5",
"; c white",
": c #000000",
/* pixels */
"::::::::::::::::::::::::::::::::::::::::::::::::::::::::::::::::::::::::::::::::::::::::::::::::",
"::::::::::::::::::::::::::::::::::::::::::::::::::::::::::::::::::::::::::::::::::::::::::::::::",
"::::::::::::::::::::::::::::::::::::::::::::::::::::::::::::::::::::::::::::::::::::::::::::::::",
"::::::::::::::::::::::::::::::::::::::::::::::::::::::::::::::::::::::::::::::::::::::::::::::::",
"::::::::::::::::::::::::::::::::::::::::::::::::::::::::::::::::::::::::::::::::::::::::::::::::",
"::::::::::::::::::::::::::::::::::::::::::::::::::::::::::::::::::::::::::::::::::::::::::::::::",
"::::::::::::::::::::::::::::::::::::::::::::::::::::::::::::::::::::::::::::::::::::::::::::::::",
"::::::::::::::::::::::::::::::::::::::::::::::::::::::::::::::::::::::::::::::::::::::::::::::::",
"::::::::::::::::::::::::::::::::::::::::::::::::::::::::::::::::::::::::::::::::::::::::::::::::",
"::::::::::::::::::::::::::::::::::::::::::::::::::::::::::::::::::::::::::::::::::::::::::::::::",
"::::::::::::::::::::::::::::::::::::::::::::::::::::::::::::::::::::::::::::::::::::::::::::::::",
"::::::::::::::::::::::::::::::::::::::::::::::::::::::::::::::::::::::::::::::::::::::::::::::::",
"::::::::::::::::::::::::::::::::::::::::::::::::::::::::::::::::::::::::::::::::::::::::::::::::",
"::::::::::::::::::::::::::::::::::::::::::::::::::::::::::::::::::::::::::::::::::::::::::::::::",
"::::::::::::::::::::::::::::::::::::::::::::::::::::::::::::::::::::::::::::::::::::::::::::::::",
"::::::::::::::::::::::::::::::::::::::::::::::::::::::::::::::::::::::::::::::::::::::::::::::::",
"::::::::::::::::::::::::::::::::::::::::::::::::::::::::::::::::::::::::::::::::::::::::::::::::",
"::::::::::::::::::::::::::::::::::::::::::::::::::::::::::::::::::::::::::::::::::::::::::::::::",
"::::::::::::::::::::::::::::::::::::::::::::::::::::::::::::::::::::::::::::::::::::::::::::::::",
"::::::::::::::::::::::::::::::::::::::::::::::::::::::::::::::::::::::::::::::::::::::::::::::::",
"::::::::::::::::::::::::OOOOOOOO::::::::::::::::::::::::::::::::::::::::::::::::::::::::::::::::",
"::::::::::::::::::::::OO&&%%####OO::::::::::::::::::::::::::::::::::::::::::::::::::::::::::::::",
":::::::::::::::::::::O%&&+####+O##O:::::::::::::::::::::::::::::::XX::::::::::::::::::::::::::::",
":::::::::::::::::::::O&&+##+OOO####O:::::::::::::::::::::::::::::X& ::::::::::::::::::::::::::::",
":::::::::::::::::::::oX%%+; --O#####O:::::::::::::::::::::::::::X& ::::::::::XX:::::::::::::::::",
":::::::::::::::::::oo**XX% --OX######OO::::::::::::::::::::::::X&& :::::::::X& :::::::::::::::::",
"::::::::::::::::::o*==**$XXOO%%X####+##OOO:::OO:::::::::::::::X%& :::::::::X&% :::::::::::::::::",
":::::::::::::::::ooooo$**$$X%%%%X##++++###OO+#O:::::::::::::::X&% :::::::::X& ::::::::::::::::::",
"::::::::::::::::::  $$$oooooX%%%X#++O++O+####O:::::::::::::::X%& :::::::::X&% ::::::::::::::::::",
"::::::::::::::::::::  $$$oo%%%%%%X++ +++OO  O:::::::::::::::X%%% ::::::::%&& :::::::::::::::::::",
":::::::::::::::::::::: oo%%%%%%%%X+++ +++++++OOOO:::::::::::X%% :::::::::X&% :::::::::::::::::::",
"::::::::::::::::::::::: %%%%%%%%%X+++ O +++++++ :::::::::::X%% :::::::::X%% ::::::::::::::::::::",
":::::::::::::::::::::::: %%%%%%%%X+++ ++  O+   :::::::::::X%%X ::::::::%%%% ::::::::::::::::::::",
":::::::::::::::::::::::: %%%%%%%%X++++ +++  ::::::::::::::X%% :::::::::X%% :::::::::::::::::::::",
":::::::::::::::::::::::: &&%%%%%X+++++    :::::::::::::::O#%% ::::::::X%% ::::::::::::::::::::::",
":::::::::::::::::::::::: &&&&%%X+++++++ ::::::::::::::::O##% ::::::::X%%% ::::::::::::::::::::::",
"::::::::::::::::::::::: &&&&&&%X+++++++ ::::::::::::::::O##% :::::::%%%% :::::::::::::::::::::::",
"::::::::::::::::::::::: &&&&&&X+++++++++ ::::::::::::::O### ::::::::X%%% :::::::::::::::::::::::",
"::::::::::::::::::::::OX&&&&&%+++X+++++++  :::::::::::O++#+ :::::::X%%% ::::::::::::::::::::::::",
"::::::::::::::::::::::OX&&&&%##+XX+++++      :::::::::O+++ :::::::X%%# :::::::::::::::::::::::::",
":::::::::::::::::::::O+%&&&%###X%X+++  ######   :::::O++++ ::::::O%## ::::::::::::::::::::::::::",
":::::::::::::::::::::O%#%&%###%&%X++ ######+++++  ::O++++ ::::::++### ::::::::::::::::::::::::::",
"::::::::::::::::::::OX&%####%&&&&X+ ####+++++++++++ O+++ :::::::O### :::::::::::::::::::::::::::",
":::::::::::::::::::O+X&%###%&&&&&X+ ###+++++++++++++O ++ ::::::O++++ :::::::::::::::::::::::::::",
":::::::::::::::::::OO%&&%#%&&&&&&X ####+++++++++++++++  ::::::O++++ ::::::::::::::::::::::::::::",
":::::::::::::::::::OO&&&&%&&&&&&%; ####++++++++++++++++ :::::O++++ :::::::::::::::::::::::::::::",
"::::::::::::::::::O+O&&&&&&&&&&%;; ###++++++++++++++++++ :::O+++++ :::::::::::::::::::::::::::::",
"::::::::::::::::::O+ &&&&&&&&&&%;; ###+++++++++++++++++++ :O+++++ ::::::::::::::::::::::::::::::",
"::::::::::::::::::O+ %&&&&&&&&%;;; ###++++++++++++++++++++ +++++ :::::::::::::::::::::::::::::::",
":::::::::::::::::: + %&&&&&&&%;;;; ###++++++++++++++++++++O ++++ :::::::::::::::::::::::::::::::",
":::::::::::::::::: O+ &&&&&&%;;;;;; ###++++++++++++++++++++ +++ ::::::::::::::::::::::::::::::::",
"::::::::::::::::::: + %&&&&&%;;;;;; +#++++++++++++++++O  ++# ++ ::::::::::::::::::::::::::::::::",
"::::::::::::::::::: + ;%&&&%;;;;;;; #+#++++++++++++++++++  ## O:::::::::::::::::::::::::::::::::",
":::::::::::::::::::: + ;%&%;;;;;;;;- +++++++++++++++O  ++++O## :::::::::::::::::::::::::::::::::",
"::::::::::::::::::::: O;;%;;;;;;-;-- ++++++++++++++++++  +##O# :::::::::::::::::::::::::::::::::",
"::::::::::::::::::::::  ;;;;;;;-;-;-- +++++++++++++++++++OO##O# ::::::::::::::::::::::::::::::::",
":::::::::::::::::::::::  ;;;;;;;-;---- ++++++++++++++++++##O##O ::::::::::::::::::::::::::::::::",
"::::::::::::::::::::::::: ;;;;;-------- +++++++OO    ++#####O##O :::::::::::::::::::::::::::::::",
"::::::::::::::::::::::::::  ------------  +++++++++++O   ####O## :::::::::::::::::::::::::::::::",
":::::::::::::::::::::::::::: -------------  +++++++++++++OO  #O## ::::::::::::::::::::::::::::::",
":::::::::::::::::::::::::::::  -------------   ++++++++++++++O    ::::::::::::::::::::::::::::::",
":::::::::::::::::::::::::::::::  --------------   +++++++++++++++O   :::::::::::::::::::::::::::",
":::::::::::::::::::::::::::::::::  ----------   ::    ++++++++++++###OO ::::::::::::::::::::::::",
":::::::::::::::::::::::::::::::::::          XX ::::::      +++++++#####O  :::::::::::::::::::::",
"::::::::::::::::::::::::::::::::::: XX ::::: XXX :::::::::::    ++++#######  :::::::::::::::::::",
":::::::::::::::::::::::::::::::::: XX ::::::: XX :::::::::::::::      ####### ::::::::::::::::::",
":::::::::::::::::::::::::::::::   XXX% ::::: XX ::::::::::::::::::::::       :::::::::::::::::::",
":::::::::::::::::::::::::::   XX%%X%%%% ::: %%X ::::::::::::::::::::::::::::::::::::::::::::::::",
":::::::::::::::::::::::::: ..  % X%%%  X   %%% . :::::::::::::::::::::::::::::::::::::::::::::::",
"::::::::::::::::::::::::::   @. @.   X% X&& X%% . ::::::::::::::::::::::::::::::::::::::::::::::",
":::::::::::::::::::::::::: :    @.: .  && X&&%    ::::::::::::::::::::::::::::::::::::::::::::::",
":::::::::::::::::::::::::::: :: @  .. @@ .&%  ::::::::::::::::::::::::::::::::::::::::::::::::::",
":::::::::::::::::::::::::::::::: :   @.  @. ::::::::::::::::::::::::::::::::::::::::::::::::::::",
":::::::::::::::::::::::::::::::::::: . : @. ::::::::::::::::::::::::::::::::::::::::::::::::::::",
"::::::::::::::::::::::::::::::::::::: :: @ :::::::::::::::::::::::::::::::::::::::::::::::::::::",
"::::::::::::::::::::::::::::::::::::::::: ::::::::::::::::::::::::::::::::::::::::::::::::::::::",
"::::::::::::::::::::::::::::::::::::::::::::::::::::::::::::::::::::::::::::::::::::::::::::::::",
"::::::::::::::::::::::::::::::::::::::::::::::::::::::::::::::::::::::::::::::::::::::::::::::::",
"::::::::::::::::::::::::::::::::::::::::::::::::::::::::::::::::::::::::::::::::::::::::::::::::",
"::::::::::::::::::::::::::::::::::::::::::::::::::::::::::::::::::::::::::::::::::::::::::::::::",
"::::::::::::::::::::::::::::::::::::::::::::::::::::::::::::::::::::::::::::::::::::::::::::::::",
"::::::::::::::::::::::::::::::::::::::::::::::::::::::::::::::::::::::::::::::::::::::::::::::::",
"::::::::::::::::::::::::::::::::::::::::::::::::::::::::::::::::::::::::::::::::::::::::::::::::",
"::::::::::::::::::::::::::::::::::::::::::::::::::::::::::::::::::::::::::::::::::::::::::::::::",
"::::::::::::::::::::::::::::::::::::::::::::::::::::::::::::::::::::::::::::::::::::::::::::::::",
"::::::::::::::::::::::::::::::::::::::::::::::::::::::::::::::::::::::::::::::::::::::::::::::::",
"::::::::::::::::::::::::::::::::::::::::::::::::::::::::::::::::::::::::::::::::::::::::::::::::",
"::::::::::::::::::::::::::::::::::::::::::::::::::::::::::::::::::::::::::::::::::::::::::::::::",
"::::::::::::::::::::::::::::::::::::::::::::::::::::::::::::::::::::::::::::::::::::::::::::::::",
"::::::::::::::::::::::::::::::::::::::::::::::::::::::::::::::::::::::::::::::::::::::::::::::::",
"::::::::::::::::::::::::::::::::::::::::::::::::::::::::::::::::::::::::::::::::::::::::::::::::",
"::::::::::::::::::::::::::::::::::::::::::::::::::::::::::::::::::::::::::::::::::::::::::::::::",
"::::::::::::::::::::::::::::::::::::::::::::::::::::::::::::::::::::::::::::::::::::::::::::::::",
"::::::::::::::::::::::::::::::::::::::::::::::::::::::::::::::::::::::::::::::::::::::::::::::::",
"::::::::::::::::::::::::::::::::::::::::::::::::::::::::::::::::::::::::::::::::::::::::::::::::",
"::::::::::::::::::::::::::::::::::::::::::::::::::::::::::::::::::::::::::::::::::::::::::::::::"
};
