/* XPM */
static char *sprite_323_front[] = {
/* columns rows colors chars-per-pixel */
"96 96 15 1 ",
"  c #181818",
". c #732939",
"X c gray29",
"o c #626262",
"O c #C53920",
"+ c #EE6A4A",
"@ c #F68B62",
"# c #5294BD",
"$ c #52BDDE",
"% c #8B8B8B",
"& c #ACA48B",
"* c #BDB4BD",
"= c #D5D5B4",
"- c white",
"; c #000000",
/* pixels */
";;;;;;;;;;;;;;;;;;;;;;;;;;;;;;;;;;;;;;;;;;;;;;;;;;;;;;;;;;;;;;;;;;;;;;;;;;;;;;;;;;;;;;;;;;;;;;;;",
";;;;;;;;;;;;;;;;;;;;;;;;;;;;;;;;;;;;;;;;;;;;;;;;;;;;;;;;;;;;;;;;;;;;;;;;;;;;;;;;;;;;;;;;;;;;;;;;",
";;;;;;;;;;;;;;;;;;;;;;;;;;;;;;;;;;;;;;;;;;;;;;;;;;;;;;;;;;;;;;;;;;;;;;;;;;;;;;;;;;;;;;;;;;;;;;;;",
";;;;;;;;;;;;;;;;;;;;;;;;;;;;;;;;;;;;;;;;;;;;;;;;;;;;;;;;;;;;;;;;;;;;;;;;;;;;;;;;;;;;;;;;;;;;;;;;",
";;;;;;;;;;;;;;;;;;;;;;;;;;;;;;;;;;;;;;;;;;;;;;;;;;;;;;;;;;;;;;;;;;;;;;;;;;;;;;;;;;;;;;;;;;;;;;;;",
";;;;;;;;;;;;;;;;;;;;;;;;;;;;;;;;;;;;;;;;;;;;;;;;;;;;;;;;;;;;;;;;;;;;;;;;;;;;;;;;;;;;;;;;;;;;;;;;",
";;;;;;;;;;;;;;;;;;;;;;;;;;;;;;;;;;;;;;;;;;;;;;;;;;;;;;;;;;;;;;;;;;;;;;;;;;;;;;;;;;;;;;;;;;;;;;;;",
";;;;;;;;;;;;;;;;;;;;;;;;;;;;;;;;;;;;;;;;;;;;;;;;;;;;;;;;;;;;;;;;;;;;;;;;;;;;;;;;;;;;;;;;;;;;;;;;",
";;;;;;;;;;;;;;;;;;;;;;;;;;;;;;;;;;;;;;;;;;;;;;;;;;;;;;;;;;;;;;;;;;;;;;;;;;;;;;;;;;;;;;;;;;;;;;;;",
";;;;;;;;;;;;;;;;;;;;;;;;;;;;;;;;;;;;;;;;;;;;;;;;;;;;;;;;;;;;;;;;;;;;;;;;;;;;;;;;;;;;;;;;;;;;;;;;",
";;;;;;;;;;;;;;;;;;;;;;;;;;;;;;;;;;;;;;;;;;;;;;;;;;;;;;;;;;;;;;;;;;;;;;;;;;;;;;;;;;;;;;;;;;;;;;;;",
";;;;;;;;;;;;;;;;;;;;;;;;;;;;;;;;;;;;;;;;;;;;;;;;;;;;;;;;;;;;;;;;;;;;;;;;;;;;;;;;;;;;;;;;;;;;;;;;",
";;;;;;;;;;;;;;;;;;;;;;;;;;;;;;;;;;;;;;;;;;;;;;;;;;;;;;;;;;;;;;;;;;;;;;;;;;;;;;;;;;;;;;;;;;;;;;;;",
";;;;;;;;;;;;;;;;;;;;;;;;;;;;;;;;;;;;;;;;;;;;;;;;;;;;;;;;;;;;;;;;;;;;;;;;;;;;;;;;;;;;;;;;;;;;;;;;",
";;;;;;;;;;;;;;;;;;;;;;;;;;;;;;;;;;;;;;;;;;;;;;;;;;;;;;;;;;;;;;;;;;;;;;;;;;;;;;;;;;;;;;;;;;;;;;;;",
";;;;;;;;;;;;;;;;;;;;;;;;;;;;;;;;;;;;;;;;;;;;;;;;;;;;;;;;;;;;;;;;;;;;;;;;;;;;;;;;;;;;;;;;;;;;;;;;",
";;;;;;;;;;;;;;;;;;;;;;;;;;;;;;;;;;;;;;;;;;;;;;;;;;;;;;;;;;;;;;;;;;;;;;;;;;;;;;;;;;;;;;;;;;;;;;;;",
";;;;;;;;;;;;;;;;;;;;;;;;;;;;;;;;;;;;;;;;;;;;;;;;;;;;;;;;;;;;;;;;;;;;;;;;;;;;;;;;;;;;;;;;;;;;;;;;",
";;;;;;;;;;;;;;;;;;;;;;;;;;;;;;;;;;;;;;;;;;;;;;;;;;;;;;;;;;;;;;;;;;;;;;;;;;;;;;;;;;;;;;;;;;;;;;;;",
";;;;;;;;;;;;;;;;;;;;;;;;;;;;;;;;;;;;;;;;;XXXXXXX;;;;;;;;;XXXXX;;;;;;;;;;;;;;;;;;;;;;;;;;;;;;;;;;",
";;;;;;;;;;;;;;;;;;;;;;;;;;;;;;;;;;;;;;;XX&=====&X  ;;;;;X=====XXXXX;;;;;;;;;;;;;;;;;;;;;;;;;;;;;",
";;;;;;;;;;;;;;;;;;;;;;;;;;;;;;;;;;;;;;X&=&X  X&==&X ;;;;X&&&&&&&&o& ;;;;;;;;;;;;;;;;;;;;;;;;;;;;",
";;;;;;;;;;;;;;;;;;;;;;;;;;;;;;;;;;;;;;Xo&=======oo& ;;;X---==&===&o ;;;;;;;;;;;;;;;;;;;;;;;;;;;;",
";;;;;;;;;;;;;;;;;;;;;;;;;;;;;;;;;;;;;;X-=&&&&&oo&&&X;;;X----=&===&& ;;;;;;;;;;;;;;;;;;;;;;;;;;;;",
";;;;;;;;;;;;;;;;;;;;;;;;;;;;;;;;;;;;;;X---=&=====&&& ;;X----=&===&& ;;;;;;;;;;;;;;;;;;;;;;;;;;;;",
";;;;;;;;;;;;;;;;;;;;;;;;;;;;;;;;;;;;;X-----&=====&&& ;X&&---&=====&& XX;;;;;;;;;;;;;;;;;;;;;;;;;",
";;;;;;;;;;;;;;;;;;;;;;;;;;;;;;;;;;;;;X-----&=====&&&& X&&&=-&=====&& &&X;;;;;;;;;;;;;;;;;;;;;;;;",
";;;;;;;;;;;;;;;;;;;;;;;;;;;;;;;;;;;;;X=-=-=&&=====&&& &&&&&=&====XXXXX&X;;;;;;;;;;;;;;;;;;;;;;;;",
";;;;;;;;;;;;;;;;;;;;;;;;;;;;;;;;;;;;X=-=-=&&&=====XXXX &&&&&====X--===X& ;;;;;;;;;;;;;;;;;;;;;;;",
";;;;;;;;;;;;;;;;;;;;;;;;;;;;;;;;;;;   &==-&&&====X----= &&XX&XX &---==X& ;;;;;;;;;;;;;;;;;;;;;;;",
";;;;;;;;;;;;;;;;;;;;;;;;;;;;;;;;;;X---  =&&XXXX=X=----=& X== =& &=-==&&  ;;;;;;;;;;;;;;;;;;;;;;;",
";;;;;;;;;;;;;;;;;;;;;;;;;;;;;;;;;X-----& &X=---XX&=-.=&& &==& && &&&X&& .. ;;;;;;;;;;;;;;;;;;;;;",
";;;;;;;;;;;;;;;;;;;;;;;;;;;; ;;;XX----&&& &----&& &.+X&&+.&.& &O &&..&X..O ;;;;;;;;;;;;;;;;;;;;;",
";;;;;;;;;;;;;;;;;;;;;;;;;;;.+ ;X&&.==&&&& &---=&&& O+.&.+.X+.&.++X&.O.+OO ;;;;;;;;;;;;;;;;;;;;;;",
";;;;;;;;;;;;;;;;;;;;;;;;;;;.+ ;X&.+.==&&& XXXX&&&& +++.++O+++.+++X.OO+OOO ;;;;;;;;;;;;;;;;;;;;;;",
";;;;;;;;;;;;;;;;;;;;;;;;;;.+++ .O++.&O.&&X=--&X&&& +++O++++++O++++.+++OOOO ;;;;;;;;;;;;;;;;;;;;;",
";;;;;;;;;;;;;;;;;;;;;;;;;;.+++ O++++.+.&X&----& & O++++++++++++++++++O+++OO.;;;;;;;;;;;;;;;;;;;;",
";;;;;;;;;;;;;;;;;;;;;O ;;;.+++O ++++O++.X&=--=& O++++++++++++++++++++++++OO ;;;;;;;;;;;;;;;;;;;;",
";;;;;;;;;;;;;;;;;;;;;O+ ;.+++++ +++++++..&&==&& ++++++++++++++++++++++++++OO.;;;;;;;;;;;;;;;;;;;",
";;;;;;;;;;;;;;;;;;;;;O++ .+++++ ++++OO+++.O&&& +++++++++++++++++++++++++++OO ;;;;;;;;;;;;;;;;;;;",
";;;;;;;;;;;;;;;;;;;;;O++ .+++++ ++OO+ ++++O   +++++++++++++++++++++++++$$+OOO.;;;;;;;;;;;;;;;;;;",
";;;;;;;;;;;;;;;;;;;;;;O++.+++++ OO+++ ++++++++++++++++++++++++++++++++$$$$OOO ;;;;;;;;;;;;;;;;;;",
";;;;;;;;;;;;;;;;;;;;;;O++.++++O.O+++ +++++++++++++++++++++++++++++++++$$$$OOO ;;;;;;;;;;;;;;;;;;",
";;;;;;;;;;;;;;;;;;OOOO ++O+++O.+++++ ++++++++++++++++++++++++++$$$+++$$++$#OOO ;;;;;;;;;;;;;;;;;",
";;;;;;;;;;;;;;;OOO++++ ++O+++O+++++ ++++++++++++++++++++++++++$$$$$++$$++$#OOO ;;;;;;;;;;;;;;;;;",
";;;;;;;;;;;;;OO++++++O+O++++O++++O ..+++++++++++++++++$$$+++++$$+$$++$$++##OOO ;;;;;;;;;;;;;;;;;",
";;;;;;;;;;;;O+++++++.+@@++++++++O.+++..++++++++++++++$$$$$+++$$$+$$$+$$+O##OOO  ;;;;;;;;;;;;;;;;",
";;;;;;;;;;;; ++++++O.@@@+++++++++++++++..++++++++++++$$+$$+++$$+++$$+$$+O##OOOO ;;;;;;;;;;;;;;;;",
";;;;;;;;;;;;; OOOO .O@@@+++++++++++++++++..+++++++++$$$+$$$++$$+++$$+$$+O##OOO.O ;;;;;;;;;;;;;;;",
";;;;;;;;;;;;;;    O.+@@@+++++++++++++++++++.++++++++$$+++$$++$$+++$$+$$OO##OOO.O ;;;;;;;;;;;;;;;",
";;;;;;;;;;;;;;;;;.+.+@@+++++++++++O+++++++++.+++++++$$+++$$++$$+++$$+$$OO##OOO O ;;;;;;;;;;;;;;;",
";;;;;;;;;;;;;;;;; +.O++++++++++O+++ O++++++++.++++++$$+++$$++$$+++$$+$#OO##OOO OO ;;;;;;;;;;;;;;",
";;;;;;;;;;;;;;;;; ++O+++++++++O+++++ OO+++++O ++++++$$+++$$++$$+++$$++####OOO..OO ;;;;;;;;;;;;;;",
";;;;;;;;;;;;;;;; *.+O+=+++++++O+++++O  OOOO  +++++++$$+++$$++$$+++$$+O####OOO OOOO ;;;;;;;;;;;;;",
";;;;;;;;;;;;;;;; - O+@=+++=++O++++++.OO    +++++++++$$+++$$++$$+++$$+OO##OOOO .OOO ;;;;;;;;;;;;;",
";;;;;;;;;;;;;;;; - O+==@+@=@+O+++++O.OOOOO++++++++++$$+++$$++$$$+$$#OOOOOOOOO  OOOO ;;;;;;;;;;;;",
";;;;;;;;;;;;;;;; *-O@==@+==@+.++OO..X OOOO++++++++++$$+++$$++$$$+$#OOOOOOOOO ;;  OO ;;;;;;;;;;;;",
";;;;;;;;;;;;;;;;; *&====@===@X..- **X OOOOO+++++++++$$$+$$$+++$####OOOOOOOOO ;;;;  ;;;;;;;;;;;;;",
";;;;;;;;;;;;;;;;; X&=========&X-  *-X OOOOO++++++++++$$+$$+++OO###OOOOOOOOOO ;;;;;;;;;;;;;;;;;;;",
";;;;;;;;;;;;;;;;;;X===========X*----X& OOOOO+++++++++$$$##OOOOOOOOOOOOOOOOOO ;;;;;;;;;;;;;;;;;;;",
";;;;;;;;;;;;;;;;;X&===========&%---%&& OOOOOO+O+O++++O###OOOOOOOOOOOOOOOOOOO ;;;;;;;;;;;;;;;;;;;",
";;;;;;;;;;;;;;;;X&============&X*-*X&& OOOOOOO+O+O+OOOOOOOOOOOOOOOOOOOOOOOOO ;;;;;;;;;;;;;;;;;;;",
";;;;;;;;;;;;;;;;X&============&&XXX&&& OOOOOO+O+O+OOOOOOOOOOOOOOOOOOO.OOOOOO ;;;;;;;;;;;;;;;;;;;",
";;;;;;;;;;;;;;;; &============&&&&&&& OOOOOOOO+O+OOOOOOOO.OOOOOOOOOO.OOOOOOO..;;;;;;;;;;;;;;;;;;",
";;;;;;;;;;;;;;;; & ==========&&&&X&  OOOO.OOOOOOOOOOOOOO.OOOOOOOOO  OOOOOOOOO ;;;;;;;;;;;;;;;;;;",
";;;;;;;;;;;;;;;; & X=====  =&&&&&X OOOOOOO.OOOOOOOOOOOOO OOOOOOO  OOOOOOOOOOO ;;;;;;;;;;;;;;;;;;",
";;;;;;;;;;;;;;;;; &X&&&&X X&&&&&& O OOOOOO OOOOOOOOOOOOO OOOO   OOOOOOOOOOOOOO ;;;;;;;;;;;;;;;;;",
";;;;;;;;;;;;;;;;; &&&&&&&&&&&&&&& O.   OOOO OOOOOOOOOOOO     ;;.OOOOOOOOOOOOO ;;;;;;;;;;;;;;;;;;",
";;;;;;;;;;;;;;;;;; &&&&&&&&&&&&& OO.;;;     OOOOOOOOOOOO ;;;;;.OOO.OOOOOOOO.OO ;;;;;;;;;;;;;;;;;",
";;;;;;;;;;;;;;;;;;;  &&&&&&&&&X O.OO ;;;;;; O+++OOOOOOOO ;;;;; OO..OOO.OO.O   ;;;;;;;;;;;;;;;;;;",
";;;;;;;;;;;;;;;;;;;;;        XOOO .  ;;;;;; ++++++OOOOOO. ;;;;; Oo .O.o.O.  ;;;;;;;;;;;;;;;;;;;;",
";;;;;;;;;;;;;;;;;;;;; o  oooo..  oo ;;;;;; ++++++++OOOOOOO ;;;; .o  oooo.oo ;;;;;;;;;;;;;;;;;;;;",
";;;;;;;;;;;;;;;;;;;;; o  oooooooo  ;;;;;;.++++++++++OOOOO ;;;;;;    oooo   ;;;;;;;;;;;;;;;;;;;;;",
";;;;;;;;;;;;;;;;;;;;;;   ooooo    ;;;;;;;  +O +++ ++ OO OO ;;;;;;;      ;;;;;;;;;;;;;;;;;;;;;;;;",
";;;;;;;;;;;;;;;;;;;;;;;;;      ;;;;;;;;;;; O  oO .+.  O. O ;;;;;;;;;;;;;;;;;;;;;;;;;;;;;;;;;;;;;",
";;;;;;;;;;;;;;;;;;;;;;;;;;;;;;;;;;;;;;;;;;; %%o oo  oo..  ;;;;;;;;;;;;;;;;;;;;;;;;;;;;;;;;;;;;;;",
";;;;;;;;;;;;;;;;;;;;;;;;;;;;;;;;;;;;;;;;;;; %%o  ooooo  ;;;;;;;;;;;;;;;;;;;;;;;;;;;;;;;;;;;;;;;;",
";;;;;;;;;;;;;;;;;;;;;;;;;;;;;;;;;;;;;;;;;;;;  o  ooo   ;;;;;;;;;;;;;;;;;;;;;;;;;;;;;;;;;;;;;;;;;",
";;;;;;;;;;;;;;;;;;;;;;;;;;;;;;;;;;;;;;;;;;;;;;      ;;;;;;;;;;;;;;;;;;;;;;;;;;;;;;;;;;;;;;;;;;;;",
";;;;;;;;;;;;;;;;;;;;;;;;;;;;;;;;;;;;;;;;;;;;;;;;;;;;;;;;;;;;;;;;;;;;;;;;;;;;;;;;;;;;;;;;;;;;;;;;",
";;;;;;;;;;;;;;;;;;;;;;;;;;;;;;;;;;;;;;;;;;;;;;;;;;;;;;;;;;;;;;;;;;;;;;;;;;;;;;;;;;;;;;;;;;;;;;;;",
";;;;;;;;;;;;;;;;;;;;;;;;;;;;;;;;;;;;;;;;;;;;;;;;;;;;;;;;;;;;;;;;;;;;;;;;;;;;;;;;;;;;;;;;;;;;;;;;",
";;;;;;;;;;;;;;;;;;;;;;;;;;;;;;;;;;;;;;;;;;;;;;;;;;;;;;;;;;;;;;;;;;;;;;;;;;;;;;;;;;;;;;;;;;;;;;;;",
";;;;;;;;;;;;;;;;;;;;;;;;;;;;;;;;;;;;;;;;;;;;;;;;;;;;;;;;;;;;;;;;;;;;;;;;;;;;;;;;;;;;;;;;;;;;;;;;",
";;;;;;;;;;;;;;;;;;;;;;;;;;;;;;;;;;;;;;;;;;;;;;;;;;;;;;;;;;;;;;;;;;;;;;;;;;;;;;;;;;;;;;;;;;;;;;;;",
";;;;;;;;;;;;;;;;;;;;;;;;;;;;;;;;;;;;;;;;;;;;;;;;;;;;;;;;;;;;;;;;;;;;;;;;;;;;;;;;;;;;;;;;;;;;;;;;",
";;;;;;;;;;;;;;;;;;;;;;;;;;;;;;;;;;;;;;;;;;;;;;;;;;;;;;;;;;;;;;;;;;;;;;;;;;;;;;;;;;;;;;;;;;;;;;;;",
";;;;;;;;;;;;;;;;;;;;;;;;;;;;;;;;;;;;;;;;;;;;;;;;;;;;;;;;;;;;;;;;;;;;;;;;;;;;;;;;;;;;;;;;;;;;;;;;",
";;;;;;;;;;;;;;;;;;;;;;;;;;;;;;;;;;;;;;;;;;;;;;;;;;;;;;;;;;;;;;;;;;;;;;;;;;;;;;;;;;;;;;;;;;;;;;;;",
";;;;;;;;;;;;;;;;;;;;;;;;;;;;;;;;;;;;;;;;;;;;;;;;;;;;;;;;;;;;;;;;;;;;;;;;;;;;;;;;;;;;;;;;;;;;;;;;",
";;;;;;;;;;;;;;;;;;;;;;;;;;;;;;;;;;;;;;;;;;;;;;;;;;;;;;;;;;;;;;;;;;;;;;;;;;;;;;;;;;;;;;;;;;;;;;;;",
";;;;;;;;;;;;;;;;;;;;;;;;;;;;;;;;;;;;;;;;;;;;;;;;;;;;;;;;;;;;;;;;;;;;;;;;;;;;;;;;;;;;;;;;;;;;;;;;",
";;;;;;;;;;;;;;;;;;;;;;;;;;;;;;;;;;;;;;;;;;;;;;;;;;;;;;;;;;;;;;;;;;;;;;;;;;;;;;;;;;;;;;;;;;;;;;;;",
";;;;;;;;;;;;;;;;;;;;;;;;;;;;;;;;;;;;;;;;;;;;;;;;;;;;;;;;;;;;;;;;;;;;;;;;;;;;;;;;;;;;;;;;;;;;;;;;",
";;;;;;;;;;;;;;;;;;;;;;;;;;;;;;;;;;;;;;;;;;;;;;;;;;;;;;;;;;;;;;;;;;;;;;;;;;;;;;;;;;;;;;;;;;;;;;;;",
";;;;;;;;;;;;;;;;;;;;;;;;;;;;;;;;;;;;;;;;;;;;;;;;;;;;;;;;;;;;;;;;;;;;;;;;;;;;;;;;;;;;;;;;;;;;;;;;"
};
