/* XPM */
static char *sprite_574_front[] = {
/* columns rows colors chars-per-pixel */
"96 96 14 1 ",
"  c #181818",
". c #313131",
"X c #5A314A",
"o c #414141",
"O c #7B4A41",
"+ c gray45",
"@ c #FF6A4A",
"# c #084A8B",
"$ c #946A83",
"% c #39A4FF",
"& c #B4B4B4",
"* c #CD8BBD",
"= c white",
"- c None",
/* pixels */
"------------------------------------------------------------------------------------------------",
"------------------------------------------------------------------------------------------------",
"------------------------------------------------------------------------------------------------",
"------------------------------------------------------------------------------------------------",
"------------------------------------------------------------------------------------------------",
"------------------------------------------------------------------------------------------------",
"------------------------------------------------------------------------------------------------",
"------------------------------------------------------------------------------------------------",
"------------------------------------------------------------------------------------------------",
"------------------------------------------------------------------------------------------------",
"------------------------------------------------------------------------------------------------",
"------------------------------------------------------------------------------------------------",
"------------------------------------------------------------------------------------------------",
"------------------------------------------------------------------------------------------------",
"------------------------------------------------------------------------------------------------",
"------------------------------------------------------------------------------------------------",
"------------------------------------------------------------------------------------------------",
"------------------------------------------------------------------------------------------------",
"------------------------------------------------------------------------------------------------",
"------------------------------------------------------------------------------------------------",
"------------------------------------------------------------------------------------------------",
"------------------------------------------------------------------------------------------------",
"------------------------------------------------------------------------------------------------",
"------------------------------------------------------------------------------------------------",
"------------------------------------------------------------------------------------------------",
"------------------------------------------------------------------------------------------------",
"------------------------------------------------------------------------------------------------",
"----------------------------------------------...-----------------------------------------------",
"---------------------------------------------.ooo.----------------------------------------------",
"--------------------------------------------- ooo.----------------------------------------------",
"--------------------------------------------- oooo.---------------------------------------------",
"--------------------------------------------- oooo.---++--  ------------------------------------",
"------------------------------------------  -- ooo.--+&&+ == -----------------------------------",
"------------------------------------++--- =+ - oo.---+&&+&== -----------------------------------",
"-----------------------------------+==+- === -- o.--+&&& ==== ----------------------------------",
"-----------------------------------+===+ ===+   oo...&&&===== ----------------------------------",
"---------------------------------- ==== ===== ooooooo..&&==== ----------------------------------",
"---------------------------------- ====+===== .oooooooo. ===& ----------------------------------",
"---------------------------------- &========= *o.*.oo**$$ =& -----------------------------------",
"---------------------------------- &&==&====+ *.***.o***** & -----------------------------------",
"----------------------------------- &&&&+=== *******$*****X ------------------------------------",
"----------------------------------- &&&&  =+ ***********X * ------------------------------------",
"------------------------------------ && X*  *$  $******$&$X ------------------------------------",
"-------------------------------------  -X***$ =&X******X#=X* -----------------------------------",
"---------------------------------------X***XX&#=&$****$#=#&X -----------------------------------",
"---------------------------------------X**** #=#=X****$#%#&$ -----------------------------------",
"---------------------------------------X$**X #%#=X*****X#%&X -----------------------------------",
"---------------------------------------X$$$*X%#%&$***OO X=X ------------------------------------",
"---------------------------------------- $$XXX%=X***O@@O  $ ------------------------------------",
"---------------------------------------- $$$$XXX$$$$O  $$$ -------------------------------------",
"----------------------------------------- $$$$$$$$$$@@O$X --------------------------------------",
"------------------------------------------XX$$$  $$$$$   ---------------------------------------",
"--------------------------------------------XX ==  $$ ==+ --------------------------------------",
"--------------------------------------------. &====  ==== --------------------------------------",
"------------------------------------------..o =========== --------------------------------------",
"----------------------------------------..ooo &=====+===& --------------------------------------",
"---------------------------------------- ooo  +====  +== ---------------------------------------",
"-----------------------------------------   oo +== oo   ----------------------------------------",
"----------------------------------------- =+o=+   =+  ------------------------------------------",
"----------------------------------------- =&===&==== -------------------------------------------",
"----------------------------------------- ..+=+.+=.+ -------------------------------------------",
"----------------------------------------- ....   .. --------------------------------------------",
"------------------------------------------ .. -- .. --------------------------------------------",
"------------------------------------------ .. -- . ---------------------------------------------",
"------------------------------------------ . ---  ----------------------------------------------",
"-------------------------------------------  ---------------------------------------------------",
"------------------------------------------------------------------------------------------------",
"------------------------------------------------------------------------------------------------",
"------------------------------------------------------------------------------------------------",
"------------------------------------------------------------------------------------------------",
"------------------------------------------------------------------------------------------------",
"------------------------------------------------------------------------------------------------",
"------------------------------------------------------------------------------------------------",
"------------------------------------------------------------------------------------------------",
"------------------------------------------------------------------------------------------------",
"------------------------------------------------------------------------------------------------",
"------------------------------------------------------------------------------------------------",
"------------------------------------------------------------------------------------------------",
"------------------------------------------------------------------------------------------------",
"------------------------------------------------------------------------------------------------",
"------------------------------------------------------------------------------------------------",
"------------------------------------------------------------------------------------------------",
"------------------------------------------------------------------------------------------------",
"------------------------------------------------------------------------------------------------",
"------------------------------------------------------------------------------------------------",
"------------------------------------------------------------------------------------------------",
"------------------------------------------------------------------------------------------------",
"------------------------------------------------------------------------------------------------",
"------------------------------------------------------------------------------------------------",
"------------------------------------------------------------------------------------------------",
"------------------------------------------------------------------------------------------------",
"------------------------------------------------------------------------------------------------",
"------------------------------------------------------------------------------------------------",
"------------------------------------------------------------------------------------------------",
"------------------------------------------------------------------------------------------------",
"------------------------------------------------------------------------------------------------"
};
