/* XPM */
static char *sprite_027_back[] = {
/* columns rows colors chars-per-pixel */
"96 96 13 1 ",
"  c #101010",
". c #734A18",
"X c #10397B",
"o c #836210",
"O c #B48310",
"+ c #CDB400",
"@ c #EEDE10",
"# c #297BCD",
"$ c #838383",
"% c #CDBDB4",
"& c #EEEEDE",
"* c white",
"= c #000000",
/* pixels */
"================================================================================================",
"================================================================================================",
"================================================================================================",
"================================================================================================",
"================================================================================================",
"================================================================================================",
"================================================================================================",
"================================================================================================",
"================================================================================================",
"================================================================================================",
"================================================================================================",
"================================================================================================",
"================================================================================================",
"================================================================================================",
"================================================================================================",
"================================================================================================",
"================================================================================================",
"================================================================================================",
"================================================================================================",
"================================================================================================",
"================================================================================================",
"================================================================================================",
"================================================================================================",
"================================================================================================",
"================================================================================================",
"================================================================================================",
"================================================================================================",
"================================================================================================",
"============================================oo=============oo===================================",
"===========================================.+@oo==ooooo==oo@@o==================================",
"===========================================.@@@+.o@O@@+oo@@@+o==================================",
"===========================================.+@.o@@O@@@@O++@@o===================================",
"============================================..+OOOOOO@++OO++.===================================",
"=============================================.O@@@@@+O++++Oo.===================================",
"============================================.+@@@@@@@@OO+++++.==================================",
"===========================================.+@@@@@@@@@+OO++++O==================================",
"===========================================OOOOOOO+@@++O+O++O O=================================",
"=========================================OO@@O@@@+OOO+O++O++ *.=================================",
"========================================.+@@O@@@@@++OOO+++O+ #.=================================",
"=======================================.+@@@O@@@@@++O+O+++OO X.=================================",
"========================.=============.+OOOOOOO@@++O+++O+O%%&X$=================================",
"======================= @.===========.OO+@@@@@+OO++O++++.%%&&&$=================================",
"======================= @@.=========.O++++@@@++O+OO+++++.%%&&&$=================================",
"======================= +@@.========.O+++++++++O+++O++++o%%%&&$=================================",
"======================= +@O.=======.++++++++++O+++++O++o+.$%&$==================================",
"======================== O@+.======.++OOOOO+++O+++++OOOO@.=$$===================================",
"======================== +@@@.====.OOO++O++OOOO+++++O+O@@+.=====================================",
"======================== ++@@O..==.+++++O+++++OO+++O+o++@+@.====================================",
"========================= +++O@+...++++O+++++++OOO+O+o++O+@.====================================",
"========================= OOO@@@++O..++O+++++++O++OoooOO+O+ ====================================",
"========================= ++O+@@+O+++.oooO++++O++OO+++.++O+ ====================================",
"========================== ++O+++OO++O+O++OOO+O+O++++@@.O+ =====================================",
"========================== +++O+O++OO+++O++O+OOO+++++@@@. ======================================",
"=========================== +++O++++O+++O++O+++OO+++++@O.=======================================",
"============================ OO+++++O+++O++O++O++OOOOOO@@.======================================",
"============================= O++++O++++O++O++O+++++O+@@@.======================================",
"==============================  O+OO++++O++O++o+++++O+@@@.======================================",
"================================  ++OO+O++O+++o++++O++@@.=======================================",
"=================================.  ++O+++O++++.O++oOOOO =======================================",
"=================================.O+..oooO++++O.+OOO+@@ ========================================",
"==================================.O+OOO..      .++++@ =========================================",
"=================================.O++++OO ======= .+++ .========================================",
"================================= ++++++O.=======.++++O*$$======================================",
"==================================      .======= ++++++$**$=====================================",
"================================================ O++++O   ======================================",
"=================================================      =========================================",
"================================================================================================",
"================================================================================================",
"================================================================================================",
"================================================================================================",
"================================================================================================",
"================================================================================================",
"================================================================================================",
"================================================================================================",
"================================================================================================",
"================================================================================================",
"================================================================================================",
"================================================================================================",
"================================================================================================",
"================================================================================================",
"================================================================================================",
"================================================================================================",
"================================================================================================",
"================================================================================================",
"================================================================================================",
"================================================================================================",
"================================================================================================",
"================================================================================================",
"================================================================================================",
"================================================================================================",
"================================================================================================",
"================================================================================================",
"================================================================================================",
"================================================================================================",
"================================================================================================",
"================================================================================================"
};
