/* XPM */
static char *sprite_251_back[] = {
/* columns rows colors chars-per-pixel */
"96 96 14 1 ",
"  c #101010",
". c #4A7320",
"X c #73A431",
"o c #B4C55A",
"O c #A4DE52",
"+ c #0062B4",
"@ c #6A7383",
"# c #528BAC",
"$ c #DEEE94",
"% c #8BB4CD",
"& c #FFFFDE",
"* c #C5DEE6",
"= c white",
"- c #000000",
/* pixels */
"------------------------------------------------------------------------------------------------",
"------------------------------------------------------------------------------------------------",
"------------------------------------------------------------------------------------------------",
"------------------------------------------------------------------------------------------------",
"------------------------------------------------------------------------------------------------",
"------------------------------------------------------------------------------------------------",
"------------------------------------------------------------------------------------------------",
"------------------------------------------------------------------------------------------------",
"------------------------------------------------------------------------------------------------",
"------------------------------------------------------------------------------------------------",
"------------------------------------------------------------------------------------------------",
"------------------------------------------------------------------------------------------------",
"------------------------------------------------------------------------------------------------",
"------------------------------------------------------------------------------------------------",
"------------------------------------------------------------------------------------------------",
"------------------------------------------------------------------------------------------------",
"------------------------------------------------------------------------------------------------",
"------------------------------------------------------------------------------------------------",
"------------------------------------------------------------------------------------------------",
"------------------------------------------------------------------------------------------------",
"------------------------------------------------------------------------------------------------",
"------------------------------------------------------------------------------------------------",
"------------------------------------------------------------------------------------------------",
"------------------------------------------------------------------------------------------------",
"------------------------------------------------------------------------------------------------",
"-----------------------------------------X------------------------------------------------------",
"----------------------------------------XOX-----------------------------------------------------",
"----------------------------------------XOX-----------------------------------------------------",
"----------------------------------------XOX-----------------------------------------------------",
"---------------------------------------.OXOX---##-----------------------------------------------",
"---------------------------------------.OXOX---+%%#------##-------------------------------------",
"--------------------------------------- XXO.----++%#-----+%%#-----------------------------------",
"--------------------------------------- X.XO.-----+%#-----++%#----------------------------------",
"--------------------------------------.X.X.O..-----*#-------+%#---------------------------------",
"--------------------------------------.X.X.X.O.----+$#-------*#---------------------------------",
"-------------------------------------- X.X.XX.O..--.&.-------+$#--------------------------------",
"-------------------------------------- X.XX.X.XXX.XXo.-------.&.--------------------------------",
"-------------------------------------- XX.X.XX.Xo&&$XX------X$$.--------------------------------",
"-------------------------------------- .X.XX.XX.oo$&&$X-----X$.---------------------------------",
"-------------------------------------- .X.XXo.ooXoooo$$X---X$o.---------------------------------",
"-------------------------------------- oXo.oooXooooooooo.Xooo.----------------------------------",
"-------------------------------------- oXoXoooooooooooooX.o..-----------------------------------",
"-------------------------------------- oooooooooooooooooo..-------------------------------------",
"---------------------------------------.ooooooooooooooo  .--------------------------------------",
"--------------------------------------- oooooooooooooo@   --------------------------------------",
"--------------------------------------- oooooooooooooo  = --------------------------------------",
"--------------------------------------- oooooooooooooo @# --------------------------------------",
"----------------------------------------.ooooooooooooo =+ --------------------------------------",
"---------------------------------------- ooooooooooooo@=% --------------------------------------",
"----------------------------------------- oo##ooooooooo  ---------------------------------------",
"--------------------------------------###- #=*#ooooooooX ---------------------------------------",
"-------------------------------------+=**#+#==*#oooooo. ----------------------------------------",
"-------------------------------------+===**+*==*#ooX  ------------------------------------------",
"------------------------------------.-+*=***+==**#o --------------------------------------------",
"-----------------------------------.$XX++#***+#***#oXX------------------------------------------",
"-----------------------------------.o$$$oo++#oo+#*+o$$XX----------------------------------------",
"------------------------------------.X.XoooooXXoo#XXo$$o..--------------------------------------",
"---------------------------------------..XooX. oooo..oo$$o..------------------------------------",
"------------------------------------------..-- oooX. Xoooooo.. ---------------------------------",
"--------------------------------------------- .XoX...   .ooooo ---------------------------------",
"--------------------------------------------  ..X.... ---  o. ----------------------------------",
"--------------------------------------------X ....... -- XX  -----------------------------------",
"------------------------------------------- X. ..... .  XXX. -----------------------------------",
"------------------------------------------- ....    ...X .X. -----------------------------------",
"-------------------------------------------- .. -----  ..... -----------------------------------",
"---------------------------------------------  --------  .. ------------------------------------",
"---------------------------------------------------------  -------------------------------------",
"------------------------------------------------------------------------------------------------",
"------------------------------------------------------------------------------------------------",
"------------------------------------------------------------------------------------------------",
"------------------------------------------------------------------------------------------------",
"------------------------------------------------------------------------------------------------",
"------------------------------------------------------------------------------------------------",
"------------------------------------------------------------------------------------------------",
"------------------------------------------------------------------------------------------------",
"------------------------------------------------------------------------------------------------",
"------------------------------------------------------------------------------------------------",
"------------------------------------------------------------------------------------------------",
"------------------------------------------------------------------------------------------------",
"------------------------------------------------------------------------------------------------",
"------------------------------------------------------------------------------------------------",
"------------------------------------------------------------------------------------------------",
"------------------------------------------------------------------------------------------------",
"------------------------------------------------------------------------------------------------",
"------------------------------------------------------------------------------------------------",
"------------------------------------------------------------------------------------------------",
"------------------------------------------------------------------------------------------------",
"------------------------------------------------------------------------------------------------",
"------------------------------------------------------------------------------------------------",
"------------------------------------------------------------------------------------------------",
"------------------------------------------------------------------------------------------------",
"------------------------------------------------------------------------------------------------",
"------------------------------------------------------------------------------------------------",
"------------------------------------------------------------------------------------------------",
"------------------------------------------------------------------------------------------------",
"------------------------------------------------------------------------------------------------"
};
