/* XPM */
static char *sprite_543_back[] = {
/* columns rows colors chars-per-pixel */
"96 96 14 1 ",
"  c #101010",
". c #313139",
"X c #622031",
"o c #084A39",
"O c #007339",
"+ c #733141",
"@ c #940041",
"# c #BD3152",
"$ c #E6627B",
"% c #00945A",
"& c #BD8B08",
"* c #EEB408",
"= c #FF94A4",
"- c #000000",
/* pixels */
"------------------------------------------------------------------------------------------------",
"------------------------------------------------------------------------------------------------",
"------------------------------------------------------------------------------------------------",
"------------------------------------------------------------------------------------------------",
"------------------------------------------------------------------------------------------------",
"------------------------------------------------------------------------------------------------",
"------------------------------------------------------------------------------------------------",
"------------------------------------------------------------------------------------------------",
"------------------------------------------------------------------------------------------------",
"------------------------------------------------------------------------------------------------",
"------------------------------------------------------------------------------------------------",
"------------------------------------------------------------------------------------------------",
"------------------------------------------------------------------------------------------------",
"------------------------------------------------------------------------------------------------",
"------------------------------------------------------------------------------------------------",
"------------------------------------------------------------------------------------------------",
"------------------------------------------------------------------------------------------------",
"------------------------------------------------------------------------------------------------",
"------------------------------------------------------------------------------------------------",
"------------------------------------------------------------------------------------------------",
"------------------------------------------------------------------------------------------------",
"------------------------------------------------------------------------------------------------",
"------------------------------------------------------------------------------------------------",
"------------------------------------------------------------------------------------------------",
"------------------------------------------------------------------------------------------------",
"------------------------------------------------------------------------------------------------",
"------------------------------------------------------------------------------------------------",
"------------------------------------------------------------------------------------------------",
"----------------------------------------------------------- X-----------------------------------",
"---------------------------------------------------XX------ #X----------------------------------",
"---------------------------------------------------X#------ #X----------------------------------",
"---------------------------------------------------X#X----- #X----------------------------------",
"----------------------------------------------------#X----- #@X---------------------------------",
"----------------------------------------------     -X#X----- #X---------------------------------",
"-------------------------------------------XXX#####   X----- #X---------------------------------",
"-----------------------------------------XX########$$#  ---- #@X--------------------------------",
"----------------------------------------X##########$==$# --- ##X--------------------------------",
"---------------------------------------X#############$$## --- +.X-------------------------------",
"-------------------------------------- ################### -- ..X-------------------------------",
"------------------------------------- ##    @############## - ...X------------------------------",
"------------------------XX----------- XXOOOO   ###########@ - ...X------------------------------",
"------------------------ #X--------- OOOOOOOOOO @########@@@ .....X-----------------------------",
"------------------------ X#X--------oO%%%%OOOOOO @#####@@@@@ .....X-----------------------------",
"------------------XX----- ##X------ Ooooo%%OOOOOO #@@@@@@@@@@ ....X-----------------------------",
"------------------X@XX--- X#@----- oo%%%%oo%OOOOOOX@@@@@@@@@@ ..+#X-----------------------------",
"-------------------X@@X--- ##X---- %%%%%%%%o%OOOOOX@@@@@@@@@@ ####X-----------------------------",
"--------------------X@@XX- X#+ --o%%%%%%%%%%oOOOOOOX@@@@@  X@@  ##X-----------------------------",
"---------------------X@@@X- +.. -o%%%%%%%%%%%oOOOOO @@@@    X@ # #X-----------------------------",
"---------------------- @..X .... %oooo%%%%%%%oOOOOO @@@X  @  @ #X ------------------------------",
"---------------------- .... .... o%%%%oo%%%%%OoOOO @@@@  X@  @ @# ------------------------------",
"----------------------- .... .... %%%%%%o%%%OOoOOO @@@@  @@  @ &# ------------------------------",
"------------------------ ... ...+ X%%%%%%o%%OOOoOO @@@@  @@  @ *  ------------------------------",
"------------------------- ..@ ### #XX%%%%o%OOOOoOO @@@@  @X  @ *. X-----------------------------",
"---------------------------  X ### ##X%%%%oOOOOoOO @@@@  @  @ && #X-----------------------------",
"----------------------------X## ## ###%%OOoOOOOoOOO @@@X    @ & .#@-----------------------------",
"---------------------------X####XX##@@XOOOoOOOOoOOO @@@@   @   .-XX-----------------------------",
"--------------------------- @@@@@@@@@@XOOOoOOOoOOOOO @@@@X@@ -----------------------------------",
"----------------------------  @@@@@@@@XOOOoOOOoOOOOOO  @@@  ------------------------------------",
"------------------------------  @@@@@ OOOoOOOoOOO    -    .-------------------------------------",
"--------------------------------     -           .. -- ... -------------------------------------",
"----------------------------------  -- ..- .. -- .. --- ..--------------------------------------",
"--------------------------------------- .- ..--- ..-----  --------------------------------------",
"-------------------------------------------  ----  ---------------------------------------------",
"------------------------------------------------------------------------------------------------",
"------------------------------------------------------------------------------------------------",
"------------------------------------------------------------------------------------------------",
"------------------------------------------------------------------------------------------------",
"------------------------------------------------------------------------------------------------",
"------------------------------------------------------------------------------------------------",
"------------------------------------------------------------------------------------------------",
"------------------------------------------------------------------------------------------------",
"------------------------------------------------------------------------------------------------",
"------------------------------------------------------------------------------------------------",
"------------------------------------------------------------------------------------------------",
"------------------------------------------------------------------------------------------------",
"------------------------------------------------------------------------------------------------",
"------------------------------------------------------------------------------------------------",
"------------------------------------------------------------------------------------------------",
"------------------------------------------------------------------------------------------------",
"------------------------------------------------------------------------------------------------",
"------------------------------------------------------------------------------------------------",
"------------------------------------------------------------------------------------------------",
"------------------------------------------------------------------------------------------------",
"------------------------------------------------------------------------------------------------",
"------------------------------------------------------------------------------------------------",
"------------------------------------------------------------------------------------------------",
"------------------------------------------------------------------------------------------------",
"------------------------------------------------------------------------------------------------",
"------------------------------------------------------------------------------------------------",
"------------------------------------------------------------------------------------------------",
"------------------------------------------------------------------------------------------------",
"------------------------------------------------------------------------------------------------",
"------------------------------------------------------------------------------------------------",
"------------------------------------------------------------------------------------------------",
"------------------------------------------------------------------------------------------------",
"------------------------------------------------------------------------------------------------"
};
