/* XPM */
static char *sprite_126_back[] = {
/* columns rows colors chars-per-pixel */
"96 96 13 1 ",
"  c #010101",
". c #6A2020",
"X c #7B5231",
"o c #626262",
"O c #C57B10",
"+ c #FF4A31",
"@ c #CD1041",
"# c #E6BD31",
"$ c #FF8B62",
"% c #FFEE4A",
"& c #C5C5C5",
"* c white",
"= c None",
/* pixels */
"================================================================================================",
"================================================================================================",
"================================================================================================",
"================================================================================================",
"================================================================================================",
"================================================================================================",
"================================================================================================",
"================================================================================================",
"================================================================================================",
"================================================================================================",
"================================================================================================",
"================================================================================================",
"================================================================================================",
"================================================================================================",
"================================================================================================",
"================================================================================================",
"================================================================================================",
"================================================================================================",
"============================================OO=========O========================================",
"============================================O%O=======O%O=======================================",
"=============================================O%O======O%%O======================================",
"============================================OX%OO===OO=O%O======================================",
"=====================================o=====X##%%#O==X%OX%%O=====================================",
"=================================oo= *o====X#%%%%O==X%#%%%O============= =======================",
"================================o*&o.&o=====O##%%%O==X##%O============= * ======================",
"===============================  o**@+.=====XO%%%%%O=X#%%%O=========   .*& =====================",
"==============================o*&  .+@ ====X####%%#XX###%%%O========o*&.@& =====================",
"==============================  **.@.  ====X####+#@X#####%%O=========  @++..====================",
"============================  *& .@.@+@.==== ##O++@@X###+#+#.========o*&.+@+.===================",
"===========================o*& .@@.@.++@.==== OO++++O###+++++.======== *o..++.==================",
"============================  = . @@+@+@ ===.@@@@@+++#+##++$$$.====== @ o*&.@.==================",
"================================ @.@@@.. ===.@@@@@@@@@++++++$$.=====   @@ o*& ==================",
"=================================.@.@......    @@@@@@@@@@@+++@ ====.@@@  @+  ===================",
"================================= @ . @.+++++@@. @@@@@@.@@@@@ ==== .@.++.  .====================",
"================================== . @.@  ++@@@@@ @@@@@@.... ====  @.++.+@.=====================",
"=====================%============= @@@.   .@@@@@ @@@@@@@&* o===.@@  @.@+ .=====================",
"====================%%=============. .@ .@.@ .@@ @@@@@@@@@&&..=.@@@+   +..======================",
"===================%%==============  ....@@..@  @@@@@@@@@.$$$.  @.+++@  ========================",
"===================%%%============= +++++.   ....@@@@@@@  XX  @  @@+.+.=========================",
"==================%%%%==============  +@@@@@.       @@@ ##  @@@@. @.+ .=========================",
"=================+%%===%==============  @@@@@@@ .      ### .@@.++  .@.==========================",
"=================@%%==%%==============X#  @@@@@@ @.   X#### @.++@+@ .===========================",
"=================@+%%%%=============== ### .@@@@ @@@. ##### . +@.+.=============================",
"==================@+%+%=%======= ....= ###.  @@ @@@@@ ####### +.+ .=============================",
"==================@@++%%%%====== ++++..  .@@@  @@@@@@ ########.  ===============================",
"==================@++%%%%%+======  +@@@@@.  @@@@@@@@@ ########%%X===============================",
"=================@+%+++%%++========  @@@@@@@. @@@@@@@@X######%%X================================",
"=================@+%%+++%+@==========  @@@@@@@ @@@@@@@ #####%%%X================================",
"=================@+++%+++@=============  @@@@@ @@@@@@@@ X###%XX=================================",
"==================@+++++@===============.  @@ @@@@@@@@@@+  XX===================================",
"===================@.++.===============.@@@  @#@@@@@@@@+++X=====================================",
"=====================.+X========.....  .@@@@@@@#@#@@@@@+++# ====================================",
"=====================.%X======== ++++@@..  @@#@###@@@@+++%% ====================================",
"=====================.%%X========  +@@@@@@@ @@#####@#++++#%X====================================",
"======================O%X==========  @@@@@@@ @#####@%%#+++%# ===================================",
"====================== %%X=========XO  @@@@@ @@######%%%    X===================================",
"====================== %%%X======= ###X  @@ XXO####### X#%%%  ==================================",
"======================= %%%X ===== ##OX##  O######### ##%%%%%%X=================================",
"======================= #%%##X  ==XOOO  X##########O O##%%%%%%%X================================",
"========================X######O     XOO#########OOOX####%%%%%%O================================",
"======================== O#######################OO #######%%%##O===============================",
"========================= OO####################OOO ############O===============================",
"========================== OOO#################OOOO ############X===============================",
"=========================== OOOOO############OOOOOO O###########X===============================",
"============================ XOOOOOOO######OOOOOOOOO O#########X================================",
"==============================  OOOOOOOOOOOOOOOOOO X OOO#####OO ================================",
"================================   XOOOOOOOOOOOX  === OOOOOOOO =================================",
"===================================    OOOOOX  =======  XOOOX ==================================",
"====================================  o     ============     ===================================",
"==================================...   .==============   o ====================================",
"================================.@+@@@@@@.=============   o....=================================",
"===============================.++@@@@@@@.============ @   @+++. o==============================",
"=============================== ++@@@@@@@ =========== @@@@@@@+++.*o=============================",
"================================  @@@@@  ============ @@@@@@@@@+.**o============================",
"==================================     ============== @@@@@@@@@@@.  ============================",
"======================================================  @@@@@@@   ==============================",
"========================================================       =================================",
"================================================================================================",
"================================================================================================",
"================================================================================================",
"================================================================================================",
"================================================================================================",
"================================================================================================",
"================================================================================================",
"================================================================================================",
"================================================================================================",
"================================================================================================",
"================================================================================================",
"================================================================================================",
"================================================================================================",
"================================================================================================",
"================================================================================================",
"================================================================================================",
"================================================================================================",
"================================================================================================",
"================================================================================================"
};
