/* XPM */
static char *sprite_330_back[] = {
/* columns rows colors chars-per-pixel */
"96 96 14 1 ",
"  c #101010",
". c #526220",
"X c #315A5A",
"o c #5A7B52",
"O c #832939",
"+ c #CD394A",
"@ c #DE6273",
"# c #6AA473",
"$ c #8BA452",
"% c #B4DE73",
"& c #94D59C",
"* c #DEFF8B",
"= c white",
"- c #000000",
/* pixels */
"------------------------------------------------------------------------------------------------",
"------------------------------------------------------------------------------------------------",
"------------------------------------------------------------------------------------------------",
"------------------------------------------------------------------------------------------------",
"------------------------------------------------------------------------------------------------",
"------------------------------------------------------------------------------------------------",
"------------------------------------------------------------------------------------------------",
"------------------------------------------------------------------------------------------------",
"------------------------------------------------------------------------------------------------",
"------------------------------------------------------------------------------------------------",
"------------------------------------------------------------------------------------------------",
"------------------------------------------------------------------------------------------------",
"------------------------------------------------------------------------------------------------",
"------------------------------------------------------------------------------------------------",
"------------------------------------------XXXXXXX-----------------------------------------------",
"--------------------------------------XXXX#######XXXX-------------------------------------------",
"-----------------------------------XX           X####XXo----------------------------------------",
"------------------------------------------------   ###&&oo--------------------------------------",
"---------------------------------------XXXXXXXXXXX-  ###&&oo------------------------------------",
"-----------------------------------XXXX###########XXX ###&&&oo----------------------------------",
"--------------------OOOOOO-------XX####X    X########X ####&&&o---------------------------------",
"--------------------O+@@@@OOOO-XX    XX------   ######X #####OOO--------------------------------",
"---------------------O++%@@@@@OOO---------------  ###### ###O@@+O--------------OOOOOO-----------",
"---------------------O++%%%%@@@@@OOO-------------- X#######O@@==+O---------OOOO+@@++ -----------",
"----------------------O++%%%%%%@@@@@OO------------- #######O@@==+Oo----OOOO@@+++++++ -----------",
"----------------------O++%%%%%%%%%@@@@OO---------- #ooooo##O@+ O@O   OO@@+++%%%%%++ ------------",
"-----------------------O++%%%%%%%%%%@@@@OO-------- o$$$$$ooO@+ O  +@@+++%%%%%%%%%++ ------------",
"-----------------------O+  %%%%%%%%%%%@@@O-------- $$$$$$$$++@+ @+++%%%%%%%%%%%%++ -------------",
"------------------------ + %%%%%%%%%%%%++O-------- $$$$$$$$$O+ ++%%%%%%%%%%%%%%%++ -------------",
"-----------------------O++ %%%%%%%%%%%%%+O-------- $$$$$$$$$$+ +%%%%%%%%%%%%%%%++ --------------",
"----------------------O+%+ %%%%%%%%%%%%%+O--------- $$$$$$$$$ ++%%%%%%%%%%%%%%%++ --------------",
"---------------------O+%%+ +%%%%%%%%%%%%++O-------- $$$$$$$$$ +%%%%%%%%%%%%%%%++ ---------------",
"--------------------O+%%%+ +%%%%%%%%%%%%++O-------- $$$$$.$$ ++%%%%%%%%%%%%%%%++ ---------------",
"--------------------O+%%%+ +%%%%%%%%%%%%%+O-------- .$$$$$.. +%%%%%%%%%%%%%%%++ ----------------",
"--------------------O+$%%OO     %%%%%%%%%+O--------- $$$$$. ++%%%%%%%%%%%%%%%++ ----------------",
"--------------------O+$OO++++++ %%%%%%%%%++O-------- $$$$$ ++%%%%%%%%%%%%%%%++ -----------------",
"--------------------O+ +@%%%%+ %%%%%%%%%%%+O-------- $$$$. +%%%%%%%%%%%%%%%%++ -----------------",
"--------------------O +@%%%%+ %%%%%%%%%%%%++O------- $$$% ++%%%%%%%%%%%%%%%++ ------------------",
"-------------------- O@$%%%+ +++%%%%%%%%%%%+O------- %%% ++%%%%%%%%%%%%%%%++ -------------------",
"-------------------- +$$$$+ O+++++++%%%%%%%++O------ %%% +%%%%%%%%%%%%%+++++ -------------------",
"------------------- ++$$++ --OO  +++++$$%%$$+O------ %% ++%%%%%%%%%%+++++++ --------------------",
"------------------ $OOO   O -----    +++$$$$++O-----.%% +$%%%%%%%%++++++   ---------------------",
"----------------- $$. +$$$$@ --------  +++$$$+ ---- $% ++$$%%%$++++++   ------------------------",
"---------------- $$.-OO@$%%%@ ---------  ++$$++ --- %% +$$$$$++++    ---------------------------",
"--------------- $$.--- +$%%%%@ ---------- ++$$+ --.%% ++$$$+++   -------------------------------",
"-------------- #X%.---- ++$%%$+ ---------- ++$++ - %% +$$+++  ----------------------------------",
"-------------X##&X------  O++++ ----------- ++O++ %% +O$++  ------------------------------------",
"------------- ##&.--------O     ------------ +O+ $% ++O++  -------------------------------------",
"------------ ##&.---------------------------- + $%$%+O++ $ -----...-----------------------------",
"------------ XX&.----------------------------- .%$%$$O+ $$$ --  ***..---------------------------",
"-----------XX$%X-----------------------------.$$$$$$$$$.$$$$  %%%%%**.--------------------------",
"----------- $$%.-------------------------   .$$$$$$$$$%% .$$%%%%.$$%%.--------------------------",
"----------- $$X.----------------------.  %%.$$$$$$$$$%%%% .$$%$    .=.--------------------------",
"----------- $X&.--------------------- .%%..$$$$$$$$$$$XXX%  $$ -- . = --------------------------",
"----------- X#&#.------------------- %%..$$$$$$$$$$XXX&&#X -  --- =  ---------------------------",
"----------- ##&&.------------------ $$.$$$$$$$$$$  .&&&&&#X------- -----------------------------",
"----------- ##&&#.----------------..$X...$$$$$$  %%.&&&&&## ------------------------------------",
"----------- ###&XX.--------------- $..$$$.$$$$ $%%%$&&&&&## ------------------------------------",
"-----------X###X%%$.--------------XXX$$$$$.$$ $$%%%%.&&&### ------------------------------------",
"------------X#X$%%%$..---------XXXX$$$$$$$.$ $$$$%%%.&##### ------------------------------------",
"------------ #X$$%%%#&..----XXX####X$$$$$$$. $$$$$$$$.####. ------------------------------------",
"------------- $$$$%%X&&&XXXX&&#&####X$$$$$$ $$$$$$$$$$....$ ------------------------------------",
"------------- $$$$$X#&&&#%%%X&&#&###X$$$$$$ $$$$$$$$$$$$$$$ ------------------------------------",
"-------------- $$$$X##&&X%%%%X&&#####X$$$$$ $$$$$$$$$$$$$$ -------------------------------------",
"--------------- $$X####&X%%%%X#######X$$$$$ $   $$$$$$$$$$ -------------------------------------",
"---------------- X#####X$$$$$X#######X$$$$$  $$$.$$$$$$$$ --------------------------------------",
"-----------------  ####X$$$$$X#######X$$$$$. $$$$$$$$$$$$ --------------------------------------",
"-------------------  #X$$$$$$X######X$$$$$ . $$$$$$$$$$$ ---------------------------------------",
"---------------------   $$$$X#######X$$$  .. $$$.$$$$$$ ----------------------------------------",
"------------------------    #######X$   --   $$$ $$$$  -----------------------------------------",
"----------------------------          ------- $$ .   -------------------------------------------",
"--------------------------------- $$$ ------- $$% ----------------------------------------------",
"--------------------------------- .$% ------- $$% ----------------------------------------------",
"---------------------------------- $%% ------ $$%% ---------------------------------------------",
"---------------------------------- $$% ------- $%% ---------------------------------------------",
"---------------------------------- X$$X ------ $$%% --------------------------------------------",
"----------------------------------- XXX ------ $$$% --------------------------------------------",
"----------------------------------- XXX ------- $$X --------------------------------------------",
"------------------------------------   -------- XXX --------------------------------------------",
"----------------------------------------------- XXX --------------------------------------------",
"------------------------------------------------   ---------------------------------------------",
"------------------------------------------------------------------------------------------------",
"------------------------------------------------------------------------------------------------",
"------------------------------------------------------------------------------------------------",
"------------------------------------------------------------------------------------------------",
"------------------------------------------------------------------------------------------------",
"------------------------------------------------------------------------------------------------",
"------------------------------------------------------------------------------------------------",
"------------------------------------------------------------------------------------------------",
"------------------------------------------------------------------------------------------------",
"------------------------------------------------------------------------------------------------",
"------------------------------------------------------------------------------------------------",
"------------------------------------------------------------------------------------------------",
"------------------------------------------------------------------------------------------------",
"------------------------------------------------------------------------------------------------",
"------------------------------------------------------------------------------------------------"
};
