/* XPM */
static char *sprite_179_front[] = {
/* columns rows colors chars-per-pixel */
"96 96 16 1 ",
"  c #101010",
". c gray32",
"X c #B47B00",
"o c #837352",
"O c #E6AC00",
"+ c #FFDE00",
"@ c #004A94",
"# c #2094BD",
"$ c #41ACE6",
"% c #73C5F6",
"& c #A4A4A4",
"* c #CDB48B",
"= c #E6CDA4",
"- c #FFE6BD",
"; c white",
": c #000000",
/* pixels */
"::::::::::::::::::::::::::::::::::::::::::::::::::::::::::::::::::::::::::::::::::::::::::::::::",
"::::::::::::::::::::::::::::::::::::::::::::::::::::::::::::::::::::::::::::::::::::::::::::::::",
"::::::::::::::::::::::::::::::::::::::::::::::::::::::::::::::::::::::::::::::::::::::::::::::::",
"::::::::::::::::::::::::::::::::::::::::::::::::::::::::::::::::::::::::::::::::::::::::::::::::",
"::::::::::::::::::::::::::::::::::::::::::::::::::::::::::::::::::::::::::::::::::::::::::::::::",
"::::::::::::::::::::::::::::::::::::::::::::::::::::::::::::::::::::::::::::::::::::::::::::::::",
"::::::::::::::::::::::::::::::::::::::::::::::::::::::::::::::::::::::::::::::::::::::::::::::::",
"::::::::::::::::::::::::::::::::::::::::::::::::::::::::::::::::::::::::::::::::::::::::::::::::",
"::::::::::::::::::::::::::::::::::::::::::::::::::::::::::::::::::::::::::::::::::::::::::::::::",
"::::::::::::::::::::::::::::::::::::::::::::::::::::::::::::::::::::::::::::::::::::::::::::::::",
"::::::::::::::::::::::::::::::::::::::::::::::::::::::::::::::::::::::::::::::::::::::::::::::::",
"::::::::::::::::::::::::::::::::::::::::::::::::::::::::::::::::::::::::::::::::::::::::::::::::",
"::::::::::::::::::::::::::::::::::::::::::::::::::::::::::::::::::::::::::::::::::::::::::::::::",
"::::::::::::::::::::::::::::::::::::::::::::::::::::::::::::::::::::::::::::::::::::::::::::::::",
"::::::::::::::::::::::::::::::::::::::::::::::::::::::::::::::::::::::::::::::::::::::::::::::::",
"::::::::::::::::::::::::::::::::::::::::::::::::::::::::::::::::::::::::::::::::::::::::::::::::",
"::::::::::::::::::::::::::::::::::::::::::::::::::::::::::::::::::::::::::::::::::::::::::::::::",
"::::::::::::::::::::::::::::::::::::::::::::::::::::::::::::::::::::::::::::::::::::::::::::::::",
"::::::::::::::::::::::::::::::::::::::::::::::::::::::::::::::::::::::::::::::::::::::::::::::::",
"::::::::::::::::::::::::::::::::::::::::::::::::::::::::::::::::::::::::::::::::::::::::::::::::",
"::::::::::::::::::::::::::::::::::::::::::::::::::::::::::::::::::::::::::::::::::::::::::::::::",
"::::::::::::::::::::::::::::::::::::::::::::::::::::::::::::::::::::::::::::::::::::::::::::::::",
"::::::::::::::::::::::::::::::::::::::::::::::::::::::::::::::::::::::::::::::::::::::::::::::::",
"::::::::::::::::::::::::::::::::::::::::::::::::::::::::::::::::::::::::::::::::::::::::::::::::",
"::::::::::::::::::::::::::::::::::::::::::::::::::::::::::::::::::::::::::::::::::::::::::::::::",
"::::::::::::::::::::::::::::::::::::::::::::::::::::::::::::::::::::::::::::::::::::::::::::::::",
"::::::::::::::::::::::::::::::::::::::::::::::::::::::::::::::::::::::::::::::::::::::::::::::::",
"::::::::::::::::::::::::::::::::::::::::::::::::::::::::::::::::::::::::::::::::::::::::::::::::",
"::::::::::::::::::::::::::::::::::::::::::::::::::::::::::::::::::::::::::::::::::::::::::::::::",
"::::::::::::::::::::::::::::::::::::::::::::::::::::::::::::::::::::::::::::::::::::::::::::::::",
"::::::::::::::::::::::::::::::::::::::::::::::::::::::::::::::::::::::::::::::::::::::::::::::::",
"::::::::::::::::::::::::::::::::::::::::::::::::::::::::::::::::::::::::::::::::::::::::::::::::",
":::::::::::::::::::::::::::::::::::::::::::::::::::::::::::::****:::::::::::::::::::::::::::::::",
"::::::::::::::::::::::::::::::::::::::::::::::::::::::::::::*O++Oo::::::::::::::::::::::::::::::",
":::::::::::::::::::::::::::::::::::::::::::::::::::::::::::*O;;O+Oo:::::::::::::::::::::::::::::",
"::::::::::::::::::::::::::::::::::::::::::oooooo:::::::::::*+;;OO+ :::::::::::::::::::::::::::::",
"::::::::::::::::::::::::::::::::::::::::oo*----=oooooo:::::o+OOOO+ :::::::::::::::::::::::::::::",
":::::::::::::::::::::::::::::::::::::::o=-------**---*oo::: O+OO+O :::::::::::::::::::::::::::::",
":::::::::::::::::::::::::::::::::::oooo--------*--------o::: O++O ::::::::::::::::::::::::::::::",
":::::::::::::::::::::::::::::::::oo---*o ----------------o:::    .::::::::::::::::::::::::::::::",
":::::::::::::::::::::::::::::::: *-----=* ----------------o:::: .. :::::::::::::::::::::::::::::",
"::::::::::::::::::::::::::::::: *------==* ---------------oo::: ...:::::::::::::::::::::::::::::",
"::::::::::::::::::::::::::::::: ----*o*=== ---------------**o::: ++ ::::::::::::::::::::::::::::",
":::::::::::::::::::::::::::::  =---*--o==*.   ------------*-=o:: ++ ::::::::::::::::::::::::::::",
":::::::::::::::::::::::::::: . *-----=*o*.&&OO  ---------*---=o: ++ ::::::::::::::::::::::::::::",
"::::::::::::::::::::::::::: .& *=---=**@.&&+++&. -------------o ... ::::::::::::::::::::::::::::",
"::::::::::::::::::::::::::: .&+ *******@.&&++&&&. -----------=o ... ::::::::::::::::::::::::::::",
"::::::::::::::::::::::::::: ..O@ *****@# .&OO.... -----------*o.... ::::::::::::::::::::::::::::",
":::::::::::::::::::::::::::: .@$%ooo@@## ..XOO.. -----------***oX.  ::::::::::::::::::::::::::::",
"::::::::::::::::::::::::::::: @$%%%%%%%#. ..XXX -----------*****oX :::::::::::::::::::::::::::::",
"::::::::::::::::::::::::::::::;.%%%%%.; #@ ..  ------------=****oX :::::::::::::::::::::::::::::",
"::::::::::::::::::::::::::::::  %%%%%   #    ---------------=***oX :::::::::::::::::::::::::::::",
"::::::::::::::::::::::::::::::@%%%%%%%$## *------------------***o ::::::::::::::::::::::::::::::",
"::::::::::::::::::::::::::::::@%%%%%%%$# *-------------------***o ::::::::::::::::::::::::::::::",
"::::::::::::::::::::::::::::::o@%%%%%%## -------------------=*** :::::::::::::::::::::::::::::::",
":::::::::::::::::::::::::::::o- %%%%%$# *------=------*=---=**** :::::::::::::::::::::::::::::::",
":::::::::::::::::::::::::::::o--  $$#  *------=*=----=**==*****o::::::::::::::::::::::::::::::::",
":::::::::::::::::::::::::::::o----   **=-----=**o*==*o********* ::::::::::::::::::::::::::::::::",
":::::::::::::::::::::::::::::: ----=****=--=*****oooo********** ::::::::::::::::::::::::::::::::",
":::::::::::::::::::::::::::::: *--=***********************o***o ::::::::::::::::::::::::::::::::",
":::::::::::::::::::::::::::::::  **************************o** :::::::::::::::::::::::::::::::::",
":::::::::::::::::::::::::::::::::o********o**********o*****o*o :::::::::::::::::::::::::::::::::",
"::::::::::::::::::::::::::::::::: ********o**********o****o#o ::::::::::::::::::::::::::::::::::",
"::::::::::::::::::::::::::::::::: ******** o********o****o## :::::::::::::::::::::::::::::::::::",
":::::::::::::::::::::::::::::::::: *****o : oo****oo    #### :::::::::::::::::::::::::::::::::::",
":::::::::::::::::::::::::::::::::::@#### ::: ###@ ##@:: #### :::::::::::::::::::::::::::::::::::",
"::::::::::::::::::::::::::::::::::::@#@# ::: ##$$ @@:::: @# ::::::::::::::::::::::::::::::::::::",
":::::::::::::::::::::::::::::::::::: #@ :::: #@$$ :::::: @# ::::::::::::::::::::::::::::::::::::",
":::::::::::::::::::::::::::::::::::::   ::::: @# ::::::::  :::::::::::::::::::::::::::::::::::::",
"::::::::::::::::::::::::::::::::::::::::::::: @# :::::::::::::::::::::::::::::::::::::::::::::::",
"::::::::::::::::::::::::::::::::::::::::::::::  ::::::::::::::::::::::::::::::::::::::::::::::::",
"::::::::::::::::::::::::::::::::::::::::::::::::::::::::::::::::::::::::::::::::::::::::::::::::",
"::::::::::::::::::::::::::::::::::::::::::::::::::::::::::::::::::::::::::::::::::::::::::::::::",
"::::::::::::::::::::::::::::::::::::::::::::::::::::::::::::::::::::::::::::::::::::::::::::::::",
"::::::::::::::::::::::::::::::::::::::::::::::::::::::::::::::::::::::::::::::::::::::::::::::::",
"::::::::::::::::::::::::::::::::::::::::::::::::::::::::::::::::::::::::::::::::::::::::::::::::",
"::::::::::::::::::::::::::::::::::::::::::::::::::::::::::::::::::::::::::::::::::::::::::::::::",
"::::::::::::::::::::::::::::::::::::::::::::::::::::::::::::::::::::::::::::::::::::::::::::::::",
"::::::::::::::::::::::::::::::::::::::::::::::::::::::::::::::::::::::::::::::::::::::::::::::::",
"::::::::::::::::::::::::::::::::::::::::::::::::::::::::::::::::::::::::::::::::::::::::::::::::",
"::::::::::::::::::::::::::::::::::::::::::::::::::::::::::::::::::::::::::::::::::::::::::::::::",
"::::::::::::::::::::::::::::::::::::::::::::::::::::::::::::::::::::::::::::::::::::::::::::::::",
"::::::::::::::::::::::::::::::::::::::::::::::::::::::::::::::::::::::::::::::::::::::::::::::::",
"::::::::::::::::::::::::::::::::::::::::::::::::::::::::::::::::::::::::::::::::::::::::::::::::",
"::::::::::::::::::::::::::::::::::::::::::::::::::::::::::::::::::::::::::::::::::::::::::::::::",
"::::::::::::::::::::::::::::::::::::::::::::::::::::::::::::::::::::::::::::::::::::::::::::::::",
"::::::::::::::::::::::::::::::::::::::::::::::::::::::::::::::::::::::::::::::::::::::::::::::::",
"::::::::::::::::::::::::::::::::::::::::::::::::::::::::::::::::::::::::::::::::::::::::::::::::",
"::::::::::::::::::::::::::::::::::::::::::::::::::::::::::::::::::::::::::::::::::::::::::::::::",
"::::::::::::::::::::::::::::::::::::::::::::::::::::::::::::::::::::::::::::::::::::::::::::::::",
"::::::::::::::::::::::::::::::::::::::::::::::::::::::::::::::::::::::::::::::::::::::::::::::::",
"::::::::::::::::::::::::::::::::::::::::::::::::::::::::::::::::::::::::::::::::::::::::::::::::",
"::::::::::::::::::::::::::::::::::::::::::::::::::::::::::::::::::::::::::::::::::::::::::::::::",
"::::::::::::::::::::::::::::::::::::::::::::::::::::::::::::::::::::::::::::::::::::::::::::::::",
"::::::::::::::::::::::::::::::::::::::::::::::::::::::::::::::::::::::::::::::::::::::::::::::::",
"::::::::::::::::::::::::::::::::::::::::::::::::::::::::::::::::::::::::::::::::::::::::::::::::"
};
