/* XPM */
static char *sprite_471_back[] = {
/* columns rows colors chars-per-pixel */
"96 96 12 1 ",
"  c #101010",
". c #31394A",
"X c #393952",
"o c #415A6A",
"O c #525A83",
"+ c #52629C",
"@ c #7B9CB4",
"# c #529CDE",
"$ c #94B4CD",
"% c #94E6EE",
"& c #EEFFFF",
"* c #000000",
/* pixels */
"************************************************************************************************",
"************************************************************************************************",
"************************************************************************************************",
"************************************************************************************************",
"************************************************************************************************",
"************************************************************************************************",
"************************************************************************************************",
"************************************************************************************************",
"************************************************************************************************",
"************************************************************************************************",
"************************************************************************************************",
"************************************************************************************************",
"************************************************************************************************",
"************************************************************************************************",
"************************************************************************************************",
"************************************************************************************************",
"************************************************************************************************",
"************************************************************************************************",
"************************************************************************************************",
"************************************************************************************************",
"************************************************************************************************",
"*****************************************************  *****************************************",
"**************************************************** %$ ****************************************",
"**************************************************** %%% ***************************************",
"**************************************************** @@%%O**************************************",
"**************************************************** @@$%%O*************************************",
"**************************************************** @@@$%%O************************************",
"*************************************************** @@@@@$%%O***********************************",
"*************************************************** @@@@@@%%O***********************************",
"*************************************************** @@@@@@$%%O**********************************",
"*****************************************OOO******* @@@@@@@%%O**********************************",
"**************************************OOO%%%OO****** @@@@@@%% **********************************",
"***********************************OOO%%%%%%%%O***** @@@@@@$% **********************************",
"*********************************OO%%%%@@@@$%%%OO**** @@@@@@ ***********************************",
"******************************** @%%@@@@@@@@@$%%%O**O @@@@@@ ***********************************",
"********************************* @@@@@@@@@@@@@$%%OO$%X@@@@@ O**********************************",
"********************************** O@@@@@@@@@@@@@$X%%%X@@@@ ##O*********************************",
"*******************..*************** @@@@@@@@@@@@X%%%%$X@@@X###X********************************",
"****************** oo..**************  @@@@@@@@  X%%$@@@@@ OO##X********************************",
"****************** oooo..**************  @@@   *X@$@@@@@@@@XOO##X*******************************",
"****************** oooooo..**************   ****X@@@@@@@@@@+ OOOX*******************************",
"****************** oooooooo.********************X@@@@@@@@@@+X  X********************************",
"****************** oooooooo%.*******************X@@@@@@@@@@++ &X********************************",
"****************** oooooooo%.********************X@@@@@@@@@X+X %X*******************************",
"****************** oooooooo%.********************X@@@@@@@@@X#Xo%X*******************************",
"****************** oooooooo%%.******************X+ @@@@@@@@X#XO@X*******************************",
"****************** oooooooo%%.******************X+*X@@@@@@@@X#XO********************************",
"****************** oooooooo%%.*****************X++*X@o@@@@@@X#X*********************************",
"****************** @ooooooo%%% ****************X++X*Xoo@@@@XX+#X********************************",
"******************* @@oooo%%%% ****************X++X*Xoo@@@@X* ##X*******************************",
"********************  @$$%%%%%% ***************X+++.$o%@@@@X* ###X******************************",
"**********************  @$$%%%%% *******....****X+.$%%%@@@@X**X###XX****************************",
"************************  @$$$%%%  ****.%%%%o.....oo%%$@@@@X** #####XXX*************************",
"**************************   @$$%%%O  .%%%%%%oooooo%%%@@@@@@X** #######XX***********************",
"*****************************    @$%%%%%%%%%%%$ooo%%%$@@@@@@ ** ###ooooooX**********************",
"*********************************    .@@@$%%%%%%%%%@@@@@@@@@ *** ##oooooooX*********************",
"************************************.@@@@@@$%%%%$@@@@@@@@@@@ *** +##ooooooo ********************",
"************************************.@@@@@@@@@@@@@@@@@@@@@@@ **** ##oooooooo *******************",
"************************************.@@@O@@@@@@@@@@@@@@@@@@@ ***** ##oooooooo ******************",
"***********************************o@@@@@O@@@@@@@@@@@@ @@@@ *******  Xooooooo ******************",
"*********************************** @@@@@.@@@@@@.@@@@@ @@@@ **********       *******************",
"*********************************** @@@@@.@@@@@@..@@O.@@@@@ ************************************",
"********************************** @@@@@.@@@@@@ *.... @@@@ *************************************",
"********************************** @@@@O @@@@@@ **.O. @@@@ *************************************",
"********************************** @@@@O @@@@@ ***.OO @@@@ *************************************",
"********************************** @@@ * @@@@@ ****.O @@@@ *************************************",
"***********************************o@@ * @@@@ *****.OO @@@ *************************************",
"*********************************** @@ * @@@ *******.O @@@ *************************************",
"*********************************** @o ** @@ ******* OOo@o *************************************",
"*********************************** oo ** @@ ******* OO oo *************************************",
"************************************ o..* @o ******** O oo *************************************",
"************************************ oo * oo ******** O ooo ************************************",
"*************************************   * ooo.********   oo ************************************",
"*****************************************  oo ***********  *************************************",
"******************************************   ***************************************************",
"************************************************************************************************",
"************************************************************************************************",
"************************************************************************************************",
"************************************************************************************************",
"************************************************************************************************",
"************************************************************************************************",
"************************************************************************************************",
"************************************************************************************************",
"************************************************************************************************",
"************************************************************************************************",
"************************************************************************************************",
"************************************************************************************************",
"************************************************************************************************",
"************************************************************************************************",
"************************************************************************************************",
"************************************************************************************************",
"************************************************************************************************",
"************************************************************************************************",
"************************************************************************************************",
"************************************************************************************************",
"************************************************************************************************"
};
