/* XPM */
static char *sprite_079_back[] = {
/* columns rows colors chars-per-pixel */
"96 96 14 1 ",
"  c #101010",
". c #7B2031",
"X c #6A6262",
"o c #8B5A18",
"O c #AC4152",
"+ c #DE627B",
"@ c #DEA462",
"# c #FF8394",
"$ c #FFA4A4",
"% c #EEC58B",
"& c #FFE6B4",
"* c #D5CDCD",
"= c white",
"- c #000000",
/* pixels */
"------------------------------------------------------------------------------------------------",
"------------------------------------------------------------------------------------------------",
"------------------------------------------------------------------------------------------------",
"------------------------------------------------------------------------------------------------",
"------------------------------------------------------------------------------------------------",
"------------------------------------------------------------------------------------------------",
"------------------------------------------------------------------------------------------------",
"------------------------------------------------------------------------------------------------",
"------------------------------------------------------------------------------------------------",
"------------------------------------------------------------------------------------------------",
"------------------------------------------------------------------------------------------------",
"------------------------------------------------------------------------------------------------",
"------------------------------------------------------------------------------------------------",
"------------------------------------------------------------------------------------------------",
"------------------------------------------------------------------------------------------------",
"------------------------------------------------------------------------------------------------",
"------------------------------------------------------------------------------------------------",
"------------------------------------------------------------------------------------------------",
"------------------------------------------------------------------------------------------------",
"------------------------------------------------------------------------------------------------",
"------------------------------------------------------------------------------------------------",
"------------------------------------------------------------------------------------------------",
"------------------------------------------------------------------------------------------------",
"------------------------------------------------------------------------------------------------",
"------------------------------------------------------------------------------------------------",
"------------------------------------------------------------------------------------------------",
"-----------------------------------++++++XXXXX--------------------------------------------------",
"--------------------------------+++######$====XXX-----------------------------------------------",
"------------------------------++##########$======XX---------------------------------------------",
"----------------------------++#############=======*X--------------------------------------------",
"--------------------------++##############$======***X-------------------------------------------",
"-------------------------+###############+       X***X------------------------------------------",
"------------------------O#############+   --------   -------------------------------------------",
"-----------------------O############+  ---------------------------------------------------------",
"-----------------------O###########  -----------------------------------------------------------",
"----------------------O########### -------------------------------------------------------------",
"----------------------O+########+ --------------------------------------------------------------",
"---------------------O++++####++ ---------------------------------------------------------------",
"---------------------O++++++++++ ---------------------------------------------------------------",
"---------------------O+++++++++ ----------------------------------------------------------------",
"--------------------O++++++++++ ----------------------------------------------------------------",
"--------------------O++++++++++ ----------------------------------------------------------------",
"--------------------O++++++++++ ---------++++++OOO----------------OOO---------------------------",
"--------------------O++++++++++ -----++++#########OOO-OOO--------O###O--------------------------",
"--------------------.+++++++++++ --OO################..##O--++++.#####O-------------------------",
"--------------------.+++++++++++ OO+#################++..#OO####.++##+O-------------------------",
"--------------------.++++++++++++ ++++#############++++++.+####+O++++++.------------------------",
"-------------------- +++++++++++++..++++++######++++++++++O++++++++++++.------------------------",
"-------------------- +++++++++++++++OO+++++++++++++++++++++O+++++++++++.------------------------",
"-------------------- ++++++++++++++++++++++++++++++++++++++O++++++OO++.-------------------------",
"--------------------- ++++++++++++++++++++++++++++++++++++++O++++++.  +-------------------------",
"--------------------- +++++++++++++++++++++++++++++++++++++++++++++++##O------------------------",
"--------------------- ++++++++++++++++++++++++++++++++++++++++++++++++#.o-----------------------",
"---------------------- ++++++++++++++++++++++++++++++++++++++++++++++++&&o----------------------",
"---------------------- ++++++++++++++++++++++++++++++++++++++++++++++o@%&&o---------------------",
"----------------------- +++++++++++++++++++++++++++++++++++++O++++++o@@@@%&o--------------------",
"----------------------- +++++++++++++++++++++++++++++++++++++O++++++o@@@@@%o--------------------",
"------------------------ +++++++++++++++++++++O+++++++++++++++ ++++o@@@@@@@o--------------------",
"------------------------ +++++++++++++++++++##+O++++++++++++++ ++++o@@o@@o ---------------------",
"------------------------- +++++++++++++++++####.+++++++++++++++.++o@@@    ----------------------",
"-------------------------. ++++++++++++++++####+O++++++++++++++O..o@@o-X= ----------------------",
"-------------------------.+ +++++++++++++++####+.++++++++O+++++###..o--X -----------------------",
"-------------------------.+. ++++++O++++++++##++.++++++++O+++++####XX---------------------------",
"--------------------------.+.OO++++.++++++++++++.+++++++.+++++++##O==X--------------------------",
"--------------------------.++.+OO++.+++++++++++O++++++++O+++++++++***X--------------------------",
"---------------------------  +.+++++ +++++++++O.+++++   -.+++++++++  ---------------------------",
"-----------------------------   .+++ +++++++++*.     -----  +++++  -----------------------------",
"---------------------------------  .. +++++++O== -----------     -------------------------------",
"--------------------------------------   ++++   ------------------------------------------------",
"-----------------------------------------    ---------------------------------------------------",
"------------------------------------------------------------------------------------------------",
"------------------------------------------------------------------------------------------------",
"------------------------------------------------------------------------------------------------",
"------------------------------------------------------------------------------------------------",
"------------------------------------------------------------------------------------------------",
"------------------------------------------------------------------------------------------------",
"------------------------------------------------------------------------------------------------",
"------------------------------------------------------------------------------------------------",
"------------------------------------------------------------------------------------------------",
"------------------------------------------------------------------------------------------------",
"------------------------------------------------------------------------------------------------",
"------------------------------------------------------------------------------------------------",
"------------------------------------------------------------------------------------------------",
"------------------------------------------------------------------------------------------------",
"------------------------------------------------------------------------------------------------",
"------------------------------------------------------------------------------------------------",
"------------------------------------------------------------------------------------------------",
"------------------------------------------------------------------------------------------------",
"------------------------------------------------------------------------------------------------",
"------------------------------------------------------------------------------------------------",
"------------------------------------------------------------------------------------------------",
"------------------------------------------------------------------------------------------------",
"------------------------------------------------------------------------------------------------",
"------------------------------------------------------------------------------------------------",
"------------------------------------------------------------------------------------------------",
"------------------------------------------------------------------------------------------------"
};
