/* XPM */
static char *sprite_600_front[] = {
/* columns rows colors chars-per-pixel */
"96 96 13 1 ",
"  c #101010",
". c gray16",
"X c #103941",
"o c #316262",
"O c gray29",
"+ c #6A6A73",
"@ c #73738B",
"# c #298B94",
"$ c #29ACBD",
"% c #A4A4AC",
"& c #D5DEEE",
"* c white",
"= c None",
/* pixels */
"================================================================================================",
"================================================================================================",
"================================================================================================",
"================================================================================================",
"================================================================================================",
"================================================================================================",
"================================================================================================",
"================================================================================================",
"================================================================================================",
"================================================================================================",
"================================================================================================",
"================================================================================================",
"================================================================================================",
"================================================================================================",
"================================================================================================",
"================================================================================================",
"================================================================================================",
"================================================================================================",
"================================================================================================",
"================================================================================================",
"================================================================================================",
"================================================================================================",
"================================================================================================",
"===============================================OOO.....=========================================",
"=========================O +O========++OO=====O+++++++O.========================================",
"========================O&& +O======+&& +O===OOOOOOO .O.========================================",
"=======================+&&&& +OO===+&&&& +O==O%%%%%%%.O.========================================",
"=======================O&&&&&OO   +&&&&& +O==O%%%%%%%.OO.=======================================",
"======================== &&&&&&&&&&&&&& +.===O%%%%%%%.OO.=======OOO=============================",
"========================O&&&&%++++&&&&& +.==O%%%%%%%%%.O.======.O++ ============================",
"=========================+&&%**%+++%&&++.===O%%%%%%%%%.O..====.%%O++ ===========================",
"========================+&&+*  *+++++&&+O=OOO%%%%%%%%%.OOOO.=.%%%%O++ ==========================",
"========================+&++*  *+++++%&++.%%%%%%%%%%%%%%..OO.%%%%%%O++ =========================",
"======================OO&%++%**OO+++++&&++OO..%%%%%%%%%%%%..%%%%%%%%O++.========================",
"====================O++O&++++o$$$O++O+%&&&&&O+ %%%%%%%%%%%%%%%%%%%%%%OOO.=======================",
"===================O&&&&&++++$$*$$OO*O+&&&&& + %    %%%%%%%%%%%%%%%%% OO.=======================",
"=================== &&&&&++++$$$$$ *** &&&&& + %    %%%%%%%%%%%%%%%% OO.========================",
"=================== &&&&&++++o$$$oOO* +&&&&%O+ O    ..%%%%%%%%%%%%% OO.=========================",
"====================   O&%++++O  +++ +%&      @%O  O%% .%%%%%%%%%%.OO.==========================",
"========================+&+++  O++++++&& ..+.@@%%%%%  +  .%%%%%%%%.O ===========================",
"======================== &%++  ++++++%&+O&&.+ @@%%%+&&O+ % %%%%%%%.OO ==========================",
"=========================O&&++++++++%&&O&&&&++ @%%+&&&&O+ % %%%%%%%.O ==========================",
"========================= &&&&%+++%&&&& &&&&%OOO.+&&&&& +.%% %%%%%%.O ==========================",
"========================+&&&&&&&&&&&&&&%&&&&&&&&&&&&&& O.%%% %%%%%%.O       ====================",
"========================O&&&&&O   &&&&&& &&&&&&&&&&&&& O.%%%% %%%%%.O++++++OO===================",
"========================O&&&&O @@@  &&&& &&&&&&&&&&&&+OOO%%%% %%%%%O...O..OO ===================",
"========================= &&O @@@@@@ && &&&&&ooXX&&&&&.+O%%%%% %%%%%%%%%%% O ===================",
"==========================   @@@@@@@@O O&&&##$$$#oX&&&&O+O%%%% %%%%%%%%%%% O ===================",
"===========================O@@@@@@@%%%O&&&#$**$$$##X&&&.++OO % %%%%%%%%%%% O ===================",
"===========================O@@@@%%%+OO+&&&#$**$$$##X&&&&OO.++  %%%%%%%%%%% O ===================",
"============================O%%%%%O&&&&&&#$$$$$$$### &&&&&& O  %%%%%%%%%%% O ===================",
"============================O%%%%% &&&&&&o$$$$$$#### &&&&&& O  %%%%%%%%%%%OO ===================",
"============================.@%%%% &&&&&&o#$$$$##### &&&&&&OO O%%%%%%%%%%%O ====================",
"============================....O%%   &&&&o######## &&&&O   .% %%%%%%%%%%%O ====================",
"================================.%+**++ &&o######## &&& %%%%%% %%%%%O     ======================",
"================================.%+**** &&&XX####X &&&+ %%%%   O%%%% ===========================",
"================================.+%+++**+&&&&XX  &&&&&.O%%%     %%%O============================",
"=================================.%%+*** &&&&&&&&&&&&&.O %%     %%%O============================",
"=================================.@+***++&&&&&&&&&&&&&+O.%%     %%OO.===========================",
"=================================O%%+*+ &&&&&OOOO &&&&&.O.OO   %%%.O..==========================",
"================================O%%%%+% &&&&O %%%% &&&&. %%%%%%%%%%.OO.=========================",
"===============================O%%%%%%%% &&O  %%%%% &&O %%%%%%%%%%%%.OO.========================",
"===============================O%%%%%%%%%O  %O     O O%%%%%%%%%%%%%%%.O.========================",
"================================O%%%%%%%%%%%%%%%%%%%%%%%%%%%%%%%%%%%%%O=========================",
"=================================O%%%%%%%%%%%%%%%%%%%%%%%%OO%%%%%%%%% ==========================",
"==================================O%%%%%%%.O%%%%%%%%%%%%..O=O%%%%%%% ===========================",
"===================================.%%%%O.==.O%%%%%%%%%.O ===O%%%%% ============================",
"====================================.%%.=====O%%%%%%%%%.O.==== %%O =============================",
"=====================================..======O%%%%%%%%%.O.===== O===============================",
"=============================================O%%%%%%%%%.O.======================================",
"==============================================O%%%%%%%%..=======================================",
"==============================================O%%%%%%%+.========================================",
"==============================================O        =========================================",
"================================================================================================",
"================================================================================================",
"================================================================================================",
"================================================================================================",
"================================================================================================",
"================================================================================================",
"================================================================================================",
"================================================================================================",
"================================================================================================",
"================================================================================================",
"================================================================================================",
"================================================================================================",
"================================================================================================",
"================================================================================================",
"================================================================================================",
"================================================================================================",
"================================================================================================",
"================================================================================================",
"================================================================================================",
"================================================================================================",
"================================================================================================",
"================================================================================================",
"================================================================================================"
};
