/* XPM */
static char *sprite_183_front[] = {
/* columns rows colors chars-per-pixel */
"96 96 14 1 ",
"  c #101010",
". c #183973",
"X c #626262",
"o c #941010",
"O c #BD2931",
"+ c #DE4152",
"@ c #316AAC",
"# c #4183CD",
"$ c #5A9CEE",
"% c #8BBDF6",
"& c #B4C5CD",
"* c #B4D5FF",
"= c white",
"- c None",
/* pixels */
"------------------------------------------------------------------------------------------------",
"------------------------------------------------------------------------------------------------",
"------------------------------------------------------------------------------------------------",
"------------------------------------------------------------------------------------------------",
"------------------------------------------------------------------------------------------------",
"------------------------------------------------------------------------------------------------",
"------------------------------------------------------------------------------------------------",
"------------------------------------------------------------------------------------------------",
"------------------------------------------------------------------------------------------------",
"------------------------------------------------------------------------------------------------",
"------------------------------------------------------------------------------------------------",
"------------------------------------------------------------------------------------------------",
"------------------------------------------------------------------------------------------------",
"------------------------------------------------------------------------------------------------",
"------------------------------------------------------------------------------------------------",
"------------------------------------------------------------------------------------------------",
"------------------------------------------------------------------------------------------------",
"------------------------------------------------------------------------------------------------",
"------------------------------------------------------------------------------------------------",
"------------------------------------------------------------------------------------------------",
"------------------------------------------------------------------------------------------------",
"------------------------------------------------------------------------------------------------",
"------------------------------------------------------------------------------------------------",
"------------------------------------------------------------------------------------------------",
"------------------------------------------------------------------------------------------------",
"------------------------------------------------------------------------------------------------",
"------------------------------------------------------------------------------------------------",
"------------------------------------------------------------------------------------------------",
"------------------------------------------------------------------------------------------------",
"------------------------------------------------------------------------------------------------",
"------------------------------------------------------------------------------------------------",
"---------------------------------@@@@-----------@@@@--------------------------------------------",
"--------------------------------@$%%$@--------.@%%$$@.------------------------------------------",
"-------------------------------.$$%%$#@------.#$%%$$##.-----------------------------------------",
"-------------------------------$#...$$#@-----@$$$...##.-----------------------------------------",
"------------------------------.#.ooo.$#@----.$$#oooo.##.----------------------------------------",
"------------------------------.ooOOoo##......$$ooOOOo.#.----------------------------------------",
"------------------------------.oO++O.@#$$$$#@$$oOO++O.@.----------------------------------------",
"------------------------------.oO++o#$$$$$$$$$$oo++++o@.----------------------------------------",
"-------------------------------@oOo#$$$$$$$$$$$$#o++Oo.--------@@.------------------------------",
"-------------------------------.@o#$$$$$$$$$$$$$$#ooo@ ------@$%%$..----------------------------",
"--------------------------------.@$.$$$$$$$$.#$$$$##@ ------@$%%%%$@.---------------------------",
"--------------------------------@$ =@$$$$$$.= $$$$$@.-------$$%%%%$$.---------------------------",
"--------------------------------@$  .$.$$$$.  $$$$$$$.-----.$$$%%$$$@ --------------------------",
"---------------------------- ...$$@.@$$$$#$#.@$$$$$$@   ---.$$$$$$$$@ --------------------------",
"--------------------------- ##@.$$$$#@..@#$$$$$$$$$@.$$@ --.@$$$$$$@@ --------------------------",
"--------------------------- ###@$$$$$$$$$$$$$$$$$#@$$$$$ ---.@$$$$@@ ---------------------------",
"--------------------------- ###$$$$$$$$$$$$$$$$$$$$$$$$# --- @@@@@@@ ---------------------------",
"---------------------------- #.$$$$$*=====*$$$$$$$$$$## -----  @ @  ----------------------------",
"-----------------------------  $$$==========*$$$$$@@.. .-------   ------------------------------",
"------------------------------ $$=============*$$$$@@@@.-------- -------------------------------",
"------------------------------ @===============*$$@@@@@.--------- ------------------------------",
"------------------------------- *===============*@@@@@@-------    X-----------------------------",
"------------------------------- &*=============*&&@@@@.------- X--------------------------------",
"-------------------------------- &&&*======*&&&&&&@@@@.---X -- X--------------------------------",
"-------------------------------- &&&&&&&&&&&&&&&&&@@@ ----   - ---------------------------------",
"--------------------------------- &&&&&&&&&&&&&&&&@@@ ---- -   ---------------------------------",
"---------------------------------- &&&&&&&&&&&&&&@@@ X --X --  ---------------------------------",
"----------------------------------- #&&&&&&&&&&&@@@ --X - ---- ---------------------------------",
"----------------------------------- ..#&&&&&&&@@@ .----X  --------------------------------------",
"---------------------------------  @@@@@    .@  @.------X --------------------------------------",
"-------------------------------- $$$@@@ -----.@@@@.---------------------------------------------",
"-------------------------------- $$$@  ------.@$$$$.--------------------------------------------",
"---------------------------------    ---------.$$$$.--------------------------------------------",
"-----------------------------------------------....---------------------------------------------",
"------------------------------------------------------------------------------------------------",
"------------------------------------------------------------------------------------------------",
"------------------------------------------------------------------------------------------------",
"------------------------------------------------------------------------------------------------",
"------------------------------------------------------------------------------------------------",
"------------------------------------------------------------------------------------------------",
"------------------------------------------------------------------------------------------------",
"------------------------------------------------------------------------------------------------",
"------------------------------------------------------------------------------------------------",
"------------------------------------------------------------------------------------------------",
"------------------------------------------------------------------------------------------------",
"------------------------------------------------------------------------------------------------",
"------------------------------------------------------------------------------------------------",
"------------------------------------------------------------------------------------------------",
"------------------------------------------------------------------------------------------------",
"------------------------------------------------------------------------------------------------",
"------------------------------------------------------------------------------------------------",
"------------------------------------------------------------------------------------------------",
"------------------------------------------------------------------------------------------------",
"------------------------------------------------------------------------------------------------",
"------------------------------------------------------------------------------------------------",
"------------------------------------------------------------------------------------------------",
"------------------------------------------------------------------------------------------------",
"------------------------------------------------------------------------------------------------",
"------------------------------------------------------------------------------------------------",
"------------------------------------------------------------------------------------------------",
"------------------------------------------------------------------------------------------------",
"------------------------------------------------------------------------------------------------",
"------------------------------------------------------------------------------------------------",
"------------------------------------------------------------------------------------------------",
"------------------------------------------------------------------------------------------------"
};
