/* XPM */
static char *sprite_377_front[] = {
/* columns rows colors chars-per-pixel */
"96 96 13 1 ",
"  c #181818",
". c #524A29",
"X c #B44100",
"o c #BD6239",
"O c #EE7339",
"+ c #EE8339",
"@ c #948B73",
"# c #EEAC6A",
"$ c #B4AC94",
"% c #CDC5AC",
"& c #E6DEAC",
"* c #EEE6DE",
"= c #000000",
/* pixels */
"================================================================================================",
"================================================================================================",
"================================================================================================",
"================================================================================================",
"================================================================================================",
"================================================================================================",
"================================================================================================",
"================================================================================================",
"================================================================================================",
"================================================================================================",
"================================================================================================",
"================================================================================================",
"================================================================================================",
"================================================================================================",
"============================================================     ===============================",
"===========================================================XX++++  =============================",
"===========================================================X+X+++++ ============================",
"=================================XX ======================X+++X+++++ ===========================",
"===============================XX### ====================X+++++X+++++ ==========================",
"===============================X#### ====================X++++++X+++o ==========================",
"==============================X+X###X =====....=========X++++++++Xoooo =========================",
"==============================X+X##Xo ====.**@%  =======X++++++++Xoooo =========================",
"=============================XX++X#Xoo ==.****@%%  ====== ++++++++Xoooo ========================",
"=============================XX+++Xooo =.******@%%$ ====== +++++++Xoooo ========================",
"============================X+X+++Xoooo.*******@%$$ ====XX o+++++++Xoooo =======================",
"============================X+X++++Xoo.*********@$$$ ==X+++ ++X#++++Xoooo ======================",
"===========================X+X+#+#+Xoo.OO%***OO%@$$$ ==X+++X X#+#+++Xooooo =====================",
"===========================X+X#+#+#Xo.*OX%***OX%*@$$$ X++++o ###+#+++Xooooo ====================",
"==========================X+X######Xo.*%%****%%**@$$$ ++++X ###+##+++Xoooooo ===================",
"=========================X++X######Xo.*OO%OO%OO%*@$$$% +++o #####++++Xooooooo ==================",
"=========================X++.XX###Xo.**OX%OX%OX%*@$$%% ++Xo ####++++++.ooooooo =================",
"========================X+++.ooXXXoo.**%%*%%*%%***@%%%% Xo #####++++++.ooooooo =================",
"========================X++.oooo.ooo.*%OO%**%OO%**&@%%%$ o ####++++++Xo.ooooo. =================",
"========================X++.oooo.oX.**%OX%**%OX%*&&&@%$$$  XXXX++++++Xoo.oooo. =================",
"========================X+.oooooo..****%%****%%**&&&&@$$$$X++++X++++Xoooo..o.o =================",
"========================.o.ooooo.****************&&&&@$$$$X+++++X+++Xoooooo.o ==================",
"======================== o.oooo.****************&&&&&@$$$.X++++++X+Xooooooo.o ==================",
"========================= .ooo.&***************&&&&&&@$$.@oo++++++Xoooooooo.o ==================",
"=========================.  o.*@&***********&&&&&&&&&@$.@@@X++++++.ooooooo.o ===================",
"========================.*** .**@@&*****&&&&&&&&&&XX.@.@@@@X++++++.ooooooo.o ===================",
"======================== %*%@.****@@&&&&&&&&&&XXXX+++.@@@@@ +++++..ooooooo. ====================",
"======================== @@@@ ******@@&&&@@XXX+++++++.@@@@@@ +++.oo.oooo   =====================",
"========================= ... ********.@@&X++++++++++.@@@@@@@   oooo.oo @@@ ====================",
"========================.%%%@ ********.&&&X++++++++++.@@@@@@@@ =       .@@@@ ===================",
"=======================.***%% ********.&&&X++++++++++.@@@@@@@ === %%%@$$.@@. ===================",
"=======================.****% @*******@&&&X++++++++++.@@@@@@. ===.*%@$$$$..@ ===================",
"======================= .....@ *******@&&&&X+++++++++..@@@@. ====.**.$$$$.@@ ===================",
"====================== @%%% @.. ******@&&&&&X+++++++.@@.@@.@ =====.@.$$$$.@ ====================",
"=====================.%*** @@@@. ****@&&&&&&&@X+++.@@@@@..@ ======= ...    .====================",
"=====================.**** @@@@ = ***@&&&&&&&&@X...@@@@@@@@ =======.@%%%.@@. ===================",
"=====================.%**@. @@@ == **@&&&&&&&&.@@@@.@@@@@@. ======.%***%%..@ ===================",
"====================@@.   @@..@ === .@$&&&&&&$.@@@@@.@@@.. =======.******.@@ ===================",
"===================@**@&&&  @@. ===.@@@$$&&&&.@@@@@@@...@@ =======.*****%.@ ====================",
"==================@%*@&&&&&. @ =====.@@@@...$.@@@@@@@@.@@@ ======== *%%%.@ @ ===================",
"=================@*%@&&&&&&.@ ======.@@@.@@@.@@@@@@@@@.@@@ =========  .   @@@ ==================",
"================@***@&&&&&&.@ ======.@XX.@@@@.@@@@@@@@.@@@ =========.%%@@@@@@ ==================",
"==============@@***@&&&&&&&.@@ =====.Xoo.@@@@.@@@@@@@@.@@@ ========= %%%%@@@@ ==================",
"=============@*****@&&&&&&&.@@ =====Xooo.@@@@@.@@@@@@@.@@@@ ========. %%%@@ .$ =================",
"============@******.&&&&&&&@@@ ====.Xooo.@@@@@.@$$$$@.@@@@@@ ======.*$     $$$. ================",
"============@***@@@.&&&&&&@@@@ ===.Xooooo.@@@@.$$$$$$.@@@@@@ ======.***%$$$$$$.@ ===============",
"===========@**@@%%%@@&&&&&.@@@ ==.%Xooooo.....@$$$$$$. ..@@..======.@*****%$$.@@ ===============",
"===========@*@%%%%%%.&&&&&.@@@ ==.% ooooo.@@@@.$$$$ .%%%% @ =======.*@@@@.....@@. ==============",
"=========== @%%%%%%%%.&&&.@.@ ==.%%% oooo.@@@@.@$$ %%%%%%%. =======.**@%%%%%.@@@. ==============",
"=========== @%%%%%%%%%.&.@@@. ==.%%%%  o.@@@@@@.$ %%%%%%%%%. ======.**@%%%%%%.@.@ ==============",
"=========== @%%%%%%%%%%.@@@@. =.%%%%%%%  @@@@@@@. %%%%%%%%%% ======.**@%%%%%%%.@@@ =============",
"============.%%%%%%%%%%.@@@@ ==.%%%%%%%%% @@@@@@ %%%%%%%%%%% ======.***%%%%%%%%.@@ =============",
"============ %%%%%%%%%%.@@@ === .%%%%%%%%.  @@@@ %%%%%%%%%%%@ ====@@***@%%%%%%%.@@ =============",
"============ @%%%%%%%%%.@@ ==== @%%%%%%%..@@   . %%%%%%%%%%%. ====.****@%%%%%%%.@@@ ============",
"============= %%%%%%%%%@@ ===== @.%%%%..@@.@@ = %%%%%%%%%%%.@@ ===.****@%%%%%%%%.@@ ============",
"============= @%%%%%%%%% ======= @....@@@@.@@ = %%%%%%%%%%%.@@ ===.***@%%%%%%%%%.@@ ============",
"============== @@%%%@...======== @@@@.@@@@@.@ = .%%%%%%%%%.@@@ === ***@%%%%%%%%%.@ =============",
"===============.....@============ @@@@.@@@   === .@%%%%%@.@@@.===== @@.%%%%%%%%%. ==============",
"==================================      ..@..=== $$....@$.@@. ====== @@.@%%%%%%% ===============",
"==================================.@%%@.@@@@  ===.$$$$$$$.@@ ========  @@.@%%%  ================",
"=================================.@%%%%@.@@@.@ ===..$$$$$$  @ =========       ==================",
"================================.$  .%%%@.  @@ =====.     .@@..=================================",
"================================.%%%@.    @@@@ ====.%%@$@@@@@@  ================================",
"================================ $%%%$$@@.@@@ ====..%@%%%$@@@@@. ===============================",
"=================================  @$$@@@.@  =====.%.@%%%%%$$..@ ===============================",
"===================================..      =======.%%........@@@ ===============================",
"================================================== $%@$$$$$$$@@@ ===============================",
"=================================================== @$$$$$$$$$@ ================================",
"====================================================.          =================================",
"================================================================================================",
"================================================================================================",
"================================================================================================",
"================================================================================================",
"================================================================================================",
"================================================================================================",
"================================================================================================",
"================================================================================================",
"================================================================================================",
"================================================================================================",
"================================================================================================",
"================================================================================================",
"================================================================================================"
};
