/* XPM */
static char *sprite_606_front[] = {
/* columns rows colors chars-per-pixel */
"96 96 16 1 ",
"  c #101010",
". c gray16",
"X c #206229",
"o c #624129",
"O c #8B2929",
"+ c #CD0000",
"@ c #8B5239",
"# c #8B5A39",
"$ c #A4624A",
"% c #209C39",
"& c #39B420",
"* c #E6CD00",
"= c #DE9C7B",
"- c #C5A47B",
"; c #E6C5A4",
": c #000000",
/* pixels */
"::::::::::::::::::::::::::::::::::::::::::::::::::::::::::::::::::::::::::::::::::::::::::::::::",
"::::::::::::::::::::::::::::::::::::::::::::::::::::::::::::::::::::::::::::::::::::::::::::::::",
"::::::::::::::::::::::::::::::::::::::::::::::::::::::::::::::::::::::::::::::::::::::::::::::::",
"::::::::::::::::::::::::::::::::::::::::::::::::::::::::::::::::::::::::::::::::::::::::::::::::",
"::::::::::::::::::::::::::::::::::::::::::::::::::::::::::::::::::::::::::::::::::::::::::::::::",
"::::::::::::::::::::::::::::::::::::::::::::::::::::::::::::::::::::::::::::::::::::::::::::::::",
"::::::::::::::::::::::::::::::::::::::::::::::::::::::::::::::::::::::::::::::::::::::::::::::::",
"::::::::::::::::::::::::::::::::::::::::::::::::::::::::::::::::::::::::::::::::::::::::::::::::",
"::::::::::::::::::::::::::::::::::::::::::::::::::::::::::::::::::::::::::::::::::::::::::::::::",
"::::::::::::::::::::::::::::::::::::::::::::::::::::::::::::::::::::::::::::::::::::::::::::::::",
"::::::::::::::::::::::::::::::::::::::::::::::::::::::::::::::::::::::::::::::::::::::::::::::::",
"::::::::::::::::::::::::::::::::::::::::::::::::::::::::::::::::::::::::::::::::::::::::::::::::",
"::::::::::::::::::::::::::::::::::::::::::::::::::::::::::::::::::::::::::::::::::::::::::::::::",
"::::::::::::::::::::::::::::::::::::::::::::::::::::::::::::::::::::::::::::::::::::::::::::::::",
"::::::::::::::::::::::::::::::::::::::::::::::::::::::::::::::::::::::::::::::::::::::::::::::::",
"::::::::::::::::::::::::::::::::::::::::::::::::::::::::::::::::::::::::::::::::::::::::::::::::",
"::::::::::::::::::::::::::::::::::::::::::::::::::::::::::::::::::::::::::::::::::::::::::::::::",
"::::::::::::::::::::::::::::::::::::::::::::::::::::::::::::::::::::::::::::::::::::::::::::::::",
"::::::::::::::::::::::::::::::::::::::::::::@@@@@@::::::::::::::::::::::::::::::::::::::::::::::",
":::::::::::::::::::::::::::::::::::::::::@@@======@@::::::::::::::::::::::::::::::::::::::::::::",
":::::::::::::::::::::::::::::::::::::::oo=======o$$$ :::::::::::::::::::::::::::::::::::::::::::",
"::::::::::::::::::::::::::::::::::::::o========@$$$$$ ::::::::::::::::::::::::::::::::::::::::::",
":::::::::::::::::::::::::::::::::::::@$========@$$$$$o::::::::::::::::::::::::::::::::::::::::::",
":::::::::::::::::::::::::::::::::::::@o========o$$$$$$ :::::::::::::::::::::::::::::::::::::::::",
"::::::::::::::::::::::::::::::::::::@=o======== $$$$$$ :::::::::::::::::::::::::::::::::::::::::",
"::::::::::::::::::::::::::::::::::::@=o======== $$$$$$ :::::::::::::::::::::::::::::::::::::::::",
"::::::::::::::::::::::::::::::::::::@=o=======@ $$$$$$$ ::::::::::::::::::::::::::::::::::::::::",
"::::::::::::::::::::::::::::::::::::$=.=======. $$$$$$$ ::::::::::::::::::::::::::::::::::::::::",
":::::::::::::::::::::::::::::::::::@==.o=====o.o$$$$$$$ ::::::::::::::::::::::::::::::::::::::::",
":::::::::::::::::::::::::::::::::::@==..=====..=o$$$$$$ ::::::::::::::::::::::::::::::::::::::::",
":::::::::::::::::::::::::::::::::::@=$=.o===..o= $$$$$$o::::::::::::::::::::::::::::::::::::::::",
":::::::::::::::::::::::::::::::::::@=o=..===..== $$$$$$$o:::::::::::::::::::::::::::::::::::::::",
":::::::::::::::::::::::::::::::::::@=.=o.o=o.o===o$$$$$$ :::::::::::::::::::::::::::::::::::::::",
":::::::::::::::::::::::::::::::::::@=.$=..o..===..$$$$$$ :::::::::::::::::::::::::::::::::::::::",
":::::::::::::::::::::::::::::::::::@=..=o...o==o..o$$$$= :::::::::::::::::::::::::::::::::::::::",
":::::::::::::::::::::::::::::::::::@$o.o=...==o.o=o$$=== :::::::::::::::::::::::::::::::::::::::",
":::::::::::::::::::::::::::::::::::o$=..=o..==..===$====o:::::::::::::::::::::::::::::::::::::::",
":::::::::::::::::::::::::::::::::::o==..==..==..====$==$= ::::::::::::::::::::::::::::::::::::::",
":::::::::::::::::::::::::::::::::::$==..==..==..=====$o== ::::::::::::::::::::::::::::::::::::::",
":::::::::::::::::::::::::::::::::::$==..==..==..==========o:::::::::::::::::::::::::::::::::::::",
"::::::::::::::::::::::::::::::::::$=o=..==..==..=o$=======o:::::::::::::::::::::::::::::::::::::",
"::::::::::::::::::::::::::::::::::$o.=..==.o=$.o=..======== ::::::::::::::::::::::::::::::::::::",
":::::::::::::::::::::::::::::::::$=.o=.o=o.$=o.==..========= :::::::::::::::::::::::::::::::::::",
"::::::::::::::::::::::::::::::::$=..=o.==..==..==..========== ::::::::::::::::::::::::::::::::::",
":::::::::::::::::::::::::::::::$==.o=..==..==..==.o========oo$ :::::::::::::::::::::::::::::::::",
"::::::::::::::::::::::::::::::oo=====.o==.o==o.=========  o$$o :::::::::::::::::::::::::::::::::",
"::::::::::::::::::::::::::::::o$ooo================@o  o$$$@o ::::::::::::::::::::::::::::::::::",
":::::::::::::::::::::::::::::::o@$$oXXoooooo$XX  oo@$$$$ooo ::::::::::::::::::::::::::::::::::::",
":::::::::::::::::::::::::::::::: @oX%%%X$$$XX%%%%X$oooo@$$ :::::::::::::::::::::::::::::::::::::",
"::::::::::::::::::::::::::::::::: $X%% %XX%%%% %%%X$$$$$  ::::::::::::::::::::::::::::::::::::::",
"::::::::::::::::::::::::::::::::::ooX%%%%%XX%%%%%Xoooo  ::::::::::::::::::::::::::::::::::::::::",
"::::::::::::::::::::::::::::::::::::  XX$$$$$XXXX$$$@ ::::::::::::::::::::::::::::::::::::::::::",
":::::::::::::::::::::::::::::::::::::::  oooo$$$$$o -- :::::::::::::::::::::::::::::::::::::::::",
"::::::::::::::::::::::::::::::::::::::::::      ooo--- :::::::::::::::::::::::::::::::::::::::::",
"::::::::::::::::::::::::::::::::::::::::::#--o$$$o---# :::::::::::::::::::::::::::::::::::::::::",
"::::::::::::::::::::::::::::::::::::::::::#---o$$o--  o ::::::::::::::::::::::::::::::::::::::::",
"::::::::::::::::::::::::::::::::::::::::::: ;;#=o;; $$$$o  :::::::::::::::::::::::::::::::::::::",
":::::::::::::::::::::::::::::::::::::::::: $#;#=#;o$oo$o$$o oo::::::::::::::::::::::::::::::::::",
"::::::::::::::::::::::::::::::@@@@@::::: o$o #==##=$ :  $o$$==@@::::::::::::::::::::::::::::::::",
":::::::::::::::::::::::::::OO$=====$@  o$$o :$====== :::  $=====@:::::::::::::::::::::::::::::::",
"::::::::::::::::::::::::::O+ ==========$o$ :#o======o::::: ======@::::::::::::::::::::::::::::::",
"::::::::::::::::::::::::::O+ ==XX=======$ :#;;o==#o=o:::::o=======@:::::::::::::::::::::::::::::",
":::::::::::::::::::::::::: o==X&&o======o::#;-o=#;;o$::::::@=======@::::::::::::::::::::::::::::",
"::::::::::::::::::::::::::o===X&& =====o::::oo==#;-o= :::::o=======@::::::::::::::::::::::::::::",
"::::::::::::::::::::::::::o=o$$o =====$ ::::$====oo== :::::o========o:::::::::::::::::::::::::::",
"::::::::::::::::::::::::::: **o======  ::::#o======== :::::o======== :::::::::::::::::::::::::::",
"::::::::::::::::::::::::::: ** ===$  :::::#;;o==#o==== :::::o======= :::::::::::::::::::::::::::",
"::::::::::::::::::::::::::::  o    :::::::#;-o=#;;o=== ::::: =======o:::::::::::::::::::::::::::",
"::::::::::::::::::::::::::::::::::::::::::$oo==#;-o==== ::::: $====o :::::::::::::::::::::::::::",
":::::::::::::::::::::::::::::::::::::::::$======oo=====o::::::ooo$O+ :::::::::::::::::::::::::::",
"::::::::::::::::::::::::::::::::::::::::o===@ooo======== ::::: &&o  ::::::::::::::::::::::::::::",
":::::::::::::::::::::::::::::::::::::::o=$oo$$$$oooo$==== :::::  :::::::::::::::::::::::::::::::",
":::::::::::::::::::::::::::::::::::::::o@@@@o$$$o$$$ooo=== :::::::::::::::::::::::::::::::::::::",
"::::::::::::::::::::::::::::::::::::::::oo@@ $$$o$$o@@@oo$= ::::::::::::::::::::::::::::::::::::",
"::::::::::::::::::::::::::::::::::::::::::oo $$o$$$o@@@@@oo ::::::::::::::::::::::::::::::::::::",
":::::::::::::::::::::::::::::::::::::::::::::o$o==$ @@@@   :::::::::::::::::::::::::::::::::::::",
":::::::::::::::::::::::::::::::::::::::::::::  o=== o   ::::::::::::::::::::::::::::::::::::::::",
":::::::::::::::::::::::::::::::::::::::::::::::o==$ ::::::::::::::::::::::::::::::::::::::::::::",
"::::::::::::::::::::::::::::::::::::::::::::::::o  :::::::::::::::::::::::::::::::::::::::::::::",
"::::::::::::::::::::::::::::::::::::::::::::::::::::::::::::::::::::::::::::::::::::::::::::::::",
"::::::::::::::::::::::::::::::::::::::::::::::::::::::::::::::::::::::::::::::::::::::::::::::::",
"::::::::::::::::::::::::::::::::::::::::::::::::::::::::::::::::::::::::::::::::::::::::::::::::",
"::::::::::::::::::::::::::::::::::::::::::::::::::::::::::::::::::::::::::::::::::::::::::::::::",
"::::::::::::::::::::::::::::::::::::::::::::::::::::::::::::::::::::::::::::::::::::::::::::::::",
"::::::::::::::::::::::::::::::::::::::::::::::::::::::::::::::::::::::::::::::::::::::::::::::::",
"::::::::::::::::::::::::::::::::::::::::::::::::::::::::::::::::::::::::::::::::::::::::::::::::",
"::::::::::::::::::::::::::::::::::::::::::::::::::::::::::::::::::::::::::::::::::::::::::::::::",
"::::::::::::::::::::::::::::::::::::::::::::::::::::::::::::::::::::::::::::::::::::::::::::::::",
"::::::::::::::::::::::::::::::::::::::::::::::::::::::::::::::::::::::::::::::::::::::::::::::::",
"::::::::::::::::::::::::::::::::::::::::::::::::::::::::::::::::::::::::::::::::::::::::::::::::",
"::::::::::::::::::::::::::::::::::::::::::::::::::::::::::::::::::::::::::::::::::::::::::::::::",
"::::::::::::::::::::::::::::::::::::::::::::::::::::::::::::::::::::::::::::::::::::::::::::::::",
"::::::::::::::::::::::::::::::::::::::::::::::::::::::::::::::::::::::::::::::::::::::::::::::::",
"::::::::::::::::::::::::::::::::::::::::::::::::::::::::::::::::::::::::::::::::::::::::::::::::",
"::::::::::::::::::::::::::::::::::::::::::::::::::::::::::::::::::::::::::::::::::::::::::::::::",
"::::::::::::::::::::::::::::::::::::::::::::::::::::::::::::::::::::::::::::::::::::::::::::::::"
};
