/* XPM */
static char *sprite_450_front[] = {
/* columns rows colors chars-per-pixel */
"96 96 16 1 ",
"  c #181818",
". c #625239",
"X c #393941",
"o c #6A204A",
"O c #5A5A62",
"+ c #E64120",
"@ c #A44173",
"# c #9C8339",
"$ c #CDB439",
"% c #7B7B8B",
"& c #E67394",
"* c #B4A483",
"= c #EED594",
"- c #BDBDCD",
"; c white",
": c #000000",
/* pixels */
"::::::::::::::::::::::::::::::::::::::::::::::::::::::::::::::::::::::::::::::::::::::::::::::::",
"::::::::::::::::::::::::::::::::::::::::::::::::::::::::::::::::::::::::::::::::::::::::::::::::",
"::::::::::::::::::::::::::::::::::::::::::::::::::::::::::::::::::::::::::::::::::::::::::::::::",
"::::::::::::::::::::::::::::::::::::::::::::::::::::::::::::::::::::::::::::::::::::::::::::::::",
"::::::::::::::::::::::::::::::::::::::::::::::::::::::::::::::::::::::::::::::::::::::::::::::::",
"::::::::::::::::::::::::::::::::::::::::::::::::::::::::::::::::::::::::::::::::::::::::::::::::",
"::::::::::::::::::::::::::::::::::::::::::::::::::::::::::::::::::::::::::::::::::::::::::::::::",
"::::::::::::::::::::::::::::::::::::::::::::::::::::::::::::::::::::::::::::::::::::::::::::::::",
"::::::::::::::::::::::::::::::::::::::::::::::::::::::::::::::::::::::::::::::::::::::::::::::::",
"::::::::::::::::::::::::::::::::::::::::::::::::::::::::::::::::::::::::::::::::::::::::::::::::",
"::::::::::::::::::::::::::::::::::::::::::::::::::::::::::::::::::::::::::::::::::::::::::::::::",
"::::::::::::::::::::::::::::::::::::::::::::::::::::::::::::::::::::::::::::::::::::::::::::::::",
"::::::::::::::::::::::::::::::::::::::::::::::::::::::::::::::::::::::::::::::::::::::::::::::::",
"::::::::::::::::::::::::::::::::::::::::::::::::::::::::::::::::::::::::::::::::::::::::::::::::",
"::::::::::::::::::::::::::::::::::::::::::::::::::::::::::::::::::::::::::::::::::::::::::::::::",
"::::::::::::::::::::::::::::::::::::::::::::::::::::::::::::::::::::::::::::::::::::::::::::::::",
"::::::::::::::::::::::::::::::::::::::::::::::::::::::::::::::::::::::::::::::::::::::::::::::::",
"::::::::::::::::::::::::::::::::::::::::::::::::::::::::::::::::::::::::::::::::::::::::::::::::",
"::::::::::::::::::XXX::::::::::::::XXX::::::::::::::::::::::::::::::::::::::::::::::::::::::::::",
"::::::::::::::::XXOOOX:        :::XOOOXX::::::::::::::::::::::::::::::::::::::::::::::::::::::::",
":::::::::::::::XOOOO   OOOOOOOO   XOOOOOXX::::::::::::::::::::::::::::::::::::::::::::::::::::::",
"::::::::::::::XOOO  OOOOOOOOOOOOOO XOOOOOOX:::::::::::::::::::::::::::::::::::::::::::::::::::::",
":::::::::::::XOO  OOOOOOOOOOOOOOOOOX OOOOOO ::::::::::::::::::::::::::::::::::::::::::::::::::::",
":::::::::::::XO OX  OOOOOOOOOOOOOOOOO  OOOO ::::::::::::::::::::::::::::::::::::::::::::::::::::",
":::::::::::::XXXO   OOOOOOOOOOOO  XOOOO  OXX::::::::::::::::::::::::::::::::::::::::::::::::::::",
":::::::::::::: OO  XOOOOOOOOOOOO   OOOOOO  :::::::::::::::::::::::::::::::::::::::::::::::::::::",
":::::::::::::  OOOOOOOOOOOOOOOOOX  OOOOOOOO ::::::::::::::::::::::::::::::::::::::::::::::::::::",
":::::::::::::  X  OOOOOOOOOOOOOOOOOOO  XOOO ::::::::::::::::::::::::::::::::::::::::::::::::::::",
"::::::::::::  X   OOOOOOOOOOOOOOO  XO   OOOX :::::::::::::::::::::::::::::::::::::::::::::::::::",
":::::::::::: OO  XX        XOOOOO   OX  OOOX :::::::::::::::::::::::::::::::::::::::::::::::::::",
":::::::::::: XOOX  @@@@@@@@    XOX  OOOOOOO$. ::::::::::::::::::::::::::::::::::::::::::::::::::",
":::::::::::: XXX @@@@@@@@@@@@@@   XOOOOOOOX$$ ::::::::::::::::::::::::::::::::::::::::::::::::::",
":::::::::::: XX o---oo@@@@@oo@--%@  XOOOOOX$$ ::::::::::::::::::::::::::::::::::::::::::::::::::",
"::::::::::::: X ------ o@@@@@ ----%@ XOOOX$$$.    ::::::::::::::::::::::::::::::::::::::::::::::",
"::::::::::::::  ;;---- @@@@@@ ;;----@XXXX$$$$$ OOOXX::::::::::::::::::::::::::::::::::::::::::::",
":::::::::::::::  ;;;- @@@@@@@@ ;;;- o@ $$$$$$$ OOOOO :::::::::::::::::::::::::::::::::::::::::::",
"::::::::::::::::   o@@@@@@@@@@@    @@@ $$$$$$$ OOOOOO ::::::::::::::::::::::::::::::::::::::::::",
":::::::::::::::::::  @@o---@@@@@@@---o $$$$$$$ OOXXXX XXXX::::     :::::::::::::::::::::::::::::",
":::::::::::::::::::::  -----@@@@@----- $$$$$$$.XXX++oO OOOXXX X      :::::::::::::::::::::::::::",
"::::::::::::::::::::::: ---o@@@@@X---X $$$$$$$$O+X++oO OOOOO O      X ::::::::::::::::::::::::::",
":::::::::::::::::::::::: XX@@@@@@@XXX@@ $$$$$$$ ++++oO OOOOOOO       X :::::::::::::::::::::::::",
"::::::::::::::::::::::::: @o@@@@@@@@@o@ $$$$$$$ o+++o OOOOOOOOO      X X::::::::::::::::::::::::",
"::::::::::::::::::::::::: &&o@@@@@@@@o& $$$$$$$$ O+oO  OOOOOXOOOOX  XO OXX:XXX::::::::::::::::::",
":::::::::::::::::::::::::: &&o@@@@@@@o&& $$$$$$$$ OOX$ XXOOOOXOOOOOOOOXOOO OOOX:::::::::::::::::",
":::::::::::::::::::::::::: &&o@@@@@@@o&& $$$$$$$$$XX$$ $$XOOOOXXOOOOOXOOOOO OOO ::::::::::::::::",
":::::::::::::::::::::::::: &&&o@@@@@@@@&& $$$$$$$$$$$$$#$$$XOOOOXXXXXOOOOOOO OOO :::::::::::::::",
"::::::::::::::::::::::::::: &&o@@@@@@@o&& $$$$$$$$$$$$$#$$$$XOOOOOOOOOXXXXOOO OXX ::::::::::::::",
"::::::::::::::::::::::::::: &&&o@@@@@@o&&& $$$$$$$$$$$$#$$$$XOOOOOOOOXOOOOXXOO XX ::::::::::::::",
"::::::::::::::::::::::::::: &&&o@@@@@@@o&& $$$$$$$$$$$#$$$$$$XOOOOOO OOOO== XOO X ::::::::::::::",
":::::::::::::::::::::::::: &&&&o@@@@@@@o&& $$$$$$$$$$$#$$$$$$XOOOOOO OOO=*== OOX :::::::::::::::",
":::::::::::::::::::::::::: &&&o@@@@@@@@o&& $$$$$$$$$$#$$$$$$$$XOOOOO OOO===== OO :::::::::::::::",
"::::::::::::::::::   :::: &&&&o@@@&&&&&@o& $$$$$$$$$$$$$$$$$$$$XOOOO OOO==*== OXX ::::::::::::::",
"::::::::::::::::: ;;% :: &&&&o@@&&&&&&&&o&.$$$$$$$$$$$$$$$$$$$$XOOOOO OO*===== XX ::::::::::::::",
":::::::::::::::: ;;;; :  XXX@&&&   &&&&&@&.$$$$#$$$$$$$$$$$$$$$$XOOOO OOO===== X # :::::::::::::",
":::::::::::::::: ;;;;  &X;;;X&& ;;% &XXXoX$$$$.$$#$$$$$$$$$$$$$$$XOOOO OO======X # :::::::::::::",
":::::::::::::::: ;;;; &&;;;;;& ;;;; X;;;X.$$$ .#.$$$$$$$$$$$$$$$$$XOOOO  *===== ## :::::::::::::",
":::::::::::::::: ;;;;- &&;;;&& ;;;; ;;;;;.$$$ #.#$$$$$$$$$$#$$$$$$$XXOOOO.===== ### ::::::::::::",
":::::::::::::::: -;;-- &@&&&&& ;;;; &;;;.$$$# .###$$$#$$$$$$#.$$$$$$#XXOO.=====*### ::::::::::::",
"::::::::::::::::. ----o@&&&&&& ;;;;- &o&.$$$ .######.$$$$$$$$$ $$$$$$##XX.======X## ::::::::::::",
"::::::::::::::::. ---o@&&&&&&& -;;--oo&.$$$# ######.$$$$$$$$$$..$$#$#$###.======X## ::::::::::::",
":::::::::::::::.$.ooo&@&&&&&&&& ----o&.$$$$ #######.$$$$$$$$$$$ ##$#$#####*==*==*# ***::::::::::",
":::::::::::::::.$$.&&&&@&&&&&&& ---o..$$$$# ###### $$$$$$$$$$$$ ###$######.======. *****::::::::",
":::::::::::::::.$$#.&&&&@@@&&&&&oo..$$$$$# ####### XXXXXXX$$$$$$ #########.====*== ****:::::::::",
":::::::::::::::= $$$..&&&&&&&&&...$$$$$$## ###### OOOOOOOOXXX$$$ #####..##.==*=====.*:::::::::::",
":::::::::::::::= $$$$$........$$$$$$$$$## ###..# OOOOOOOOOOOOXX$ ###..***..=========.:::::::::::",
"::::::::::::::*== $$$$$$$$$$$$$$$$$$$### ...***. OOXXXXXXOOOOOOX ..********===========.:::::::::",
"::::::::::::::==== $$$$$$$$$$$$$$$##### ******** XXOOOOOOXXXOOOO *********=======*=====*::::::::",
"::::::::::::::==*== .$$$$$$$$$$######  *****===**OOOOOOOOOOOXXX*********====*===========::::::::",
"::::::::::::*=*======  .##########   *=========**OOXXXXXXOOOO***=*================*===::::::::::",
"::::::::::***===========          *=============***OOOOOOXX***==============*=*====:::::::::::::",
"::::::::******=====*================================================*========*=*====::::::::::::",
":::::::::::******======================================================*====*=*=*:::::::::::::::",
":::::::::::::::::::*=============================================*=======:::::::::::::::::::::::",
":::::::::::::::::================*============================*=*=*=====::::::::::::::::::::::::",
":::::::::::::::========================*============*==========*=*=*::::::::::::::::::::::::::::",
":::::::::::::::::::=================*====*=============*======*=*=*:::::::::::::::::::::::::::::",
":::::::::::::::::::::::::::====================================*::::::::::::::::::::::::::::::::",
":::::::::::::::::::::::::::::::=========================*:::::::::::::::::::::::::::::::::::::::",
"::::::::::::::::::::::::::::::::::::::::==================::::::::::::::::::::::::::::::::::::::",
"::::::::::::::::::::::::::::::::::::::::::::::::::::::::::::::::::::::::::::::::::::::::::::::::",
"::::::::::::::::::::::::::::::::::::::::::::::::::::::::::::::::::::::::::::::::::::::::::::::::",
"::::::::::::::::::::::::::::::::::::::::::::::::::::::::::::::::::::::::::::::::::::::::::::::::",
"::::::::::::::::::::::::::::::::::::::::::::::::::::::::::::::::::::::::::::::::::::::::::::::::",
"::::::::::::::::::::::::::::::::::::::::::::::::::::::::::::::::::::::::::::::::::::::::::::::::",
"::::::::::::::::::::::::::::::::::::::::::::::::::::::::::::::::::::::::::::::::::::::::::::::::",
"::::::::::::::::::::::::::::::::::::::::::::::::::::::::::::::::::::::::::::::::::::::::::::::::",
"::::::::::::::::::::::::::::::::::::::::::::::::::::::::::::::::::::::::::::::::::::::::::::::::",
"::::::::::::::::::::::::::::::::::::::::::::::::::::::::::::::::::::::::::::::::::::::::::::::::",
"::::::::::::::::::::::::::::::::::::::::::::::::::::::::::::::::::::::::::::::::::::::::::::::::",
"::::::::::::::::::::::::::::::::::::::::::::::::::::::::::::::::::::::::::::::::::::::::::::::::",
"::::::::::::::::::::::::::::::::::::::::::::::::::::::::::::::::::::::::::::::::::::::::::::::::",
"::::::::::::::::::::::::::::::::::::::::::::::::::::::::::::::::::::::::::::::::::::::::::::::::",
"::::::::::::::::::::::::::::::::::::::::::::::::::::::::::::::::::::::::::::::::::::::::::::::::",
"::::::::::::::::::::::::::::::::::::::::::::::::::::::::::::::::::::::::::::::::::::::::::::::::",
"::::::::::::::::::::::::::::::::::::::::::::::::::::::::::::::::::::::::::::::::::::::::::::::::",
"::::::::::::::::::::::::::::::::::::::::::::::::::::::::::::::::::::::::::::::::::::::::::::::::"
};
