/* XPM */
static char *sprite_007_front[] = {
/* columns rows colors chars-per-pixel */
"96 96 16 1 ",
"  c #101010",
". c #632900",
"X c #842900",
"o c #BD6B00",
"O c #CE7B29",
"+ c #D69452",
"@ c #E6AD5A",
"# c #FFD66B",
"$ c #297384",
"% c #5A9CA5",
"& c #FFE69C",
"* c #8CC5CE",
"= c #B5E6EF",
"- c #D6CECE",
"; c white",
": c #000000",
/* pixels */
"::::::::::::::::::::::::::::::::::::::::::::::::::::::::::::::::::::::::::::::::::::::::::::::::",
"::::::::::::::::::::::::::::::::::::::::::::::::::::::::::::::::::::::::::::::::::::::::::::::::",
"::::::::::::::::::::::::::::::::::::::::::::::::::::::::::::::::::::::::::::::::::::::::::::::::",
"::::::::::::::::::::::::::::::::::::::::::::::::::::::::::::::::::::::::::::::::::::::::::::::::",
"::::::::::::::::::::::::::::::::::::::::::::::::::::::::::::::::::::::::::::::::::::::::::::::::",
"::::::::::::::::::::::::::::::::::::::::::::::::::::::::::::::::::::::::::::::::::::::::::::::::",
"::::::::::::::::::::::::::::::::::::::::::::::::::::::::::::::::::::::::::::::::::::::::::::::::",
"::::::::::::::::::::::::::::::::::::::::::::::::::::::::::::::::::::::::::::::::::::::::::::::::",
"::::::::::::::::::::::::::::::::::::::::::::::::::::::::::::::::::::::::::::::::::::::::::::::::",
"::::::::::::::::::::::::::::::::::::::::::::::::::::::::::::::::::::::::::::::::::::::::::::::::",
"::::::::::::::::::::::::::::::::::::::::::::::::::::::::::::::::::::::::::::::::::::::::::::::::",
"::::::::::::::::::::::::::::::::::::::::::::::::::::::::::::::::::::::::::::::::::::::::::::::::",
"::::::::::::::::::::::::::::::::::::::::::::::::::::::::::::::::::::::::::::::::::::::::::::::::",
"::::::::::::::::::::::::::::::::::::::::::::::::::::::::::::::::::::::::::::::::::::::::::::::::",
"::::::::::::::::::::::::::::::::::::::::::::::::::::::::::::::::::::::::::::::::::::::::::::::::",
"::::::::::::::::::::::::::::::::::::::::::::::::::::::::::::::::::::::::::::::::::::::::::::::::",
"::::::::::::::::::::::::::::::::::::::::::::::::::::::::::::::::::::::::::::::::::::::::::::::::",
"::::::::::::::::::::::::::::::::::::::::::::::::::::::::::::::::::::::::::::::::::::::::::::::::",
"::::::::::::::::::::::::::::::::::::::::::::::::::::::::::::::::::::::::::::::::::::::::::::::::",
"::::::::::::::::::::::::::::::::::::::::::::::::::::::::::::::::::::::::::::::::::::::::::::::::",
"::::::::::::::::::::::::::::::::::::::::::::::::::::::::::::::::::::::::::::::::::::::::::::::::",
"::::::::::::::::::::::::::::::::::::::::::::::::::::::::::::::::::::::::::::::::::::::::::::::::",
"::::::::::::::::::::::::::::::::::::::::::::::::::::::::::::::::::::::::::::::::::::::::::::::::",
"::::::::::::::::::::::::::::::::::::::::::::::::::::::::::::::::::::::::::::::::::::::::::::::::",
"::::::::::::::::::::::::::::::::::::::::::::::::::::::::::::::::::::::::::::::::::::::::::::::::",
"::::::::::::::::::::::::::::::::::::::::::::::::::::::::::::::::::::::::::::::::::::::::::::::::",
"::::::::::::::::::::::::::::::::::::::::::::::::::::::::::::::::::::::::::::::::::::::::::::::::",
"::::::::::::::::::::::::::::::::::::::::::::::::::::::::::::::::::::::::::::::::::::::::::::::::",
"::::::::::::::::::::::::::::::::::::::::::::::::::::::::::::::::::::::::::::::::::::::::::::::::",
"::::::::::::::::::::::::::::::::::::::::::::::::::::::::::::::::::::::::::::::::::::::::::::::::",
":::::::::::::::::::::::::::::::::::::::%%%%$$:::::::::::::::::::::::::::::::::::::::::::::::::::",
":::::::::::::::::::::::::::::::::::::%%====**$$:::::::::::::::::::::::::::::::::::::::::::::::::",
"::::::::::::::::::::::::::::::::::::%====******$::::::::::::::::::::::::::::::::::::::::::::::::",
":::::::::::::::::::::::::::::::::::$====********$:::::::::::::::::::::::::::::::::::::::::::::::",
"::::::::::::::::::::::::::::::::::$*===**********$::::::::::::::::::::::::::::::::::::::::::::::",
"::::::::::::::::::::::::::::::::::$*******%******$::::::::::::::::::::::::::::::::::::::::::::::",
":::::::::::::::::::::::::::::::::$%******%*%%%***%$:::::::::::::::::::::::::::::::::::::::::::::",
":::::::::::::::::::::::::::::::::$X*******% --%*%% :::::::::::::::::::::::::::::::::::::::::::::",
":::::::::::::::::::::::::::::::::$;%******   -$%%% :::::::::::::::::::::::::::::::::::::::::::::",
":::::::::::::::::::::::::::::::::$X%******  X;$%%% :::::::::::::::::::::::::::::::::::::::::::::",
":::::::::::::::::::::::::::::::::$ *******; X;$%%% :::::::::::::::::::::::::::::::::::::::::::::",
"::::::::::::::::::::::::::::::::$==*******X X;%%%% :::::::::::::::::::::::::::::::::::::::::::::",
":::::::::::::::::::::::::::::::: =*%*%******%%%%%% :::::::::::::::::::::::::::::::::::::::::::::",
"::::::::::::::::::::::::::::::::: $********%%$%%% ::%$$$::::::::::::::::::::::::::::::::::::::::",
":::::::::::::::::::::::::::::%:%::  **%$$$$$XX%%%$:%**%% :::::::::::::::::::::::::::::::::::::::",
":::::::::::::::::::::::::::::$*%$  %  XOOOOXX%%% %***$% ::::::::::::::::::::::::::::::::::::::::",
"::::::::::::::::::::::::::::%****%% %%XXXXX%%%$ $***$$% ::::::::::::::::::::::::::::::::::::::::",
"::::::::::::::::::::::::::::$******* $%%%%%%  O-%***%% :::::::::::::::::::::::::::::::::::::::::",
":::::::::::::::::::::::::::::$%*****%%$     @@@$***%%% :::::::::::::::::::::::::::::::::::::::::",
"::::::::::::::::::::::::::::::$%%%%%%O@####@@@$%**%%% ::::::::::::::::::::::::::::::::::::::::::",
":::::::::::::::::::::::::::::::$$%%%OO####OOOO$%%%%% .:::::$$$$:::::::::::::::::::::::::::::::::",
":::::::::::::::::::::::::::::::::  %O&OOOO@###O$%%% oo.::$$***%$::::::::::::::::::::::::::::::::",
":::::::::::::::::::::::::::::::::::O&&#@&&&&##O@   -oo.:$%*****%$:::::::::::::::::::::::::::::::",
":::::::::::::::::::::::::::::::::::O&&&@&&&&#@@@@.--oo.$%*******$:::::::::::::::::::::::::::::::",
":::::::::::::::::::::::::::::::::::O&&&@&&&&#O#@@.--oo %%%**$$**% ::::::::::::::::::::::::::::::",
":::::::::::::::::::::::::::::::::::OO#&O&&&#O##@@o--o .%%%%$**$*% ::::::::::::::::::::::::::::::",
":::::::::::::::::::::::::::::::::::O&@OOO@@OO###@Oo-+o.%%%$%***%% ::::::::::::::::::::::::::::::",
":::::::::::::::::::::::::::::::::::O&&&O&&&#@O##@O.--o %%% %%%%% :::::::::::::::::::::::::::::::",
"::::::::::::::::::::::::::::::::::%O#&&@&&&&#@O@%%$$-o %%% %%%%% :::::::::::::::::::::::::::::::",
":::::::::::::::::::::::::::::::::%**O##@#&&&#@@%***%$- %%%% %%% ::::::::::::::::::::::::::::::::",
"::::::::::::::::::::::::::::::::%***O@@OO@@@@@%*****%$%%%%%%   :::::::::::::::::::::::::::::::::",
"::::::::::::::::::::::::::::::::%****OO@@OO@@@$*****% %%%%   :::::::::::::::::::::::::::::::::::",
"::::::::::::::::::::::::::::::::$****%X@@@@OOO$*****%$    ::::::::::::::::::::::::::::::::::::::",
":::::::::::::::::::::::::::::::: %**%%%XX@@@@O %***%%% :::::::::::::::::::::::::::::::::::::::::",
"::::::::::::::::::::::::::::::::: %%%%%% XX    $%%%%%% :::::::::::::::::::::::::::::::::::::::::",
":::::::::::::::::::::::::::::::::$%%%%% ::::::: %%%%%% :::::::::::::::::::::::::::::::::::::::::",
"::::::::::::::::::::::::::::::::$*%$*% ::::::::: %%%%%% ::::::::::::::::::::::::::::::::::::::::",
":::::::::::::::::::::::::::::::::  :  :::::::::: *% *$  ::::::::::::::::::::::::::::::::::::::::",
":::::::::::::::::::::::::::::::::::::::::::::::::  :  ::::::::::::::::::::::::::::::::::::::::::",
"::::::::::::::::::::::::::::::::::::::::::::::::::::::::::::::::::::::::::::::::::::::::::::::::",
"::::::::::::::::::::::::::::::::::::::::::::::::::::::::::::::::::::::::::::::::::::::::::::::::",
"::::::::::::::::::::::::::::::::::::::::::::::::::::::::::::::::::::::::::::::::::::::::::::::::",
"::::::::::::::::::::::::::::::::::::::::::::::::::::::::::::::::::::::::::::::::::::::::::::::::",
"::::::::::::::::::::::::::::::::::::::::::::::::::::::::::::::::::::::::::::::::::::::::::::::::",
"::::::::::::::::::::::::::::::::::::::::::::::::::::::::::::::::::::::::::::::::::::::::::::::::",
"::::::::::::::::::::::::::::::::::::::::::::::::::::::::::::::::::::::::::::::::::::::::::::::::",
"::::::::::::::::::::::::::::::::::::::::::::::::::::::::::::::::::::::::::::::::::::::::::::::::",
"::::::::::::::::::::::::::::::::::::::::::::::::::::::::::::::::::::::::::::::::::::::::::::::::",
"::::::::::::::::::::::::::::::::::::::::::::::::::::::::::::::::::::::::::::::::::::::::::::::::",
"::::::::::::::::::::::::::::::::::::::::::::::::::::::::::::::::::::::::::::::::::::::::::::::::",
"::::::::::::::::::::::::::::::::::::::::::::::::::::::::::::::::::::::::::::::::::::::::::::::::",
"::::::::::::::::::::::::::::::::::::::::::::::::::::::::::::::::::::::::::::::::::::::::::::::::",
"::::::::::::::::::::::::::::::::::::::::::::::::::::::::::::::::::::::::::::::::::::::::::::::::",
"::::::::::::::::::::::::::::::::::::::::::::::::::::::::::::::::::::::::::::::::::::::::::::::::",
"::::::::::::::::::::::::::::::::::::::::::::::::::::::::::::::::::::::::::::::::::::::::::::::::",
"::::::::::::::::::::::::::::::::::::::::::::::::::::::::::::::::::::::::::::::::::::::::::::::::",
"::::::::::::::::::::::::::::::::::::::::::::::::::::::::::::::::::::::::::::::::::::::::::::::::",
"::::::::::::::::::::::::::::::::::::::::::::::::::::::::::::::::::::::::::::::::::::::::::::::::",
"::::::::::::::::::::::::::::::::::::::::::::::::::::::::::::::::::::::::::::::::::::::::::::::::",
"::::::::::::::::::::::::::::::::::::::::::::::::::::::::::::::::::::::::::::::::::::::::::::::::",
"::::::::::::::::::::::::::::::::::::::::::::::::::::::::::::::::::::::::::::::::::::::::::::::::",
"::::::::::::::::::::::::::::::::::::::::::::::::::::::::::::::::::::::::::::::::::::::::::::::::",
"::::::::::::::::::::::::::::::::::::::::::::::::::::::::::::::::::::::::::::::::::::::::::::::::",
"::::::::::::::::::::::::::::::::::::::::::::::::::::::::::::::::::::::::::::::::::::::::::::::::",
"::::::::::::::::::::::::::::::::::::::::::::::::::::::::::::::::::::::::::::::::::::::::::::::::",
"::::::::::::::::::::::::::::::::::::::::::::::::::::::::::::::::::::::::::::::::::::::::::::::::"
};
