/* XPM */
static char *sprite_095_front[] = {
/* columns rows colors chars-per-pixel */
"96 96 8 1 ",
"  c #101010",
". c #524A4A",
"X c #837B7B",
"o c #BDB4B4",
"O c #DED5D5",
"+ c #F6EEEE",
"@ c white",
"# c #000000",
/* pixels */
"################################################################################################",
"################################################################################################",
"################################################################################################",
"################################################################################################",
"################################################################################################",
"################################################################################################",
"################################################################################################",
"################################################################################################",
"################################################################################################",
"################################################################################################",
"################################################################################################",
"#######################oX.######################################################################",
"#######################oO.######################################################################",
"#######################XO.######################################################################",
"#######################XO.######################################################################",
"#######################XO.######################################################################",
"#######################XOX######################################################################",
"#######################XOoX#####################################################################",
"#######################XOo.##########################X.......X##################################",
"#######################XOo.#########################.OOXOOOOOOX.X###############################",
"#######################oOo.########################.OOOOoOOOOOOOo .#############################",
"######################XOoo.#############XXXXXXXX## OOOOOooOOOoooooo.############################",
"######################XOooX#########XXXXOOOOOOOOX .OOOOOOXXXooooooo ############################",
"######################XOoooX#######XOOOOOOOOOOOOOOO. OXXXoooooXooooo ###########################",
"######################XOooo.######XXOOOOOOOOOOOOOOOOO oooooooooXXooo ###########################",
"######################XOooo.#####.OOoOOOOOOOOOOOOOOO.o oooooooooXXXo. ##########################",
"######################XOooo ####.OOOOoOOOOOOOOOOOOO.ooo ooooooooo.XX.. #########################",
"######################oOoo XX### OOOO.XXOOOOOOOOOX.oooo oooooooooo.... #########################",
"#####################XOoo.oX..  .ooo.oooX.OOOOOOXooooooo oooooooooX... #########################",
"#####################XOooXooX ooo... XooooXX.o.Xoooooooo Xooo..oooX... #########################",
"#####################XOoXoooX ooooooo..Xooooo.ooooooooooo .o.XX.oXXX.. #########################",
"####################X.Oo.ooo oooooooooX Xoooo.ooooooooooo ..XXXXXXXXX.   #######################",
"###################X+.Oo.oo.ooooXXXooo . XooXoooooooooooo ..XXX.XXXXX ... ######################",
"##################X+O.Ooo .ooooXooooo.X. XXX.oooooooooooo ..XXX.XXXXX .... #####################",
"#################X.+OXoo oooooo.oooo.XXX. X.ooooooooooooX ...X.XXXXXX .... #####################",
"################XoXOOOX.oooooooo.XoXXXXXXX ..ooooooooooX ....X XXXXX ...... ####################",
"###############XOOXOOOOOOoooooooo.XXXXXXXXX .Xo...ooooXX .... XXXXX. ...... ####################",
"##############XOOXOOOOOOOOOOoooooo.XXXXXXXXX ..XXX..oXXX ......XXX  .XX.... ####################",
"##############.OOoOOOOOOOOOOOOOoo.XXXXXXX.XX ...XXXX.XXX ........ .XXXXX... ####################",
"##############.oOOOoOOoOOOOOOOoo XXXXoXX.XXXX ...XXX.XX ........ XXXXXXXX.. ####################",
"###############.XOOXOOXOOOOoX.  XXX.ooo.XXXXXX ...XXXXX   ..... XXXXXXXXX. . ###################",
"###############.O.o.OOO.oX.XO@O.XX.ooo.XXXXXXX ...XXXXX ##     oXXXXXXXX. .. ###################",
"##############X.@O.oOOoX. OO@@@ ..oooo.XXXXXXXX ..XXXX ##### oo ooXXXXX. .... ##################",
"##############X @ .OOOXX O@ @OXoooooo.XXXXXXXXX .XXXX ###### OOo ooXXX  ..... ##################",
"##############.o...OOoXX.  ..Xooooooo XXXXXXXXX .XXX ######.OOOOo     ....... ##################",
"##############.OOOXOOXXX Xooooooooo X XXXXXXXXX.XX  ####### OOOOOooooXXX...... #################",
"##############XOOOXOOXX oOOoooooo..XXX XXXXXXX    #######.  OOOOOooooooXX..... #################",
"##############X+OoOOoX.OOOOOOOoX.XX  XX.XXXXX #########X XX OOOOOOooooXXXX.... #################",
"#############X+++XOOX.oOOOOOOX.XXX    XX.  X ########X.OOOX OOOOOX.oXXXXXXX... #################",
"#############Xo++XOoX.OOOOOX.XXX    .. XXXX ########XOOOOOo. OOXXoo.XXXXXXX... #################",
"#############.OX+XOX.OOOOXXoXXX     ...    ########XOOOOOooo OXooooXXXXXXXX... #################",
"#############.ooXOO.OOOXXooooX     .oX.. ##########.OOOOOoooo ooooXXXXXXXXX.. ##################",
"##############.ooOOOX..oooooX      XoXo. ##########.OOOOXoooo oooo.XXXXXXXX.. ##################",
"###############.oOOooooooo.       .ooXo ###########.OOOOXoooo. Xoo.XXXXXX..  ###################",
"################ oooo....         .oo.X #########.  OOOOOXoo...    .XXXX.  #####################",
"#################.  .#           .ooo. ########. XXX.OOOO.oX......       #######################",
"###################### .         .ooX ########.OOOXX OOOOO.X......... ###########   ############",
"###################### .        .ooo ########XOOOOOX XOOXXXXX....... ########### oX. ###########",
"######################.X.       XooX ########.OOOOOOX.XXXXXXXX..... ##########. XX.. ###########",
"####################### o     .XooX #########XOOOOOOo XXXXXXXXX.... ########X.oX X.. ###########",
"#######################.ooOOooooo  #########.ooOOOOOo. XXXXXXXXXX. ########XooXX. .. ###########",
"########################.OOOOOO  ########## .OoXOOOO...  XXXXXX   ########XoXXXX.   ############",
"#########################XX..  ###########.o.OOoXOOoX....      ##########XoXXXX.. ##############",
"#########################################XOo OOo.oXXX..... #############.oXXXX... ##############",
"#########################################.OOo.OX.XXX.X.... ############# .XX.... ###############",
"######################################### OOOO. .XXXXX... #############XXX .... ################",
"######################################### OOOOOO   .XXX. #############.ooXX .  #################",
"#########################################.OOOOOO...     ############## XXX.  ###################",
"#########################################.XOOOO.XX... ##############..  ... ####################",
"##########################################.oOOXXXXX.. #############.oX.. . #####################",
"##########################################.oooo.XXXX ###########X. oXXX.. ######################",
"###########################################.ooooXXX ##########XXooX XXX.. ######################",
"############################################ .ooo.   ########.ooXXX. .X.. ######################",
"############################################.X    ... #X.. # XXXX.X.. .. #######################",
"###########################################XOOoooXXX.. .XXX .XXXXX. .   ########################",
"###########################################.OoooXoXXX. XXXXX .XXXXX.. ##########################",
"###########################################.OooooXo.XX XXXXX ..XXX... ##########################",
"###########################################XOOoooo.XXX XXXXX. ....... ##########################",
"###########################################XoOoooo.XX. XXXX.. ...... ###########################",
"############################################XOOooX... . XX...  .... ############################",
"############################################.OOoX... ........ #    #############################",
"#############################################  .... ........ ###################################",
"###############################################    #  ....  ####################################",
"######################################################    ######################################",
"################################################################################################",
"################################################################################################",
"################################################################################################",
"################################################################################################",
"################################################################################################",
"################################################################################################",
"################################################################################################",
"################################################################################################",
"################################################################################################",
"################################################################################################",
"################################################################################################",
"################################################################################################"
};
