/* XPM */
static char *sprite_264_back[] = {
/* columns rows colors chars-per-pixel */
"96 96 14 1 ",
"  c #010101",
". c #413920",
"X c #5A4A39",
"o c #6A6262",
"O c gray45",
"+ c #836A5A",
"@ c #94837B",
"# c #A48B7B",
"$ c #296A94",
"% c #6AACC5",
"& c #AC9C8B",
"* c #DECDBD",
"= c white",
"- c #000000",
/* pixels */
"------------------------------------------------------------------------------------------------",
"------------------------------------------------------------------------------------------------",
"------------------------------------------------------------------------------------------------",
"------------------------------------------------------------------------------------------------",
"------------------------------------------------------------------------------------------------",
"------------------------------------------------------------------------------------------------",
"------------------------------------------------------------------------------------------------",
"------------------------------------------------------------------------------------------------",
"------------------------------------------------------------------------------------------------",
"------------------------------------------------------------------------------------------------",
"------------------------------------------------------------------------------------------------",
"------------------------------------------------------------------------------------------------",
"------------------------------------------------------------------------------------------------",
"------------------------------------------------------------------------------------------------",
"------------------------------------------------------------------------------------------------",
"------------------------------------------------------------------------------------------------",
"------------------------------------------------------------------------------------------------",
"------------------------------------------------------------------------------------------------",
"------------------------------------------------------------------------------------------------",
"------------------------------------------------------------------------------------------------",
"------------------------------------------------------------------------------------------------",
"------------------------------------------------------------------------------------------------",
"------------------------------------------------------------------------------------------------",
"------------------------------------------------------------------------------------------------",
"------------------------------------------------------------------------------------------------",
"------------------------------------------------------------------------------------------------",
"------------------------------------------------------------------------------------------------",
"------------------------------------------------------------------------------------------------",
"------------------------------------------------------------------------------------------------",
"------------------------------------------------------------------------------------------------",
"--------------------------------------------------------------------- --------------------------",
"-------------------------------------------------------------------- & -------------------------",
"-----------------------------------------------               X----  & o------------------------",
"-------------------------------------------   X&#++++++++++++++X   X&& &o-----------------------",
"----------------------------------------  X&#+++++++++++++++++++++++XXX& -- --------------------",
"--------------------------------------  *&#+++++++++##&************&#++XXX * -------------------",
"------------------------------------X *&#++++++#&**********************&# o* o------------------",
"----------------------------------- &*&+++++#*************************** *o*o*o-----------------",
"---------------------------------- **&++++#***************&++++++##&**** ***o* -----------------",
"--------------------------------- **#++++*******************#+++++++++++#&**&* X----------------",
"-------------------------------- **#++++********************&#++++++++++++#&** *X---------------",
"-------------------------------X&*#+++#********************&++++++++++++++++++##*X--------------",
"------------------------------X&*#+++#********************&+++++++++++++++++++ $##X-------------",
"------------------------------ &*+++#***********&#+++X#******&#+++++++++++++++ %=X#X------------",
"-----------------------------X&&#+++**********#+++XX********#++++   ##***##+++ $ X++ -----------",
"----------------------------- &++++#********&+XXXX*************** **  o*******# $X++ -----------",
"---------------------------- &&X+++********+XXXX****************** ***&&&&&&&&&&&&&. -----------",
"----------------------------X&+XXX&*****&&+XXX*******************   &&&&&&&&&&&&&&& ------------",
"--------------------------- &&X+X+&&&&&&&XXXX*******@*********&& &&&&&&&&&&&&&&oo  -------------",
"-------------------------- &&&X&X&&&&&&&XXXX*********@****&&&&&&&  o&&&&&        ---------------",
"------------------------- &&&&&&&&&&&&&XXXX &********o&&&&&&&&&&&&o&&&  o-----------------------",
"------------------------ &&&&&&&&&&&&&XXXX *&*********o&&O   O&&&o&&  --------------------------",
"----------------------- &&&&&&&&&&&&&+XXXX*&*&******** O  OOO &&&o  &o--------------------------",
"---------------------  &&&&&&&&&&&&&+XXXX &*&*&&****&&  OOOOOO &&&&&&o--------------------------",
"-------------------  &&&&&&&&&&&&&&&XXXX &&&&&&&&&&&&&  OOOOOO &&&&&&o--------------------------",
"-----------------  +***&&*&*&&&&&&&+XXXX &&&&&&&&&&&&& - OOOO - &&&&&&o-------------------------",
"---------------XX++******&*&*&&&&&&XXXX &&&&&&&&&&&&& -- OOOO - &&&&&& -------------------------",
"------------XXX++&**********&*&&&&XXXXX &&&&&&&&&&&& ---- OOO= - &&&&&O O-----------------------",
"-----------  &****************&&&XXXXX &&&&&&&&&&&& ------     -- &&&&&O= ----------------------",
"---------- &*****&&**********&&+XXX+XX ooo&&&&&&&  --------------- &&&&&  ----------------------",
"-----------  ooo&**********&&+XXX++XX -- &oO&&&  &=  --------------     ------------------------",
"-------------  *********&&+XXX++++XXX -- &&&&&&&&&&== ------------------------------------------",
"------------ ******&&&+++++++++++XXX ----  &&&&&&&O   ------------------------------------------",
"-------------    ++++++++++++++XXXX -------       ----------------------------------------------",
"-----------------      X++++XXXXX  -------------------------------------------------------------",
"-------------------- ++++XXXX    ---------------------------------------------------------------",
"---------------------        -------------------------------------------------------------------",
"------------------------------------------------------------------------------------------------",
"------------------------------------------------------------------------------------------------",
"------------------------------------------------------------------------------------------------",
"------------------------------------------------------------------------------------------------",
"------------------------------------------------------------------------------------------------",
"------------------------------------------------------------------------------------------------",
"------------------------------------------------------------------------------------------------",
"------------------------------------------------------------------------------------------------",
"------------------------------------------------------------------------------------------------",
"------------------------------------------------------------------------------------------------",
"------------------------------------------------------------------------------------------------",
"------------------------------------------------------------------------------------------------",
"------------------------------------------------------------------------------------------------",
"------------------------------------------------------------------------------------------------",
"------------------------------------------------------------------------------------------------",
"------------------------------------------------------------------------------------------------",
"------------------------------------------------------------------------------------------------",
"------------------------------------------------------------------------------------------------",
"------------------------------------------------------------------------------------------------",
"------------------------------------------------------------------------------------------------",
"------------------------------------------------------------------------------------------------",
"------------------------------------------------------------------------------------------------",
"------------------------------------------------------------------------------------------------",
"------------------------------------------------------------------------------------------------",
"------------------------------------------------------------------------------------------------",
"------------------------------------------------------------------------------------------------",
"------------------------------------------------------------------------------------------------",
"------------------------------------------------------------------------------------------------",
"------------------------------------------------------------------------------------------------"
};
