/* XPM */
static char *sprite_427_front[] = {
/* columns rows colors chars-per-pixel */
"96 96 13 1 ",
"  c #101010",
". c #393139",
"X c #523939",
"o c #7B3941",
"O c #8B5A41",
"+ c #836A5A",
"@ c #B47B4A",
"# c #C55A7B",
"$ c #C5A47B",
"% c #FF8BA4",
"& c #EEDEA4",
"* c white",
"= c #000000",
/* pixels */
"================================================================================================",
"================================================================================================",
"================================================================================================",
"================================================================================================",
"================================================================================================",
"================================================================================================",
"================================================================================================",
"================================================================================================",
"================================================================================================",
"================================================================================================",
"================================================================================================",
"================================================================================================",
"================================================================================================",
"================================================================================================",
"================================================================================================",
"================================================================================================",
"================================================================================================",
"================================================================================================",
"================================================================================================",
"====================================+++=========================================================",
"===================================+$&&+=++=====================================================",
"===================================+&&&&+&$+====================================================",
"=================================++$&&&$&&$$+===================================================",
"================================+$&&&&&&&&&$+===================================================",
"================================+&&&&&&&&&&&$+==================================================",
"================================+&&&&&&&&&&$$+==================================================",
"================================+&&&&&&&&&&$$+==================================================",
"================================+$&$&&&&&&$$$+==================================================",
"=================================+$&&&$$&$$$+===================================================",
"=================================+$$$$$$$$$+====================================================",
"==================================+$$$+$$$+ ====================================================",
"===================================+++@+++@X====================================================",
"=================================== @@@@@@@OX===================================================",
"=================================== @Oo@@@@OX===================================================",
"=================================== O%%o@@OO ===================================================",
"==================================== %%o@@OO ===================================================",
"==================================== %%#oOOO ===================================================",
"==================================== ###oOOO ===================================================",
"===================================== ##oOOO ===================================================",
"===================================== ##oOO ====================================================",
"===================================== ##oOO ====================================================",
"====================================== ##oOXXXXXX===X   ========================================",
"====================================== ##oXO@@@@@XX @@@@ ++=====================================",
"=======================================XO@@@@@@@@@ @@@@+&&&+++==================================",
"======================================X@@@@@@@@@@OO@@@+&&&&&$&+=================================",
"=====================================X@$@@@@@@@@@X@@@@+&&&&&&&&+================================",
"====================================X@O&O@@@@@@@@X@@@@+$&&&&&&&+================================",
"====================================O@@O@@@@@@@$@X@@@+&&&&&&&&$+================================",
"===================================X@@@@@@@@@@O&OX@@@+&&&&&&&$+=================================",
"=================================== @OX@@@@@@@@O@OO@@+$&&&&$$$$+================================",
"=================================== OX*O@@@@@@@@@@X@@@+$+$$$$$$+================================",
"=================================== OX O@@@@@@@@XOOO@@@+$$$$+$+=================================",
"====================================.OXOoo@@@@@X* O OOOO+$$+++==================================",
"==================================== OOO#%o@@OOX  OO OOOOOOX ===================================",
"===================================== OOOoOOOOOOXOOOO XOOX  ====================================",
"====================================== XOXOOOOOOOOOOOOX  X======================================",
"=======================================  OXOOOXOOOOOX ==========================================",
"=========================================  XXXOOOOX ============================================",
"===========================================X  XOX ==============================================",
"============================================XOOOOOXX============================================",
"===========================================X@@@OOOO@XXX=========================================",
"=========================================XX@O@@@@@@@@@@XX ======================================",
"=======================================XX@@@X@@@@@X@@@@@@O =====================================",
"======================================XO@@@X@@++&+$ X@@@O@ =====================================",
"======================================X@@@@+&+&&&&&&  @@@ ======================================",
"======================================XO@@X$&&&&&&$&$$   =======================================",
"=======================================X  +$&&&&&&&$&$$$ =======================================",
"===========================================+&&&&&&$&$$+$ =======================================",
"========================================== $$&&&&$&$$$$ ========================================",
"========================================== +$$$$$$$$$$$+ =======================================",
"=========================================== +$$+$$$$+$+$+ ======================================",
"============================================ +  +$$$ +$$$ ======================================",
"============================================= $$$    $$$&& =====================================",
"============================================ $$$$$+  $$&+& =====================================",
"============================================ +&+&+ == &+& ======================================",
"=============================================     ====   =======================================",
"================================================================================================",
"================================================================================================",
"================================================================================================",
"================================================================================================",
"================================================================================================",
"================================================================================================",
"================================================================================================",
"================================================================================================",
"================================================================================================",
"================================================================================================",
"================================================================================================",
"================================================================================================",
"================================================================================================",
"================================================================================================",
"================================================================================================",
"================================================================================================",
"================================================================================================",
"================================================================================================",
"================================================================================================",
"================================================================================================"
};
