/* XPM */
static char *sprite_463_back[] = {
/* columns rows colors chars-per-pixel */
"96 96 13 1 ",
"  c #101010",
". c #622939",
"X c #943941",
"o c #944162",
"O c #BD5273",
"+ c #C55A5A",
"@ c #F67B5A",
"# c #E67394",
"$ c #8B8BAC",
"% c #FFA4B4",
"& c #D5CDDE",
"* c white",
"= c #000000",
/* pixels */
"================================================================================================",
"================================================================================================",
"================================================================================================",
"================================================================================================",
"================================================================================================",
"================================================================================================",
"================================================================================================",
"================================================================================================",
"================================================================================================",
"================================================================================================",
"================================================================================================",
"================================================================================================",
"================================================================================================",
"================================================================================================",
"================================================================================================",
"=================================================oooooo=========================================",
"===============================================oo#####%OO=======================================",
"==============================================o#######%%%O======================================",
"=============================================.##Oo.####%%%o=====================================",
"=============================================.#O##O.#######o====================================",
"=============================================.#####.####### ====================================",
"==============================================.### ######## ====================================",
"===============================================.. ########o=====================================",
"=============================================   ########## =====================================",
"===========================================  ############ ======================================",
"=========================================  ############Oo=======================================",
"======================================== #OOOOOO#########o======================================",
"======================================= OOOOOOOOOOOO######o=====================================",
"====================================== OOOOOOOOOOOOOOO###O#o====================================",
"===================================== OOOOOOOOOOOOOOOOO#O* Oo===================================",
"===================================== OOOOOOOOOOOOOOOOOO#  #o===================================",
"==================================== OOOOOOOOOOOOOOOOOOOO####o==================================",
"==================================== OOOOOOOOOOOOOOOOOOOOO#O o==================================",
"==================================== OOOOOOOOOOOOOOOOOOOOO###  =================================",
"==================================== OOOOOOOOOOOOOOOOOOOOO### @X  ==============================",
"==================================== OOOOOOOOOOOOOOOOOOOOO### @@@@X ============================",
"==================================== OOOOOOOOOOOOOOOOOOOOOO#O +@@@@@  ==========================",
"==============================$$===== OOOOOOOOOOOOOOOOOOOOOO ++++@@@@@  ========================",
"=============================$&&...== OOOOOOOOOOOOOOOOOOOOOO ++++++@@@@@  ======================",
"============================..O####..= OOOOOOOOOOOOOOOOOOOO $$+++++++@@@@XX=====================",
"===========================.OOOOO###O.O .OOOOOOOOOOOOOOOOO &&&$+++++++@@@@@ ====================",
"==========================.OOOOOOOO#.OOOO.oOOOOOOOOOOOOo  OOO&&o+++++++$$@@@ ===================",
"==========================.OOOOOOOO.OOOOOOOoOOOOOOOOOooOOOOOOOOOo++    **$@@X===================",
"==========================.OOOOOOO.OOOOOOOOOOOOOOOOOOOOOOOOOOOOO.. OO##OOo.@@ ==================",
"===========================.OOOOO.OOOOOOOOOOOOOOOOOOOOOOOOOOOO..OOO######## @ ==================",
"============================..OO.OOOOOOOOOOOOOOOOOOOOOOOOOOOooOOOO#########O  ==================",
"==============================.ooOOOOOOOOOOOOOOOOOOOOOOOOOOOOOOOOO##########  ==================",
"===============================.OOOOOOOOOOOOOOOOOOOOOOOOOOOOOOOOOO########## ===================",
"==============================.OOOOOOOOOOOOOOOOOOOOOOOOOOOOOOOOOOOO######### ===================",
"==============================.OOOOOOOOOOOOOOOOOOOOOOOOOOOOOOOOOOOOOO#####O ====================",
"=============================.OOOOOOOOOOOOOOOOOOOOOOOOOOOOOOOOOOOOOOOOOOO  =====================",
"=============================.OOOOOOOOOOOOOOOOOOOOOOOOOOOOOOOOo..OOOOO   =======================",
"============================.OOOOOOOOOOOOOOOOOOOOOOOOOOOOOOOOOOOO     o=========================",
"============================.OOOOOOOOOOOOOOOOOOOOOOOOOOOOOOOOOOOOOOO##o=========================",
"============================.OOOOOOOOOOOOOOOOOOOOOOOOOOOOOOOOOOOOOOO##o=========================",
"============================.OOOOOOOOOOOOOOOOOOOOOOOOOOOOOOOOOOOOOOO##Oo========================",
"=========================== OOOOOOOOOOOOOOOOOOOOOOOOOOOOOOOOOOOOOOOOO##o========================",
"=========================== OOOOOOOOOOOOOOOOOOOOOOOOOOOOOOOOOOOOOOOOO##o========================",
"=========================== OOOOOOOOOOOOOOOOOOOOOOOOOOOOOOOOOOOOOOOOO##o========================",
"====================o.....= OOOOOOOOOOOOOOOOOOOOOOOOOOOOOOOOOOOOOOOOOO#o========================",
"===================.oOOOOO...OOOOOOOOOOOOOOOOOOOOOOOOOOOOOOOOOOOOOOOOOOo========================",
"==================.OOOOOOOOOO..OOOOOOOOOOOOOOOOOOOOOOOOOOOOOOOOOOOOOOOOo========================",
"=================ooOOOOOOOOOOOO..OOOOOOOOOOOOOOOOOOOOOOOOOOOOOOOOOOOOOOo========================",
"=================.OOOOOOOOOOOOOOO..OOOOOOOOOOOOOOOOOOOOOOOOOOOOOOOOOOOO.========================",
"=================.OOOOOOOOoOOOOOOOO.OOOOOOOOOOOOOOOOOOOOOOOOOOOOOOOOOOoo========================",
"=================.OOOOOOOo.OOOOOOOOO.OOOOOOOOOOOOOOOOOOOOOOOOOOOOOOOOO.=========================",
"=================.oOOOOooo.OOOOOOOOOOoOOOOOOOOOOOOOOOOOOOOOOOOOOOOOOOO.=========================",
"==================.oooooo.oOOOOOOOOOOOoOOOOOOOOOOOOOOOOOOOOOOOOOOOOOO.==========================",
"===================......oooOOOOOOOOOOOOOOOOOOOOOOOOOOOOOOOOOOOOOOOOO ==========================",
"====================== ooooooOOOOOOOOOOOOOOOOOOOOOOOOOOOOOOOOOOOOOOO ===========================",
"======================= oooooooOOOOOOOOOOOOOOOOOOOOOOOOOOOOOOOOOOOO ============================",
"======================== ooooooooOOOOOOOOOOOOOOOOOOOOOOOOOOOOOOOOO =============================",
"========================= oooooooooOOOOOOOoooOOOOOOOOOOOOOOOOOoOO.==============================",
"==========================. ooooooooooooooo.oooooOOOOOOOOOOOooOOO ==============================",
"============================.  ooooooooo.  o..  .oooOOOOOoooOOOOO ==============================",
"===============================.       .ooooo ==.    ...oooOOOOO..==============================",
"=================================== oooooooo ======== ooooooOOOO ===============================",
"==================================== ooooo .========== ooooooOOO ===============================",
"=====================================    .============= .oooooo.& ==============================",
"========================================================  ooooo.& ==============================",
"==========================================================       ===============================",
"================================================================================================",
"================================================================================================",
"================================================================================================",
"================================================================================================",
"================================================================================================",
"================================================================================================",
"================================================================================================",
"================================================================================================",
"================================================================================================",
"================================================================================================",
"================================================================================================",
"================================================================================================",
"================================================================================================",
"================================================================================================",
"================================================================================================"
};
