/* XPM */
static char *sprite_306_front[] = {
/* columns rows colors chars-per-pixel */
"96 96 14 1 ",
"  c #010101",
". c #52524A",
"X c #5A5A62",
"o c #6A6A6A",
"O c #9C3141",
"+ c #DE5252",
"@ c #6ABDFF",
"# c #8B8B8B",
"$ c #838394",
"% c #A4A4AC",
"& c #ACACAC",
"* c #CDCDCD",
"= c white",
"- c None",
/* pixels */
"------------------------------------------------------------------------------------------------",
"------------------------------------------------------------------------------------------------",
"------------------------------------------------------------------------------------------------",
"------------------------------------------------------------------------------------------------",
"------------------------------------------------------------------------------------------------",
"------------------------------------------------------------------------------------------------",
"------------------------------------------------------------------------------------------------",
"------------------------------------------------------------------------------------------------",
"------------------------------------------------------------------------------------------------",
"------------------------------------------------------------------------------------------------",
"------------------------------------------------------------------------------------------------",
"------------------------------------------------------------------------------------------------",
"------------------$$$$-----------------XXXXX  --------------------------------------------------",
"------------------ ===$$$$$$---------XX=======  ------------------------------------------------",
"------------------- **=====*$$$$---XX========***  ----------------------------------------------",
"--------------------  ***======*$$$$==XX===******* ---------------------------------------------",
"----------------------  ****=======*$$  X***XX***** --------------------------------------------",
"------------------------  *****===****%  **X   **** --------------------------------------------",
"--------------------------  **********%  **X   **** XXX-----------------------------------------",
"-------------$$$$$----------   *******% X***  X*** *===XXXX-------------------------------------",
"------------ =====$$$$$$$$$$$XX  *****X ********* %%**=====XXX----------------------------------",
"-------------  ========*%%%%X%==*  *%X ********* %%%%%%**===* ----------------------------------",
"---------------   *===*%%%%%X====*X   ********* %%%%%%%%%%%* -----------------------------------",
"------------------     %%%%X======***********  %%%%%%%%%%%  ------------------------------------",
"-----------------------    X=======********  X%%%%%%%%%%  ----   -------------------------------",
"--------------------------X========******   % X%%%%X    %=X-- &&& ------------------------------",
"-------------------------X========**$X   $* *%     X%%%%*==XX &#o ------------------------------",
"------------------------$$======**** @$**** *%% X%%%%%%%%*== &##o ------------------------------",
"------------------------X=====****  @@$**** *%%  %%%%%%%%%*= ###o ------------------------------",
"-----------------------X====****  @ @@$***XX*%% .  %%%%%%%% &###o ------------------------------",
"----------------------$===****  %$$@@$**** *%%% ...  %%%%% #####o ------------------------------",
"---------------------$==***X  $*******$    *%% ....oo   %% ####oo..-----------------------------",
"-------------------$$==**    X******** OOO *%% ...ooo oo  #####ooo -----------------------------",
"------------------$==**  X*XX***** $** OOO %%% ...oo..oo .#####ooo -----------------------------",
"-----------------$=**  --X***  $* OO  OOO *%% ...ooo oo .&&###ooooo ----------------------------",
"----------------X**  ----- * ..  XO++++OO *%% ...oo ooo #&&&##oooooo ---------------------------",
"----------------   -------   ... X++++   *%% ....  ooo #&&&&#ooooooo ---------------------------",
"--------------------------- .. %%%++++ =*%%%     ooooo #&&&&#oo    o. --------------------------",
"---------------------------- .. X% ++O =*%% .....oooo  ##&&#oo .... o --------------------------",
"----------------------------- .. *X  %=**%% ......oo o o####o ......  --------------------------",
"------------------------------ .. *===*%%% ......   #o oo##oo .oo...  --------------------------",
"------------------------...--- ...  %%%%  ....   &&#oo oooooo ooo    ---------------------------",
"-----------------------.*== --- ....    .     &&&&oooo..ooooo o  ===  --------------------------",
"----------------------.o== ---- ..  . ###&&&&&&##oooooo ooooo. ======= -------------------------",
"---------------------.##.  --XXX  .oo ###########ooooooo o    =%   ==*% ------------------------",
"---------------------.#..o. ..=== ooo ############ooooo   ooo.  ooo *%% ------------------------",
"--------------------.#o==X. oo.=== oo ############oooo . oooooo oooo %%% -----------------------",
"--------------------.# *== .    == o.. ###########oo  . == ooooo ooo %%% -----------------------",
"--------------------.##   .. ... *% ..   ########   .. ==* .ooooo o . %% -----------------------",
"-------------------- ##o.... ... %% .  ##          ... =* ..ooooo  .. %% -----------------------",
"-------------------- #o== .. ... %% .  ###.&&&&&o. ..o =  .##.ooo. .. % ------------------------",
"---------------------o **= .    %%%  - &##.&&&&&#. .ooo o *== .oo. ..  .....--------------------",
"--------------------- o   .. . X%%% -- &##.&&&&&#.. oooo ===* .... . . #####...-----------------",
"---------------------- ....    %%% --- &&#.#&&&&&o. oooo =*  . ...  . . #######.----------------",
"-----------------------    ----   ---- &&#oo&&&&&#. ooooo  .. **  ... . ######## ---------------",
"------------------------------------- .&&&#.&&&&&#.. oooooo. ==X ... o.. ######o. --------------",
"---------------------..-------------. & &&#.&&&&&#.. oooooo..   ... oo.. . ####.. --------------",
"--------------------.##.-----------.# & #&#.&&&&&&o. ooooooo....     .... o. #o... -------------",
"-------------------- ###.---------.## o& &#.&&&&#&#.. oooooo..  ###oo   . ##. .... -------------",
"-------------------- o###.-------   X .& ##oo&&#&##.. oooooo. ####oooooo  #o.. .... ------------",
"-------------------- oo###..---- ==== .o& ##.&&&#&#o. ooooo. ####X     .. o... .... ------------",
"--------------------- o####...- ===== ..o& #.#&#&###.. oo.   ##XX*==***  . .... ... ------------",
"--------------------- oo##.###. =====* ..o&  .######..    # #XX======****  .... ... ------------",
"---------------------- oo #### ======* ....&&.        .###. X*=======*****$ ... ... ------------",
"---------------------- o .#### *====*** .....#&&&&&####.... *========****** ... .. -------------",
"-----------------------  oo### *$$$$$** ................... *========******$ .. .. -------------",
"------------------------ oooo# $    $$$$ ................. **======********* . .. --------------",
"------------------------ .ooooo ##o.   $$ ................ **===**$$     $** . .. --------------",
"------------------------- ooooo ###. ..  $  .............. ***=$$$$ ##### $*  .. ---------------",
"--------------------------  ooo ###. ....  $  ............ ***$$X  .#####o $ .  ----------------",
"----------------------------  o ###.. ..... $   .......... **$$ ooo o####o    ------------------",
"------------------------------  .ooo. ...... . .   ......  *$$ oooo o####o . -------------------",
"-------------------------------- ooo.    ... .. ...      .. $ ooooo..ooooo . -------------------",
"------------------------------- o    ....  .   -  ..........  oooooo ooooo . -------------------",
"-----------------------------  ..oooo...... ------    ....... .ooooo ooooo . -------------------",
"---------------------------- * ==.o........ ----------       - ooo  .     . --------------------",
"----------------------------- ==*X.=*....  -------------------- . ooo...... --------------------",
"---------------------------- == ..=***   ----------------------- ooooo..... --------------------",
"----------------------------   -- **  ------------------------- oo oooo ..X= -------------------",
"---------------------------------   --------------------------- o.* oo.* o*== ------------------",
"--------------------------------------------------------------- .*=* .==* o*= ------------------",
"---------------------------------------------------------------- ==*  ==*X  *= -----------------",
"---------------------------------------------------------------- =  -- =* --   -----------------",
"----------------------------------------------------------------  -----  -----------------------",
"------------------------------------------------------------------------------------------------",
"------------------------------------------------------------------------------------------------",
"------------------------------------------------------------------------------------------------",
"------------------------------------------------------------------------------------------------",
"------------------------------------------------------------------------------------------------",
"------------------------------------------------------------------------------------------------",
"------------------------------------------------------------------------------------------------",
"------------------------------------------------------------------------------------------------",
"------------------------------------------------------------------------------------------------",
"------------------------------------------------------------------------------------------------",
"------------------------------------------------------------------------------------------------",
"------------------------------------------------------------------------------------------------"
};
