/* XPM */
static char *sprite_257_front[] = {
/* columns rows colors chars-per-pixel */
"96 96 16 1 ",
"  c #010101",
". c #62524A",
"X c #832929",
"o c #8B6239",
"O c #BD4141",
"+ c #EE6262",
"@ c #948362",
"# c #DEA452",
"$ c #FF8362",
"% c #F6D562",
"& c #297BD5",
"* c #9C8B83",
"= c #BDB494",
"- c #DEDEB4",
"; c white",
": c #000000",
/* pixels */
"::::::::::::::::::::::::::::::::::::::::::::::::::::::::::::::::::::::::::::::::::::::::::::::::",
"::::::::::::::::::::::::::::::::::::::::::::::::::::::::::::::::::::::::::::::::::::::::::::::::",
"::::::::::::::::::::::::::::::::::::::::::::::::::::::::::::::::::::::::::::::::::::::::::::::::",
"::::::::::::::::::::::::::::::::::::::::::::::::::::::::::::::::::::::::::::::::::::::::::::::::",
"::::::::::::::::::::::::::::::::::::::::::::::::::::::::::::::::::::::::::::::::::::::::::::::::",
"::::::::::::::::::::::::::::::::::::::::::::::::::::::::::::::::::::::::::::::::::::::::::::::::",
"::::::::::::::::::::::::::::::::::::::::::::::::::::::::::::::::::::::::::::::::::::::::::::::::",
"::::::::::::::::::::::::::::::::::::::::::::::::::::::::::::::::::::::::::::::::::::::::::::::::",
"::::::::::::::::::::::::::::::::::::::::::::::::::::::::::::::::::::::::::::::::::::::::::::::::",
"::::::::::::::::::::::::::::::::::::::::::::::::::::::::::::::::::::::::::::::::::::::::::::::::",
"::::::::::::::::::::::::::::::::::::::::::::::::::::::::::::::::::::::::::::::::::::::::::::::::",
"::::::::::::::::::::::::::::::::::::::::::::O ::::::::::::::::::::::::::::::::::::::::::::::::::",
"::::::::::::::::::::::::::::::::: :::::==@@O+ ::::::::::::::::::::::::::::::::::::::::::::::::::",
"::::::::::::::::::::::::::::::::O$ ::==---O+ =..::::::::::::::::::::::::::::::::::::::::::::::::",
"::::::::::::::::::::::::::::::::O$ :=----O+ -===@:::::::::::::::::::::::::::::::::::::::::::::::",
"::::::::::::::::::::::::::::::::O$ =----O$O -====.::::::::::::::::::::::::::::::::::::::::::::::",
"::::::::::::::::::::::::::::::::O$ .---+++ -======.@::::::::::::::::::::::::::::::::::::::::::::",
"::::::::::::::::::::::::::::::::O+$ ---O$X-=XX ====@.:::::::::::::::::::::::::::::::::::::::::::",
":::::::::::::::::::::::::::::::::O$ --O$+ XX++ ======.::::::::::::::::::::::::::::::::::::::::::",
":::::::::::::::::::::::::::::::::O$X O$$ O+++ ========.:::::::::::::::::::::::::::::::::::::::::",
":::::::::::::::::::::::::::::::::O$XO$$O%#++ =====@====.::::::::::::::::::::::::::::::::::::::::",
":::::::::::::::::::::::::::::::::X$O$$X&%#++ =====@=====.@::::::::::::::::::::::::::::::::::::::",
":::::::::::::::::::::::::::::::::X$$$X#&#O+++ ===-=@=====@.:::::::::::::::::::::::::::::::::::::",
":::::::::::::::::::::::::::::::::X$$$XOOOOX  ===---@=======.::::::::::::::::::::::::::::::::::::",
"::::::::::::::::::::::::::::::::::X$XOO  OX=====---=@=======.:::::::::::::::::::::::::::::::::::",
"::::::::::::::::::::::::::::::::::X$OOX O  ====----==@=======.::::::::::::::::::::::::::::::::::",
":::::::::::::::::::::::::::::::::::XOO XX======---@XX=========.@::::::::::::::::::::::::::::::::",
"::::::::::::::::::::::::::::::::::::   :.=====---@OOOX=========@.:::::::::::::::::::::::::::::::",
"::::::::::::::::::::::::::::::::::::::::@@==----@OOO++X==========.::::::::::::::::::::::::::::::",
":::::::::::::::::::::::::::::::::::::::XO.-----=@OO+++X===========.:::::::::::::::::::::::::::::",
":::::::::::::::::::::::::::::::::::::::XO.------@OO++++X==========@@::::::::::::::::::::::::::::",
"::::::::::::::::::::::::::::::::::::::XOO@------@OXO+++O@======@====.:::::::::::::::::::::::::::",
"::::::::::::::::::::::::::::::::::::::XOO@--.---.OO O+++O@======@==  .::::::::::::::::::::::::::",
":::::::::::::::::::::::...::::::::::::XO@--.#.---..= +++O@@=@===.= **  :::::::::::::::::::::::::",
":::::::::::::::::::::   **.:::::::::::XO.--.#.----=== +++X@@=@===. **..   ::::::::::::::::::::::",
"::::::::::::::::::::.*;; * ::::::::::XOO.-.##.----==== +++X@@@@=== ;* ;;** :::::::::::::::::::::",
"::::::::::::::::::: *** .; ::::::::::XO -- ###.--== === +++XX@@@@  ; . **** ::::::::::::::::::::",
"::::::::::::::::::: ** .. ...::::::XXO ====X## == == .  O+OOOX   *. ... .*. ::::::::::::::::::::",
"::::::::::::::::::: .. .   **...XXXOOOO =  OO#O =  == @@ OOOO.*.*.*.   . .. ::::::::::::::::::::",
"::::::::::::::::::::  . *;; **.*.OOOOOXX @XXOOOO OO   .@@ OO.*.**.* ;;* .  :::::::::::::::::::::",
":::::::::::::::::::::  *** *.**.*.OOOX @@.@ OOOOOOO :::  @  .* ** *. ***  .:::::::::::::::::::::",
":::::::::::::::::::::: **. *.**.*.O   @@@.@ OOOOOO+XX:::: @@   .* .. .**. .:::::::::::::::::::::",
":::::::::::::::::::::: .. .*.*.*.  ::.@@.@@ OOOO++++ :::XX @@@        ... .:::::::::::::::::::::",
":::::::::::::::::::::::  .. ..   ::::.@@.@ O+O+++++++ XXOOO @@@@@@.@@@   @.:::::::::::::::::::::",
":::::::::::::::::::::::::     ::::::::.@.XOO+++++++++ OOOOOX  @@@@@.@@@@..::::::::::::::::::::::",
":::::::::::::::::::::::::::::::::::::::.XOO+++++++++++ OOOXXX  @@@@@.@@@.:::::::::::::::::::::::",
"::::::::::::::::::::::::::::::::::::::XXOOO++++++++++++ XXOXX :  @@@.@@@.:::::::::::::::::::::::",
":::::::::::::::::::::::::::::::::::::XOOOOO+XO+++++++++ OOXX ::::   :...::::::::::::::::::::::::",
":::::::::::::::::::::::::::::::::::XXOOOOOOX++++++++++++ XXX :::::::::::::::::::::::::::::::::::",
":::::::::::::::::::::::::::::::::XXOOOOOOOOO OO++++++++++ X ::::::::::::::::::::::::::::::::::::",
"::::::::::::::::::::::::::::::::XOOOOOOOOOOOXO++++++++++++ :::::::::::::::::::::::::::::::::::::",
":::::::::::::::::::::::::::::::XOOOOOOOOOOO O++++++++++++++ ::::::::::::::::::::::::::::::::::::",
"::::::::::::::::::::::::::::::XOOOOOOOOOOOO ++O+O++++++++++O :::::::::::::::::::::::::::::::::::",
"::::::::::::::::::::::::::::::XOOOOOOOOOOOOO  ++ X++++++++++XX::::::::::::::::::::::::::::::::::",
"::::::::::::::::::::::::::::::XOOOOOOOOOOO  ::+X: ++++++++++O ::::::::::::::::::::::::::::::::::",
"::::::::::::::::::::::::::::::XOOOOOOOOOO ::::X::: +++++++++OO :::::::::::::::::::::::::::::::::",
"::::::::::::::::::::::::::::::XOOOOOOOOOO ::::::::: +++++++O+OO ::::::::::::::::::::::::::::::::",
":::::::::::::::::::::::::::::::XOOOOOOOOOX::::..::: O+++++++OOO ::::::::::::::::::::::::::::::::",
":::::::::::::::::::::::::::::::oOOOOOOOOOO ::.* :::: OO++O+O+OOO :::::::::::::::::::::::::::::::",
":::::::::::::::::::::::::::::::o#OOOOOOOOO :.** ::::: OOO+O+OOOOO ::::::::::::::::::::::::::::::",
"::::::::::::::::::::::::::::::::o#OOOOOOOOX.*** ::::: OOOOOOOOOOO ::::::::::::::::::::::::::::::",
"::::::::::::::::::::::::::::::::o##OOOO#OOO **.::::::: OOOOOOOOOOO :::::::::::::::::::::::::::::",
"::::::::::::::::::::::::::::::::o##OOOO##OO *. ::::::: OOOOOOO#OOOO ::::::::::::::::::::::::::::",
"::::::::::::::::::::::::::::::::o###OOO###O#  ::::::::: OOOOOO#OOOO ::::::::::::::::::::::::::::",
":::::::::::::::::::::::::::::::::o###OO##### :::::::::: OOOOOO##OOOO :::::::::::::::::::::::::::",
":::::::::::::::::::::::::::::::::o####O#####o::::::::::: OOOOO###OO# :::::::::::::::::::::::::::",
":::::::::::::::::::::::::::::::::o###########o:::::::::: OOOO#%##OO## ::::::::::::::::::::::::::",
"::::::::::::::::::::::::::::::::::o##########o::::::::::: #OO#%%##O### :::::::::::::::::::::::::",
"::::::::::::::::::::::::::::::::::o########### ::::::::::o%#O#%%###### :::::::::::::::::::::::::",
"::::::::::::::::::::::::::::::::::o########### :::::::::::o%##%%####### ::::::::::::::::::::::::",
"::::::::::::::::::::::::::::::::::o###########o  :::::::::o%#%%%%###### ::::::::::::::::::::::::",
"::::::::::::::::::::::::::::::::oo############### ::::::::o%%%%%%####### :::::::::::::::::::::::",
":::::::::::::::::::::::::::::::o################ ::::::::::o%%%%%####### :::::::::::::::::::::::",
":::::::::::::::::::::::::::::::  oo###########o :::::::::::o%%%%%%####### ::::::::::::::::::::::",
"::::::::::::::::::::::::::::::::: ########oo#### ::::::::::o%%%%%%####### ::::::::::::::::::::::",
":::::::::::::::::::::::::::::::::o##   ####     ::::::::::o#%%%%%%########oooo::::::::::::::::::",
":::::::::::::::::::::::::::::::::   :::o## :::::::::::::::o#%%%%%%#%######### ::::::::::::::::::",
"::::::::::::::::::::::::::::::::::::::::  :::::::::::::::o###%%%%%%%######## :::::::::::::::::::",
":::::::::::::::::::::::::::::::::::::::::::::::::::::::: ####%%%%%%%#######o :::::::::::::::::::",
":::::::::::::::::::::::::::::::::::::::::::::::::::::::::  ##%%%%%%%####### ::::::::::::::::::::",
":::::::::::::::::::::::::::::::::::::::::::::::::::::::::::o%%#%%%%%%####### :::::::::::::::::::",
"::::::::::::::::::::::::::::::::::::::::::::::::::::::::::o%%##%%%%%%#####ooo:::::::::::::::::::",
"::::::::::::::::::::::::::::::::::::::::::::::::::::::::::ooo  #%#%%%##### :::::::::::::::::::::",
":::::::::::::::::::::::::::::::::::::::::::::::::::::::::::::::o% o%%### # :::::::::::::::::::::",
":::::::::::::::::::::::::::::::::::::::::::::::::::::::::::::::: ::o%##o:  :::::::::::::::::::::",
"::::::::::::::::::::::::::::::::::::::::::::::::::::::::::::::::::::ooo:::::::::::::::::::::::::",
"::::::::::::::::::::::::::::::::::::::::::::::::::::::::::::::::::::::::::::::::::::::::::::::::",
"::::::::::::::::::::::::::::::::::::::::::::::::::::::::::::::::::::::::::::::::::::::::::::::::",
"::::::::::::::::::::::::::::::::::::::::::::::::::::::::::::::::::::::::::::::::::::::::::::::::",
"::::::::::::::::::::::::::::::::::::::::::::::::::::::::::::::::::::::::::::::::::::::::::::::::",
"::::::::::::::::::::::::::::::::::::::::::::::::::::::::::::::::::::::::::::::::::::::::::::::::",
"::::::::::::::::::::::::::::::::::::::::::::::::::::::::::::::::::::::::::::::::::::::::::::::::",
"::::::::::::::::::::::::::::::::::::::::::::::::::::::::::::::::::::::::::::::::::::::::::::::::",
"::::::::::::::::::::::::::::::::::::::::::::::::::::::::::::::::::::::::::::::::::::::::::::::::",
"::::::::::::::::::::::::::::::::::::::::::::::::::::::::::::::::::::::::::::::::::::::::::::::::",
"::::::::::::::::::::::::::::::::::::::::::::::::::::::::::::::::::::::::::::::::::::::::::::::::"
};
