/* XPM */
static char *sprite_601_back[] = {
/* columns rows colors chars-per-pixel */
"96 96 12 1 ",
"  c #101010",
". c #282828",
"X c #306060",
"o c #484848",
"O c #686870",
"+ c #707088",
"@ c #288890",
"# c #28A8B8",
"$ c #9090B0",
"% c #A0A0A8",
"& c #D0D8E8",
"* c None",
/* pixels */
"************************************************************************************************",
"************************************************************************************************",
"************************************************************************************************",
"************************************************************************************************",
"************************************************************************************************",
"************************************************************************************************",
"************************************************************************************************",
"************************************************************************************************",
"************************************************************************************************",
"************************************************************************************************",
"************************************************************************************************",
"************************************************************************************************",
"************************************************************************************************",
"************************************************************************************************",
"************************************************************************************************",
"************************************************************************************************",
"************************************************************************************************",
"************************o Oo********OOoo********************************************************",
"***********************o&& Oo******O&&oO.*******************************************************",
"**********************O&&&& Ooo***O&&&&oO.******************************************************",
"**********************o&&&&&oo   O&&&&&oO.******************************************************",
"*********************** &&&&&&&&&&&&&& o.**oo    oo*********************************************",
"***********************o&&&&%OOOO&&&&& o.*oOOOOOOOOo.*******************************************",
"************************O&%OOOOOOOO&&oooo*  ...   o..*******************************************",
"***********************O&OOOOOOOOOOO$$oOoo%%%%%%%% o.*******************************************",
"***********************O&OOOOOOOOOooO$O.O %%%%%%%% o.*******************************************",
"*********************oo&%OOOO###X  oo$$.O %%%%%%%%.oo*******oo**********************************",
"*******************oOOo&OOOO###. .. oo$$ %%%%%%%%%%.o.**** oOOo*********************************",
"******************o&&&&&OOOO##.%% .. o$$ %%%%%%%%%% o.*** %%oOOo********************************",
"****************** &&&&&OOOoX.%%%% .. $$ %%%%%%%%%% oo.. %%%%.OOo*******************************",
"****************** &&&&&OOoo.%%%%%% ..  O%%%%%%%%%%o    %%%%%%.OO.******************************",
"*******************   o$$oo %%%%%%%%  %%%%%%%%%%%%%%%%%%%%%%%%%.OOo*****************************",
"*********************** $o %%%%%%%%%%%%%%%%%%%%%%%%%%%%%%%%%%%%%oOOo****************************",
"*********************** $$ %%%%%%%%%%%%%%%%%%%%%%%%%%%%%%%%%%%%% o.o****************************",
"************************ $ %%%%%%%%%%%%%%%o     o%%%%%%%%%%%%%% oo.*****************************",
"************************ $$ %%%%%%%%%%%%           %%%%%%%%%%% oo.******************************",
"*********************** $$$$ %%%%%%%%%    %%%%%%%    %%%%%%%%.oo.*******************************",
"*********************** $$$$$ %%%%%%%   %%%%%%%%%%%   %%%%%%%.o ********************************",
"*********************** $$$$o  %%%%+  o%%%%%%%%%%%%%o  +%%%%%.oo********************************",
"************************ $$o *o%%%%  %%%%%%%%%%%%%%%%%  %%%%%+.o.*******************************",
"*************************   * %%%%  %%%%%%%%%%%%%%%%%%%  %%%++.o.*******************************",
"***************************** %%%%  %%%%%%%%%%%%%%%%%%%  %++++.oo..oo. *************************",
"***************************..o%%%  %%%%%%%%@@@@%%%%%%%%%  ++++.oOOOOOOo.************************",
"************************..o%%%%%%  %%%%%%@@####@@%%%%%%%  ++++o...oo.o. ************************",
"***********************.%%%%%%%%o o%%%%%@########@%%%%++o o++++++++++ o ************************",
"***********************.%%%%%%%%  %%%%%%@########@%%+++++  ++++++++++ o ************************",
"***********************.%%%%%%%%  %%%%%@##########X++++++  ++++++++++ o ************************",
"***********************.%%%%%%%%  %%%%%@#######@@@X++++++  ++++++++++ o ************************",
"***********************.O%%%%%%%  %%%%%@#####@@@@@X++++++  ++++++++++ o ************************",
"************************.%%%%%%%  %%%%%@##@@@@@@@@X++++++  ++++++++++.o ************************",
"************************.%%%%%%%  %%%%%%X@@@@@@@@X+++++++  ++++++++++. *************************",
"************************....o%%%o o%%%++X@@@@@@@@X++++++o o+++++++++o **************************",
"****************************.%%%%  %+++++XX@@@@XX+++++++  +++++o     ***************************",
"****************************.%%%%o ++++++++XXXX+++++++++  +++++ ********************************",
"********************OOOO** o.O%+++  +++++++++++++++++++  +++++ oooo***ooO***********************",
"********************o$$  O$$$.++++o  +++++++++++++++++  o+++++ OOOOo..$$O***********************",
"*********************oO$$$$$$.o++++  o+++++++++++++++o  +++++ o.OOOOOOo..***********************",
"********************o$$$$$$ o.++++++   +++++++++++++   ++++++.oo.oOOOOOOOo.*********************",
"********************o$$$$  *.++++++++    o+++++++o    ++++++++ oo.ooooOOOOOo********************",
"*******************o&O$$ **.+++++++++++             +++++++++++.oo.***ooOOOoo*******************",
"*******************o&O$o***.+++++++++++++o       o++++++++++++++.o.*****oOo$ *******************",
"*******************o&&Oo****.++++++++++++++++++++++++++++++++++++.******* .$ *******************",
"*******************o&&&Oo**** +++++++++++++++++++++++o.+++++++++o ******oO$$ *******************",
"********************o&&&&o *** +++++++ o++++++++++++..o +++++++. *****oo$$$$ *******************",
"******************** &&&&&&  ** ++++o **..+++++++++.oo** +++++ ****ooo$$OO$ ********************",
"********************* &&&O%&&    ++ *****.+++++++++.o.*** ++  *    $$$$o&&o ********************",
"********************** $ &&O&&&&   .*****.+++++++++.o.**ooo    $$$$$$$o&&&&$ *******************",
"*********************** &&&&O&&&&&&$        ooooooo   oo$$$$$$$$$$$$$$o$$$&&$ ******************",
"********************** &&&&&o&&&&&&&&&&&&$$$$$$o  $$$$$$$$$$$$$$$$$$$Oo o$$$$$ *****************",
"********************* &&&$o  $&&&&&&&&&&$$$$$$O&$$o$$$$$$$$$$$$$$$$   **       *****************",
"*********************     ***oooo$&&&&$$$$$$$%&&$$$o$$$$$$$$$$    o*****************************",
"*********************************oooooo$$$$$$o&&$$$ $$$      o**********************************",
"***************************************       $&$$o   o*****************************************",
"********************************************** $$$ *********************************************",
"***********************************************o$ **********************************************",
"*********************************************** $ **********************************************",
"************************************************ ***********************************************",
"************************************************************************************************",
"************************************************************************************************",
"************************************************************************************************",
"************************************************************************************************",
"************************************************************************************************",
"************************************************************************************************",
"************************************************************************************************",
"************************************************************************************************",
"************************************************************************************************",
"************************************************************************************************",
"************************************************************************************************",
"************************************************************************************************",
"************************************************************************************************",
"************************************************************************************************",
"************************************************************************************************",
"************************************************************************************************",
"************************************************************************************************",
"************************************************************************************************",
"************************************************************************************************"
};
