/* XPM */
static char *sprite_362_front[] = {
/* columns rows colors chars-per-pixel */
"96 96 14 1 ",
"  c #010101",
". c #393941",
"X c #52526A",
"o c #7B7B83",
"O c #7B7B94",
"+ c #2983BD",
"@ c #62BDEE",
"# c #A4A4AC",
"$ c #ACACCD",
"% c #A4DEFF",
"& c #C5CDE6",
"* c #E6E6F6",
"= c white",
"- c #000000",
/* pixels */
"------------------------------------------------------------------------------------------------",
"------------------------------------------------------------------------------------------------",
"------------------------------------------------------------------------------------------------",
"------------------------------------------------------------------------------------------------",
"------------------------------------------------------------------------------------------------",
"------------------------------------------------------------------------------------------------",
"------------------------------------------------------------------------------------------------",
"------------------------------------------------------------------------------------------------",
"------------------------------------------------------------------------------------------------",
"------------------------------------------------------------------------------------------------",
"------------------------------------------------------------------------------------------------",
"------------------------------------------------------------------------------------------------",
"------------------------------------------------------------------------------------------------",
"------------------------------------------------------------------------------------------------",
"------------------------------------------------------------------------------------------------",
"------------------------------------------------------------------------------------------------",
"------------------------------------------------------------------------------------------------",
"------------------------------------------------------------------------------------------------",
"------------------------------------------------------------------------------------------------",
"------------------------------------------------------------------------------------------------",
"-------------------------------------------------------------------------   --------------------",
"-----------------------------------------------------------------------  o. --------------------",
"--------------------- ...--------------------------------------------  ooo. --------------------",
"--------------------- ooo..----------------------------------------  oooo.. --------------------",
"--------------------- .oooo...-----------------------------------  ooooo . ---------------------",
"---------------------- .oooo#...----------OOOOOO----OOOOO------- oooooo  . ---------------------",
"---------------------- ..#o#o#.....----OOO**&$$$O-OO*****OO---  .o#ooo  . ----------------------",
"---------------------- ...#o###...... O***&$O    .*********O  ..##o#o.  . ----------------------",
"----------------------- ...#####.... ****&$    ..&*******&& ...o#o#o.  . -----------------------",
"----------------------- o...o####.. &***&O   ...O*******&& ...o###o.   o -----------------------",
"----------------------- oo...o#### &***&O   ...O*******&& ....####.     ------------------------",
"------------------------ ##....o## ****O   ...O*******&&& ...####..   . ------------------------",
"------------------------ o##..... ****$   ....O*******&& ...o##o..    o ------------------------",
"------------------------ .##o... $***&O  ....O*******&&& ...##...    . -------------------------",
"------------------------- .oo... $***$   ....&*******&&& ..##...     . -------------------------",
"------------------------- ..... $***&$  ....O*******&&& ...#...      o -------------------------",
"-------------------------- .... $***O$  ....&*******&&& ......        --------------------------",
"-------------------------- .X  X****O$  ...O********&&& ....          --------------------------",
"--------------------------- X&&$****O$   ..&********&&& ..             -------------------------",
"-------------------------- &*********O$   O********&*&&&  O**      .  o ------------------------",
"--------------------------X&&$********OOOO**********&*&&****&$    .#  $ ------------------------",
"--------------------------X$&O*********************&*&****&&&&   .## $$o -----------------------",
"---------------------------OO***********************&****&&&&$   o#. $$$ -----------------------",
"---------------------------X&*********$OOO**************&&&&&O  .oo $$$$ -----------------------",
"--------------------------X&*********O$&X  X***********&&&&&O  .o  $$$$$ -----------------------",
"--------------------------X&********O&&     X*********&&&&&&$O . $$$$$$o -----------------------",
"-------------------------- &********&&   ..  X*******&&&&&&$$$$$$$$$$$$o -----------------------",
"-------------------------- $&******$$X  ....  O*****&&&&&OXXX$$$$$$$$$$ ------------------------",
"-------------------------- O&&*****O&  ......  *****&&&OX XO$X$$$$$$$$o ------------------------",
"-------------------------- O$&&&***O&  ....... ****&&&XX   X$$X$$$$$$o   -----------------------",
"--------------------------- OXX&&&*$$X ....... ***&&&X+++   O$O$$$$$o   o ----------------------",
"---------------------------  OOXX&&*O& ...... &**&&&X+++++  .$$$$$$O    $$ ---------------------",
"-------------------------- O  O +X&&*O& .... O**&&&X++@@@+   O$$$$.     $$ ---------------------",
"-------------------------- O  O ++X&&*O&... O**&&&X +@@@@@   .&$$O     o$$ ---------------------",
"-------------------------- $  O +++XO&**&O =O*&&&X* @@@@%+   .&O$O     $$$ ---------------------",
"-------------------------- $X $ +@+ *X&&===*O&&&X   @@%%%+   .*O$o    o$$ ----------------------",
"-------------------------- $&X* .@@   X&&&&&&O&X+@ +%%%%+    .*O$$o  o$$$ ----------------------",
"-------------------------- $&**. %%@ +X$&&&&&&O. +%%%%%+    .$*O$$$$O$&$$ ----------------------",
"--------------------------- $**$ .%%@+ X&&&&&&&.  ++++      .**O$$$O&&$$ -----------------------",
"--------------------------- $&**. .+%+ O&&&&&&$.           .***O$$O&&&&$ -----------------------",
"---------------------------- $***      $$&&&$$$$.         .$**O$$$O&&&O ------------------------",
"---------------------------- $&&**O   .$$$$$$$$$$O.    ..$***$$$$$O&&O -------------------------",
"----------------------------- O$&**O..O$$.   .$$$$$O...$$**$$OOO$. ..  -------------------------",
"------------------------------  Xo$$$$$$ &.&&. .$$$$$$$$$$.    &$    . -------------------------",
"------------------------------ O  X$$$$..&o&&o&. $$$$$$$O     .&$O  . --------------------------",
"------------------------------ O.  X$$$ o&o==o=&& $$$$$O      .&$$$OO --------------------------",
"------------------------------- O  .$$. o&o==o==& X$$$$O.     O&$$$O ---------------------------",
"------------------------------- O. .$$. .&=o==o=X  &$$$$O.  .O&$$$$ ----------------------------",
"-------------------------------- $$o$$.  .&.&&.   X&$$$$$OOO&&$$$  -----------------------------",
"--------------------------------- $$$$&X          &$$O$$$$$$$$O  -------------------------------",
"----------------------------------  $$$&X        X&$$$O.  ...  ---------------------------------",
"------------------------------------  O$&&X    X&&$$$$.      -----------------------------------",
"--------------------------------------  $$$&&&&$$$$$$$$.  --------------------------------------",
"---------------------------------------- O$$$$$$$$$$OO  ----------------------------------------",
"-----------------------------------------   O$$$$OO   ------------------------------------------",
"--------------------------------------------       ---------------------------------------------",
"------------------------------------------------------------------------------------------------",
"------------------------------------------------------------------------------------------------",
"------------------------------------------------------------------------------------------------",
"------------------------------------------------------------------------------------------------",
"------------------------------------------------------------------------------------------------",
"------------------------------------------------------------------------------------------------",
"------------------------------------------------------------------------------------------------",
"------------------------------------------------------------------------------------------------",
"------------------------------------------------------------------------------------------------",
"------------------------------------------------------------------------------------------------",
"------------------------------------------------------------------------------------------------",
"------------------------------------------------------------------------------------------------",
"------------------------------------------------------------------------------------------------",
"------------------------------------------------------------------------------------------------",
"------------------------------------------------------------------------------------------------",
"------------------------------------------------------------------------------------------------",
"------------------------------------------------------------------------------------------------",
"------------------------------------------------------------------------------------------------",
"------------------------------------------------------------------------------------------------",
"------------------------------------------------------------------------------------------------"
};
