/* XPM */
static char *sprite_281_front[] = {
/* columns rows colors chars-per-pixel */
"96 96 12 1 ",
"  c #101010",
". c #317B42",
"X c #84294A",
"o c #D64A73",
"O c #73BD73",
"+ c #FF7B94",
"@ c #7384AD",
"# c #8CE78C",
"$ c #B5F794",
"% c #CECEE7",
"& c #FEFFFF",
"* c #000000",
/* pixels */
"************************************************************************************************",
"************************************************************************************************",
"************************************************************************************************",
"************************************************************************************************",
"************************************************************************************************",
"************************************************************************************************",
"************************************************************************************************",
"************************************************************************************************",
"************************************************************************************************",
"************************************************************************************************",
"************************************************************************************************",
"************************************************************************************************",
"************************************************************************************************",
"************************************************************************************************",
"************************************************************************************************",
"************************************************************************************************",
"************************************************************************************************",
"************************************************************************************************",
"************************************************************************************************",
"************************************************************************************************",
"************************************************************************************************",
"*********************************************************XXX************************************",
"***********************************XXXX*******.....****XX++oX***********************************",
"********************************** +oooXX**...$OOOO..*X++ooo ***********************************",
"********************************** +ooooo .$$OO$$$$$$X+ooooo ***********************************",
"********************************** +oooo $$$O$$$$$$$X+oooooo ***********************************",
"*********************************** +oo $$$O$$$$$$$X+ooooooo ***********************************",
"*********************************** +o..$$O$$$$$$$$X+oooooo ************************************",
"************************************ + $$O$$$$$$$$X+oooXXXo ************************************",
"*************************************..$$O$$$$$$$#X+XX.OOO *************************************",
"************************************* #$O$$$$$$$##.XOOOOOO *************************************",
"************************************* #$.$$$$$########OOOOO ************************************",
"************************************* ##.$$$#######.###OOOO ************************************",
"************************************. ##.########...O###OOO.************************************",
"************************************. ##.######..&&@.###O.OO ***********************************",
"***********************************.# O#.####O.XXX&@.####.OO.***********************************",
"***********************************.#O OO.OOO.X &X&@.####.OOO **********************************",
"***********************************.#O OO.OOO.o o&@&.####O.OO **********************************",
"**********************************.#OOO OO.O.%%oo@&&.###OO.OO **********************************",
"**********************************.#OOO. .O..%%&&&&OO###OO.OOO *********************************",
"**********************************.#OOO.O. OO.%%&@ .####OOO.OO *********************************",
"*********************************.#OOOO.OO.       *.####OOO OO *********************************",
"*********************************.#OOO.OOO.**** % *.###OOOO OO *********************************",
"********************************* #OOO.OOO.**  @%% .###OOOO   **********************************",
"**********************************  OO.OOO.  %%%%%%.##OOO  *************************************",
"************************************  .    %%  %%% .#O   ***************************************",
"*************************************  %%%@   &&&%@   %%  **************************************",
"************************************ &&%@  * %&&&&@**  @%% *************************************",
"************************************ &&&&&%  &&&&&   &&%%% *************************************",
"*************************************  &&&@@& &&& &&&&&&% **************************************",
"***************************************  &&&@ && &@@&&&  ***************************************",
"*************************************@@&&    & & @&&&  *****************************************",
"********************************** @@&&&&&@&&& &&    &&@@***************************************",
"********************************* %&&&&&%@&&& O &&&@&&&&&@  ************************************",
"********************************* &&&&&@%&&&& O &&&&@%&&&&&& ***********************************",
"********************************** && @&&&&& OOO &&&&%@&&&&& ***********************************",
"***********************************  &&&&&& O   . &&&&&@ && ************************************",
"************************************* %&&& OO **.O &&&&&&  *************************************",
"************************************** && .OO **.O. &&&  ***************************************",
"***************************************  **.#O *.O *   *****************************************",
"*******************************************.## *.# *********************************************",
"********************************************.# .## *********************************************",
"********************************************.## #..*********************************************",
"********************************************.## # **********************************************",
"*********************************************.# O **********************************************",
"*********************************************.# O **********************************************",
"*********************************************.# O **********************************************",
"********************************************.O# O **********************************************",
"********************************************.### ***********************************************",
"********************************************.### ***********************************************",
"********************************************.### ***********************************************",
"********************************************.### ***********************************************",
"*********************************************.# ************************************************",
"*********************************************.# ************************************************",
"********************************************** *************************************************",
"************************************************************************************************",
"************************************************************************************************",
"************************************************************************************************",
"************************************************************************************************",
"************************************************************************************************",
"************************************************************************************************",
"************************************************************************************************",
"************************************************************************************************",
"************************************************************************************************",
"************************************************************************************************",
"************************************************************************************************",
"************************************************************************************************",
"************************************************************************************************",
"************************************************************************************************",
"************************************************************************************************",
"************************************************************************************************",
"************************************************************************************************",
"************************************************************************************************",
"************************************************************************************************",
"************************************************************************************************",
"************************************************************************************************"
};
