/* XPM */
static char *sprite_019_front[] = {
/* columns rows colors chars-per-pixel */
"96 96 16 1 ",
"  c #101010",
". c #634A08",
"X c #4A2942",
"o c #5A5A5A",
"O c #A5193A",
"+ c #A57308",
"@ c #E65A73",
"# c #CEAD63",
"$ c #E6CE73",
"% c #8C4A8C",
"& c #B573BD",
"* c #EFDEB5",
"= c #D69CD6",
"- c #CECECE",
"; c white",
": c None",
/* pixels */
"::::::::::::::::::::::::::::::::::::::::::::::::::::::::::::::::::::::::::::::::::::::::::::::::",
"::::::::::::::::::::::::::::::::::::::::::::::::::::::::::::::::::::::::::::::::::::::::::::::::",
"::::::::::::::::::::::::::::::::::::::::::::::::::::::::::::::::::::::::::::::::::::::::::::::::",
"::::::::::::::::::::::::::::::::::::::::::::::::::::::::::::::::::::::::::::::::::::::::::::::::",
"::::::::::::::::::::::::::::::::::::::::::::::::::::::::::::::::::::::::::::::::::::::::::::::::",
"::::::::::::::::::::::::::::::::::::::::::::::::::::::::::::::::::::::::::::::::::::::::::::::::",
"::::::::::::::::::::::::::::::::::::::::::::::::::::::::::::::::::::::::::::::::::::::::::::::::",
"::::::::::::::::::::::::::::::::::::::::::::::::::::::::::::::::::::::::::::::::::::::::::::::::",
"::::::::::::::::::::::::::::::::::::::::::::::::::::::::::::::::::::::::::::::::::::::::::::::::",
"::::::::::::::::::::::::::::::::::::::::::::::::::::::::::::::::::::::::::::::::::::::::::::::::",
"::::::::::::::::::::::::::::::::::::::::::::::::::::::::::::::::::::::::::::::::::::::::::::::::",
"::::::::::::::::::::::::::::::::::::::::::::::::::::::::::::::::::::::::::::::::::::::::::::::::",
"::::::::::::::::::::::::::::::::::::::::::::::::::::::::::::::::::::::::::::::::::::::::::::::::",
"::::::::::::::::::::::::::::::::::::::::::::::::::::::::::::::::::::::::::::::::::::::::::::::::",
"::::::::::::::::::::::::::::::::::::::::::::::::::::::::::::::::::::::::::::::::::::::::::::::::",
"::::::::::::::::::::::::::::::::::::::::::::::::::::::::::::::::::::::::::::::::::::::::::::::::",
"::::::::::::::::::::::::::::::::::::::::::::::::::::::::::::::::::::::::::::::::::::::::::::::::",
"::::::::::::::::::::::::::::::::::::::::::::::::::::::::::::::::::::::::::::::::::::::::::::::::",
"::::::::::::::::::::::::::::::::::::::::::::::::::::::::::::::::::::::::::::::::::::::::::::::::",
"::::::::::::::::::::::::::::::::::::::::::::::::::::::::::::::::::::::::::::::::::::::::::::::::",
"::::::::::::::::::::::::::::::::::::::::::::::::::::::::::::::::::::::::::::::::::::::::::::::::",
"::::::::::::::::::::::::::::::::::::::::::::::::::::::::::::::::::::::::::::::::::::::::::::::::",
"::::::::::::::::::::::::::::::::::::::::::::::::::::::::::::::::::::::::::::::::::::::::::::::::",
"::::::::::::::::::::::::::::::::::::::::::::::::::::::::::::::::::::::::::::::::::::::::::::::::",
"::::::::::::::::::::::::::::::::::::::::::::::::::::::::::::::::::::::::::::::::::::::::::::::::",
"::::::::::::::::::::::::::::::::::::::::::::::::::::::::::::::::::::::::::::::::::::::::::::::::",
"::::::::::::::::::::::::::::::::::::::::::::::::::::&&&&::::::::::::::::::::::::::::::::::::::::",
":::::::::::::::::::::::::::::::::::::::::::::::::::&====%%::::::::::::::::::::::::::::::::::::::",
"::::::::::::::::::::::::::::::::::::::::::::::::::&===%%&&%:::::::::::::::::::::::::::::::::::::",
"::::::::::::::::::::::::::::::::::::::::::::::::::&=====%&&X::::::::::::::::::::::::::::::::::::",
":::::::::::::::::::::::::::::::::::::::::::::::::::%===&&%&%X:::::::::::::::::::::::::::::::::::",
"::::::::::::::::::::::::::::::::::::::::::::::::::::X%&&&X&&X:::::::::::::::::::::::::::::::::::",
":::::::::::::::::::::::::::::::::::::::::::::::::::::XXXX%&&X:::::::::::::::::::::::::::::::::::",
"::::::::::::::::::::::::::::::::::::::::::::::::::::::::::%&& ::::::::::::::::::::::::::::::::::",
"::::::::::::::::::::::::::::::::::::::::::::::::::::::::::%&& ::::::::::::::::::::::::::::::::::",
":::::::::::::::::::::::::::::::::::::::::::::::::::::::::::%& ::::::::::::::::::::::::::::::::::",
":::::::::::::::::::::::::::::::::::::::::::::::::::::::::::%& ::::::::::::::::::::::::::::::::::",
":::::::::::::::::::::::::::::::::::::::::::::::::::::::::::%& ::::::::::::::::::::::::::::::::::",
":::::::::::::::::::::::::::::::::::::::::::::::::::::::::::%& ::::::::::::::::::::::::::::::::::",
"::::::::::::::::::::::::::::::::::::::::::::::::::::::::::X&& ::::::::::::::::::::::::::::::::::",
"::::::::::::::::::::::::::::::::::::::::::::::::::::::::::X& :::::::::::::::::::::::::::::::::::",
"::::::::::::::::::::::::::::::%%%:::::::::::&&&:::::::::::X& :::::::::::::::::::::::::::::::::::",
":::::::::::::::::::::::::::::%==&%:::::::::&===%::::::::::X& :::::::::::::::::::::::::::::::::::",
":::::::::::::::::::::::::::::XX=&&%:::::::&==X&&%::::::::X% ::::::::::::::::::::::::::::::::::::",
":::::::::::::::::::::::::::::%+X&&%XXXXXX&==%+X&%::::::::X% ::::::::::::::::::::::::::::::::::::",
":::::::::::::::::::::::::::::%$X&XX======&=X+++%&X::::::X% :::::::::::::::::::::::::::::::::::::",
"::::::::::::::::::::::::::::::%$X=======&=&%$$+%&X:%%%%:X% :::::::::::::::::::::::::::::::::::::",
"::::::::::::::::::::::::::::::%$X======&&&&%$$$%& %&&&&%% ::::::::::::::::::::::::::::::::::::::",
"::::::::::::::::::::::::::++:::X&&===&&&&&&&%$$%& &&&&&&&X::::::::::::::::::::::::::::::::::::::",
"::::::::::::::::::::::::::.*+::X&&&&&&&%X%&&&%%&& &&&&&&&&X:::::::::::::::::::::::::::::::::::::",
":::::::::::::::::::::::::::.*%%&&&&&&&XO-&&&&&&& &&&&&&&&&X:::::::::::::::::::::::::::::::::::::",
"::::::::::::::::::::::::::::%&&&&&&&&X;O;;&&X   &&&&&&&&&&%X::::::::::::::::::::::::::::::::::::",
"::::::::::::::::::::::::::::%==&&&&&%@O@;;&&&++++++&&&&&&&% ::::::::::::::::::::::::::::::::::::",
"::::::::::::::::::::::::::::%&&%&&#******#+++******.&&&&&%% ::::::::::::::::::::::::::::::::::::",
":::::::::::::::::::::::::::::%&#**************.....&&&&&&%% ::::::::::::::::::::::::::::::::::::",
":::::::::::::::::::::::::::::.****.  #***#++..&&&&&&&&&&%%% ::::::::::::::::::::::::::::::::::::",
"::::::::::::::::::::::::::::::....;o  #****#&&&&&&&&%&&%%%%% :::::::::::::::::::::::::::::::::::",
":::::::::::::::::::::::::::::::-;;;o  .****#&%&==&X&#X%%%%%% :::::::::::::::::::::::::::::::::::",
"::::::::::::::::::::::::::::::::-;;o  .#***# %==== ###XX%%%%% ::::::::::::::::::::::::::::::::::",
"::::::::::::::::::::::::::::::::X--  @@+*** X===== #..::X%%%# ::::::::::::::::::::::::::::::::::",
":::::::::::::::::::::::::::::::X%%%.#@@+** :X==== ..::::: #+# ::::::::::::::::::::::::::::::::::",
"::::::::::::::::::::::::::::::X%%%%.#++** ::X==== :::::: #.#+ ::::::::::::::::::::::::::::::::::",
":::::::::::::::::::::::::::::: +%%%X.#** ::X====& :::::: . + :::::::::::::::::::::::::::::::::::",
"::::::::::::::::::::::::::::: +##%X::   :::X===& :::::::: : ::::::::::::::::::::::::::::::::::::",
"::::::::::::::::::::::::::::: # #X:::::::::+#&&& :::::::::::::::::::::::::::::::::::::::::::::::",
":::::::::::::::::::::::::::::: : :::::::::+**#& ::::::::::::::::::::::::::::::::::::::::::::::::",
":::::::::::::::::::::::::::::::::::::::::+*+** :::::::::::::::::::::::::::::::::::::::::::::::::",
":::::::::::::::::::::::::::::::::::::::::  * * :::::::::::::::::::::::::::::::::::::::::::::::::",
"::::::::::::::::::::::::::::::::::::::::::: : ::::::::::::::::::::::::::::::::::::::::::::::::::",
"::::::::::::::::::::::::::::::::::::::::::::::::::::::::::::::::::::::::::::::::::::::::::::::::",
"::::::::::::::::::::::::::::::::::::::::::::::::::::::::::::::::::::::::::::::::::::::::::::::::",
"::::::::::::::::::::::::::::::::::::::::::::::::::::::::::::::::::::::::::::::::::::::::::::::::",
"::::::::::::::::::::::::::::::::::::::::::::::::::::::::::::::::::::::::::::::::::::::::::::::::",
"::::::::::::::::::::::::::::::::::::::::::::::::::::::::::::::::::::::::::::::::::::::::::::::::",
"::::::::::::::::::::::::::::::::::::::::::::::::::::::::::::::::::::::::::::::::::::::::::::::::",
"::::::::::::::::::::::::::::::::::::::::::::::::::::::::::::::::::::::::::::::::::::::::::::::::",
"::::::::::::::::::::::::::::::::::::::::::::::::::::::::::::::::::::::::::::::::::::::::::::::::",
"::::::::::::::::::::::::::::::::::::::::::::::::::::::::::::::::::::::::::::::::::::::::::::::::",
"::::::::::::::::::::::::::::::::::::::::::::::::::::::::::::::::::::::::::::::::::::::::::::::::",
"::::::::::::::::::::::::::::::::::::::::::::::::::::::::::::::::::::::::::::::::::::::::::::::::",
"::::::::::::::::::::::::::::::::::::::::::::::::::::::::::::::::::::::::::::::::::::::::::::::::",
"::::::::::::::::::::::::::::::::::::::::::::::::::::::::::::::::::::::::::::::::::::::::::::::::",
"::::::::::::::::::::::::::::::::::::::::::::::::::::::::::::::::::::::::::::::::::::::::::::::::",
"::::::::::::::::::::::::::::::::::::::::::::::::::::::::::::::::::::::::::::::::::::::::::::::::",
"::::::::::::::::::::::::::::::::::::::::::::::::::::::::::::::::::::::::::::::::::::::::::::::::",
"::::::::::::::::::::::::::::::::::::::::::::::::::::::::::::::::::::::::::::::::::::::::::::::::",
"::::::::::::::::::::::::::::::::::::::::::::::::::::::::::::::::::::::::::::::::::::::::::::::::",
"::::::::::::::::::::::::::::::::::::::::::::::::::::::::::::::::::::::::::::::::::::::::::::::::",
"::::::::::::::::::::::::::::::::::::::::::::::::::::::::::::::::::::::::::::::::::::::::::::::::",
"::::::::::::::::::::::::::::::::::::::::::::::::::::::::::::::::::::::::::::::::::::::::::::::::",
"::::::::::::::::::::::::::::::::::::::::::::::::::::::::::::::::::::::::::::::::::::::::::::::::",
"::::::::::::::::::::::::::::::::::::::::::::::::::::::::::::::::::::::::::::::::::::::::::::::::",
"::::::::::::::::::::::::::::::::::::::::::::::::::::::::::::::::::::::::::::::::::::::::::::::::",
"::::::::::::::::::::::::::::::::::::::::::::::::::::::::::::::::::::::::::::::::::::::::::::::::",
"::::::::::::::::::::::::::::::::::::::::::::::::::::::::::::::::::::::::::::::::::::::::::::::::",
"::::::::::::::::::::::::::::::::::::::::::::::::::::::::::::::::::::::::::::::::::::::::::::::::"
};
