/* XPM */
static char *sprite_280_back[] = {
/* columns rows colors chars-per-pixel */
"96 96 12 1 ",
"  c #101010",
". c #317B41",
"X c #83294A",
"o c #D54A73",
"O c #73BD73",
"+ c #FF7B94",
"@ c #7B8BB4",
"# c #8BE68B",
"$ c #9C94C5",
"% c #CDCDE6",
"& c #F6F6FF",
"* c None",
/* pixels */
"************************************************************************************************",
"************************************************************************************************",
"************************************************************************************************",
"************************************************************************************************",
"************************************************************************************************",
"************************************************************************************************",
"************************************************************************************************",
"************************************************************************************************",
"************************************************************************************************",
"************************************************************************************************",
"************************************************************************************************",
"************************************************************************************************",
"************************************************************************************************",
"************************************************************************************************",
"************************************************************************************************",
"************************************************************************************************",
"************************************************************************************************",
"************************************************************************************************",
"************************************************************************************************",
"************************************************************************************************",
"************************************************************************************************",
"************************************************************************************************",
"************************************************************************************************",
"************************************************************************************************",
"************************************************************************************************",
"************************************************************************************************",
"************************************************************************************************",
"************************************************************************************************",
"******************************************************XX****************************************",
"****************************************************XX++X***************************************",
"**************************************XXXX*********X++ooX***************************************",
"*************************************X++++XXX*OOOOX+oooo ***************************************",
"*************************************Xoooo+++XX#..OO..oo ***************************************",
"*************************************Xooooooo++.OO###O.o ***************************************",
"**************************************Xooooooo.OOOOO###.X***************************************",
"**************************************Xoooooo.OOOOOOO###.***************************************",
"**************************************Xoooooo.OOOOOOOO#OO **************************************",
"***************************************Xoooo.OOOOOOOOO.##.**************************************",
"**************************************.Xoooo.OOOOOOOO.OO## *************************************",
"**************************************.OXooo.OOOOOOO.OOO## *************************************",
"**************************************.OXXo.OOOOOOOO.OOOO#.*************************************",
"*************************************.O.OXo.OOOOOOO.OOOOO## ************************************",
"*************************************.O.OOX.OOOOOOO.OOOOOO# ************************************",
"************************************* O.OOX OOOOOOO.OOOOOO# ************************************",
"************************************* .O.OO OOOOOO.OOOOOOOO ************************************",
"************************************** O.OO OOOOOO.OOOOOOO *************************************",
"***************************************   ...OOOOO.OO.    **************************************",
"**************************************** %%%@..      $% ****************************************",
"***************************************** %%%%%%%%%%%% *****************************************",
"******************************************  %%%%%%%%  ******************************************",
"********************************************  %%%$  ********************************************",
"**********************************************  @ **********************************************",
"*********************************************@@ %@ *********************************************",
"******************************************@@@%%@%%% ********************************************",
"***************************************@@@&&%%@%%@%&  ******************************************",
"**************************************@&&&&%  @%%@ %&&  ****************************************",
"***************************************     *@%%%%@ %&&&  **************************************",
"*********************************************@%%%&%   %&&& *************************************",
"********************************************@%%%%&& **    **************************************",
"********************************************@%$%%%&% *******************************************",
"*******************************************@%%$%%%&& *******************************************",
"************************************@@@****@%%$%%%&&& ******************************************",
"************************************ &&@@@@%%$%%%%%&& ******************************************",
"***********************************@@&&&%%%  $%%%%%&&% *****************************************",
"*********************************** &&%%%  &&@@%%%%%%% *****************************************",
"***********************************   %%@ &&&&%%%%%%  ******************************************",
"**************************************   &&&&%%%@   ********************************************",
"****************************************    %%%  ***********************************************",
"*******************************************    *************************************************",
"************************************************************************************************",
"************************************************************************************************",
"************************************************************************************************",
"************************************************************************************************",
"************************************************************************************************",
"************************************************************************************************",
"************************************************************************************************",
"************************************************************************************************",
"************************************************************************************************",
"************************************************************************************************",
"************************************************************************************************",
"************************************************************************************************",
"************************************************************************************************",
"************************************************************************************************",
"************************************************************************************************",
"************************************************************************************************",
"************************************************************************************************",
"************************************************************************************************",
"************************************************************************************************",
"************************************************************************************************",
"************************************************************************************************",
"************************************************************************************************",
"************************************************************************************************",
"************************************************************************************************",
"************************************************************************************************",
"************************************************************************************************",
"************************************************************************************************"
};
