/* XPM */
static char *sprite_262_front[] = {
/* columns rows colors chars-per-pixel */
"96 96 14 1 ",
"  c #010101",
". c #313131",
"X c gray29",
"o c gray32",
"O c #AC1020",
"+ c #DE2941",
"@ c #BD4A7B",
"# c #BD8B41",
"$ c #F6EE5A",
"% c #94949C",
"& c #949CAC",
"* c #BDBDC5",
"= c white",
"- c #000000",
/* pixels */
"------------------------------------------------------------------------------------------------",
"------------------------------------------------------------------------------------------------",
"------------------------------------------------------------------------------------------------",
"------------------------------------------------------------------------------------------------",
"------------------------------------------------------------------------------------------------",
"------------------------------------------------------------------------------------------------",
"------------------------------------------------------------------------------------------------",
"------------------------------------------------------------------------------------------------",
"------------------------------------------------------------------------------------------------",
"------------------------------------------------------------------------------------------------",
"------------------------------------------------------------------------------------------------",
"------------------------------------------------------------------------------------------------",
"------------------------------------------------------------------------------------------------",
"------------------------------------------------------------------------------------------------",
"------------------------------------------------------------------------------------------------",
"------------------------------------------------------------------------------------------------",
"-------------------- ---------------------------------------------------------------------------",
"-------------------o% ---------o----------------------------------------------------------------",
"-------------------o%% -------o* ---------------------------------------------------------------",
"-------------------o%% -------o* ---------------------------------------------------------------",
"-------------------o%%% -----o*%* --------------------------------------------------------------",
"------------------o%%%% -----o*.% --------------------------------------------------------------",
"-----------------o%%%%%X---- *o.% --------------------------------------------------------------",
"-----------------o%%%%%X---- *..% --------------------------------------------------------------",
"----------------o%%%%%%  oo *o..% -------------------------------------.----..------------------",
"----------------o%%%%  *** **...%  -----------------------------------. --..X ------------------",
"----------------o%%% ***X. *....% . --------------------------------..X   XX.   ----------------",
"----------------o%% X**XX. *....% . ------------------------------..XX..XXXXXXX ----------------",
"-----------------o X**XX. **...% ... ----------------------------.XXX.XXXXXXXX -----------------",
"----------------- X***X.. *...%% .... -------------------------- XXX.XXXXXXXX ------------------",
"----------------- X**XX****.*%  ..... ------------------------- XXXXXXXXXX.. ---..--------------",
"----------------- ***X*ooo*** ........ --    ------------------ XXXXXXXXXXXXX.  X --------------",
"-----------------X****o+$#*X%%% .......  XX ------------------ XXXXXXXXXXXXXXXXX. --------------",
"----------------o%***o O$#*X.%%% .......XX    ---------------- XXXXXXXXXXXXXXX.. ---------------",
"---------------o*****oOO%*XX..%% .........XXXX --------------- XXXXXXXXXXX....  ----------------",
"---------------o**********X...%%% .......XXX  ---------------- .XXXXX......   ------------------",
"--------------o%**********%%..%%% ......    ----------------- ........     ---------------------",
"--------------O++O****%o..%%%.%%% ......X.   ---------------- ....... --------------------------",
"---------------OOO%%% @=@ .%%%%% .......XXXX.  ---------- --- ...... ---------------------------",
"---------------- %%% X   .%%%%% ........XXXXXXX  -------  --- ...... ---------------------------",
"-----------------   %%%%%%%%%%%% ... ....XXXXXXXX   --  X -- ...... ----------------------------",
"------------------o%%%%%    o%%% ..  ..X.XXXXXXXXXXX  XXX -- ...... ----------------------------",
"--------------------oo  ... %%% .. % . XX.XXXXXXXXXXXXXX..   ..  . -----------------------------",
"------------------------ .. %%%%  %% . XXXXXXXXXXXXXXXX..XXXX  X  ------------------------------",
"----------------------- ... %%%%%%%** % XXXXXXXXXXXXXXXXXXXXXXX . ------------------------------",
"----------------------  ... %%%%%%%***% XXXXX.XXXXXXXXXX.XXXXX . -------------------------------",
"------------------------ . o%%%%%%*****% XXXXX.XXXXX.XXXX..XXXX  -------------------------------",
"----------------------- .. o*%%%%******% XX.XX .XXXXX..XXXX.XX.  -------------------------------",
"------------------------ . %*%*%*%****** XX XXX ..XXXX...XX..... -------------------------------",
"------------------------- o%**%*%*******% XX XX .... ... ........ ------------------------------",
"------------------------- %****%********%%  % .X ....  .. .......   ----------------------------",
"-------------------------o***************%%%%% ..  .. % .   .....XXX ---------------------------",
"-------------------------o****************%%%%%  %% . %% %%%  ..X.  ----------------------------",
"-------------------------o****************%%%%%%%%%% %%%%%%%%% .XXX ----------------------------",
"-------------------------o*****%**********%%o%%%%%%%%%%%%%%%%% ..XXX ---------------------------",
"-------------------------o*****%%**%******%%o%%%%%%%o%%%%%%%%%  ..XX ---------------------------",
"-------------------------o****%%%%%%******%%o%%%%%%% %%%%%%%%% - . XX --------------------------",
"--------------------------o***o%%%%%o****%%%%o%%%%    %%%%%o%% -- -   --------------------------",
"--------------------------o***%o%%%%o%**%%%%% %%  ... .%%%%o.%% ----- --------------------------",
"---------------------------o*%%%oo%% %%o%%%o%   - .... ..%%.... --------------------------------",
"---------------------------o%%%%%.    %..%%.o --- ..... ........ -------------------------------",
"---------------------------- .%%.%. - %...%.. ---- ....-  ...... -------------------------------",
"----------------------------- .%... -- ....... --- ... ---  .... -------------------------------",
"----------------------------- ..... -- ....... --- ... ---- .... -------------------------------",
"----------------------------- .... ---- ....... - .... ----- .... ------------------------------",
"-----------------------------..... ----- ......  ..... ----- .... ------------------------------",
"---------------------------- ..... ----- ...... &..... ----- .... ------------------------------",
"---------------------------- ..... ----- ..... &&.&... ---- ..... ------------------------------",
"--------------------------..XX... ------ ..... & &&.  ---  XXXX.. ------------------------------",
"------------------------..XXXXX.. ----- ...... & &  ---- =&XXXXX. ------------------------------",
"-----------------------&=X XX.XX. ----- ......  - ------ =X=&X=& -------------------------------",
"----------------------&=& &X.XXX ------ ...... --------- & =&X=& -------------------------------",
"---------------------- & ==& XX -----  XXX... -----------  &  & --------------------------------",
"-----------------------  =&  =& ---& XXXXXXX. ------------- -- ---------------------------------",
"------------------------ & - & ---&==& XX XXX --------------------------------------------------",
"------------------------- --- ---- =& &X &XXX --------------------------------------------------",
"-----------------------------------  ==& =&X ---------------------------------------------------",
"------------------------------------ =&  =&  ---------------------------------------------------",
"------------------------------------ & - & -----------------------------------------------------",
"------------------------------------- --- ------------------------------------------------------",
"------------------------------------------------------------------------------------------------",
"------------------------------------------------------------------------------------------------",
"------------------------------------------------------------------------------------------------",
"------------------------------------------------------------------------------------------------",
"------------------------------------------------------------------------------------------------",
"------------------------------------------------------------------------------------------------",
"------------------------------------------------------------------------------------------------",
"------------------------------------------------------------------------------------------------",
"------------------------------------------------------------------------------------------------",
"------------------------------------------------------------------------------------------------",
"------------------------------------------------------------------------------------------------",
"------------------------------------------------------------------------------------------------",
"------------------------------------------------------------------------------------------------",
"------------------------------------------------------------------------------------------------",
"------------------------------------------------------------------------------------------------",
"------------------------------------------------------------------------------------------------"
};
