/* XPM */
static char *sprite_188_front[] = {
/* columns rows colors chars-per-pixel */
"96 96 13 1 ",
"  c #010101",
". c #186A00",
"X c #8B5200",
"o c #FF6200",
"O c #41B420",
"+ c #62D531",
"@ c #F6A418",
"# c #FFD500",
"$ c #FFEE00",
"% c #8BF64A",
"& c #B4D5DE",
"* c white",
"= c None",
/* pixels */
"================================================================================================",
"================================================================================================",
"================================================================================================",
"================================================================================================",
"================================================================================================",
"================================================================================================",
"================================================================================================",
"================================================================================================",
"================================================================================================",
"================================================================================================",
"================================================================================================",
"================================================================================================",
"================================================================================================",
"================================================================================================",
"================================================================================================",
"================================================================================================",
"================================================================================================",
"================================================================================================",
"================================================================================================",
"================================================================================================",
"================================================================================================",
"================================================================================================",
"================================================================================================",
"================================================================================================",
"================================================================================================",
"================================================================================================",
"================================================================================================",
"================================================================================================",
"================================================================================================",
"================================================================================================",
"================================================================================================",
"================================================================================================",
"================================================================================================",
"================================================================================================",
"=============================================XXX================================================",
"========================================  =XX$$$X==XXX==========================================",
"======================================XX$$  #$$$# X$$$X=========================================",
"=====================================X$$$$## #@@ $$$$X  ========================================",
"====================================  XX#@@@X   X@@XX$$XX=======================================",
"=================================== $$$@XXX &&**& X@#$$$$ ======================================",
"=================================.. $$$#@     &&&&   X@$@ ======================================",
"==============================...+++ $$X #@@XX    @@@#XX =======================================",
"============================..%%+++++  #$$$#@ X@@X @#$$$$ ======================================",
"===========================.%%%++++++++  #$$ $$$$$$  $$$  ======================================",
"==========================.+%%++++++++++O    X$$$$X +   ++..====================================",
"========================== ++++++++O++%%%%%++      +++++++++..==================================",
"========================== O++++++.+%%%%%%%%%+++++++++++++++++..================================",
"=========================== O++++.++$o%%%%%%%%%++++++++++++++OOO.===============================",
"============================ .OOO.++oo%%%%%%%$o++++++++++++++OOOO.==============================",
"==============================...+++++++%%%%%oo++++O++++++++OOOOO ==============================",
"================================.++O++++++++++++++++.++++++OOOOOO ==============================",
"================================ +++..+++++++++O+++++ +++OOOOOOO ===============================",
"================================ O++++.+++.  .O+++++++ .OOOOOOO ================================",
"=================================.O++++.  +++++++++++OOO  OOO  =================================",
"=================================.OOO++++++++++++++OOOOOO.   ===================================",
"================================ +.OOOO+++++OO..++OOOOOOO.======================================",
"===============================.+++OOOOOOOOOO.O++O.OOOOO =======================================",
"===============================.++O. OOOOOOOO.+++.OOOOOO =======================================",
"================================   ==.OOOOOOO.O+O OOOOO ========================================",
"======================================  OOOOOO.  OOOO  .========================================",
"========================================    OOOOOO   OOO.=======================================",
"==========================================.O      =.OOOO =======================================",
"===========================================.OO.=====.OO. =======================================",
"============================================..=======.  ========================================",
"================================================================================================",
"================================================================================================",
"================================================================================================",
"================================================================================================",
"================================================================================================",
"================================================================================================",
"================================================================================================",
"================================================================================================",
"================================================================================================",
"================================================================================================",
"================================================================================================",
"================================================================================================",
"================================================================================================",
"================================================================================================",
"================================================================================================",
"================================================================================================",
"================================================================================================",
"================================================================================================",
"================================================================================================",
"================================================================================================",
"================================================================================================",
"================================================================================================",
"================================================================================================",
"================================================================================================",
"================================================================================================",
"================================================================================================",
"================================================================================================",
"================================================================================================",
"================================================================================================",
"================================================================================================",
"================================================================================================",
"================================================================================================"
};
