/* XPM */
static char *sprite_011_back[] = {
/* columns rows colors chars-per-pixel */
"96 96 8 1 ",
"  c black",
". c #394A41",
"X c #4A6A52",
"o c #6A8B5A",
"O c #6AA44A",
"+ c #83C54A",
"@ c white",
"# c None",
/* pixels */
"################################################################################################",
"################################################################################################",
"################################################################################################",
"################################################################################################",
"################################################################################################",
"################################################################################################",
"################################################################################################",
"################################################################################################",
"################################################################################################",
"################################################################################################",
"################################################################################################",
"################################################################################################",
"################################################################################################",
"################################################################################################",
"################################################################################################",
"################################################################################################",
"################################################################################################",
"################################################################################################",
"################################################################################################",
"################################################################################################",
"################################################################################################",
"################################################################################################",
"################################################################################################",
"################################################################################################",
"################################################################################################",
"################################################################################################",
"###################################################XX###########################################",
"##################################################X++X##########################################",
"#################################################X+++X##########################################",
"#################################################X++++X#########################################",
"################################################Xo++++.#########################################",
"################################################.oo+++.#########################################",
"################################################.ooO++.#########################################",
"###############################################.Xooo+++.########################################",
"###############################################.ooooO++ ########################################",
"##############################################.XooooO++ ########################################",
"##############################################.Xooooo+++ #######################################",
"#############################################.oXoooooo++ #######################################",
"############################################.oXooooooooX+.######################################",
"############################################.oXoooooooX+++X#####################################",
"###########################################.oXoooooooo.+O..#####################################",
"#########################################..+oXoooooooo.. @.#####################################",
"#######################################XX++oXoooooooooX@.@.#####################################",
"######################################X+++.X+oooooooooo.@X..####################################",
"#####################################.O++ ++oooooooooooo..+ ####################################",
"#####################################.o  ++oooooooooooooX++ ####################################",
"#####################################. +++OoooooooooooooX++X####################################",
"###################################### +OooooooooooooooX++++X###################################",
"###################################### XoooooooooooooooX++++X###################################",
"####################################### XXooooooooooooXooO+++X##################################",
"#######################################..XXXooooooooo.oooooO+ ##################################",
"#######################################.o.Xoooooooooo.ooooooo ##################################",
"#######################################.oooooooooooooXoooooo ###################################",
"########################################.oooooooooooooXooo  ####################################",
"########################################.ooooooooooooo.oo ######################################",
"########################################.O+++Ooooooooo.o #######################################",
"#######################################X+++++++Oooooooo. #######################################",
"######################################XO++++++++Ooooooo ########################################",
"######################################X+XXXX+++++oooooo ########################################",
"######################################.X++++oX+++ooooo #########################################",
"#####################################.++++++++o+oooooo #########################################",
"####################################.+ooo+++++Xoooooo ##########################################",
"##################################..Xo+++oX+OOo.oooo ###########################################",
"###############################XXX++++o++++.oX..oooo ###########################################",
"##############################.++++++++.+oo..Xo.ooo ############################################",
"############################## o+++++Oo.oX..ooo.oo #############################################",
"###############################  oooooo.Xoo.oo.o  ##############################################",
"#################################   oo.ooo.o    ################################################",
"####################################        ####################################################",
"################################################################################################",
"################################################################################################",
"################################################################################################",
"################################################################################################",
"################################################################################################",
"################################################################################################",
"################################################################################################",
"################################################################################################",
"################################################################################################",
"################################################################################################",
"################################################################################################",
"################################################################################################",
"################################################################################################",
"################################################################################################",
"################################################################################################",
"################################################################################################",
"################################################################################################",
"################################################################################################",
"################################################################################################",
"################################################################################################",
"################################################################################################",
"################################################################################################",
"################################################################################################",
"################################################################################################",
"################################################################################################",
"################################################################################################",
"################################################################################################"
};
