/* XPM */
static char *sprite_458_back[] = {
/* columns rows colors chars-per-pixel */
"96 96 12 1 ",
"  c black",
". c #102952",
"X c #10397B",
"o c #4A6273",
"O c #AC2920",
"+ c #FF4A29",
"@ c #1052AC",
"# c #3973C5",
"$ c #629CD5",
"% c #9CB4DE",
"& c #D5DEE6",
"* c None",
/* pixels */
"************************************************************************************************",
"************************************************************************************************",
"************************************************************************************************",
"************************************************************************************************",
"************************************************************************************************",
"************************************************************************************************",
"************************************************************************************************",
"************************************************************************************************",
"************************************************************************************************",
"************************************************************************************************",
"************************************************************************************************",
"************************************************************************************************",
"************************************************************************************************",
"************************************************************************************************",
"************************************************************************************************",
"************************************************************************************************",
"************************************************************************************************",
"************************************************************************************************",
"************************************************************************************************",
"************************************************************************************************",
"************************************************************************************************",
"************************************************************************************************",
"************************************************************************************************",
"************************************************************************************************",
"************************************************************************************************",
"**********************************XXX@@@********************XXXX********************************",
"*********************************X@@@###@******************X@@@@X*******************************",
"********************************X@@@@@@##X****************.@@@@@@X******************************",
"********************************X@@@@@@@@@X***************.@@@@@@X******************************",
"******************************** @@@@@@@@@@X************** @XXX@@@X*****************************",
"********************************* @@@XXXX@@@X************* XXXXX@@X*****************************",
"**********************************  XXXXXXX@X************* XXXXX@@.*****************************",
"************************************ XXXXXXX@.************ XXXXXX@.*****************************",
"*************************************. XXXXX@.************* XXXXX@.*****************************",
"*************************************** XXXXXX.************ XXXXX@.*****************************",
"**************************************** XXXXX.************ XXXXX.******************************",
"***************************************** XXXX.*************.XXXX.******************************",
"****************************************** XXXX.************.XXXX.******************************",
"******************************************.XXXX.************.XXXX.******************************",
"*******************************************.XXX.************.XXX.*******************************",
"*******************************************.       *********.XXX.*******************************",
"*****************************************   @@@@@@@   *****.XXXX.*******************************",
"***************************************  X@@@@@@@###@@  ***.XXX.********************************",
"************************************** XX@@@@@@@#$$$#@@X *.XXXX.********************************",
"************************************  X%&@@@@@@@#$$$#@@@X .XXX.*********************************",
"********************************.   XX%++&@@@@@@@###@@@@XX XXX.*********************************",
"***************************....XXXXXX%O++&@@@@@@@@@@@@@@XXX X **********************************",
"************************..X@@@X@XXXXX%OO&@@@@@@@@@@@@$&%XXX X **********************************",
"**********************XX@@@@@X@X@XXXXX%&@@@@@@@@@@@@$&OO%XXX ***********************************",
"*********************.X@@@@@@@X@XXXXXX@@@@@@@@@@@@@@&O++O%XXX.**********************************",
"********************.XXX@@@@@@@XXXXXXX@@@@@@@@@@@@@@&O++O%XXXX.*********************************",
"******************* XXXXX@@@@@XXXXXXXX%&@@@@@@@@@@@@@&OOO%XXXXX.********************************",
"******************* XXXXXXXXXXXXXXXXX%&&@@@@@@@@@@@@@@&%%XXXXXXX..******************************",
"******************* XXXXXXXXXXXXXXXXX%&&@@@@@@@@@@@$@@XXXXXXXXXXXX.*****************************",
"******************* XXXXXXXXXXXXXXXXX$%&%@@@@@@@@@&&%XXXXXXXXXXX@X@..***************************",
"******************** XXXXXXXXXXXXXXXXX$%%XX@@@@@X&&%$XXXXXXXXXX@X@@@X.**************************",
"*********************  XXXXXXXXXXXXXXX$%%%$XXXX$%%%$XXXXXXXXXX@X@@@@@@.*************************",
"*********************** XXXXXXXXXXXXXXX$%%%%%%%%%%$XXXXXXXXXXXX@X@@@@@@.************************",
"************************ $$@XXXXXXXXXXXX$%%%%%%%%$XXXXXXXXXXXX@X@@@@@@@@.***********************",
"************************* o$$$@XXXXXXXXXXX$%%%%$XXXXXXXXXXXXXXX@X@@@@@@@X.**********************",
"*************************** o%%$@XXXXXXXXXXXXXXXXXXXXXXXXXXXXXXX@@@@@@@@X.**********************",
"****************************  %%$@XXXXXXXXXXXXXXXXXXXXXXXXXXXXXXXX@@@@@XXX.*********************",
"****************************** %%$XXXXXXXXXXXXXXXXXXXXXXXXXXXXXXXXXXXXXXXX.*********************",
"******************************* %%$XXXXXXXXXXXXXXXXXXXXXXXXXXXXXXXXXXXXXXXX.********************",
"******************************** %%XXXXXXXXXXXXXXXXXXXXXXXXXXXXXXXXXXXXXXXX.********************",
"*********************************o%%XXXXXXXXXXXXXXXXXXXXXXXXXXXXXXXXXXXXXXX.********************",
"********************************* %%%$XXXXXXXXXXXXXXX@@$$$$$$$$@XXXXXXXXXXX.********************",
"********************************** %%%%$XXXXXXXX@@$$%%%%%%%%%%%$$@XXXXXXXXX.********************",
"*********************************** $%%%%$$$$$$%%%%%%%%%%%%$$o    oXXXXXX..*********************",
"************************************  %%%%%%%%%%%%%$        o******o    .***********************",
"**************************************  $%%%%%%$   o********************************************",
"****************************************       o************************************************",
"************************************************************************************************",
"************************************************************************************************",
"************************************************************************************************",
"************************************************************************************************",
"************************************************************************************************",
"************************************************************************************************",
"************************************************************************************************",
"************************************************************************************************",
"************************************************************************************************",
"************************************************************************************************",
"************************************************************************************************",
"************************************************************************************************",
"************************************************************************************************",
"************************************************************************************************",
"************************************************************************************************",
"************************************************************************************************",
"************************************************************************************************",
"************************************************************************************************",
"************************************************************************************************",
"************************************************************************************************",
"************************************************************************************************",
"************************************************************************************************",
"************************************************************************************************",
"************************************************************************************************"
};
