/* XPM */
static char *sprite_603_front[] = {
/* columns rows colors chars-per-pixel */
"96 96 14 1 ",
"  c #181820",
". c #732000",
"X c #10394A",
"o c #205A62",
"O c #B44A29",
"+ c #837341",
"@ c #DE7352",
"# c #DEB400",
"$ c #FFD500",
"% c #C5AC7B",
"& c gray74",
"* c #EEDEA4",
"= c white",
"- c None",
/* pixels */
"------------------------------------------------------------------------------------------------",
"------------------------------------------------------------------------------------------------",
"------------------------------------------------------------------------------------------------",
"------------------------------------------------------------------------------------------------",
"------------------------------------------------------------------------------------------------",
"------------------------------------------------------------------------------------------------",
"------------------------------------------------------------------------------------------------",
"------------------------------------------------------------------------------------------------",
"------------------------------------------------------------------------------------------------",
"------------------------------------------------------------------------------------------------",
"------------------------------------------------------------------------------------------------",
"------------------------------------------------------------------------------------------------",
"------------------------------------------------------------------------------------------------",
"------------------------------------------------------------------------------------------------",
"------------------------------------------------------------------------------------------------",
"------------------------------------------------------------------------------------------------",
"------------------------------------%%%++-------------------------------------------------------",
"-----------------------------------%****%+------------------------------------------------------",
"----------------------------------%*****%*+-----------------------------------------------------",
"---------------------------------%******%*+-----------------------------------------------------",
"---------------------------------%*%****%**+----------------------------------------------------",
"--------------------------------%**%****%**+----------------------------------------------------",
"--------------------------------%**%****%**+----------------------------------------------------",
"--------------------------------%***%******+----------------------------------------------------",
"--------------------------------+***%***%** ----------------------------------------------------",
"--------------------------------+***%***%** ----------------------------------------------------",
"--------------------------------+****%***** ----------------------------------------------------",
"---------------------------------+***+%%+** ----------------------------------------------------",
"---------------------------------+***+%%+% -----------------------------------------------------",
"----------------------------------+*%+%%+% -----------------------------------------------------",
"---------------------------------- *%%+%+% XXXXXXX----------------------------------------------",
"----------------------------------- %%+%+ ooooooooXXX-------------------------------------------",
"---------------------------------XXX+%+%+ooooooooooooXXX----------------------------------------",
"-------------------------------XXoooXoooooooooooooooooooXX--------------------------------------",
"-----------------------------XXoooooooooooooooooooooooooooX-------------------------------------",
"----------------------------XooooooooooooooooooooooooooooooX------------------------------------",
"---------------------------  XXooooooooooooooooooooooooooooo -----------------------------------",
"--------------------------.O@@@XXoooooo#$#oooooooooooo$#ooooX ----------------------------------",
"-------------------------.O@@@@@@Xoooo#$$$#oooooooooo$$$ooooX ----------------------------------",
"-------------------------.@@@@@@@@Xooo#$==$o#$#oooooo$$$oooXXX ---------------------------------",
"------------------------.@@@O@@@@@@Xoo$====$$$#oooooo#$ooooXXX ---------------------------------",
"------------------------.O@@@@@@@@@OX#$====$$#ooooooooooooXXXXX --------------------------------",
"-----------------------.O@  .O@@@@@@#$$= ==$oooooooooooooXX##XX --------------------------------",
"-----------------------.O ==  O@@@@@#$$====$ooooooooooooXo###XX --------------------------------",
"-----------------------.O &=   O@@@@O$#$==$#oooooooooooXoX##XXX --------------------------------",
"-----------------------.O  =   =O@@@O##$$$$oooooo%**%oXoXoXXXXX --------------------------------",
"------------------------.     &=&@@@OXo#$$#oooo%*****+XXXXXXXXX --------------------------------",
"------------------------. &   ===O@@OXoo##oooo%*****%%+XXXXXXXX --------------------------------",
"-------------------------.==    &.@@OXooooooo%    %%%%%XXXXXXXX --------------------------------",
"-------------------------. =      @OOXooooooo ----+%%%%XXXXXXXX --------------------------------",
"--------------------------.    =& OOOXooooo ++-----+%%%XXX##XX ---------------------------------",
"---------------------------.O  == OOOoooo  %+%+----+%%%XXX##XX ---------------------------------",
"----------------------------.O   OOOXoo  %+%+%+----+%%%XXXXXXX ---------------------------------",
"-----------------------------.OOOOOO   -+%+%+**+--+%%%+XXXXXX ----------------------------------",
"-------------------------------     ----+%+*%** --+%%%XXXXXXX ----------------------------------",
"---------------------------------------+%*+**%* -+%%%XXXXXXX -----------------------------------",
"---------------------------------------+**%**%* +%%%XXXXXXX ------------------------------------",
"---------------------------------------+**%**%* %%%XXXXXXX -------------------------------------",
"---------------------------------------+%*%**%% %%XXXXXXX --------------------------------------",
"----------------------------------------+%***% %%XXXXXoo ---------------------------------------",
"-----------------------------------------+    **ooooooo ----------------------------------------",
"------------------------------------------+****ooooooX -----------------------------------------",
"-----------------------------------------+****ooooooX ------------------------------------------",
"----------------------------------------+****oooooo -------OOOO....-----------------------------",
"---------------------------------------+****%ooooo ------..@@@@@OOO..---------------------------",
"--------------------------------------%*****ooooo ------.@O@@@@O@@@@@.--------------------------",
"--------------------------------------%****oooooX------.@@O@@@O@@@@@@@.-------------------------",
"-------------------------------------%****%ooooX------.@@O@@@.@@@@@@@@.-------------------------",
"-------------------------------------%****oooo -------.@@.@@.@@@@@@@@@@.------------------------",
"------------------------------------%****%oooX ------.OO@.@@.@@@@@@@OOO.------------------------",
"------------------------------------+****oooo -------.OOOoooo@@@@..O@@@ ------------------------",
"------------------------------------+****oooX -------.OOOXXoo....@@@@@@ ------------------------",
"------------------------------------ %***oXXX -------.OXXXXXXOO@@@@@@@ -------------------------",
"------------------------------------- %%%XXXXX ----   XXXXXXXOOOO@@.  --------------------------",
"------------------------------------- %%%XXXXXX    XXXXXXXOOOOOO   -----------------------------",
"-------------------------------------- %%+XXXXXXXXXXXXX         --------------------------------",
"--------------------------------------- %%+XXXXXXXXX   -----------------------------------------",
"----------------------------------------  %%++XX    --------------------------------------------",
"------------------------------------------      ------------------------------------------------",
"------------------------------------------------------------------------------------------------",
"------------------------------------------------------------------------------------------------",
"------------------------------------------------------------------------------------------------",
"------------------------------------------------------------------------------------------------",
"------------------------------------------------------------------------------------------------",
"------------------------------------------------------------------------------------------------",
"------------------------------------------------------------------------------------------------",
"------------------------------------------------------------------------------------------------",
"------------------------------------------------------------------------------------------------",
"------------------------------------------------------------------------------------------------",
"------------------------------------------------------------------------------------------------",
"------------------------------------------------------------------------------------------------",
"------------------------------------------------------------------------------------------------",
"------------------------------------------------------------------------------------------------",
"------------------------------------------------------------------------------------------------",
"------------------------------------------------------------------------------------------------",
"------------------------------------------------------------------------------------------------"
};
