/* XPM */
static char *sprite_028_back[] = {
/* columns rows colors chars-per-pixel */
"96 96 14 1 ",
"  c #101010",
". c #4A3910",
"X c #5A4A00",
"o c gray32",
"O c #947B00",
"+ c #8B6218",
"@ c #AC8331",
"# c #D5AC20",
"$ c #F6D520",
"% c #CDA44A",
"& c #C5B47B",
"* c #DED5B4",
"= c white",
"- c None",
/* pixels */
"------------------------------------------------------------------------------------------------",
"------------------------------------------------------------------------------------------------",
"------------------------------------------------------------------------------------------------",
"------------------------------------------------------------------------------------------------",
"------------------------------------------------------------------------------------------------",
"------------------------------------------------------------------------------------------------",
"------------------------------------------------------------------------------------------------",
"------------------------------------------------------------------------------------------------",
"------------------------------------------------------------------------------------------------",
"------------------------------------------------------------------------------------------------",
"------------------------------------------------------------------------------------------------",
"------------------------------------------------------------------------------------------------",
"------------------------------------------------------------------------------------------------",
"------------------------------------------------------------------------------------------------",
"------------------------------------------------------------------------------------------------",
"------------------------------------------------------------------------------------------------",
"------------------------------------------------------------------------------------------------",
"------------------------------------------------------------------------------------------------",
"------------------------------------------------------------------------------------------------",
"------------------------------------------------------------------------------------------------",
"------------------------------------------------------------------------------------------------",
"------------------------------------------------------------------------------------------------",
"------------------------------------------------------------------------------------------------",
"------------------------------------------------------------------------------------------------",
"------------------------------------------------+++---------------------------------------------",
"------------------------------------------------.%%++-++----------------------------------------",
"-------------------------------------------+++-- @%%%.+%++--------------------------------------",
"-------------------------------------------.%%.. +@@@+.%%%+-------------------------------------",
"-----------------------------------------.....%%@ ...+ +%%@.------------------------------------",
"---------------------------------------..%%%%@..++ @%...+@@@.-O---------------------------------",
"--------------------------------------.%%%%%%%%@.. +@%%%..+@.O$O--------------------------------",
"---------------------------------------.%%%%%@@@@@.++@@.....@.$O--------------------------------",
"-------------------------------------.. ...@@@@@... +..$$$$...$$O-------------------------------",
"-----------------------------------..%%%%%%..+..%%@ .#$$$$$$#.#$O-------------------------------",
"----------------------------------.%%%%%%%@@+.%%%%%@ .###$$$$#.$O-------------------------------",
"-----------------------------------.%%@@@@++.%%%%@@@@ .#####$$#.X-------------------------------",
"---------------------------------++%  @@+++ %%%@@@@+++...######.$X------------------------------",
"-------------------------------++%%%%@  +++ %@@@++++ .++...#####$$X-----------------------------",
"------------------------------.%%%@@++++.. @@@++++  +++.+++...###o -----------------------------",
"------------------------------- @+++++..@@ @+++   ++++.@@@+++.###o* ----------------------------",
"-------------------------------- ++++.@@@@     .+@@++.@@@@+++X###o  ----------------------------",
"-------------------------------..  +.@@@@@++++.@@@@++.@@@+++.###&*o o---------------------------",
"-----------------------------..@@@@.@@@@@++++.@@@@++.@@@++++ ###**=$O---------------------------",
"----------------------------.@@@@+.@@@@+++++.@@@@+++.@++++  ####***=$O--------------------------",
"---------------------------.@@@++++  ++++++.@@@@++++.     ++.##&****==o-------------------------",
"----------------------------. ++++++.     +.@@+++++ +++.@@++.##******= -------------------------",
"------------------------------ .....+++.@@.@+++++  +++.@@@+++.&****** --------------------------",
"----------------------------- ++.+@@++.@@@       .@+++.@@@+++.&**&   ---------------------------",
"----------------------------.++.@@@+++.@@@++++.@@@+++.+@@@+++.XXXX------------------------------",
"----------------------------.+.@@@@++.@@@++++.+@@@+++ +@@++++.----------------------------------",
"---------------------------.++.@@@+++.@+++++ .@@@++++ +@@+++.X--XXXX----------------------------",
"---------------------------.  @@@+++.++++   +.@@@+++. +@++++ #XX$$$$XX--------------------------",
"-----------------------------.@+++++     ++++.@@+++.+ +++++ ##$$$$$##Ooo------------------------",
"----------------------------.+++++   ++ +++++.@++  +++ +++ ####$$####X==o-----------------------",
"----------------------------.++   ++++.++++++.+  .++++ +  ###########Xoo=o----------------------",
"----------------------------.  .+++++.+++++++  ++.++++  &.##########Oo==oo----------------------",
"------------------------------.++++++.++++++ +++.++++++ .&.#########X**==oo---------------------",
"-----------------------------.++++++.++++++ ++++.++++++ $.&.. #####O   ***o---------------------",
"-----------------------------.++++++ ++++++.++++.+++++ $$.&.--      ---  *o---------------------",
"----------------------------.++++++ .+++++.+++++.+++++ $$$.--------------  ---------------------",
"----------------------------.++    .+++   .++++++.+++ #$$$.-------------------------------------",
"----------------------------.  .$$$.   ###.+++++ .+++ ##$$.-------------------------------------",
"------------------------------.$$$######## ++++ #.++ ###$#.-------------------------------------",
"----------------------------..$$$######### ++  ## + #####.--------------------------------------",
"--------------------------..$$$$#########    ####  ###### --------------------------------------",
"------------------------..$$$$#########  OO. O########## o--------------------------------------",
"-----------------------.$$$$########   O...-- .#######. && -------------------------------------",
"------------------------  ######    ....----- O..####X#$ ooo------------------------------------",
"--------------------------      ------------ #########$$#O==o-----------------------------------",
"-------------------------------------------- ############.**=o----------------------------------",
"---------------------------------------------  ########       ----------------------------------",
"-----------------------------------------------        -----------------------------------------",
"------------------------------------------------------------------------------------------------",
"------------------------------------------------------------------------------------------------",
"------------------------------------------------------------------------------------------------",
"------------------------------------------------------------------------------------------------",
"------------------------------------------------------------------------------------------------",
"------------------------------------------------------------------------------------------------",
"------------------------------------------------------------------------------------------------",
"------------------------------------------------------------------------------------------------",
"------------------------------------------------------------------------------------------------",
"------------------------------------------------------------------------------------------------",
"------------------------------------------------------------------------------------------------",
"------------------------------------------------------------------------------------------------",
"------------------------------------------------------------------------------------------------",
"------------------------------------------------------------------------------------------------",
"------------------------------------------------------------------------------------------------",
"------------------------------------------------------------------------------------------------",
"------------------------------------------------------------------------------------------------",
"------------------------------------------------------------------------------------------------",
"------------------------------------------------------------------------------------------------",
"------------------------------------------------------------------------------------------------",
"------------------------------------------------------------------------------------------------",
"------------------------------------------------------------------------------------------------",
"------------------------------------------------------------------------------------------------",
"------------------------------------------------------------------------------------------------"
};
