/* XPM */
static char *sprite_619_front[] = {
/* columns rows colors chars-per-pixel */
"96 96 13 1 ",
"  c #010101",
". c #7B2039",
"X c #732939",
"o c #624A29",
"O c #7B7B7B",
"+ c #A44152",
"@ c #947B52",
"# c #DE627B",
"$ c #AC9C4A",
"% c #CDBD7B",
"& c #F6F68B",
"* c white",
"= c None",
/* pixels */
"================================================================================================",
"================================================================================================",
"================================================================================================",
"================================================================================================",
"================================================================================================",
"================================================================================================",
"================================================================================================",
"================================================================================================",
"================================================================================================",
"================================================================================================",
"================================================================================================",
"================================================================================================",
"================================================================================================",
"================================================================================================",
"================================================================================================",
"================================================================================================",
"================================================================================================",
"================================================================================================",
"================================================================================================",
"================================================================================================",
"================================================================================================",
"================================================================================================",
"================================================================================================",
"================================================================================================",
"================================================================================================",
"================================================================================================",
"================================================================================================",
"================================================================================================",
"==================================================@@============================================",
"=================================================@&%@===========================================",
"================================================@&&&@===========================================",
"================================================@%%@@oo=========================================",
"===============================================@@&&&&&%@@=======================================",
"==============================================o$&&&&&&&&o@@======@@@o===========================",
"=============================================oO$&&O$&&&$&&&$@++@%&&&%o==========================",
"============================================$%$&&$OO&&%&&&&& +#+&&&@@o==========================",
"============================================o&&&&OO$&&&&&&&& +##+%%%o===========================",
"===========================================@$&&&&O$&&&&&&&% ++##+%@o============================",
"===========================================@%o&&&&&&@@&&%@o+++###.==============================",
"============================================$*&&$&o@%&&&& +++++##.==============================",
"============================================$.&&@ **&&&&$ +++++++X==============================",
"===========================================@&&&&&&++&&&&o++++++++X==============================",
"===========================================.+&&&&&.$&&$oo++++++++X==============================",
"===========================================@%&&&&&&&&$&&&o+++++++X==============================",
"============================================@$&&&&%%$$o%&&o+++++.===============================",
"======================================++++++==@@$$@$$$$o  ++++++ ===============================",
"===================================@@@######++====o$$$$o++++++  ================================",
"=================================@@&&&o#######+..o$$$$ +++XX  ==================================",
"================================@&&&&&&o######+++ $$$+ +++ =====================================",
"===============================@&&&&&&&o#######+++ +++X++ ======================================",
"==============================@o%&@&&& ########+++ ##+ XX=======================================",
"==============================o$&o&&$ ########+++ ###% =========================================",
"============================== $o$$  ++#####++XX &&&&&o=========================================",
"===============================o   ++++++++++ ==@&&&&&o=========================================",
"===================================X++++++++ ===%&&&&&&@========================================",
"==============================++====  ++++  ==@@&&&&&&&o========================================",
"==============================.#+=====    ==@@&&&&&&&&&&@o======================================",
"============================++.##+.=======@@&&&&&&&&&&&&%$ =====================================",
"============================.##.+++.o====o&&&&&&&&&&&&&%$$ .====================================",
"============================= +++.$$$oo@o&&&&&&&&&&&&&%$$$ +.===================================",
"============================== .+$$$$$$$ &&&&&&&&&&&&$$$$o+++.==================================",
"================================  o$$$$ +#oo&&&&&&&&%$$$$ +++ ==================================",
"===================================ooo #####oo&&&&$$$$$$ ++. ===================================",
"===================================== +######+  $$$$$$o =X  ====================================",
"===================================== ++####+++X o    == .++XXX=================================",
"====================================.++++++++X ========= ++++++.================================",
"=================================== ++..X    ============ .+X+. ================================",
"================================== ++X=====================    =================================",
"=================================.+##. =========================================================",
"================================.###### ========================================================",
"================================ .#.#.+ ========================================================",
"=================================   .  =========================================================",
"================================================================================================",
"================================================================================================",
"================================================================================================",
"================================================================================================",
"================================================================================================",
"================================================================================================",
"================================================================================================",
"================================================================================================",
"================================================================================================",
"================================================================================================",
"================================================================================================",
"================================================================================================",
"================================================================================================",
"================================================================================================",
"================================================================================================",
"================================================================================================",
"================================================================================================",
"================================================================================================",
"================================================================================================",
"================================================================================================",
"================================================================================================",
"================================================================================================",
"================================================================================================",
"================================================================================================"
};
