/* XPM */
static char *sprite_095_back[] = {
/* columns rows colors chars-per-pixel */
"96 96 8 1 ",
"  c #101010",
". c #292020",
"X c #524A4A",
"o c #837B7B",
"O c #BDB4B4",
"+ c #DED5D5",
"@ c white",
"# c #000000",
/* pixels */
"################################################################################################",
"################################################################################################",
"################################################################################################",
"################################################################################################",
"################################################################################################",
"################################################################################################",
"################################################################################################",
"################################################################################################",
"################################################################################################",
"################################################################################################",
"################################################################################################",
"################################################################################################",
"################################################################################################",
"#################################oooXXXXooo#####################################################",
"################################oO++++++O++oo###################################################",
"###############################o++O++++++O+++o##################################################",
"##############################o+++o+OOOOOOo+++o#################################################",
"#############################o+++ooXOOOOOOOOoooX########################################oX######",
"############################X++oooooXOOOOOOoOOOoX######################################X+OX#####",
"############################X+ooooooXOOOOOOoOOOOOXoXXXooo##############################o+o.#####",
"###########################XOooooooooXOOOOOoOOOOOXO++oO++ooo##########################X+Oo.#####",
"###########################XooooooooooXXOOOoOOOOOo+++++O++++o#########################o+oo.#####",
"###########################XXXXXXXooooooXOOXOOOOOooOO+++O++++o#######################o+ooo.#####",
"##########################XOOOOoOOXXoooooXOXOOOOOOoOOOO++O+++X######################X++ooo.#####",
"#########################X+++OoOOOOOXoooooX XOOOOOXoOOOOOo++++X#####################o+oooX######",
"########################XoooXXXOOOOOOXoooo XXXXOOOXoOOOOOOo+++.####################X+Oooo.######",
"#######################o+++OOoXOOOOOOXoooo XXXXXOO oXOOOOOo++++.XXoooo############X++Xooo.######",
"#######################o++OOoooXOOOOOOXoo XXXXXXXO ooXooXXXo+++.OOXO++ooo#########X+OXooo.######",
"######################oOOOooooooXOOOooXoX XXXXXXX oooXXXoooXXX+oXOOoO++++oo######X++XoooX#######",
"######################XOOooooooo.OOooo XXX.XXXXXX ooXoooooXoooXX OOOoOO++++X#####X+OXooo.#######",
"######################XoOoooooooo.oooo XXX.XXXXX XoXooooooXooooo oOOoOOOO++X####X++Xoooo.#######",
"######################Xoooooooooo.oooo XXXX.XXX XXXXoooooXoooooo XoOoOOOOO++X## +XX.oooo.#######",
"#####################X   XoooooooX.ooo XXXX.XX XXX.ooooo.ooooooo XoooXOOOOOOX# +XOOXoooo.#######",
"#################### OOOXoX..ooooX.oo XXXXXX  .XX..Xoo..XooooooX XoooXoOOOOO XXXOOooXooX########",
"###################XO+++Xoooo.ooXXX.o ...   ##.X.XXX..XXXXooooo XXXoXoXXoOOO oOO..ooXoo.########",
"##################XO++++oXoooo XXXXXX.#########.XXXXXXXXXXXoooX XXXo.oooXXXoo ooXo...oo.########",
"#################X++++oooXooooo XXXX.###########.XXXXXXXXXXXXo XXXXXoooooooXX XXOOoOOXX.########",
"################XOOOOoooooXooooo XX.#############.XXXXXXXXXXX XXXXX.ooooooooo XXOOOoOO+X########",
"###############XoOOOXooooooXoooXX .###############. XXXXXX   XXXXX.oooooooooo XooOOOoOO+X#######",
"###############XXooXooooooo.XXXXX ##################      XXXXXXXX.oooooooooo XooOoXXoO++X######",
"############### XX.oooooo..XXXXXX #####################.XXXXXXXXX.Xoooooooooo XoooXoooXO++o#####",
"############### XX.ooooo.XXXXXXXX.#####################.XXXXXXX..X.Xoooooooo XXooXoooooXO+o#####",
"############### XXX....XXXXXXXXXX.##################### XXXXX..XXXX.oooooooo XooXoooooooXO+o####",
"################ XXXXXX      XXX.###################### X....XXXXXX.Xooooooo XooXooooooooXO+o###",
"################ XXXX  OOOOOX   .####################### XXXXXXXXXXX.Xooooo XXooXooooooooXoO+o##",
"################# XX OOOO+++OXoo ########################   XXXXXXXX.XXooo ..XX.oooooooooXoOOX##",
"################## .oooo++++o+Xoo ##########################  XXXX..X.XX  XX. .XoooooooooXXXoX##",
"################## oooooooOo+++Xo.############################    XXXX. XXXX.XX.oooooooooXo@X###",
"################# Xooooooooo+OOOXo.#############################..     XXXXX.XoXooooooooXOX@ ###",
"################# XXoooooooXOOOOXo.#############################.XXXXXX..XXX.XooXoooooooXOX+XX##",
"################# XXXooooooXOOOOOX.############################# XXXXXXXX...X.oooXoooooXOOOXoX##",
"################# XXXXooooo.OOOOooX############################## XXXXXXXXXXX.ooo..XooXoOOOOoX##",
"################# XXXXXooo.....XooX############################### XXXXXXXXXX.Xo.XX....ooOOOOoX#",
"################## XXXXXX.XXXXXXXoX################################ XXXXXXXXXX.X.XXXXX.oooOOOOX#",
"################### XXXX.XXXXXXXX.################################## XXXXXXXXXX.XXXX..XXooooOOX#",
"#################### X..XXXXXXX   XXX################################  XXXXXXX.....    XXXoooOO ",
"##################### XXXXX    oOOOOOXX################################   .....XXXX.     XXXooO ",
"######################  XX OOOOOOOOOOoOX###############################.XXXXXXX.XXX.       XXoO ",
"########################  XoOOOOOOOOOoOOX###############################.XXXXXX.ooX.#..     XX #",
"######################## XXXXOOOOOOOoXoOX################################..XXXXX.ooo ##..  .XX #",
"####################### XXXXXoOOOOOXXoooO #################################..XXXXXooo ###...  ##",
"##XX ################## XXXXXXXOOXXooXooO ###################################..XXXXoo ##########",
"#X+++ ################# XXXXXXX.XoooooXoo #####################################.XXX.oo #########",
"XOOOoo ################ XXXXXX.XooooooXXo ######################################  XX.oo ########",
" XX oo . X############# XXXXXX.XXXoooooXo ######################################## XX.o ########",
" XX oo oXOX############# XXXX.XXXXXXXXXX ##########################################    #########",
" X XXo oXOOX############ XXXX.XXXX       X######################################################",
"# XXX oo OOOX############ XX.XXX  OOOOOOOXX#####################################################",
"##   oo oXOOX############# X.XX OOOOOOOOO.oX####################################################",
"##.XXo oooXOOX#############  X XoOOOOOOOo.ooX###################################################",
"##.X.XoooooOOX###############  XXoOOOOOO.XXooX##################################################",
"### XXoooooXOOX############   XXXX.OOOo.XXXooX##################################################",
"#### XX.oooXOO XX#########XOOO  XXX.o..XXXXXoX##################################################",
"##### XX.oo.XO ooX##  XX#XOOOOoo XXX.XXXXXXXo ##################################################",
"###### XX..X..oooo  oOOOXOOOOoooo XX.XXXXXXX ###################################################",
"####### X.XXX oooX oooOOO OOOooooX X.XXXXXXX ###################################################",
"######## XXX XX.XXX ooXXXX .XoooXX XX.XXXXXX ###################################################",
"#########   XXXX.XX oXXXXX X...XXX XX.XXXXX ####################################################",
"############  XXX  XXXXXXX XXXX.. XXX.XXX  #####################################################",
"##############   .XXXXXXX XXXXXXX   XX   #######################################################",
"##################.XXXXX XXXXXXX ###   #########################################################",
"##################.XXXX ..XXXX  ################################################################",
"###################     ##..  ##################################################################",
"################################################################################################",
"################################################################################################",
"################################################################################################",
"################################################################################################",
"################################################################################################",
"################################################################################################",
"################################################################################################",
"################################################################################################",
"################################################################################################",
"################################################################################################",
"################################################################################################",
"################################################################################################",
"################################################################################################"
};
