/* XPM */
static char *sprite_143_back[] = {
/* columns rows colors chars-per-pixel */
"96 96 14 1 ",
"  c #010101",
". c #735A20",
"X c #103941",
"o c #315A7B",
"O c gray45",
"+ c #A47352",
"@ c #C59C5A",
"# c #528BAC",
"$ c #E6C5AC",
"% c #F6D5BD",
"& c #F6E6BD",
"* c #CDCDCD",
"= c white",
"- c #000000",
/* pixels */
"------------------------------------------------------------------------------------------------",
"------------------------------------------------------------------------------------------------",
"------------------------------------------------------------------------------------------------",
"------------------------------------------------------------------------------------------------",
"------------------------------------------------------------------------------------------------",
"------------------------------------------------------------------------------------------------",
"------------------------------------------------------------------------------------------------",
"------------------------------------------------------------------------------------------------",
"------------------------------------------------------------------------------------------------",
"------------------------------------------------------------------------------------------------",
"------------------------------------------------------------------------------------------------",
"------------------------------------------------------------------------------------------------",
"------------------------------------------------------------------------------------------------",
"------------------------------------------------------------------------------------------------",
"------------------------------------------------------------------------------------------------",
"------------------------------------------------------------------------------------------------",
"---------------------------------------XX-------------------------------------------------------",
"--------------------------------------X##X------------XX ---------------------------------------",
"-------------------------------------Xoo##X----------X##o --------------------------------------",
"------------------------------------Xooo###X--------X###o --------------------------------------",
"------------------------------------ oooo#oXX      X####oo -------------------------------------",
"----------------------------------- oooXXo#######oX#####oo -------------------------------------",
"----------------------------------- oXXo########oooo###ooo -------------------------------------",
"-----------------------------------XXo########oooooooooooo -------------------------------------",
"-----------------------------------Xo#####ooooooooooooooooX-------------------------------------",
"----------------------------------Xo####ooooooooooooooooooX-------------------------------------",
"--------------------------------- o##ooooooooooooooooooooooX------------------------------------",
"---------------------------------XoooooooooooooooooooooooooX------------------------------------",
"-------------------------------- ooooooooooooooooooooooooooX------------------------------------",
"-------------------OO--OO------- ooooooooooooooooooooooooooX------------------------------------",
"-----------------OO =  = -------XoooooooooooooooooooooooooX$.-----------------------------------",
"----------------- = Xoooo ----- ooooooooooooooooooooooooooX&.-----------------------------------",
"-----------------  Xoooo#X----- ooooooooooooooooooooooooooX&.-----------------------------------",
"----------------O=ooooo###X---- oooooooooooooooooooooooooX$&.--------OO-------------------------",
"----------------  ooooo###X---- oooooooooooooooooooooooooX&&.-----OO = -OO----------------------",
"-----------------Oooooo####X--- XooooooooooooooooooooooooX&&.----- = ##o= ----------------------",
"----------------O=oooooo####X-- oooooooooooooooooooooooooX%.------  ####oXO---------------------",
"----------------  Xoooooo####X oooooooooooooooooooooooooX$$ -----X######oo= --------------------",
"------------------ Xooooooo## ooooooooooooooooooooooooooX$$ ---XX######ooo  --------------------",
"------------------ Xoooooooo ooooooooooooooooooooooooooXX+ --XX######oooooO---------------------",
"------------------- Xoooooo oooooooooooooooooooooooooooooX  Xooo###ooooooo=O--------------------",
"------------------- XXXooo ooooooooooooooooooooooooooooo  oooooooooooooooo  --------------------",
"-------------------- XXXXXXoooooooooooooooooooooooooooooooooooooooooooooX ----------------------",
"-------------------- XXXX ooooXXXXXXXXXXXXXXooooooooooooooooooooooooooXXX ----------------------",
"--------------------- XX oooXXXXXXXXXXXXXXXXXXXooooooooooooooooooooooXXX -----------------------",
"----------------------  oXXXXXXXXXXXXXXXXXXXXXXXXXoooooooooooooooooXXXX ------------------------",
"----------------------- XXXXXXXXXXXXXXXXXXXXXXXXXXXXXooooooooooooXXXXX -------------------------",
"---------------------- XXXXXXXXXXXXXXXXXXXXXXXXXXXXXXXXXooooooXXXXXXX --------------------------",
"---------------------- XXXXXXXXXXXXXXXXXXXXXXXXXXXXXXXXXXXXXXXXXXXXX ---------------------------",
"--------------------- XXXXXXXXXXXXXXXXXXXXXXXXXXXXXXXXXXXXXXXXXXXX  ----------------------------",
"--------------------- XXXXXXXXXXXXXXXXXXXXXXXXXXXXXXXXXXXXXXXXXXX ------------------------------",
"-------------------- XXXXXXXXXXXXXXXXXXXXXXXXXXXXXXXXXXXXXXXXXX  .------------------------------",
"-------------------- XXXXXXXXXXXXXXXXXXXXXXXXXXXXXXXXXXXXXXXXX o%&.-----------------------------",
"-------------------- XXXXXXXXXXXXXXXXXXXXXXXXXXXXXXXXXXXXXXXXXXo$&.-----------------------------",
"------------------- XXXXXXXXXXXXXXXXXXXXXXXXXXXXXXXXXXXXXXXXXXXo@&.-----------------------------",
"------------------- XXXXXXXXXXXXXXXXXXXXXXXXXXXXXXXXXXXXXXXXXXXoo%&.----------------------------",
"------------------- XXXXXXXXXXXXXXXXXXXXXXXXXXXXXXXXXXXXXXXXXXXXo$&.--OO--O --------------------",
"------------------- XXXXXXXXXXXXXXXXXXXXXXXXXXXXXXXXXXXXXXXXXXXXo@&.-O= -O= --------------------",
"------------------ XXXXXXXXXXXXXXXXXXXXXXXXXXXXXXXXXXXXXXXXXXXXXoo%. =*  =* --------------------",
"------------------ XXXXXXXXXXXXXXXXXXXXXXXXXXXXXXXXXXXXXXXXXXXXXoo$ .   .** --------------------",
"------------------ XXXXXXXXXXXXXXXXXXXXXXXXXXXXXXXXXXXXXXXXXXXXXoo$ &&&&.. OOOO-----------------",
"------------------ XXXXXXXXXXXXXXXXXXXXXXXXXXXXXXXXXXXXXXXXXXXXXoo$ &&&&&&.==* -----------------",
"------------------ XXXXXXXXXXXXXXXXXXXXXXXXXXXXXXXXXXXXXXXXXXXXXoo@ %%%%&&.** ------------------",
"------------------ XXXXXXXXXXXXXXXXXXXXXXXXXXXXXXXXXXXXXXXXXXXXXooo  $$%%%&.  ------------------",
"------------------ XXXXXXXXXXXXXXXXXXXXXXXXXXXXXXXXXXXXXXXXXXXXXXoX X$$$$$%% -------------------",
"------------------ XXXXXXXXXXXXXXXXXXXXXXXXXXXXXXXXXXXXXXXXXXXXXXXX o $$$$$% -------------------",
"------------------ XXXXXXXXXXXXXXXXXXXXXXXXXXXXXXXXXXXXXXXXXXXXXXX oo $$$$$% -------------------",
"------------------- XXXXXXXXXXXXXXXXXXXXXXXXXXXXXXXXXXXXXXXXXXXXXX oo $$$$$$ -------------------",
"------------------- XXXXXXXXXXXXXXXXXXXXXXXXXXXXXXXXXXXXXXXXXXXXXX oo $$$$$ --------------------",
"------------------- XXXXXXXXXXXXXXXXXXXXXXXXXXXXXXXXXXXXXXXXXXXXX XoX $$$$$ --------------------",
"-------------------- XXXXXXXXXXXXXXXXXXXXXXXXXXXXXXXXXXXXXXXXXXXX XXX $$$$ ---------------------",
"-------------------- XXXXXXXXXXXXXXXXXXXXXXXXXXXXXXXXXXXXXXXXXXX XXXX $$$$ ---------------------",
"--------------------- XXXXXXXXXXXXXXXXXXXXXXXXXXXXXXXXXXXXXXXXXX XXX $$$$ ----------------------",
"--------------------- XXXXXXXXXXXXXXXXXXXXXXXXXXXXXXXXXXXXXXXXX XXXX $$$ -----------------------",
"---------------------- XXXXXXXXXXXXXXXXXXXXXXXXXXXXXXXXXXXXXXX XXXX @$  ------------------------",
"-----------------------  XXXXXXXXXXXXXXXXXXXXXXXXXXXXXXXXXXXX XXXX    --------------------------",
"-------------------------   XXXXXXXXXXXXXXXXXXXXXXXXXXXXX         ------------------------------",
"----------------------------      XXXXXXXXXXXXXXXXXX     ---------------------------------------",
"----------------------------------                  --------------------------------------------",
"------------------------------------------------------------------------------------------------",
"------------------------------------------------------------------------------------------------",
"------------------------------------------------------------------------------------------------",
"------------------------------------------------------------------------------------------------",
"------------------------------------------------------------------------------------------------",
"------------------------------------------------------------------------------------------------",
"------------------------------------------------------------------------------------------------",
"------------------------------------------------------------------------------------------------",
"------------------------------------------------------------------------------------------------",
"------------------------------------------------------------------------------------------------",
"------------------------------------------------------------------------------------------------",
"------------------------------------------------------------------------------------------------",
"------------------------------------------------------------------------------------------------",
"------------------------------------------------------------------------------------------------",
"------------------------------------------------------------------------------------------------",
"------------------------------------------------------------------------------------------------",
"------------------------------------------------------------------------------------------------"
};
