/* XPM */
static char *sprite_465_front[] = {
/* columns rows colors chars-per-pixel */
"96 96 12 1 ",
"  c #010101",
". c #313139",
"X c #5A1839",
"o c #183962",
"O c #4A4A52",
"+ c #BD206A",
"@ c #295A83",
"# c #3973AC",
"$ c #D55A94",
"% c #529CC5",
"& c white",
"* c None",
/* pixels */
"************************************************************************************************",
"************************************************************************************************",
"************************************************************************************************",
"************************************************************************************************",
"************************************************************************************************",
"************************************************************************************************",
"************************************************************************************************",
"************************************************************************************************",
"************************************************************************************************",
"************************************************************************************************",
"************************************************************************************************",
"************************************************************************************************",
"************************************************************************************************",
"************************************************************************************************",
"************************************************************************************************",
"*********************************************oooooo*********************************************",
"*******************************************oo%%%%%#o *******************************************",
"******************************************o%%%%%%####o    **************************************",
"************************************@@oo o%%%%ooo #oo%%%%#  ************************************",
"**********************************@@%%%%#o%%%o####o#%%%%%%## ***********************************",
"*********************************@%%%%%%o%%%o####o##%%%%%#### **********************************",
"********************************o%%%%###o%%%o#######ooooo##### *********************************",
"******************************* %%%%#####%%%######oo#####o ### *********************************",
"******************************* oo@#######%######o%%####### ###   ******************************",
"******************************@@%%###@o#########o%%%#oo#######o###  ****************************",
"*****************************@%%%%#####o#######o%%%#o@@############# ***************************",
"****************************@%%%#ooo####o######o%%#o@@############### **************************",
"****************************@%%#o###o###o#    o###o@@###oooo#####o### **************************",
"***************************o###o#####o##  ####o###o@@##o####oo####o### *************************",
"*************************** ###o#####o# ######o### @@oooo##%%%o###o### *************************",
"***************************o######o########### ### oo####o %%%%oo## ### ************************",
"**************************@######o###oo####   # ### @@#####o#%%#### ##@ ************************",
"*************************@######o###oo#### OOO  ####o@ o#### ######o@@@ ************************",
"*************************@%%#o##o%%# #### OOOOOO ###@o@@ ###o#####o@@@@ ************************",
"************************@%%%o##o%%% ###  OOOOOOOO @@@ @@@ ### ###o@@@@ *************************",
"************************o%%%o##o%%%    OOOOOOOOOOO @@ @@@ ###   o@@@@@ *************************",
"***********************o#%%o@##o%%% ...&&OOOOOOO...   @@@o### @@@@@@@ **************************",
"*********************** %%%o@@#o%%% ..&&&&....&&O... @@@o###o@@@@@@  @ *************************",
"*********************** %%%o@@@o#%# ..&&.&...&&&&O.. #@@ %## @@@@   @@@ ************************",
"*********************** #%#o@@@@o### ..&&....&.&&O. ###o%%%o@@@@@@@# @@ ************************",
"***********************o####o@@@o#### ........&&.. #### %%%o   @@@### @@ ***********************",
"***********************  ###o@@@@o###  .......... ####  %%%o@@@ @@### @@ ***********************",
"********************** @ ####o@@oo@### o.........@###o#o%%%o@@@# @ ### @@ **********************",
"********************* @@ ####o@@ooo@## o  .....oo%%##o#o%%%o@@@# @ ### @@ **********************",
"******************** @@@o #####o%%#o@# ###o    #%%%#o###o%##o ## @ ### @@ **********************",
"*******************o@@@ @@ ###o%%%%#o# ###%%%%%%%%#o#### #######  #### @@ **********************",
"******************o@#@@ @#o ## %%@#o # o@#%%%%%%#oo######o###### @###  @@ **********************",
"***************** @### ##o##   %%@o ## #@oo@##@@o######### o### @@@@ @@ @ **********************",
"**************** ####@ ##o####o######o ####################@   # @@  @@@ ***********************",
"***************o@#### ##o######o####o ########################### @@@ @@@ **********************",
"***************o##### o#o#%#o###o  oo########################o###o@@@@ @@@ *********************",
"**************o#####@* #o%%%o#################################o###o@@@@ @@@o********************",
"*************o###### **  %%%o############################@####o### @@@@ @@#@o*******************",
"************o#%%#### **o %%%#o#######################@###@###@o### @@@@@ ###@ ******************",
"************ %%%%##@**o##o%%%#oo@#####@##############@###@@@@@o###o@@@oo @#### *****************",
"***********o%%%%%%# *o### #%%##@o@###@@@########@###@@o###@@@o###o@@####o ####@@****************",
"*********** %%%%%%# *o####o#####o@@@@@@@@@#####@@@@@@@o###o@ #### ######@ ##### ****************",
"**********o%@%%@%%# o######oo### @@oo@@@@@@@@@@@@@##@@@o### o### ######@@ @##### ***************",
"********** %o%%o%%@*o##o####    @@o##@@@@@@@@@@@@####@@ #####o o####oo @@@ ###### **************",
"**********o#o%%o%% *o## #### @@@@o####@@@@@@@@@@@#####@@ ########## @@@ @@ ######@@*************",
"********* @@@%@@%% *oo# @#### @@o##### o@@@@@@@@@@@####@@ ######## o@##o@@ @###### *************",
"********* @o%%o%%% **o @@ ####  o#### @@@@@o@@@@@@@ #### @  ####o oo####o@@ #######o************",
"*********X+o%%o%%# *** @@ @####o#### @@o@@@ @@@o@@@o ### @@@o  o@ @@o####   ####### ************",
"********X++ +#X++# **o#@@@ @@##o#### @@ @#@ @@@@o  @ #### @@@ @@@ @@o###### ###@##@#o***********",
"******** +X+$++$$X *o####@   @@ #### @@ ### @@@@@@@@@ ### @@@ @@@ @@@o##### @##o##o# ***********",
"********X+ $$X$$$X*o##### @@@   #### @@ ###  @@@@@@@@ ### @@@@ @@@ @@@o###o  ##o##o#o***********",
"******* ++ $$ $$$X*o#### @@@@ .. ##@@ @ @##@.  @@@@   ###  @@@@ @@ @@@@    * ##@@#@@@ **********",
"******* + $$+ $$$ *oo## @@@@ ... @@@@    ### .O    O #### . @@@@ @@ @@@@ *** ###o##o@ **********",
"******* + $$+X$$+ **   @@@@  .... @@@@ . @## .OOOOOO ### ... @@@ @@@ @@@@ ** ###o##o@X**********",
"******* X+$+X+$$+ **** @@@  .OOO. @@@@ ..   ..OOOOOO  ## ....   @@@@  @@@@ * #@@X#@ ++X*********",
"******** +++ ++++ *****    ..OOOO. @@  ......OOOOOOOO   OO...... @@@ * @@@ * @++X+++X+ *********",
"******** X++  ++X ******** .OOOOOO.   ..         .OOOOOOOOO......   ***   ** ++++X++ +X*********",
"*********   **   ********* XOOOOOO....  **********.  OOOOOO........********* X+++ ++ ++ ********",
"************************** +XXOOO...X  ************** OOOOOO.......********** +++ +++ + ********",
"**************************  ++XXXXXX+ **************** OOOOO.....X ********** +++XX++ + ********",
"*************************** ++++++++ ***************** XXOOO...XX+.********** ++++X+++X ********",
"**************************** X+++++ ******************* +XXXXXX++X*********** ++++ +++ *********",
"******************************X   X******************** +++++++++ *********** X++  ++X *********",
"********************************************************  +++++X *************   **   **********",
"**********************************************************X   X*********************************",
"************************************************************************************************",
"************************************************************************************************",
"************************************************************************************************",
"************************************************************************************************",
"************************************************************************************************",
"************************************************************************************************",
"************************************************************************************************",
"************************************************************************************************",
"************************************************************************************************",
"************************************************************************************************",
"************************************************************************************************",
"************************************************************************************************",
"************************************************************************************************",
"************************************************************************************************",
"************************************************************************************************",
"************************************************************************************************"
};
