/* XPM */
static char *sprite_561_front[] = {
/* columns rows colors chars-per-pixel */
"96 96 14 1 ",
"  c #101010",
". c #313131",
"X c #317339",
"o c #624110",
"O c #DE0000",
"+ c #9C7B18",
"@ c #945273",
"# c #39A44A",
"$ c #FFC508",
"% c #297B8B",
"& c #4AACE6",
"* c gray58",
"= c white",
"- c #000000",
/* pixels */
"------------------------------------------------------------------------------------------------",
"------------------------------------------------------------------------------------------------",
"------------------------------------------------------------------------------------%%%%--------",
"----------------------------------------------------------------------------------%%&&& --------",
"--------------------------------------------------------------------------------%%&&&& ---------",
"------------------------------------------------------------------------------  &&&&& ----------",
"----------------------------------------------------------------------------% OO&&&& -----------",
"---------------------------------------------------------------------------%%OOO@&& ------------",
"-------------------------------------------------------------------------- &&@OO@& -------------",
"------------------------------------------------------------------------  &&&@OOO --------------",
"--------%%%------------------------------------------------------------ %&&&&&OO ---------------",
"-------- &&%%%-------------------------------------------------------- $%&&&&&  ----------------",
"--------- &&&&  ----------------------------------------------------..$$$&&&& ------------------",
"--------- %&&&OO  -------------------------------------------------.+$$$$%&  -------------------",
"---------- &&&OOO&% ----------------------------------------------+$$$$$$$ ---------------------",
"----------- &OOOO&&&% -------------------------------------------+$$$$$$$ ---------%%%%%--------",
"------------ OOO&&&&&& -----------------------------------------+$$$$$$  -------  %&&&& --------",
"-------------  O&&&&&$$  ---------------------------------------+$$$$+ ------%  OO&&&& ---------",
"--------------- %&&&&$$$+ --------------------------------------.$$$$ -----  &@OOO&&& ----------",
"----------------  &&$$$$$$  ------------------------------------.$$$+ ---- %&&@OOO&  -----------",
"------------------ %$$$$$$$+ ----------------------------------+$$$$ ---  $%&&&OOO -------------",
"-------------------  +$$$$$$$oo--------------  ----------------.$$$$ -++$$$&&&&O  --------------",
"---------------------   $$$$$$+ ------------ .. ---------------.$$$ -+$$$$$%&   ----------------",
"------------------------  $$$$$$+----------- .. ---------------.$$$++$$$$$   -------------------",
"--------------------------  +$$$+----------- ..  -------------+$$$+$$$$$  ----------------------",
"----------%%%%%%%  ---------.$$$$+---------- ... ------------- $$$$$$   ------------------------",
"--------- &&&&&&OOO&     ----.$$$.-----------... ------------- $$$++ ----------  %%%%-----------",
"----------  &&&&OOO&&&&$$+++- $$$$+---------- ... ------------.$$$$ -------    O@&&&& ----------",
"------------   &OOO&&&&$$$$$+++$$$.---------- ... .----------+$$$$ ----    &&&OO@&&  -----------",
"---------------    &&&&$$$$$$$$$$$$.-------- ...... --------- $$$$ -   $$%&&&@OO&  -------------",
"-------------------    $$$$$$...$$$.--------..   ...--------- $$$   $$$$$&&&&@   ---------------",
"-----------------------    +++--.$$$.------   === ...------- $$$$$$$$$$$$&&   ------------------",
"---------------------------------.$$ ------  ===== . ------- $$$  $$$$     ---------------------",
"---------------------------------.$$$ -----  =&&== . -------.$$$ -    --------------------------",
"----------------------         --- $$ -----  =&&== . ------ $$$  -------------------------------",
"------------------   OOO&&$$$$$+++++$$.-----  === . ------- $$$ ---++    %----------------------",
"----------------- &&&OOO&&&$$$$$$$$$$$$.-----    ...------- $$+++++$$&&OO@%%%-------------------",
"------------------   &OO&&&$$$$     $$$ ------ ......----- $$$$$$$$$%&&OO@&&& ------------------",
"---------------------          ----- $$$ ----- ........---.$$     +$%&&OO&   -------------------",
"---------------------------------  ++$$$+----  ......+$+..$$ ------       ----------------------",
"------------------------------%%%&&$$$ $$+-  $ ......$$$+.$  -----------------------------------",
"----------------------------%%OO&&&$  -+$$ $$$$+...+$$$$.$$+ .----------------------------------",
"---------------------------%&&OO&&  ----+ +$$$$$$$$$$$++.$ = . ---------------------------------",
"---------------------------       ------ ==+$$$$$$$$++==..=.... --------------------------------",
"--------------------------------------- ====++$$$+++======....# --------------------------------",
"--------------------------------------- .===============*....### -------------------------------",
"--------------------------------------. ..*===========*.....#### ---   -------------------------",
"-------------------------------------- X.....*====*........##=## -- ...  -----------------------",
"-------------------------------------- #.X..............X#.#===# -- .....  ---------------------",
"----------------------------------  -- #.##X.........X####.#=..= --........ --------------------",
"--------------------------------  .. - #.#==###.####====##.=.... - ..       --------------------",
"------------------------------  .... - =#=.==##.###==.*====*....   .. --------------------------",
"----------------------------- ..   ..  .=...*==.#==*....*=*..........   ------------------------",
"----------------------------    ---.. - ......====......................   ---------------------",
"-----------------------------------.. - .*=....==.......==*....    ........ --------------------",
"---------------------------------   .   .=&* ......... =&&= .... - ..      ---------------------",
"-------------------------------  ....... *&= ......... =&&= .... - .. --------------------------",
"-----------------------------  ..   ..   .=*...........*==...== ---..   ------------------------",
"----------------------------     -- . -- ...................=XX.--- ....  ----------------------",
"----------------------------------- . --- ..==.......===..==XX -----  .... ---------------------",
"---------------------------------  .. --- .=X===....==X*===XX --------   .. --------------------",
"-------------------------------  ..  -----  XXX==..==XXXXXXX ------------   --------------------",
"------------------------------ .   ---------  XXX===XXXXXX***.----------------------------------",
"-----------------------------   -------------**.XXX.XXXX..***.----------------------------------",
"--------------------------------------------.***   X.X  .- ***.---------------------------------",
"--------------------------------------------.** ---   **.--  *.---------------------------------",
"--------------------------------------------.* -----.**o.----  ---------------------------------",
"--------------------------------------------. ------.oo++ --------------------------------------",
"--------------------------------------------------- ++++++ -------------------------------------",
"-------------------------------------------------  ++++++++  -----------------------------------",
"-----------------------------------------------oo$+++++++++$$  ---------------------------------",
"----------------------------------------------o$$$$++  +++$$$$$ --------------------------------",
"---------------------------------------------o$$$$$$ -  $$$$$$$$ -------------------------------",
"---------------------------------------------o$$$ $ --- $$  $$$$ -------------------------------",
"---------------------------------------------o$$++$ --- $$ -  $$ -------------------------------",
"--------------------------------------------o$$+ +$$ -- $$ --+$$ -------------------------------",
"--------------------------------------------o$$$ +$$ -- $$ --+$$ -------------------------------",
"--------------------------------------------o$$$ $$$ - $$$$ -+$$$ ------------------------------",
"--------------------------------------------o$$$ $$$ - $$$$ +$$$$ ------------------------------",
"------------------------------------------- &$$$+$$$ - $$$$ +$$$$ ------------------------------",
"------------------------------------------- &&& +$$$ - $$$% +$$$% ------------------------------",
"------------------------------------------- &&& +&&& - &&&& o%&&& ------------------------------",
"------------------------------------------- @@& +&&& - &&&& o&&&& ------------------------------",
"-------------------------------------------oOOO +&&& - &&&& o&&&& ------------------------------",
"-------------------------------------------oOOO oOO%o-oOOO@ o@OO@o------------------------------",
"-------------------------------------------oOO -oOOo--oOOOo-oOOOOo------------------------------",
"------------------------------------------- && -oOOo--oOOOo-oOOO@o------------------------------",
"-------------------------------------------.&& -%&& --- && -- &&& ------------------------------",
"-------------------------------------------.& --%&% --- & --- &&% ------------------------------",
"-------------------------------------------.&.--%& ---- & --- %& -------------------------------",
"--------------------------------------------.---%& ---- & ---- & -------------------------------",
"-------------------------------------------------%------ ----- & -------------------------------",
"--------------------------------------------------------------- --------------------------------",
"------------------------------------------------------------------------------------------------",
"------------------------------------------------------------------------------------------------",
"------------------------------------------------------------------------------------------------"
};
