/* XPM */
static char *sprite_334_front[] = {
/* columns rows colors chars-per-pixel */
"96 96 12 1 ",
"  c #010101",
". c #29395A",
"X c #4A6294",
"o c #73739C",
"O c #109CCD",
"+ c #5AC5FF",
"@ c #ACB4C5",
"# c #9CDEFF",
"$ c #CDCDE6",
"% c #DEE6EE",
"& c white",
"* c None",
/* pixels */
"************************************************************************************************",
"************************************************************************************************",
"************************************************************************************************",
"************************************************************************************************",
"************************************************************************************************",
"************************************************************************************************",
"************************************************************************************************",
"************************************************************************************************",
"************************************************************************************************",
"************************************************************************************************",
"************************************************************************************************",
"************************************************************************************************",
"************************************************************************************************",
"************************************************************************************************",
"************************************************************************************************",
"************************************************************************************************",
"**************************************************************XX *******************************",
"************************************************************XX  ********************************",
"***********************************************************XO **********************************",
"*********************************************************XXO ***********************************",
"*******************************************************XXOO ************************************",
"*****************************************************XXOO  ***************XX *******************",
"**************************************************XXXOO  ***************XXO ********************",
"***********************************************XXXOOO  ****************XOO *********************",
"*********************************************XOOO    ****************XXO  **********************",
"********************************************XOX  *****OOOOO*******XXXOO ************************",
"*******************************************XOX ***OOOO+++++OOOXXXXOOOO *************************",
"*******************************************XX **OO++++++++++++++OOOO  **************************",
"*******************************************.X *O+O.   .O++++++OOO   ****************************",
"*****************************************XXXXOOO  *****          *******************************",
"***************************************OO####++X.***********************************************",
"**************************************O+######+++.**********************************************",
"**************************************O++####+++++X*********************************************",
"*************************************XO+++++++++++X*********************************************",
"*************************************X&++++++++O+++.********************************************",
"************************************oX +++++++ &+++ ********************************************",
"***********************************o&o XXXO+++  +++ ********************************************",
"***********************************X%&X&&&%X++X.+++ ********************************************",
"************************************Xo&&&&&%@o&&%OO ********************************************",
"*************************************.X&&&@oo&&&%@ *********************************************",
"**************************************.oo@XXOo%%o **********************************************",
"************************************ooo.XXOOOOOO ***********************************************",
"***********************************o$$$$ OOOOOOO oo*********************************************",
"**********************************o$$$$$ OOOOOO $$$o***oooo*************************************",
"********************************oo$$$$$$.OOOOOO $$$$o*o$$$$o************************************",
"*****************************ooo$o$&&$$$XOOOOO $$$$$$o%%%$$$o***********************************",
"****************************o&&&&$%&&&$XOOOOOO $$$$$o%&&&%$$ooooo*******************************",
"***************************o&&&&&%&&&&$X+OOOO $$$$$$o&&&&&%$$o$$$oo*****************************",
"**************************o%&&&&&&&&&%X+++OOO $$$ooo%&&&&&&$$o$$$$$o****************************",
"**************************o%&&&&&&&&&X++++++O $oo&&oo&&&&&&$$$$$$$$o****************************",
"*************************o$$&&&&&&&&O+++++++ $o&&&&&&%&&&%$$$$$$$$$$o***************************",
"*************************o$$%&&&&&&O++++++++ o&&&&&&&&&&&&&%$$$$$$$$o***************************",
"*************************o$$$%&&&&O+++++++++O $&&&&&&&&&&&&&%$$$$$$$o***************************",
"************************o$$$$$$$&%X++++++++OOO o$&&&&&&&&&&&&$$$$$$oo***************************",
"***********************o$$$$$o&&&&&o+ooooo+OOOo$&&&&&&&&&&&&&$$$$$o$$o**************************",
"***********************o$$$$o&&&&&&oo&&&&&ooOOo&&&&&&&&&&&&&&$$$$$$$$$o*************************",
"***********************o$$$o&&&&&&o&&&&&&&&%oOOo$$&&&&&&&&&%$$$$$$$$$$o*************************",
"***********************o$@o&&&&&&&&&&&&&&&&&%oo$&&$&&&&&&&&$%$$$$$$$$$o*************************",
"***********************o@oo&&&&&&&&&&&&&&&&&o%&&&&&&&&&$&%$%$$$$$$$$$$o*************************",
"************************oo$&&&&&&&&&&&&&&&&&o&&&&&&&&&$&$$%$%$$$$$$$$$o*************************",
"*************************o$%&&&&&&&&&&&&&&&&&&&&&&&&&&&$$$$$$$$$$$$$$o**************************",
"*************************o$$&&&&&&&&&&&&&&&&&&&&&&&&&&&%$$$$$$$$$$$$$o**************************",
"************************o$$$&&&&&%&&&&&&&&&&&&&&&&&&&&&$$$$$$$$$$$$$o***************************",
"*********************XX*o$$$%&&&%&&&&&&&&&&&&&&&&&&&&&%$$$$$$$$$$$oo****************************",
"********************X##Xo$$$$$%&%&&&&&&&&%$&&&&&&&&&&%$$$$$$$$$$$oo*****************************",
"********************X+O+o$$$$$$$$%&&&&&%%$$$%&&&&&&%$$$$$$$$$$$$$o******************************",
"******************** .OOo$$$$$$$$$%&&&%$$$$$$$%&&%$$$$$$$$$$$$$$$o******************************",
"*******************X++OOOo$$$$$$$$$$$$$$$$$$$$$$$$$$$$$$$$$$$$$$o*******************************",
"*******************X+  OOo$$$$$$$$$$$$$$$$$$XXX$$$$$$$o$$$$$$$oo********************************",
"*******************  ** OOo$$$$@$$$$$$$$$XXX.++X$$$$$$$o$$oooo**********************************",
"************************ O.o$$$o$$$$$$$$ #+.#+.X$$$$$$$$oX.XX    *******************************",
"************************ O *oooo$$$$$$$$$ O  .++ $$$$$$oOOO.XXXXX.  X***************************",
"************************* ******o$$$$$$$$$ OO.#X $$$$$$o.OOOO    XXXOXXX************************",
"*********************************o$$$$$$$$.XO   $$$$oo.XX .OOO..*  OOOOOXX**********************",
"**********************************oo$$$$$$o.OO ooooo XX XX  .OOO.**  OOOOOX*********************",
"************************************oooooo*.OO ******  * XXX .OOO.*** .OOOO ********************",
"*******************************************.+ *********** XX   OOO ****     ********************",
"*******************************************  *************   ** OO *****************************",
"****************************************************************  ******************************",
"************************************************************************************************",
"************************************************************************************************",
"************************************************************************************************",
"************************************************************************************************",
"************************************************************************************************",
"************************************************************************************************",
"************************************************************************************************",
"************************************************************************************************",
"************************************************************************************************",
"************************************************************************************************",
"************************************************************************************************",
"************************************************************************************************",
"************************************************************************************************",
"************************************************************************************************",
"************************************************************************************************",
"************************************************************************************************",
"************************************************************************************************"
};
