/* XPM */
static char *sprite_360_front[] = {
/* columns rows colors chars-per-pixel */
"96 96 12 1 ",
"  c #010101",
". c #7B2939",
"X c #395262",
"o c #A43141",
"O c #837B7B",
"+ c #DE5A62",
"@ c #397BA4",
"# c #4A9CBD",
"$ c #6ABDDE",
"% c #9CD5EE",
"& c #CDCDC5",
"* c None",
/* pixels */
"************************************************************************************************",
"************************************************************************************************",
"************************************************************************************************",
"************************************************************************************************",
"************************************************************************************************",
"************************************************************************************************",
"************************************************************************************************",
"************************************************************************************************",
"************************************************************************************************",
"************************************************************************************************",
"************************************************************************************************",
"************************************************************************************************",
"************************************************************************************************",
"************************************************************************************************",
"************************************************************************************************",
"************************************************************************************************",
"************************************************************************************************",
"************************************************************************************************",
"************************************************************************************************",
"************************************************************************************************",
"************************************************************************************************",
"************************************************************************************************",
"************************************************************************************************",
"************************************************************************************************",
"************************************************************************************************",
"************************************************************************************************",
"************************************************************************************************",
"************************************************************************************************",
"***************************************XXX******************************************************",
"*************************************X@%$$XX****************************************************",
"************************************X%%%%$$$X **************************************************",
"***********************************X$%%%%$$$$$ *************************************************",
"***********************************X$$%%$$$$$$$ ************************************************",
"***********************************X$$$$$####$$$ ***********************************************",
"***********************************@@$$$######$$@ **********************************************",
"************************************X$$$#######$$ XX********************************************",
"************************************* $$########$$X$X*******************************************",
"**************************************  $#######$$X$$X******************************************",
"***************************************@  $#####$$$$$$X*****************************************",
"**************************************@%%%XXX##$$$$$$$# ****************************************",
"*************************************X%%%%%$$$$$$$$$$$$ ****************************************",
"*************************************X%%%%%$$$$$$$$$$$$$ ***************************************",
"************************************X$$ %%$$$$$$$ $$$$$$ ***************************************",
"************************************X$ X $$$$$$$ X $$$$$XX**************************************",
"************************************X X$X $$$$$ X$X $$$$$ **************************************",
"***********************************X##$$$$$$$$$$$$$$$$$$$ **************************************",
"***********************************X#X$$@ $$$$$ $$$$$$@$$ **************************************",
"***********************************X## # oX@$@ oX$$$ $X$$ **************************************",
"***********************************X##X oooX  oo.X@ ##X$$XX*************************************",
"***********************************X##Xooooooooooo  ##X$$# *************************************",
"**********************************#$X#Xooooo....oooX##X$$# *************************************",
"**********************************X%X##Xoo..++++..oX##X$$# *************************************",
"**********************************X%#X#Xo.o++++++o.###X$$$ *************************************",
"**********************************X%# ##X.++++++++X###X$$$ *************************************",
"*********************************X%##  ###X.++++.X### X#$$X*************************************",
"*********************************X%## *  ###XXXX###X **X$$# ************************************",
"********************************X%### ***  ######   ***X$$# ************************************",
"********************************X%### **X#####XXX##X***X$$$ ************************************",
"********************************X%### *X############X**X$$$ ************************************",
"*******************************X%### **X#$$$$#######X**X$$$$ ***********************************",
"*******************************X%### *X#$$$$$$$######X*X#$$$X **********************************",
"****************************** %#### *X$$$$$$$$$##### **X$$$$ **    ****************************",
"****************************** %### **X$ $$$$$$$$#### **X$$$$   OO   ***************************",
"*******************************    ***  X$ $$ $$$# @#  **X$$$X & &&  ***************************",
"****************************************X X  # ## #      X#$X O&&O  ****************************",
"****************************************XX## ##  ### *            ******************************",
"******************************************XXX X$$#X *****      *********************************",
"**********************************************     *********************************************",
"************************************************************************************************",
"************************************************************************************************",
"************************************************************************************************",
"************************************************************************************************",
"************************************************************************************************",
"************************************************************************************************",
"************************************************************************************************",
"************************************************************************************************",
"************************************************************************************************",
"************************************************************************************************",
"************************************************************************************************",
"************************************************************************************************",
"************************************************************************************************",
"************************************************************************************************",
"************************************************************************************************",
"************************************************************************************************",
"************************************************************************************************",
"************************************************************************************************",
"************************************************************************************************",
"************************************************************************************************",
"************************************************************************************************",
"************************************************************************************************",
"************************************************************************************************",
"************************************************************************************************",
"************************************************************************************************",
"************************************************************************************************",
"************************************************************************************************",
"************************************************************************************************"
};
