/* XPM */
static char *sprite_208_front[] = {
/* columns rows colors chars-per-pixel */
"96 96 10 1 ",
"  c #101010",
". c #393952",
"X c #D55241",
"o c #4A628B",
"O c magenta",
"+ c #7B94A4",
"@ c #BDCDC5",
"# c #DEE6DE",
"$ c white",
"% c None",
/* pixels */
"%%%%%%%%%%%%%%%%%%%%%%%%%%%%%%%%%%%%%%%%%%%%%%%%%%%%%%%%%%%%%%%%%%%%%%%%%%%%%%%%%%%%%%%%%%%%%%%%",
"%%%%%%%%%%%%%%%%%%%%%%%%%%%%%%%%%%%%%%%%%%%%%%%%%%%%%%%%%%%%%%%%%%%%%%%%%%%%%%%%%%%%%%%%%%%%%%%%",
"%%%%%%%%%%%%%%%%%%%%%%%%%%%%%%%%%%%%%%%%%%%%%%%%%%%%%%%%%%%%%%%%%%%%%%%%%%%%%%%%%%%%%%%%%%%%%%%%",
"%%%%%%%%%%%%%%%%%%%%%%%%%%%%%%%%%%%%%%%%%%%%%%%%%%%%%%%%%%%%%%%%%%%%%%%%%%%%%%%%%%%%%%%%%%%%%%%%",
"%%%%%%%%%%%%%%%%%%%%%%%%%%%%%%%%%%%%%%%%%%%%%%%%%%%%%%%%%%%%%%%%%%%%%%%%%%%%%%%%%%%%%%%%%%%%%%%%",
"%%%%%%%%%%%%%%%%%%%%%%%%%%%%%%%%%%%%%%%%%%%%%%%%%%%%%%%%%%%%%%%%%%%%%%%%%%%%%%%%%%%%%%%%%%%%%%%%",
"%%%%%%%%%%%%%%%%%%%%%%%%%%%%%%%%%%%%%%%%%%%%%%%%%%%%%%%%%%%%%%%%%%%%%%%%%%%%%%%%%%%%%%%%%%%%%%%%",
"%%%%%%%%%%%%%%%%%%%%%%%%%%%%%%%%%%%%%%%%%%%%%%%%%%%%%%%%%%%%%%%%%%%%%%%%%%%%%%%%%%%%%%%%%%%%%%%%",
"%%%%%%%%%%%%%%%%%%%%%%%%%%%%%%%%%%%%%%%%%%%%%%%%%%%%%%%%%%%%%%%%%%%%%%%%%%%%%%%%%%%%%%%%%%%%%%%%",
"%%%%%%%%%%%%%%%%%%%%%%%%%%%%%%%%%%%%%%%%%%%%%%%%%%%%%%%%%%%%%%%%%%%%%%%%%%%%%%%%%%%%%%%%%%%%%%%%",
"%%%%%%%%%%%%%%%%%%%%%%%%%%%%%%%%%%%%%%%%%%%%%%%%%%%%%%%%%%%%%%%%%%%%%%%%%%%%%%%%%%%%%%%%%%%%%%%%",
"%%%%%%%%%%%%%%%%%%%%%%%%%%%%%%%%%%%%%%%%%%%%%%%%%%%%%%%%%%%%%%%%%%%%%%%%%%%%%%%%%%%%%%%%%%%%%%%%",
"%%%%%%%%%%%%%%%%%%%%%%%+++%%%%%%%%%%%%%%++%%%%%%%%%%%%%%%%%%%%%%%%%%%%%%%%%%%%%%%%%%%%%%%%%%%%%%",
"%%%%%%%%%%%%%%%%%%%%%%o@@@++o%%%%%%%%%o+@@oo%%%%%%%%%%%%%%%%%%%%%%%%%%%%%%%%%%%%%%%%%%%%%%%%%%%%",
"%%%%%%%%%%%%%%%%%%%%%%o@@@@@+ %%%%%%%o@@@@@@ %%%%%%oo   %%%%%%%%%%%%%%%%%%%%%%%%%%%%%%%%%%%%%%%%",
"%%%%%%%%%%%%%%%%%%%%%o@@@@@o+ %%%%%%% @@@@@o+ %%ooo@@###   %%%%%%%%%%%%%%%%%%%%%%%%  %%%%%%%%%%%",
"%%%%%%%%%%%%%%%%%%%%%o@@@@o+++  %%%% @@@@@@+++ o@@@@####o+o %%%%%%%%%%%%%%%%%%%%%  ++ %%%%%%%%%%",
"%%%%%%%%%%%%%%%%%%%%%o@@@@+++oooooo+ @@@@@o+++ @@@@@###+++o+ %%%%%%%%%%%%%%%%%%% @@++ %%%%%%%%%%",
"%%%%%%%%%%%%%%%%%%%%o@@@@@o++++++++.@@@@@o++++ @@@@@@##o++o++ %%%%%%%%%%%%%%%%% @@++ %%%%%%%%%%%",
"%%%%%%%%%%%%%%%%%%%%o@@@@@o++++@@@+.@@@@@o+++ @@@@@@@@#o+o+++ %%%%%%%%%%%%%%%% @@@+o %%%%%%%%%%%",
"%%%%%%%%%%%%%%%%%%%o@@@@@o++@@@@@o.@@@@@o++++ @@@@@@@@o++o+++ %%%%%%%%%%%%%%  @@@+o %%%%%%%%%%%%",
"%%%%%%%%%%%%%%%%%%o@@@+oo++@@@@@o@@@@@@@o++++.@@@@@@@@.+++.++o %%%%%%%%%%%% @@@@+o %%%%%%%%%%%%%",
"%%%%%%%%%%%%%%%%+o#oo+++++@@@...o@@@@@@@+o++++ @@@@@@@.++++..++ %%%%%%%%%% @@@@ooo %%%%%%%%%%%%%",
"%%%%%%%%%%%%%%%+##o+++oo@@@oo@@@@@@@@@@@@+oo++ @@@@o..o++++++++ %%%%%%%%% @@@@.oo %%%%%%%%%%%%%%",
"%%%%%%%%%%%%%%+##o++oo@@@@o@@@@@@@@@@@@@@++++++ @..oooo.++++++++ %%%%%%  ++@..oo %%%%%%%%%%%%%%%",
"%%%%%%%%%%%%%+###.+o+@#@@.@@@@@@@@@@@@@@+++++++ oooooooo..++++++... %  ++++.ooo %%%%%%%%%%%%%%%%",
"%%%%%%%%%%%%+####.o######.@@@@@@@@@@@@@@++++++++ ooooooooo.++o... @@  o+++.ooo %%%%%%%%%%%%%%%%%",
"%%%%%%%%%%%%o###+o#######o.@@@@@@@@@@@@++++++++++ ooooooooo...... @@@@@++ooooo %%%%%%%%%%%%%%%%%",
"%%%%%%%%%%%o###@o########o###@@@@@@@@@+++++++o@@@+ oooooooooo.... @@@@@@ooooo %%%%%%%%%%%%%%%%%%",
"%%%%%%%%%%%o###o########o######@@@+  .+++++++o@@@@@  ooooooo..... +@@@+ooooo %%%%%%%%%%%%%%%%%%%",
"%%%%%%%%%%o###o########o########+  ooo.+++++o@@@@@@@@  ooooo..... ++ooo.oooo %%%%%%%%%%%%%%%%%%%",
"%%%%%%%%%%o##@o#######o########  .ooooo..+++++@@@@@@@@o ooo..... ooooooo..o %%%%%%%%%%%%%%%%%%%%",
"%%%%%%%%%%o##o#######+@######     oooooo++++++++@@@@..o o....... ooooooooo %%%%%%%%%%%%%%%%%%%%%",
"%%%%%%%%%o##@o#######+######      oooooo++++++++++..ooo ....... ++oooooooo %%%%%%%%%%%%%%%%%%%%%",
"%%%%%%%%%.@@o#######+###### .+    ooooo++++++++++.ooooo ....... +++oo....oo %%%%%%%%%%%%%%%%%%%%",
"%%%%%%%%%.o@.######+###### ++@    oooo++++++++++.oooooo ...... +++++.o+oo.. %%%%%%%%%%%%%%%%%%%%",
"%%%%%%%%o#o.#######o#####o+@##   .oo+++++o++++++.ooooo o...... ++++o+++oooo %%%%%%%%%%%%%%%%%%%%",
"%%%%%%%%o#########o@@##@oO###+   +++++++.+++++++o.oooo oo.... +++++o++oooooo %%%%%%%%%%%%%%%%%%%",
"%%%%%%%%o#########.@@@@o XO#   .++++++++.++++++ooo..  ooooo  +++++.+++oooooo %%%%%%%%%%%%%%%%%%%",
"%%%%%%%%o##########..@oX X  ++++++..+++oo++++++oooo ooooo  o++++++.o+ooooooo %%%%%%%%%%%%%%%%%%%",
"%%%%%%%%%o#+#########+oooo+++++++.++  +.++++++oooo ooo   oooo+++++o.oooooooo %%%%%%%%%%%%%%%%%%%",
"%%%%%%%%% #+###+########@+++..+++.@+++.+++++++ooo %   ooooooooo++.....ooooo %%%%%%%%%%%%%%%%%%%%",
"%%%%%%%%+# ###o@#######@+++.@+ + +@@+++++++++ooo. %%% oooooooooo........... %%%%%%%%%%%%%%%%%%%%",
"%%%%%%%+###  ########@+++++.@@+ .@@@@+++++++ooo. %%% o.oooooooo..oo.......   %%%%%%%%%%%%%%%%%%%",
"%%%%%%+####o$ ..@##@++++++.@@@+++@@@@+++++oooooo %%% o.oooooooo.oooo...... oo %%%%%%%%%%%%%%%%%%",
"%%%%%%+#####o $o...........@@@@++@@@@@++oooooo.o %% ++oooooooo.oooo...... oooo %%%%%%%%%%%%%%%%%",
"%%%%%o#######+o$ $$$@ @@@@.@@@@@@@@@@+ooooooo.o %% +++o.  ooo.oooo...... ooooo+ %%%%%%%%%%%%%%%%",
"%%%%%o#########...$$$ $@@..@@@@@@@@@@oooooo..oo % ++++.ooo  .   .....   ooo++++ %%%%%%%%%%%%%%%%",
"%%%%% ###########+........@#@#@@@@@@oooooo .oo %% +++.ooooo  %%%      o+++++++++ %%%%%%%%%%%%%%%",
"%%%%%%o####################@#@#@@@oooooo. %   %%.@@++.oooo %%%%%%% @+@@o++++++++ %%%%%%%%%%%%%%%",
"%%%%%% o####################@#@#oo++ooooo %%%%%.@@@@.ooo  %%%%%%%% @@+@@o@+++++o %%%%%%%%%%%%%%%",
"%%%%%%% o#####################oo+++oo.oo %%%%%.@@@@+oo  %%%%%%%%% +@@+@@@+oooooo %%%%%%%%%%%%%%%",
"%%%%%%%%  o#################oo++++o..ooo %%%%% @@@+oo %%%%%%%%%%% @++@@@@ooooooo %%%%%%%%%%%%%%%",
"%%%%%%%%%%   o##########ooo+++++o  ooo  %%%%%.@@+ooo %%%%%%%%%%%% @@@@@@oooooooo %%%%%%%%%%%%%%%",
"%%%%%%%%%%%%%   oooooooo+++++o   %%   %%%%%%.@@@oo  %%%% .%%%%%%%% @@@@@o+ooooo %%%%%%%%%%%%%%%%",
"%%%%%%%%%%%%%%%%   ++++++o    %%%%%%%%%%%%%.@@@oo %%%%% ++..%%%%%. @@@@o+o+o+oo %%%%%%%%%%%%%%%%",
"%%%%%%%%%%%%%%%%%%%       %%%%%%%%%%%%%%%%%.@@o  %%%%%% o+++..%..++ .@@+o+o+o  %%%%%%%%%%%%%%%%%",
"%%%%%%%%%%%%%%%%%%%%%%%%%%%%%%%%%%%%%%%%%%%%   %%%%%%%%% o++++.+++++o  o+o+  .%%%%%%%%%%%%%%%%%%",
"%%%%%%%%%%%%%%%%%%%%%%%%%%%%%%%%%%%%%%%%%%%%%%%%%%%%%%%%% oo++o@++++oo.    oo.%%%%%%%%%%%%%%%%%%",
"%%%%%%%%%%%%%%%%%%%%%%%%%%%%%%%%%%%%%%%%%%%%%%%%%%%%%%%%%% oo+@@@++++ooooooooo.%%%%%%%%%%%%%%%%%",
"%%%%%%%%%%%%%%%%%%%%%%%%%%%%%%%%%%%%%%%%%%%%%%%%%%%%%%%%%% oo.@@@+##+ooooooooo.%%%%%%%%%%%%%%%%%",
"%%%%%%%%%%%%%%%%%%%%%%%%%%%%%%%%%%%%%%%%%%%%%%%%%%%%%%%%%%% o.@@@+####+oooo.....%%%%%%%%%%%%%%%%",
"%%%%%%%%%%%%%%%%%%%%%%%%%%%%%%%%%%%%%%%%%%%%%%%%%%%%%%%%%%%% @@@@+#####...+++++.%%%%%%%%%%%%%%%%",
"%%%%%%%%%%%%%%%%%%%%%%%%%%%%%%%%%%%%%%%%%%%%%%%%%%%%%%%%%%%% @@@@@+###o++++oo++.%%%%%%%%%%%%%%%%",
"%%%%%%%%%%%%%%%%%%%%%%%%%%%%%%%%%%%%%%%%%%%%%%%%%%%%%%%%%%%% @@@@@@++#o+++o++o+.%%%%%%%%%%%%%%%%",
"%%%%%%%%%%%%%%%%%%%%%%%%%%%%%%%%%%%%%%%%%%%%%%%%%%%%%%%%%%%% @@@@@@@@o++++o++ .%%%%%%%%%%%%%%%%%",
"%%%%%%%%%%%%%%%%%%%%%%%%%%%%%%%%%%%%%%%%%%%%%%%%%%%%%%%%%%%%+ +@@@@@@o+++.++@ .%%%%%%%%%%%%%%%%%",
"%%%%%%%%%%%%%%%%%%%%%%%%%%%%%%%%%%%%%%%%%%%%%%%%%%%%%%%%%%..+ .oo++@.++++.+@@@ %%%%%%%%%%%%%%%%%",
"%%%%%%%%%%%%%%%%%%%%%%%%%%%%%%%%%%%%%%%%%%%%%%%%%%%%%%%%%.++++ oooooo.oooo+@@@@ %%%%%%%%%%%%%%%%",
"%%%%%%%%%%%%%%%%%%%%%%%%%%%%%%%%%%%%%%%%%%%%%%%%%%%%%%%% ++++++  ooooo.oooo+@@@@ %%%%%%%%%%%%%%%",
"%%%%%%%%%%%%%%%%%%%%%%%%%%%%%%%%%%%%%%%%%%%%%%%%%%%%%%%% o+++++++  ooo  .  .o+@@@.%%%%%%%%%%%%%%",
"%%%%%%%%%%%%%%%%%%%%%%%%%%%%%%%%%%%%%%%%%%%%%%%%%%%%... @@oo++++++o   o.%%%  .o+@@.%%%%%%%%%%%%%",
"%%%%%%%%%%%%%%%%%%%%%%%%%%%%%%%%%%%%%%%%%....%%%%  .ooo @@@@oo++oooooooo.%%%%  oo++.%%%%%%%%%%%%",
"%%%%%%%%%%%%%%%%%%%%%%%%%%%%%%%%%%%%%%%%.++++.%% o.oooo @@@@@+oooooooooo.%%%%%%  oo %%%%%%%%%%%%",
"%%%%%%%%%%%%%%%%%%%%%%%%%%%%%%%%%%%%%%% +++++o.. oo.oo. +@@@@ooooooooooo.%%%%%%%%  %%%%%%%%%%%%%",
"%%%%%%%%%%%%%%%%%%%%%%%%%%%%%%%%%....% o++++++o oooo..oo @@@@ooo..oooooo %%%%%%%%%%%%%%%%%%%%%%%",
"%%%%%%%%%%%%%%%%%%%%%%%%%%%%%%%..o.oo oo.++++.o ..oooooo +@@+o..oo..ooo %%%%%%%%%%%%%%%%%%%%%%%%",
"%%%%%%%%%%%%%%%%%%%%%%%%%%%%%%.@@+.oo ooo....oo ++.oooooo @+o.oooooo   %%%%%%%%%%%%%%%%%%%%%%%%%",
"%%%%%%%%%%%%%%%%%%%%%%%%%%%%%.+@@.ooo oooooo.oo ++.oooo..o o.oooooo.%%%%%%%%%%%%%%%%%%%%%%%%%%%%",
"%%%%%%%%%%%%%%%%%%%%%%%%%%%%%o@@+.oooo ooooo.o +++.oo..oooo  .ooo  %%%%%%%%%%%%%%%%%%%%%%%%%%%%%",
"%%%%%%%%%%%%%%%%%%%%%%%%%%%%o+@+oo..o. ooooo.o ++.oo.ooooo %%    %%%%%%%%%%%%%%%%%%%%%%%%%%%%%%%",
"%%%%%%%%%%%%%%%%%%%%%%%%%%%.++oooooo.%%   ... ++.ooo.oooo %%%%%%%%%%%%%%%%%%%%%%%%%%%%%%%%%%%%%%",
"%%%%%%%%%%%%%%%%%%%%%%%%%%.+oooo.   %%%%%%%  ++oo  oo..  %%%%%%%%%%%%%%%%%%%%%%%%%%%%%%%%%%%%%%%",
"%%%%%%%%%%%%%%%%%%%%%%%%%.oo.    %%%%%%%%% +++o  %%    %%%%%%%%%%%%%%%%%%%%%%%%%%%%%%%%%%%%%%%%%",
"%%%%%%%%%%%%%%%%%%%%%%%%%    %%%%%%%%%%%%% +o  %%%%%%%%%%%%%%%%%%%%%%%%%%%%%%%%%%%%%%%%%%%%%%%%%",
"%%%%%%%%%%%%%%%%%%%%%%%%%%%%%%%%%%%%%%%%%%%  %%%%%%%%%%%%%%%%%%%%%%%%%%%%%%%%%%%%%%%%%%%%%%%%%%%",
"%%%%%%%%%%%%%%%%%%%%%%%%%%%%%%%%%%%%%%%%%%%%%%%%%%%%%%%%%%%%%%%%%%%%%%%%%%%%%%%%%%%%%%%%%%%%%%%%",
"%%%%%%%%%%%%%%%%%%%%%%%%%%%%%%%%%%%%%%%%%%%%%%%%%%%%%%%%%%%%%%%%%%%%%%%%%%%%%%%%%%%%%%%%%%%%%%%%",
"%%%%%%%%%%%%%%%%%%%%%%%%%%%%%%%%%%%%%%%%%%%%%%%%%%%%%%%%%%%%%%%%%%%%%%%%%%%%%%%%%%%%%%%%%%%%%%%%",
"%%%%%%%%%%%%%%%%%%%%%%%%%%%%%%%%%%%%%%%%%%%%%%%%%%%%%%%%%%%%%%%%%%%%%%%%%%%%%%%%%%%%%%%%%%%%%%%%",
"%%%%%%%%%%%%%%%%%%%%%%%%%%%%%%%%%%%%%%%%%%%%%%%%%%%%%%%%%%%%%%%%%%%%%%%%%%%%%%%%%%%%%%%%%%%%%%%%",
"%%%%%%%%%%%%%%%%%%%%%%%%%%%%%%%%%%%%%%%%%%%%%%%%%%%%%%%%%%%%%%%%%%%%%%%%%%%%%%%%%%%%%%%%%%%%%%%%",
"%%%%%%%%%%%%%%%%%%%%%%%%%%%%%%%%%%%%%%%%%%%%%%%%%%%%%%%%%%%%%%%%%%%%%%%%%%%%%%%%%%%%%%%%%%%%%%%%",
"%%%%%%%%%%%%%%%%%%%%%%%%%%%%%%%%%%%%%%%%%%%%%%%%%%%%%%%%%%%%%%%%%%%%%%%%%%%%%%%%%%%%%%%%%%%%%%%%",
"%%%%%%%%%%%%%%%%%%%%%%%%%%%%%%%%%%%%%%%%%%%%%%%%%%%%%%%%%%%%%%%%%%%%%%%%%%%%%%%%%%%%%%%%%%%%%%%%",
"%%%%%%%%%%%%%%%%%%%%%%%%%%%%%%%%%%%%%%%%%%%%%%%%%%%%%%%%%%%%%%%%%%%%%%%%%%%%%%%%%%%%%%%%%%%%%%%%"
};
