/* XPM */
static char *sprite_556_back[] = {
/* columns rows colors chars-per-pixel */
"96 96 14 1 ",
"  c #101010",
". c #083931",
"X c #204A20",
"o c #186252",
"O c #837310",
"+ c #B43173",
"@ c #108B73",
"# c #419C4A",
"$ c #5AD56A",
"% c #B49C10",
"& c #FFD500",
"* c #CD4A8B",
"= c #E66AA4",
"- c None",
/* pixels */
"------------------------------------------------------------------------------------------------",
"------------------------------------------------------------------------------------------------",
"------------------------------------------------------------------------------------------------",
"------------------------------------------------------------------------------------------------",
"------------------------------------------------------------------------------------------------",
"------------------------------------------------------------------------------------------------",
"------------------------------------------------------------------------------------------------",
"------------------------------------------------------------------------------------------------",
"------------------------------------------------------------------------------------------------",
"------------------------------------------------------------------------------------------------",
"------------------------------------------------------------------------------------------------",
"-------------------------------------------------------+++--------------------------------------",
"------------------------------------------------------+==*+-------------------------------------",
"------------------------------------------------++++--+===*-------------------------------------",
"-----------------------------------------------+====+++====+------------------------------------",
"----------------------------------------------- ======++===+---++++-----------------------------",
"------------------------------------------------ ======+====+++==== ----------------------------",
"-------------------------------------------------  =====%&&%+====== ----------------------------",
"---------------------------------------------------+++==&&&&%====+ -----------------------------",
"--------------------------------------------------+======%&&&=+++-------------------------------",
"-------------------------------------------------+==============++------------------------------",
"-------------------------------------------------+=====++ ===+====+-----------------------------",
"--------------------------------------------------X++++## ==== ====+----------------------------",
"-------------------------------------------------X########+==== === ----------------------------",
"-------------------------------------------------OO####### ====+   -----------------------------",
"-----------------------------------------------OO&&O####### ==+X--------------------------------",
"---------------------------------------------- %%%%%########  #X--------------------------------",
"-----------------------------------------------  %% ########$$X---------------------------------",
"-----------------++-----++-----------------------  ########OO$X---------------------------------",
"----------------+==+---+== ----------------------X########O%&OX---------------------------------",
"----------------+===+-+=== -------------------  -X########%&&&O---------------------------------",
"---------------- ===+-+=== ------------------- o ###X.#### &&&& --------------------------------",
"---------------- ====+=== -----OO------------- ooX#Xo.###$$X    --------------------------------",
"----------------- ===+===XXXX-O&O--------------XooXooo.#$$X-------------------------------------",
"---------------+++===*=XX$$$$O&&O------------XXXoooooo.#....-----.o-----------------------------",
"--------------+***+=**X#$$$$$O&&OX---.-----XX$$# oooooo.@@@X-----.@o----------------------------",
"-------------+*******X###$$$$$OO$$X-.@o---X$$$$$#XXooo@@@XX-----.@@@o---------------------------",
"------------- *******X####$$$$$$$$$X.@@o-X$$$$$$###XXXXXX-------.OO@o--O------------------------",
"--------------  **** #######$$$$$###.@@@X#$$$$$##########X------.O&O@oO&O-----------------------",
"----------------  ** ###############.o@@ $$$$############$X-.ooooO&&@@&&O-----------------------",
"----------------+*** ###########XXXXoooX#################$X-.@@@@O&&O#X&O-----------------------",
"---------------+**** ###########.ooooooX#################$$X-.@@@O&&O$#XO-----------------------",
"---------------+***+* ###########.XoooX###################$X  .@@XOO$$$Xo.----------------------",
"--------------+****+* #############.XoX###################$ #$$.@X##$$##X@o---------------------",
"-------------- ** +-+*  ####OO#####.oo ################### $$$$.@X##OO##X@@ --------------------",
"---------------  ----++- XXO%%O#XX.oo. ################## $$$$$$o@XO&&O#X@ ---------------------",
"---------------------------O%%XX--.o.- ################## $$$$$o@@@O&&OX@ ----------------------",
"---------------------------O%O----..--- ################ $$$$##o@@@@OOX  -----------------------",
"---------------------------OO---------- ################ $$###o@@@@oo@@@ -----------------------",
"---------------------------------------- ############## #$####o@@  ##  @@ ----------------------",
"-----------------------------------------  ###########X ######.  ###### @ ----------------------",
"-------------------------------------------   #####  Xo ##############X-  ----------------------",
"----------------------------- o-------------Xo    XoooX##############X--------------------------",
"----------------------------- @o----#######  XoooooooX#############XX---------------------------",
"----------------------------- @@oXXX$$$$$$$##oooXooooX###########  -----------------------------",
"--------------------------OO @@XX$$$$$$$$$##Xoo  oooX#########   -------------------------------",
"--------------------------O% @X##$$$$$$####Xoo ##XooX##X      ----------------------------------",
"---------------------------X@@X############X  ###XoX##$#X---------------------------------------",
"--------------------------XooX###############X####X###$$X---------------------------------------",
"-------------------------XoooX##############X##########$X---------------------------------------",
"------------------------- oooo############ X###########$X---------------------------------------",
"--------------------------   o #########  -X###########$$X--------------------------------------",
"---------------------------O oo  #####  --X############$$X--------------------------------------",
"--------------------------O%% ooo     ----X#X###########$X--------------------------------------",
"--------------------------    oo..o.-----X#XoX######X###$X--------------------------------------",
"----------------------------- oo.-..-----X#XoX#####XoX##$X--------------------------------------",
"----------------------------- o.-------- oXooX####XooX### --------------------------------------",
"------------------------------.--------- oXoooX###XoooX## --------------------------------------",
"---------------------------------------- oooooX##XooooX#X --------------------------------------",
"---------------------------------------- oooooX#XoooooX#X --------------------------------------",
"---------------------------------------- oooooX#XooooooXo --------------------------------------",
"----------------------------------------- oooooXoooooooo ---------------------------------------",
"----------------------------------------- oooooooooooooo ---------------------------------------",
"------------------------------------------ oooooooooooo ----------------------------------------",
"-----------------------------------------.o  oooooooo  -----------------------------------------",
"---------------------------------------..oooo...ooo  .------------------------------------------",
"--------------------------------------.ooooooooooooooo.-----------------------------------------",
"--------------------------------------    .ooooo  oooooX----------------------------------------",
"----------------------------------------- ooooo --   ooo.---------------------------------------",
"----------------------------------------Xoooo  ------    ---------------------------------------",
"---------------------------------------- oX  ---------------------------------------------------",
"----------------------------------------  ------------------------------------------------------",
"------------------------------------------------------------------------------------------------",
"------------------------------------------------------------------------------------------------",
"------------------------------------------------------------------------------------------------",
"------------------------------------------------------------------------------------------------",
"------------------------------------------------------------------------------------------------",
"------------------------------------------------------------------------------------------------",
"------------------------------------------------------------------------------------------------",
"------------------------------------------------------------------------------------------------",
"------------------------------------------------------------------------------------------------",
"------------------------------------------------------------------------------------------------",
"------------------------------------------------------------------------------------------------",
"------------------------------------------------------------------------------------------------",
"------------------------------------------------------------------------------------------------",
"------------------------------------------------------------------------------------------------"
};
