/* XPM */
static char *sprite_068_front[] = {
/* columns rows colors chars-per-pixel */
"96 96 16 1 ",
"  c black",
". c #524100",
"X c #4A4A62",
"o c #415262",
"O c #BD0000",
"+ c #837329",
"@ c #FF4A39",
"# c #AC9C41",
"$ c #CDC562",
"% c #838B94",
"& c #A4B4B4",
"* c #F6EE9C",
"= c #C5D5DE",
"- c #CDDEEE",
"; c white",
": c None",
/* pixels */
"::::::::::::::::::::::::::::::::::::::::::::::::::::::::::::::::::::::::::::::::::::::::::::::::",
"::::::::::::::::::::::::::::::::::::::::::::::::::::::::::::::::::::::::::::::::::::::::::::::::",
"::::::::::::::::::::::::::::::::::::::::::::::::::::::::::::::::::::::::::::::::::::::::::::::::",
"::::::::::::::::::::::::::::::::::::::::::::::::::::::::::::::::::::::::::::::::::::::::::::::::",
"::::::::::::::::::::::::::::::::::::::::::::::::::::::::::::::::::::::::::::::::::::::::::::::::",
"::::::::::::::::::::::::::::::::::::::::::::::::::::::::::::::::::::::::::::::::::::::::::::::::",
"::::::::::::::::::::::::::::::::::::::::::::::::::::::::::::::::::::::::::::::::::::::::::::::::",
"::::::::::::::::::::::::::::::::::::::::::::::::::::::::::::::::::::::::::::::::::::::::::::::::",
"::::::::::::::::::::::::::::::::::::::::::::::::::::::::::::::::::::::::::::::::::::::::::::::::",
"::::::::::::::::::::::::::::::::::::::::::::::::::::::::::::::::::::::::::::::::::::::::::::::::",
"::::::::::::::::::::::::::::::::::::::::::::::::::::::::::::::::::::::::::::::::::::::::::::::::",
"::::::::::::::::::::::::::::::::::::::::::::::::::::::::::::::::::::::::::::::::::::::::::::::::",
"::::::::::::::::::::::::::::::::::::::::::::::::::::::::::::::::::::::::::::::::::::::::::::::::",
"::::::::::::::::::::::::::::::::::::::::::::::::::::::::::::::::::::::::::::::::::::::::::::::::",
"::::::::::::::::::::::::::::::::::::::::::::::::::::::::::::::::::::::::::::::::::::::::::::::::",
"::::::::::::::::::::::oo::::::::::::::::::::::::::::::::::::: oo::::::::::::::::::::::::::::::::",
"::::::::::::::::::::: ==oo::::::::::::::::#++:::::::::::::: o&==o ::::::::::::::::::::::::::::::",
":::::::::::::::::::o &&==&o::::::::::::::#***.::::::::::::o===&&&% :::::::::::::::::::::::::::::",
"::::::::::::::::::o&&==%&&&o:::::::::#+:#*$###.++::::::::o==&%===&&o::::::::::::::::::::::::::::",
"::::::::::::::::oo==%&=&o&& ::::::::#*$+*$###+**$+::::::: %&o===%&&& :::::::::::::::::::::::::::",
":::::::::::::::o==&=&o&&% % :::::::#*$##*###+*$##$+:::::: %o==&o==&&& ::::::::::::::::::::::::::",
"::::::::::::::o&==%&&&o%% % :::::::+*#+*$##+*$####.::::::: o%&o==&%=&%o:::::::::::::::::::::::::",
":::::::::::::: &&&%%&%o%%  ::::::::.$#+*###+$##++#.:::::::o %%o%&o=&&&o:::::::::::::::::::::::::",
":::::::::::::: &%o&o%%o  %&o:::::::.##.$##+*#+..  .:::::::o&  o%o%%&o%% ::::::::::::::::::::::::",
":::::::::::::: & o% %o  %&& ::::::::.#.##.+$#.%%%o :::::::o&&%  o%% %%% ::::::::::::::::::::::::",
":::::::::::::: % %%  %% %%o:::::::::+. ## .#.%%%%%% :::::::o  %%   %%%o ::::::::::::::::::::::::",
":::::::::::::::o%  %%%%%o :::::::ooo;.o#.%..--%%++%o   ooo:::: %%%%%%%% ::::::::::::::::::::::::",
"::::::::::::::: %%%%%o  % :::::oo%.*;O&+%& O@;++$$ % %%%&&oo:::  %%%o%%% :::::::::::::::::::::::",
":::::::::::::::: %%o %o%%% :::o%&& *$ &&&& OO$**$$# o %&&&&& :::: oo%%%% :::::::::::::::::::::::",
":::::::::::::::::  %%%%%%% ::o%&&&.$*$&&&&*****$.## %o%&&&&&& ::: %%%%%%% ::::::::::::::::::::::",
":::::::::::::::::: %%%%%%%% : &&&&%  ******$+  .##.%%%o%&&&&%o  : &%%%%%%% :::::::::::::::::::::",
":::::::::::::::::::o&%%%%%%% %&&%%%%. $$$+  OO.##.o%%%%%%%%%%o%%  &&%%%%%% :::::::::::::::::::::",
"::::::::::::::::::: &&%%%%%o%%%%%o  .#   @@@@O.## %%%%%%o  %%%%%% &&&%%%%%% ::::::::::::::::::::",
"::::::::::::::::::: &&%%%%o%%%%oo&&& #.O@@@@O.+## %%%%%&&&&o %%%% &&&%%%%%% ::::::::::::::::::::",
"::::::::::::::::::::o&&%%%o%%%o===&&%.$.....+$## o%%%%&&&===& %%% &&&&%%%%% ::::::::::::::::::::",
":::::::::::::::::::: &&%%o%%% ===&&&% $$$$$$$## o%o%%&&&&&===& %%o&&&&%%%%%% :::::::::::::::::::",
":::::::::::::::::::: %&%%%%%%o==&&%oo% ######  ooo%%%&&&&&&&&&& %%o&&&%%%%%% :::::::::::::::::::",
"::::::::::::::::::::: %%%%%% &&&&&&%%oo.    .oo%%%%%%%%&&&&&&&&o%%o&&%%%%%%% :::::::::::::::::::",
":::::::::::::::::::::: o%%%%o&&&%o&&&&%%%%%%%%%%&&&&%%%%%%&&&&%% %%%%%%%%%%% :::::::::::::::::::",
"::::::::::::::::::::::::  %o%&&%o&&&&&&%%%%%%&&&&&&&%%%%%&&&&&&&% %%%%%%%%% ::::::::::::::::::::",
":::::::::::::::::::::::::oo&&&%%o&=&&&&&%%%&&&&&&&&&&o%%&&&&&&&&&& o%%%%%  :::::::::::::::::::::",
":::::::::::::::::::::::: %&&&&&o&===&&&&%%&&&&&&&&&&&o%%&&&&&&%&&&&      :::::::::::::::::::::::",
"::::::::::::::::::::::::o&&&%&&o&====&&&o%&==&&&&&&&&%o%%&&&&&&%&&&% :::::::::::::::::::::::::::",
"::::::::::::::::::::::: &&&%&&&o&====&&&o%&===&&&&&&&o %%%&&&&&%%&&&o:::::::::::::::::::::::::::",
":::::::::::::::::::::::o&&%%&&% &&==&&&&%%&&===&&&&&% % %%%%&&%o%&&&& ::::::::::::::::::::::::::",
"::::::::::::::::::::::o&&&o%%%% %&&&&&&%%o&&&&&&&&&%oo%o %%%%%o%&&&&&& :::::::::::::::::::::::::",
":::::::::::::::::::::o&&&&&oo%%o %&&&&%%%%%&&&&&&%%o %%%o  %% %&&&&&&&o:::::::::::::::::::::::::",
"::::::::::::::::::::: &&&&&&% o : oooo%%%%%%oooo   %%%%% ::  o&&%%&&&&% ::::::::::::::::::::::::",
"::::::::::::::::::::: &&&&%&&% ::: %%%%%%%%%%%%%%%%%%%%o ::: %%%&&&&&%% ::::::::::::::::::::::::",
"::::::::::::::::::::: &&&&&%%o% :: %%%%...%%%%%%%%%%%%% ::: oo%&&&&&%%% ::::::::::::::::::::::::",
"::::::::::::::::::::::o&&&&&&%o ::: o%.*OO#.o%%%%%%%oo ::: o%&&&&&&%%%o:::::::::::::::::::::::::",
":::::::::::::::::::::: %&&&&&&%o :::  *$OO$#.  ooooo   :: %&&&&&&&%%%% :::::::::::::::::::::::::",
"::::::::::::::::::::::: %&&&&&&%% ::.#*+OO+$ $XXXXXXXX : %&&&&&&%%%%o ::::::::::::::::::::::::::",
":::::::::::::::::::::::: %&&&&&&%%o .#$+$$+$.*X$X$X#X#  %%&&&&%%%o  ::::::::::::::::::::::::::::",
"::::::::::::::::::::::::: o&&&&&%%%o.+#$++$#.$XXXXXXX  o%%%&&%%% :::::::::::::::::::::::::::::::",
"::::::::::::::::::::::::::: o&&%%%%    #$$#            %%%%%%%o ::::::::::::::::::::::::::::::::",
":::::::::::::::::::::::::::: %%%%  %%               oo %%%%%%o :::::::::::::::::::::::::::::::::",
"::::::::::::::::::::::::::::: % o&&&&% XXXX       o%%%%o%%%%oo :::::::::::::::::::::::::::::::::",
":::::::::::::::::::::::::::::  %&&&&&&o XXX     o%%%%%% %%%%% o ::::::::::::::::::::::::::::::::",
"::::::::::::::::::::::::::::: &&&&&&&&% XX     o%%%%%%%% o%%%%o ::::::::::::::::::::::::::::::::",
"::::::::::::::::::::::::::::o&&&&&&&&&%o       o%%%%%&&%%%  oo :::::::::::::::::::::::::::::::::",
":::::::::::::::::::::::::::o&&&&&&&&&&oo      ooo%%%&&&&&%%%  ::::::::::::::::::::::::::::::::::",
":::::::::::::::::::::::::::%==&&&&&&%%%%o     o%o%%&&&&&&&&%% ::::::::::::::::::::::::::::::::::",
"::::::::::::::::::::::::::%==&&&&&&%&&%%%o    o%%o%&&&&&&&&&&% :::::::::::::::::::::::::::::::::",
"::::::::::::::::::::::::::%&&&&&&%&&&%%%%  ::: %%%o%&&&&&&&&&&o:::::::::::::::::::::::::::::::::",
":::::::::::::::::::::::::%&&&&&%%&&%%%%o :::::: %%%o%&&&&&&==&% ::::::::::::::::::::::::::::::::",
":::::::::::::::::::::::::%&&&&%%%%%%%% ::::::::: %%%%o&&&&====&o :::::::::::::::::::::::::::::::",
":::::::::::::::::::::::::o&&&%%%%%%%  ::::::::::: o%%%%&&&&===&% :::::::::::::::::::::::::::::::",
"::::::::::::::::::::::::::o&&%%%o   ::::::::::::::: %%%%%%&&&&&%o:::::::::::::::::::::::::::::::",
":::::::::::::::::::::::::: %%%oooooo ::::::::::::::: o%%%o%&&&%o% ::::::::::::::::::::::::::::::",
":::::::::::::::::::::::::::o%%oo%%%o :::::::::::::::::  o%o%%%%o% ::::::::::::::::::::::::::::::",
":::::::::::::::::::::::::::: %%o%%%o :::::::::::::::::::   o%%oo% ::::::::::::::::::::::::::::::",
":::::::::::::::::::::::::::::o%oo%%o ::::::::::::::::::: oo oooo% ::::::::::::::::::::::::::::::",
"::::::::::::::::::::::::::::: o%ooo ::::::::::::::::::::: ooooooo:::::::::::::::::::::::::::::::",
":::::::::::::::::::::::::::::: oooo ::::::::::::::::::::: oooooo :::::::::::::::::::::::::::::::",
":::::::::::::::::::::::::::::ooooooo ::::::::::::::::::::: ooooo :::::::::::::::::::::::::::::::",
"::::::::::::::::::::::::::ooo%%oooooo ::::::::::::::::::::: oooo :::::::::::::::::::::::::::::::",
"::::::::::::::::::::::::oo&&%%%%%ooooo :::::::::::::::::::: oo%%o ::::::::::::::::::::::::::::::",
":::::::::::::::::::::::: %%% o&&%%oooo ::::::::::::::::::: oo%%%%%o:::::::::::::::::::::::::::::",
":::::::::::::::::::::::::   &&&%oo    :::::::::::::::::::: o%&oo%&&oo:::::::::::::::::::::::::::",
"::::::::::::::::::::::::::: %%%   ::::::::::::::::::::::::: %%&&o%&&& ::::::::::::::::::::::::::",
"::::::::::::::::::::::::::::   ::::::::::::::::::::::::::::: %%%o %%% ::::::::::::::::::::::::::",
":::::::::::::::::::::::::::::::::::::::::::::::::::::::::::::    :   :::::::::::::::::::::::::::",
"::::::::::::::::::::::::::::::::::::::::::::::::::::::::::::::::::::::::::::::::::::::::::::::::",
"::::::::::::::::::::::::::::::::::::::::::::::::::::::::::::::::::::::::::::::::::::::::::::::::",
"::::::::::::::::::::::::::::::::::::::::::::::::::::::::::::::::::::::::::::::::::::::::::::::::",
"::::::::::::::::::::::::::::::::::::::::::::::::::::::::::::::::::::::::::::::::::::::::::::::::",
"::::::::::::::::::::::::::::::::::::::::::::::::::::::::::::::::::::::::::::::::::::::::::::::::",
"::::::::::::::::::::::::::::::::::::::::::::::::::::::::::::::::::::::::::::::::::::::::::::::::",
"::::::::::::::::::::::::::::::::::::::::::::::::::::::::::::::::::::::::::::::::::::::::::::::::",
"::::::::::::::::::::::::::::::::::::::::::::::::::::::::::::::::::::::::::::::::::::::::::::::::",
"::::::::::::::::::::::::::::::::::::::::::::::::::::::::::::::::::::::::::::::::::::::::::::::::",
"::::::::::::::::::::::::::::::::::::::::::::::::::::::::::::::::::::::::::::::::::::::::::::::::",
"::::::::::::::::::::::::::::::::::::::::::::::::::::::::::::::::::::::::::::::::::::::::::::::::",
"::::::::::::::::::::::::::::::::::::::::::::::::::::::::::::::::::::::::::::::::::::::::::::::::",
"::::::::::::::::::::::::::::::::::::::::::::::::::::::::::::::::::::::::::::::::::::::::::::::::"
};
