/* XPM */
static char *sprite_371_front[] = {
/* columns rows colors chars-per-pixel */
"96 96 14 1 ",
"  c #010101",
". c #4A5262",
"X c #837352",
"o c #BDA473",
"O c #EEDE6A",
"+ c #5A83AC",
"@ c #62ACE6",
"# c #839494",
"$ c #A49CB4",
"% c #94D5FF",
"& c #D5CDDE",
"* c #F6F6FF",
"= c white",
"- c #000000",
/* pixels */
"------------------------------------------------------------------------------------------------",
"------------------------------------------------------------------------------------------------",
"------------------------------------------------------------------------------------------------",
"------------------------------------------------------------------------------------------------",
"------------------------------------------------------------------------------------------------",
"------------------------------------------------------------------------------------------------",
"------------------------------------------------------------------------------------------------",
"------------------------------------------------------------------------------------------------",
"------------------------------------------------------------------------------------------------",
"------------------------------------------------------------------------------------------------",
"------------------------------------------------------------------------------------------------",
"------------------------------------------------------------------------------------------------",
"------------------------------------------------------------------------------------------------",
"------------------------------------------------------------------------------------------------",
"------------------------------------------------------------------------------------------------",
"------------------------------------------------------------------------------------------------",
"------------------------------------------------------------------------------------------------",
"------------------------------------------------------------------------------------------------",
"------------------------------------------------------------------------------------------------",
"------------------------------------------------------------------------------------------------",
"------------------------------------------------------------------------------------------------",
"------------------------------------------------------------------------------------------------",
"------------------------------------------------------------------------------------------------",
"---------------------------------------###..----------------------------------------------------",
"-------------------------------------..***&&..--------------------------------------------------",
"------------------------------------.******&&&.-------------------------------------------------",
"---------------------------------...#******&&&& ------------------------------------------------",
"--------------------------------#**#******&&&##..-----------------------------------------------",
"-------------------------------#**$$****&&&##**&$.----------------------------------------------",
"------------------------------#***#****&&&.****&&$ ---------------------------------------------",
"------------------------------#**&#***&&&.***&&&&$$ --------------------------------------------",
"------------------------------#**&#***&&.$&&&&&&&$$ --------------------------------------------",
"------------------------------#&*&.**&&&.&&&&&&$$$$$ -------------------------------------------",
"-------------------------------#&&.&&&&.$&&&$$$$$$$$ -------------------------------------------",
"-------------------------------#$&.&&&$.$$$$$...##$$ -------------------------------------------",
"--------------------------------.$.$&$$.$$#...++.#$$ -------------------------------------------",
"---------------------------------.#.$$$#. .&&.++O.$$ -------------------------------------------",
"--------------------------------++..$$+.= &&=.+Ooo.$ -------------------------------------------",
"-------------------------------+@@@@..+@. &=&++O.o. --------------------------------------------",
"-------------------------------+%%%@@@@@@@+..++ooo. --------------------------------------------",
"------------------------------+%%%%%@@@@@@@@@@@+o # --------------------------------------------",
"------------------------------+%%%%%@@@@@@@.@@@@+.# --------------------------------------------",
"------------------------------+@%%%@@@@@@@.=.@@@+.## -------------------------------------------",
"------------------------------+@@@@@@@@@@@.=&.@@@@ #$ ------------------------------------------",
"------------------------------- @@@@@@@@@. && +@@@.#$$ -----------------------------------------",
"-------------------------------- @@@@@@  OOXX.+@@@@.$$$  ---------------------------------------",
"---------------------------------     .OOOOO .+@@@@@..$$$ --------------------------------------",
"----------------------------------- XOOOOX  -.+@@@@@@+.$$ --------------------------------------",
"-------------------------------------X    --- @@@@@@@@@ ..--------------------------------------",
"-------------------------------------------. %%@@@@@@@@@ ---------------------------------------",
"-----------------------------------------..+ %%%%+.@@@@@+ --------------------------------------",
"---------------------------------------..%@ %%%%..%%@@@@@ --------------------------------------",
"--------------------------------------.%%%+ %%%.@%%%+@@@@@ -------------------------------------",
"--------------------------------------.@%@ %%%.%%%%@ @@@@@ -------------------------------------",
"---------------------------------------... %%%.%%@. @@@+++ -------------------------------------",
"----------------------------------------- +%%%@..  @@.+@@@@ ------------------------------------",
"----------------------------------------+ %%@%%%%%@@.%%%@@@ ------------------------------------",
"---------------------------------------+%.%@O@%%%%%@+%%%%@@@ -----------------------------------",
"--------------------------------------+%%+%@OO@%%%%.%%%%%@@@ -----------------------------------",
"--------------------------------------+%%+@OOOO+%%@.%%%%%@@+ -----------------------------------",
"--------------------------------------.%%% oOOOo++@.@%%%@@@+ -----------------------------------",
"--------------------------------------.%%%@ oooooo+ @@@@@@@+ -----------------------------------",
"---------------------------------------.@@@@ .ooooo +@@@@@++ -----------------------------------",
"----------------------------------------.+@@@.      ++@@@++ ------------------------------------",
"----------------------------------------+..+@@@ ---- ++++++ ------------------------------------",
"---------------------------------------+%%%@@@+ ----- ++++ -------------------------------------",
"--------------------------------------.%+@%%@  ------- +++. ------------------------------------",
"--------------------------------------   %+  -------- +++++ ------------------------------------",
"----------------------------------------   ---------- +@@@@. -----------------------------------",
"----------------------------------------------------- @%%+%% -----------------------------------",
"------------------------------------------------------ %% %% -----------------------------------",
"-------------------------------------------------------  -  ------------------------------------",
"------------------------------------------------------------------------------------------------",
"------------------------------------------------------------------------------------------------",
"------------------------------------------------------------------------------------------------",
"------------------------------------------------------------------------------------------------",
"------------------------------------------------------------------------------------------------",
"------------------------------------------------------------------------------------------------",
"------------------------------------------------------------------------------------------------",
"------------------------------------------------------------------------------------------------",
"------------------------------------------------------------------------------------------------",
"------------------------------------------------------------------------------------------------",
"------------------------------------------------------------------------------------------------",
"------------------------------------------------------------------------------------------------",
"------------------------------------------------------------------------------------------------",
"------------------------------------------------------------------------------------------------",
"------------------------------------------------------------------------------------------------",
"------------------------------------------------------------------------------------------------",
"------------------------------------------------------------------------------------------------",
"------------------------------------------------------------------------------------------------",
"------------------------------------------------------------------------------------------------",
"------------------------------------------------------------------------------------------------",
"------------------------------------------------------------------------------------------------",
"------------------------------------------------------------------------------------------------",
"------------------------------------------------------------------------------------------------",
"------------------------------------------------------------------------------------------------"
};
