/* XPM */
static char *sprite_578_front[] = {
/* columns rows colors chars-per-pixel */
"96 96 12 1 ",
"  c #101010",
". c #733939",
"X c #317B4A",
"o c #637B63",
"O c #B54242",
"+ c #429C63",
"@ c #5AB57B",
"# c #9CBD8C",
"$ c #84DEA5",
"% c #C6DEB5",
"& c #E7FFDE",
"* c #000000",
/* pixels */
"************************************************************************************************",
"************************************************************************************************",
"************************************************************************************************",
"************************************************************************************************",
"************************************************************************************************",
"************************************************************************************************",
"************************************************************************************************",
"************************************************************************************************",
"************************************************************************************************",
"************************************************************************************************",
"************************************************************************************************",
"************************************************************************************************",
"************************************************************************************************",
"************************************************************************************************",
"************************************************************************************************",
"************************************************************************************************",
"************************************************************************************************",
"************************************************************************************************",
"************************************************************************************************",
"************************************************************************************************",
"************************************************************************************************",
"************************************************************************************************",
"************************************************************************************************",
"************************************************************************************************",
"************************************************************************************************",
"************************************************************************************************",
"************************************************************************************************",
"************************************************************************************************",
"************************************************************************************************",
"************************************************************************************************",
"************************************************++++********************************************",
"*********************************************+++@@@@++******************************************",
"*******************************************++@@@@@@@@@++****************************************",
"******************************************+@@@@@ooo@@@@@X***************************************",
"*****************************************+@@@@oo%%%oo@@@@X**************************************",
"****************************************+@@@@o%%%%%%#o@@@@X*************************************",
"****************************************X@@@o%%%%%%###o@@@X*************************************",
"***************************************X@@@@o%%%%%%### @@@@X************************************",
"***************************************X@@@@@oo%%%##  @@@@@X************************************",
"*************************************XX@@@@@@@@     @@@@@@@X************************************",
"***********************************XX@@@@@@@@@@@@@@@@@@@@@@X************************************",
"*********************************+X@@$&$@@@@oooo  @@@@@@@@@@+***********************************",
"********************************+@@@&&&&@ooo%%  %%  @@@@@@@@@X**********************************",
"*******************************+@@@&&&&oo%%%% %%%%%%  @@@@@@@@X*********************************",
"******************************+@@@@$&$o%%%%% %%%%%%%%% @@@@@@@@X********************************",
"******************************X@@@@@@ %%%%%% %%%%%%%%%%o@@@@@@@@X*******************************",
"*****************************X@@@@@@ %%%%%% %%%%%%%%%%%%o@@@@@@@X*******************************",
"*****************************X@@@@@@ %%%%%% %%%%%%%%%%%%%o@@@@@@@X******************************",
"****************************X@@@@@@ %# #%%oo%%%%%%%%%%%%%o@@@@@@@X******************************",
"****************************X@@@@@@ %  o%#O.%%%%%%%%%%%%%%o@@@@@@@X*****************************",
"****************************X@@@@@@ %  #%.OO#%%%# #%%%%%%% @@@@@@@X*****************************",
"***************************X@@@@@@@ %  %.OOO.%%%   %%%%%%% @@@@@@@X*****************************",
"***************************X@@@@@@@ %#o%%.OOO#%%   %%%%%%# @@@@@@@@X****************************",
"***************************X@@@@@@@@ %%%%#O.%%%%   %%%%%## @@@@@@@@X****************************",
"***************************X@@@@@@@@o#%%%%.%%%%%# #%%#### @@@@@@@@@X****************************",
"***************************X@@@@@@@@@o##%%%%%%%%%######## @@@@@@@@@X****************************",
"***************************X@@@@@@@@@@o  ############### @@@@@@@@@@X****************************",
"***************************X@@@@@@@@@@ #o ###  ######## @@@@@@@@@@@X****************************",
"***************************X@@@@@@@@@@ ## ## ## #####  @@@@@@@@@@@@X****************************",
"****************************X@++@@@@@@ o# ## ##o##   @@@@@@@@@@@@@@X****************************",
"****************************X@@@+@@@@@@ #### o### @@@@@@@@@@@@@@@@X*****************************",
"*****************************X@@@@@@@@@o#####o##o @@@@@+X+@@@@@@@@X*****************************",
"*****************************X$$@@@@@@@@ ####### @@@@@X@@@@+@@@@@@X*****************************",
"****************************X@$$@@@@@@@@o#%%%## @@@@@X@@@@@@+@@@@X******************************",
"****************************X@@@@@@+@@@@@o%%%%o @@@@@X@$$@@@@+@@@X******************************",
"****************************X@@@@@@++@@@@ %%%% @@@@@X@@$$@@@@+@@X*******************************",
"*****************************X@@@@@@+@@@@@ %% @@@@@@X@@@@@@@@@+@X*******************************",
"*****************************X@@@@@@@@@@@@@  @@@@@@@X@@@@@@@@@@X********************************",
"******************************X@@@@@@+@@@@@@@@@@@@@@+@@@@@@@@@X*********************************",
"*******************************XX@@@@@@@@@@@@@@@@@@@@+@@@@@@@@X*********************************",
"*********************************XXXXX@@@@@@@@@@@@@@@+@@@@@@@X**********************************",
"**************************************X@@@@@@@@@@@@@@@@@@@@@@X**********************************",
"***************************************XX@@@@@@@@@@@@@XX@@@@X***********************************",
"*****************************************XXX@@@@@@@XXX**XXXX************************************",
"********************************************XXXXXXX*********************************************",
"************************************************************************************************",
"************************************************************************************************",
"************************************************************************************************",
"************************************************************************************************",
"************************************************************************************************",
"************************************************************************************************",
"************************************************************************************************",
"************************************************************************************************",
"************************************************************************************************",
"************************************************************************************************",
"************************************************************************************************",
"************************************************************************************************",
"************************************************************************************************",
"************************************************************************************************",
"************************************************************************************************",
"************************************************************************************************",
"************************************************************************************************",
"************************************************************************************************",
"************************************************************************************************",
"************************************************************************************************",
"************************************************************************************************"
};
