/* XPM */
static char *sprite_596_back[] = {
/* columns rows colors chars-per-pixel */
"96 96 12 1 ",
"  c #101010",
". c #685038",
"X c #182840",
"o c #383840",
"O c #283878",
"+ c #706868",
"@ c #988018",
"# c #C8A800",
"$ c #F8D850",
"% c #3850B0",
"& c #988098",
"* c #000000",
/* pixels */
"************************************************************************************************",
"************************************************************************************************",
"************************************************************************************************",
"************************************************************************************************",
"************************************************************************************************",
"************************************************************************************************",
"************************************************************************************************",
"************************************************************************************************",
"************************************************************************************************",
"************************************************************************************************",
"************************************************************************************************",
"************************************************************************************************",
"************************************************************************************************",
"************************************************************************************************",
"************************************************************************************************",
"************************************************************************************************",
"************************************************************************************************",
"************************************************************************************************",
"************************************************************************************************",
"************************************************************************************************",
"************************************************************************************************",
"************************************************************************************************",
"************************************************************************************************",
"************************************************************************************************",
"************************************************************************************************",
"***************************************X********************************************************",
"************************************** %X*******************************************************",
"*******************XX*****************X% *******************************************************",
"*******************X%X*************** %% *******************************************************",
"*******************X%X***************X%% *******************************************************",
"******************* %%X**********ooooX%%% ******************************************************",
"*************** XX* O%XX******ooXX$$X%%%% ooo***************************************************",
"*************** OOX O%%X****oo@$ %X$X%%%% $    *************************************************",
"**************** OOOOO%OX**o+@## %%X%%%%%XX% $$oo***********************************************",
"**************** OOOOOO%X*o++### %%%%%%%%X%% &&##oo************* .******************************",
"*****************XOOOOOOOX++@### %%%%%%%%%%% &&&&&&o**.********* $.*****************************",
"******************XOOOOOOOX+#### %%%%%%%%%%X&&&&&&&oo $ *******.$$#.****************************",
"****************** OOOOOOOO X###XOOO%%%%%%% ###$$$ .o $ *****X..$$$.****************************",
"*******************XOOOOOOO OX### OOOOOO%%% #####$ $.$$$.****X$$$$$$.***************************",
"********************XOOOOOO OOXX+ OOOOOOOO ####### $$$$$ *****.$$$$$.***************************",
"*********************XOOOOOX OOOX OOOOOOOO ####@+++ $$$$ ..**** $$$$$.**************************",
"********************* OOOOOO OOOO OOOOOOOO X #@++++ $$$$ $$...*X$$$$$$ *************************",
"**********************XOOOOOOOOOOXOOOOOOOOOOX@+  +  $$$$$.$$$$.XO$$$$$.*************************",
"*********************XOOOOOOOOOOOOOOOOOOOOOOOX O  O #$$$$ #$$$$ OX#$$## ************************",
"********************XOOOOOOOOOOOOOOOOOOOOOOOOXOOO O ##$$# ###$$ OX###### ***********************",
"********************* X OOOOOOOOOOOOOOOOOOOOOOOO OO ##### #### OOX ##### @@@********************",
"***********************  OOOOOOOOOOOOOOOOOOOOOOOXOO ######.### O * ###### $$@@@*****************",
"************************ OOOOOOOOOOOOOOOOOOOOOO OO  ###### ## OO o ####### $$##..***************",
"**********************..@ OOOOOOOOOOOOOOOOOOOOOXO O ###### #.OO $o* #######. #### **************",
"*********************.@@@@ OOOOOOOOOOOOOOOOOOOOX OO ###### ++O .#o* #########.## ***************",
"******************** @@@@@@ OOOOOOOOOOOOOOOOOOOOOOO ####### ++++o*.O ######### @$.**************",
"******************** @@@@@@@  OOOOOOOOOOOOOOOOOOOOO ######## +++o XO #########@ ..**************",
"*******************.@@@@@@@@@.   OOOOOOOOOOOOOOOOX ########## +X OO ########### ****************",
"******************* @@@@@@@@@@.**   OOOOOOOOOXXXX* ########## XOOOX ##########. ****************",
"******************* @@@@@@@@@@.*****         @.** ############ XX * ############ ***************",
"******************* .@@@@@@@@@.****** @@@@@@@.*** ############ **** ########### ****************",
"******************.@ @@@@@@@@@.*******.@@@@@@@.** ############ ***** ######## ## ***************",
"******************.@@@@@@@@@@.******** @ @.  @ ** ########### ******* ####.##X   ***************",
"******************   .@@@.@@ *********  O OO   ***.########## ******* #.##O.#X******************",
"*********************X@@  .@ *********** OO ****** #.########.*******   # OOO ******************",
"*********************XXOO    ************  ******** .#########.********  OOOO ******************",
"**********************XO **************************.###.##O#.#.*********** OO*******************",
"**********************  *************************** #. OO#OX*XX************ X*******************",
"***************************************************  *XOOOX*************************************",
"******************************************************* OO *************************************",
"*******************************************************XOO *************************************",
"******************************************************** X**************************************",
"************************************************************************************************",
"************************************************************************************************",
"************************************************************************************************",
"************************************************************************************************",
"************************************************************************************************",
"************************************************************************************************",
"************************************************************************************************",
"************************************************************************************************",
"************************************************************************************************",
"************************************************************************************************",
"************************************************************************************************",
"************************************************************************************************",
"************************************************************************************************",
"************************************************************************************************",
"************************************************************************************************",
"************************************************************************************************",
"************************************************************************************************",
"************************************************************************************************",
"************************************************************************************************",
"************************************************************************************************",
"************************************************************************************************",
"************************************************************************************************",
"************************************************************************************************",
"************************************************************************************************",
"************************************************************************************************",
"************************************************************************************************",
"************************************************************************************************",
"************************************************************************************************",
"************************************************************************************************"
};
