/* XPM */
static char *sprite_296_back[] = {
/* columns rows colors chars-per-pixel */
"96 96 13 1 ",
"  c #101010",
". c #7B5A39",
"X c #394141",
"o c gray32",
"O c #7B7B7B",
"+ c #C54A7B",
"@ c #A48341",
"# c #DEB462",
"$ c #FFDE6A",
"% c #EEC573",
"& c #DE6A8B",
"* c #FFEE8B",
"= c #000000",
/* pixels */
"================================================================================================",
"================================================================================================",
"================================================================================================",
"================================================================================================",
"================================================================================================",
"================================================================================================",
"================================================================================================",
"================================================================================================",
"================================================================================================",
"================================================================================================",
"================================================================================================",
"================================================================================================",
"================================================================================================",
"================================================================================================",
"================================================================================================",
"================================================================================================",
"================================================================================================",
"================================================================================================",
"================================================================================================",
"================================================================================================",
"================================================================================================",
"================================================================================================",
"================================================================================================",
"======================================....============....======================================",
"====================================== $$$..=======...$$$ ======================================",
"====================================== #$$$$.=...=.$$$$$# ======================================",
"======================================= #%$$$.**$.$$$%%# =======================================",
"======================================= ###%.%%$@@$%#### =======================================",
"======================================== ###.##%.###### ========================================",
"========================================= ##.###.##### =========================================",
"==========================================   ###.###  ==========================================",
"========================================..$$$ ###   $$@@========================================",
"=======================================.$$%###   ##%$$**@=======================================",
"======================================.$%############%$**@======================================",
"=====================================.$################$**@=====================================",
"==================================== %##################$$$.====================================",
"=================================== ####################%$$$ ===================================",
"=================================== #####################$$$ ===================================",
"================================== ######################%$$& ==================================",
"================================== ######################%$&+ ==================================",
"================================== #######################+&+ ==================================",
"================================== #######################+&# ==================================",
"================================== ######################++#$ ==================================",
"=================================== #####################++# ===================================",
"=================================== #####################++# ===================================",
"==================================== #####################+ ====================================",
"===================================.. #################### @====================================",
"=================================  $$o  ################  $$@@==================================",
"===============================  $$$$@oo   ##########   O$$$$$@@================================",
"============================== #$$$%##ooooo          ooo@#%$$$$$.===============================",
"============================= $$%##.###oooooooooooooooo@###$$$$$$.==============================",
"============================ $####.#####@oooooooooooo@######$$$$$$.=============================",
"=========================== @####.########@ooooooo@@######.##%$$$$$.============================",
"========================== o##### #########################@###%$$%#.===========================",
"========================== o#### ###########################.#######.===========================",
"========================= oo@### ############################.#######.==========================",
"========================= ooo@# ############################# @###@oo.==========================",
"======================== oooooo ############################## #@ooooo =========================",
"======================== ooooXX ############################## .oooooo =========================",
"======================== oooooo ############################### ooooooo ========================",
"======================== oooooo ##############################  ooooooo ========================",
"======================== oooooo ############################# X ooooooo ========================",
"========================= ooooo #############################XoXooooooo ========================",
"========================== Xooo ############################ oooooooooo ========================",
"============================   = ########################### oooooooooo ========================",
"================================ ########################### ooooooooo =========================",
"================================= ########################## ooooooooX =========================",
"==================================  ######@.    @############ oooooo  ==========================",
"=================================.##       =====  @###########X     ============================",
"=================================.####### ========  @#######  ==================================",
"================================== #####. ==========        $$.=================================",
"===================================     ============.########$ =================================",
"=====================================================..#####  ==================================",
"=======================================================     ====================================",
"================================================================================================",
"================================================================================================",
"================================================================================================",
"================================================================================================",
"================================================================================================",
"================================================================================================",
"================================================================================================",
"================================================================================================",
"================================================================================================",
"================================================================================================",
"================================================================================================",
"================================================================================================",
"================================================================================================",
"================================================================================================",
"================================================================================================",
"================================================================================================",
"================================================================================================",
"================================================================================================",
"================================================================================================",
"================================================================================================",
"================================================================================================",
"================================================================================================"
};
