/* XPM */
static char *sprite_002_back[] = {
/* columns rows colors chars-per-pixel */
"96 96 13 1 ",
"  c #101010",
". c #7B3129",
"X c #104A3A",
"o c #10424A",
"O c #317B52",
"+ c #D6425A",
"@ c #FF7B7B",
"# c #63AD5A",
"$ c #7BD673",
"% c #219484",
"& c #5ACEBD",
"* c white",
"= c None",
/* pixels */
"================================================================================================",
"================================================================================================",
"================================================================================================",
"================================================================================================",
"================================================================================================",
"================================================================================================",
"================================================================================================",
"================================================================================================",
"================================================================================================",
"================================================================================================",
"================================================================================================",
"================================================================================================",
"================================================================================================",
"================================================================================================",
"================================================================================================",
"================================================================================================",
"================================================================================================",
"================================================================================================",
"================================================================================================",
"================================================================================================",
"================================================================================================",
"================================================================================================",
"================================================================================================",
"================================================================================================",
"================================================================================================",
"================================================================================================",
"===========================================..=..================================================",
"========================================.=.++..++===============================================",
"=======================================.@+.+.+.+@+==============================================",
"=======================================.@@@..++.@@.+============================================",
"=======================================+@@@@@.++.@@+.===========================================",
"=======================================+@@@@@@+..@@@@.======OOO=OO==============================",
"=======================================+@@@@@@@@+.@@@@.==OOO$$$O$$O=============================",
"======================================.@@@@@@@@@@@.@@@+.O#$O#$$$OOO=============================",
"======================================.@@@@@@@@@@@@.@@++.##$#OO#$$$X============================",
"===================================== +@@@@@@@@@@@@.@+++.##XO#$$#$$ ============================",
"===================================== @@@@@@@@@@@@@+.++++.X###X$$X =============================",
"==================================== +@@@@@@@@@@@@@+.++++.O####X ===============================",
"==================================== @+@@@@@@@@@@@+++.+++.OX#### oX=============================",
"=============================XXXXX== +@+@+@+@@@@+++++.+++.#OX## %%%X============================",
"=========================XXXX#O##OXX ++@+@+++++++++++.+++.###  %%%%X============================",
"=======================XXOOOOOO##O## ++++++++++++++++.+++.##X%%%%%%&o===========================",
"=====================XOO######OXXX## ++++++++++++++++.++.OXX%XXXX%XXX=XX========================",
"====================XO##O##OX####OXXO ++++++++++++++.+++.XXXXXO##X$$$X#$XX======================",
"==================== ##O##XO####O#OOX ++++++++X++++XX+X+ OOX##OXXXOOOO#$#XX=====================",
"=====================   XX##XO#O#OOOOO +XX+++X#XX+X#O O OXXXXO########OOO#$X====================",
"=========================X  =  XOOOOOOO XOX+XO##OXO#OO  XOOO#######$$$$##OOX====================",
"===============================   OXOOO XOOXXOOOOOOOO OOOOO###X#$$$O$$$O$$##X===================",
"==================================XX  XO XXOX   OOOOXOOOOOO##O#$$$X#$$X$$#$$X===================",
"=================================   OOOOO XXOOOO   XXOOOOXO##X#$$X#$$$X$$XXX====================",
"================================ ###OOOXXXOOOOOOOOO OOOOOX###X   X$$$X&   ======================",
"===============================XXXO##XXOOOOOOOOXXOO XXOO %   %%%%%Xo &&o========================",
"==============================X#####XX##OOOOOOOOO  %%%  %%%%%%%%%%%%&&o=========================",
"============================== XOOOX#######OXOOOOX%%%%%%%%%%%%%%%%%%&&o=========================",
"============================XX####X#X########XXOO %%%%%%%%%%%%%%%%%%%o==========================",
"============================X####O#$#O###O####O  %%%%%%%%%%%%%%%%%o%%o==========================",
"============================ X##O#$$$$#### ####X%%%%%%%%%%o%%%%%%%% o===========================",
"============================ ###O$$$$$$$#X# ## %%%oo%%%%&&% %%%%%%% ============================",
"=========================== ####$$$$$X#$$#X   %%%oooo%%&&&&% %%%oo%% ===========================",
"=========================== ####$$$$$X ##  %%%%%ooooo%%&&&&&%o%ooo%% ===========================",
"=========================== ##X$$X$$$ %  ooo%%%%ooooo%%&&&&&&o%oo%%&&o==========================",
"============================   $$ $$$ %%ooooo%%%%%oo%%%%&&&&&% %%&&&&o==========================",
"==============================o  %   %%%ooooo%%%%%%%%%%%%%&&&& %%&&&&& =========================",
"==============================o%%%%%%%%%%oooo%%%%%%%o%%%%%%&&% %%%&&&& =========================",
"==============================o%%%%o%%%%%ooo%%%%%%%%o%%%%%%%%% %%%&&&& =========================",
"============================== %%%%%oo%%%%o%%%%%%%%o%%%%%%%%%% %%%%&&%* ========================",
"============================== %%%%%%%ooo%%%%%%%oooo%%%%%%%%% = o%%&%  =========================",
"===============================o%%%%%%%o=ooooooo===o%%%%%%%%% ==     ===========================",
"===============================  %%%%% ============= %%%%%%%%*o=================================",
"=================================     ==============  %%%%%%  ==================================",
"=====================================================       ====================================",
"================================================================================================",
"================================================================================================",
"================================================================================================",
"================================================================================================",
"================================================================================================",
"================================================================================================",
"================================================================================================",
"================================================================================================",
"================================================================================================",
"================================================================================================",
"================================================================================================",
"================================================================================================",
"================================================================================================",
"================================================================================================",
"================================================================================================",
"================================================================================================",
"================================================================================================",
"================================================================================================",
"================================================================================================",
"================================================================================================",
"================================================================================================",
"================================================================================================",
"================================================================================================",
"================================================================================================",
"================================================================================================"
};
