/* XPM */
static char *sprite_119_back[] = {
/* columns rows colors chars-per-pixel */
"96 96 13 1 ",
"  c #101010",
". c #52525A",
"X c #5A5A62",
"o c #943118",
"O c #C54129",
"+ c #E67341",
"@ c #F67B5A",
"# c #8B7B83",
"$ c #FFDEBD",
"% c #FFC5CD",
"& c #DEDEE6",
"* c #F6F6FF",
"= c #000000",
/* pixels */
"================================================================================================",
"================================================================================================",
"================================================================================================",
"================================================================================================",
"================================================================================================",
"================================================================================================",
"================================================================================================",
"================================================================================================",
"================================================================================================",
"================================================================================================",
"================================================================================================",
"================================================================================================",
"================================================================================================",
"================================================================================================",
"================================================================================================",
"================================================================================================",
"========================================================########================================",
"==============######=================================###********#===============================",
"=============#******###============================##********#**#===============================",
"============#**********##========================##**&&&#&&&#&&*#===============================",
"============#************#=====================##**&#&&&#&&&#&&&#===============================",
"============#********##***#===================#*&&&&#&&#&&&#&&&#=========###====================",
"=============#*******..#***#=================#&&&&&#&&&#&&&#&&&#=======##**#====================",
"=============#********..#***#===============#&&#&&&#&     oooOO#=====##***#=====================",
"==============#*******...****#=============#&&&#&&   ......++++OO==##**$$#======================",
"===######======#*******.******#===========#&&&#&         ..++++++OO**$$$$ ======================",
"==#&&&&&&###====X***********#**#=========#&&&&              OO+++++O$$$$ =======================",
"=#&&&&&&&&&&###==X&&********.#*X========#&&#&               oOOO++++O$$ ========================",
"=#&&&&&##&&&&&&##=X&&&******..**X=======#&&#        oo       OOOOoOO+O##========================",
"=#&&&&####&&&&&&&##X&&&&********X======#&&&          OO      OOOo&**O+O=========================",
"==#&&&&##&&&&##&&&&#X##&&&*******X=====#&&           OOO     oOO&*..&OO=========================",
"===#&&&&&&&&&###&&&&&X&##&&&*****X======#      oOo    OOO     Oo*. **&+O========================",
"====##&&&&&&&&&&&&&&&X&&&##&&&***&X===== OOo     OOo  OOOO    Oo*  &&.+O========================",
"======#&&&&#####&&&&&&X&&&&#&&&&&&X==== OOOOOo    OOOOOOOOo   Oo*     *O========================",
"=======#&&&&&&&&####&&X&&&&&##&&&&&X===oOOOOOOOo  OOOOo  OO   Oo&.    *+O=======================",
"========#&&&&&&&&&&&##&X&&&&&&#&&&&X== OOOOOOOOOOOOOOO   OOo  oo&*.  .&+o=======================",
"========#&&&&&&&&&&&&&#X&&&&&&&#&&&&X=oOOOOo OOOO  oOOO oOOO   Oo&*..&O+o=======================",
"=========#&&&&&&&&&&&&&X&.#&&&&&#&&&&XOOOOO  OOOo   OOOOOOOO   OOo&&&oOOOo======================",
"=========#&&&###&&###&&X&..&&&&&&#&&&XOOOOOOOOOO   oOOOOOOOOo  OOOoooOOOo% =====================",
"=========#&&&####&&&&##X&&&&&&&&&&#&&&+OOOOOOOOOOOOOOOo  OOOO  O     oOo@% =====================",
"=========#&&&&###&&&&&#X&&#####&&&&#&&&OOOOOOOOOOOOOOO   OOOOo Oo   oOo@OO.=====================",
"=========#&&&&&&&&&&&&X*****#..##&&&&&&OOOOOOOOOOOOOOOOOOOOOOOoOOooooOoOo*.=====================",
"========#&&&&&&&&&&&&&X*****#....##&&&&+OOOOOOOOOOOOOOOOOOOOOOOO    OOo@@O======================",
"========#&&&&&##&&&&&&X*******#..&&##&&&OOOOOOOOOOOOOOOOOOOOOOOOo  OOOOo@o======================",
"=======#&&&&&&##&&&&&&X**********&&&&&&&OOOOOOOOOOOOOOOOOOOOOOOOOOOOOO++ =======================",
"=======#&&&&&&&&&&&&&X*************&&&&&+OOOOOOOOOOOOOOOOOOOOOO###OOO+&* =======================",
"=======#&&&&&&&&&&&&&X**************&&&&#&&&+OOOOOOOOOOOOOOOOO#&&&##+&&* =======================",
"=======#&&&&&&&&&&###X**************&&&&X&&&&&+OOOOOOOOOOOOOO#&&&&&*##& ========================",
"=======#&&&&&#####&&&X**********###&&&&&X&&&&&&&+OOOOOOOOOOOO#&&&&&#&*# ========================",
"=======#&&&&&&&&&&&&&X****##*###&&&&&&&&&X&&&&&&&&+OOOOOOOOOOX&&.#&*#&*#========================",
"========#&&&&&&&&&&&&X***##..&&&&&&&&&&&&X&&&&&&&&&&+OOOOOOOOX&&..#&*#&*#=======================",
"========#&&&&&&&&&&&&&X**#...&&&&&&&&&&&&&X&&&&&&&&&&&&+OOOOOOX&#.&&**#&*#======================",
"=========#&&&&&&&&&&&&X&&&##&&&&&&&&&&&&&&X&&&&&&&&&&&&&&&+OOOX&&&&&&*#&**#=====================",
"==========#####&&&&&&&#X&&&&&&&&&###&&&&&&X&&&&&&&&&&&&&&&&+OOX&&#&&&**#**#=====================",
"===============#######==XX&&&&XX#&&&#&&&&&#X X&&&&&&&&&&&&&+OOX&&#&&&&*#&#======================",
"==========================XXXX&&&&&&#&&*&&#X== X&&&&&&&&&&&+OOX&&&#&&&**#=======================",
"===========================#&&&#&&&#&&**&&#X====  X&&&&&&&+O X&&&&#&&#&*X=======================",
"==========================#&&&#&&&&X&***&#&X=======         =X&&&&#&&.#*X=======================",
"========================##&&&#&&&&X*****&#&X================X&&&&&#&&..*X=======================",
"=======================#&&###&&&&X******&#&X===============X&&&&&&#&&&&*X=======================",
"======================#&&&##&&&&X*******#&&X==============X&&&&&&#XX&&#X========================",
"=====================#&&&#&&&&&X********#&X================XX&&&&X==XX==========================",
"====================#&&&#&&&&&X********#&&X==================XXXX===============================",
"====================#&&&&&&&&&X********#&&X=====================================================",
"====================#&&&&&&&&X*******&&&&&X=====================================================",
"====================#&&&&&&&#X****&&&#&&&&X=====================================================",
"=====================#&&&&&##X&&&&&#..#&&X======================================================",
"======================#&&&&&&X&&&&&#..#&&X======================================================",
"=======================##&&&##X&&&&&##&&X=======================================================",
"=========================###===X&&&&&&&X========================================================",
"================================XX&&&&X=========================================================",
"==================================XXXX==========================================================",
"================================================================================================",
"================================================================================================",
"================================================================================================",
"================================================================================================",
"================================================================================================",
"================================================================================================",
"================================================================================================",
"================================================================================================",
"================================================================================================",
"================================================================================================",
"================================================================================================",
"================================================================================================",
"================================================================================================",
"================================================================================================",
"================================================================================================",
"================================================================================================",
"================================================================================================",
"================================================================================================",
"================================================================================================",
"================================================================================================",
"================================================================================================",
"================================================================================================",
"================================================================================================",
"================================================================================================"
};
