/* XPM */
static char *sprite_160_back[] = {
/* columns rows colors chars-per-pixel */
"96 96 15 1 ",
"  c #101010",
". c #6A5200",
"X c #830008",
"o c #CD2939",
"O c #F6525A",
"+ c #CDBD62",
"@ c #294A8B",
"# c #398BCD",
"$ c #5AB4F6",
"% c #FF8B83",
"& c #FFE68B",
"* c #8BD5FF",
"= c #C5C5C5",
"- c white",
"; c None",
/* pixels */
";;;;;;;;;;;;;;;;;;;;;;;;;;;;;;;;;;;;;;;;;;;;;;;;;;;;;;;;;;;;;;;;;;;;;;;;;;;;;;;;;;;;;;;;;;;;;;;;",
";;;;;;;;;;;;;;;;;;;;;;;;;;;;;;;;;;;;;;;;;;;;;;;;;;;;;;;;;;;;;;;;;;;;;;;;;;;;;;;;;;;;;;;;;;;;;;;;",
";;;;;;;;;;;;;;;;;;;;;;;;;;;;;;;;;;;;;;;;;;;;;;;;;;;;;;;;;;;;;;;;;;;;;;;;;;;;;;;;;;;;;;;;;;;;;;;;",
";;;;;;;;;;;;;;;;;;;;;;;;;;;;;;;;;;;;;;;;;;;;;;;;;;;;;;;;;;;;;;;;;;;;;;;;;;;;;;;;;;;;;;;;;;;;;;;;",
";;;;;;;;;;;;;;;;;;;;;;;;;;;;;;;;;;;;;;;;;;;;;;;;;;;;;;;;;;;;;;;;;;;;;;;;;;;;;;;;;;;;;;;;;;;;;;;;",
";;;;;;;;;;;;;;;;;;;;;;;;;;;;;;;;;;;;;;;;;;;;;;;;;;;;;;;;;;;;;;;;;;;;;;;;;;;;;;;;;;;;;;;;;;;;;;;;",
";;;;;;;;;;;;;;;;;;;;;;;;;;;;;;;;;;;;;;;;;;;;;;;;;;;;;;;;;;;;;;;;;;;;;;;;;;;;;;;;;;;;;;;;;;;;;;;;",
";;;;;;;;;;;;;;;;;;;;;;;;;;;;;;;;;;;;;;;;;;;;;;;;;;;;;;;;;;;;;;;;;;;;;;;;;;;;;;;;;;;;;;;;;;;;;;;;",
";;;;;;;;;;;;;;;;;;;;;;;;;;;;;;;;;;;;;;;;;;;;;;;;;;;;;;;;;;;;;;;;;;;;;;;;;;;;;;;;;;;;;;;;;;;;;;;;",
";;;;;;;;;;;;;;;;;;;;;;;;;;;;;;;;;;;;;;;;;;;;;;;;;;;;;;;;;;;;;;;;;;;;;;;;;;;;;;;;;;;;;;;;;;;;;;;;",
";;;;;;;;;;;;;;;;;;;;;;;;;;;;;;;;;;;;;;;;;;;;;;;;;;;;;;;;;;o;;;;;;;;;;;;;;;;;;;;;;;;;;;;;;;;;;;;;",
";;;;;;;;;;;;;;;;;;;;;;;;;;;;;;;;;;;;;;;;;;;;;;;;;;;;;;;;;X%o;;;;;;;;;;;;;;;;;;;;;;;;;;;;;;;;;;;;",
";;;;;;;;;;;;;;;;;;;;;;;;;;;;;;;;;;;;;;;;;;;;;;;;;;;;;;;;;X%%o;;;;;;;;;;;;;;;;;;;;;;;;;;;;;;;;;;;",
";;;;;;;;;;;;;;;;;;;;;;;;;;;;;;;;;;;;;;;;;;;;;;;;;;;;;;;;;XO%o;;;;;;;;;;;;;;;;;;;;;;;;;;;;;;;;;;;",
";;;;;;;;;;;;;;;;;;;;;;;;;;;;;;;;;;;;;;;;;;;;;;;;;;;;;;;;;XoO%X;;;;;o;;;;;;;;;;;;;;;;;;;;;;;;;;;;",
";;;;;;;;;;;;;;;;;;;;;;;;;;;;;;;;;;;;;;;;;;;;;;;;;;;;;;;;;XoOOX;;;;X%o;;;;;;;;;;;;;;;;;;;;;;;;;;;",
";;;;;;;;;;;;;;;;;;;;;;;;;;;;;;;;;;;;;;;;;;;;;;;;;;;;;;;;; ooOO ;;;X%o;;;;;;;;;;;;;;;;;;;;;;;;;;;",
";;;;;;;;;;;;;;;;;;;;;;;;;;;;;;;;;;;;;;;;;;;;;;;;;;;;;;;;; ooOO ;;XO%o;;;;;;;;;;;;;;;;;;;;;;;;;;;",
";;;;;;;;;;;;;;;;;;;;;;;;;;;;;;;;;;;;;;;;;;;;;;;;;;XX;;;;XooooOO ;XO%%o;;;;;;;;;;;;;;;;;;;;;;;;;;",
";;;;;;;;;;;;;;;;;;;;;;;;;;;;;;;;;;;;;;;;;;;;;;;;;;XoXX;; oooooO XOOO%o;;;;;;;;;;;;;;;;;;;;;;;;;;",
";;;;;;;;;;;;;;;;;;;;;;;;;;;;;;;;;;;;;;;;;;;;;;;;;;XoooXX ooooooOXOOO%X;;;;;;;;;;;;;;;;;;;;;;;;;;",
";;;;;;;;;;;;;;;;;;;;;;;;;;;;;XX;;;;;;;;;;;;;;;;;;;; ooooXXooooooOOOOOX;;;;;;;;;;;;;;;;;;;;;;;;;;",
";;;;;;;;;;;;;;;;;;;;;;;;;;;;; OX;;;;;;;;;;o;;;;;;;; ooooooooooooooOOOOX;;;;;;;;;;;;;;;;;;;;;;;;;",
";;;;;;;;;;;;;;;;;;;;;;;;;;;;; OOX;;;;;;;;XOo;;;;;;;; ooooooooooo@@@@@OX;;;;;;;;;;;;;;;;;;;;;;;;;",
";;;;;;;;;;;;;;;;;;;;;;;;;;;;; OOOX;;;;;;;XOOo;;;;;;; oooooooXX@@$$$$$@X;;;;;;;;;;;;;;;;;;;;;;;;;",
";;;;;;;;;;;;;;;;;;;;;;;;;;;;;;XOOOXX;;;;;XOOo;;;;;;;; ooooXX#@$$$$$$#$@;;;;;;;;;;;;;;;;;;;;;;;;;",
";;;;;;;;;;;;;;;;;;;;;;;;;;;;;; OOOOOX;;;XOOOOX;;;;;;; oooX##@##$$$ @=#@;;;;;;;;;;;;;;;;;;;;;;;;;",
";;;;;;;;;;;;;;;;;;;;;;;;;;;;;; OOOOOOX;;XOOOOX;;;;;;;; oX#######$@@--@$@;;;;;;;;;;;;;;;;;;;;;;;;",
";;;;;;;;;;;;;;;;;;;;;;;;;;;;;;;XOOOOOO ;XOOOOOX;;;;;;@#X########## --. @;;;;;;;;;;;;;;;;;;;;;;;;",
";;;;;;;;;;;;;;;;;;;;;;;;;;;;;;; oOOOOOO XOOOOOX;;;;;;@############@@-  @;;;;;;;;;;;;;;;;;;;;;;;;",
";;;;;;;;;;;;;;;;;;;;;;;;;;;;;;;;XooOOOOO OOOOooX;;;@@##############@=& #@;;;;;;;;;;;;;;;;;;;;;;;",
";;;;;;;;;;;;;;;;;;;;;;;;;;;;;;;; oooooOOOXXooooX;@@###############@-@@ $$@@;;;;;;;;;;;;;;;;;;;;;",
";;;;;;;;;;;;;;;;;;;;;;;;;;XXX;;; oooooooooooooooX###############...- ##$$$@@;;;;;;;;;;;;;;;;;;;;",
";;;;;;;;;;;;;;;;;;;;;;;;;; ooXXX;XooooooooooooooX##############.++  +.##$$$$@;;;;;;;;;;;;;;;;;;;",
";;;;;;;;;;;;;;;;;;;;;;;;;;;Xoooo  oooooooooooo@@@@############.++++++.@###$$$ ;;;;;;;;;;;;;;;;;;",
";;;;;;;;;;;;;;;;;;;;;;;;;;; oooooo Xoooooooo  $$$$@@@@########.++++++.-@.##@$ ;;;;;;;;;;;;;;;;;;",
";;;;;;;;;;;;;;;;;;;;;;;;;;;; oooooooooooooo $$$$$$###########.+++++++.- +.## ;;;;;;;;;;;;;;;;;;;",
";;;;;;;;;;;;;;;;;;;;;;;;;;;;; oooooooooooX# $$$$$############.++++++++ ++.## ;;;;;;;;;;;;;;;;;;;",
";;;;;;;;;;;;;;;;;;;;;;;;;;;;; XoooooooooX#@$$$$$$############.+++++++++++&#.;;;;;;;;;;;;;;;;;;;;",
";;;;;;;;;;;;;;;;;;;;;;;;;;;;;@ ooooooooX## $$$$$##############.+++++++++&&.;;;;;;;;;;;;;;;;;;;;;",
";;;;;;;;;;;;;;;;;;;;;;;;;;;;@## ooooooo### #$$################.++++++++&&.;;;;;;;;;;;;;;;;;;;;;;",
";;;;;;;;;;;;;;;;;;;;;;;;;;;@### XoooooX###@###########$$@######..+++++++ ;;;;;;;;;;;;;;;;;;;;;;;",
";;;;;;;;;;;;;;;;;;;;;;;;;;; #### ooooo####@##########$$$$@@######..+++  ;;;;;;;;;;;;;;;;;;;;;;;;",
";;;;;;;;;;;;;;;;;;;;;;;;;;; ##### oooX###@###########$$$@**@###       ;;;;;;;;;;;;;;;;;;;;;;;;;;",
";;;;;;;;;;;;;;;;;;;;;;;;;;;; ##### o ####@#######@####$@**** #@@;;;;;;;;;;;;;;;;;;;;;;;;;;;;;;;;",
";;;;;;;;;;;;;;;;;;;;;;;;;;;;;   ## X############# #####@****#  ;;;;;;;;;;;;;;;;;;;;;;;;;;;;;;;;;",
";;;;;;;;;;;;;;;;;;;;;;;;;;;;;;;;  ################  ###@#**@$@*  ;;;;;;;;;;;;;;;;;;;;;;;;;;;;;;;",
";;;;;;;;;;;;;;;;;;;;;;;;;;;;;;;;; ##################  ##@@@$@***$    ;###;;;;;;;;;;;;;;;;;;;;;;;",
";;;;;;;;;;;;;;;;;;;;;;;;;;;;;;;; #####################@#####@***@$@**#@**#@##;;;;;;;;;;;;;;;;;;;",
";;;;;;;;;;;;;;;;;;;;;;;;;;;;;;@ #######@###############  ####@*#@$@*** @***@$#@;;;;;;;;;;;;;;;;;",
";;;;;;;;;;;;;;;;;;;;;;;;;;;;@@$$#######@################$ ####@@#$$@*** @***@$$#@@;;;;;;;;;;;;;;",
";;;;;;;;;;;;;;;;;;;;;;;;;;;@$$$$##@##@@###############@@#@ ########@*** @*** $$$$$@;;;;;;;;;;;;;",
";;;;;;;;;;;;;;;;;;;;;;;;;; $$$###@#@@$$##############@#$@@ #########@@@##   ##$@$$@;;;;;;;;;;;;;",
";;;;;;;;;;;;;;;;;;;;;;;;;; ######@ $$$$############# @#$$ ;  ################$$$@=-@;;;;;;;;;;;;",
";;;;;;;;;;;;;;;;;;;;;;;;;; #####@ $$$$############## #$$$ ;;;   @############$$$$@- ;;;;;;;;;;;;",
";;;;;;;;;;;;;;;;;;;;;;;;;; #####@ $$#################@$$@;;;;;;;    @#####    @=- @ ;;;;;;;;;;;;",
";;;;;;;;;;;;;;;;;;;;;;;;;;; ###@# ###################$@ @;;;;;;;;;;;      ;;;;;@- ;;;;;;;;;;;;;;",
";;;;;;;;;;;;;;;;;;;;;;;;;;@ ###@# ###################$$ ;;;;;;;;;;;;;;;;;;;;;;;;  ;;;;;;;;;;;;;;",
";;;;;;;;;;;;;;;;;;;;;;;;;@# ###### ###################@ ;;;;;;;;;;;;;;;;;;;;;;;;;;;;;;;;;;;;;;;;",
";;;;;;;;;;;;;;;;;;;;;;;;@### #####@###################$@@;;;;;;;;;;;;;;;;;;;;;;;;;;;;;;;;;;;;;;;",
";;;;;;;;; X;;;;;;;;;;;;@#### #####@###################$$$@;;;;;;;;;;;;;;;;;;;;;;;;;;;;;;;;;;;;;;",
";;;;;;;;; OX;;;;;;;;;;;@####@####@##############@####$$$$$@;;;;;;;;;;;;;;;;;;;;;;;;;;;;;;;;;;;;;",
";;;;;;;;; OOX;;;;;;;;;@###@#@####@###################$$$$$$@;;;;;;;;;;;;;;;;;;;;;;;;;;;;;;;;;;;;",
";;;;;;;;; OOoX;;;X;;;;@##@@#####@#############@######$$$$$$@;;;;;;;;;;;;;;;;;;;;;;;;;;;;;;;;;;;;",
";;;;;;;;;; OOX;; OX;;;@## ####################@#######$$$$$$@;;;;;;;;;;;;;;;;;;;;;;;;;;;;;;;;;;;",
";;;;;;;;;; OOOX; OX;;@## $$##################@########$$$$$$@@;;;;;;;;;;;;;;;;;;;;;;;;;;;;;;;;;;",
";;;;;;;XX; OOOO OOOX    $$$$$################@#########$$$$$@$@;;;;;;;;;;;;;;;;;;;;;;;;;;;;;;;;;",
";;;;;;;XoX;XOOOXOOOX@$$$@@$$$$###############@###########$$@$$@;;;;;;;;;;;;;;;;;;;;;;;;;;;;;;;;;",
";;;;;;;XooX OOOOOOOX$$$$$$@$$$$#############@#############@#$$@;;;;;;;;;;;;;;;;;;;;;;;;;;;;;;;;;",
";;;;;;;;Xoo ooOOOooo  #$$$$@$$$#############@#############@##$ ;;;;;;;;;;;;;;;;;;;;;;;;;;;;;;;;;",
";;;;;;;; ooooooooooX$$@@$$$@$$##############@#############@@## ;;;;;;;;;;;;;;;;;;;;;;;;;;;;;;;;;",
";;;;;;;;; ooooooooX$$$$$@$$$@$##############@##############@@ ;;;;;;;;;;;;;;;;;;;;;;;;;;;;;;;;;;",
";;;;;;;;; ooooooXX$$$$$$@$$$@###############@################ ;;;;;;;;;;;;;;;;;;;;;;;;;;;;;;;;;;",
";;;;;;;;;; oooXX$$$$$$$$$@@@################# ############## ;;;;;;;;;;;;;;;;;;;;;;;;;;;;;;;;;;;",
";;;;;;;;@@##XX$$$$$$$################@@@##### ############# ;;;;;;;;;;;;;;;;;;;;;;;;;;;;;;;;;;;;",
";;;;;;;@##########################   ######### ##########@@;;;;;;;;;;;;;;;;;;;;;;;;;;;;;;;;;;;;;",
";;;;;;; ########################  #########@@@ #########@$$@@@@;;;;;;;;;;;;;;;;;;;;;;;;;;;;;;;;;",
";;;;;;;;  ###################   @@@@@@     ;;; ##########$$$$$$@@@;;;;;;;;;;;;;;;;;;;;;;;;;;;;;;",
";;;;;;;;;;   @###########    @@@@@ ;;;;;;;;;; ############$$$$##=-@@;;;;;;;;;;;;;;;;;;;;;;;;;;;;",
";;;;;;;;;;;;;;           @@@@@@   ;;;;;;;;;;; ###############@--@@-=@;;;;;;;;;;;;;;;;;;;;;;;;;;;",
";;;;;;;;;;;;;;;;;;;;;;;;       ;;;;;;;;;;;;;;; ##############@=--=  ;;;;;;;;;;;;;;;;;;;;;;;;;;;;",
";;;;;;;;;;;;;;;;;;;;;;;;;;;;;;;;;;;;;;;;;;;;;;;    ########       ;;;;;;;;;;;;;;;;;;;;;;;;;;;;;;",
";;;;;;;;;;;;;;;;;;;;;;;;;;;;;;;;;;;;;;;;;;;;;;;;;;;        ;;;;;;;;;;;;;;;;;;;;;;;;;;;;;;;;;;;;;",
";;;;;;;;;;;;;;;;;;;;;;;;;;;;;;;;;;;;;;;;;;;;;;;;;;;;;;;;;;;;;;;;;;;;;;;;;;;;;;;;;;;;;;;;;;;;;;;;",
";;;;;;;;;;;;;;;;;;;;;;;;;;;;;;;;;;;;;;;;;;;;;;;;;;;;;;;;;;;;;;;;;;;;;;;;;;;;;;;;;;;;;;;;;;;;;;;;",
";;;;;;;;;;;;;;;;;;;;;;;;;;;;;;;;;;;;;;;;;;;;;;;;;;;;;;;;;;;;;;;;;;;;;;;;;;;;;;;;;;;;;;;;;;;;;;;;",
";;;;;;;;;;;;;;;;;;;;;;;;;;;;;;;;;;;;;;;;;;;;;;;;;;;;;;;;;;;;;;;;;;;;;;;;;;;;;;;;;;;;;;;;;;;;;;;;",
";;;;;;;;;;;;;;;;;;;;;;;;;;;;;;;;;;;;;;;;;;;;;;;;;;;;;;;;;;;;;;;;;;;;;;;;;;;;;;;;;;;;;;;;;;;;;;;;",
";;;;;;;;;;;;;;;;;;;;;;;;;;;;;;;;;;;;;;;;;;;;;;;;;;;;;;;;;;;;;;;;;;;;;;;;;;;;;;;;;;;;;;;;;;;;;;;;",
";;;;;;;;;;;;;;;;;;;;;;;;;;;;;;;;;;;;;;;;;;;;;;;;;;;;;;;;;;;;;;;;;;;;;;;;;;;;;;;;;;;;;;;;;;;;;;;;",
";;;;;;;;;;;;;;;;;;;;;;;;;;;;;;;;;;;;;;;;;;;;;;;;;;;;;;;;;;;;;;;;;;;;;;;;;;;;;;;;;;;;;;;;;;;;;;;;",
";;;;;;;;;;;;;;;;;;;;;;;;;;;;;;;;;;;;;;;;;;;;;;;;;;;;;;;;;;;;;;;;;;;;;;;;;;;;;;;;;;;;;;;;;;;;;;;;",
";;;;;;;;;;;;;;;;;;;;;;;;;;;;;;;;;;;;;;;;;;;;;;;;;;;;;;;;;;;;;;;;;;;;;;;;;;;;;;;;;;;;;;;;;;;;;;;;",
";;;;;;;;;;;;;;;;;;;;;;;;;;;;;;;;;;;;;;;;;;;;;;;;;;;;;;;;;;;;;;;;;;;;;;;;;;;;;;;;;;;;;;;;;;;;;;;;",
";;;;;;;;;;;;;;;;;;;;;;;;;;;;;;;;;;;;;;;;;;;;;;;;;;;;;;;;;;;;;;;;;;;;;;;;;;;;;;;;;;;;;;;;;;;;;;;;",
";;;;;;;;;;;;;;;;;;;;;;;;;;;;;;;;;;;;;;;;;;;;;;;;;;;;;;;;;;;;;;;;;;;;;;;;;;;;;;;;;;;;;;;;;;;;;;;;"
};
