/* XPM */
static char *sprite_290_back[] = {
/* columns rows colors chars-per-pixel */
"96 96 16 1 ",
"  c #010101",
". c #524A4A",
"X c #624A41",
"o c #417B52",
"O c #6A6A62",
"+ c #73AC5A",
"@ c #9C8373",
"# c #AC947B",
"$ c #B4DE73",
"% c #838383",
"& c #CDBD9C",
"* c #BDC5C5",
"= c #CDDECD",
"- c #FFFFEE",
"; c #FFFFF6",
": c #000000",
/* pixels */
"::::::::::::::::::::::::::::::::::::::::::::::::::::::::::::::::::::::::::::::::::::::::::::::::",
"::::::::::::::::::::::::::::::::::::::::::::::::::::::::::::::::::::::::::::::::::::::::::::::::",
"::::::::::::::::::::::::::::::::::::::::::::::::::::::::::::::::::::::::::::::::::::::::::::::::",
"::::::::::::::::::::::::::::::::::::::::::::::::::::::::::::::::::::::::::::::::::::::::::::::::",
"::::::::::::::::::::::::::::::::::::::::::::::::::::::::::::::::::::::::::::::::::::::::::::::::",
"::::::::::::::::::::::::::::::::::::::::::::::::::::::::::::::::::::::::::::::::::::::::::::::::",
"::::::::::::::::::::::::::::::::::::::::::::::::::::::::::::::::::::::::::::::::::::::::::::::::",
"::::::::::::::::::::::::::::::::::::::::::::::::::::::::::::::::::::::::::::::::::::::::::::::::",
"::::::::::::::::::::::::::::::::::::::::::::::::::::::::::::::::::::::::::::::::::::::::::::::::",
"::::::::::::::::::::::::::::::::::::::::::::::::::::::::::::::::::::::::::::::::::::::::::::::::",
"::::::::::::::::::::::::::::::::::::::::::::::::::::::::::::::::::::::::::::::::::::::::::::::::",
"::::::::::::::::::::::::::::::::::::::::::::::::::::::::::::::::::::::::::::::::::::::::::::::::",
"::::::::::::::::::::::::::::::::::::::::::::::::::::::::::::::::::::::::::::::::::::::::::::::::",
"::::::::::::::::::::::::::::::::::::::::::::::::::::::::::::::::::::::::::::::::::::::::::::::::",
"::::::::::::::::::::::::::::::::::::::::::::::::::::::::::::::::::::::::::::::::::::::::::::::::",
"::::::::::::::::::::::::::::::::::::::::::::::::::::::::::::::::::::::::::::::::::::::::::::::::",
"::::::::::::::::::::::::::::::::::::::::::::::::::::::::::::::::::::::::::::::::::::::::::::::::",
"::::::::::::::::::::::::::::::::::::::::::::::::::::::::::::::::::::::::::::::::::::::::::::::::",
"::::::::::::::::::::::::::::::::::::::::::::::::::::::::::::::::::::::::::::::::::::::::::::::::",
"::::::::::::::::::::::::::::::::::::::::::::::::::::::::::::::::::::::::::::::::::::::::::::::::",
"::::::::::::::::::::::::::::::::::::::::::::::::::::::::::::::::::::::::::::::::::::::::::::::::",
"::::::::::::::::::::::::::::::::::::::::::::::::::::::::::::::::::::::::::::::::::::::::::::::::",
"::::::::::::::::::::::::::::::::::::::::::::::::::::::::::::::::::::::::::::::::::::::::::::::::",
"::::::::::::::::::::::::::::::::::::::::::::::::::::::::::::::::::::::::::::::::::::::::::::::::",
"::::::::::::::::::::::::::::::::::::::::::::::::::::::::::::::::::::::::::::::::::::::::::::::::",
"::::::::::::::::::::::::::::::::::::::::::::::::::::::::::::::::::::::::::::::::::::::::::::::::",
"::::::::::::::::::::::::::::::::::::::::::::::::::::::::::::::::::::::::::::::::::::::::::::::::",
"::::::::::::::::::::::::::::::::::::::::::::::::::::::::::::::::::::::::::::::::::::::::::::::::",
"::::::::::::::::::::::::::::::::::::::::::::::::::::::::::::::::::::::::::::::::::::::::::::::::",
"::::::::::::::::::::::::::::::::::::::::::::::::::::::::::::::::::::::::::::::::::::::::::::::::",
"::::::::::::::::::::::::::::::::::::::::::::::::::::::::::::::::::::::::::::::::::::::::::::::::",
"::::::::::::::::::::::::::::::::::::::::::::::::::::::::::::::::::::::::::::::::::::::::::::::::",
"::::::::::::::::::::::::::::::::::::::::::::::::::::::::::::::::::::::::::::::::::::::::::::::::",
":::::::::::::::::::::::::::::::::::::::::::::::::::oo:::::::::::::::::::::::::::::::::::::::::::",
"::::::::::::::::::::::::::::::::::::::::oo:::::::: $$o::::::::::::::::::::::::::::::::::::::::::",
":::::::::::::::::::::::::::::::::::::::o$$o::::::: +$$o:::::::::::::::::::::::::::::::::::::::::",
":::::::::::::::::::::::::::::::::::::::o+++o:::::: $++$o::::::::::::::::::::::::::::::::::::::::",
"::::::::::::::::::::::::::::::::::::::: $$$+o:%%%% $$$+o::::::::::::::::::::::::::::::::::::::::",
":::::::::::::::::::::::::::::::::::::::: $o..%=---- $$$+o%%%::::::::::::::::::::::::::::::::::::",
"::::::::::::::::::::::::::::::::::::::::..=---%%%== ++$$o--=%%::::::::::::::::::::::::::::::::::",
":::::::::::::::::::::::::::::::::::::::.%%%-----=%%= $++$o-;-=%:::::::::::::::::::::::::::::::::",
"::::::::::::::::::::::::::::::::::::::.=--=%%--====%= $$+o-;;;o%::::::::::::::::::::::::::::::::",
":::::::::::::::::::::::::::::::::::::.=-----=%======%  $$o--;+$o::::::::::::::::::::::::::::::::",
":::::::::::::::::::::::::::::::  OO::.=---====%=====%==  o%=;$ +o:::::::::::::::::::::::::::::::",
"::::::::::::::::::::::::::::::.--%=O =========.======%====%==$ +o:::::::::::::::::::::::::::::::",
":::::::::::::::::::::::::::::.---O== ==========.=====%=====.=o$+o:::::::::::::::::::::::::::::::",
"::::::::::::::::::::::::::::.---O:..%%=========.=...==.====.==+=XXXX::::::::::::::::::::::::::::",
"::::::::::::::::::::::::::: =--- :: ==%%=======%.--= =.====%=...#&&&XX::::::::::::::::::::::::::",
"::::::::::::::::::::::::::: =-- :: =====.======.---=% %====%.%%.@&&&&&XX::::::::::::::::::::::::",
":::::::::::::::::::::::::: ===- ::.=====.======.--= == ===% %%%%.@&&&&&&X:::::::::::::::::::::::",
":::::::::::::::::::::::::: === :: =======.====.---= .== == %%    @@#&&&&&X::::::::::::::::::::::",
"::::::::::::::::::::::::: ==== :: =======.====.--= ==.* =% % ::%= @@@#&&&#X:::::::::::::::::::::",
"::::::::::::::::::::::::: ==== :: =======.===.---= ==.*.  % %::.=% @@@@@@@@X::::::::::::::::::::",
":::::::::::::::::::::::: ==== ::: .======.=== --== ==%  :: =%:::.=% @@@@@@@X::::::::::::::::::::",
":::::::::::::::::::::::: ==== ::::     %%==== ===% .  ::::%=%:::.=%:  @@@@@ ::::::::::::::::::::",
":::::::::::::::::::::::: ==== :::::::::.   . ==== @@..:::%==%:::.==%::  @@@ ::::::::::::::::::::",
":::::::::::::::::::::::: ==== O::::::::::::: ==== @.@@.::%=%:::::.=%:::: X :::::::::::::::::::::",
":::::::::::::::::::::::: %===O= :::::::::::: ==== ..X.::::%::::::.=%:::: & :::::::::::::::::::::",
"::::::::::::::::::::::::::      :::::::::::: ==== :::::::::::::::.%:::::  ::::::::::::::::::::::",
":::::::::::::::::::::::::::::::::::::::::::: ==== ::::::::::::::::::::::::::::::::::::::::::::::",
"::::::::::::::::::::::::::::::::::::::::::::: ==.= :::::::::::::::::::::::::::::::::::::::::::::",
"::::::::::::::::::::::::::::::::::::::::::::::     :::::::::::::::::::::::::::::::::::::::::::::",
"::::::::::::::::::::::::::::::::::::::::::::::::::::::::::::::::::::::::::::::::::::::::::::::::",
"::::::::::::::::::::::::::::::::::::::::::::::::::::::::::::::::::::::::::::::::::::::::::::::::",
"::::::::::::::::::::::::::::::::::::::::::::::::::::::::::::::::::::::::::::::::::::::::::::::::",
"::::::::::::::::::::::::::::::::::::::::::::::::::::::::::::::::::::::::::::::::::::::::::::::::",
"::::::::::::::::::::::::::::::::::::::::::::::::::::::::::::::::::::::::::::::::::::::::::::::::",
"::::::::::::::::::::::::::::::::::::::::::::::::::::::::::::::::::::::::::::::::::::::::::::::::",
"::::::::::::::::::::::::::::::::::::::::::::::::::::::::::::::::::::::::::::::::::::::::::::::::",
"::::::::::::::::::::::::::::::::::::::::::::::::::::::::::::::::::::::::::::::::::::::::::::::::",
"::::::::::::::::::::::::::::::::::::::::::::::::::::::::::::::::::::::::::::::::::::::::::::::::",
"::::::::::::::::::::::::::::::::::::::::::::::::::::::::::::::::::::::::::::::::::::::::::::::::",
"::::::::::::::::::::::::::::::::::::::::::::::::::::::::::::::::::::::::::::::::::::::::::::::::",
"::::::::::::::::::::::::::::::::::::::::::::::::::::::::::::::::::::::::::::::::::::::::::::::::",
"::::::::::::::::::::::::::::::::::::::::::::::::::::::::::::::::::::::::::::::::::::::::::::::::",
"::::::::::::::::::::::::::::::::::::::::::::::::::::::::::::::::::::::::::::::::::::::::::::::::",
"::::::::::::::::::::::::::::::::::::::::::::::::::::::::::::::::::::::::::::::::::::::::::::::::",
"::::::::::::::::::::::::::::::::::::::::::::::::::::::::::::::::::::::::::::::::::::::::::::::::",
"::::::::::::::::::::::::::::::::::::::::::::::::::::::::::::::::::::::::::::::::::::::::::::::::",
"::::::::::::::::::::::::::::::::::::::::::::::::::::::::::::::::::::::::::::::::::::::::::::::::",
"::::::::::::::::::::::::::::::::::::::::::::::::::::::::::::::::::::::::::::::::::::::::::::::::",
"::::::::::::::::::::::::::::::::::::::::::::::::::::::::::::::::::::::::::::::::::::::::::::::::",
"::::::::::::::::::::::::::::::::::::::::::::::::::::::::::::::::::::::::::::::::::::::::::::::::",
"::::::::::::::::::::::::::::::::::::::::::::::::::::::::::::::::::::::::::::::::::::::::::::::::",
"::::::::::::::::::::::::::::::::::::::::::::::::::::::::::::::::::::::::::::::::::::::::::::::::",
"::::::::::::::::::::::::::::::::::::::::::::::::::::::::::::::::::::::::::::::::::::::::::::::::",
"::::::::::::::::::::::::::::::::::::::::::::::::::::::::::::::::::::::::::::::::::::::::::::::::",
"::::::::::::::::::::::::::::::::::::::::::::::::::::::::::::::::::::::::::::::::::::::::::::::::",
"::::::::::::::::::::::::::::::::::::::::::::::::::::::::::::::::::::::::::::::::::::::::::::::::",
"::::::::::::::::::::::::::::::::::::::::::::::::::::::::::::::::::::::::::::::::::::::::::::::::",
"::::::::::::::::::::::::::::::::::::::::::::::::::::::::::::::::::::::::::::::::::::::::::::::::",
"::::::::::::::::::::::::::::::::::::::::::::::::::::::::::::::::::::::::::::::::::::::::::::::::",
"::::::::::::::::::::::::::::::::::::::::::::::::::::::::::::::::::::::::::::::::::::::::::::::::",
"::::::::::::::::::::::::::::::::::::::::::::::::::::::::::::::::::::::::::::::::::::::::::::::::",
"::::::::::::::::::::::::::::::::::::::::::::::::::::::::::::::::::::::::::::::::::::::::::::::::",
"::::::::::::::::::::::::::::::::::::::::::::::::::::::::::::::::::::::::::::::::::::::::::::::::"
};
