/* XPM */
static char *sprite_158_front[] = {
/* columns rows colors chars-per-pixel */
"96 96 14 1 ",
"  c #101010",
". c #7B1800",
"X c #CD4120",
"o c #B44A52",
"O c #E67B7B",
"+ c #AC8329",
"@ c #FFC552",
"# c #315A83",
"$ c #3183C5",
"% c #6AB4E6",
"& c #B4B4B4",
"* c #94D5FF",
"= c white",
"- c #000000",
/* pixels */
"------------------------------------------------------------------------------------------------",
"------------------------------------------------------------------------------------------------",
"------------------------------------------------------------------------------------------------",
"------------------------------------------------------------------------------------------------",
"------------------------------------------------------------------------------------------------",
"------------------------------------------------------------------------------------------------",
"------------------------------------------------------------------------------------------------",
"------------------------------------------------------------------------------------------------",
"------------------------------------------------------------------------------------------------",
"------------------------------------------------------------------------------------------------",
"------------------------------------------------------------------------------------------------",
"------------------------------------------------------------------------------------------------",
"------------------------------------------------------------------------------------------------",
"------------------------------------------------------------------------------------------------",
"------------------------------------------------------------------------------------------------",
"------------------------------------------------------------------------------------------------",
"------------------------------------------------------------------------------------------------",
"------------------------------------------------------------------------------------------------",
"------------------------------------------------------------------------------------------------",
"------------------------------------------------------------------------------------------------",
"------------------------------------------------------------------------------------------------",
"------------------------------------------------------------------------------------------------",
"------------------------------------------------------------------------------------------------",
"------------------------------------------------------------------------------------------------",
"------------------------------------------------------------------------------------------------",
"------------------------------------------------------------------------------------------------",
"------------------------------------------------------------------------------------------------",
"------------------------------------------------------------------------------------------------",
"------------------------------------------------------------------------------------------------",
"------------------------------------------------------------------------------------------------",
"-------------------------------------$$$-$##----------------------------------------------------",
"-----------------------------------%%**$$%%%$ --------------------------------------------------",
"----------------------------------%***#%%%%%%% -------------------------------------------------",
"----------------------------------%**#%%%%$$%%#-------------------------------------------------",
"---------------------------------$*%#%%%#$==$%% ------------------------------------------------",
"---------------------------------$%%#%%##===&#% .....-------------------------------------------",
"---------------------------------$%%%%##&o===#$#XXXX.-------------------------------------------",
"-----------------------------%%-#%%%%## =oO==##% XX.--------------------------------------------",
"----------------------------%**##$%%### O o==##% XX.--------------------------------------------",
"---------------------------$**%%%%%%### O o=&#%%#X.---------------------------------------------",
"---------------------------#*%%%%%%%%   & O=$%%%% .---------------------------------------------",
"---------------------------#%%$$%%%%%%%%%%%%%#%%% X..-------------------------------------------",
"--------------------------- %%#%%%# #%%%%%%# %%%%#XXX..-----------------------------------------",
"---------------------------- %%%# ---#       %%%%% XXX ##---------------------------------------",
"----------------------------=   = --- &.ooo. %%%%%   #*#* --------------------------------------",
"---------------------------- ---  --- oooo= %%$%%%$%%%$%# --------------------------------------",
"---------------------------------$-- &oOOOo %%#%+$%%%%%%* --------------------------------------",
"--------------------------------$*$$ oOOOo= %%#+@$%%%%%% ---------------------------------------",
"--------------------------------$**% =OOOo.#%%#@@#%%%%$* ---------------------------------------",
"---------------------------------$* =&OO.= %%#@@@#%%%%$ ----------------------------------------",
"---------------------------------$%   o.==#%%#@@@@$%%% -----. ----------------------------------",
"--------------------------------#%%% %   #%%#+@@@@@## $ ---.X ----------------------------------",
"---------------------------------###%#%%%%% +@@@@++%%$$$ -.XX ----------------------------------",
"--------------------------------------     ++@@++%%$$%$$$ XXX ----------------------------------",
"--------------------------------------# ++ +@@+%%%$%%%#$$$$   #---------------------------------",
"-------------------------------------$% $+ +@+%%%#%%%%%#$$$$$$$ --------------------------------",
"-------------------------------------$%% $+ +%%%%#%%%%%#$$$$$$$ --------------------------------",
"------------------------------------#%%% $$$$$%%#%%%%%%%#$$$$$ ---------------------------------",
"------------------------------------#%$$$#$$$$$%#%%%%%%% $$$# ----------------------------------",
"------------------------------------#$$$$$ #$$$$ $%%%%%%    ------------------------------------",
"-------------------------------------##$$$$$ #$$ $$$%%%$ ---------------------------------------",
"----------------------------------- $ $##$$$ -    $$$$$ ----------------------------------------",
"----------------------------------- %$%$$$# ------ #$$#  ---------------------------------------",
"------------------------------------ #%$# -------- $%$%$% --------------------------------------",
"--------------------------------------  ----------- %#%#% --------------------------------------",
"----------------------------------------------------#    ---------------------------------------",
"------------------------------------------------------------------------------------------------",
"------------------------------------------------------------------------------------------------",
"------------------------------------------------------------------------------------------------",
"------------------------------------------------------------------------------------------------",
"------------------------------------------------------------------------------------------------",
"------------------------------------------------------------------------------------------------",
"------------------------------------------------------------------------------------------------",
"------------------------------------------------------------------------------------------------",
"------------------------------------------------------------------------------------------------",
"------------------------------------------------------------------------------------------------",
"------------------------------------------------------------------------------------------------",
"------------------------------------------------------------------------------------------------",
"------------------------------------------------------------------------------------------------",
"------------------------------------------------------------------------------------------------",
"------------------------------------------------------------------------------------------------",
"------------------------------------------------------------------------------------------------",
"------------------------------------------------------------------------------------------------",
"------------------------------------------------------------------------------------------------",
"------------------------------------------------------------------------------------------------",
"------------------------------------------------------------------------------------------------",
"------------------------------------------------------------------------------------------------",
"------------------------------------------------------------------------------------------------",
"------------------------------------------------------------------------------------------------",
"------------------------------------------------------------------------------------------------",
"------------------------------------------------------------------------------------------------",
"------------------------------------------------------------------------------------------------",
"------------------------------------------------------------------------------------------------",
"------------------------------------------------------------------------------------------------",
"------------------------------------------------------------------------------------------------",
"------------------------------------------------------------------------------------------------"
};
