/* XPM */
static char *sprite_514_back[] = {
/* columns rows colors chars-per-pixel */
"96 96 13 1 ",
"  c black",
". c #7B3131",
"X c #735220",
"o c gray32",
"O c #BD4139",
"+ c #A47B39",
"@ c #E65241",
"# c #CDA45A",
"$ c #FFCD7B",
"% c gray61",
"& c #C5C5C5",
"* c white",
"= c None",
/* pixels */
"================================================================================================",
"================================================================================================",
"================================================================================================",
"================================================================================================",
"================================================================================================",
"================================================================================================",
"================================================================================================",
"================================================================================================",
"================================================================================================",
"================================================================================================",
"================================================================================================",
"================================================================================================",
"================================================================================================",
"================================================================================================",
"================================================================================================",
"================================================================================================",
"================================================================================================",
"================================================================================================",
"================================================================================================",
"===============================================....=============================================",
"=============================================..@@O==============================================",
"============================================.@@@O===============================================",
"===========================================.O@@@.===== ..=======================================",
"=======================================.===.O@@@@..== @@.=======================================",
"======================================.O==.OOO@@@@@. @@.========================================",
"=====================================.@O== OOOOO@@@O @@.========================================",
"===============================....==.@@O. OOOOOOOO.O.@@.=======================================",
"==============================.@@@O.=.O@@@ OOOOOOO.OOOO@@.==.....===============================",
"=============================.@@@@@O.=.O@@@ OOOOOO OOOOO@O..O@@@O.==============================",
"=============================.O@@@OOO OOOO@.OOOOOO OOOOO..OO@@@@@@.=============================",
"============================= OOOOOOO OOOOOOOOOOOOO OOO.OOOOOO@@@O.=============================",
"============================= OOOOOOO OOOOOOOOOOOOOOOO.OOOOOOOOOOOO.============================",
"============================= OOOOOOOO .OOOOOOOOOOOOOO.OOOOOOOOOOOO ============================",
"============================== OOOOOOOO.OOOOOOOOOOOOO.OOOOOOOOOOOOO ============================",
"============================== OOOOOOO.OOOOOOOOOOOOOO.OOOOOOOOOOOO.=============================",
"=============================== OOOOOO.OOOOOOOOOOOOOOOOOOOOOOOOOOO =============================",
"=============================== OOOOOO OOOOOOOOOOOOOOOOOOOOOOOOOO ==============================",
"================================ OOOOO OOOOOOOOOOOOOOOOOOOOOOOOO ===============================",
"=================================  OOO OOOOOOOOOOOOOOO.OOOOOOO  ================================",
"===================================   . OOOOOOOOOOOOOOO.OOOO  ==================================",
"========================================.OOOooooOOOOOOOO    ====================================",
"=========================================o  %%%%o   OOO.========================================",
"=============OO========================oo%%%%%%%%&*%   =========================================",
"=============.@OO=====================o%%%%%%%%%&***%**o%=======================================",
"==============.@@O===================o%%%%%%%%%%&******%*%======================================",
"==============.O@.=================== %%%%%%%%%%%&********o=====================================",
"===============.@@.=========OOO====== %%%%%%%%%%%%%&**%&**o=====================================",
"==============.O@@.=======..@@@O.===== o%%%%%%%%%%%%%%%%% ==========OOO=========================",
"==============.@@@.======XO@@@@@@.==== %%%%%%%%%%%%%%%%% =========.O@@@O.=======================",
"=============.@@@O@..==XX$ @@@@@@@.==== %%o%%o%%%%%%%%%% .=====...@@@O@@O.======================",
"============.O@@@@@@@..$$+X O@@@@@@.==.O  =  # o%%%o %% OO.==..@@@@@@.@OOO.=====================",
"============.@@@@@@@@@@  X$$ .O@@@OO..OOO.= ####   ##  OOOO..O@@@@@@O OOOOOXXX==================",
"===========.@@@@@@@@@@@@  X  $#  .OOOOOO == #########X= OOOOO@@@@@@O OOOO..$$ ==================",
"===========.@@@@@@@@@@@@@ ===  ===.OOO. ===X#########X== OOOOO@@@O....O..#$X ===================",
"===========.@@@@@@@@@@@@@@.========.. === X###########X== OOO    X$  $X$$X$$ ===================",
"============.@@@@@@@@@@@@@.============= ####$$$######$X==   ====  = #$X#$  ====================",
"============.@@@@@@@@@@@@@@.=========== ####$$$$$#####$$X============  =  ======================",
"=============.@@.O@@@@@@@@@.=========== ##O##$@$#######$$.======================================",
"==============..@@@@@@@@@@@.========== O#OO##OO@###.##O#$.======================================",
"=============.O@@@@@@@@@@@@@...======= OOOO#OOOOO#OO.#O.#@.=====================================",
"=============.@@@@@@@@@@@@@@@@O  ===== OOOOOOOOOO.OOO.OO.@.=====================================",
"============.@@@@@@@@@@@@@@@@@@OO ==== OOOOOOOOOOOOOOOOOO@.=====================================",
"============.@@@@@@@@@@@@@@@@@@OOO ====.OOOOOOOOOOOOOOOOO ======================================",
"============ @@@@@@@...@@@@@@@@OOOO ==.OOOO.OOOOOOOOOOOOO ======================================",
"============ O@@@@@.@@@.@@@@@@OOOOO ==.OO.O OO.OOOOOOOOO =======================================",
"============ OO@@@@.@@@.@@@@@OOOOOOO =.OOO. O.    OOOOO ========================================",
"=============.OOO@@@@@O @@@OOOOOOOOO .OOO. OO ==== OOOO ========================================",
"============= OOOOOOOO OOOOOOOOOOOOO .OO  OO.===== OOOOO =======================================",
"============== .OOOO  OOOOOOOOOOOOO..O  OOO ======= OOOO =======================================",
"================    OOOOOOOOOOOOOO..  OOOO ======== OOOO =======================================",
"================== OOOOOOOOOOOOOOOOOOOOOO .=======.OOOO ========================================",
"================== OOOOOOOOOOOOOOOOOOOO  OO.===== OOOOO ========================================",
"=================== .OOOOOOOOOOOOOOO.  OOOO ==== OOOOO.=========================================",
"====================   .OOOOOOO.     #.OOO. ==== OOOO@@..=======================================",
"=======================         === ###...# ==== OOOOO@@@XX=====================================",
"=================================== # ##### ===== OOOOOO.$$X====================================",
"====================================       =======  OOO.### ====================================",
"====================================================       =====================================",
"================================================================================================",
"================================================================================================",
"================================================================================================",
"================================================================================================",
"================================================================================================",
"================================================================================================",
"================================================================================================",
"================================================================================================",
"================================================================================================",
"================================================================================================",
"================================================================================================",
"================================================================================================",
"================================================================================================",
"================================================================================================",
"================================================================================================",
"================================================================================================",
"================================================================================================",
"================================================================================================"
};
