/* XPM */
static char *sprite_372_front[] = {
/* columns rows colors chars-per-pixel */
"96 96 14 1 ",
"  c #181818",
". c #623139",
"X c #4A4139",
"o c #525A52",
"O c #525262",
"+ c #7B7B73",
"@ c #AC2941",
"# c #BD4152",
"$ c #EEE662",
"% c #7B7383",
"& c #ACACB4",
"* c #D5D5D5",
"= c #FFFFCD",
"- c #000000",
/* pixels */
"------------------------------------------------------------------------------------------------",
"------------------------------------------------------------------------------------------------",
"------------------------------------------------------------------------------------------------",
"------------------------------------------------------------------------------------------------",
"------------------------------------------------------------------------------------------------",
"------------------------------------------------------------------------------------------------",
"------------------------------------------------------------------------------------------------",
"------------------------------------------------------------------------------------------------",
"------------------------------------------------------------------------------------------------",
"------------------------------------------------------------------------------------------------",
"------------------------------------------------------------------------------------------------",
"------------------------------------------------------------------------------------------------",
"------------------------------------------------------------------------------------------------",
"------------------------------------------------------------------------------------------------",
"------------------------------------------------------------------------------------------------",
"------------------------------------------------------------------------------------------------",
"------------------------------------------------------------------------------------------------",
"------------------------------------------------------------------------------------------------",
"------------------------------------------------------------------------------------------------",
"------------------------------------------------------------------------------------------------",
"------------------------------------------------------------------------------------------------",
"------------------------------------------------------------------------------------------------",
"------------------------------------------------------------------------------------------------",
"-------------------------------------------------OOOO ------------------------------------------",
"-----------------------------------------------OO*****O ----------------------------------------",
"--------------------------------------------  O***&&&&&& ---------------------------------------",
"------------------------------------------O *O**&&&&&&&&& --------------------------------------",
"---------------------------------------OOO**O*&&&&&&&&&   O-------------------------------------",
"-------------------------------------OO* **O*&&&&&&&   &&&&O------------------------------------",
"------------------------------------O&*O**O*&&&&&   &&&&&&&&O-----------------------------------",
"---------------------------------OO **O***O*&&&  &&&&&******&O----------------------------------",
"-------------------------------OO& ***O**O*&&& &&&***********%%---------------------------------",
"------------------------------O&& ***O***O*&& &&**************O---------------------------------",
"-----------------------------O&& &***O**O*&& &****************& --------------------------------",
"-----------------------------O*% ***O*** *& &**************&&O   -------------------------------",
"----------------------------O** &***O*** *OO***********&&%OOO***& ------------------------------",
"----------------------------O**O****O****  *********&&%OO********O------------------------------",
"---------------------------- **O****%**************&%O************O-----------------------------",
"---------------------------- **O***%*************&%O**************  ----------------------------",
"---------------------------O %*%***%************%O***************OO* ---------------------------",
"--------------------------- & &%***%***********O***************OO***& --------------------------",
"--------------------------- ** O***%**********%&*************OO*****& --------------------------",
"--------------------------- *****&%  %&******O&************OO******&& --------------------------",
"--------------------------- &****% oo   %&*%O************OO******&&&& --------------------------",
"--------------------------- &***& oooooo   %O**********OO******&&&&& ---------------------------",
"--------------------------- %**& XooooooooX *********OO*****&&&&&&  O---------------------------",
"---------------------------- &*& $ooooooooo &*******O***&&&&&&&   && ---------------------------",
"---------------------------  %& =XXooooo+++XX*&*&*&*O&&&&&   OO&&&&& ---------------------------",
"--------------------------- *  X$ $Xoo+++XX$ **&*&*&&   OO&&&&&&&&&& ---------------------------",
"--------------------------- **% +$$Xo++XX+ = %**&*&&&&&&&&&&&&&&&&&& ---------------------------",
"--------------------------- **& XXXo++++X$ =$ *&&&&&&&&&&&&&&&&&&&& ----------------------------",
"--------------------------- &**& ooo++++ $$$$ %&&&&&&&&&&&&&&&&&&&& ----------------------------",
"---------------------------- *** oo++++++X+$O**%OO&&&&&&&&&&&&&&&&O ----------------------------",
"---------------------------- ***& o+++++++X O**&&&%OOO&&&&&&&&&O   -----------------------------",
"---------------------------- &**&  X+++++++ **&&&&&&&&%OOOOOOO%&&& -----------------------------",
"----------------------------- &*&O*%  X++XX**&&&&&&&&&&&&&&&&&&&&& -----------------------------",
"----------------------------- &&%O****%   **&&&&&&&&&&&&&&&&&&&&& ------------------------------",
"-----------------------------  % &&*&&***%O&&&&&&&&&&&&&&&&&&&&&&  -----------------------------",
"----------------------------- +  &*&*&&&&&O&&&&&&&&&&&&&&&&&&&&& o -----------------------------",
"----------------------------- ++ &&*&*&&&&&O&&&&&&&&&&&&&&&&&&& ooo ----------------------------",
"-----------------------------X+++ *&*&&&&&&& &&&&&&&&&&&&&&&&& oooo ----------------------------",
"------------------------------X+++  &&&&&&&&& &&O   O&&&&&&&  @oooo ----------------------------",
"------------------------------ ++o@@  &&&&&&&& Oooooo &&&&  @@@oooo ----------------------------",
"-----------------------------XX++oo@@.  &&&&&&% +ooooo &  -- @#oooo ----------------------------",
"----------------------------- ++ooo .---    &&.#+ooooo  -----  ooo -----------------------------",
"------------------------------     ---------  .#++oooo --------   ------------------------------",
"----------------------------------------------.#++oooo -----------------------------------------",
"-----------------------------------------------.++oooo -----------------------------------------",
"----------------------------------------------- ++ooo ------------------------------------------",
"------------------------------------------------ +ooo ------------------------------------------",
"------------------------------------------------ ooo -------------------------------------------",
"-------------------------------------------------   --------------------------------------------",
"------------------------------------------------------------------------------------------------",
"------------------------------------------------------------------------------------------------",
"------------------------------------------------------------------------------------------------",
"------------------------------------------------------------------------------------------------",
"------------------------------------------------------------------------------------------------",
"------------------------------------------------------------------------------------------------",
"------------------------------------------------------------------------------------------------",
"------------------------------------------------------------------------------------------------",
"------------------------------------------------------------------------------------------------",
"------------------------------------------------------------------------------------------------",
"------------------------------------------------------------------------------------------------",
"------------------------------------------------------------------------------------------------",
"------------------------------------------------------------------------------------------------",
"------------------------------------------------------------------------------------------------",
"------------------------------------------------------------------------------------------------",
"------------------------------------------------------------------------------------------------",
"------------------------------------------------------------------------------------------------",
"------------------------------------------------------------------------------------------------",
"------------------------------------------------------------------------------------------------",
"------------------------------------------------------------------------------------------------",
"------------------------------------------------------------------------------------------------",
"------------------------------------------------------------------------------------------------",
"------------------------------------------------------------------------------------------------",
"------------------------------------------------------------------------------------------------"
};
