/* XPM */
static char *sprite_231_front[] = {
/* columns rows colors chars-per-pixel */
"96 96 13 1 ",
"  c #101010",
". c #830000",
"X c #BD3931",
"o c #F66A52",
"O c #525294",
"+ c #527BB4",
"@ c #6A9CCD",
"# c #8B8B8B",
"$ c #9CBDEE",
"% c #ACD5EE",
"& c #D5D5D5",
"* c white",
"= c None",
/* pixels */
"================================================================================================",
"================================================================================================",
"================================================================================================",
"================================================================================================",
"================================================================================================",
"================================================================================================",
"================================================================================================",
"================================================================================================",
"================================================================================================",
"================================================================================================",
"================================================================================================",
"================================================================================================",
"================================================================================================",
"================================================================================================",
"================================================================================================",
"================================================================================================",
"================================================================================================",
"================================================================================================",
"================================================================================================",
"================================================================================================",
"================================================================================================",
"================================================================================================",
"================================================================================================",
"================================================================================================",
"================================================================================================",
"================================================================================================",
"================================================================================================",
"================================================================================================",
"================================================================================================",
"================================================================================================",
"================================================================================================",
"================================================================================================",
"================================================================================================",
"================================================================================================",
"=======================================++OOOO===================================================",
"=====================================++%%%%%%OO=================================================",
"====================================+%%%%%%%%%%++===============================================",
"===================================+%%%%%%%%%%%%++==============================================",
"==================================+%%%%%%%%%%%%$OO+=============================================",
"==================================+%%%%%%%%%%%%%%%OO============================================",
"=================================+%%%%%%%%%%%%%%%%%%OO==========================================",
"=================================+%%%%%%%%%%%%%%%%%%%% =========================================",
"================================+$%%%%%%%%%%%%%%%%%%%%%O========================================",
"================================.XXX%%%%%$%%$%%%%%%%XXX%+=======================================",
"===============================.ooooX%%%%*$%@%%%%%%%Xoo.O=======================================",
"===============================.oooooX%%% +%+%%%%%%%%Xoo.+======================================",
"===============================XoooooX%%% +%+$%%%%%%%%oo.@+=====================================",
"===============================.XXXooX%%%+$%+$%%%%%%%%oo.@@ ====================================",
"===============================.%%%XX%%%%%%%$+%%%XXX%$XX @@@ O==================================",
"==============================+@%%%%%%%%%%%$$ $%%XooX$$. @@@ @OO ===============================",
"==============================+%%%%%%%%%%%%$$$O%%XoooX$ @@@@@ @@ ===============================",
"=============================+%%%%%%%%@O%@O$$@ $$$XooXO@@@@@@ @O================================",
"============================+%%%%%%%%O+@OO@@@@@ $$XoX.@@@@@@@@ =================================",
"============================+@@@%%%%O@@@@@@@@@@@+ ...@@@@@@@@@ =================================",
"============================ +@O@%% O@@@@@@@@@@@@@@@@@@@@@@@@@O=================================",
"============================= O@+O O@@@@@@@@@@@$$@@@@@@@@@@$$@O=================================",
"===============================   =O@@@@@@@@@$$$$$@@@@@@@$$$$$+=================================",
"===================================+@@@+@@@@$$%%$$@ +++@$$$$$O==================================",
"==================================+@@@@@O+@+$%%%%$@ +++@$$$$$O==================================",
"================================== @@@@@@OOO$%%%%% +++O@@$$$@O==================================",
"================================== @@@@@O==O$%%%%% OOO=O@$$$@ ==================================",
"==================================#OO+@O====O%%%%% OOO=O++##@ ==================================",
"==================================#*&O+ ====O#+%% =OO=== O**O===================================",
"===================================    =====#*&+$ =======    ===================================",
"=============================================    ===============================================",
"================================================================================================",
"================================================================================================",
"================================================================================================",
"================================================================================================",
"================================================================================================",
"================================================================================================",
"================================================================================================",
"================================================================================================",
"================================================================================================",
"================================================================================================",
"================================================================================================",
"================================================================================================",
"================================================================================================",
"================================================================================================",
"================================================================================================",
"================================================================================================",
"================================================================================================",
"================================================================================================",
"================================================================================================",
"================================================================================================",
"================================================================================================",
"================================================================================================",
"================================================================================================",
"================================================================================================",
"================================================================================================",
"================================================================================================",
"================================================================================================",
"================================================================================================",
"================================================================================================",
"================================================================================================",
"================================================================================================"
};
