/* XPM */
static char *sprite_149_front[] = {
/* columns rows colors chars-per-pixel */
"96 96 16 1 ",
"  c black",
". c #5A3920",
"X c #104131",
"o c #186A62",
"O c #626262",
"+ c #DE7339",
"@ c #9C5A4A",
"# c #20A47B",
"$ c #EE9C39",
"% c #AC8B41",
"& c #F6BD5A",
"* c #EEBD8B",
"= c #FFEEBD",
"- c #CDCDCD",
"; c white",
": c None",
/* pixels */
"::::::::::::::::::::::::::::::::::::::::::::::::::::::::::::::::::::::::::::::::::::::::::::::::",
"::::::::::::::::::::::::::::::::::::::::::::::::::::::::::::::::::::::::::::::::::::::::::::::::",
"::::::::::::::::::::::::::::::::::::::::::::::::::::::::::::::::::::::::::::::::::::::::::::::::",
"::::::::::::::::::::::::::::::::::::::::::::::::::::::::::::::::::::::::::::::::::::::::::::::::",
"::::::::::::::::::::::::::::::::::::::::::::::::::::::::::::::::::::::::::::::::::::::::::::::::",
"::::::::::::::::::::::::::::::::::::::::::::::::::::::::::::::::::::::::::::::::::::::::::::::::",
"::::::::::::::::::::::::::::::::::::::::::::::::::::::::::::::::::::::::::::::::::::::::::::::::",
"::::::::::::::::::::::::::::::::::::::::::::::::::.:::::::::::::::::::::::::::::::::::::::::::::",
":::::::::::::::::::::::::::::::::::::::::::::::::.=.::::::::::::::::::::::::::::::::::::::::::::",
"::::::::::::::::::::::::::..:::::::::::::::::::::.=.::::::::::::::::::::::::::::::::::::::::::::",
":::::::::::::::::::::::::.==.:::::::::::::::::::::.= :::::::::::::::::::::::::::::::::::::::::::",
"::::::::::::::::::::::::.= .::::::::::.:::::::::::.= :::::::::::::::::::::::::::::::::::::::::::",
":::::::::::::::::::::::.= :::::::::::.$ ::::::::::.* :::::::::::::::::::::::::::::::::::::::::::",
":::::::::::::::::::::::.= ::::::::::.$$$.:::::::::.* :::::::::::::::::::::::::::::::::::::::::::",
":::::::::::::::::::::::.= ::::::::::.$$+  :::::::.* ::::::::::::::::::::::::::::::::::::::::::::",
"::::::::::::::::::::::::.*  ..:::::.$@@$$$ ......* :::::::::::::::::::::::::::::::::::::::::::::",
"::::::::::::::::::::::::: ****..:: $$$$$@@******* ::::::::::::::::::::::::::::::::::::::::::::::",
"::::::::::::::::::::::::::    **. $&&$$@**..     :::::::::::::::::::::::::::::::::::::::::::::::",
"::::::::::::::::::::::::::::::.. $&&&&@*..$$$$ :::::::::::::::::::::::::::::::::::::::::::::::::",
":::::::::::::::::::::::::::::::: $&&&&@.$$$$$$ :::::::::::::::::::::::::::::::::::::::::::::::::",
"::::::::::::::::::::::::::::::: $$$&&$$$$$$$$$+ :::::::::::::::      :::::::::::::::::::::::::::",
"::::::::::::::::::::::::::::::: $$$$$$$$$$$$$$+ :::::::::::....$$++++.  ::::::::::::::::::::::::",
":::::::::::::::::::::::::        $$$$$$$$  $$$+ ::::::::...$$$$+ooooo+++. ::::::::::::::::::::::",
"::::::::::::::::::::::  .++++$$ -$$$$$$$ -- $++ ::::::..@$$+oooooooooooo++ :::::::::::::::::::::",
":::::::::::::::::::: .+++ooooooo $$$$$$$; - $++ ::::: $$$+oooooooooooo    +.::::::::::::::::::::",
"::::::::::::::::::: ++oooooooooo.$$$$$$$ .; +++ ::::: $$ooo###ooooo   ::::  ::::::::::::::::::::",
"::::::::::::::::::.+    oooooooo+&&&$$$$ .-++++ ::::: $+oo#####oo  :::::::::::::::::::::::::::::",
"::::::::::::::::::  ::::   oooo &&&&&$$$+++++++ :::: ++oX####### :::::::::::::::::::::::::::::::",
":::::::::::::::::::::::::::  o &&&&&&$$$$$++++++ ::: ++oX###### ::::::::::::::::::::::::::::::::",
":::::::::::::::::::::::::::::  $&&&&$$$$$$.+++++ :: ++oooX##### ::::::::::::::::::::::::::::::::",
":::::::::::::::::::::::::::::: $$$$$$$$$$$.+.+++ :: +oooooX### :::::::::::......::::::::::::::::",
":::::::::::::::::::::::::::::: $$$$$+$$$$.+.++++ : $+oooooX### :::::::::..+$$$$+..::::::::::::::",
"::::::::::::::::::::::::::::::: $$$.$$$+...++++++ $+ooo##ooo# ::::::::..+$$$$$$$+.::::::::::::::",
"::::::::::::::::::::::::::::::::  ++++..**@+++++$ +ooo####oXo :::::::.+$$$$$$+...:::::::::::::::",
"::::::::::::::::::::::::::::::::::    **@@@++++$$$ oooo####oX ::::::.$$$$$$$..::::::::::::::::::",
":::::::::::::::::::::::::::::::::::: @@@**@++++$$$ oooo      ::::::.$$$$$$$.::::::::::::::::::::",
":::::::::::::::::::::::::::::::::::. *****@+++$$$$ o   :::::::::::.$$$$$$$.:::::::::::::::::::::",
"::::::::::::::::::::::::::::::::::.$ ***@@@++$$$$$$ :::::::::::::.+$$$$$$.::::::::::::::::::::::",
":::::::::::::::::::::::::::::::::.$ *@@@**@+$$$$$$$ :::::::::::::.$$$$$$+.::::::::::::::::::::::",
"::::::::::::::::::::::::::::::::.$$ ******@$$$$$$$$+ ::::::::::: +$$$$$$.:::::::::::::::::::::::",
":::::::::::::::::::::::::::::::.$$$ *****=@$$$$$$$$$ ::::::::::: +$$$$$$.:::::::::::::::::::::::",
":::::::::::::::::::::::::::::..$$$ @****=%%+$$$$$$$$$ ::::::::: ++$$$$$$.:::::::::::::::::::::::",
":::::::::::::::::::::::::::..$$$$$ *@@@%%==%$$$$$$$$$+ :::::::: +++$$$$+ :::::::::::::::::::::::",
":::::::::::::::::::::::::..$$$$$$ ****=====%$$ $$$$$$$ :::::::: ++++++++ :::::::::::::::::::::::",
":::::::::::::::::::::::..$$$$$$$$ ***======%$$ $$$$$$$$ ::::::: +++++++++ ::::::::::::::::::::::",
"::::::::::::::::::::::.$$$$$$$$$ @*======%%%$$$ $$$$$$$+ :::::: +++++++++ ::::::::::::::::::::::",
":::::::::::::::::::::.+$$$$$$$$ **%%%%%%%**%$$$ $$$$$$$++ ::::: +++++++++ ::::::::::::::::::::::",
"::::::::::::::::::::..+$$$$$$$+ ===========%$$$$ $$$$$$$++ ::::: +++++++++ :::::::::::::::::::::",
"::::::::::::::::::: ; ++$$$$++ *===========%$$$$ $$$$$$$++ ::::: +++++++++ :::::::::::::::::::::",
":::::::::::::::::: ;- ++++++++ ============%$$$$$ $$$$$$+++ :::: +++++++++ :::::::::::::::::::::",
"::::::::::::::::::   O.++++++ *%%%%%%%%%%==%$$$$$ ++$$$++++ :::: ++++++++++ ::::::::::::::::::::",
":::::::::::::::::::: ;; ...+. %=========*%%%$$$$++ +++++++++ :: +++++++++++ ::::::::::::::::::::",
":::::::::::::::::::: -  --   ===============%$$$++ +++++++++ :: +++++++++++ ::::::::::::::::::::",
"::::::::::::::::::::  : - :: ===============%$$++++ +++++++..  ++++++++++++ ::::::::::::::::::::",
":::::::::::::::::::::::  :: ================%$$+++++ ..+..+-- +++++++++++++ ::::::::::::::::::::",
"::::::::::::::::::::::::::: ==%%%%%%%%%=====%$++++++ ;-O-- -- +++++++++++++ ::::::::::::::::::::",
"::::::::::::::::::::::::::. %%*=======*%%%%=*%+ $$$+ ;- --  - +++++++++++++ ::::::::::::::::::::",
":::::::::::::::::::::::::.$ ==============*%%% $$$$$ - + - + +++++++++++++ :::::::::::::::::::::",
"::::::::::::::::::::::::.$ =================* $$$$$$$ +++ ++++++++++++++++ :::::::::::::::::::::",
"::::::::::::::::::::::::.& ================** &&&$$$$$+++ ++++++++++++++++ :::::::::::::::::::::",
":::::::::::::::::::::::.&& ===============** $&&&&$$$$$+++ +++++++++++++@ ::::::::::::::::::::::",
":::::::::::::::::::::::.&& *=%%%%%%%%%%%**** &&&&&$$$$$+++ ++++++++++++@% ::::::::::::::::::::::",
"::::::::::::::::::::::.&&& %%==========*%%%% &&&&&$$$$$+++ +++++++++++@% :::::::::::::::::::::::",
"::::::::::::::::::::::.&&&$ **=======****** $&&&&&$$$$$++++ +++++++++@@% :::::::::::::::::::::::",
"::::::::::::::::::::::.&&$$ *************** $$&&&$$$$$$++++ ++++++++@%@ ::::::::::::::::::::::::",
"::::::::::::::::::::::.$$$$ *************** +$$$$$$$$$+++++ +++++++@@%@ ::::::::::::::::::::::::",
":::::::::::::::::::::: $$$$+ %***********%% ++$$$$$$$++++++ +++++@@%@% :::::::::::::::::::::::::",
":::::::::::::::::::::: $$$++ *%%%%%%%%%%%** ++++$$$$+++++++ +++@@@%@% ::::::::::::::::::::::::::",
"::::::::::::::::::::::: +++++ ************** ++++++++++++++ @@@%%@%@ :::::::::::::::::::::::::::",
"::::::::::::::::::::::: +++++ %************% ++++++++++++++ %%@%@%% ::::::::::::::::::::::::::::",
":::::::::::::::::::::::: +++++ %********%%%%% ++++++++++++ @%@%%@  :::::::::::::::::::::::::::::",
":::::::::::::::::::::::: ++++++ %%%%%%%%%%%@@@ +++++++++++ @%@%  :::::::::::::::::::::::::::::::",
"::::::::::::::::::::::::: ++++++  @@@@@@@@@%%%% +++++++++ %%@  :::::::::::::::::::::::::::::::::",
":::::::::::::::::::::::::: +++++++  %%%%%%%%%%%%  +++++++    :::::::::::::::::::::::::::::::::::",
"::::::::::::::::::::::::::: ++++++++    %%%%%%%%%% ++++++ ::::::::::::::::::::::::::::::::::::::",
"::::::::::::::::::::::::::.+.+++++++ :::          :.+++++ ::::::::::::::::::::::::::::::::::::::",
"::::::::::::::::::::::::...+@+++++++ ::::::::::::::.+++++ ::::::::::::::::::::::::::::::::::::::",
"::::::::::::::::::::::  $$$@+++++++ :::::::::::::: +@+++++ :::::::::::::::::::::::::::::::::::::",
"::::::::::::::::::::: ;O+$$+++++++ ::::::::::::::: +@+++++ :::::::::::::::::::::::::::::::::::::",
":::::::::::::::::::: ; -O+$$+++++ ::::::::::::::: +++$$$$++ ::::::::::::::::::::::::::::::::::::",
":::::::::::::::::::: O; ;-+++++  :::::::::::::::: +$$$$$$$$ ::::::::::::::::::::::::::::::::::::",
":::::::::::::::::::::  ;;-O++  :::::::::::::::::: +$+$$+$$++ :::::::::::::::::::::::::::::::::::",
"::::::::::::::::::::::       :::::::::::::::::::: ++;++;++;+ :::::::::::::::::::::::::::::::::::",
":::::::::::::::::::::::::::::::::::::::::::::::::: ;;+;;;+;; :::::::::::::::::::::::::::::::::::",
":::::::::::::::::::::::::::::::::::::::::::::::::: ;; ;;; ;; :::::::::::::::::::::::::::::::::::",
"::::::::::::::::::::::::::::::::::::::::::::::::::: ;  ;  ; ::::::::::::::::::::::::::::::::::::",
":::::::::::::::::::::::::::::::::::::::::::::::::::: :: :: :::::::::::::::::::::::::::::::::::::",
"::::::::::::::::::::::::::::::::::::::::::::::::::::::::::::::::::::::::::::::::::::::::::::::::",
"::::::::::::::::::::::::::::::::::::::::::::::::::::::::::::::::::::::::::::::::::::::::::::::::",
"::::::::::::::::::::::::::::::::::::::::::::::::::::::::::::::::::::::::::::::::::::::::::::::::",
"::::::::::::::::::::::::::::::::::::::::::::::::::::::::::::::::::::::::::::::::::::::::::::::::",
"::::::::::::::::::::::::::::::::::::::::::::::::::::::::::::::::::::::::::::::::::::::::::::::::",
"::::::::::::::::::::::::::::::::::::::::::::::::::::::::::::::::::::::::::::::::::::::::::::::::",
"::::::::::::::::::::::::::::::::::::::::::::::::::::::::::::::::::::::::::::::::::::::::::::::::",
"::::::::::::::::::::::::::::::::::::::::::::::::::::::::::::::::::::::::::::::::::::::::::::::::",
"::::::::::::::::::::::::::::::::::::::::::::::::::::::::::::::::::::::::::::::::::::::::::::::::"
};
