/* XPM */
static char *sprite_484_back[] = {
/* columns rows colors chars-per-pixel */
"96 96 16 1 ",
"  c #101010",
". c #393939",
"X c #73737B",
"o c #F65241",
"O c #8B5294",
"+ c #BD6AD5",
"@ c #9C9CA4",
"# c #A49CB4",
"$ c #F6A49C",
"% c #CDB4D5",
"& c #BDCDDE",
"* c #DEE6EE",
"= c #EEE6FF",
"- c #F6EEFF",
"; c white",
": c #000000",
/* pixels */
"::::::::::::::::::::::::::::::::::::::::::::::::::::::::::::::::::::::::::::::::::::::::::::::::",
"::::::::::::::::::::::::::::::::::::::::::::::::::::::::::::::::::::::::::::::::::::::::::::::::",
"::::::::::::::::::::::::::::::::::::::::::::::::::::::::::::::::::::::::::::::::::::::::::::::::",
"::::::::::::::::::::::::::::::::::::::::::::::::::::::::::::::::::::::::::::::::::::::::::::::::",
"::::::::::::::::::::::::::::::::::::::::::::::::::::::::::::::::::::::::::::::::::::::::::::::::",
"::::::::::::::::::::::::::::::::::::::::::::::::::::::::::::::::::::::::::::::::::::::::::::::::",
"::::::::::::::::::::::::::::::::::::::::::::::::::::::::::::::::::::::::::::::::::::::::::::::::",
"::::::::::::::::::::::::::::::::::::::::::::::::::::::::::::::::::::::::::::::::::::::::::::::::",
"::::::::::::::::::::::::::::::::::::::::::::::::::::::::::::::::::::::::::::::::::::::::::::::::",
"::::::::::::::::::::::::::::::::::::::::::::::::::::::::::::::::::::::::::::::::::::::::::::::::",
"::::::::::::::::::::::::::::::::::::::::::::::::::::::::::::::::::::::::::::::::::::::::::::::::",
"::::::::::::::::::::::::::::::::::::::::::::::::::::::::::::::::::::::::::::::::::::::::::::::::",
"::::::::::::::::::::::::::::::::::::::::::::::::::::::::::::::::::::::::::::::::::::::::::::::::",
"::::::::::::::::::::::::::::::::::::::::::::::::::::::::::::::::::::::::&&&&&&&&&&::::::::::::::",
"::::::::::::::::::::::::::::::::::::::::::::::::::::::::::::::::::::&&&&*********&&&::::::::::::",
":::::::::::::::::::::::::::::::::::::::::::::::::::::::::::::::::&&&***************.::::::::::::",
"::::::::::::::::::::::::::::::::::::::::::::::::::::::::::::::@@@*****##XXXXXX&***.:::::::::::::",
":::::::::::::::::::::::::::::::::::::::::::::::::::::::::::XX@******##====#*&&&.X*.:::::::::::::",
":::::::::::::::::::::::::::::::::::::::::::::::::::::::::XX*******##=====#*****&& X:::::::::::::",
"::::::::::::::::::::::::::::::::::::::::::::::::::::::XXX*******##======#**********.::::::::::::",
"::::::::::::::::::::::::::::::::::::::::::::::::::::..****##%*##========#**** o X#*.::::::::::::",
"::::::::::::::::::::::::::::::::::::::::::#XXXXXXX..%***###**#==========&&*@ o  OX.:::::::::::::",
"::::::::::.XXXXXXXXXXXXXX#:::::::::::XXXX#%*****.X%***###**#%============O#*@  OO...::::::::::::",
"::::::::::.===========%%%%#XXXXXXXXXX#%%*****%%X%***##%#**#==============-O@**OO&** ::::::::::::",
":::::::::::.===========%%%%%%%%%%%%%%XXXXX%%%%X%**##XXX**&&==========++%===XXX&**X :::::::::::::",
":::::::::::.#==========%%%%%%%%%%%%%%%%%%%XX%.%**#  ==*X*#========%++%=====.@&&&X ::::::::::::::",
"::::::::::::.===========%%%%%%%%%%%%%%%%XXX#.%**  ==***%#====%+++++++=====*%.@X ::::::::::::::::",
":::::::::::::.===========%%%%%%%%%%XXXXX%%%%X%  %****%%%#%+++++%=%++=====      :::::::::::::::::",
"::::::::::::::.==========X.......XX%%%%%%%%%  *****%XXXXX.......%+=====  :::::::::::::::::::::::",
":::::::::::::::.==X....XX===%%%%%%%%%%%%%%  X**%XXX#%%%..+++===O..===  :::::::::::::::::::::::::",
"::::::::::::::::...==========%%%%%%%%%%%  ===XX#%%%%%X.OO++++===++.= :::::::::::::::::::::::::::",
"::::::::::::::::::.============%%%%%%   ===%%%%%%%%% .O%OOO+++===++.::::::::::::::::::::::::::::",
":::::::::::::::::::.=============%   ====%%%%%%%%%  #.====OOOO====++.:::::::::::::::::::::::::::",
"::::::::::::::::::::.==========.. ====%%%%%%%%%%  %%.%=====OO=====+++.::::::::::::::::::::::::::",
":::::::::::::::::::::.=====... ====%%%%%%%%%%%% %%%#.%%======@XXX@++O.::::::::::::::::::::::::::",
"::::::::::::::::::::::.=   =====%%%%%%%%%%%%% X%%%%.%%%%%===@X$$$X=OO.::::::::::::::::::::::::::",
"::::::::::::::::::::    =====%%%%%%%%%%%%%%  %%%%% .%+OOOO%=X$$;;$X==O.:::::::::::::::::::::::::",
":::::::::::::::  :: ======%%%%%%%%%%%%%%%% %%%%%% %.+OOOOO%%X$o;;$X==+.:::::::::::::::::::::::::",
":::::::::::::  OO : ===%%%%%%%%%%%%%%%%% X%%%%%% %%.OOOOOO%%Xoooo$X==O.:::::::::::::::::::::::::",
":::::::::::: OOO% :: %%%%%%%%%%%%%%%%%% %%%%%%%XX%%.OOOO+%%%Xoooo$X=+O.:::::::::::::::::::::::::",
"::::::::::: OOO% :::: %%%%%%%%%%%%%%% X%%%%%%%% %%%.OO+%%%%%@Xoo$X@=OO.:::::::::::::::::::::::::",
":::::::::: OOO%X:::::: %%%%%%%%%%%%% %%%%%%%%% %%%X O+%%%%%%%@XXX@%%OO.:::::::::::::::::::::::::",
"::::::::: OOO#%X::::::: %%%%%%%%%% X%%%%%%%%% %%%%  .%%%%%++%%%%%%%%%.::::::::::::::::::::::::::",
"::::::::: OOO%X:::::::::  %%%%%%% %%%%%%%%%% %%%% XX.%%%%+OOO%%%%OO%%.::::::::::::::::::::::::::",
":::::::: OOO#%X:::::::::::  %%%  %%%%%%%%%%XX%%%% XX@.%%+OOOO%%%OOOO%.::::::::::::::::::::::::::",
":::::::: OOO%%X:::::::::::::    %%%%%%%%%%% %%%% X..@.O+OOOO#%%%OOOO.:::::::::::::::::::::::::::",
":::::::: OOO%%X:::::::::::::::::  %%%%%%%% %%%%% XX@.@.OOOOO%%%%OOO ::::::::::::::::::::::::::::",
"::::::: OOOO%%X::::::::::::::::::.   %%%% X     XX@@@....OO%%%#O   :::::::::::::::::::::::::::::",
"::::::: OOOO%%X::::::::::::::::: XXXX    XXXXXXXXX@@@.:.X...    ::::::::::::::::::::::::::::::::",
"::::::: OOOO#%X::::::::::::::::: XXXXXXXXXXXXXXXXX... ::.XXXXX.:XXX::::::::..:::::::::::::::::::",
"::::::: OOOO#%%X::::::::::::::: #.XXXXXXXXXXXXXX..#%%% :.XXXXX. ==%XXX::::.*X:::::::::::::::::::",
"::::::: OOOOO%%X:::::::::::::: ##.XX...XXXXXXXX.#####%%..XXXXXX =====%XXO.*....:::::::::::::::::",
"::::::: OOOOO%%%X:::::::::::: ###O..###.XXXXXX.######XX%.XXXXX@@ .#=====%++O*** ::::::::::::::::",
"::::::: OOOOO#%%X:::::::::::: ##OO.#####.XXXX.######X####.XXX@@@@ ####====++XX  ::::::::::::::::",
"::::::: #OOOO#%%%X:::::::::: ###O.#######.XX.##OO##X#####.XXX@@  XX%%%%####+O*.:::::::::::::::::",
"::::::: ##OOOO%%%#XX:::::::: ##..%########..##OOO########.XXX@ ===========%+O** ::::::::::::::::",
"::::::: ##OOOO%%%%%#XX::::::...%%%#########X#XOO#########.XXXX =======%%%##+O.  ::::::::::::::::",
":::::::: ##OOOO%%%%%%%X.....%%%%%############.OO##########.XXXX #####%%===%+O* :::::::::::::::::",
":::::::: ##OOOO#%%%%%%%%%%%%%%%%%############.OO###########.... #%%=====%OOO@ ::::::::::::::::::",
":::::::: ###OOOO%%%%%%%%%%%%%%%%#############.OO#############  #=====%#X     :::::::::::::::::::",
"::::::::: ###OOOO%%%%%%%%%%%%%%##############.OO############ %===%%%%   ::::::::::::::::::::::::",
"::::::::: ####OOOO#%%%%%%%%%%################.OOO########### %%%%    =.:::::::::::::::::::::::::",
":::::::::: ####OOOO#%%%%%%####################.OO############    ###%==.::::::::::::::::::::::::",
":::::::::: #####OOOO##########################.OO####################%=.::::::::::::::::::::::::",
"::::::::::: ######OOOO#########################.OO##################X%%.::::::::::::::::::::::::",
":::::::::::: #######OOOO#######################.OOO###############..X#%.::::::::::::::::::::::::",
"::::::::::::: ########OOOO######################.OOO############..#X###.::::::::::::::::::::::::",
":::::::::::::: O#################################..OO#######....###X##.:::::::::::::::::::::::::",
":::::::::::::::: ###############################OOO.     ..X######X##.::::::::::::::::::::::::::",
":::::::::::::::::  ###########################OOO. ::::: ########X##.:::::::::::::::::::::::::::",
":::::::::::::::::::   ######################OOO  :::::: ########X##.::::::::::::::::::::::::::::",
"::::::::::::::::::::::   ###############OOOO   ::::::: #########X#.:::::::::::::::::::::::::::::",
":::::::::::::::::::::::::    ######OOOO     #==X::::: O########X#%.:::::::::::::::::::::::::::::",
"::::::::::::::::::::::::::::.          OOX%%#===X::: OOO#######X%%%...X:::::::::::::::::::::::::",
":::::::::::::::::::::::::::.XXX...OOOOOOOOO##   ::::.OOO########X%%%.=X...::::::::::::::::::::::",
"::::::::::::::::::::::::::: XXX  ..OOOO.     ::::::.OOOO#########X%%%..%==.:::::::::::::::::::::",
"::::::::::::::::::::::::::: X. ::      ::::::::::::.OOOOO#########XX%==...XXXX::::::::::::::::::",
":::::::::::::::::::::::::::..::::::::::::::::::::::....OOOOO#######%XX%===.==%X:::::::::::::::::",
":::::::::::::::::::::::::::::::::::::::::::::::::::: ....OOOOOO#####%%XXX%=.===X::::::::::::::::",
"::::::::::::::::::::::::::::::::::::::::::::::::::::: X....OOOOOOO####%%%XX.=X  ::::::::::::::::",
"::::::::::::::::::::::::::::::::::::::::::::::::::::: XX.....OOOOOOOOOOOOOO   ::::::::::::::::::",
"::::::::::::::::::::::::::::::::::::::::::::::::::::: XXX   ..OOOOOOOOOO   :::::::::::::::::::::",
"::::::::::::::::::::::::::::::::::::::::::::::::::::: X  :::::          ::::::::::::::::::::::::",
":::::::::::::::::::::::::::::::::::::::::::::::::::::  :::::::::::::::::::::::::::::::::::::::::",
"::::::::::::::::::::::::::::::::::::::::::::::::::::::::::::::::::::::::::::::::::::::::::::::::",
"::::::::::::::::::::::::::::::::::::::::::::::::::::::::::::::::::::::::::::::::::::::::::::::::",
"::::::::::::::::::::::::::::::::::::::::::::::::::::::::::::::::::::::::::::::::::::::::::::::::",
"::::::::::::::::::::::::::::::::::::::::::::::::::::::::::::::::::::::::::::::::::::::::::::::::",
"::::::::::::::::::::::::::::::::::::::::::::::::::::::::::::::::::::::::::::::::::::::::::::::::",
"::::::::::::::::::::::::::::::::::::::::::::::::::::::::::::::::::::::::::::::::::::::::::::::::",
"::::::::::::::::::::::::::::::::::::::::::::::::::::::::::::::::::::::::::::::::::::::::::::::::",
"::::::::::::::::::::::::::::::::::::::::::::::::::::::::::::::::::::::::::::::::::::::::::::::::",
"::::::::::::::::::::::::::::::::::::::::::::::::::::::::::::::::::::::::::::::::::::::::::::::::",
"::::::::::::::::::::::::::::::::::::::::::::::::::::::::::::::::::::::::::::::::::::::::::::::::",
"::::::::::::::::::::::::::::::::::::::::::::::::::::::::::::::::::::::::::::::::::::::::::::::::",
"::::::::::::::::::::::::::::::::::::::::::::::::::::::::::::::::::::::::::::::::::::::::::::::::"
};
