/* XPM */
static char *sprite_303_back[] = {
/* columns rows colors chars-per-pixel */
"96 96 12 1 ",
"  c #010101",
". c #7B5A29",
"X c gray29",
"o c gray45",
"O c #9C4A6A",
"+ c #DE9441",
"@ c #FFC55A",
"# c #9CA494",
"$ c #D583AC",
"% c #CDCDCD",
"& c white",
"* c None",
/* pixels */
"************************************************************************************************",
"************************************************************************************************",
"************************************************************************************************",
"************************************************************************************************",
"************************************************************************************************",
"************************************************************************************************",
"************************************************************************************************",
"************************************************************************************************",
"************************************************************************************************",
"************************************************************************************************",
"************************************************************************************************",
"************************************************************************************************",
"************************************************************************************************",
"************************************************************************************************",
"************************************************************************************************",
"************************************************************************************************",
"************************************************************************************************",
"************************************************************************************************",
"************************************************************************************************",
"************************************************************************************************",
"************************************************************************************************",
"************************************************************************************************",
"************************************************************************************************",
"************************************************************************************************",
"*********************************************XXXXXX*********************************************",
"******************************************* Xoo####XXX******************************************",
"*****************************************  oooooo#####XX****************************************",
"**************************************** ooooooooooo####X***************************************",
"*************************************** oooXX   XXX oo###X**************************************",
"************************************** ooo   XXXXXXX  o###X*************************************",
"************************************* Xoo *** XXXXXXXX o###X************************************",
"************************************* oo **** XXXXXXXXX o###X***********************************",
"************************************ Xo **** XXXXXXXXXXX ####X**********************************",
"************************************ oo **** XXXXXXXXXXX o###X**********************************",
"************************************ o ***** XXXXXXXXXXXX ####X*********************************",
"*********************************** Xo ***** XXXXXXXXXXXX ####X*********************************",
"**********************************  XX ***** XXXXXXXXXXXXX Xo##X********************************",
"********************************  XXXXX  *** XXXXXXXXXXXXX &%o#X********************************",
"****************************  X XXXXXXXXX ** XXXXXXXXXXXX &&%o##X*******************************",
"**************************  XX XXXXXXXX XX * XXXXXXXXXXX &&%X###X*******************************",
"************************  XXX XXXXXXX XX XX** XXXXXXXXXXX   o###X*******************************",
"**********************  XXX  XX+XXXXXX Xo   * XXXXXXXXXXXXX o####X******************************",
"********************* oXXX * X++XXXXXX+ Xoo   XXXXXXXXXXXXX oo###X******************************",
"******************** oXXX **.+++XXX+++++ Xoooo   XXXXXXXXXXX ooX#X******************************",
"******************* oXXX ***.++++++. +++@ XXooooo   XXXXXXXX oX&XoX*****************************",
"****************** ooXX ***.++++++X %X++@@ XXXoooooo XXXXXXX X&& oX*****************************",
"****************** oXX ****.++++++XO O++@@.  XXXoooo XXXXXXXX#&# ooX****************************",
"*******************   *****.+++++.&$ O+@@.*** XXXX  XXXXXXXXX # oooX****************************",
"***************************.+++++.&$.++@@.****    XXXXXXXXXXXX XooooX***************************",
"****************************.++++++++++@.****** XXXXXXXXXXXXXX XooooX***************************",
"****************************.+++.+++++@.******* XXXXXXXXXXXXXXX XXXooX**************************",
"*****************************.  +++++. ********* XXXXXXXXXXXXXXX &%XooX*************************",
"********************************  .++++..******* XXXXXXXXXXXXXX &&#XoooX************************",
"******************************...++++++@@...***** XXXXXXXXXXXX &&# XooooX***********************",
"**************************  XX++++.++.  @@@+  **** XXXXXXXXXXXX   X  ooooXX*********************",
"***********************   ooooo+.. ++++. +@@oo  ** XXXXXXXXXXXXXXXXXX X  & XX*******************",
"********************** oXooooXX.** ++++@.  ooooo  * XXXXXXXXXXXXXXXXXX #&& ##XX*****************",
"**********************  ooXXX  ** .+++++.** oooooX * XXXXXXXXXXXXXXXXXXX&Xoo###X****************",
"***********************   X  ***. ++++++@..*Xo Xo  ** XXXXXXXXXXXXXXXXXX  ooo###X***************",
"*************************  ****.+.++++++@@@.  * X **** XXXXXXXXXXXXXXXXXXX  oXX##X**************",
"****************************** ++++++++++@@@.***  ***** XXXXXXXXXXXXXXXXXXXX %%o#X**************",
"*****************************.++.++.+++++.@@@.********** XXXXXXXXXXXXXXXXXX &&% ##X*************",
"***************************** +.++. ++.++.@@@@ **********  XXXXXXXXXXXXXXXXX    o#X*************",
"**************************** ++.++. ++.+++.@@@ ************  XXXXXXXXXXXXXXXXXXX # *************",
"**************************** +.+++. +++.++.@@@@ *************   XXXXXXXXXXXXXXXX  **************",
"**************************** +.++.++ ++.+++.@@@ ****************    XXXXXXXX    ****************",
"*****************************  ++.++ +++.++.@+ *********************        ********************",
"***************************** X  .+. +++.++   **************************************************",
"**************************** XXXX   *      X ***************************************************",
"****************************  *  ****** XXXX ***************************************************",
"***************************************  *  ****************************************************",
"************************************************************************************************",
"************************************************************************************************",
"************************************************************************************************",
"************************************************************************************************",
"************************************************************************************************",
"************************************************************************************************",
"************************************************************************************************",
"************************************************************************************************",
"************************************************************************************************",
"************************************************************************************************",
"************************************************************************************************",
"************************************************************************************************",
"************************************************************************************************",
"************************************************************************************************",
"************************************************************************************************",
"************************************************************************************************",
"************************************************************************************************",
"************************************************************************************************",
"************************************************************************************************",
"************************************************************************************************",
"************************************************************************************************",
"************************************************************************************************",
"************************************************************************************************",
"************************************************************************************************",
"************************************************************************************************"
};
