/* XPM */
static char *sprite_421_back[] = {
/* columns rows colors chars-per-pixel */
"96 96 14 1 ",
"  c #101010",
". c #105220",
"X c #4A2941",
"o c #7B294A",
"O c #417B4A",
"+ c #6A417B",
"@ c #A43962",
"# c #CD527B",
"$ c #52AC5A",
"% c #5AC55A",
"& c #835AAC",
"* c #9C7BBD",
"= c #DE7394",
"- c #000000",
/* pixels */
"------------------------------------------------------------------------------------------------",
"------------------------------------------------------------------------------------------------",
"------------------------------------------------------------------------------------------------",
"------------------------------------------------------------------------------------------------",
"------------------------------------------------------------------------------------------------",
"------------------------------------------------------------------------------------------------",
"------------------------------------------------------------------------------------------------",
"------------------------------------------------------------------------------------------------",
"------------------------------------------------------------------------------------------------",
"------------------------------------------------------------------------------------------------",
"------------------------------------------------------------------------------------------------",
"------------------------------------------------------------------------------------------------",
"------------------------------------------------------------------------------------------------",
"------------------------------------------------------------------------------------------------",
"------------------------------------------------------------------------------------------------",
"------------------------------------------------------------------------------------------------",
"------------------------------------------------------------------------------------------------",
"------------------------------------------------------------------------------------------------",
"------------------------------------------------------------------------------------------------",
"------------------------------------------------------------------------------------------------",
"------------------------------------------------------------------------------------------------",
"------------------------------------------------------------------------------------------------",
"------------------------------------------------------------------------------------------------",
"----------------------------------------------ooo-----------------------------------------------",
"--------------------------------------------oo#==oo---------------------------------------------",
"-------------------------------------------o#####==o--------------------------------------------",
"------------------------------------------o#@@@@##=#o-------------------------------------------",
"------------------------------------------o@@@@@@@#=o-------------------------------------------",
"-----------------------------------------o@@@@@@@@@#o-------------------------------------------",
"----------------------------------------- @@@@@@@@@# -------------------------------------------",
"----------------------------------------- @@@@@@@@@@ -------------------------------------------",
"----------------------------------------- @@@@@@@@o --------------------------------------------",
"------------------------------------------o@@@@@o ----....--------------------------------------",
"------------------------------------------ @@@@o----  $%%%..------------------------------------",
"----------------------------------------.. @@@@ ..  OOOO$%%%.-----------------------------------",
"--------------------------------------..$$$ @@oOO OOOOOOOO$%%.----------------------------------",
"------------------------------------..$$$OOO @oOOOOOOOOOOO$$.-----------------------------------",
"-----------------------------------.$$OOOOOOO oOOOOOOOOOO$$ ------------------------------------",
"----------------------------------.$OOOOOO$$$OOOOOOOOOOO  .-------------------------------------",
"---------------------------------.OOOOOO$$$OOOOOOOOOOOO$$O -------------------------------------",
"--------------------------------- OOOO $$OOOOOOOOOOOOOOOO$$ ------------------------------------",
"---------------------------------   . $OOOOOOOOOOOOOOOOOOO$.------------------------------------",
"------------------------------------- OOOOOOOOOO. OOOOOOOOO$ -----------------------------------",
"------------------------------------ OOOOOOOOO. ++  .OOOOOOO -----------------------------------",
"------------------------------------ OOOOOOO. +++++++.       -----------------------------------",
"------------------------------------ OOOO.  +++++++++++&**X-------------------------------------",
"-------------------------------------.    ++++++++++++++&**X------------------------------------",
"-------------------------------------X+++ +++++++++++++++&*X------------------------------------",
"------------------------------------- ++ ++++++++++++++++&**X-----------------------------------",
"------------------------------------ +++ ++++++++++++++++&&*X-----------------------------------",
"------------------------------------ +++ +++++++++++++++++&*X-----------------------------------",
"------------------------------------ +++ +++++++++++++++++&&X-----------------------------------",
"------------------------------------ +++ +++++++++++++++++&&X-----------------------------------",
"------------------------------------ +++ +++++++++++++++++&& -----------------------------------",
"------------------------------------ ++++X++++++++++++++++&& -----------------------------------",
"------------------------------------ ++++ ++++++++++++++++&X------------------------------------",
"------------------------------------X++++ ++++++++++++++++&X------------------------------------",
"-------------------------------------X++++X+++++++++++++++& ------------------------------------",
"------------------------------------- ++++ ++++++++++++++&+ ------------------------------------",
"------------------------------------- ++++ ++++++++++++++& -------------------------------------",
"------------------------------------- +++++X++++++++++++&& -------------------------------------",
"------------------------------------- +++++ ++++++++++++&&X-------------------------------------",
"------------------------------------ +++++++ +++++++++++&&X-------------------------------------",
"------------------------------------ ++++++++X++++++++++&&X-------------------------------------",
"----------------------------------- +++++++X @ ++++++++++&&X------------------------------------",
"-----------------------------------  ++++  @@@@  +++++++++&X------------------------------------",
"-------------------------------------   Xo@@o@@@@   X++++  -------------------------------------",
"---------------------------------------- @@@@o@@@@@@     ---------------------------------------",
"----------------------------------------- @o    @@@@#@ -----------------------------------------",
"-----------------------------------------oo@ --  @@## ------------------------------------------",
"------------------------------------------  ----- @# -------------------------------------------",
"--------------------------------------------------  --------------------------------------------",
"------------------------------------------------------------------------------------------------",
"------------------------------------------------------------------------------------------------",
"------------------------------------------------------------------------------------------------",
"------------------------------------------------------------------------------------------------",
"------------------------------------------------------------------------------------------------",
"------------------------------------------------------------------------------------------------",
"------------------------------------------------------------------------------------------------",
"------------------------------------------------------------------------------------------------",
"------------------------------------------------------------------------------------------------",
"------------------------------------------------------------------------------------------------",
"------------------------------------------------------------------------------------------------",
"------------------------------------------------------------------------------------------------",
"------------------------------------------------------------------------------------------------",
"------------------------------------------------------------------------------------------------",
"------------------------------------------------------------------------------------------------",
"------------------------------------------------------------------------------------------------",
"------------------------------------------------------------------------------------------------",
"------------------------------------------------------------------------------------------------",
"------------------------------------------------------------------------------------------------",
"------------------------------------------------------------------------------------------------",
"------------------------------------------------------------------------------------------------",
"------------------------------------------------------------------------------------------------",
"------------------------------------------------------------------------------------------------",
"------------------------------------------------------------------------------------------------"
};
