/* XPM */
static char *sprite_368_front[] = {
/* columns rows colors chars-per-pixel */
"96 96 14 1 ",
"  c #010101",
". c #62396A",
"X c #944A5A",
"o c #9C5ABD",
"O c #D562A4",
"+ c #B473E6",
"@ c #CDBDAC",
"# c #F68BC5",
"$ c #F6ACCD",
"% c #DE9CFF",
"& c #FFCDDE",
"* c #E6DED5",
"= c white",
"- c None",
/* pixels */
"------------------------------------------------------------------------------------------------",
"------------------------------------------------------------------------------------------------",
"------------------------------------------------------------------------------------------------",
"------------------------------------------------------------------------------------------------",
"------------------------------------------------------------------------------------------------",
"------------------------------------------------------------------------------------------------",
"------------------------------------------------------------------------------------------------",
"------------------------------------------------------------------------------------------------",
"------------------------------------------------------------------------------------------------",
"------------------------------------------------------------------------------------------------",
"------------------------------------------------------------------------------------------------",
"------------------------------------------------------------------------------------------------",
"------------------------------------------------------------------------------------------------",
"------------------------------------------------------------------------------------------------",
"------------------------------------------------------------------------------------------------",
"------------------------------------------------------------------------------------------------",
"------------------------------------------------------------------------------------------------",
"------------------------------------------------------------------------------------------------",
"------------------------------------------------------------------------------------------------",
"------------------------------------------------------------------------------------------------",
"------------------------------------------------------------------------------------------------",
"------------------------------------------------------------------------------------------------",
"------------------------------------------------.-----------------------------------------------",
"-----------------------------------------------.+.----------------------------------------------",
"-----------------------------------------------.+ ----------------------------------------------",
"----------------------------------------------.++ ----------------------------------------------",
"---------------------------------------------.++o ----------------------------------------------",
"--------------------------------------------.+++o ----------------------------------------------",
"------------------------------------------..+++oo.----------------------------------------------",
"---------------------------------------OOO+++++o -----------------------------------------------",
"------------------------------------OOO###++++oo -----------------------------------------------",
"---------------------------------OOO######++ooo ------------------------------------------------",
"-------------------------------OO########Ooooo -------------------------------------------------",
"-----------------------------##$$#####OOOooo. --------------------------------------------------",
"----------------------------#&&$###OOOOOO  .--------------------------------------...-----------",
"---------------------------#&&$#OOOOO    ---------------------------------------..+++.----------",
"--------------------------#&&#O      ------------------------------------------.+++ooo.---------",
"-------------------------#&&#  -----------------------------------------------.+++oooo ---------",
"------------------------#&&# -------------------------------------------------.++oooooo --------",
"------------------------#&# ----OOOOOXXXX-------------------------------------.+ooooooo --------",
"-----------------------#&& -OOOO$$$$$$###XXXX--------------------------------.++ooooooo --------",
"-----------------------#&&XO$$$$$$###########XX------------------------------.+oooooooo --------",
"-----------------------#&#$&&&$################X----------------------------- +oooooooo --------",
"----------------------O&&#&&$###################XX--------------------------- oXXoooooo --------",
"----------------------O&#&$######################OX--------------------------XXOO oooo ---------",
"---------------------O&&&$#########################X------------------------XOOO ooooo ---------",
"------------------- -O&&$#####o####################OX----------------------XOO  ooooo ----------",
"-------------------- $&&##### #######################X--------------------XOO ..ooo  -----------",
"------------------- X&&$##O  ## ##################### -------------------XOOO --...-------------",
"--------------------O&&##O@=@  #######################X------------------XOO -------------------",
"-------------------O&&$##O= =O######################## -----------------X##O -------------------",
"------------------O&&$##O= = =O######################## ----------------X## --------------------",
"-----------------O&&$###O= = =O###########OOOOO######## ---------------X### --------------------",
"----------------X&&$####O=   =O#########OOOOOOOOO####### --------------X##O --------------------",
"---------------X&&$######O= =O########OOO    OOOOO###### -------------X### ---------------------",
"--------------X&$########O@=@O#######OO  ---- OOOOO##### -------------X### ---------------------",
"------------XX$###########O#O#######O  ----- + OO   ##### ------------X### ---------------------",
"----------XX&$###O    O############O ------ %.+O o.+.#### -----------X###OX---------------------",
"---------X&$$#O   ----  O#########X ------- %.+ .%.%%.### -----------X###X----------------------",
"--------X$$O   ---------  O####OX   ------- %.+ .%oo+.#### ----------X### ----------------------",
"--------    --------------    OOOOOO X----- +.o .+%.+o.### ----------X### ----------------------",
"------------------------------   XOOOX ----- o. o.++.o #### --------X==## ----------------------",
"----------------------------------   OO ------ o. ..o.. #### -------X*==* ----------------------",
"-------------------------------------  O ----- oo.  .o++ #### -----X###*=X----------------------",
"--------------------------------------- O -----   XO ++o ##### ---- =*##X-----------------------",
"----------------------------------------  -------- OO  .#######    ====# -----------------------",
"--------------------------------------------------XXOOO##############==* -----------------------",
"--------------------------------------------------- OOOO##############= ------------------------",
"---------------------------------------------------- OOOO#############* ------------------------",
"-----------------------------------------------------  OOOO##########O -------------------------",
"-------------------------------------------------------  OOOOO######O --------------------------",
"---------------------------------------------------------   OOOOOOO  ---------------------------",
"------------------------------------------------------------       -----------------------------",
"------------------------------------------------------------------------------------------------",
"------------------------------------------------------------------------------------------------",
"------------------------------------------------------------------------------------------------",
"------------------------------------------------------------------------------------------------",
"------------------------------------------------------------------------------------------------",
"------------------------------------------------------------------------------------------------",
"------------------------------------------------------------------------------------------------",
"------------------------------------------------------------------------------------------------",
"------------------------------------------------------------------------------------------------",
"------------------------------------------------------------------------------------------------",
"------------------------------------------------------------------------------------------------",
"------------------------------------------------------------------------------------------------",
"------------------------------------------------------------------------------------------------",
"------------------------------------------------------------------------------------------------",
"------------------------------------------------------------------------------------------------",
"------------------------------------------------------------------------------------------------",
"------------------------------------------------------------------------------------------------",
"------------------------------------------------------------------------------------------------",
"------------------------------------------------------------------------------------------------",
"------------------------------------------------------------------------------------------------",
"------------------------------------------------------------------------------------------------",
"------------------------------------------------------------------------------------------------",
"------------------------------------------------------------------------------------------------"
};
