/* XPM */
static char *grass[] = {
/* columns rows colors chars-per-pixel */
"67 56 198 2 ",
"   c #5C342B",
".  c #18520D",
"X  c #384E00",
"o  c #3C5101",
"O  c #3B561D",
"+  c #3B5310",
"@  c #3C710B",
"#  c #375625",
"$  c #3D5E2B",
"%  c #3B5A26",
"&  c #445500",
"*  c #445A00",
"=  c #4B5D00",
"-  c #465E14",
";  c #476201",
":  c #4D6201",
">  c #466B03",
",  c #4F6B01",
"<  c #47600D",
"1  c #516400",
"2  c #556900",
"3  c #596D00",
"4  c #4E7105",
"5  c #497805",
"6  c #5C7201",
"7  c #5B7903",
"8  c #527101",
"9  c #4D6A17",
"0  c #52731C",
"q  c #617501",
"w  c #647C00",
"e  c #6A7E01",
"r  c #667C0C",
"t  c #647F14",
"y  c #724E3D",
"u  c #567828",
"i  c #4E7738",
"p  c #4B7437",
"a  c #557D36",
"s  c #88674E",
"d  c #4B830E",
"f  c #548C0B",
"g  c #5A910B",
"h  c #5F9B0F",
"j  c #5B9D11",
"k  c #519916",
"l  c #658402",
"z  c #6C8402",
"x  c #6B8D04",
"c  c #6B8907",
"v  c #708504",
"b  c #738A05",
"n  c #788E04",
"m  c #72850A",
"M  c #76890B",
"N  c #798F0D",
"B  c #6C9304",
"V  c #689D09",
"C  c #769303",
"Z  c #7C9305",
"A  c #7C9A05",
"S  c #75940A",
"D  c #7C920B",
"F  c #7B9B0C",
"G  c #6D8514",
"H  c #6F8914",
"J  c #6A851B",
"K  c #6D891D",
"L  c #748C13",
"P  c #728D1B",
"I  c #7B8D10",
"U  c #6E9710",
"Y  c #6C9F10",
"T  c #7B9312",
"R  c #7B9419",
"E  c #779613",
"W  c #5DAD18",
"Q  c #57A317",
"!  c #5FB119",
"~  c #6AA40C",
"^  c #78A80B",
"/  c #7FBF0D",
"(  c #66A511",
")  c #6DA513",
"_  c #6CAD14",
"`  c #61AA17",
"'  c #73A414",
"]  c #7CA113",
"[  c #72AA14",
"{  c #79AB18",
"}  c #7DAD15",
"|  c #67B314",
" . c #6BB116",
".. c #6BB719",
"X. c #66BD1C",
"o. c #6BBD1B",
"O. c #66B518",
"+. c #74B219",
"@. c #72BC1A",
"#. c #7DB519",
"$. c #5D8122",
"%. c #5F8836",
"&. c #5C873A",
"*. c #5E8B3E",
"=. c #568338",
"-. c #6A8A24",
";. c #61872F",
":. c #678829",
">. c #6B8D2C",
",. c #658723",
"<. c #718F20",
"1. c #6E912C",
"2. c #759222",
"3. c #7A9623",
"4. c #7C9825",
"5. c #72932E",
"6. c #799A2C",
"7. c #648D35",
"8. c #628D3B",
"9. c #698F32",
"0. c #6C9334",
"q. c #65913D",
"w. c #6A933B",
"e. c #719432",
"r. c #759A33",
"t. c #7FA330",
"y. c #6AC51E",
"u. c #71C21C",
"i. c #7ECB16",
"p. c #5F8E44",
"a. c #578540",
"s. c #5F9046",
"d. c #618F41",
"f. c #639141",
"g. c #819606",
"h. c #839B03",
"j. c #82960A",
"k. c #839C0B",
"l. c #8A9E0D",
"z. c #839712",
"x. c #859C12",
"c. c #8A9F10",
"v. c #839C1B",
"b. c #86A306",
"n. c #8AA303",
"m. c #8CAB06",
"M. c #85A309",
"N. c #8DA20D",
"B. c #8BAB0B",
"V. c #92AB06",
"C. c #91A50F",
"Z. c #94AB0E",
"A. c #99AF0F",
"S. c #92B30A",
"D. c #9CB30C",
"F. c #9CBA0E",
"G. c #9AB808",
"H. c #8BA413",
"J. c #83AD12",
"K. c #8AAB11",
"L. c #85A313",
"P. c #92A612",
"I. c #93AA13",
"U. c #99AD12",
"Y. c #97AE19",
"T. c #85B213",
"R. c #88B011",
"E. c #8EBD12",
"W. c #81B618",
"Q. c #9CB110",
"!. c #96B514",
"~. c #A2BA0F",
"^. c #A1B611",
"/. c #A5BC12",
"(. c #A9BF12",
"). c #819E25",
"_. c #86A322",
"`. c #85A227",
"'. c #90A625",
"]. c #8FC216",
"[. c #8DCD16",
"{. c #81CB14",
"}. c #90C717",
"|. c #8DD315",
" X c #90DC17",
".X c #96D618",
"XX c #ADC315",
"oX c #AFC419",
"OX c #B1C617",
"+X c #B2C719",
"@X c #9BE319",
"#X c #96EC1B",
"$X c #9AEC1C",
"%X c #96E71A",
"&X c #9BF51D",
"*X c #9DFA1E",
"=X c #A9946F",
"-X c #000000",
/* pixels */
"-X-X-X-X-X-X-X-X-X-X-X-X-Xn h.h.-X-X-X-X-X-X-XC.e 3 -X-X-X-X-X-X-X-X-X-X-X-X-X-X-X-X-X-X-X-X-X-X-X-X-X-X-X-X-X-X-X-X-X-X-X-X-X-X-X-X-X",
"-X-X-X-X-X-X-X-X-X-X-X-X-X-X6 D.n.-X-X-X-XD.^.z = p.p.*Xy.p.y.y.y.s.*Xs.s.*Xy.s.y.s.s.*Xy.-X-X-X-X-X-X-X-X-X-X-X-X-X-X-X-X-X-X-X-X-X-X",
"-X-X-X-X-X-X-X-X-X-X-X-X-X-X-Xh.D.h.q -XI.(.q = &.s.p.y.y.p.y.s.s.*Xy.s.s.y.s.s.s.s.s.y.y.s.-X-X-X-X-X-X-X-X-X-X-X-X-X-X-X-X-X-X-X-X-X",
"-X-X-X-X-X-X-X-X-X-X-X-X-X-X-X1 /.D.q 3 Z.e & W.p.p.&Xp.y.s.s.s.s.y.s.s.y.*Xs.*Xs.s.*Xs.y.s.s.-X-X-X-X-X-X-X-X-X-X-X-X-X-X-X-X-X-X-X-X",
"-X-X-X-X-X-X-X-X-X-X-X-X-X-X: & n.V.Z q m = : c 6 ^ f *.p.*Xs.*Xs.y.y.s.s.y.y.y.s.y.y.s.s.*Xs.*X-X-X-X-X-X-X-X-X-X-X-X-X-X-X-X-X-X-X-X",
"-X-X-X-X-X-X-X-X-X-X(.(.^.A.g.3 1 G.g.1 = = Z (.C.7 p.&Xs.p.*Xs.s.y.*Xy.s.y.s.s.y.y.s.*Xs.s.*Xs.s.-X-X-X-X-X-X-X-X-X-X-X-X-X-X-X-X-X-X",
"-X-X-X-X-X-X-X-X-X-X1 1 N.D.n.h.1 h.h.1 = k.D.e : O d W p.*Xy.s.*Xs.y.s.s.y.s.y.y.s.y.y.s.*Xy.s.*Xs.-X-X-X-X-X-X-X-X-X-X-X-X-X-X-X-X-X",
"-X-X-X-X-X-X-X-X-X-X-X-X= 1 Z h.3 3 V.: 2 OX3 2 = $ % j k y.&Xp.y.y.y.s.s.s.s.s.s.s.s.*Xy.y.*Xs.y.y.s.-X-X-X-X-X-X-X-X-X-X-X-X-X-X-X-X",
"-X-X-X-X-X-X-X-X-X-X-X-XZ.XXoXn 1 = n.= XXg.1 1 : > # g $ a.*Xs.s.y.*Xy.s.y.s.s.y.y.s.*Xs.s.*Xs.s.y.*Xy.-X-X-X-X-X-X-X-X-X-X-X-X-X-X-X",
"-X-X-X-X-X-X-X-X-X-X-XOXOXXX(.oX^.= q v n.3 = = 1 : 2 > # i.y.s.*Xs.y.s.s.y.s.y.y.s.y.y.s.*Xy.s.*X*.y.s.s.-X-X-X-X-X-X-X-X-X-X-X-X-X-X",
"-X-X-X-X-X-X-X-X-X-XV.^.& = = e C.g.= v n 1 = 3 /.(.v.7 @ W *Xs.y.y.y.s.s.s.s.s.s.s.s.*Xy.y.*Xs.y.c o.s.s.s.-X-X-X-X-X-X-X-X-X-X-X-X-X",
"-X-X-X-X-X-X-X-X-X^.^.: & v U.m & 3 q v q = 2 (.Z 3 - @ $ s.y.s.y.s.s.s.*Xs.*Xs.*Xy.s.y.d.d.y.*.y.b.C ,.&X*.*X-X-X-X-X-X-X-X-X-X-X-X-X",
"-X-X-X-X-X-X-X-X-X& 3 a d V q A.3 & q v : = (.j.1 O f $ X.*Xs.s.s.s.*Xy.y.*Xy.s.*Xs.*Xs.7 M.S.A 7 S.A l n.S.B p.-X-X-X-X-X-X-X-X-X-X-X",
"-X-X-X-X-X-X-X-X-X-Xy.s.` ~ 1 e n = 1 n 1 z XX1 4 # Q d.y.*Xs.*Xs.*Xy.s.s.y.y.s.y.s.y.f.f z m.S.1 c w m.S.z ; *.y.-X-X-X-X-X-X-X-X-X-X",
"-X-X-X-X-X-X-X-X-X*Xs.*Xs.X.0 2 m > 1 z : Z.k.q ` *Xf.*Xs.y.s.y.s.*Xy.s.*Xs.s.s.y.*Xs.*X$.> 6 7 7 * 2 A n > O i y.*X-X-X-X-X-X-X-X-X-X",
"-X-X-X-X-X-X-X-Xs.y.*Xy.s.y.p.V p.j a l f u &.[.s.y.*Xy.s.y.s.y.s.y.s.y.y.s.s.*Xs.y.*X~ B.S.w 2 * * 6 6 c S.A l i y.*X-X-X-X-X-X-X-X-X",
"-X-X-X-X-X-X-Xs.*Xs.y.s.s.s.s.s.&Xs.f.=.s.f.f.s.*Xs.y.s.s.s.f.s.*Xs.s.s.s.s.s.s.*Xd.O.B.m.c z M.w 3 M.C * A b.A 7 *.y.s.-X-X-X-X-X-X-X",
"-X-X-X-X-X-Xy.s.y.s.s.*Xy.s.y.y.y.s.&Xf.s.&XX.s.y.s.s.%X+.s.{ y.y.s.*Xs.s.*Xy.s.y.d.0 > o X Z D.b.l b.F.c X o ; ! s.s.*Xy.-X-X-X-X-X-X",
"-X-X-X-X-Xy.s.s.s.s.s.y.y.s.y.s.s.*Xu.w.e.#.`.w.f.f.f.K.x.e.v.d.s.*Xy.s.s.y.s.s.d.f.p.X.5 o B.S.6 * : G.S.X * < =.s.s.y.y.s.-X-X-X-X-X",
"-X-X-X-Xy.*Xs.*Xs.s.*Xs.y.s.s.s.d.F `.4.] K.4.N.4.8.*X3.{ v.).d.s.y.s.p.y.*Xs.*Xs.s.&Xp.y.7 Z.3 * ; + * S.2 1 {.s.s.*Xs.y.s.s.-X-X-X-X",
"-X-X-Xs.s.y.y.y.s.y.y.s.f.&Xd.&Xw.W.E R L K.k.z 3.@.o.p.0.}.f.$XY._ o.w.p.y.y.y.s.y.y.s.s.l > > 9 j f u 7 | y.y.s.y.y.s.s.*Xs.*X-X-X-X",
"-X-X*Xs.s.y.s.*Xy.s.s.s.y.y.$Xu.u.r.Z N L m 1.B.J.8.p.p.y.@.&X@.K.-.}.<.s.y.s.*Xy.s.s.s.y.y.%Xy.y.s.*Xs.p.y.s.*Xy.s.s.s.y.y.*Xy.y.-X-X",
"-Xs.y.s.*Xs.s.s.y.s.f.y.*X0.y.r.r.w.@.9.@X8.0.f.y.p.s.y.&Xf.o.J P R c L |.s.s.s.y.s.s.y.*Xs.y.s.p.s.y.s.&Xs.s.s.y.s.s.y.*Xs.y.s.s.s.-X",
"s.*Xs.s.y.*Xs.y.*Xy.y.f.y.f.0.f.p.*Xs.*...%XN y.&X_ o.w._ 2.J P.T N.t -._ *Xs.y.*Xy.y.s.y.s.s.s.s.*Xs.s.y.*Xs.y.*Xy.y.s.y.s.s.s.s.*Xs.",
"s.y.*Xy.s.y.s.s.y.y.s.*Xs.s.].e.p.+.&Xy.p.S N.,.} N %.&Xz.D v c.l J.z } ,.y.p.p.y.y.s.*Xs.s.*Xs.s.y.*Xy.s.y.s.s.y.y.s.*Xs.s.*Xs.s.y.s.",
"s.s.y.s.s.y.s.y.y.s.y.y.s.*XX.f.*X0.@.p.*.n N.n K.n [ Y g.C.e H.n J o.d.p.y.s.y.y.s.y.y.s.*Xy.s.*Xs.y.s.s.y.s.y.y.s.y.y.s.*Xy.s.*Xy.. ",
". s.y.s.s.s.s.s.s.s.s.*Xy.y.*Xs.y.O.u.5.9.l.j.z.Z I.D A l c N.G _ o.y.3.f.8.3.s.s.s.s.*Xy.y.*Xs.y.y.y.s.s.s.s.s.s.s.s.*Xy.y.*Xs.y.y.  ",
"  . s.s.*Xs.*Xs.*Xy.s.y.s.s.y.f.y.c.T K.l.n k.z B.l.n I.L n D v _ -.%.d.$Xw.].s.*Xy.s.y.s.s.y.s.y.s.s.s.*Xs.*Xs.*Xy.s.y.s.s.y.s.y..   ",
"  y . y.y.*Xy.s.*Xs.*Xs.X.@X>.`.I I.c Q.j.e N e .XN e K.m P.k.r T m ^ O.( &Xy.s.*Xs.*Xs.y.*Xs.s.s.s.*Xy.y.*Xy.s.*Xs.*Xs.y.*Xs.. . y   ",
"-X  s . . y.y.s.y.s.y.s.y.!.-.!.n C.z P I.z n T J.e N c.C.U.G C <..XO.$.%.y.y.s.y.s.y.s.y.*Xs.*Xs.*Xy.s.s.y.y.s.y.s.y.s.y.*Xs.y . y   ",
"-X-X  y y s.s.s.y.*Xf.&X8.y.Y.@.>.|...>.E.N P.z.x.Z N.n N.N T y.8.|.y.*. Xp.s.s.y.*Xs.*Xs.y.s.y.s.*Xy.s.*Xs.s.s.y.*Xs.*Xs.s.. s s     ",
"-X-X  y y . s.*Xs.y.*Xy.f.o.f.y.p.o.d._ O.R l.I U.N.U.e l.n P o.d.o.w.+.y.p.s.*Xs.y.*Xy.s.y.s.y.s.y.s.y.y.s.s.*Xs.y.*Xy.. .   y y   -X",
"-X-X-X  s s . s.*Xs.y.w.0.e.w.f.&Xd._.9.>.t J I.P.N l.N.j.r -.9.$Xe.5.e.s.s.s.s.*Xs.y.s.s.s.s.s.*Xs.s.s.s.s.s.s.*Xs.y.s.y . y y   -X-X",
"-X-X-X  s s s . s.s.f.*Xy.p.y.x.y.d.x.I.4..X' 4.x.P.N N.k.l._ K.] 8.$Xw.p.*Xy.s.y.s.s.*Xy.s.y.y.y.s.*Xs.s.*Xy.s.y.s.y.. s y       -X-X",
"-X-X-X  s s y y . *Xs.y.y.9.o.f.f.}.+.K.4./.2.N N n l.m N R D P.T $XT.w.s.y.s.s.s.s.s.y.y.s.y.s.s.*Xy.s.s.y.s.s.s.s.. =X=Xs     -X-X-X",
"-X-X-X  y s y y y . y.s.y.5.8.p.e./.z./.N./.L I.v M c.m P.c.P.m 5.B 0.v.y.*Xf.*Xs.s.*Xs.y.s.s.s.s.y.s.s.y.*Xs.*Xs.y.=X=Xy s -X  -X-X-X",
"-X-X-X    s y y y y . s.s.&Xf.].L T ' U.l.^ N K.e j.j.m 6.k.K.A _.l y.f.s.y.y.y.s.y.y.s.s.*Xs.*Xs.y.y.s.s.y.y.y.s.. s y y y -X-X-X-X-X",
"-X-X-X-X    y y   s y s.s.y.&Xy...1.%X9.t.m l.C Y v.>.G S [ E.) ( p.*Xs.s.y.s.*Xy.s.s.s.y.y.*Xy.y.s.*Xs.s.y.. . . s y y y   -X-X-X-X-X",
"-X-X-X-X-X-X      s y . y.y.y.p.d.p.y.%.&Xd.I.-.y.8.8.N z.5.K.f.'.f.y.s.*Xs.s.s.y.s.s.y.*Xs.y.s.s.s.y.s.*Xs.=Xy   y y y y -X-X-X-X-X-X",
"-X-X-X-X-X-X-X    s   y . . p.s.p.*Xp.p.y.&Xs.y.&Xo.y.R W.f.).f.f.*Xs.s.y.*Xs.y.*Xy.y.s.y.s.s.s.s.*Xs.s.s.. s y     y   -X-X-X-X-X-X-X",
"-X-X-X-X-X-X-X    y   s =X=X. . s.y.*Xy.p.y.d.p.u.y.s.*Xs.f.$Xf.s.y.*Xy.s.y.s.s.y.y.s.*Xs.s.*Xs.s.y.s.. . s y y   -X  -X-X-X-X-X-X-X-X",
"-X-X-X-X-X-X-X-X      s s s y s s.s.y.p.p.y.p.y.y.s.y.y.s.*Xy.s.*Xs.y.s.s.y.s.y.y.s.y.y.s.*Xy.s.*Xy..   s s y     -X-X-X-X-X-X-X-X-X-X",
"-X-X-X-X-X-X-X-X-X-X  s s s y y . s.y.s.p.p.p.p.s.s.s.*Xy.y.*Xs.y.y.y.s.s.s.s.s.s.s.s.*Xy.y.*Xs.y.. y   s s y   -X-X-X-X-X-X-X-X-X-X-X",
"-X-X-X-X-X-X-X-X-X-X  y s y     . . . s.*Xp.*Xp.*Xy.s.y.s.s.y.s.y.s.s.s.*Xs.*Xs.*Xy.s.y.s.s.y.s.. =Xs   y s y   -X-X-X-X-X-X-X-X-X-X-X",
"-X-X-X-X-X-X-X-X-X-X    s y   y =X=Xs y.y.*Xy.s.*Xs.*Xs.y.*Xs.s.s.s.*Xy.y.*Xy.s.*Xs.*Xs.y.*Xs.. =X=Xy s   s   -X-X-X-X-X-X-X-X-X-X-X-X",
"-X-X-X-X-X-X-X-X-X-X-X-X  y   s =X=Xy . y.s.y.s.. s.s.. y.y.s.y.s.s.*Xy.s.s.y.s.. s.s.. y.y.s.y s s y       -X-X-X-X-X-X-X-X-X-X-X-X-X",
"-X-X-X-X-X-X-X-X-X-X-X-X-X    y s s y . y.s.. . y . . y . y.. s.. . . . s.y.. . y . . y . y.. y s y y   -X-X-X-X-X-X-X-X-X-X-X-X-X-X-X",
"-X-X-X-X-X-X-X-X-X-X-X-X-X-X  y s y y   . . y y y . y y . .   . =X=Xs   . . y y y . y y . .     s y y   -X-X-X-X-X-X-X-X-X-X-X-X-X-X-X",
"-X-X-X-X-X-X-X-X-X-X-X-X-X-X    s y y   y s y y y   s =Xs y   s =X=Xy s y s y y y   s =Xs y     y y   -X-X-X-X-X-X-X-X-X-X-X-X-X-X-X-X",
"-X-X-X-X-X-X-X-X-X-X-X-X-X-X-X  y y   -X  s y y y y =X=X=Xs   y s s y     s y y y y =X=X=Xs           -X-X-X-X-X-X-X-X-X-X-X-X-X-X-X-X",
"-X-X-X-X-X-X-X-X-X-X-X-X-X-X-X        -X    y y   s =X=Xy s   y s y y       y y   s =X=Xy s   -X    -X-X-X-X-X-X-X-X-X-X-X-X-X-X-X-X-X",
"-X-X-X-X-X-X-X-X-X-X-X-X-X-X-X-X    -X-X-X-X      s s y y y     s y y   -X-X      s s y y y   -X-X-X-X-X-X-X-X-X-X-X-X-X-X-X-X-X-X-X-X",
"-X-X-X-X-X-X-X-X-X-X-X-X-X-X-X-X-X-X-X-X-X-X-X    s y y y       y y   -X-X-X-X    s y y y     -X-X-X-X-X-X-X-X-X-X-X-X-X-X-X-X-X-X-X-X",
"-X-X-X-X-X-X-X-X-X-X-X-X-X-X-X-X-X-X-X-X-X-X-X    y y y y -X-X        -X-X-X-X    y y y y -X-X-X-X-X-X-X-X-X-X-X-X-X-X-X-X-X-X-X-X-X-X",
"-X-X-X-X-X-X-X-X-X-X-X-X-X-X-X-X-X-X-X-X-X-X-X-X    y   -X-X-X-X    -X-X-X-X-X-X    y   -X-X-X-X-X-X-X-X-X-X-X-X-X-X-X-X-X-X-X-X-X-X-X",
"-X-X-X-X-X-X-X-X-X-X-X-X-X-X-X-X-X-X-X-X-X-X-X-X-X-X  -X-X-X-X-X-X-X-X-X-X-X-X-X-X-X  -X-X-X-X-X-X-X-X-X-X-X-X-X-X-X-X-X-X-X-X-X-X-X-X"
};
